<svg id="Layer_1" enable-background="new 0 0 74 74" height="512" viewBox="0 0 74 74" width="512" xmlns="http://www.w3.org/2000/svg"><g><path d="m69.27 58.61c-.28-.45-.77-.73-1.3-.73h-2.85v-27.12c0-1.41-1.15-2.56-2.56-2.56h-6.1v-1.2c0-1.59-1.29-2.89-2.88-2.89h-2.65c-.64-.85-1.46-1.52-2.39-1.95-.88-.44-1.84-.66-2.86-.66-.37 0-.73.03-1.07.09.02-.22.04-.45.04-.68 0-3.3-2.67-5.99-5.96-5.99-.95 0-1.88.22-2.71.65-.78-3.25-3.74-5.63-7.17-5.63-3.61 0-6.65 2.59-7.29 6.04-1-.69-2.18-1.06-3.39-1.06-3.29 0-5.96 2.69-5.96 5.99 0 .23.01.46.04.68-.34-.06-.69-.09-1.06-.09-3.66 0-6.64 2.99-6.64 6.66 0 1.72.66 3.36 1.85 4.61.1.1.23.15.36.15.12 0 .25-.05.35-.14.2-.19.21-.51.02-.71-1.01-1.06-1.57-2.45-1.57-3.92 0-3.12 2.53-5.66 5.64-5.66.56 0 1.06.07 1.54.23.17.06.36.01.5-.11.13-.12.19-.31.14-.49-.1-.38-.14-.79-.14-1.22 0-2.75 2.23-4.99 4.96-4.99 1.27 0 2.49.49 3.44 1.37.14.13.35.17.53.1s.3-.24.31-.44c.2-3.38 3.01-6.02 6.4-6.02 3.18 0 5.9 2.35 6.31 5.48.05.35.5.54.8.35.81-.55 1.77-.84 2.77-.84 2.73 0 4.96 2.24 4.96 4.99 0 .43-.05.84-.14 1.22-.04.18.01.36.14.49s.32.17.5.11c1.2-.39 2.72-.28 3.97.34.55.25 1.05.61 1.49 1.05h-19.03c-.23-1.01-1.12-1.76-2.19-1.76-1.25 0-2.27 1.02-2.27 2.27 0 1.24 1.02 2.25 2.27 2.25 1.07 0 1.97-.76 2.2-1.76h22.96c1.04 0 1.88.85 1.88 1.89v13.86c-1.01.24-1.76 1.14-1.76 2.21 0 1.24 1.02 2.25 2.27 2.25 1.24 0 2.25-1.01 2.25-2.25 0-1.08-.76-1.99-1.77-2.22v-9.09h4.92v23.54h-36.76c-.28 0-.5.22-.5.5s.22.5.5.5h37.27c.28 0 .5-.22.5-.5v-24.53c0-.28-.22-.5-.5-.5h-5.42v-1.57h6.1c.86 0 1.56.7 1.56 1.56v27.12h-46.59v-2.44h3.96c1.24 0 2.26-1.01 2.26-2.25v-20.24c0-1.24-1.01-2.25-2.26-2.25h-10.72c-.13 0-.26.05-.35.15l-5.77 5.75c-.1.1-.15.22-.15.36v16.23c0 1.24 1.01 2.25 2.26 2.25h9.77v2.44h-2.84c-.53 0-1.02.27-1.3.73-.28.45-.31 1.01-.07 1.49l.41.83c.96 1.93 2.91 3.14 5.07 3.14h46.07c2.16 0 4.1-1.2 5.07-3.14l.41-.83c.23-.48.2-1.04-.08-1.49zm-40.85-32.74c-.7 0-1.27-.56-1.27-1.25 0-.7.57-1.27 1.27-1.27.69 0 1.24.56 1.25 1.26v.01c0 .69-.56 1.25-1.25 1.25zm28.81 17.2c0 .69-.56 1.25-1.25 1.25-.7 0-1.27-.56-1.27-1.25 0-.7.57-1.27 1.27-1.27s1.25.56 1.25 1.27zm-46.96-10.67v2.88c0 .65-.53 1.18-1.18 1.18h-2.88zm-4.77 20.78v-15.72h3.58c1.2 0 2.18-.98 2.18-2.18v-3.58h10.22c.69 0 1.26.56 1.26 1.25v20.24c0 .69-.56 1.25-1.26 1.25h-14.72c-.7 0-1.26-.57-1.26-1.26zm42.57 5.7-.12.37c-.18.55-.52.92-.86.92h-12.53c-.33 0-.68-.37-.86-.92l-.12-.37zm20.37.77-.41.83c-.79 1.59-2.39 2.58-4.17 2.58h-46.07c-1.78 0-3.38-.99-4.17-2.58l-.41-.83c-.08-.17-.08-.36.02-.52s.26-.25.45-.25h3.34.01s0 0 .01 0h15.49l.22.68c.32.99 1.01 1.61 1.81 1.61h12.54c.79 0 1.48-.62 1.81-1.61l.22-.68h15.49.01s0 0 .01 0h3.34c.19 0 .35.09.45.25s.1.35.01.52z"/><path d="m45.68 33.8h-20.43c-.28 0-.5.22-.5.5s.22.5.5.5h20.43c3.66 0 6.64-2.98 6.64-6.64 0-.59-.08-1.16-.23-1.69-.08-.27-.35-.42-.62-.34s-.42.35-.34.62c.13.44.19.92.19 1.41 0 3.11-2.53 5.64-5.64 5.64z"/><path d="m15.02 38.3c-.38-.64-1.42-.63-1.8 0l-2.15 3.55c-.2.33-.21.73-.02 1.06.18.31.49.5.84.53v3.84c0 .58.47 1.05 1.05 1.05h2.34c.58 0 1.05-.47 1.05-1.05v-3.84c.35-.02.67-.21.84-.53.19-.33.18-.73-.02-1.06zm-.9.49c.03 0 .04.02.04.02l2.11 3.63-4.34-.08zm-1.22 8.49v-3.83h2.44l-.04 3.88z"/><path d="m33.37 43.53c0 4.12 3.34 7.46 7.44 7.46 4.12 0 7.46-3.35 7.46-7.46 0-4.1-3.35-7.44-7.46-7.44-4.1 0-7.44 3.34-7.44 7.44zm13.91 0c0 3.56-2.9 6.46-6.46 6.46-3.55 0-6.44-2.9-6.44-6.46 0-3.55 2.89-6.44 6.44-6.44 3.56 0 6.46 2.89 6.46 6.44z"/><path d="m38.8 39.82c-.4.23-.64.64-.64 1.1v5.23c0 .46.24.87.64 1.1.2.11.41.17.62.17.23 0 .45-.06.65-.18l4.33-2.62c.38-.23.61-.63.61-1.08s-.23-.85-.61-1.08l-4.33-2.62c-.39-.24-.87-.24-1.27-.02zm5.21 3.72c0 .04-.01.15-.13.22l-4.33 2.62c-.12.07-.22.03-.26 0-.04-.02-.13-.09-.13-.23v-5.23c0-.14.09-.21.13-.23.02-.01.07-.03.13-.03.04 0 .09.01.13.04l4.33 2.62c.12.06.13.18.13.22z"/></g></svg>