<?xml version="1.0" encoding="UTF-8"?>
<svg xmlns="http://www.w3.org/2000/svg" id="Layer_1" data-name="Layer 1" viewBox="0 0 512 512" width="512" height="512"><path d="M449.253,277.131V35.632a8,8,0,0,0-8-8H70.747a8,8,0,0,0-8,8v241.5L.523,440.676A7.989,7.989,0,0,0,0,443.521a40.894,40.894,0,0,0,40.847,40.847H471.153A40.894,40.894,0,0,0,512,443.521a7.989,7.989,0,0,0-.523-2.845Zm-129.9,158.39H192.643V394.379H319.357Zm2.378-57.142H190.265A13.638,13.638,0,0,0,176.643,392v43.519H19.6l46.21-121.455H446.187L492.4,435.521H335.357V392A13.638,13.638,0,0,0,321.735,378.379ZM76.263,286.6H435.737l4.362,11.464H71.9Zm356.99-242.97V270.6H78.747V43.632Zm37.9,424.736H40.847a24.886,24.886,0,0,1-23.519-16.847H494.672A24.886,24.886,0,0,1,471.153,468.368ZM97.747,259.6H414.253a8,8,0,0,0,8-8V62.632a8,8,0,0,0-8-8H97.747a8,8,0,0,0-8,8V251.6A8,8,0,0,0,97.747,259.6Zm8-188.971H406.253V243.6H105.747Z"/></svg>
