<svg id="Layer_1" enable-background="new 0 0 74 74" height="512" viewBox="0 0 74 74" width="512" xmlns="http://www.w3.org/2000/svg"><g><path d="m56.3 37.9c-.04 1.66-.26 3.28-.65 4.83.17-.12.34-.26.51-.4.2-.16.42-.3.65-.41.3-1.45.46-2.96.46-4.5 0-1.5-.15-2.97-.43-4.4h5.81c.28 0 .5-.22.5-.5v-10.24h1.66c2.44 0 4.43-1.99 4.43-4.44s-1.99-4.44-4.43-4.44c-.24 0-.47.02-.69.05.05-.36.08-.73.08-1.07 0-4.21-3.42-7.63-7.63-7.63-3.4 0-6.33 2.2-7.3 5.41-.43-.13-.84-.2-1.27-.2-2.45 0-4.44 1.99-4.44 4.44 0 .28.02.53.06.77-.5.11-.97.34-1.38.65-2.5-.93-5.2-1.44-8.02-1.44-1.92 0-3.79.24-5.57.69-.19-1.91-1.78-3.39-3.73-3.39-.16 0-.32.01-.47.03.03-.26.05-.53.05-.79 0-3.54-2.88-6.42-6.42-6.42-2.83 0-5.27 1.81-6.12 4.47-.33-.1-.66-.14-1-.14-2.08 0-3.77 1.69-3.77 3.77 0 .2.02.39.04.57-1.34.32-2.33 1.52-2.33 2.97 0 1.7 1.38 3.08 3.08 3.08h1.3v13.05c0 .28.22.5.5.5h1.86c-.31 1.5-.47 3.06-.47 4.65 0 1.42.13 2.8.38 4.15h.99c-.23-1.19-.37-2.41-.4-3.67h10.53c.02 1.25.08 2.48.2 3.67h.95c-.11-1.19-.18-2.42-.19-3.67h10.1v5.02c.58.68.92 1.54.92 2.48l.04-7.5h10.11c-.05 5.32-1.01 10.18-2.57 13.94-2.37-.98-4.92-1.53-7.52-1.59v.96c2.47.06 4.88.58 7.14 1.51-1.83 3.94-4.34 6.48-7.14 6.75l-.04.97c3.99-.07 7.72-1.17 10.97-3.03-.07-.33-.13-.66-.19-1-2.24 1.33-4.75 2.28-7.41 2.75 1.79-1.26 3.38-3.37 4.64-6.09.89.41 1.75.9 2.57 1.46-.02-.36-.03-.72-.03-1.09v-.08c-.69-.43-1.41-.82-2.15-1.17 1.64-3.88 2.64-8.86 2.69-14.29zm-25.88-22.22c-1.79 1.25-3.38 3.36-4.65 6.09-1.44-.68-2.79-1.53-4.04-2.54 2.56-1.76 5.51-3 8.69-3.55zm-24.5.46c0-1.1.88-2.02 1.96-2.05.16 0 .31-.09.4-.22s.11-.3.06-.45c-.1-.26-.14-.52-.14-.82 0-1.92 2-3.37 3.9-2.51.14.06.29.06.43-.01.13-.07.23-.19.27-.34.57-2.5 2.74-4.24 5.29-4.24 2.99 0 5.42 2.43 5.42 5.42 0 .44-.06.91-.17 1.34-.05.18.01.38.15.5s.34.16.52.09c.29-.12.6-.17.93-.17 1.49 0 2.7 1.16 2.76 2.65-2.24.67-4.35 1.66-6.25 2.94-.06-.03-.13-.05-.21-.05h-13.24c-1.15 0-2.08-.93-2.08-2.08zm4.38 15.63v-12.55h9.83c-4 3.11-6.96 7.5-8.24 12.55zm12.39 5.17h-10.53c.15-6.98 3.55-13.18 8.76-17.12 1.37 1.13 2.87 2.08 4.46 2.82-1.63 3.89-2.63 8.87-2.69 14.3zm11.06 0h-10.1c.06-5.32 1.02-10.19 2.58-13.94 2.37.97 4.92 1.52 7.52 1.58zm0-13.32c-2.47-.06-4.89-.57-7.14-1.5 1.82-3.95 4.34-6.49 7.14-6.75zm12.01 13.32c-.05-5.43-1.05-10.41-2.69-14.3 1.6-.74 3.09-1.69 4.46-2.83 5.21 3.95 8.62 10.14 8.77 17.13zm16.39-4.92h-5.53c-.88-3.66-2.65-6.99-5.05-9.74h10.58zm-17.88-15.93c.16 0 .31-.09.4-.22s.11-.3.05-.45c-.11-.29-.16-.62-.16-1.02 0-2.36 2.36-4.21 4.85-3.12.14.06.29.06.43-.01.13-.07.23-.19.26-.34.69-3.05 3.35-5.18 6.47-5.18 3.66 0 6.63 2.97 6.63 6.63 0 .53-.07 1.1-.21 1.65-.05.18.01.38.16.5.14.12.34.16.52.09.35-.14.73-.21 1.15-.21 1.89 0 3.43 1.54 3.43 3.44s-1.54 3.44-3.43 3.44h-14.17c-2.06-2.1-4.52-3.8-7.25-4.99.28-.12.57-.2.87-.21zm2.46 3.14c-1.26 1.01-2.61 1.86-4.05 2.53-1.26-2.72-2.85-4.83-4.64-6.08 3.18.55 6.13 1.79 8.69 3.55zm-12.02-3.86c2.8.26 5.31 2.8 7.13 6.75-2.25.92-4.66 1.44-7.13 1.5zm0 21.57v-12.36c2.6-.06 5.15-.61 7.52-1.59 1.56 3.76 2.52 8.63 2.57 13.95z"/><path d="m33.16 45.4c0-1.29-1.05-2.33-2.33-2.33h-24c-1.29 0-2.33 1.05-2.33 2.33v13.2.02 4.35c0 1.28 1.05 2.33 2.34 2.33h7.78v2.56h-1.66c-.28 0-.5.22-.5.5s.22.5.5.5h11.75c.28 0 .5-.22.5-.5s-.22-.5-.5-.5h-1.66v-2.56h7.78c1.29 0 2.34-1.05 2.34-2.33v-4.35c0-.01 0-.01 0-.02v-13.2zm-27.66 0c0-.73.6-1.33 1.33-1.33h24c.73 0 1.33.6 1.33 1.33v13.22c0 .73-.6 1.33-1.33 1.33h-24c-.74 0-1.33-.6-1.33-1.33zm16.55 22.46h-6.43v-2.56h6.43zm8.78-3.56h-23.99c-.74 0-1.34-.6-1.34-1.33v-2.45c.38.27.84.43 1.34.43h24c.5 0 .96-.16 1.34-.43v2.45c-.01.73-.61 1.33-1.35 1.33z"/><path d="m68.01 47.49c-2.95-.21-5.95-1.56-8.89-4-.58-.48-1.42-.48-2 0-2.96 2.45-5.96 3.8-8.91 4.01-.85.06-1.49.73-1.49 1.55v4.39c0 7.06 4.24 13.32 10.8 15.94.19.08.4.12.61.12s.42-.04.61-.12c6.54-2.63 10.77-8.88 10.77-15.94v-4.39c-.01-.83-.65-1.5-1.5-1.56zm.49 5.95c0 6.64-3.98 12.54-10.15 15.01-.15.06-.33.06-.47 0-6.18-2.47-10.17-8.36-10.17-15.01v-4.39c0-.3.24-.53.56-.56 3.16-.23 6.35-1.65 9.48-4.23.11-.09.23-.13.36-.13s.26.04.37.13c3.11 2.58 6.29 4.01 9.46 4.23.32.02.56.26.56.56z"/><path d="m67 49.47c-2.89-.39-5.77-1.69-8.57-3.88-.18-.14-.43-.14-.61 0-2.82 2.19-5.71 3.5-8.59 3.88-.25.03-.43.25-.43.5v3.48c0 6.04 3.58 11.48 9.13 13.87.06.03.13.04.2.04s.13-.01.2-.04c5.54-2.39 9.11-7.83 9.11-13.87v-3.48c-.01-.25-.19-.47-.44-.5zm-.57 3.97c0 5.56-3.26 10.59-8.31 12.86-5.07-2.27-8.33-7.29-8.33-12.86v-3.04c2.81-.46 5.61-1.73 8.33-3.79 2.71 2.05 5.5 3.32 8.31 3.79z"/><path d="m52.93 56.41c0 2.86 2.32 5.19 5.17 5.19 2.86 0 5.19-2.33 5.19-5.19 0-2.85-2.33-5.17-5.19-5.17-2.85 0-5.17 2.31-5.17 5.17zm9.36 0c0 2.31-1.88 4.19-4.19 4.19-2.3 0-4.17-1.88-4.17-4.19 0-2.3 1.87-4.17 4.17-4.17 2.31 0 4.19 1.87 4.19 4.17z"/><path d="m56.47 56.86c-.2-.2-.51-.2-.71 0s-.2.51 0 .71l1.11 1.11c.1.1.23.15.35.15s.26-.05.35-.15l2.87-2.87c.2-.2.2-.51 0-.71s-.51-.2-.71 0l-2.51 2.51z"/></g></svg>