<svg id="Capa_1" enable-background="new 0 0 512 512" height="512" viewBox="0 0 512 512" width="512" xmlns="http://www.w3.org/2000/svg"><g><path d="m493.465 472.251c-5.858-5.858-15.355-5.858-21.213 0s-5.858 15.355 0 21.213l14.142 14.142c5.858 5.858 15.355 5.858 21.213 0s5.858-15.355 0-21.213z"/><path d="m436.896 415.683c-5.858-5.858-15.355-5.858-21.213 0s-5.858 15.355 0 21.213l14.142 14.142c5.858 5.858 15.355 5.858 21.213 0s5.858-15.355 0-21.213z"/><path d="m486.393 415.683-14.142 14.142c-5.858 5.858-5.858 15.355 0 21.213s15.355 5.858 21.213 0l14.142-14.142c5.858-5.858 5.858-15.355 0-21.213s-15.355-5.858-21.213 0z"/><path d="m429.825 472.251-14.142 14.142c-5.858 5.858-5.858 15.355 0 21.213s15.355 5.858 21.213 0l14.142-14.142c5.858-5.858 5.858-15.355 0-21.213s-15.355-5.858-21.213 0z"/><path d="m75.104 96.317c5.858 5.858 15.355 5.858 21.213 0s5.858-15.355 0-21.213l-14.142-14.142c-5.858-5.858-15.355-5.858-21.213 0s-5.858 15.355 0 21.213z"/><path d="m18.536 39.749c5.858 5.858 15.355 5.858 21.213 0s5.858-15.355 0-21.213l-14.142-14.143c-5.858-5.858-15.355-5.858-21.213 0s-5.858 15.355 0 21.213z"/><path d="m82.175 39.749 14.142-14.142c5.858-5.858 5.858-15.355 0-21.213s-15.355-5.858-21.213 0l-14.142 14.142c-5.858 5.858-5.858 15.355 0 21.213s15.355 5.858 21.213 0z"/><path d="m25.607 96.317 14.142-14.142c5.858-5.858 5.858-15.355 0-21.213s-15.355-5.858-21.213 0l-14.143 14.142c-5.858 5.858-5.858 15.355 0 21.213s15.356 5.858 21.214 0z"/><circle cx="457" cy="55" r="15"/><circle cx="55" cy="457" r="15"/><g><path d="m232.249 237.818-43.749-91.915-43.748 91.915z"/><path d="m212.252 126 43.748 91.916 43.749-91.916z"/><path d="m241 463v-195.182h-94.765z"/><path d="m55.099 149.261-44.279 88.557h86.429z"/><path d="m164.749 126h-87.497l43.748 91.916z"/><path d="m501.18 237.818-44.279-88.557-42.149 88.557z"/><path d="m434.749 126h-87.497l43.748 91.916z"/><path d="m399.114 267.818-82.631 170.19 189.395-165.72c1.468-1.284 2.623-2.81 3.471-4.47z"/><path d="m2.652 267.818c.847 1.66 2.003 3.186 3.471 4.47l189.395 165.72-82.631-170.19z"/><path d="m271 267.818v195.182l94.765-195.182z"/><path d="m367.249 237.818-43.749-91.915-43.748 91.915z"/></g></g></svg>