<svg id="negative-deal" enable-background="new 0 0 300 300" height="512" viewBox="0 0 300 300" width="512" xmlns="http://www.w3.org/2000/svg"><g><path d="m136.93 72.022c.781.781 1.805 1.172 2.828 1.172s2.047-.391 2.828-1.172l5.172-5.172 5.172 5.172c.781.781 1.805 1.172 2.828 1.172s2.047-.391 2.828-1.172c1.562-1.562 1.562-4.094 0-5.656l-5.172-5.172 5.172-5.172c1.562-1.562 1.562-4.094 0-5.656s-4.094-1.562-5.656 0l-5.172 5.172-5.172-5.172c-1.562-1.562-4.094-1.562-5.656 0s-1.562 4.094 0 5.656l5.172 5.172-5.172 5.172c-1.563 1.563-1.563 4.094 0 5.656z"/><path d="m241.758 229.194c-7.719 0-14 6.281-14 14s6.281 14 14 14 14-6.281 14-14-6.282-14-14-14zm0 20c-3.309 0-6-2.691-6-6s2.691-6 6-6 6 2.691 6 6-2.692 6-6 6z"/><path d="m247.767 89.631c2.362 0 4.276-1.915 4.276-4.277s-1.914-4.276-4.276-4.276-4.276 1.915-4.276 4.276c0 2.362 1.915 4.277 4.276 4.277z"/><path d="m271.82 167.302-31.707-63.422c-.492-.982-1.367-1.721-2.418-2.039-1.059-.316-2.191-.189-3.145.355l-27.559 15.771c-6.926 3.469-15.152 2.818-21.457-1.686l-1.516-1.082c-7.887-5.633-18.121-7.252-27.344-4.334l-13.87 4.379c-11.701-6.637-25.886-7.395-38.224-1.917-5.531 2.459-11.629 3.361-17.629 2.609l-17.219-2.152-16.176-8.162c-.988-.498-2.141-.566-3.188-.182-1.043.387-1.879 1.188-2.305 2.213l-20 48c-.668 1.605-.227 3.457 1.098 4.584l15.363 13.078 21.39 26.74c-3.26 5.58-2.551 12.857 2.224 17.635 2.84 2.84 6.57 4.26 10.301 4.26.141 0 .28-.036.421-.04-.004.144-.042.282-.042.427 0 3.891 1.516 7.551 4.27 10.301 2.84 2.84 6.57 4.262 10.305 4.262.14 0 .277-.036.417-.04-.004.144-.042.28-.042.425 0 3.893 1.516 7.553 4.27 10.303 2.84 2.84 6.57 4.262 10.301 4.262.144 0 .286-.037.43-.041-.113 3.872 1.271 7.779 4.219 10.729 2.75 2.752 6.41 4.268 10.301 4.268 3.895 0 7.551-1.516 10.301-4.268l6.978-6.977 7.265 5.027 5.172 3.336c2.297 1.379 4.871 2.086 7.484 2.086 1.176 0 2.355-.145 3.527-.434 3.773-.936 6.949-3.285 8.941-6.613 1.442-2.406 2.115-5.116 2.031-7.856.799.125 1.6.206 2.398.206 4.523 0 8.918-1.971 11.664-5.648 1.961-2.625 2.977-5.82 2.914-9.039 5.309.799 10.797-1.17 14.012-5.496 1.953-2.623 2.961-5.807 2.898-9.018 5.312.801 10.797-1.172 14.012-5.496 2.469-3.314 3.426-7.525 2.629-11.555-.287-1.447-.857-2.79-1.548-4.065l46.369-28.497c1.765-1.086 2.41-3.342 1.484-5.197zm-198.023 44.734c-2.559-2.561-2.559-6.73 0-9.293l4.984-4.982c2.559-2.555 6.727-2.561 9.293-.002 2.554 2.56 2.557 6.715.013 9.279l-4.997 4.998c-2.567 2.563-6.735 2.555-9.293 0zm14.949 14.947s0 0 0-.002c-1.242-1.24-1.926-2.889-1.926-4.643 0-1.756.684-3.404 1.926-4.646l4.984-4.984 4.98-4.98c1.281-1.281 2.965-1.922 4.648-1.922 1.68 0 3.363.641 4.645 1.92 1.242 1.242 1.926 2.893 1.926 4.646 0 1.756-.684 3.404-1.926 4.646l-9.965 9.965c-2.565 2.567-6.733 2.559-9.292 0zm14.949 14.95s0 0 0-.002c-1.242-1.24-1.926-2.889-1.926-4.645 0-1.754.684-3.404 1.926-4.646l14.949-14.947c1.242-1.24 2.891-1.924 4.645-1.924s3.402.684 4.645 1.924c1.242 1.242 1.926 2.891 1.926 4.645 0 1.756-.684 3.404-1.926 4.646l-14.945 14.949c-2.481 2.476-6.806 2.484-9.294 0zm24.238 14.949c-2.484 2.48-6.805 2.48-9.289 0-1.242-1.242-1.926-2.893-1.926-4.646s.684-3.404 1.926-4.646l19.93-19.932c1.281-1.279 2.965-1.92 4.648-1.92 1.68 0 3.363.641 4.645 1.92 2.562 2.562 2.562 6.73 0 9.293zm38.165-2.029c-.895 1.488-2.316 2.541-4.008 2.959-1.695.42-3.465.154-4.863-.68l-10.878-7.351 7.175-7.175c.528-.529.958-1.116 1.388-1.7l9.213 5.215c1.331.908 2.292 2.231 2.692 3.802.425 1.689.171 3.439-.719 4.93zm50.371-43.012c-1.977 2.656-5.992 3.258-9.145 1.373l-23.66-14.176c-1.898-1.133-4.355-.518-5.484 1.375-1.137 1.896-.52 4.354 1.375 5.488 0 0 17.93 10.744 18.133 10.865l.008.006c1.586.953 2.699 2.541 3.062 4.357.363 1.842-.062 3.697-1.195 5.223-1.98 2.662-5.996 3.26-9.148 1.375l-17.617-10.555c-1.898-1.133-4.355-.521-5.484 1.377-1.137 1.895-.52 4.352 1.375 5.486l12.082 7.237c.016.01.027.024.043.034 1.578.963 2.688 2.555 3.039 4.371.355 1.836-.074 3.682-1.207 5.197-1.98 2.652-5.992 3.25-9.223 1.318l-15.732-8.909c.272-4.053-1.076-8.194-4.166-11.286-4.346-4.346-10.77-5.335-16.097-3.03-.615-2.599-1.899-4.998-3.837-6.933-4.19-4.193-10.751-5.169-16.075-2.974-.608-2.623-1.902-5.042-3.854-6.993-4.353-4.351-10.783-5.338-16.11-3.026-.6-2.541-1.843-4.96-3.819-6.938-5.68-5.684-14.926-5.676-20.605 0l-1.847 1.846-20.743-25.928c-.16-.199-.34-.383-.531-.547l-13.437-11.434 17.227-41.336 12.953 6.535c.406.207.852.342 1.305.398l17.906 2.238c7.445.936 15.008-.186 21.871-3.236 7.391-3.284 15.596-3.784 23.213-1.681l-16.525 5.218c-4.203 1.33-7.621 4.225-9.625 8.152-2 3.928-2.336 8.395-.941 12.578 2.406 7.223 9.355 11.76 16.965 11.096l25.309-2.301c2.543 12.145 9.895 17.062 16.047 19.025l21.944 11.584 28.626 16.891 1.754 1.051c1.59.953 2.707 2.543 3.07 4.363.362 1.843-.064 3.698-1.2 5.226zm3.433-17.738-39.454-20.827c5.277-.972 9.111-2.455 9.383-2.564 2.051-.82 3.047-3.143 2.23-5.193s-3.148-3.051-5.195-2.238c-.098.039-9.875 3.855-18.574 2.625l-3.386-.742c-6.643-2.031-10.355-7.335-11.341-16.224-.227-2.043-1.957-3.559-3.973-3.559-.121 0-.242.006-.367.016l-29.035 2.639c-3.859.363-7.422-1.977-8.652-5.656-.707-2.133-.539-4.412.484-6.414 1.02-2.004 2.766-3.48 4.906-4.158l42.152-13.311c6.852-2.164 14.434-.963 20.289 3.217l1.516 1.082c8.727 6.229 20.09 7.123 29.879 2.225l24.082-13.777 28.18 56.361z"/><path d="m147.758 89.194c15.438 0 28-12.561 28-28s-12.562-28-28-28-28 12.561-28 28 12.562 28 28 28zm0-48c11.027 0 20 8.973 20 20s-8.973 20-20 20-20-8.973-20-20 8.972-20 20-20z"/></g></svg>