<svg id="Capa_1" enable-background="new 0 0 511.937 511.937" height="512" viewBox="0 0 511.937 511.937" width="512" xmlns="http://www.w3.org/2000/svg"><g><g id="Page-1_2_"><g id="_x30_03---3D"><path id="Shape_12_" d="m59.667 452.427c1.317.013 2.62-.279 3.806-.853l41.19-20.599c.734.609 1.5 1.179 2.295 1.707l136.533 75.844c7.722 4.336 17.144 4.336 24.866 0l136.533-75.844c.797-.524 1.564-1.094 2.295-1.707l41.199 20.599c4.218 2.107 9.345.395 11.452-3.823s.395-9.345-3.823-11.452l-38.801-19.456c.568-2.147.855-4.358.853-6.579v-171.674c.002-9.299-5.039-17.867-13.167-22.383l-136.533-75.844c-1.255-.63-2.559-1.155-3.9-1.57v-78.899c0-4.713-3.82-8.533-8.533-8.533s-8.533 3.821-8.533 8.533v78.899c-1.341.415-2.645.94-3.9 1.57l-136.533 75.844c-8.128 4.516-13.169 13.084-13.167 22.383v171.674c-.002 2.221.285 4.432.853 6.579l-38.801 19.413c-3.545 1.767-5.408 5.741-4.499 9.596.911 3.856 4.354 6.579 8.315 6.575zm242.739-93.013c-4.218-2.107-9.345-.395-11.452 3.823s-.395 9.345 3.823 11.452l94.327 47.164-124.638 69.282v-172.272l136.534-75.946v165.837zm-55.006-201.694v89.907c0 4.713 3.821 8.533 8.533 8.533s8.533-3.821 8.533-8.533v-89.907l127.334 70.741-135.868 75.614-135.868-75.614zm-136.533 85.154 136.533 75.947v172.314l-124.646-69.239 94.327-47.121c4.218-2.107 5.93-7.234 3.823-11.452s-7.234-5.93-11.452-3.823l-98.586 49.254v-165.88z"/><path id="Shape_11_" d="m8.467 478.027c1.317.013 2.62-.279 3.806-.853l17.067-8.533c4.218-2.107 5.93-7.234 3.823-11.452s-7.234-5.93-11.452-3.823l-17.067 8.533c-3.497 1.791-5.319 5.74-4.413 9.563.906 3.824 4.306 6.534 8.236 6.565z"/><path id="Shape_10_" d="m482.519 468.64 17.067 8.533c2.729 1.363 5.977 1.166 8.521-.515 2.544-1.682 3.999-4.593 3.814-7.637-.184-3.044-1.978-5.759-4.707-7.122l-17.067-8.533c-4.218-2.107-9.345-.395-11.452 3.823-2.106 4.218-.394 9.345 3.824 11.451z"/><path id="Shape_9_" d="m255.933 34.294c4.713 0 8.533-3.821 8.533-8.533v-17.067c0-4.713-3.82-8.533-8.533-8.533s-8.533 3.82-8.533 8.533v17.066c0 4.713 3.821 8.534 8.533 8.534z"/></g></g></g></svg>