<svg id="Capa_1" enable-background="new 0 0 512 512" height="512" viewBox="0 0 512 512" width="512" xmlns="http://www.w3.org/2000/svg"><g><g><path d="m116.176 407.745h14.145c4.141 0 7.498-3.357 7.498-7.498s-3.356-7.498-7.498-7.498h-14.145c-4.141 0-7.498 3.357-7.498 7.498s3.356 7.498 7.498 7.498z"/><path d="m381.679 465.723h14.145c4.141 0 7.498-3.357 7.498-7.498s-3.356-7.498-7.498-7.498h-14.145c-4.141 0-7.498 3.357-7.498 7.498.001 4.141 3.357 7.498 7.498 7.498z"/><path d="m479.164 69.56h-18.77c-4.141 0-7.498 3.357-7.498 7.498s3.356 7.498 7.498 7.498h18.77c9.838 0 17.841 8.003 17.841 17.841v313.636h-216.506v-120.793h11.318c13.781 0 24.992-11.211 24.992-24.992s-11.211-24.992-24.992-24.992h-11.318v-46.883h24.892c-2.574 3.479-4.203 7.586-4.708 12.001-.758 6.633 1.113 13.164 5.267 18.389 4.769 6.001 11.904 9.442 19.576 9.442 5.616 0 11.135-1.928 15.54-5.428l50.11-39.832c5.952-4.731 9.393-11.805 9.44-19.41.046-7.603-3.308-14.719-9.2-19.524l-50.11-40.849c-10.681-8.708-26.454-7.101-35.164 3.58-4.217 5.174-6.168 11.681-5.492 18.323.506 4.965 2.434 9.56 5.536 13.325h-25.687v-45.991c0-9.838 8.003-17.841 17.841-17.841h127.912c4.141 0 7.498-3.357 7.498-7.498s-3.356-7.498-7.498-7.498h-127.912c-18.106 0-32.836 14.73-32.836 32.836v45.991h-19.007v-103.971c0-18.106-14.731-32.837-32.836-32.837h-180.824c-18.106 0-32.837 14.731-32.837 32.837v365.185c0 18.106 14.731 32.836 32.837 32.836h180.823c18.106 0 32.836-14.73 32.836-32.836v-114.363h19.007v172.342c0 18.106 14.731 32.837 32.836 32.837h180.824c18.106 0 32.836-14.731 32.836-32.837v-365.186c.001-18.106-14.73-32.836-32.835-32.836zm-152.688 93.823c3.172 0 6-1.996 7.063-4.983 1.064-2.988.133-6.322-2.326-8.326l-12.016-9.795c-4.272-3.482-4.914-9.792-1.431-14.064 3.481-4.273 9.794-4.915 14.065-1.433l50.11 40.849c2.358 1.922 3.699 4.769 3.681 7.81-.019 3.042-1.395 5.872-3.776 7.765l-50.11 39.831c-1.787 1.421-3.934 2.172-6.21 2.172-3.072 0-5.928-1.376-7.836-3.777-1.662-2.09-2.409-4.703-2.107-7.355.304-2.653 1.622-5.029 3.712-6.691l10.873-8.642c2.495-1.984 3.464-5.33 2.413-8.34-1.05-3.011-3.89-5.027-7.079-5.027h-104.915c-5.512 0-9.997-4.484-9.997-9.997s4.485-9.997 9.997-9.997zm-60.973 34.989v46.883h-19.007v-46.883zm-34.002 211.232c0 9.838-8.003 17.841-17.841 17.841h-180.823c-9.838 0-17.842-8.003-17.842-17.841v-36.554h216.506zm-45.001-129.36c-3.188 0-6.028 2.016-7.079 5.027-1.05 3.011-.083 6.356 2.413 8.34l10.873 8.642c4.315 3.43 5.035 9.731 1.605 14.046-1.908 2.401-4.765 3.777-7.838 3.777-2.274 0-4.421-.751-6.208-2.172l-50.11-39.831c-2.381-1.893-3.758-4.723-3.776-7.764-.019-3.042 1.323-5.889 3.681-7.811l10.471-8.536c3.209-2.616 3.69-7.339 1.074-10.549-2.615-3.209-7.339-3.691-10.549-1.074l-10.472 8.536c-5.893 4.805-9.246 11.921-9.2 19.526.048 7.604 3.488 14.678 9.44 19.409l50.11 39.832c4.405 3.501 9.923 5.428 15.537 5.428h.003c7.672 0 14.807-3.441 19.576-9.442 7.174-9.024 7.086-21.525.549-30.39h24.902v62.815h-216.507v-313.635c0-9.838 8.004-17.842 17.842-17.842h180.823c9.838 0 17.841 8.004 17.841 17.842v103.969h-10.915c-13.781 0-24.992 11.211-24.992 24.992s11.211 24.992 24.992 24.992h10.915v46.883h-25.687c3.103-3.766 5.031-8.361 5.535-13.325.677-6.641-1.274-13.148-5.492-18.323-8.706-10.679-24.481-12.286-35.162-3.58l-12.782 10.419c-3.21 2.616-3.691 7.339-1.075 10.549 2.615 3.208 7.338 3.69 10.549 1.074l12.782-10.419c4.271-3.483 10.583-2.841 14.066 1.432 3.483 4.272 2.841 10.582-1.431 14.064l-12.016 9.795c-2.459 2.004-3.391 5.338-2.326 8.326 1.063 2.988 3.891 4.983 7.063 4.983h106.292c5.512 0 9.997 4.485 9.997 9.997s-4.485 9.997-9.997 9.997h-105.317zm310.505 187.338c0 9.838-8.003 17.842-17.841 17.842h-180.824c-9.838 0-17.841-8.004-17.841-17.842v-36.553h216.506z"/><path d="m340.333 250.294c0 5.542 4.493 10.035 10.035 10.035s10.035-4.493 10.035-10.035-4.493-10.035-10.035-10.035c-5.543 0-10.035 4.493-10.035 10.035z"/><path d="m378.717 250.294c0 5.542 4.493 10.035 10.035 10.035s10.035-4.493 10.035-10.035-4.493-10.035-10.035-10.035-10.035 4.493-10.035 10.035z"/><path d="m417.101 250.294c0 5.542 4.493 10.035 10.035 10.035s10.035-4.493 10.035-10.035-4.493-10.035-10.035-10.035-10.035 4.493-10.035 10.035z"/></g></g></svg>