<svg id="negative-envelope" enable-background="new 0 0 300 300" height="512" viewBox="0 0 300 300" width="512" xmlns="http://www.w3.org/2000/svg"><g><path d="m111.031 166.828 11.312 11.314c.75.75 1.766 1.172 2.828 1.172s2.078-.422 2.828-1.172l16.172-16.172 16.172 16.172c.75.75 1.766 1.172 2.828 1.172s2.078-.422 2.828-1.172l11.312-11.314c1.562-1.562 1.562-4.094 0-5.656l-16.17-16.172 16.172-16.172c1.562-1.562 1.562-4.094 0-5.656l-11.313-11.315c-.75-.75-1.766-1.172-2.828-1.172s-2.078.422-2.828 1.172l-16.172 16.172-16.172-16.172c-1.5-1.5-4.156-1.5-5.656 0l-11.312 11.314c-1.562 1.562-1.562 4.094 0 5.656l16.171 16.173-16.172 16.172c-1.562 1.562-1.562 4.094 0 5.656zm24.657-19c1.562-1.562 1.562-4.094 0-5.656l-16.172-16.172 5.656-5.658 16.172 16.172c1.562 1.562 4.094 1.562 5.656 0l16.172-16.172 5.656 5.658-16.172 16.172c-1.562 1.562-1.562 4.094 0 5.656l16.172 16.172-5.656 5.658-16.172-16.172c-.781-.781-1.805-1.172-2.828-1.172s-2.047.391-2.828 1.172l-16.172 16.172-5.656-5.658z"/><circle cx="105.172" cy="58" r="4"/><circle cx="229.172" cy="42" r="4"/><path d="m250.828 86 2.828-2.828c1.562-1.562 1.562-4.094 0-5.656s-4.094-1.562-5.656 0l-2.828 2.828-2.828-2.828c-1.562-1.562-4.094-1.562-5.656 0s-1.562 4.094 0 5.656l2.828 2.828-2.828 2.828c-1.562 1.562-1.562 4.094 0 5.656.781.781 1.805 1.172 2.828 1.172s2.047-.391 2.828-1.172l2.828-2.828 2.828 2.828c.781.781 1.805 1.172 2.828 1.172s2.047-.391 2.828-1.172c1.562-1.562 1.562-4.094 0-5.656z"/><path d="m203.172 78c7.719 0 14-6.281 14-14s-6.281-14-14-14-14 6.281-14 14 6.281 14 14 14zm0-20c3.309 0 6 2.691 6 6s-2.691 6-6 6-6-2.691-6-6 2.691-6 6-6z"/><path d="m225.172 132.325v-38.325c0-2.209-1.789-4-4-4h-49.814l-14.158-11.135c-7.121-5.865-17.219-6.064-24.621-.426l-14.513 11.561h-48.894c-2.211 0-4 1.791-4 4v38.139l-18.492 14.732c-.953.76-1.508 1.91-1.508 3.129v108c0 2.209 1.789 4 4 4h192c2.211 0 4-1.791 4-4v-108c0-1.227-.562-2.385-1.527-3.145zm-106.16 71.133-65.84 46.793v-92.596zm17.508-2.63c4.988-3.543 11.699-3.551 16.695-.025l75.354 53.197h-166.866zm31.578.687 69.074-44.206v92.97zm66.177-51.85-9.104 5.826v-12.987zm-96.783-64.913c4.375-3.33 10.379-3.205 14.688.344l6.235 4.904h-27.51zm79.68 13.248v62.61l-56.131 35.923-3.209-2.266c-7.773-5.488-18.203-5.467-25.945.041l-5.945 4.225-52.77-36.71v-63.823zm-152 58.258-9.308-6.475 9.308-7.415z"/></g></svg>