<svg id="Layer_1" enable-background="new 0 0 1600 1600" height="512" viewBox="0 0 1600 1600" width="512" xmlns="http://www.w3.org/2000/svg"><g><g fill="rgb(0,0,0)"><path d="m1490.6 1221.1h-1381.2c-42.7 0-77.4-34.7-77.4-77.4v-915c0-42.7 34.7-77.4 77.4-77.4h1381.2c42.7 0 77.4 34.7 77.4 77.4v915c0 42.7-34.7 77.4-77.4 77.4zm-1381.2-1021.8c-16.2 0-29.4 13.2-29.4 29.4v915c0 16.2 13.2 29.4 29.4 29.4h1381.2c16.2 0 29.4-13.2 29.4-29.4v-915c0-16.2-13.2-29.4-29.4-29.4z"/><path d="m1504 1221.1h-1408c-35.3 0-64-28.7-64-64v-146.2c0-13.3 10.7-24 24-24h1488c13.3 0 24 10.7 24 24v146.2c0 35.3-28.7 64-64 64zm-1424-186.2v122.2c0 8.8 7.2 16 16 16h1408c8.8 0 16-7.2 16-16v-122.2z"/><path d="m1103.9 1448.7h-607.8c-13.3 0-24-10.7-24-24s10.7-24 24-24h607.8c13.3 0 24 10.7 24 24s-10.7 24-24 24z"/><path d="m574.4 1448.7c-3.4 0-6.9-.7-10.2-2.3-12-5.6-17.2-19.9-11.5-31.9l106.8-227.6c4-8.4 12.4-13.8 21.7-13.8h237.6c9.3 0 17.8 5.4 21.7 13.8l106.8 227.6c5.6 12 .5 26.3-11.5 31.9s-26.3.5-31.9-11.5l-100.3-213.8h-207.2l-100.3 213.8c-4.1 8.7-12.7 13.8-21.7 13.8z"/></g><g><g fill="rgb(0,0,0)"><path d="m517.9 907.3c-83.9 0-162.8-32.7-222.2-92-59.3-59.3-92-138.2-92-222.2s32.7-162.8 92-222.2 138.2-92 222.2-92 162.8 32.7 222.2 92 92 138.2 92 222.2-32.7 162.8-92 222.2c-59.3 59.3-138.2 92-222.2 92zm0-580.4c-146.8 0-266.2 119.4-266.2 266.2s119.4 266.2 266.2 266.2 266.2-119.4 266.2-266.2-119.4-266.2-266.2-266.2z"/><path d="m517.9 907.3c-46.6 0-88.9-35.1-119.1-98.7-27.5-58-42.7-134.5-42.7-215.5s15.2-157.5 42.7-215.5c30.2-63.6 72.5-98.7 119.1-98.7s88.9 35.1 119.1 98.7c27.5 58 42.7 134.5 42.7 215.5s-15.2 157.5-42.7 215.5c-30.2 63.6-72.5 98.7-119.1 98.7zm0-580.4c-26.6 0-54.2 26-75.7 71.3-24.5 51.7-38 120.9-38 194.9s13.5 143.2 38 194.9c21.5 45.3 49.1 71.3 75.7 71.3s54.2-26 75.7-71.3c24.5-51.7 38-120.9 38-194.9s-13.5-143.2-38-194.9c-21.4-45.3-49-71.3-75.7-71.3z"/><path d="m808.1 617.1h-580.3c-13.3 0-24-10.7-24-24s10.7-24 24-24h580.3c13.3 0 24 10.7 24 24s-10.7 24-24 24z"/><path d="m517.9 907.3c-13.3 0-24-10.7-24-24v-580.4c0-13.3 10.7-24 24-24s24 10.7 24 24v580.3c0 13.3-10.7 24.1-24 24.1z"/></g><g><path d="m1372.2 907.3h-423.6c-13.3 0-24-10.7-24-24s10.7-24 24-24h423.6c13.3 0 24 10.7 24 24s-10.7 24-24 24z" fill="rgb(0,0,0)"/><path d="m1372.2 790.3h-423.6c-13.3 0-24-10.7-24-24s10.7-24 24-24h423.6c13.3 0 24 10.7 24 24s-10.7 24-24 24z" fill="rgb(0,0,0)"/><g><g><path d="m1160.4 670.8c-108 0-195.9-87.9-195.9-195.9s87.9-195.9 195.9-195.9 195.9 87.9 195.9 195.9-87.9 195.9-195.9 195.9zm0-343.9c-81.6 0-147.9 66.4-147.9 147.9s66.4 147.9 147.9 147.9 147.9-66.4 147.9-147.9-66.3-147.9-147.9-147.9z" fill="rgb(0,0,0)"/></g><g fill="rgb(0,0,0)"><g><path d="m1160.4 589.9c-13.3 0-24-10.7-24-24v-6.7c0-13.3 10.7-24 24-24s24 10.7 24 24v6.7c0 13.3-10.7 24-24 24z"/><path d="m1160.4 414.5c-13.3 0-24-10.7-24-24v-6.7c0-13.3 10.7-24 24-24s24 10.7 24 24v6.7c0 13.2-10.7 24-24 24z"/></g><path d="m1224.7 481.1-.1-.1c-5.4-8-13.7-14.6-24.6-19.6-6.9-3.2-19.4-6.8-37-10.8-22.3-5-26.7-8.6-27.1-9-1.9-1.8-2.8-3.7-2.8-6.5 0-2.3.6-5.4 4.9-8.9 2.7-2.2 8.6-4.8 21.4-4.8 9.6 0 16.9 1.9 21.2 5.4 2.8 2.3 4.9 5.6 6.1 9.8 2.6 8.7 10.4 14.6 19.4 14.6.5 0 1 0 1.6-.1h.2c6.1-.5 11.7-3.6 15.2-8.7 3.5-5 4.6-11.2 2.9-17.1-1.6-5.6-4-10.9-7.2-15.7-5.9-9-14.4-15.9-25.3-20.5-10.2-4.3-22-6.5-35-6.5-12 0-23.1 2.1-33 6.2-10.6 4.4-18.9 11-24.5 19.7-5.6 8.6-8.5 18-8.5 28 0 9.2 2.4 17.7 7.1 25.1 4.6 7.3 11.6 13.5 20.8 18.3l.2.1c6.6 3.5 17.7 7.1 32.8 10.7 17.5 4.2 24.3 6.3 27 7.4 6 2.3 8.7 4.6 9.8 6.1 1.5 1.9 2.2 4.1 2.2 6.8 0 2.8-.8 5.3-2.6 7.7-1.8 2.5-4.9 4.6-9.1 6.3-4.9 1.9-10.8 2.9-17.5 2.9-7.6 0-14.4-1.3-20.3-3.9-5.4-2.3-9.3-5.3-11.6-8.7-1.5-2.2-2.7-5-3.6-8.1-2.4-8.9-10.5-15.1-19.7-15.1-.6 0-1.2 0-1.8.1-5.9.5-11.3 3.6-14.7 8.4-3.5 4.8-4.7 10.9-3.3 16.7 1.7 7.1 4.6 13.9 8.6 20 6.6 10 15.8 17.7 27.3 22.6 10.9 4.7 24.4 7.1 40.1 7.1 12.7 0 24.4-2.4 34.8-7.1 10.8-4.9 19.2-12 25.1-21.1 5.9-9.1 8.9-19 8.9-29.4.1-10.6-2.7-20-8.3-28.3z"/></g></g></g></g></g></svg>