<svg id="negative-file" enable-background="new 0 0 300 300" height="512" viewBox="0 0 300 300" width="512" xmlns="http://www.w3.org/2000/svg"><g><path d="m256.828 73.172-32-32c-.75-.75-1.767-1.172-2.828-1.172h-120c-6.617 0-12 5.383-12 12v196c0 6.617 5.383 12 12 12h144c6.617 0 12-5.383 12-12v-172c0-1.061-.422-2.078-1.172-2.828zm-30.828-19.516 18.344 18.344h-18.344zm20 198.344h-144c-2.205 0-4-1.795-4-4v-196c0-2.205 1.795-4 4-4h116v28c0 2.209 1.791 4 4 4h28v168c0 2.205-1.795 4-4 4z"/><path d="m60.828 165.172c-1.562-1.562-4.094-1.562-5.656 0l-3.172 3.172-3.172-3.172c-1.562-1.562-4.094-1.562-5.656 0s-1.562 4.094 0 5.656l3.172 3.172-3.172 3.172c-1.562 1.562-1.562 4.094 0 5.656.781.781 1.805 1.172 2.828 1.172s2.047-.391 2.828-1.172l3.172-3.172 3.172 3.172c.781.781 1.805 1.172 2.828 1.172s2.047-.391 2.828-1.172c1.562-1.562 1.562-4.094 0-5.656l-3.172-3.172 3.172-3.172c1.563-1.562 1.563-4.094 0-5.656z"/><circle cx="78" cy="164" r="4"/><circle cx="66" cy="120" r="4"/><path d="m210.143 130.045-11.314-11.314c-1.562-1.562-4.094-1.562-5.656 0l-16.173 16.171-16.172-16.172c-1.562-1.562-4.094-1.562-5.656 0l-11.314 11.314c-1.562 1.562-1.562 4.094 0 5.656l16.172 16.172-16.172 16.172c-1.562 1.562-1.562 4.094 0 5.656l11.314 11.314c1.562 1.562 4.094 1.562 5.656 0l16.172-16.17 16.172 16.172c.781.781 1.805 1.172 2.828 1.172s2.047-.391 2.828-1.172l11.314-11.314c1.562-1.562 1.562-4.094 0-5.656l-16.172-16.172 16.172-16.172c1.563-1.563 1.563-4.095.001-5.657zm-24.657 19c-1.562 1.562-1.562 4.094 0 5.656l16.172 16.172-5.658 5.658-16.172-16.172c-.781-.781-1.805-1.172-2.828-1.172s-2.047.391-2.828 1.172l-16.172 16.172-5.658-5.658 16.172-16.172c1.562-1.562 1.562-4.094 0-5.656l-16.172-16.172 5.658-5.658 16.172 16.172c1.562 1.562 4.094 1.562 5.656 0l16.172-16.172 5.658 5.658z"/></g></svg>