<svg id="Layer_1" enable-background="new 0 0 1600 1600" height="512" viewBox="0 0 1600 1600" width="512" xmlns="http://www.w3.org/2000/svg"><g fill="rgb(0,0,0)"><g><g><path d="m1244 1328.2h-1133.5c-43.3 0-78.5-35.2-78.5-78.5v-899.4c0-43.3 35.2-78.5 78.5-78.5h1133.5c43.3 0 78.5 35.2 78.5 78.5v306.5c0 13.3-10.7 24-24 24s-24-10.7-24-24v-306.5c0-16.8-13.7-30.5-30.5-30.5h-1133.5c-16.8 0-30.5 13.7-30.5 30.5v899.3c0 16.8 13.7 30.5 30.5 30.5h1133.5c16.8 0 30.5-13.7 30.5-30.5v-243.1c0-13.3 10.7-24 24-24s24 10.7 24 24v243.1c0 43.3-35.2 78.6-78.5 78.6z"/><path d="m1298.5 499.2h-1242.5c-13.3 0-24-10.7-24-24s10.7-24 24-24h1242.5c13.3 0 24 10.7 24 24s-10.7 24-24 24z"/><path d="m1175.8 409.5h-542.2c-13.3 0-24-10.7-24-24s10.7-24 24-24h542.2c13.3 0 24 10.7 24 24s-10.7 24-24 24z"/><g><path d="m451 1176.5c-76.6 0-148.7-29.8-202.8-84-54.2-54.2-84-126.2-84-202.8s29.8-148.7 84-202.8c54.2-54.2 126.2-84 202.8-84s148.7 29.8 202.8 84 84 126.2 84 202.8-29.8 148.7-84 202.8-126.2 84-202.8 84zm0-525.7c-131.7 0-238.9 107.1-238.9 238.9s107.1 238.8 238.9 238.8 238.8-107.1 238.8-238.9-107.1-238.8-238.8-238.8z"/><path d="m451 1176.5c-43.1 0-82.1-32.2-109.9-90.7-25.1-52.8-38.9-122.5-38.9-196.2s13.8-143.4 38.9-196.2c27.8-58.5 66.8-90.7 109.9-90.7s82.1 32.2 109.9 90.7c25.1 52.8 38.9 122.5 38.9 196.2s-13.8 143.4-38.9 196.2c-27.8 58.5-66.8 90.7-109.9 90.7zm0-525.7c-23.2 0-47.5 23.1-66.5 63.3-22.1 46.5-34.2 108.8-34.2 175.6s12.2 129.1 34.2 175.6c19.1 40.2 43.3 63.3 66.5 63.3s47.5-23.1 66.5-63.3c22.1-46.5 34.2-108.8 34.2-175.6s-12.2-129.1-34.2-175.6c-19.1-40.2-43.3-63.3-66.5-63.3z"/><path d="m713.8 913.7h-525.7c-13.3 0-24-10.7-24-24s10.7-24 24-24h525.7c13.3 0 24 10.7 24 24s-10.7 24-24 24z"/><path d="m451 1176.5c-13.3 0-24-10.7-24-24v-525.7c0-13.3 10.7-24 24-24s24 10.7 24 24v525.7c0 13.2-10.8 24-24 24z"/></g></g><g><circle cx="205.5" cy="385.5" r="26.8"/><circle cx="317.7" cy="385.5" r="26.8"/><circle cx="429.9" cy="385.5" r="26.8"/></g></g><g><path d="m942.8 949.7c-68.7 0-124.6-55.9-124.6-124.6v-.1c0-68.7 55.9-124.6 124.6-124.6h100.8c6.4 0 12.5 2.5 17 7s7 10.6 7 17l.1 201.4c0 13.3-10.7 24-24 24zm76.7-201.4h-76.7c-42.2 0-76.6 34.4-76.6 76.6v.1c0 42.2 34.4 76.6 76.6 76.6h76.7z"/><path d="m970.6 1196.5c-.5 0-1.1 0-1.6 0-16.3-.4-31.5-7.2-42.8-19.1-11.1-11.7-17.3-27-17.3-43.2l-.1-209c0-13.3 10.7-24 24-24 13.3 0 24 10.7 24 24l.1 209c0 7.7 6 14.1 13.3 14.3 5.1.1 8.5-2.5 10.1-4 2.6-2.6 4-6 4-9.7l-.1-209.1c0-13.3 10.7-24 24-24 13.3 0 24 10.7 24 24l.1 209.1c0 16.5-6.4 32-18.1 43.6-11.7 11.8-27.1 18.1-43.6 18.1z"/><path d="m1043.5 748.3c-13 0-23.6-10.3-24-23.4-.4-13.3 10.1-24.3 23.3-24.6 126.5-3.4 244.3-48.2 331.7-126.1 9.9-8.8 25.1-8 33.9 1.9s8 25.1-1.9 33.9c-95.9 85.5-224.5 134.6-362.3 138.3-.2 0-.5 0-.7 0z"/><path d="m1390.7 1102c-6 0-12-2.3-16.5-6.6-94.2-89.2-211.9-141-331.5-145.7-13.2-.5-23.6-11.7-23-24.9.5-13.2 11.7-23.6 24.9-23 62.7 2.5 125.3 16.8 185.9 42.4 48.5 20.6 94.2 47.8 136.2 81.2l-.1-433.2c0-13.3 10.7-24 24-24 13.3 0 24 10.7 24 24l.1 485.8c0 9.6-5.7 18.3-14.5 22.1-3.1 1.2-6.3 1.9-9.5 1.9z"/><path d="m1430.5 1143.3c-17 0-33-6.6-45.1-18.7-12.1-12-18.7-28.1-18.7-45.1l-.1-488.9c0-17 6.6-33.1 18.7-45.1 12-12.1 28.1-18.7 45.1-18.7 17.1 0 33.1 6.6 45.1 18.7 12.1 12 18.7 28.1 18.7 45.1l.1 488.9c0 35.1-28.6 63.8-63.8 63.8zm0-48 .1 24-.1-24c8.8 0 15.9-7.1 15.9-15.8l-.1-488.8c0-4.2-1.6-8.2-4.6-11.2s-6.9-4.6-11.2-4.6c-4.3 0-8.3 1.6-11.2 4.6-3 3-4.6 7-4.6 11.2l.1 488.9c0 4.2 1.6 8.2 4.6 11.2 2.9 2.8 6.8 4.5 11.1 4.5z"/><path d="m1470.3 932.8c-13.3 0-24-10.7-24-24s10.7-24 24-24c27.4 0 49.7-22.3 49.7-49.8 0-13.3-5.2-25.8-14.6-35.2s-21.9-14.6-35.2-14.6c-13.3 0-24-10.7-24-24s10.7-24 24-24c26.1 0 50.6 10.2 69.1 28.6 18.5 18.5 28.6 43 28.6 69.1.1 54-43.7 97.9-97.6 97.9z"/></g></g></svg>