<svg id="Layer_1" enable-background="new 0 0 1600 1600" height="512" viewBox="0 0 1600 1600" width="512" xmlns="http://www.w3.org/2000/svg"><g fill="rgb(0,0,0)"><g><g><path d="m953.9 1201.6h-843.9c-43 0-78-35-78-78v-891.2c0-43 35-78 78-78h1123.4c43 0 78 35 78 78v591.6c0 13.3-10.7 24-24 24s-24-10.7-24-24v-591.6c0-16.5-13.5-30-30-30h-1123.4c-16.5 0-30 13.5-30 30v891.3c0 16.5 13.5 30 30 30h843.9c13.3 0 24 10.7 24 24s-10.7 23.9-24 23.9z"/><path d="m1287.4 380h-1231.4c-13.3 0-24-10.7-24-24s10.7-24 24-24h1231.4c13.3 0 24 10.7 24 24s-10.7 24-24 24z"/><path d="m1165.8 291.2h-537.4c-13.3 0-24-10.7-24-24s10.7-24 24-24h537.4c13.3 0 24 10.7 24 24s-10.8 24-24 24z"/><g><g><path d="m270.8 1096.2h-77c-13.3 0-24-10.7-24-24v-220.9c0-13.3 10.7-24 24-24h77c13.3 0 24 10.7 24 24v220.9c0 13.2-10.7 24-24 24zm-53-48h29v-172.9h-29z"/><path d="m445.9 1096.2h-87.3c-13.3 0-24-10.7-24-24v-157c0-13.3 10.7-24 24-24h87.3c13.3 0 24 10.7 24 24v157c0 13.2-10.8 24-24 24zm-63.3-48h39.3v-109h-39.3z"/><path d="m621 1096.2h-87.3c-13.3 0-24-10.7-24-24v-220.9c0-13.3 10.7-24 24-24h87.3c13.3 0 24 10.7 24 24v220.9c0 13.2-10.8 24-24 24zm-63.3-48h39.3v-172.9h-39.3z"/><path d="m796.1 1096.2h-87.3c-13.3 0-24-10.7-24-24v-135c0-13.3 10.7-24 24-24h87.3c13.3 0 24 10.7 24 24v135c0 13.2-10.8 24-24 24zm-63.3-48h39.3v-87h-39.3z"/></g><g><path d="m467.2 587.5h-102c-13.3 0-24-10.7-24-24v-102c0-13.3 10.7-24 24-24 69.5 0 126 56.5 126 126 0 13.3-10.8 24-24 24zm-78-48h50.2c-7.7-23.7-26.5-42.5-50.2-50.2z"/><path d="m293.9 760.7c-69.5 0-126-56.5-126-126s56.5-126 126-126c13.3 0 24 10.7 24 24v78h78c13.3 0 24 10.7 24 24 0 69.5-56.5 126-126 126zm-24-200.2c-31.3 10.1-54 39.6-54 74.2 0 43 35 78 78 78 34.6 0 64.1-22.7 74.2-54h-74.2c-13.3 0-24-10.7-24-24z"/></g><g><path d="m793.3 520.9h-225.9c-13.3 0-24-10.7-24-24s10.7-24 24-24h225.9c13.3 0 24 10.7 24 24s-10.7 24-24 24z"/><path d="m1165.2 520.9h-290.5c-13.3 0-24-10.7-24-24s10.7-24 24-24h290.5c13.3 0 24 10.7 24 24s-10.8 24-24 24z"/><path d="m968.2 623.1h-400.8c-13.3 0-24-10.7-24-24s10.7-24 24-24h400.8c13.3 0 24 10.7 24 24s-10.8 24-24 24z"/><path d="m1165.2 623.1h-115.9c-13.3 0-24-10.7-24-24s10.7-24 24-24h115.9c13.3 0 24 10.7 24 24s-10.8 24-24 24z"/><path d="m801.5 725.4h-234.1c-13.3 0-24-10.7-24-24s10.7-24 24-24h234.1c13.3 0 24 10.7 24 24s-10.8 24-24 24z"/><path d="m1165.2 725.4h-284.3c-13.3 0-24-10.7-24-24s10.7-24 24-24h284.3c13.3 0 24 10.7 24 24s-10.8 24-24 24z"/></g></g></g><g><circle cx="204.2" cy="267.2" r="26.6"/><circle cx="315.4" cy="267.2" r="26.6"/><circle cx="426.5" cy="267.2" r="26.6"/></g></g><g><path d="m1165.2 1317.3c-73.3 0-142.3-28.6-194.1-80.4s-80.4-120.8-80.4-194.1 28.6-142.3 80.4-194.1c51.9-51.9 120.8-80.4 194.1-80.4s142.3 28.6 194.1 80.4 80.4 120.8 80.4 194.1-28.6 142.3-80.4 194.1-120.8 80.4-194.1 80.4zm0-501c-124.9 0-226.5 101.6-226.5 226.5s101.6 226.5 226.5 226.5 226.5-101.6 226.5-226.5-101.6-226.5-226.5-226.5z"/><path d="m1165.2 1228.8c-102.6 0-186-83.5-186-186s83.5-186 186-186 186 83.5 186 186-83.5 186-186 186zm0-324c-76.1 0-138 61.9-138 138s61.9 138 138 138 138-61.9 138-138-61.9-138-138-138z"/><path d="m1492.3 1445.6c-20.2 0-39.3-7.9-53.6-22.2l-153.8-153.7c-9.4-9.4-9.4-24.6 0-33.9 9.4-9.4 24.6-9.4 33.9 0l153.8 153.7c5.3 5.3 12.2 8.1 19.7 8.1 7.1 0 13.8-2.7 19-7.5 5.5-5.1 8.5-12.1 8.7-19.6.1-7.8-2.9-15.2-8.4-20.8l-153.4-153.2c-9.4-9.4-9.4-24.6 0-33.9 9.4-9.4 24.6-9.4 33.9 0l153.4 153.2c14.6 14.6 22.8 34.9 22.5 55.5-.3 20.7-8.8 39.8-23.8 53.9-14.1 13.2-32.5 20.4-51.9 20.4z"/></g></g></svg>