<svg id="Capa_1" enable-background="new 0 0 512 512" height="512" viewBox="0 0 512 512" width="512" xmlns="http://www.w3.org/2000/svg"><g><g id="Page-1_8_"><g id="_x30_09---Vector-Design-Laptop"><path id="Shape_59_" d="m494.933 379.733v-307.2c-.028-23.552-19.114-42.638-42.667-42.667h-392.533c-23.552.028-42.638 19.114-42.667 42.667v307.2c-9.425 0-17.066 7.641-17.066 17.067v25.6c.038 32.974 26.759 59.696 59.733 59.733h392.533c32.974-.038 59.696-26.759 59.733-59.733v-25.6c.001-9.426-7.64-17.067-17.066-17.067zm-460.8-307.2c0-14.138 11.462-25.6 25.6-25.6h392.533c14.138 0 25.6 11.462 25.6 25.6v307.2h-443.733zm145.067 324.267h153.6v8.533c0 9.426-7.641 17.067-17.067 17.067h-119.466c-9.426 0-17.067-7.641-17.067-17.067zm315.733 25.6c-.028 23.552-19.114 42.638-42.667 42.667h-392.533c-23.552-.028-42.638-19.114-42.667-42.667v-25.6h145.067v8.533c0 18.851 15.282 34.133 34.133 34.133h119.467c18.851 0 34.133-15.282 34.133-34.133v-8.533h145.067z"/><path id="Shape_58_" d="m128 413.867h-25.6c-4.713 0-8.533 3.82-8.533 8.533s3.821 8.533 8.533 8.533h25.6c4.713 0 8.533-3.82 8.533-8.533s-3.82-8.533-8.533-8.533z"/><circle id="Oval_7_" cx="51.2" cy="422.4" r="8.533"/><circle id="Oval_6_" cx="76.8" cy="422.4" r="8.533"/><path id="Shape_57_" d="m285.303 178.261c-4.689-7.409-12.856-11.888-21.623-11.861h-15.36c-8.762-.021-16.921 4.458-21.606 11.861l-39.774 62.507c-10.886 17.106-10.651 39.024.597 55.893l17.263 25.899v14.507c0 14.138 11.462 25.6 25.6 25.6h51.2c14.138 0 25.6-11.462 25.6-25.6v-14.507l17.28-25.924c11.249-16.869 11.483-38.787.597-55.893zm-20.77 82.006c0 4.713-3.821 8.533-8.533 8.533-4.713 0-8.533-3.821-8.533-8.533 0-4.713 3.821-8.533 8.533-8.533 4.713-.001 8.533 3.82 8.533 8.533zm17.067 85.333h-51.2c-4.713 0-8.533-3.82-8.533-8.533v-8.533h68.267v8.533c-.001 4.713-3.821 8.533-8.534 8.533zm28.681-58.411-16.179 24.277h-76.203l-16.213-24.277c-7.495-11.246-7.649-25.855-.393-37.257l39.774-62.515c1.423-2.203 3.786-3.624 6.4-3.849v52.668c-11.755 4.156-18.806 16.176-16.698 28.465s12.763 21.271 25.231 21.271 23.123-8.982 25.231-21.271-4.943-24.309-16.698-28.465v-52.668c2.601.234 4.95 1.654 6.366 3.849l39.774 62.515c7.256 11.402 7.103 26.011-.392 37.257z"/><path id="Shape_56_" d="m187.733 200.533c-.05-15.027-9.943-28.244-24.346-32.529 8.533-46.421 42.368-57.737 58.479-60.433v7.629c0 9.426 7.641 17.067 17.067 17.067h34.133c9.426 0 17.067-7.641 17.067-17.067v-7.68c16.094 2.56 49.911 13.764 58.479 60.493-16.291 5.04-26.303 21.396-23.382 38.196 2.921 16.801 17.867 28.817 34.903 28.062s30.86-14.046 32.283-31.04c1.423-16.993-9.997-32.399-26.669-35.978-2.854-24.141-15.505-46.048-34.987-60.587h61.773v8.533c0 9.426 7.641 17.067 17.067 17.067h34.133c9.426 0 17.067-7.641 17.067-17.067v-34.132c0-9.426-7.641-17.067-17.067-17.067h-34.133c-9.426 0-17.067 7.641-17.067 17.067v8.533h-102.4v-8.533c0-9.426-7.641-17.067-17.067-17.067h-34.133c-9.426 0-17.067 7.641-17.067 17.067v8.533h-102.4v-8.533c0-9.426-7.641-17.067-17.067-17.067h-34.132c-9.426 0-17.067 7.641-17.067 17.067v34.133c0 9.426 7.641 17.067 17.067 17.067h34.133c9.426 0 17.067-7.641 17.067-17.067v-8.533h61.764c-19.482 14.539-32.132 36.446-34.987 60.587-17.479 3.857-29.01 20.562-26.418 38.274s18.425 30.412 36.277 29.099c17.852-1.314 31.657-16.194 31.63-34.094zm187.734 0c0 9.426-7.641 17.067-17.067 17.067s-17.067-7.641-17.067-17.067 7.641-17.067 17.067-17.067 17.067 7.642 17.067 17.067zm34.133-119.466h34.133v34.133h-34.133zm-170.667 0h34.133v34.133h-34.133zm-170.666 34.133v-34.133h34.133v34.133zm85.333 102.4c-9.426 0-17.067-7.641-17.067-17.067s7.641-17.067 17.067-17.067 17.067 7.641 17.067 17.067-7.641 17.067-17.067 17.067z"/></g></g></g></svg>