<svg id="negative-imac" enable-background="new 0 0 300 300" height="512" viewBox="0 0 300 300" width="512" xmlns="http://www.w3.org/2000/svg"><g><path d="m206 61.891c6.617 0 12-5.383 12-12s-5.383-12-12-12-12 5.383-12 12 5.383 12 12 12zm0-16c2.205 0 4 1.795 4 4s-1.795 4-4 4-4-1.795-4-4 1.795-4 4-4z"/><path d="m118.397 56.26c2.362 0 4.276-1.915 4.276-4.276s-1.915-4.276-4.276-4.276-4.277 1.915-4.277 4.276 1.915 4.276 4.277 4.276z"/><path d="m49.375 52.938c.781.781 1.805 1.172 2.828 1.172s2.047-.391 2.828-1.172l3.172-3.172 3.172 3.172c.781.781 1.805 1.172 2.828 1.172s2.047-.391 2.828-1.172c1.562-1.562 1.562-4.094 0-5.656l-3.172-3.172 3.172-3.172c1.562-1.562 1.562-4.094 0-5.656s-4.094-1.562-5.656 0l-3.172 3.172-3.172-3.172c-1.562-1.562-4.094-1.562-5.656 0s-1.562 4.094 0 5.656l3.172 3.172-3.172 3.172c-1.563 1.562-1.563 4.093 0 5.656z"/><path d="m159.215 189.891h77.57c7.287 0 13.215-5.928 13.215-13.215v-73.57c0-7.287-5.928-13.215-13.215-13.215h-77.57c-7.287 0-13.215 5.928-13.215 13.215v73.57c0 7.287 5.928 13.215 13.215 13.215zm-5.215-86.786c0-2.875 2.34-5.215 5.215-5.215h77.57c2.875 0 5.215 2.34 5.215 5.215v73.57c0 2.875-2.34 5.215-5.215 5.215h-77.57c-2.875 0-5.215-2.34-5.215-5.215z"/><path d="m259.67 73.891h-219.34c-3.49 0-6.33 2.84-6.33 6.33v147.34c0 3.49 2.84 6.33 6.33 6.33h77.67v24h-8c-2.209 0-4 1.791-4 4s1.791 4 4 4h80c2.209 0 4-1.791 4-4s-1.791-4-4-4h-8v-24h77.67c3.49 0 6.33-2.84 6.33-6.33v-147.34c0-3.491-2.84-6.33-6.33-6.33zm-1.67 8v116h-216v-116zm-84 176h-48v-24h48zm-132-32v-20h216v20z"/><path d="m86 165.891c19.85 0 36-16.15 36-36s-16.15-36-36-36-36 16.15-36 36 16.15 36 36 36zm-19.417-15.871c.956-3.812 3.301-7.147 6.51-9.351 3.487 3.25 7.989 5.222 12.906 5.222s9.419-1.971 12.906-5.222c3.209 2.204 5.554 5.54 6.51 9.351-5.039 4.862-11.878 7.871-19.416 7.871s-14.377-3.009-19.416-7.871zm19.417-12.129c-6.617 0-12-6.281-12-14s5.383-14 12-14 12 6.281 12 14-5.383 14-12 14zm0-36c15.439 0 28 12.561 28 28 0 4.527-1.104 8.792-3.02 12.58-1.772-3.267-4.293-6.082-7.342-8.23 1.503-3.087 2.361-6.609 2.361-10.35.001-12.131-8.972-22-19.999-22s-20 9.869-20 22c0 3.74.858 7.262 2.361 10.35-3.048 2.148-5.569 4.963-7.341 8.231-1.916-3.788-3.02-8.054-3.02-12.581 0-15.44 12.561-28 28-28z"/><path d="m106 169.891h-40c-2.209 0-4 1.791-4 4s1.791 4 4 4h40c2.209 0 4-1.791 4-4s-1.791-4-4-4z"/><path d="m98 181.891h-24c-2.209 0-4 1.791-4 4s1.791 4 4 4h24c2.209 0 4-1.791 4-4s-1.791-4-4-4z"/><path d="m165.221 161.139 11.314 11.314c1.562 1.562 4.094 1.562 5.656 0l16.172-16.172 16.172 16.172c.781.781 1.805 1.172 2.828 1.172s2.047-.391 2.828-1.172l11.314-11.314c1.562-1.562 1.562-4.094 0-5.656l-16.172-16.172 16.172-16.172c1.562-1.562 1.562-4.094 0-5.656l-11.314-11.314c-1.562-1.562-4.094-1.562-5.656 0l-16.172 16.172-16.172-16.172c-1.562-1.562-4.094-1.562-5.656 0l-11.314 11.314c-1.562 1.562-1.562 4.094 0 5.656l16.172 16.172-16.172 16.172c-1.563 1.562-1.563 4.093 0 5.656zm24.656-19c1.562-1.562 1.562-4.094 0-5.656l-16.172-16.172 5.658-5.658 16.172 16.172c1.562 1.562 4.094 1.562 5.656 0l16.172-16.172 5.658 5.658-16.172 16.172c-1.562 1.562-1.562 4.094 0 5.656l16.172 16.172-5.658 5.658-16.172-16.172c-.781-.781-1.805-1.172-2.828-1.172s-2.047.391-2.828 1.172l-16.172 16.172-5.658-5.658z"/></g></svg>