<svg id="Layer_1" enable-background="new 0 0 1600 1600" height="512" viewBox="0 0 1600 1600" width="512" xmlns="http://www.w3.org/2000/svg"><g fill="rgb(0,0,0)"><path d="m1504 1221.1h-1408c-35.3 0-64-28.7-64-64v-941.8c0-35.3 28.7-64 64-64h1408c35.3 0 64 28.7 64 64v941.8c0 35.3-28.7 64-64 64zm-1408-1021.8c-8.8 0-16 7.2-16 16v941.8c0 8.8 7.2 16 16 16h1408c8.8 0 16-7.2 16-16v-941.8c0-8.8-7.2-16-16-16z"/><path d="m1504 1221.1h-1408c-35.3 0-64-28.7-64-64v-146.2c0-13.3 10.7-24 24-24h1488c13.3 0 24 10.7 24 24v146.2c0 35.3-28.7 64-64 64zm-1424-186.2v122.2c0 8.8 7.2 16 16 16h1408c8.8 0 16-7.2 16-16v-122.2z"/><path d="m1103.9 1448.7h-607.8c-13.3 0-24-10.7-24-24s10.7-24 24-24h607.8c13.3 0 24 10.7 24 24s-10.7 24-24 24z"/><path d="m574.4 1448.7c-3.4 0-6.9-.7-10.2-2.3-12-5.6-17.2-19.9-11.5-31.9l106.8-227.6c4-8.4 12.4-13.8 21.7-13.8h237.6c9.3 0 17.8 5.4 21.7 13.8l106.8 227.6c5.6 12 .5 26.3-11.5 31.9s-26.3.5-31.9-11.5l-100.3-213.8h-207.2l-100.3 213.8c-4.1 8.7-12.7 13.8-21.7 13.8z"/><g><g><path d="m333.5 912.5h-90.2c-13.3 0-24-10.7-24-24v-213.7c0-13.3 10.7-24 24-24h90.2c13.3 0 24 10.7 24 24v213.7c0 13.3-10.8 24-24 24zm-66.2-48h42.2v-165.7h-42.2z"/><path d="m538.5 912.5h-102.3c-13.3 0-24-10.7-24-24v-151.9c0-13.3 10.7-24 24-24h102.2c13.3 0 24 10.7 24 24v151.9c.1 13.3-10.7 24-23.9 24zm-78.3-48h54.2v-103.9h-54.2z"/><path d="m743.5 912.5h-102.3c-13.3 0-24-10.7-24-24v-213.7c0-13.3 10.7-24 24-24h102.2c13.3 0 24 10.7 24 24v213.7c.1 13.3-10.7 24-23.9 24zm-78.3-48h54.2v-165.7h-54.2z"/><path d="m948.5 912.5h-102.3c-13.3 0-24-10.7-24-24v-130.6c0-13.3 10.7-24 24-24h102.2c13.3 0 24 10.7 24 24v130.6c.1 13.3-10.7 24-23.9 24zm-78.3-48h54.2v-82.6h-54.2z"/><path d="m1153.5 912.5h-102.2c-13.3 0-24-10.7-24-24v-190.1c0-13.3 10.7-24 24-24h102.2c13.3 0 24 10.7 24 24v190.2c0 13.2-10.8 23.9-24 23.9zm-78.2-48h54.2v-142.1h-54.2z"/><path d="m1358.5 912.5h-102.2c-13.3 0-24-10.7-24-24v-151.9c0-13.3 10.7-24 24-24h102.2c13.3 0 24 10.7 24 24v151.9c0 13.3-10.8 24-24 24zm-78.2-48h54.2v-103.9h-54.2z"/></g><g><path d="m507.8 420.3h-98.7c-13.3 0-24-10.7-24-24v-98.7c0-13.3 10.7-24 24-24 67.6 0 122.7 55 122.7 122.7 0 13.3-10.8 24-24 24zm-74.7-48h46.7c-7.5-21.9-24.8-39.3-46.7-46.7z"/><path d="m340.2 588c-.6 0-1.2 0-1.8 0-32-.4-62.1-13.2-84.9-36s-35.6-52.9-36-84.9c-.5-33.1 12.1-64.3 35.3-87.9s54.3-36.5 87.3-36.5c13.3 0 24 10.7 24 24v74.7h74.7c13.3 0 24 10.7 24 24 0 33.1-13 64.1-36.5 87.3-23.1 22.7-53.6 35.3-86.1 35.3zm-24-193.5c-10.9 3.7-20.9 9.9-29.2 18.3-14.1 14.3-21.8 33.3-21.5 53.5.6 40 33.6 73 73.6 73.6 20.1.2 39.2-7.4 53.5-21.5 8.4-8.3 14.6-18.3 18.3-29.2h-70.8c-13.3 0-24-10.7-24-24v-70.7z"/></g><g><path d="m889.7 355.9h-284.9c-13.3 0-24-10.7-24-24s10.7-24 24-24h284.9c13.3 0 24 10.7 24 24s-10.8 24-24 24z"/><path d="m1358.5 355.9h-366.3c-13.3 0-24-10.7-24-24s10.7-24 24-24h366.3c13.3 0 24 10.7 24 24s-10.8 24-24 24z"/><path d="m1110.1 454.8h-505.3c-13.3 0-24-10.7-24-24s10.7-24 24-24h505.3c13.3 0 24 10.7 24 24s-10.7 24-24 24z"/><path d="m1358.5 454.8h-146.2c-13.3 0-24-10.7-24-24s10.7-24 24-24h146.2c13.3 0 24 10.7 24 24s-10.8 24-24 24z"/><path d="m899.9 553.7h-295.1c-13.3 0-24-10.7-24-24s10.7-24 24-24h295.1c13.3 0 24 10.7 24 24s-10.7 24-24 24z"/><path d="m1358.5 553.7h-358.4c-13.3 0-24-10.7-24-24s10.7-24 24-24h358.4c13.3 0 24 10.7 24 24s-10.8 24-24 24z"/></g></g></g></svg>