<svg enable-background="new 0 0 100 100" height="100" viewBox="0 0 100 100" width="100" xmlns="http://www.w3.org/2000/svg"><g id="hilfslinien"/><g id="Ebene_1"><g><path d="m45.785 89.777c-4.225-3.559-7.876-7.777-10.793-12.499-2.994 1.375-5.76 3.156-8.243 5.26 5.478 3.922 11.981 6.501 19.036 7.239z"/><path d="m45.785 10.223c-7.055.739-13.558 3.317-19.036 7.239 2.483 2.104 5.25 3.884 8.243 5.26 2.917-4.722 6.568-8.94 10.793-12.499z"/><path d="m48 48v-18.051c-3.927-.193-7.701-.96-11.25-2.206-3.201 6.098-5.122 12.965-5.422 20.257z"/><path d="m61.212 75.79c-2.925-.958-6.011-1.557-9.212-1.732v12.351c3.564-3.063 6.672-6.642 9.212-10.619z"/><path d="m52 13.592v12.35c3.201-.175 6.287-.774 9.212-1.731-2.541-3.977-5.648-7.556-9.212-10.619z"/><path d="m38.788 24.21c2.925.958 6.011 1.556 9.212 1.731v-12.35c-3.565 3.064-6.671 6.643-9.212 10.619z"/><path d="m48 86.408v-12.35c-3.201.176-6.287.774-9.212 1.732 2.541 3.977 5.647 7.556 9.212 10.618z"/><path d="m36.75 72.257c3.549-1.246 7.323-2.013 11.25-2.206v-18.051h-16.672c.3 7.292 2.221 14.159 5.422 20.257z"/><path d="m23.558 80.002c2.832-2.497 6.015-4.604 9.472-6.226-3.386-6.569-5.412-13.948-5.709-21.776h-17.27c.549 11.145 5.664 21.083 13.507 28.002z"/><path d="m72.679 52c-.297 7.828-2.322 15.207-5.709 21.776 3.457 1.622 6.641 3.729 9.472 6.226 7.843-6.918 12.958-16.856 13.507-28.002z"/><path d="m76.441 19.999c-2.831 2.496-6.015 4.603-9.472 6.225 3.387 6.569 5.412 13.948 5.709 21.776h17.271c-.549-11.145-5.664-21.083-13.508-28.001z"/><path d="m27.321 48c.297-7.828 2.322-15.207 5.709-21.776-3.457-1.623-6.641-3.729-9.472-6.225-7.843 6.918-12.958 16.856-13.507 28.001z"/><path d="m52 52v18.051c3.927.193 7.701.96 11.25 2.206 3.201-6.098 5.122-12.965 5.422-20.257z"/><path d="m54.215 89.777c7.055-.738 13.559-3.317 19.036-7.239-2.483-2.104-5.25-3.885-8.243-5.26-2.917 4.722-6.569 8.94-10.793 12.499z"/><path d="m63.25 27.743c-3.549 1.246-7.323 2.013-11.25 2.206v18.051h16.672c-.3-7.292-2.221-14.159-5.422-20.257z"/><path d="m54.215 10.223c4.225 3.56 7.876 7.777 10.793 12.499 2.993-1.375 5.76-3.156 8.243-5.26-5.478-3.922-11.981-6.501-19.036-7.239z"/></g></g></svg>