<svg id="negative-mobile" enable-background="new 0 0 300 300" height="512" viewBox="0 0 300 300" width="512" xmlns="http://www.w3.org/2000/svg"><g><path d="m206.789 50h-81.578c-10.594 0-19.211 8.834-19.211 19.691v24.309h-15.43c-2.211 0-4 1.791-4 4s1.789 4 4 4h19.43c2.211 0 4-1.791 4-4v-28.309c0-6.447 5.027-11.691 11.211-11.691h13.03c1.145 6.794 7.028 12 14.142 12h27.234c7.113 0 12.997-5.206 14.142-12h13.03c6.184 0 11.211 5.244 11.211 11.691v176.617c0 6.447-5.027 11.691-11.211 11.691h-81.578c-6.184 0-11.211-5.244-11.211-11.691v-28.308c0-2.209-1.789-4-4-4h-19.426c-2.211 0-4 1.791-4 4s1.789 4 4 4h15.426v24.309c0 10.857 8.617 19.691 19.211 19.691h81.578c10.594 0 19.211-8.834 19.211-19.691v-176.618c0-10.857-8.617-19.691-19.211-19.691zm-27.172 12h-27.234c-2.676 0-4.964-1.659-5.911-4h39.056c-.947 2.341-3.235 4-5.911 4z"/><path d="m150 222h8c2.211 0 4-1.791 4-4v-8c0-2.209-1.789-4-4-4s-4 1.791-4 4v4h-4c-2.211 0-4 1.791-4 4s1.789 4 4 4z"/><path d="m75.715 214h-14.856c-2.211 0-4 1.791-4 4s1.789 4 4 4h14.855c2.211 0 4-1.791 4-4s-1.788-4-3.999-4z"/><path d="m120.289 214c-2.211 0-4 1.791-4 4s1.789 4 4 4h14.855c2.211 0 4-1.791 4-4s-1.789-4-4-4z"/><path d="m46 214h-4v-4c0-2.209-1.789-4-4-4s-4 1.791-4 4v8c0 2.209 1.789 4 4 4h8c2.211 0 4-1.791 4-4s-1.789-4-4-4z"/><path d="m38 139.715c2.211 0 4-1.791 4-4v-14.857c0-2.209-1.789-4-4-4s-4 1.791-4 4v14.857c0 2.209 1.789 4 4 4z"/><path d="m38 199.143c2.211 0 4-1.791 4-4v-14.857c0-2.209-1.789-4-4-4s-4 1.791-4 4v14.857c0 2.209 1.789 4 4 4z"/><path d="m38 169.428c2.211 0 4-1.791 4-4v-14.858c0-2.209-1.789-4-4-4s-4 1.791-4 4v14.857c0 2.21 1.789 4.001 4 4.001z"/><path d="m46 94h-8c-2.211 0-4 1.791-4 4v8c0 2.209 1.789 4 4 4s4-1.791 4-4v-4h4c2.211 0 4-1.791 4-4s-1.789-4-4-4z"/><path d="m135.141 94h-14.855c-2.211 0-4 1.791-4 4s1.789 4 4 4h14.855c2.211 0 4-1.791 4-4s-1.789-4-4-4z"/><path d="m60.855 102h14.855c2.211 0 4-1.791 4-4s-1.789-4-4-4h-14.855c-2.211 0-4 1.791-4 4s1.79 4 4 4z"/><path d="m162 98c0-2.209-1.789-4-4-4h-8c-2.211 0-4 1.791-4 4s1.789 4 4 4h4v4c0 2.209 1.789 4 4 4s4-1.791 4-4z"/><path d="m162 120.857c0-2.209-1.789-4-4-4s-4 1.791-4 4v14.857c0 2.209 1.789 4 4 4s4-1.791 4-4z"/><path d="m158 176.285c-2.211 0-4 1.791-4 4v14.857c0 2.209 1.789 4 4 4s4-1.791 4-4v-14.857c0-2.209-1.789-4-4-4z"/><path d="m162 150.572c0-2.209-1.789-4-4-4s-4 1.791-4 4v14.857c0 2.209 1.789 4 4 4s4-1.791 4-4z"/><path d="m142 250c0 2.209 1.789 4 4 4h40c2.211 0 4-1.791 4-4s-1.789-4-4-4h-40c-2.211 0-4 1.791-4 4z"/><circle cx="258" cy="122" r="4"/><path d="m254 62c-6.617 0-12 5.383-12 12s5.383 12 12 12 12-5.383 12-12-5.383-12-12-12zm0 16c-2.207 0-4-1.795-4-4s1.793-4 4-4 4 1.795 4 4-1.793 4-4 4z"/><circle cx="238" cy="38" r="4"/><path d="m114.172 190.143c.75.75 1.766 1.172 2.828 1.172s2.078-.422 2.828-1.172l11.312-11.314c1.562-1.562 1.562-4.094 0-5.656l-16.171-16.173 16.172-16.172c1.562-1.562 1.562-4.094 0-5.656l-11.312-11.314c-.75-.75-1.766-1.172-2.828-1.172s-2.078.422-2.828 1.172l-16.173 16.171-16.172-16.172c-1.5-1.5-4.156-1.5-5.656 0l-11.312 11.314c-1.562 1.562-1.562 4.094 0 5.656l16.171 16.173-16.172 16.172c-1.562 1.562-1.562 4.094 0 5.656l11.312 11.314c.75.75 1.766 1.172 2.828 1.172s2.078-.422 2.828-1.172l16.173-16.171zm-35.172-8.485-5.656-5.658 16.172-16.172c1.562-1.562 1.562-4.094 0-5.656l-16.172-16.172 5.656-5.658 16.172 16.172c1.562 1.562 4.094 1.562 5.656 0l16.172-16.172 5.656 5.658-16.172 16.172c-1.562 1.562-1.562 4.094 0 5.656l16.172 16.172-5.656 5.658-16.172-16.172c-.781-.781-1.805-1.172-2.828-1.172s-2.047.391-2.828 1.172z"/></g></svg>