<svg id="negative-sign" enable-background="new 0 0 300 300" height="512" viewBox="0 0 300 300" width="512" xmlns="http://www.w3.org/2000/svg"><g><circle cx="50" cy="72" r="4"/><path d="m150 56c-57.348 0-104 46.654-104 104s46.652 104 104 104 104-46.654 104-104-46.652-104-104-104zm0 200c-52.934 0-96-43.066-96-96s43.066-96 96-96 96 43.066 96 96-43.066 96-96 96z"/><path d="m150 76c-46.316 0-84 37.682-84 84s37.684 84 84 84 84-37.682 84-84-37.684-84-84-84zm0 160c-41.906 0-76-34.094-76-76s34.094-76 76-76 76 34.094 76 76-34.094 76-76 76z"/><path d="m150 88c-39.699 0-72 32.299-72 72s32.301 72 72 72 72-32.299 72-72-32.301-72-72-72zm0 136c-35.289 0-64-28.711-64-64s28.711-64 64-64 64 28.711 64 64-28.711 64-64 64z"/><path d="m71.172 54.828c.781.781 1.805 1.172 2.828 1.172s2.047-.391 2.828-1.172l3.172-3.172 3.172 3.172c.781.781 1.805 1.172 2.828 1.172s2.047-.391 2.828-1.172c1.562-1.562 1.562-4.094 0-5.656l-3.172-3.172 3.172-3.172c1.562-1.562 1.562-4.094 0-5.656s-4.094-1.562-5.656 0l-3.172 3.172-3.172-3.172c-1.562-1.562-4.094-1.562-5.656 0s-1.562 4.094 0 5.656l3.172 3.172-3.172 3.172c-1.563 1.562-1.563 4.094 0 5.656z"/><path d="m184.164 140c0-1.061-.422-2.078-1.172-2.828l-11.316-11.314c-1.562-1.562-4.094-1.562-5.656 0l-16.172 16.172-16.172-16.172c-1.5-1.5-4.156-1.5-5.656 0l-11.312 11.314c-1.562 1.562-1.562 4.094 0 5.656l16.171 16.172-16.172 16.172c-1.562 1.562-1.562 4.094 0 5.656l11.312 11.314c.75.75 1.766 1.172 2.828 1.172s2.078-.422 2.828-1.172l16.172-16.172 16.172 16.172c.781.781 1.805 1.172 2.828 1.172s2.047-.391 2.828-1.172l11.316-11.314c.75-.75 1.172-1.768 1.172-2.828s-.422-2.078-1.172-2.828l-16.171-16.172 16.172-16.172c.75-.75 1.172-1.767 1.172-2.828zm-25.828 16.172c-1.562 1.562-1.562 4.094 0 5.656l16.172 16.172-5.66 5.658-16.172-16.172c-.781-.781-1.805-1.172-2.828-1.172s-2.047.391-2.828 1.172l-16.172 16.172-5.657-5.658 16.172-16.172c1.562-1.562 1.562-4.094 0-5.656l-16.172-16.172 5.656-5.658 16.172 16.172c1.562 1.562 4.094 1.562 5.656 0l16.172-16.172 5.66 5.658z"/></g></svg>