<svg id="Layer_1" enable-background="new 0 0 1600 1600" height="512" viewBox="0 0 1600 1600" width="512" xmlns="http://www.w3.org/2000/svg"><g fill="rgb(0,0,0)"><g><g><path d="m1478.7 1427.8h-1357.4c-49.2 0-89.3-40-89.3-89.3v-1077c0-49.2 40-89.3 89.3-89.3h1357.5c49.2 0 89.3 40 89.3 89.3v1077c-.1 49.2-40.2 89.3-89.4 89.3zm-1357.4-1207.6c-22.8 0-41.3 18.5-41.3 41.3v1077c0 22.8 18.5 41.3 41.3 41.3h1357.5c22.8 0 41.3-18.5 41.3-41.3v-1077c0-22.8-18.5-41.3-41.3-41.3z"/><path d="m1544 435h-1488c-13.3 0-24-10.7-24-24s10.7-24 24-24h1488c13.3 0 24 10.7 24 24s-10.7 24-24 24z"/><path d="m1397 327.6h-649.3c-13.3 0-24-10.7-24-24s10.7-24 24-24h649.3c13.3 0 24 10.7 24 24s-10.7 24-24 24z"/></g><g><circle cx="235.1" cy="303.6" r="32.1"/><circle cx="369.4" cy="303.6" r="32.1"/><circle cx="503.7" cy="303.6" r="32.1"/></g></g><g><path d="m837.1 923.3h-628.8c-13.3 0-24-10.7-24-24v-382.8c0-13.3 10.7-24 24-24h628.8c13.3 0 24 10.7 24 24v382.8c0 13.3-10.8 24-24 24zm-604.8-48h580.8v-334.8h-580.8z"/><path d="m1064.7 1190.3h-591c-13.3 0-24-10.7-24-24v-149.6c0-13.3 10.7-24 24-24h628.8c13.3 0 24 10.7 24 24v90.2c0 13.3-10.7 24-24 24s-24-10.7-24-24v-66.2h-580.8v101.6h567c13.3 0 24 10.7 24 24s-10.7 24-24 24z"/><g><path d="m1380.6 555.4h-407.9c-13.3 0-24-10.7-24-24s10.7-24 24-24h407.9c13.3 0 24 10.7 24 24s-10.7 24-24 24z"/><path d="m1384.3 673.1h-407.9c-13.3 0-24-10.7-24-24s10.7-24 24-24h407.9c13.3 0 24 10.7 24 24s-10.7 24-24 24z"/><path d="m1388 790.7h-407.9c-13.3 0-24-10.7-24-24s10.7-24 24-24h407.9c13.3 0 24 10.7 24 24s-10.7 24-24 24z"/><path d="m1391.8 908.3h-408c-13.3 0-24-10.7-24-24s10.7-24 24-24h407.9c13.3 0 24 10.7 24 24s-10.7 24-23.9 24z"/></g><path d="m1190.5 1322.3c-6.1 0-12.3-2.3-17-7l-48-48-20.3 20.3c-6.2 6.2-15.2 8.5-23.6 6.1s-14.8-9.2-16.7-17.8l-40-177.1c-1.8-8.1.7-16.6 6.6-22.4s14.5-8.2 22.6-6.2l174.1 43.1c8.4 2.1 15 8.5 17.4 16.9s0 17.3-6.2 23.4l-20.3 20.3 48 48c9.4 9.4 9.4 24.6 0 33.9l-59.4 59.4c-4.9 4.7-11.1 7.1-17.2 7.1zm-64.9-113c6.1 0 12.3 2.3 17 7l48 48 25.5-25.4-48-48c-9.4-9.4-9.4-24.6 0-33.9l7.3-7.2-95-23.5 21.8 96.7 6.5-6.5c4.6-4.9 10.7-7.2 16.9-7.2z"/></g></g></svg>