<svg id="Layer_1" enable-background="new 0 0 74 74" height="512" viewBox="0 0 74 74" width="512" xmlns="http://www.w3.org/2000/svg"><g><path d="m11.83 43.74c.28 0 .5-.22.5-.5v-28.38h44.4v21.87c0 .28.22.5.5.5s.5-.22.5-.5v-22.37-.01-4.64c0-1.34-1.09-2.43-2.43-2.43h-41.53c-1.34 0-2.43 1.09-2.43 2.43v4.62.02 28.88c-.01.28.21.51.49.51zm1.94-35.46h41.53c.79 0 1.43.64 1.43 1.43v4.15h-44.4v-4.15c0-.79.65-1.43 1.44-1.43z"/><path d="m54.88 57.93h-32.11c-.28 0-.5.22-.5.5s.22.5.5.5h32.11c.28 0 .5-.22.5-.5s-.22-.5-.5-.5z"/><path d="m16.12 12.79c.95 0 1.72-.77 1.72-1.72s-.77-1.73-1.72-1.73-1.73.78-1.73 1.73.78 1.72 1.73 1.72zm0-2.44c.39 0 .72.33.72.73s-.32.72-.72.72-.73-.32-.73-.72c0-.41.33-.73.73-.73z"/><path d="m19.7 12.79c.95 0 1.72-.77 1.72-1.72s-.77-1.73-1.72-1.73-1.73.78-1.73 1.73.77 1.72 1.73 1.72zm0-2.44c.39 0 .72.33.72.73s-.32.72-.72.72-.73-.32-.73-.72c0-.41.32-.73.73-.73z"/><path d="m23.27 12.79c.95 0 1.72-.77 1.72-1.72s-.77-1.73-1.72-1.73-1.73.78-1.73 1.73.77 1.72 1.73 1.72zm0-2.44c.39 0 .72.33.72.73s-.32.72-.72.72-.73-.32-.73-.72c0-.41.33-.73.73-.73z"/><path d="m28.94 12.48h24.32c.78 0 1.41-.63 1.41-1.4 0-.78-.63-1.41-1.41-1.41h-24.32c-.78 0-1.41.63-1.41 1.41 0 .77.63 1.4 1.41 1.4zm0-1.82h24.32c.22 0 .41.19.41.41s-.19.4-.41.4h-24.32c-.22 0-.41-.18-.41-.4s.19-.41.41-.41z"/><path d="m37.72 16.93c-.71 0-1.28.58-1.28 1.28v14.89c0 .71.58 1.28 1.28 1.28h15.57c.71 0 1.28-.58 1.28-1.28v-14.88c0-.71-.58-1.28-1.28-1.28h-15.57zm15.85 1.29v14.89c0 .16-.13.28-.28.28h-15.57c-.16 0-.28-.13-.28-.28v-14.89c0-.16.13-.28.28-.28h15.57c.15-.01.28.12.28.28z"/><path d="m29.64 54.53h2.93c.53 0 .96-.43.96-.96v-3.72c0-.53-.43-.96-.96-.96h-2.93c-.53 0-.96.43-.96.96v3.72c.01.53.44.96.96.96zm2.9-4.63.04 3.64-2.89.04-.04-3.68z"/><path d="m25.61 49.52h-2.48c-.28 0-.5.22-.5.5s.22.5.5.5h2.48c.28 0 .5-.22.5-.5s-.22-.5-.5-.5z"/><path d="m25.61 47.01h-3.31c-.28 0-.5.22-.5.5s.22.5.5.5h3.31c.28 0 .5-.22.5-.5s-.22-.5-.5-.5z"/><path d="m25.61 44.51h-3.79c-.28 0-.5.22-.5.5s.22.5.5.5h3.79c.28 0 .5-.22.5-.5s-.22-.5-.5-.5z"/><path d="m69.09 61.97-8.35-8.35c-.47-.47-1.24-.5-1.78-.13l-1.33-1.33c1.27-1.8 2.02-3.98 2.02-6.34 0-6.1-4.96-11.05-11.05-11.05-3.52 0-6.65 1.66-8.68 4.23l-.43-.26c-.19-.11-.42-.09-.58.05l-7.29 6.25c-.3-.21-.67-.33-1.06-.33-1.03 0-1.87.84-1.87 1.87s.84 1.87 1.87 1.87 1.87-.84 1.87-1.87c0-.28-.06-.53-.17-.77l7.03-6.03.05.03c-.62.95-1.09 2-1.39 3.12h-1.15c-.6 0-1.09.49-1.09 1.09v9.57c0 .52.43.95.95.95h2.81c.59 0 1.08-.48 1.08-1.08v-.1c2.02 2.15 4.88 3.51 8.06 3.51 2.36 0 4.54-.75 6.34-2.01l1.33 1.33c-.38.55-.36 1.3.13 1.78l8.35 8.35c.27.27.63.41.99.41s.72-.14.99-.41l2.37-2.36c.53-.56.53-1.45-.02-1.99zm-38.53-14.53c-.48 0-.87-.39-.87-.87s.39-.87.87-.87.87.39.87.87c0 .49-.38.87-.87.87zm27.95 11.23 2.93-2.93 5.53 5.53-2.93 2.93zm-18.97-6.46v1.24c0 .04-.03.08-.08.08l-2.76.05v-9.57c0-.05.04-.09.09-.09h.93c-.11.62-.17 1.25-.17 1.9 0 2.35.75 4.53 2.01 6.33-.01.02-.02.04-.02.06zm-1-6.39c0-5.54 4.51-10.05 10.05-10.05s10.05 4.51 10.05 10.05-4.51 10.05-10.05 10.05-10.05-4.51-10.05-10.05zm18.47 7.14 1.21 1.21-1.28 1.28-1.21-1.21c.46-.4.89-.82 1.28-1.28zm.09 3.73 2.16-2.16c.01 0 .01-.01.02-.01.01-.01.01-.01.01-.02l.18-.18c.08-.08.18-.12.28-.12s.21.04.28.12l.7.7-2.93 2.93-.7-.7c-.15-.15-.15-.4 0-.56zm11.28 6.55-2.37 2.36c-.16.16-.41.16-.57 0l-.7-.7 2.93-2.93.7.7c.17.16.17.41.01.57z"/><path d="m57.05 45.82c0-2.58-1.17-4.9-3-6.45-.01-.01-.01-.02-.02-.03s-.02-.01-.02-.01c-.7-.58-1.49-1.05-2.35-1.38-.02-.01-.03-.02-.04-.03-.04-.02-.08-.02-.12-.03-.91-.33-1.88-.52-2.9-.52-4.66 0-8.46 3.79-8.46 8.46 0 2.44 1.05 4.64 2.71 6.18.01.01.02.02.03.02 1.51 1.39 3.51 2.24 5.72 2.24 2.24 0 4.28-.88 5.79-2.31.02-.01.03-.03.05-.04 1.6-1.55 2.61-3.71 2.61-6.1zm-5.14-6.67c.29.15.58.31.85.49-.02 0-.04.01-.07.01-.34.01-.64-.2-.78-.5zm-1.07-.44c0 .03-.01.05-.01.08 0 .18.03.35.08.51l-3.45 2.04c-.34-.33-.8-.53-1.3-.53-.51 0-.98.21-1.32.55l-1.44-.87c1.34-1.31 3.18-2.12 5.2-2.12.78-.01 1.53.11 2.24.34zm-4.68 3.1c.48 0 .87.39.87.87 0 .49-.38.87-.87.87-.48 0-.87-.39-.87-.87s.39-.87.87-.87zm-2.49 4.2 2.89-.04v7.01c-1.07-.3-2.04-.84-2.85-1.55zm3.89 7.18v-7.22c0-.53-.43-.96-.96-.96h-2.93c-.53 0-.96.43-.96.96v4.41c-.98-1.26-1.57-2.84-1.57-4.56 0-1.73.59-3.31 1.58-4.58l1.63.99c-.04.15-.06.3-.06.45 0 1.03.84 1.87 1.87 1.87s1.87-.84 1.87-1.87c0-.16-.03-.32-.07-.47l3.47-2.06c.33.31.78.5 1.27.5.35 0 .69-.11.97-.28 1.46 1.36 2.38 3.3 2.38 5.44 0 1.66-.55 3.19-1.48 4.43v-7.11c0-.53-.43-.96-.96-.96h-2.93c-.53 0-.96.43-.96.96v10.04c-.37.06-.74.09-1.12.09-.36.01-.7-.02-1.04-.07zm3.12-10.01 2.89-.04v8.21c-.81.73-1.78 1.29-2.85 1.61z"/><path d="m24.54 54.72v-1.72c0-.57-.38-1.07-.93-1.22l-1.44-.39c-.08-.02-.14-.08-.17-.17-.33-.94-.81-1.78-1.45-2.51-.06-.07-.09-.16-.07-.24l.39-1.44c.15-.55-.09-1.13-.58-1.41l-1.51-.88c-.49-.29-1.12-.21-1.52.19l-1.07 1.07c-.06.06-.15.08-.24.06-.94-.18-1.91-.18-2.86 0-.1.02-.18-.01-.24-.06l-1.07-1.06c-.4-.4-1.03-.48-1.52-.19l-1.51.88c-.49.29-.73.87-.58 1.42l.39 1.44c.02.08 0 .16-.07.24-.64.73-1.13 1.57-1.45 2.5-.03.09-.09.15-.17.17l-1.45.4c-.54.13-.92.63-.92 1.2v1.73c0 .56.38 1.06.92 1.21l1.45.4c.08.02.14.08.17.17.32.92.81 1.77 1.45 2.5.06.07.09.16.07.24l-.38 1.44c-.15.55.09 1.13.58 1.41l1.51.88c.49.28 1.11.21 1.52-.19l1.07-1.06c.06-.06.15-.08.24-.06.95.18 1.92.18 2.86 0 .1-.02.18.01.24.06l1.07 1.06c.24.24.56.36.89.36.22 0 .44-.06.63-.17l1.51-.88c.49-.29.73-.87.58-1.42l-.39-1.44c-.03-.11.04-.2.07-.23.63-.73 1.12-1.58 1.45-2.51.03-.09.09-.15.17-.17l1.44-.39c.54-.15.92-.65.92-1.22zm-1 0c0 .12-.08.22-.19.25l-1.44.39c-.4.11-.72.41-.86.81-.28.82-.71 1.55-1.26 2.19-.28.32-.38.75-.27 1.15l.39 1.44c.03.11-.02.23-.12.29l-1.51.88c-.1.06-.23.04-.31-.04l-1.07-1.06c-.23-.23-.55-.36-.88-.36-.08 0-.17.01-.25.02-.82.16-1.66.16-2.48 0-.42-.08-.84.05-1.13.33l-1.07 1.06c-.08.08-.21.1-.31.04l-1.51-.88c-.1-.06-.15-.18-.12-.29l.38-1.44c.11-.4 0-.83-.28-1.15-.55-.64-.98-1.37-1.26-2.17-.14-.4-.46-.7-.85-.81l-1.45-.4c-.11-.03-.19-.13-.19-.25v-1.72c0-.12.08-.22.19-.25l1.45-.4c.39-.11.71-.41.85-.81.28-.8.7-1.53 1.26-2.17.28-.32.38-.75.28-1.15l-.39-1.44c-.03-.11.02-.23.12-.29l1.51-.88c.1-.06.23-.04.31.04l1.07 1.06c.29.29.71.41 1.13.33.83-.16 1.66-.16 2.48 0 .42.08.84-.05 1.13-.33l1.07-1.06c.08-.08.21-.1.31-.04l1.51.88c.1.06.15.18.12.29l-.39 1.44c-.11.4 0 .83.27 1.15.55.64.98 1.37 1.26 2.19.14.4.46.7.86.81l1.44.39c.11.03.19.13.19.25v1.71z"/><path d="m14.52 48.87c-2.75 0-4.99 2.24-4.99 4.99s2.24 4.99 4.99 4.99 4.99-2.24 4.99-4.99-2.24-4.99-4.99-4.99zm0 8.98c-2.2 0-3.99-1.79-3.99-3.99s1.79-3.99 3.99-3.99 3.99 1.79 3.99 3.99-1.79 3.99-3.99 3.99z"/><path d="m45.5 19.29c-3.53 0-6.4 2.87-6.4 6.4s2.87 6.4 6.4 6.4 6.4-2.87 6.4-6.4-2.87-6.4-6.4-6.4zm0 9.11c-1.49 0-2.71-1.21-2.71-2.71 0-1.49 1.21-2.7 2.69-2.7h.01s.01 0 .01 0c1.49.01 2.69 1.22 2.69 2.7.02 1.49-1.2 2.71-2.69 2.71zm-.5-8.09v1.72c-1.09.15-2.03.76-2.6 1.64l-1.42-.93c.87-1.34 2.34-2.27 4.02-2.43zm-4.9 5.38c0-.73.15-1.42.41-2.05l1.47.96c-.11.35-.18.71-.18 1.09 0 .87.31 1.66.82 2.29l-1.21 1.21c-.82-.94-1.31-2.16-1.31-3.5zm2.01 4.2 1.21-1.21c.61.45 1.36.72 2.17.72.64 0 1.24-.18 1.77-.47l1.23 1.25c-.86.58-1.89.91-3 .91-1.27 0-2.45-.45-3.38-1.2zm7.17-.35-1.19-1.21c.69-.67 1.12-1.61 1.12-2.65 0-1.87-1.4-3.41-3.21-3.66v-1.72c2.74.25 4.9 2.57 4.9 5.38 0 1.52-.62 2.88-1.62 3.86z"/><path d="m46.32 25.64c-.16-.07-.37-.13-.6-.19v-1.17c.25.01.48.06.7.14.05.02.08.02.11.02.08 0 .15-.03.2-.09.05-.05.07-.12.07-.19 0-.13-.06-.22-.18-.27-.26-.1-.56-.16-.89-.18v-.31c0-.06-.02-.11-.07-.15-.09-.09-.23-.09-.32 0-.04.04-.06.1-.06.15v.33c-.24.02-.45.09-.62.19-.19.11-.33.25-.42.41-.1.16-.15.34-.15.54 0 .22.06.41.18.56.11.14.26.25.44.33.15.07.35.14.58.2v1.12c-.29-.02-.57-.09-.83-.2-.11-.05-.25-.03-.33.06-.05.06-.07.12-.07.19 0 .06.02.11.05.17.03.05.08.09.13.11.33.14.68.22 1.05.25v.33c0 .06.02.12.06.16.04.03.09.06.15.06s.12-.02.16-.06.06-.09.06-.15v-.33c.23-.02.44-.07.61-.16.2-.1.35-.22.46-.39.11-.16.16-.34.16-.54 0-.24-.06-.44-.18-.6s-.27-.27-.45-.34zm-1.04-.31c-.19-.05-.34-.11-.44-.19-.11-.07-.16-.18-.16-.31 0-.15.06-.26.17-.36.11-.09.25-.14.42-.17v1.03zm.44 1.75v-1.01c.21.06.37.13.48.19s.16.15.16.28c0 .32-.21.49-.64.54z"/><path d="m20.45 19.21c0-.75-.61-1.37-1.37-1.37h-3.68c-.75 0-1.37.61-1.37 1.37v3.68c0 .75.61 1.37 1.37 1.37h3.68c.76 0 1.37-.61 1.37-1.37zm-1 3.68c0 .2-.17.37-.37.37h-3.68c-.2 0-.37-.17-.37-.37v-3.68c0-.2.17-.37.37-.37h3.68c.2 0 .37.17.37.37z"/><path d="m33.76 18.61h-12.03c-.28 0-.5.22-.5.5s.22.5.5.5h12.03c.28 0 .5-.22.5-.5s-.23-.5-.5-.5z"/><path d="m33.76 20.55h-12.03c-.28 0-.5.22-.5.5s.22.5.5.5h12.03c.28 0 .5-.22.5-.5s-.23-.5-.5-.5z"/><path d="m33.76 22.5h-12.03c-.28 0-.5.22-.5.5s.22.5.5.5h12.03c.28 0 .5-.22.5-.5s-.23-.5-.5-.5z"/><path d="m18.11 19.81-1.42 1.42-.33-.33c-.2-.19-.51-.19-.71 0-.2.2-.2.51 0 .71l.69.68c.1.1.23.15.35.15s.26-.05.35-.15l1.77-1.77c.2-.2.2-.51 0-.71s-.5-.19-.7 0z"/><path d="m20.45 27.1c0-.75-.61-1.37-1.37-1.37h-3.68c-.75 0-1.37.61-1.37 1.37v3.68c0 .75.61 1.37 1.37 1.37h3.68c.76 0 1.37-.61 1.37-1.37zm-1 3.68c0 .2-.17.37-.37.37h-3.68c-.2 0-.37-.17-.37-.37v-3.68c0-.2.17-.37.37-.37h3.68c.2 0 .37.17.37.37z"/><path d="m33.76 26.49h-12.03c-.28 0-.5.22-.5.5s.22.5.5.5h12.03c.28 0 .5-.22.5-.5s-.23-.5-.5-.5z"/><path d="m33.76 28.44h-12.03c-.28 0-.5.22-.5.5s.22.5.5.5h12.03c.28 0 .5-.22.5-.5s-.23-.5-.5-.5z"/><path d="m33.76 30.38h-12.03c-.28 0-.5.22-.5.5s.22.5.5.5h12.03c.28 0 .5-.22.5-.5s-.23-.5-.5-.5z"/><path d="m18.11 27.7-1.42 1.42-.33-.33c-.2-.19-.51-.19-.71 0-.2.2-.2.51 0 .71l.69.68c.1.1.23.15.35.15s.26-.05.35-.15l1.77-1.77c.2-.2.2-.51 0-.71s-.5-.2-.7 0z"/><path d="m19.08 33.61h-3.68c-.75 0-1.37.61-1.37 1.37v3.68c0 .76.61 1.37 1.37 1.37h3.68c.76 0 1.37-.61 1.37-1.37v-3.68c0-.75-.62-1.37-1.37-1.37zm.37 5.06c0 .2-.17.37-.37.37h-3.68c-.2 0-.37-.17-.37-.37v-3.68c0-.2.17-.37.37-.37h3.68c.2 0 .37.17.37.37z"/><path d="m33.76 34.38h-12.03c-.28 0-.5.22-.5.5s.22.5.5.5h12.03c.28 0 .5-.22.5-.5s-.23-.5-.5-.5z"/><path d="m33.76 36.33h-12.03c-.28 0-.5.22-.5.5s.22.5.5.5h12.03c.28 0 .5-.22.5-.5s-.23-.5-.5-.5z"/><path d="m34.26 38.77c0-.28-.22-.5-.5-.5h-12.03c-.28 0-.5.22-.5.5s.22.5.5.5h12.03c.27 0 .5-.22.5-.5z"/><path d="m18.11 35.59-1.42 1.42-.33-.33c-.2-.2-.51-.2-.71 0s-.2.51 0 .71l.69.69c.1.1.23.15.35.15s.26-.05.35-.15l1.77-1.77c.2-.2.2-.51 0-.71s-.5-.21-.7-.01z"/></g></svg>