<svg id="positive-browser" enable-background="new 0 0 300 300" height="512" viewBox="0 0 300 300" width="512" xmlns="http://www.w3.org/2000/svg"><g><path d="m245.994 43.446h-191.99c-6.619 0-12.004 5.385-12.004 12.004v147.992c0 6.619 5.385 12.004 12.004 12.004h191.99c6.619 0 12.006-5.385 12.006-12.004v-147.992c0-6.619-5.387-12.004-12.006-12.004zm0 164h-191.99c-2.207 0-4.004-1.797-4.004-4.004v-147.992c0-2.207 1.797-4.004 4.004-4.004h191.99c2.209 0 4.006 1.797 4.006 4.004v7.996h-116c-2.209 0-4 1.791-4 4s1.791 4 4 4h116v131.996c0 2.207-1.797 4.004-4.006 4.004z"/><path d="m239.914 235.554c-1.562-1.562-4.094-1.562-5.656 0l-4.258 4.258-4.258-4.258c-1.562-1.562-4.094-1.562-5.656 0s-1.562 4.094 0 5.656l4.258 4.258-4.258 4.258c-1.562 1.562-1.562 4.094 0 5.656.781.781 1.805 1.172 2.828 1.172s2.047-.391 2.828-1.172l4.258-4.258 4.258 4.258c.781.781 1.805 1.172 2.828 1.172s2.047-.391 2.828-1.172c1.562-1.562 1.562-4.094 0-5.656l-4.258-4.258 4.258-4.258c1.563-1.563 1.563-4.094 0-5.656z"/><circle cx="60" cy="61.446" r="6"/><circle cx="76" cy="61.446" r="6"/><circle cx="92" cy="61.446" r="6"/><path d="m100 227.446c-7.719 0-14 6.281-14 14s6.281 14 14 14 14-6.281 14-14-6.281-14-14-14zm0 20c-3.309 0-6-2.691-6-6s2.691-6 6-6 6 2.691 6 6-2.691 6-6 6z"/><path d="m164 224.917c-2.502 0-4.53 2.028-4.53 4.53 0 2.501 2.028 4.53 4.53 4.53 2.501 0 4.53-2.028 4.53-4.53s-2.029-4.53-4.53-4.53z"/><path d="m202 91.446h24c2.209 0 4-1.791 4-4s-1.791-4-4-4h-24c-2.209 0-4 1.791-4 4s1.791 4 4 4z"/><path d="m202 103.446h16c2.209 0 4-1.791 4-4s-1.791-4-4-4h-16c-2.209 0-4 1.791-4 4s1.791 4 4 4z"/><path d="m234 107.446h-32c-2.209 0-4 1.791-4 4s1.791 4 4 4h32c2.209 0 4-1.791 4-4s-1.791-4-4-4z"/><path d="m198 171.446c-6.617 0-12 5.383-12 12s5.383 12 12 12 12-5.383 12-12-5.383-12-12-12zm0 16c-2.205 0-4-1.795-4-4s1.795-4 4-4 4 1.795 4 4-1.795 4-4 4z"/><path d="m226 171.446c-6.617 0-12 5.383-12 12s5.383 12 12 12 12-5.383 12-12-5.383-12-12-12zm0 16c-2.205 0-4-1.795-4-4s1.795-4 4-4 4 1.795 4 4-1.795 4-4 4z"/><path d="m189.449 97.421c-.719-1.223-2.031-1.975-3.449-1.975h-19.092c-1.49 0-2.857.828-3.547 2.148l-19.889 38.104-6.555-6.988c-.758-.807-1.812-1.264-2.918-1.264h-20c-1.584 0-3.018.934-3.658 2.383s-.365 3.139.699 4.311l33.588 36.902c.764.838 1.84 1.307 2.959 1.307.152 0 .305-.008.459-.027 1.279-.146 2.408-.9 3.035-2.025l38.412-68.902c.691-1.24.675-2.751-.044-3.974zm-42.646 64.123-23.754-26.098h9.219l9.227 9.834c.887.945 2.168 1.404 3.461 1.227 1.285-.176 2.404-.963 3.004-2.111l21.373-40.949h9.859z"/><path d="m98 83.446h-32c-2.209 0-4 1.791-4 4s1.791 4 4 4h32c2.209 0 4-1.791 4-4s-1.791-4-4-4z"/><path d="m90 95.446h-24c-2.209 0-4 1.791-4 4s1.791 4 4 4h24c2.209 0 4-1.791 4-4s-1.791-4-4-4z"/><path d="m130 99.446c0-2.209-1.791-4-4-4h-20c-2.209 0-4 1.791-4 4s1.791 4 4 4h20c2.209 0 4-1.791 4-4z"/><path d="m90 179.446h-24c-2.209 0-4 1.791-4 4v12c0 2.209 1.791 4 4 4h24c2.209 0 4-1.791 4-4v-12c0-2.209-1.791-4-4-4zm-4 12h-16v-4h16z"/></g></svg>