<svg id="positive-chat" enable-background="new 0 0 300 300" height="512" viewBox="0 0 300 300" width="512" xmlns="http://www.w3.org/2000/svg"><g><circle cx="62.5" cy="76" r="4"/><path d="m103.672 58.828c.781.781 1.805 1.172 2.828 1.172s2.047-.391 2.828-1.172l3.172-3.172 3.172 3.172c.781.781 1.805 1.172 2.828 1.172s2.047-.391 2.828-1.172c1.562-1.562 1.562-4.094 0-5.656l-3.172-3.172 3.172-3.172c1.562-1.562 1.562-4.094 0-5.656s-4.094-1.562-5.656 0l-3.172 3.172-3.172-3.172c-1.562-1.562-4.094-1.562-5.656 0s-1.562 4.094 0 5.656l3.172 3.172-3.172 3.172c-1.563 1.562-1.563 4.094 0 5.656z"/><path d="m265.5 104c0-33.084-26.914-60-60-60-30.367 0-55.471 22.694-59.403 52h-78.152c-9.171 0-16.628 7.135-17.312 16.133-8.999.685-16.133 8.143-16.133 17.313v97.109c0 9.619 7.824 17.445 17.445 17.445h6.555v12c0 1.684 1.055 3.188 2.637 3.762.445.16.906.238 1.363.238 1.164 0 2.297-.51 3.074-1.439l12.133-14.561h111.348c9.171 0 16.628-7.135 17.312-16.133 8.999-.685 16.133-8.143 16.133-17.313v-49.044c24.825-7.352 43-30.333 43-57.51zm-197.555 0h77.555c0 2.719.245 5.376.597 8h-87.451c.702-4.52 4.587-8 9.299-8zm121.11 132h-113.223c-1.188 0-2.312.527-3.074 1.439l-6.258 7.512v-4.951c0-2.209-1.789-4-4-4h-10.555c-5.207 0-9.445-4.236-9.445-9.445v-97.109c0-5.209 4.238-9.445 9.445-9.445h95.787c6.422 23.148 26.355 40.702 50.768 43.556v62.999c0 5.208-4.238 9.444-9.445 9.444zm25.445-25.445c0 4.714-3.481 8.597-8 9.299v-55.905c2.718-.045 5.38-.303 8-.7zm-9-54.555c-28.672 0-52-23.326-52-52s23.328-52 52-52 52 23.326 52 52-23.328 52-52 52z"/><path d="m241.949 73.975c-.719-1.223-2.031-1.975-3.449-1.975h-19.09c-1.488 0-2.855.828-3.547 2.148l-19.887 38.104-6.559-6.988c-.758-.807-1.812-1.264-2.918-1.264h-20c-1.582 0-3.02.934-3.66 2.383-.637 1.449-.363 3.139.703 4.309l33.586 36.904c.762.836 1.836 1.307 2.957 1.307.152 0 .305-.008.457-.027 1.281-.146 2.41-.9 3.035-2.025l38.414-68.902c.693-1.24.677-2.752-.042-3.974zm-42.648 64.121-23.75-26.096h9.219l9.227 9.834c.887.945 2.188 1.408 3.461 1.227 1.285-.176 2.402-.963 3.004-2.111l21.374-40.95h9.855z"/><path d="m82.5 164c-6.617 0-12 5.383-12 12s5.383 12 12 12 12-5.383 12-12-5.383-12-12-12zm0 16c-2.207 0-4-1.795-4-4s1.793-4 4-4 4 1.795 4 4-1.793 4-4 4z"/><path d="m118.5 164c-6.617 0-12 5.383-12 12s5.383 12 12 12 12-5.383 12-12-5.383-12-12-12zm0 16c-2.207 0-4-1.795-4-4s1.793-4 4-4 4 1.795 4 4-1.793 4-4 4z"/><path d="m154.5 164c-6.617 0-12 5.383-12 12s5.383 12 12 12 12-5.383 12-12-5.383-12-12-12zm0 16c-2.207 0-4-1.795-4-4s1.793-4 4-4 4 1.795 4 4-1.793 4-4 4z"/></g></svg>