<svg id="Capa_1" enable-background="new 0 0 511.948 511.948" height="512" viewBox="0 0 511.948 511.948" width="512" xmlns="http://www.w3.org/2000/svg"><g><g><path d="m247.773 471.714h16.402c4.144 0 7.502-3.359 7.502-7.502s-3.358-7.502-7.502-7.502h-16.402c-4.143 0-7.502 3.359-7.502 7.502s3.358 7.502 7.502 7.502z"/><path d="m360.819 0h-209.69c-20.339 0-36.886 16.547-36.886 36.886v438.175c0 20.339 16.547 36.886 36.886 36.886h209.689c20.339 0 36.886-16.547 36.886-36.886v-438.175c.001-20.339-16.546-36.886-36.885-36.886zm-231.571 94.432 191.777 152.54-150.25 169.504h-41.528v-322.044zm253.452 380.63c0 12.066-9.816 21.882-21.882 21.882h-209.689c-12.066 0-21.882-9.816-21.882-21.882v-34.454-9.127h253.453zm0-58.586h-152.074l125.5-141.576 26.574 21.136zm0-177.674-85.431-67.949 85.431-89.785zm0-179.501-101.952 107.148c-1.451 1.525-2.195 3.59-2.049 5.69s1.167 4.043 2.814 5.353l101.187 80.482v18.891l-22.8-18.135c-3.121-2.482-7.638-2.09-10.284.895l-139.04 156.85h-19.748l146.676-165.471c1.366-1.541 2.039-3.576 1.86-5.627s-1.192-3.939-2.804-5.221l-207.312-164.897v-18.879l128.866 102.498c3.043 2.421 7.428 2.115 10.106-.7l60.027-63.088c2.856-3.002 2.738-7.75-.264-10.607-3.002-2.856-7.75-2.738-10.607.264l-55.294 58.114-132.834-105.653v-.321c0-12.066 9.816-21.882 21.882-21.882h209.689c6.383 0 12.136 2.748 16.139 7.123l-35.587 37.401c-2.856 3.002-2.738 7.75.264 10.607 3.002 2.856 7.751 2.739 10.607-.264l30.458-32.012z"/><path d="m192.054 335.94c1.976 4.179 6.074 6.775 10.695 6.775s8.719-2.596 10.695-6.775c4.664-9.865 11.896-18.468 19.551-27.575 11.815-14.056 24.033-28.59 27.394-48.926.925-5.601.976-11.362.15-17.123-.587-4.102-4.397-6.951-8.49-6.363-4.102.588-6.95 4.389-6.363 8.49.608 4.242.573 8.464-.102 12.549-2.69 16.277-13.078 28.635-24.076 41.718-6.649 7.909-13.487 16.044-18.761 25.312-5.274-9.268-12.113-17.402-18.761-25.312-10.998-13.084-21.385-25.441-24.075-41.718-.938-5.674-.644-11.533.873-17.415 3.824-14.824 14.286-25.792 28.704-30.091 15.035-4.483 31.881-.887 42.915 9.163 3.062 2.789 7.808 2.569 10.598-.495 2.79-3.063 2.569-7.808-.495-10.599-15.069-13.725-37.027-18.495-57.307-12.449-19.58 5.839-33.776 20.681-38.945 40.722-2.043 7.917-2.429 15.86-1.148 23.609 3.361 20.336 15.579 34.87 27.394 48.926 7.658 9.109 14.89 17.712 19.554 27.577z"/><path d="m202.749 218.661c-17.494 0-31.727 14.232-31.727 31.727 0 17.494 14.233 31.727 31.727 31.727s31.727-14.233 31.727-31.727-14.232-31.727-31.727-31.727zm0 48.449c-9.221 0-16.722-7.502-16.722-16.722 0-9.221 7.502-16.722 16.722-16.722 9.221 0 16.722 7.501 16.722 16.722.001 9.22-7.501 16.722-16.722 16.722z"/></g></g></svg>