<svg id="Layer_1" enable-background="new 0 0 1600 1600" height="512" viewBox="0 0 1600 1600" width="512" xmlns="http://www.w3.org/2000/svg"><g fill="rgb(0,0,0)"><g><path d="m793.2 1453.5h-180.4c-13.3 0-24-10.7-24-24s10.7-24 24-24h180.4c13.3 0 24 10.7 24 24s-10.8 24-24 24z"/><path d="m1064.5 1561h-723c-46 0-83.4-37.4-83.4-83.4v-1355.1c0-46 37.4-83.4 83.4-83.4h723.1c46 0 83.4 37.4 83.4 83.4v110.8c0 13.3-10.7 24-24 24s-24-10.7-24-24v-110.8c0-19.5-15.9-35.4-35.4-35.4h-723.1c-19.5 0-35.4 15.9-35.4 35.4v1355.1c0 19.5 15.9 35.4 35.4 35.4h723.1c19.5 0 35.4-15.9 35.4-35.4v-155.6c0-13.3 10.7-24 24-24s24 10.7 24 24v155.5c0 46-37.5 83.5-83.5 83.5z"/><path d="m1124 1346h-842c-13.3 0-24-10.7-24-24v-1088.7c0-13.3 10.7-24 24-24h842c13.3 0 24 10.7 24 24v407.8c0 13.3-10.7 24-24 24s-24-10.7-24-24v-383.8h-794v1040.7h794v-158.4c0-13.3 10.7-24 24-24s24 10.7 24 24v182.4c0 13.3-10.8 24-24 24z"/><g><path d="m657.5 722.8h-255.5c-13.3 0-24-10.7-24-24s10.7-24 24-24h255.4c13.3 0 24 10.7 24 24s-10.7 24-23.9 24z"/><path d="m660.3 880.5h-258.3c-13.3 0-24-10.7-24-24s10.7-24 24-24h258.3c13.3 0 24 10.7 24 24s-10.7 24-24 24z"/><path d="m737.3 1038.3h-335.3c-13.3 0-24-10.7-24-24s10.7-24 24-24h335.3c13.3 0 24 10.7 24 24s-10.7 24-24 24z"/><path d="m834.3 1196.1h-432.3c-13.3 0-24-10.7-24-24s10.7-24 24-24h432.3c13.3 0 24 10.7 24 24s-10.7 24-24 24z"/><path d="m541.9 565h-139.9c-13.3 0-24-10.7-24-24s10.7-24 24-24h139.9c13.3 0 24 10.7 24 24s-10.7 24-24 24z"/><path d="m1004 565h-376.5c-13.3 0-24-10.7-24-24s10.7-24 24-24h376.5c13.3 0 24 10.7 24 24s-10.8 24-24 24z"/><path d="m710.3 407.2h-308.3c-13.3 0-24-10.7-24-24s10.7-24 24-24h308.2c13.3 0 24 10.7 24 24s-10.7 24-23.9 24z"/><path d="m1004 407.2h-216.7c-13.3 0-24-10.7-24-24s10.7-24 24-24h216.7c13.3 0 24 10.7 24 24s-10.8 24-24 24z"/></g></g><g><g><g><path d="m1145.1 872c-39.4 0-71.5-32.1-71.5-71.5s32.1-71.5 71.5-71.5 71.5 32.1 71.5 71.5-32.1 71.5-71.5 71.5zm0-95c-13 0-23.5 10.5-23.5 23.5s10.5 23.5 23.5 23.5 23.5-10.5 23.5-23.5-10.6-23.5-23.5-23.5z"/><path d="m1145.1 1051.6c-39.4 0-71.5-32.1-71.5-71.5s32.1-71.5 71.5-71.5 71.5 32.1 71.5 71.5-32.1 71.5-71.5 71.5zm0-95c-13 0-23.5 10.5-23.5 23.5s10.5 23.5 23.5 23.5 23.5-10.5 23.5-23.5-10.6-23.5-23.5-23.5z"/></g><path d="m941.6 961.8c-39.4 0-71.5-32.1-71.5-71.5s32.1-71.5 71.5-71.5 71.5 32.1 71.5 71.5-32.1 71.5-71.5 71.5zm0-95c-13 0-23.5 10.5-23.5 23.5s10.5 23.5 23.5 23.5 23.5-10.5 23.5-23.5-10.6-23.5-23.5-23.5z"/><path d="m1101.3 985.5c-3.1 0-6.3-.6-9.4-1.9l-117.3-49.9c-12.2-5.2-17.9-19.3-12.7-31.5s19.3-17.9 31.5-12.7l117.3 49.9c12.2 5.2 17.9 19.3 12.7 31.5-3.9 9.2-12.8 14.6-22.1 14.6z"/><path d="m984 893c-9.3 0-18.2-5.5-22.1-14.6-5.2-12.2.5-26.3 12.7-31.5l117.3-49.9c12.2-5.2 26.3.5 31.5 12.7s-.5 26.3-12.7 31.5l-117.3 49.9c-3.1 1.3-6.2 1.9-9.4 1.9z"/></g><path d="m1060.9 1171.4c-75.1 0-145.6-29.2-198.7-82.3s-82.3-123.7-82.3-198.7c0-75.1 29.2-145.6 82.3-198.7s123.7-82.3 198.7-82.3 145.6 29.2 198.7 82.3 82.3 123.7 82.3 198.7c0 75.1-29.2 145.6-82.3 198.7-53 53-123.6 82.3-198.7 82.3zm0-514.1c-128.5 0-233 104.5-233 233s104.5 233 233 233 233-104.5 233-233-104.5-233-233-233z"/></g></g></svg>