<svg id="Capa_1" enable-background="new 0 0 512 512" height="512" viewBox="0 0 512 512" width="512" xmlns="http://www.w3.org/2000/svg"><g><g><path d="m485.354 42.917h-458.708c-14.693 0-26.646 11.952-26.646 26.645v300.46c0 14.692 11.953 26.646 26.646 26.646h184.095c-2.388 13.533-7.917 40.173-16.885 57.417h-41.675c-4.142 0-7.499 3.358-7.499 7.499s3.357 7.499 7.499 7.499h207.639c4.142 0 7.499-3.358 7.499-7.499s-3.357-7.499-7.499-7.499h-41.675c-8.967-17.244-14.497-43.884-16.885-57.417h97.478c4.142 0 7.499-3.358 7.499-7.499s-3.357-7.499-7.499-7.499h-372.092c-6.422 0-11.647-5.225-11.647-11.647v-22.946h482.003v22.946c0 6.422-5.225 11.647-11.647 11.647h-51.623c-4.142 0-7.499 3.358-7.499 7.499s3.357 7.499 7.499 7.499h51.623c14.693 0 26.646-11.953 26.646-26.646v-300.46c-.001-14.693-11.954-26.645-26.647-26.645zm-199.328 353.751c1.982 11.849 6.946 37.464 15.55 57.417h-91.153c8.605-19.954 13.568-45.569 15.55-57.417zm177.214-64.59h-414.48v-237.038c0-1.442 1.174-2.616 2.616-2.616h409.249c1.442 0 2.616 1.174 2.616 2.616v237.038zm33.761 0h-18.763v-237.038c0-9.713-7.901-17.614-17.614-17.614h-409.249c-9.713 0-17.614 7.902-17.614 17.614v237.038h-18.762v-262.516c0-6.422 5.225-11.647 11.647-11.647h458.708c6.422 0 11.647 5.225 11.647 11.647z"/><path d="m187.171 118.854h-116.546c-4.142 0-7.499 3.358-7.499 7.499v37.518c0 4.142 3.357 7.499 7.499 7.499s7.499-3.358 7.499-7.499v-30.019h101.547v156.796h-101.546v-91.907c0-4.142-3.357-7.499-7.499-7.499s-7.499 3.358-7.499 7.499v99.406c0 4.142 3.357 7.499 7.499 7.499h116.546c4.142 0 7.499-3.358 7.499-7.499v-171.793c-.001-4.142-3.358-7.5-7.5-7.5z"/><path d="m114.903 234.439c-3.464-2.268-8.114-1.295-10.381 2.17-2.267 3.466-1.296 8.114 2.171 10.381 5.424 3.548 9.469 5.059 14.282 5.648v2.605c0 4.142 3.357 7.499 7.499 7.499s7.499-3.358 7.499-7.499v-3.364c10.182-3.035 16.697-11.932 18.173-20.71 1.972-11.731-4.389-22.33-15.829-26.374-.773-.273-1.557-.554-2.344-.841v-16.831c.013.005.027.008.04.013 2.115.795 3.106 2.78 4.609 4.295 2.975 2.997 7.714 3.807 10.909.737 7.96-7.646-7.383-18.611-13.969-20.217-.526-.128-1.056-.241-1.588-.345v-2.348c0-4.142-3.357-7.499-7.499-7.499s-7.499 3.358-7.499 7.499v2.797c-.059.017-.119.031-.178.048-7.768 2.34-13.567 8.957-15.133 17.268-1.444 7.667 1.073 15.109 6.571 19.42 2.322 1.821 5.109 3.494 8.74 5.209v23.428c-1.893-.484-3.602-1.373-6.073-2.989zm21.07-14.188c3.679 2.471 3.757 6.195 3.381 8.432-.377 2.243-1.518 4.575-3.381 6.342zm-15.569-28.102c.07-.373.235-1.057.571-1.831v6.086c-.654-.98-.889-2.569-.571-4.255z"/><path d="m215.711 181.294c3.865 1.474 8.202-.468 9.677-4.339l2.643-6.94h18.566l2.611 6.918c1.133 3.003 3.987 4.854 7.017 4.854 5.139-.001 8.857-5.267 7.015-10.149 0-.001-17.835-47.259-17.835-47.259-.026-.07-.054-.14-.082-.209-1.331-3.23-4.446-5.315-7.948-5.315-3.497.004-6.612 2.097-7.937 5.333-.022.057-.046.114-.067.172l-17.998 47.257c-1.476 3.87.468 8.203 4.338 9.677zm21.645-35.764 3.58 9.486h-7.193z"/><path d="m273.56 174.313c.007 1.989.805 3.894 2.217 5.295 1.405 1.395 5.302 2.177 5.311 2.177.398-.001 9.803.065 13.568 0 14.93-.261 25.767-13.256 25.767-30.757 0-18.396-10.563-30.756-26.283-30.756h-13.173c-1.991 0-3.901.792-5.308 2.201-1.406 1.41-2.195 3.32-2.191 5.312-.002.001.092 46.528.092 46.528zm20.579-39.042c10.472 0 11.285 12.061 11.285 15.758 0 7.697-3.411 15.524-11.03 15.657-1.383.024-3.614.044-5.861.061-.017-5.335-.046-25.911-.056-31.475h5.662z"/><path d="m351.229 181.785c10.833 0 19.939-6.969 21.653-16.569 1.301-7.284-1.929-16.771-14.896-21.554-5.623-2.074-10.874-4.326-12.754-5.146-1.784-1.727.69-3.757 2.255-4.228 5.948-1.791 11.602 2.615 11.804 2.776 3.171 2.619 7.865 2.198 10.517-.956 2.665-3.171 2.256-7.901-.915-10.566-4.348-3.655-14.666-8.95-25.732-5.614-7.185 2.164-12.271 7.851-13.275 14.841-.946 6.594 1.914 12.939 7.465 16.558 4.482 2.921 10.468 4.573 15.443 6.408 2.806 1.035 5.678 2.852 5.322 4.846-.303 1.697-2.702 4.207-6.888 4.207-4.345 0-8.513-1.735-11.146-4.642-2.783-3.07-7.525-3.301-10.593-.521-3.069 2.781-3.302 7.524-.521 10.593 5.511 6.08 13.625 9.567 22.261 9.567z"/><path d="m441.375 199.117h-222.995c-4.142 0-7.499 3.358-7.499 7.499s3.357 7.499 7.499 7.499h222.995c4.142 0 7.499-3.358 7.499-7.499s-3.357-7.499-7.499-7.499z"/><path d="m441.375 229.628h-222.995c-4.142 0-7.499 3.358-7.499 7.499s3.357 7.499 7.499 7.499h222.995c4.142 0 7.499-3.358 7.499-7.499s-3.357-7.499-7.499-7.499z"/><path d="m441.375 260.138h-222.995c-4.142 0-7.499 3.358-7.499 7.499s3.357 7.499 7.499 7.499h222.995c4.142 0 7.499-3.358 7.499-7.499s-3.357-7.499-7.499-7.499z"/><path d="m441.375 290.649h-222.995c-4.142 0-7.499 3.358-7.499 7.499s3.357 7.499 7.499 7.499h222.995c4.142 0 7.499-3.358 7.499-7.499s-3.357-7.499-7.499-7.499z"/></g></g></svg>