<svg id="positive-envelope" enable-background="new 0 0 300 300" height="512" viewBox="0 0 300 300" width="512" xmlns="http://www.w3.org/2000/svg"><g><circle cx="105.172" cy="58" r="4"/><circle cx="229.172" cy="42" r="4"/><path d="m250.828 86 2.828-2.828c1.562-1.562 1.562-4.094 0-5.656s-4.094-1.562-5.656 0l-2.828 2.828-2.828-2.828c-1.562-1.562-4.094-1.562-5.656 0s-1.562 4.094 0 5.656l2.828 2.828-2.828 2.828c-1.562 1.562-1.562 4.094 0 5.656.781.781 1.805 1.172 2.828 1.172s2.047-.391 2.828-1.172l2.828-2.828 2.828 2.828c.781.781 1.805 1.172 2.828 1.172s2.047-.391 2.828-1.172c1.562-1.562 1.562-4.094 0-5.656z"/><path d="m203.172 78c7.719 0 14-6.281 14-14s-6.281-14-14-14-14 6.281-14 14 6.281 14 14 14zm0-20c3.309 0 6 2.691 6 6s-2.691 6-6 6-6-2.691-6-6 2.691-6 6-6z"/><path d="m225.172 132.325v-38.325c0-2.209-1.789-4-4-4h-49.814l-14.158-11.135c-7.121-5.869-17.219-6.066-24.621-.426l-14.513 11.561h-48.894c-2.211 0-4 1.791-4 4v38.139l-18.492 14.732c-.953.76-1.508 1.91-1.508 3.129v108c0 2.209 1.789 4 4 4h192c2.211 0 4-1.791 4-4v-108c0-1.227-.562-2.385-1.527-3.145zm0 10.179 9.104 7.161-9.104 5.826zm-87.68-57.752c4.375-3.328 10.379-3.207 14.688.344l6.235 4.904h-27.51zm-64.32 13.248h144v62.61l-56.131 35.923-3.209-2.266c-7.773-5.486-18.203-5.469-25.945.041l-5.945 4.225-52.77-36.71zm-8 44.368v13.89l-9.308-6.475zm-12 15.288 65.84 45.803-65.84 46.793zm8.531 96.344 74.816-53.172c4.988-3.543 11.699-3.553 16.695-.025l75.355 53.197zm175.469-3.721-69.074-48.764 69.074-44.206z"/><path d="m142.758 186.902c.152 0 .305-.008.457-.027 1.281-.146 2.41-.9 3.035-2.025l38.414-68.902c.691-1.238.676-2.75-.043-3.973s-2.031-1.975-3.449-1.975h-19.09c-1.488 0-2.855.828-3.547 2.148l-19.887 38.104-6.559-6.988c-.758-.807-1.812-1.264-2.918-1.264h-20c-1.582 0-3.02.934-3.66 2.383-.637 1.449-.363 3.139.703 4.309l33.586 36.904c.762.836 1.837 1.306 2.958 1.306zm-15.317-36.902 9.227 9.834c.887.947 2.184 1.41 3.461 1.227 1.285-.176 2.402-.963 3.004-2.111l21.375-40.95h9.855l-32.391 58.096-23.749-26.096z"/></g></svg>