<svg id="Capa_1" enable-background="new 0 0 512 512" height="512" viewBox="0 0 512 512" width="512" xmlns="http://www.w3.org/2000/svg"><g><g id="Page-1_20_"><g id="_x30_21---Web-Layout"><path id="Shape_122_" d="m469.333 0h-426.666c-23.553.028-42.639 19.114-42.667 42.667v426.667c.028 23.552 19.114 42.638 42.667 42.666h426.667c23.552-.028 42.638-19.114 42.667-42.667v-426.666c-.029-23.553-19.115-42.639-42.668-42.667zm-426.666 17.067h426.667c14.138 0 25.6 11.462 25.6 25.6v25.6h-477.867v-25.6c0-14.139 11.461-25.6 25.6-25.6zm426.666 477.866h-426.666c-14.138 0-25.6-11.462-25.6-25.6v-384h477.867v384c-.001 14.139-11.462 25.6-25.601 25.6z"/><circle id="Oval_10_" cx="42.667" cy="42.667" r="8.533"/><circle id="Oval_9_" cx="76.8" cy="42.667" r="8.533"/><circle id="Oval_8_" cx="110.933" cy="42.667" r="8.533"/><path id="Shape_121_" d="m384 51.2h85.333c4.713 0 8.533-3.821 8.533-8.533s-3.821-8.533-8.533-8.533h-85.333c-4.713 0-8.533 3.821-8.533 8.533s3.82 8.533 8.533 8.533z"/><path id="Shape_120_" d="m256 298.667v-170.667c0-14.138-11.461-25.6-25.6-25.6h-170.667c-14.138 0-25.6 11.462-25.6 25.6v170.667c0 14.138 11.462 25.6 25.6 25.6h170.667c14.139 0 25.6-11.462 25.6-25.6zm-196.267-179.2h170.667c4.713 0 8.533 3.821 8.533 8.533v107.401l-47.642-47.667c-6.684-6.664-17.499-6.664-24.183 0l-34.842 34.867-9.267-9.267c-6.665-6.663-17.468-6.663-24.132 0l-47.667 47.667v-133.001c0-4.713 3.821-8.533 8.533-8.533zm170.667 187.733h-170.667c-4.713 0-8.533-3.82-8.533-8.533v-13.534l59.733-59.733 62.234 62.234c3.348 3.234 8.671 3.188 11.962-.104 3.292-3.292 3.338-8.614.104-11.962l-40.9-40.9 34.867-34.842 59.733 59.733v39.108c0 4.713-3.82 8.533-8.533 8.533z"/><path id="Shape_119_" d="m93.867 187.733c14.138 0 25.6-11.462 25.6-25.6 0-14.139-11.462-25.6-25.6-25.6s-25.6 11.462-25.6 25.6c0 14.139 11.461 25.6 25.6 25.6zm0-34.133c4.713 0 8.533 3.821 8.533 8.533 0 4.713-3.821 8.533-8.533 8.533-4.713 0-8.533-3.821-8.533-8.533-.001-4.712 3.82-8.533 8.533-8.533z"/><path id="Shape_118_" d="m452.267 375.467h-179.2c-14.138 0-25.6 11.462-25.6 25.6v51.2c0 14.138 11.462 25.6 25.6 25.6h179.2c14.138 0 25.6-11.462 25.6-25.6v-51.2c0-14.139-11.462-25.6-25.6-25.6zm8.533 76.8c0 4.713-3.82 8.533-8.533 8.533h-179.2c-4.713 0-8.533-3.82-8.533-8.533v-51.2c0-4.713 3.82-8.533 8.533-8.533h179.2c4.713 0 8.533 3.82 8.533 8.533z"/><path id="Shape_117_" d="m469.333 119.467h-187.733c-4.713 0-8.533 3.821-8.533 8.533 0 4.713 3.82 8.533 8.533 8.533h187.733c4.713 0 8.533-3.821 8.533-8.533.001-4.713-3.82-8.533-8.533-8.533z"/><path id="Shape_116_" d="m281.6 187.733h68.267c4.713 0 8.533-3.82 8.533-8.533s-3.821-8.533-8.533-8.533h-68.267c-4.713 0-8.533 3.821-8.533 8.533s3.82 8.533 8.533 8.533z"/><path id="Shape_115_" d="m469.333 170.667h-85.333c-4.713 0-8.533 3.821-8.533 8.533s3.821 8.533 8.533 8.533h85.333c4.713 0 8.533-3.82 8.533-8.533s-3.82-8.533-8.533-8.533z"/><path id="Shape_114_" d="m469.333 221.867h-187.733c-4.713 0-8.533 3.82-8.533 8.533s3.82 8.533 8.533 8.533h187.733c4.713 0 8.533-3.821 8.533-8.533s-3.82-8.533-8.533-8.533z"/><path id="Shape_113_" d="m281.6 290.133h68.267c4.713 0 8.533-3.821 8.533-8.533s-3.821-8.533-8.533-8.533h-68.267c-4.713 0-8.533 3.82-8.533 8.533s3.82 8.533 8.533 8.533z"/><path id="Shape_112_" d="m469.333 273.067h-85.333c-4.713 0-8.533 3.82-8.533 8.533s3.821 8.533 8.533 8.533h85.333c4.713 0 8.533-3.821 8.533-8.533s-3.82-8.533-8.533-8.533z"/><path id="Shape_111_" d="m281.6 341.333h136.533c4.713 0 8.533-3.82 8.533-8.533s-3.82-8.533-8.533-8.533h-136.533c-4.713 0-8.533 3.82-8.533 8.533s3.82 8.533 8.533 8.533z"/><path id="Shape_110_" d="m221.867 349.867h-179.2c-4.713 0-8.533 3.82-8.533 8.533s3.821 8.533 8.533 8.533h179.2c4.713 0 8.533-3.82 8.533-8.533s-3.821-8.533-8.533-8.533z"/><path id="Shape_109_" d="m42.667 418.133h76.8c4.713 0 8.533-3.821 8.533-8.533 0-4.713-3.821-8.533-8.533-8.533h-76.8c-4.713 0-8.533 3.821-8.533 8.533-.001 4.713 3.82 8.533 8.533 8.533z"/><path id="Shape_108_" d="m221.867 401.067h-68.267c-4.713 0-8.533 3.821-8.533 8.533 0 4.713 3.82 8.533 8.533 8.533h68.267c4.713 0 8.533-3.821 8.533-8.533 0-4.713-3.821-8.533-8.533-8.533z"/><path id="Shape_107_" d="m221.867 452.267h-179.2c-4.713 0-8.533 3.82-8.533 8.533s3.821 8.533 8.533 8.533h179.2c4.713 0 8.533-3.82 8.533-8.533s-3.821-8.533-8.533-8.533z"/></g></g></g></svg>