<svg id="Layer_1" enable-background="new 0 0 1600 1600" height="512" viewBox="0 0 1600 1600" width="512" xmlns="http://www.w3.org/2000/svg"><g fill="rgb(0,0,0)"><g><path d="m891 1459.5h-182.1c-13.3 0-24-10.7-24-24s10.7-24 24-24h182.1c13.3 0 24 10.7 24 24s-10.8 24-24 24z"/><path d="m374.9 378c-13.3 0-24-10.7-24-24v-238c0-46.3 37.7-84 84-84h730c46.3 0 84 37.7 84 84v111.9c0 13.3-10.7 24-24 24s-24-10.7-24-24v-111.9c0-19.9-16.1-36-36-36h-730c-19.9 0-36 16.1-36 36v238c0 13.3-10.7 24-24 24z"/><path d="m374.9 988.9c-13.3 0-24-10.7-24-24v-419c0-13.3 10.7-24 24-24s24 10.7 24 24v419c0 13.2-10.7 24-24 24z"/><path d="m1164.9 1568h-730c-46.3 0-84-37.7-84-84v-280.2c0-13.3 10.7-24 24-24s24 10.7 24 24v280.2c0 19.9 16.1 36 36 36h730c19.9 0 36-16.1 36-36v-157c0-13.3 10.7-24 24-24s24 10.7 24 24v157c0 46.3-37.7 84-84 84z"/><path d="m1224.9 919.4c-13.3 0-24-10.7-24-24v-250.3c0-13.3 10.7-24 24-24s24 10.7 24 24v250.3c0 13.2-10.7 24-24 24z"/><path d="m1224.9 1351h-850c-13.3 0-24-10.7-24-24v-123.2c0-13.3 10.7-24 24-24s24 10.7 24 24v99.2h802v-82.7c0-13.3 10.7-24 24-24s24 10.7 24 24v106.7c0 13.3-10.7 24-24 24z"/><path d="m374.9 988.9c-13.3 0-24-10.7-24-24v-419c0-13.3 10.7-24 24-24s24 10.7 24 24v419c0 13.2-10.7 24-24 24z"/><path d="m374.9 378c-13.3 0-24-10.7-24-24v-126.1c0-13.3 10.7-24 24-24h850c13.3 0 24 10.7 24 24v91.8c0 13.3-10.7 24-24 24s-24-10.7-24-24v-67.8h-802v102.1c0 13.3-10.7 24-24 24z"/><g><g><g><path d="m875.4 763.5c-36.7 0-66.6-29.9-66.6-66.6s29.9-66.6 66.6-66.6 66.6 29.9 66.6 66.6-29.8 66.6-66.6 66.6zm0-85.3c-10.3 0-18.6 8.4-18.6 18.6s8.4 18.6 18.6 18.6 18.6-8.4 18.6-18.6-8.3-18.6-18.6-18.6z"/><path d="m875.4 924.7c-36.7 0-66.6-29.9-66.6-66.6s29.9-66.6 66.6-66.6 66.6 29.8 66.6 66.5-29.8 66.7-66.6 66.7zm0-85.3c-10.3 0-18.6 8.4-18.6 18.6s8.4 18.6 18.6 18.6 18.6-8.3 18.6-18.6-8.3-18.6-18.6-18.6z"/></g><path d="m692.8 844.1c-36.7 0-66.6-29.9-66.6-66.6s29.9-66.6 66.6-66.6 66.6 29.9 66.6 66.6-29.9 66.6-66.6 66.6zm0-85.3c-10.3 0-18.6 8.4-18.6 18.6s8.4 18.6 18.6 18.6 18.6-8.4 18.6-18.6-8.3-18.6-18.6-18.6z"/><path d="m836.2 865.3c-3.1 0-6.3-.6-9.4-1.9l-104.8-44.5c-8.9-3.5-15.1-12.2-15.1-22.3 0-13.3 10.7-24 24-24 3.2 0 6.4.7 9.4 1.9l105.3 44.7c12.2 5.2 17.9 19.3 12.7 31.5-3.9 9.2-12.8 14.6-22.1 14.6z"/><path d="m730.9 782.3c-9.3 0-18.2-5.5-22.1-14.6-5.2-12.2.5-26.3 12.7-31.5l105.3-44.8c12.2-5.2 26.3.5 31.5 12.7s-.5 26.3-12.7 31.5l-105.3 44.8c-3.1 1.3-6.3 1.9-9.4 1.9z"/></g><path d="m799.9 1032.1c-68 0-132-26.5-180.1-74.6s-74.6-112-74.6-180.1 26.5-132 74.6-180.1 112-74.6 180.1-74.6 132 26.5 180.1 74.6 74.6 112 74.6 180.1-26.5 132-74.6 180.1-112 74.6-180.1 74.6zm0-461.3c-114 0-206.7 92.7-206.7 206.7s92.8 206.6 206.7 206.6 206.7-92.7 206.7-206.7c0-113.9-92.7-206.6-206.7-206.6z"/></g></g><g><path d="m482.4 570h-.1l-216.1-.4c-29.8-.1-53.9-24.3-53.9-54.1l.3-131.8c0-14.4 5.7-28 15.9-38.2s23.7-15.7 38.1-15.7h.1l216.1.4c14.4 0 28 5.7 38.2 15.9s15.8 23.8 15.7 38.2l-.3 131.8c0 14.4-5.7 28-15.9 38.2s-23.7 15.7-38.1 15.7zm-215.9-192.2c-2.1 0-3.4 1-4.2 1.8s-1.8 2.2-1.8 4.2l-.3 131.8c0 3.3 2.7 6 6 6l216.1.4c2 0 3.4-.9 4.2-1.7s1.8-2.2 1.8-4.2l.3-131.8c0-2.1-1-3.4-1.8-4.3-.8-.8-2.2-1.8-4.2-1.8z"/><path d="m374.5 486.7c-12.6 0-25.1-4.4-35.4-13.2l-108.6-93.3c-10.1-8.6-11.2-23.8-2.6-33.8 8.6-10.1 23.8-11.2 33.8-2.6l108.6 93.3c2.4 2 5.8 2 8.2 0l109-92.9c10.1-8.6 25.2-7.4 33.8 2.7s7.4 25.2-2.7 33.8l-109 92.9c-10.1 8.7-22.6 13.1-35.1 13.1z"/></g><g><path d="m1215.2 1244.6c-103 0-186.8-83.8-186.8-186.8s83.8-186.8 186.8-186.8 186.8 83.8 186.8 186.8-83.8 186.8-186.8 186.8zm0-325.5c-76.5 0-138.8 62.2-138.8 138.8s62.2 138.8 138.8 138.8 138.8-62.2 138.8-138.8-62.3-138.8-138.8-138.8z"/><path d="m1180.7 1149.7c-3.9 0-7.8-1-11.4-2.9-7.8-4.2-12.6-12.3-12.6-21.1v-135.7c0-8.8 4.8-16.9 12.6-21.1s17.2-3.8 24.6 1.1l103.2 67.8c6.8 4.4 10.8 12 10.8 20.1s-4.1 15.6-10.8 20.1l-103.2 67.8c-4 2.5-8.6 3.9-13.2 3.9zm24-115.2v46.7l35.5-23.3z"/></g><g><path d="m262.4 1303.7c-3.8 0-7.7-.9-11.2-2.8-7.8-4.1-12.7-12.3-12.8-21.1l-.2-60.2-25 .1h-.1c-13.2 0-24-10.7-24-23.9l-.8-230.2c0-6.4 2.5-12.5 7-17s10.6-7.1 16.9-7.1l325.1-1.1h.1c6.3 0 12.4 2.5 16.9 7s7.1 10.6 7.1 16.9l.8 230.2c0 13.3-10.7 24-23.9 24.1l-143 .5-119.4 80.5c-4.1 2.7-8.8 4.1-13.5 4.1zm-.3-132.2c6.3 0 12.4 2.5 16.9 7s7.1 10.6 7.1 16.9l.1 39.2 88.2-59.5c3.9-2.7 8.6-4.1 13.3-4.1l126.3-.4-.6-182.2-277.1.9.6 182.2z"/><g><path d="m296.1 1067.7c-13.2 0-24-10.7-24-23.9 0-13.3 10.7-24 23.9-24.1l158.2-.5h.1c13.2 0 24 10.7 24 23.9 0 13.3-10.7 24-23.9 24.1z"/><path d="m296.3 1140.9c-13.2 0-24-10.7-24-23.9 0-13.3 10.7-24 23.9-24.1l158.2-.5h.1c13.2 0 24 10.7 24 23.9 0 13.3-10.7 24-23.9 24.1z"/></g></g><g><path d="m1225.7 587.6c-3.3 0-6.6-.7-9.6-2-29.4-12.9-55.7-36.9-74-67.6-7.1-11.9-11.7-23-14.1-33.9-3.3-14.8-2.4-29.4 2.4-42.3 5.7-15.2 17.2-28 31.7-35.4 19.6-9.9 43.1-9 62.1 1.2 18.8-10.6 42.3-12 62.1-2.4 14.6 7 26.4 19.7 32.3 34.7 5.1 12.8 6.2 27.4 3.2 42.3-2.2 11-6.6 22.1-13.4 34.1-17.7 31.1-43.4 55.6-72.6 69.1-3.2 1.5-6.6 2.2-10.1 2.2zm-34-140.2c-2.8 0-5.5.6-7.9 1.8-3.8 1.9-6.9 5.4-8.4 9.4-1.5 4.1-1.7 9.5-.5 15.1 1.3 5.8 4 12.3 8.4 19.7 10.8 18.2 25.8 33.5 42.1 43.1 16.1-10 30.7-25.5 41.2-43.9 4.3-7.5 6.9-14 8.1-19.8 1.1-5.7.9-11-.8-15.1-1.6-3.9-4.8-7.4-8.6-9.2-7.2-3.5-17.2-1.3-22.6 5.1-4.5 5.3-11.1 8.4-18 8.4-6.9.1-13.6-2.9-18.2-8.1-3.7-4.2-9.3-6.5-14.8-6.5z"/><path d="m1224.9 669.1c-103 0-186.7-83.8-186.7-186.7s83.8-186.7 186.7-186.7 186.7 83.8 186.7 186.7c.1 103-83.7 186.7-186.7 186.7zm0-325.4c-76.5 0-138.7 62.2-138.7 138.7s62.2 138.7 138.7 138.7 138.7-62.2 138.7-138.7c.1-76.5-62.2-138.7-138.7-138.7z"/></g></g></svg>