<svg id="positive-hands" enable-background="new 0 0 300 300" height="512" viewBox="0 0 300 300" width="512" xmlns="http://www.w3.org/2000/svg"><g><circle cx="94" cy="47.999" r="4"/><path d="m230 59.999c6.617 0 12-5.383 12-12s-5.383-12-12-12-12 5.383-12 12 5.383 12 12 12zm0-16c2.205 0 4 1.795 4 4s-1.795 4-4 4-4-1.795-4-4 1.795-4 4-4z"/><path d="m170.162 195.616c-1.562-1.562-4.094-1.562-5.656 0l-3.172 3.172-3.172-3.172c-1.562-1.562-4.094-1.562-5.656 0s-1.562 4.094 0 5.656l3.172 3.172-3.172 3.172c-1.562 1.562-1.562 4.094 0 5.656.781.781 1.805 1.172 2.828 1.172s2.047-.391 2.828-1.172l3.172-3.172 3.172 3.172c.781.781 1.805 1.172 2.828 1.172s2.047-.391 2.828-1.172c1.562-1.562 1.562-4.094 0-5.656l-3.172-3.172 3.172-3.172c1.563-1.562 1.563-4.093 0-5.656z"/><path d="m93.615 173.618v-22.232c0-10.689-8.637-19.387-19.252-19.387h-.561l-.011-37.529c0-5.773-4.672-10.471-10.414-10.471-5.16 0-9.486 3.719-10.287 8.842l-11.041 70.539c-.074.465-.064.938.027 1.396l11.713 59.082-11.65 43.098c-.576 2.131.686 4.328 2.818 4.904.35.094.699.141 1.045.141 1.764 0 3.377-1.176 3.859-2.959l11.895-44c.16-.594.182-1.217.062-1.82l-11.756-59.305 10.93-69.838c.189-1.205 1.191-2.08 2.385-2.08 1.332 0 2.414 1.107 2.414 2.473l.025 85.529c0 .518.102 1.033.299 1.514l8.184 20c.836 2.045 3.172 3.025 5.217 2.186 2.043-.836 3.023-3.172 2.186-5.217l-7.885-19.271-.012-39.213h.559c6.205 0 11.252 5.107 11.252 11.387v24.613c0 1.631.99 3.1 2.504 3.709.168.068 16.883 7.113 13.396 31.73-1.633 11.527-3.906 17.262-6.105 22.805-2.998 7.562-5.83 14.705-5.83 33.756 0 2.209 1.791 4 4 4s4-1.791 4-4c0-17.521 2.441-23.678 5.268-30.807 2.26-5.701 4.822-12.162 6.59-24.633 3.461-24.463-10.046-35.434-15.824-38.942z"/><path d="m257.861 262.956-11.65-43.098 11.713-59.082c.092-.459.102-.932.027-1.396l-11.041-70.539c-.801-5.123-5.127-8.842-10.287-8.842-5.742 0-10.414 4.697-10.414 10.471l-.091 37.529h-.481c-10.615 0-19.252 8.697-19.252 19.387v22.232c-5.777 3.508-19.285 14.479-15.822 38.941 1.768 12.471 4.33 18.932 6.59 24.633 2.826 7.129 5.268 13.285 5.268 30.807 0 2.209 1.791 4 4 4s4-1.791 4-4c0-19.051-2.832-26.193-5.83-33.756-2.199-5.543-4.473-11.277-6.105-22.805-3.451-24.363 12.732-31.451 13.396-31.73 1.514-.609 2.504-2.078 2.504-3.709v-24.613c0-6.279 5.047-11.387 11.252-11.387h.462l-.095 39.221-7.719 19.293c-.82 2.053.178 4.379 2.229 5.201 2.059.82 4.381-.178 5.201-2.229l8-20c.186-.467.283-.965.285-1.467l.209-44.02v-41.528c0-1.363 1.082-2.471 2.414-2.471 1.193 0 2.195.875 2.385 2.08l10.93 69.838-11.756 59.305c-.119.604-.098 1.227.062 1.82l11.895 44c.482 1.783 2.096 2.959 3.859 2.959.346 0 .697-.047 1.045-.141 2.132-.576 3.394-2.773 2.817-4.904z"/><path d="m213 87.999c0-33.084-26.916-60-60-60s-60 26.916-60 60 26.916 60 60 60 60-26.916 60-60zm-112 0c0-28.674 23.326-52 52-52s52 23.326 52 52-23.326 52-52 52-52-23.326-52-52z"/><path d="m189.449 57.974c-.719-1.223-2.031-1.975-3.449-1.975h-19.092c-1.49 0-2.857.828-3.547 2.148l-19.889 38.104-6.555-6.988c-.758-.807-1.812-1.264-2.918-1.264h-20c-1.584 0-3.018.934-3.658 2.383s-.365 3.139.699 4.311l33.588 36.902c.764.838 1.84 1.307 2.959 1.307.152 0 .305-.008.459-.027 1.279-.146 2.408-.9 3.035-2.025l38.412-68.902c.691-1.24.675-2.752-.044-3.974zm-42.646 64.123-23.754-26.098h9.219l9.227 9.834c.887.947 2.176 1.412 3.461 1.227 1.285-.176 2.404-.963 3.004-2.111l21.373-40.949h9.859z"/></g></svg>