<svg id="Layer_1" enable-background="new 0 0 74 74" height="512" viewBox="0 0 74 74" width="512" xmlns="http://www.w3.org/2000/svg"><g><path d="m49.4 12.22c-7.73 0-14.44 4.44-17.71 10.9h.94c1.3-2.45 3.11-4.56 5.3-6.22 1.18.98 2.47 1.8 3.85 2.44-.49 1.16-.91 2.42-1.25 3.78h.83c.32-1.25.7-2.42 1.15-3.48 2.04.85 4.23 1.32 6.48 1.37v2.11h.82v-2.11c2.24-.05 4.44-.53 6.48-1.37 1.35 3.24 2.17 7.43 2.22 12.02h-5.25v.82h5.25c-.05 4.59-.87 8.77-2.22 12.01-.98-.4-1.99-.72-3.03-.95v.85c.92.21 1.83.5 2.7.86-.77 1.67-1.68 3.05-2.7 4.04v1.06c1.3-1.1 2.47-2.75 3.42-4.8 1.24.58 2.41 1.32 3.49 2.18-2.05 1.41-4.39 2.44-6.91 2.95v.85c9.1-1.8 15.99-9.84 15.99-19.46 0-10.95-8.91-19.85-19.85-19.85zm-7.29 6.36c-1.24-.58-2.4-1.31-3.48-2.18 2.2-1.52 4.75-2.59 7.49-3.07-1.55 1.09-2.92 2.9-4.01 5.25zm6.88 1.6c-2.13-.05-4.21-.5-6.15-1.29 1.57-3.41 3.74-5.6 6.15-5.82zm.82 0v-7.11c2.41.22 4.58 2.41 6.15 5.81-1.94.8-4.02 1.25-6.15 1.3zm2.87-6.85c2.74.48 5.28 1.55 7.49 3.07-1.08.86-2.25 1.6-3.49 2.18-1.09-2.35-2.46-4.17-4-5.25zm4.34 6c1.37-.64 2.66-1.46 3.84-2.43 4.49 3.4 7.42 8.74 7.55 14.76h-9.07c-.05-4.69-.91-8.98-2.32-12.33zm3.84 27.9c-1.18-.97-2.47-1.79-3.84-2.43 1.41-3.35 2.27-7.64 2.32-12.32h9.07c-.13 6.02-3.06 11.35-7.55 14.75z"/><path d="m47.57 27.56h-22.36c-.76 0-1.38.62-1.38 1.38s.62 1.38 1.38 1.38h22.36c.76 0 1.38-.62 1.38-1.38s-.62-1.38-1.38-1.38zm0 1.75h-22.36c-.21 0-.38-.17-.38-.38s.17-.38.38-.38h22.36c.21 0 .38.17.38.38s-.17.38-.38.38z"/><path d="m12.82 27.22c-.97 0-1.73.76-1.73 1.73 0 .94.78 1.7 1.73 1.7s1.73-.76 1.73-1.7c0-.97-.76-1.73-1.73-1.73zm0 2.43c-.4 0-.73-.31-.73-.7 0-.41.32-.73.73-.73s.73.32.73.73c0 .38-.33.7-.73.7z"/><path d="m16.74 27.22c-.97 0-1.73.76-1.73 1.73 0 .94.78 1.7 1.73 1.7s1.73-.76 1.73-1.7c0-.97-.76-1.73-1.73-1.73zm0 2.43c-.4 0-.73-.31-.73-.7 0-.41.32-.73.73-.73s.73.32.73.73c0 .38-.33.7-.73.7z"/><path d="m20.65 27.22c-.97 0-1.73.76-1.73 1.73 0 .94.78 1.7 1.73 1.7s1.73-.76 1.73-1.7c0-.97-.76-1.73-1.73-1.73zm0 2.43c-.4 0-.73-.31-.73-.7 0-.41.32-.73.73-.73s.73.32.73.73c0 .38-.33.7-.73.7z"/><path d="m27.65 51.36c.28 0 .5-.22.5-.5s-.22-.5-.5-.5h-9.55c-.28 0-.5.22-.5.5s.22.5.5.5z"/><path d="m33.17 44.27c0 .28.22.5.5.5h13.54c.37 0 .67.3.67.67v4.25c0 .38-.29.67-.67.67h-12.9c-.28 0-.5.22-.5.5s.22.5.5.5h12.9c.92 0 1.67-.75 1.67-1.67v-4.25c0-.92-.75-1.67-1.67-1.67h-13.54c-.28 0-.5.23-.5.5z"/><path d="m19.98 44.77h5.77c.28 0 .5-.22.5-.5s-.22-.5-.5-.5h-5.77c-.28 0-.5.22-.5.5s.22.5.5.5z"/><path d="m47.45 42.34c.79 0 1.43-.64 1.43-1.43v-5.26c0-.79-.64-1.43-1.43-1.43h-8.36c-.79 0-1.43.64-1.43 1.43v5.26c0 .79.64 1.43 1.43 1.43zm-8.79-1.43v-5.26c0-.24.19-.43.43-.43h8.36c.24 0 .43.19.43.43v5.26c0 .24-.19.43-.43.43h-8.36c-.23 0-.43-.19-.43-.43z"/><path d="m34.95 53.14h-1.57c-.28 0-.5.22-.5.5s.22.5.5.5h1.57c.28 0 .5-.22.5-.5s-.22-.5-.5-.5z"/><path d="m34.95 55.74h-3.31c-.28 0-.5.22-.5.5s.22.5.5.5h3.31c.28 0 .5-.22.5-.5s-.22-.5-.5-.5z"/><path d="m47.83 53.15h-9.13c-.28 0-.5.22-.5.5s.22.5.5.5h9.13c.28 0 .5-.22.5-.5s-.22-.5-.5-.5z"/><path d="m47.83 55.74h-9.13c-.28 0-.5.22-.5.5s.22.5.5.5h9.13c.28 0 .5-.22.5-.5s-.22-.5-.5-.5z"/><path d="m15.87 58.69c0-.23-.08-.44-.2-.63l1.28-1.26c1.67 1.19 3.71 1.9 5.92 1.9 5.61 0 10.17-4.51 10.17-10.06 0-2.38-.84-4.57-2.24-6.29h3.79c.79 0 1.43-.64 1.43-1.43v-5.26c0-.79-.64-1.43-1.43-1.43h-8.36c-.8 0-1.43.63-1.43 1.43v3.1c-.54-.1-1.09-.16-1.66-.17v-2.93c0-.79-.64-1.43-1.43-1.43h-8.36c-.8 0-1.43.63-1.43 1.43v5.26c0 .79.64 1.43 1.43 1.43h1.6c-1.4 1.72-2.24 3.91-2.24 6.29 0 2.18.71 4.2 1.91 5.85l-1.28 1.26c-.47-.28-1.09-.25-1.5.16l-6.72 6.66c-.23.23-.36.54-.36.87s.13.64.36.87l1.93 1.91c.24.24.56.36.87.36s.63-.12.87-.36l6.72-6.66c.23-.24.36-.55.36-.87zm9.92-23.04c0-.25.19-.43.43-.43h8.36c.24 0 .43.19.43.43v5.26c0 .23-.2.43-.43.43h-4.73c-1.14-1.07-2.52-1.88-4.06-2.34zm-12.88 5.26v-5.26c0-.25.18-.43.43-.43h8.36c.24 0 .43.19.43.43v2.95c-2.41.17-4.59 1.18-6.25 2.74h-2.54c-.24 0-.43-.19-.43-.43zm9.96-1.34c5.06 0 9.17 4.07 9.17 9.06s-4.11 9.06-9.17 9.06c-5.05 0-9.16-4.06-9.16-9.06-.01-4.99 4.1-9.06 9.16-9.06zm-6.71 16.6-1.16 1.14-.91-.9 1.16-1.14c.28.32.59.62.91.9zm-6.86 8.12-2.26-2.23 4.28-4.24 2.26 2.23zm-1.56 1.21-1.93-1.91c-.06-.06-.07-.12-.07-.16s.01-.1.07-.16l.51-.51 2.27 2.24-.51.5c-.09.09-.24.09-.34 0zm7.06-6.66-.51.51-2.26-2.23.51-.5c.09-.09.24-.09.34 0l.12.13s.01.01.01.02c.01.01.01.01.02.01l1.6 1.58v.01s.01 0 .01.01l.16.16c.06.06.07.12.07.16s-.01.09-.07.14z"/><path d="m22.44 22.65c4.2 0 7.61-3.41 7.61-7.61s-3.41-7.61-7.61-7.61-7.61 3.41-7.61 7.61 3.42 7.61 7.61 7.61zm0-14.22c3.64 0 6.61 2.96 6.61 6.61s-2.96 6.61-6.61 6.61-6.61-2.96-6.61-6.61 2.97-6.61 6.61-6.61z"/><path d="m51.76 32.73v-6.15c0-1.08-.88-1.96-1.96-1.96h-38.81c-1.08 0-1.96.88-1.96 1.96v6.15s0 0 0 0v23.34c0 .28.22.5.5.5s.5-.22.5-.5v-22.83h40.73v27.72c0 .69-.56 1.25-1.25 1.25h-35.06c-.28 0-.5.22-.5.5s.22.5.5.5h35.06c1.24 0 2.25-1.01 2.25-2.25v-28.21s0 0 0-.02c0 .01 0 .01 0 0zm-41.73-.49v-5.66c0-.53.43-.96.96-.96h38.81c.53 0 .96.43.96.96v5.66z"/><path d="m22.87 56.34c4.3 0 7.79-3.46 7.79-7.7 0-4.25-3.5-7.71-7.79-7.71s-7.79 3.46-7.79 7.71c0 4.24 3.49 7.7 7.79 7.7zm0-14.42c3.74 0 6.79 3.01 6.79 6.71s-3.05 6.7-6.79 6.7-6.79-3.01-6.79-6.7 3.04-6.71 6.79-6.71z"/><path d="m20.47 17.97c.22.22.51.34.82.34s.6-.12.82-.34l4.22-4.22c.2-.2.2-.51 0-.71s-.51-.2-.71 0l-4.22 4.22c-.07.07-.13.09-.22 0l-1.91-1.91c-.2-.2-.51-.2-.71 0s-.2.51 0 .71z"/></g></svg>