<svg id="Capa_1" enable-background="new 0 0 512.019 512.019" height="512" viewBox="0 0 512.019 512.019" width="512" xmlns="http://www.w3.org/2000/svg"><g><g id="Page-1_22_"><g id="_x30_23---Responsive-Design" transform="translate(-1)"><path id="Shape_142_" d="m487.409.009h-460.8c-14.544.465-25.983 12.589-25.6 27.136v372.395c-.383 14.547 11.055 26.672 25.6 27.136h148.326l-17.067 34.133h-28.86c-14.138 0-25.6 11.462-25.6 25.6.07 14.109 11.491 25.53 25.6 25.6h349.867c18.851 0 34.133-15.282 34.133-34.133v-450.731c.384-14.547-11.054-26.671-25.599-27.136zm-460.8 17.067h460.8c5.084.526 8.849 4.968 8.533 10.069v114.142c-5.166-3.071-11.057-4.709-17.067-4.745h-187.732c-18.851 0-34.133 15.282-34.133 34.133v187.733h-238.934v-331.263c-.315-5.101 3.449-9.543 8.533-10.069zm409.6 136.533-10.24 13.653c-1.612 2.149-4.141 3.413-6.827 3.413h-68.267c-2.686 0-5.215-1.265-6.827-3.413l-10.24-13.653zm-418.133 245.931v-24.064h238.933v34.133h-230.4c-5.084-.525-8.848-4.967-8.533-10.069zm175.94 27.136h62.993v34.133h-80.06zm-71.082 65.656c-1.592-1.556-2.48-3.696-2.458-5.922 0-4.713 3.821-8.533 8.533-8.533h128c.035 6.01 1.673 11.901 4.745 17.067h-132.745c-2.299.006-4.498-.939-6.075-2.612zm355.942 2.611h-187.733c-9.426 0-17.067-7.641-17.067-17.067v-4.745c5.166 3.071 11.057 4.709 17.067 4.745h187.733c6.01-.035 11.901-1.673 17.067-4.745v4.745c0 9.426-7.641 17.067-17.067 17.067zm17.067-51.2c0 9.426-7.641 17.067-17.067 17.067h-187.733c-9.426 0-17.067-7.641-17.067-17.067v-273.067c0-9.426 7.641-17.067 17.067-17.067h21.333l17.92 23.893c4.849 6.429 12.427 10.219 20.48 10.24h68.267c8.053-.019 15.633-3.809 20.48-10.24l17.92-23.893h21.333c9.426 0 17.067 7.641 17.067 17.067z"/><path id="Shape_141_" d="m43.676 93.876c4.713 0 8.533-3.821 8.533-8.533v-22.068l36.634 36.634c3.348 3.234 8.671 3.188 11.962-.104s3.338-8.614.104-11.962l-36.634-36.634h22.067c4.713 0 8.533-3.821 8.533-8.533s-3.821-8.533-8.533-8.533h-42.666c-4.713 0-8.533 3.821-8.533 8.533v42.667c0 4.713 3.82 8.533 8.533 8.533z"/><path id="Shape_140_" d="m105.91 116.976 36.634 36.634h-22.067c-4.713 0-8.533 3.821-8.533 8.533s3.821 8.533 8.533 8.533h42.667c4.713 0 8.533-3.82 8.533-8.533v-42.667c0-4.713-3.82-8.533-8.533-8.533s-8.533 3.821-8.533 8.533v22.067l-36.634-36.634c-3.348-3.234-8.671-3.188-11.962.104-3.293 3.292-3.339 8.614-.105 11.963z"/><path id="Shape_139_" d="m299.676 264.543c4.713 0 8.533-3.821 8.533-8.533v-22.067l36.634 36.634c3.348 3.234 8.671 3.188 11.962-.104 3.292-3.292 3.338-8.614.104-11.962l-36.634-36.634h22.067c4.713 0 8.533-3.821 8.533-8.533 0-4.713-3.821-8.533-8.533-8.533h-42.667c-4.713 0-8.533 3.821-8.533 8.533v42.667c.001 4.711 3.821 8.532 8.534 8.532z"/><path id="Shape_138_" d="m361.91 287.642 36.634 36.634h-22.067c-4.713 0-8.533 3.82-8.533 8.533s3.821 8.533 8.533 8.533h42.667c4.713 0 8.533-3.82 8.533-8.533v-42.667c0-4.713-3.82-8.533-8.533-8.533s-8.533 3.821-8.533 8.533v22.067l-36.634-36.634c-3.348-3.234-8.671-3.188-11.962.104-3.293 3.293-3.339 8.615-.105 11.963z"/><path id="Shape_137_" d="m461.809 358.409h-153.6c-9.426 0-17.067 7.641-17.067 17.067v51.2c0 9.426 7.641 17.067 17.067 17.067h153.6c9.426 0 17.067-7.641 17.067-17.067v-51.2c0-9.426-7.641-17.067-17.067-17.067zm-153.6 68.267v-51.2h153.6v51.2z"/><path id="Shape_136_" d="m52.209 341.343h170.667c9.426 0 17.067-7.641 17.067-17.067v-119.467c0-9.426-7.641-17.067-17.067-17.067h-170.667c-9.426 0-17.067 7.641-17.067 17.067v119.467c.001 9.426 7.642 17.067 17.067 17.067zm0-136.534h170.667v119.467h-170.667z"/></g></g></g></svg>