<svg id="Layer_1" enable-background="new 0 0 1600 1600" height="512" viewBox="0 0 1600 1600" width="512" xmlns="http://www.w3.org/2000/svg"><g fill="rgb(0,0,0)"><g><path d="m1272.8 1157.7h-1176.8c-35.3 0-64-28.7-64-64v-778.7c0-35.3 28.7-64 64-64h1170.5c35.3 0 64 28.7 64 64v266.4c0 13.3-10.7 24-24 24s-24-10.7-24-24v-266.4c0-8.8-7.2-16-16-16h-1170.5c-8.8 0-16 7.2-16 16v778.7c0 8.8 7.2 16 16 16h1176.8c13.3 0 24 10.7 24 24s-10.7 24-24 24z"/><path d="m1266.5 1157.7h-1170.5c-35.3 0-64-28.7-64-64v-116.5c0-13.3 10.7-24 24-24h918.6c13.3 0 24 10.7 24 24s-10.7 24-24 24h-894.6v92.5c0 8.8 7.2 16 16 16h1170.5c8.8 0 16-7.2 16-16v-84.2c0-13.3 10.7-24 24-24s24 10.7 24 24v84.2c0 35.3-28.7 64-64 64z"/><path d="m936.6 1349h-510.8c-13.3 0-24-10.7-24-24s10.7-24 24-24h510.8c13.3 0 24 10.7 24 24s-10.7 24-24 24z"/><path d="m870.9 1349c-9 0-17.7-5.1-21.7-13.8l-83.3-177.5h-169.3l-83.3 177.5c-5.6 12-19.9 17.2-31.9 11.5-12-5.6-17.2-19.9-11.5-31.9l89.8-191.3c4-8.4 12.4-13.8 21.7-13.8h199.7c9.3 0 17.8 5.4 21.7 13.8l89.8 191.3c5.6 12 .5 26.3-11.5 31.9-3.4 1.6-6.8 2.3-10.2 2.3z"/><g><g><path d="m448.3 502.5h-284.2c-13.3 0-24-10.7-24-24v-102.7c0-13.3 10.7-24 24-24h284.2c13.3 0 24 10.7 24 24v102.7c0 13.3-10.8 24-24 24zm-260.2-48h236.2v-54.7h-236.2z"/><path d="m738 502.5h-191.2c-13.3 0-24-10.7-24-24v-102.7c0-13.3 10.7-24 24-24h191.2c13.3 0 24 10.7 24 24v102.7c0 13.3-10.8 24-24 24zm-167.2-48h143.2v-54.7h-143.2z"/><path d="m979.4 502.5h-143c-13.3 0-24-10.7-24-24v-102.7c0-13.3 10.7-24 24-24h143c13.3 0 24 10.7 24 24v102.7c0 13.3-10.7 24-24 24zm-119-48h95v-54.7h-95z"/></g><g><path d="m501.1 701.5h-337c-13.3 0-24-10.7-24-24v-102.7c0-13.3 10.7-24 24-24h337c13.3 0 24 10.7 24 24v102.7c0 13.2-10.8 24-24 24zm-313-48h289v-54.7h-289z"/><path d="m821.3 701.5h-233.5c-13.3 0-24-10.7-24-24v-102.7c0-13.3 10.7-24 24-24h233.5c13.3 0 24 10.7 24 24v102.7c0 13.2-10.8 24-24 24zm-209.5-48h185.5v-54.7h-185.5z"/></g><g><path d="m446.9 900.4h-282.8c-13.3 0-24-10.7-24-24v-102.7c0-13.3 10.7-24 24-24h282.8c13.3 0 24 10.7 24 24v102.7c0 13.3-10.7 24-24 24zm-258.8-48h234.8v-54.7h-234.8z"/><path d="m777.5 900.4h-243.8c-13.3 0-24-10.7-24-24v-102.7c0-13.3 10.7-24 24-24h243.8c13.3 0 24 10.7 24 24v102.7c0 13.3-10.8 24-24 24zm-219.8-48h195.8v-54.7h-195.8z"/></g></g></g><g><path d="m1152.7 1072.3c-75.5 0-146.5-29.4-199.9-82.8s-82.8-124.4-82.8-199.9 29.4-146.5 82.8-199.9 124.4-82.8 199.9-82.8 146.5 29.4 199.9 82.8 82.8 124.4 82.8 199.9-29.4 146.5-82.8 199.9-124.3 82.8-199.9 82.8zm0-517.5c-129.4 0-234.8 105.3-234.8 234.8s105.3 234.8 234.8 234.8 234.8-105.3 234.8-234.8-105.3-234.8-234.8-234.8z"/><path d="m1490.7 1204.8c-20.7 0-40.2-8.1-54.8-22.7l-158.9-158.7c-9.4-9.4-9.4-24.6 0-33.9 9.4-9.4 24.6-9.4 33.9 0l158.9 158.7c5.6 5.6 13 8.6 20.9 8.6 7.5 0 14.7-2.8 20.1-7.9 5.8-5.4 9.1-12.8 9.2-20.8.1-8.3-3-16.1-9-22l-158.4-158.2c-9.4-9.4-9.4-24.6 0-33.9 9.4-9.4 24.6-9.4 33.9 0l158.4 158.2c15 15 23.4 35.7 23 56.8-.3 21.1-9 40.7-24.4 55.1-14.3 13.3-33.1 20.7-52.8 20.7z"/><g><path d="m1099.5 824.5c-48.6 0-88.1-39.5-88.1-88.1s39.5-88.1 88.1-88.1 88.1 39.5 88.1 88.1-39.5 88.1-88.1 88.1zm0-128.2c-22.1 0-40.1 18-40.1 40.1s18 40.1 40.1 40.1 40.1-18 40.1-40.1-18-40.1-40.1-40.1z"/><path d="m1270 930.9c-6.1 0-12.3-2.3-17-7l-125.2-125.2c-9.4-9.4-9.4-24.6 0-33.9 9.4-9.4 24.6-9.4 33.9 0l125.3 125.1c9.4 9.4 9.4 24.6 0 33.9-4.7 4.7-10.9 7.1-17 7.1z"/><path d="m1195.6 856.4c-6.1 0-12.3-2.3-17-7-9.4-9.4-9.4-24.6 0-33.9l38.6-38.6c9.4-9.4 24.6-9.4 33.9 0 9.4 9.4 9.4 24.6 0 33.9l-38.6 38.6c-4.7 4.7-10.8 7-16.9 7z"/><path d="m1244.7 905.6c-6.1 0-12.3-2.3-17-7-9.4-9.4-9.4-24.6 0-33.9l26.2-26.2c9.4-9.4 24.6-9.4 33.9 0 9.4 9.4 9.4 24.6 0 33.9l-26.2 26.2c-4.6 4.7-10.7 7-16.9 7z"/></g></g></g></svg>