<svg id="Capa_1" enable-background="new 0 0 512 512" height="512" viewBox="0 0 512 512" width="512" xmlns="http://www.w3.org/2000/svg"><g><g><path d="m502.308 458.595-13.864-13.865c-2.93-2.93-7.682-2.93-10.612 0-2.931 2.931-2.931 7.682-.001 10.613 0 0 13.842 13.842 13.865 13.865 6.315 6.315 6.293 16.735-.001 23.029-6.348 6.349-16.679 6.35-23.029 0l-69.521-69.52 23.03-23.03 31.329 31.33c2.931 2.93 7.682 2.93 10.613 0 2.93-2.93 2.93-7.682 0-10.612l-20.71-20.71c33.864-43.296 52.23-96.305 52.23-152.14 0-66.124-25.75-128.291-72.508-175.048-46.756-46.757-108.922-72.507-175.047-72.507-52.823 0-103.23 16.407-145.77 47.448-3.348 2.443-4.081 7.137-1.639 10.485 2.443 3.348 7.138 4.08 10.485 1.639 26.807-19.561 56.945-32.923 88.863-39.606-14.361 12.625-27.435 31.026-38.545 54.655-9.015 19.171-16.347 40.935-21.852 64.477-23.542 5.505-45.306 12.838-64.477 21.852-23.64 11.116-42.048 24.198-54.674 38.567 9.326-44.725 31.667-85.667 65.184-118.384 2.966-2.895 3.023-7.646.128-10.611-2.895-2.967-7.646-3.023-10.611-.128-23.37 22.813-41.737 49.525-54.59 79.395-13.309 30.928-20.057 63.821-20.057 97.766 0 66.124 25.75 128.291 72.507 175.047 46.757 46.757 108.923 72.507 175.047 72.507 55.318 0 107.857-18.036 150.929-51.302l59.041 59.041c6.102 6.101 14.113 9.151 22.128 9.151 8.012-.001 16.027-3.051 22.126-9.151 5.911-5.91 9.166-13.768 9.166-22.127.002-8.357-3.253-16.216-9.163-22.126zm-102.776-203.536h80.493c-3.912 24.336-26.783 47.365-65.394 65.52-1.788.841-3.608 1.661-5.448 2.468 1.161-6.386 1.761-12.921 1.761-19.55 0-17.1-3.948-33.592-11.412-48.438zm-9.171-15.008c-3.312-4.542-6.995-8.863-11.046-12.914-3.708-3.708-7.642-7.11-11.764-10.2-1.248-21.283-3.786-41.948-7.552-61.566 19.859 5.04 38.255 11.458 54.632 19.159 38.611 18.155 61.482 41.185 65.394 65.521zm22.156-156.931c32.365 32.364 53.998 72.592 63.151 116.371-12.625-14.359-31.025-27.432-54.652-38.542-19.171-9.015-40.935-16.347-64.477-21.852-5.505-23.542-12.838-45.306-21.852-64.477-11.109-23.626-24.182-42.027-38.541-54.652 43.779 9.154 84.007 30.788 116.371 63.152zm-156.931-67.508c24.336 3.912 47.365 26.784 65.52 65.394 7.701 16.377 14.12 34.773 19.159 54.631-26.654-5.116-55.23-7.985-84.679-8.403zm0 126.633c30.951.45 60.849 3.672 88.384 9.423 3.683 17.635 6.317 36.247 7.86 55.478-14.959-7.608-31.606-11.637-48.875-11.637-16.692 0-32.802 3.769-47.369 10.89zm-80.528-61.239c18.155-38.61 41.185-61.482 65.52-65.394v111.623c-29.449.417-58.026 3.287-84.679 8.403 5.04-19.859 11.459-38.255 19.159-54.632zm-22.863 70.661c27.534-5.75 57.432-8.973 88.383-9.423v73.072c-4.936 3.507-9.615 7.452-13.983 11.82-4.073 4.073-7.747 8.395-11.031 12.914h-72.791c.449-30.95 3.671-60.848 9.422-88.383zm54.24 103.392c-15.091 30.128-15.22 65.894-.381 96.116-18.658-1.56-36.718-4.153-53.859-7.732-5.75-27.534-8.973-57.432-9.423-88.383h63.663zm-124.901-80.528c16.376-7.7 34.773-14.119 54.631-19.159-5.116 26.653-7.986 55.23-8.403 84.679h-111.623c3.913-24.336 26.784-47.365 65.395-65.52zm46.228 80.528c.417 29.449 3.287 58.026 8.403 84.679-19.859-5.04-38.255-11.458-54.631-19.159-38.61-18.155-61.482-41.185-65.394-65.52zm-44.115 156.931c-32.364-32.364-53.997-72.592-63.151-116.371 12.625 14.359 31.025 27.432 54.652 38.541 19.171 9.015 40.935 16.347 64.477 21.852 5.505 23.542 12.838 45.306 21.852 64.477 11.109 23.626 24.182 42.027 38.541 54.652-43.779-9.153-84.008-30.787-116.371-63.151zm156.931 67.508c-24.336-3.912-47.365-26.784-65.52-65.394-7.7-16.376-14.119-34.773-19.159-54.631 19.027 3.652 39.037 6.152 59.642 7.439 3.291 4.53 6.972 8.863 11.054 12.945 4.368 4.368 9.047 8.313 13.983 11.82zm-3.371-110.253c-36.253-36.253-36.253-95.242 0-131.495 17.562-17.562 40.911-27.234 65.748-27.234s48.186 9.672 65.747 27.234h.001c17.561 17.562 27.233 40.912 27.233 65.748s-9.672 48.186-27.234 65.748c-17.561 17.562-40.911 27.234-65.747 27.234s-48.186-9.673-65.748-27.235zm18.379 110.253v-78.901c14.567 7.122 30.677 10.89 47.369 10.89 6.852 0 13.605-.641 20.196-1.881-.671 1.516-1.349 3.02-2.044 4.498-18.156 38.61-41.185 61.481-65.521 65.394zm127.64-51.475 5.077 5.077c-27.37 20.769-58.723 35.051-92.156 42.042 14.359-12.625 27.432-31.025 38.541-54.652 2.434-5.176 4.732-10.558 6.916-16.097 11.701-4.477 22.586-11.014 32.218-19.416l20.919 20.919-11.515 11.515c-2.93 2.93-2.93 7.682 0 10.612zm1.208-53.659c8.576-9.834 15.208-20.976 19.691-32.956 5.826-2.279 11.464-4.695 16.892-7.247 23.626-11.109 42.027-24.182 54.652-38.541-7.094 33.928-21.693 65.717-42.965 93.372l-5.222-5.222c-2.931-2.93-7.682-2.93-10.613 0l-11.515 11.515z"/><path d="m357.526 357.135c29.175-29.664 29.001-78.282-.465-107.745-29.836-29.834-78.378-29.834-108.213 0-7.565 7.565-13.538 16.679-17.37 26.674-10.737 28.002-4.075 60.095 17.37 81.54 29.968 29.969 78.571 30.143 108.678-.469zm-116.078-54.382c.177-15.041 5.918-29.614 16.067-40.716 12.202-13.347 28.819-20.021 45.437-20.021 53.595-.001 81.367 67.107 43.495 104.976-23.982 23.983-63.006 23.983-86.988 0-11.792-11.793-18.207-27.532-18.011-44.239z"/></g></g></svg>