<svg id="Layer_1" enable-background="new 0 0 74 74" height="512" viewBox="0 0 74 74" width="512" xmlns="http://www.w3.org/2000/svg"><g><path d="m62.08 4.76h-41.49c-1.51 0-2.73 1.17-2.86 2.64h-1.53c-1.59 0-2.88 1.3-2.88 2.89v43.13h-2.76c-.86 0-1.55.7-1.55 1.55v8.43c0 .85.7 1.55 1.55 1.55h2.76v1.41c0 1.59 1.29 2.88 2.88 2.88h41.5c1.51 0 2.73-1.17 2.86-2.64h1.52c1.59 0 2.89-1.29 2.89-2.88v-56.08c0-1.59-1.29-2.88-2.89-2.88zm-52.05 58.63v-8.43c0-.3.25-.55.55-.55h3.24.01s.01 0 .01 0h18.61c.3 0 .55.25.55.55v8.43c0 .3-.25.55-.55.55h-21.87c-.31.01-.55-.24-.55-.55zm47.67 4.85h-41.49c-1.04 0-1.88-.84-1.88-1.88v-1.41h18.13c.86 0 1.55-.7 1.55-1.55v-8.43c0-.85-.7-1.55-1.55-1.55h-18.13v-43.13c0-1.04.84-1.89 1.88-1.89h41.49c1.04 0 1.88.85 1.88 1.89v55.81s0 0 0 0v.26c0 1.04-.84 1.88-1.88 1.88zm6.27-4.52c0 1.04-.85 1.88-1.89 1.88h-1.5v-55.31c0-1.59-1.29-2.89-2.88-2.89h-38.96c.12-.92.9-1.64 1.86-1.64h41.49c1.04 0 1.89.84 1.89 1.88v56.08z"/><path d="m40.54 31.1c-.83 0-1.5.67-1.5 1.5v8.94c0 .83.67 1.5 1.5 1.5h12.02c.83 0 1.5-.67 1.5-1.5v-8.94c0-.83-.67-1.5-1.5-1.5zm12.52 1.5v8.94c0 .28-.22.5-.5.5h-12.02c-.28 0-.5-.22-.5-.5v-8.94c0-.28.22-.5.5-.5h12.02c.27 0 .5.22.5.5z"/><path d="m35.39 37.64h-17.37c-.28 0-.5.22-.5.5s.22.5.5.5h17.37c.28 0 .5-.22.5-.5s-.22-.5-.5-.5z"/><path d="m35.39 41.98h-17.37c-.28 0-.5.22-.5.5s.22.5.5.5h17.37c.28 0 .5-.22.5-.5s-.22-.5-.5-.5z"/><path d="m35.39 46.32h-17.37c-.28 0-.5.22-.5.5s.22.5.5.5h17.37c.28 0 .5-.22.5-.5 0-.27-.22-.5-.5-.5z"/><path d="m35.39 33.29h-17.37c-.28 0-.5.22-.5.5s.22.5.5.5h17.37c.28 0 .5-.22.5-.5s-.22-.5-.5-.5z"/><path d="m16.61 58.95c.18-.27.27-.56.27-.87 0-.49-.18-.88-.54-1.18-.36-.29-.9-.44-1.6-.44h-1.76c-.12 0-.22.04-.3.13s-.12.19-.12.3v4.65c0 .11.04.21.12.3.16.16.44.16.6 0 .08-.08.13-.18.13-.3v-1.68h1.49c.33 0 .57.08.73.23.16.16.26.34.3.54.04.21.07.44.07.69v.23c0 .12.04.22.11.3.08.08.18.12.31.12.12 0 .22-.04.3-.12s.12-.18.12-.3v-.35c0-.35-.07-.71-.21-1.07-.11-.31-.32-.53-.6-.66.24-.15.43-.31.58-.52zm-.93-.16c-.24.16-.58.24-.99.24h-1.3v-1.76h1.26c.51 0 .87.08 1.08.23.2.15.3.35.3.63 0 .29-.12.5-.35.66z"/><path d="m20.67 56.77c-.04-.1-.11-.19-.2-.25-.08-.07-.19-.1-.32-.1h-.08c-.13 0-.23.03-.32.1-.08.06-.15.15-.2.25l-1.93 4.57c-.03.07-.04.13-.04.18 0 .11.04.21.11.3h.01c.08.08.18.12.3.12.08 0 .16-.03.23-.07s.13-.11.16-.19l.47-1.14h2.48l.47 1.14c.04.08.09.15.16.19s.15.07.24.07c.12 0 .22-.04.3-.12s.11-.18.11-.3c0-.06-.01-.11-.04-.18zm-1.46 2.99.9-2.18.9 2.18z"/><path d="m30.08 56.42c-.1 0-.19.03-.27.09-.07.06-.13.14-.15.24l-1.2 3.94-1.21-3.93c-.03-.1-.09-.19-.18-.25-.17-.12-.41-.12-.58 0-.09.06-.15.15-.18.25l-1.21 3.93-1.2-3.94c-.03-.09-.08-.17-.15-.23-.08-.06-.16-.09-.27-.09-.12 0-.22.04-.3.11-.08.08-.11.18-.11.3 0 .04.01.08.03.15l1.49 4.57c.05.13.11.22.21.29.18.13.44.14.64-.01.09-.08.16-.17.2-.29l1.14-3.63 1.14 3.63c.04.12.1.21.2.29.09.07.2.11.32.11.11 0 .22-.03.32-.1.09-.07.16-.16.21-.3l1.49-4.57c.02-.06.03-.11.03-.15.01-.11-.03-.21-.11-.3-.08-.07-.18-.11-.3-.11z"/><path d="m46.83 46.86c-.1-.01-.18-.01-.26-.01-3.06 0-5.95 1.62-7.55 4.24-.84 1.38-1.28 2.97-1.28 4.6 0 1.49.37 2.96 1.07 4.23 1.52 2.77 4.41 4.53 7.56 4.6h.2c3.1 0 5.92-1.58 7.54-4.24.85-1.39 1.29-2.97 1.29-4.59 0-1.48-.37-2.94-1.08-4.24-1.51-2.76-4.4-4.52-7.49-4.59zm6.21 4.44h-7.85l1.96-3.4c2.38.17 4.55 1.43 5.89 3.4zm-4.51 7.78h-3.91l-1.95-3.39 1.95-3.39h3.91l1.95 3.39zm-2.53-11.19-3.92 6.8-1.97-3.41c1.35-1.96 3.53-3.21 5.89-3.39zm-7.26 7.8c0-1.19.28-2.35.79-3.41l3.92 6.8h-3.94c-.49-1.04-.77-2.2-.77-3.39zm1.36 4.39h7.85l-1.97 3.41c-2.37-.18-4.54-1.45-5.88-3.41zm7.04 3.4 3.92-6.8 1.97 3.41c-1.36 1.99-3.5 3.22-5.89 3.39zm6.46-4.38-2.11-3.66-1.81-3.14h3.94c.51 1.06.79 2.2.79 3.39-.01 1.18-.29 2.34-.81 3.41z"/><path d="m39.87 25.5h2.15c.46 0 .83-.37.83-.83v-4.55c0-.46-.37-.83-.83-.83h-2.15c-.46 0-.83.37-.83.83v4.55c0 .46.37.83.83.83zm.17-5.2h1.81v4.2h-1.81z"/><path d="m35.45 25.5h2.15c.46 0 .83-.37.83-.83v-2.27c0-.46-.37-.83-.83-.83h-2.15c-.46 0-.83.37-.83.83v2.27c.01.46.38.83.83.83zm.18-2.93h1.81v1.93h-1.81z"/><path d="m44.29 25.5h2.15c.46 0 .83-.37.83-.83v-6.34c0-.46-.37-.83-.83-.83h-2.15c-.46 0-.83.37-.83.83v6.34c0 .46.37.83.83.83zm.17-6.99h1.81v5.99h-1.81z"/><path d="m48.7 25.5h2.15c.46 0 .83-.37.83-.83v-9.75c0-.46-.37-.83-.83-.83h-2.15c-.46 0-.83.37-.83.83v9.75c.01.46.38.83.83.83zm.18-10.4h1.81v9.41h-1.81z"/><path d="m33.1 27.66h19.93c.28 0 .5-.22.5-.5s-.22-.5-.5-.5h-19.43v-14.27c0-.28-.22-.5-.5-.5s-.5.22-.5.5v14.77c0 .28.22.5.5.5z"/></g></svg>