<svg id="Capa_1" enable-background="new 0 0 512 512" height="512" viewBox="0 0 512 512" width="512" xmlns="http://www.w3.org/2000/svg"><g><g><path d="m44.186 431.797h183.045c4.142 0 7.499-3.358 7.499-7.499 0-4.142-3.357-7.499-7.499-7.499h-183.045c-4.142 0-7.499 3.358-7.499 7.499s3.357 7.499 7.499 7.499z"/><path d="m44.186 333.706h183.045c4.142 0 7.499-3.358 7.499-7.499s-3.357-7.499-7.499-7.499h-183.045c-4.142 0-7.499 3.358-7.499 7.499s3.357 7.499 7.499 7.499z"/><path d="m165.506 351.405c-4.142 0-7.499 3.358-7.499 7.499s3.357 7.499 7.499 7.499h67.225c4.142 0 7.499-3.358 7.499-7.499s-3.357-7.499-7.499-7.499z"/><path d="m44.186 366.403h88.186c4.142 0 7.499-3.358 7.499-7.499s-3.357-7.499-7.499-7.499h-88.186c-4.142 0-7.499 3.358-7.499 7.499s3.357 7.499 7.499 7.499z"/><path d="m44.186 399.1h183.045c4.142 0 7.499-3.358 7.499-7.499s-3.357-7.499-7.499-7.499h-183.045c-4.142 0-7.499 3.358-7.499 7.499s3.357 7.499 7.499 7.499z"/><path d="m467.812 318.707h-188.545c-4.142 0-7.499 3.358-7.499 7.499s3.357 7.499 7.499 7.499h188.546c4.142 0 7.499-3.358 7.499-7.499s-3.358-7.499-7.5-7.499z"/><path d="m467.812 351.405h-188.545c-4.142 0-7.499 3.358-7.499 7.499s3.357 7.499 7.499 7.499h188.546c4.142 0 7.499-3.358 7.499-7.499s-3.358-7.499-7.5-7.499z"/><path d="m467.812 384.101h-188.545c-4.142 0-7.499 3.358-7.499 7.499s3.357 7.499 7.499 7.499h188.546c4.142 0 7.499-3.358 7.499-7.499s-3.358-7.499-7.5-7.499z"/><path d="m467.812 416.799h-117.431c-4.142 0-7.499 3.358-7.499 7.499 0 4.142 3.357 7.499 7.499 7.499h117.431c4.142 0 7.499-3.358 7.499-7.499.001-4.142-3.357-7.499-7.499-7.499z"/><path d="m279.267 416.799c-4.142 0-7.499 3.358-7.499 7.499 0 4.142 3.357 7.499 7.499 7.499h37.707c4.142 0 7.499-3.358 7.499-7.499 0-4.142-3.357-7.499-7.499-7.499z"/><path d="m185.223 182.673-8.92 44.817-14.075-45.688c-1.219-3.959-5.416-6.178-9.375-4.959-2.718.837-4.615 3.078-5.144 5.682l-13.919 44.97-8.89-44.941c-.804-4.062-4.748-6.703-8.812-5.901-4.063.804-6.705 4.749-5.902 8.812 0 0 13.663 68.931 13.785 69.276 1.285 3.611 4.711 6.025 8.539 6.025h.063c3.853-.027 7.276-2.495 8.518-6.143.022-.066 13.972-45.131 13.972-45.131s13.91 45.145 13.946 45.245c1.283 3.613 4.709 6.03 8.539 6.03h.063c3.855-.027 7.278-2.497 8.518-6.148.105-.31 13.802-69.018 13.802-69.018.809-4.062-1.829-8.01-5.891-8.819-4.061-.807-8.009 1.829-8.817 5.891z"/><path d="m286.16 182.673-8.92 44.816-14.074-45.687c-1.22-3.959-5.418-6.178-9.375-4.959-2.717.837-4.615 3.077-5.144 5.68l-13.92 44.971-8.889-44.94c-.805-4.062-4.746-6.703-8.812-5.901-4.063.804-6.705 4.749-5.902 8.812 0 0 13.662 68.928 13.784 69.272 1.283 3.613 4.709 6.03 8.539 6.03h.063c3.855-.027 7.278-2.497 8.518-6.148.021-.064 13.972-45.127 13.972-45.127s13.91 45.146 13.946 45.245c1.283 3.613 4.709 6.03 8.539 6.03h.061c3.854-.025 7.278-2.494 8.52-6.143.105-.311 13.802-69.023 13.802-69.023.808-4.062-1.829-8.01-5.891-8.819-4.06-.807-8.008 1.829-8.817 5.891z"/><path d="m395.917 176.782c-4.064-.807-8.01 1.829-8.818 5.891l-8.92 44.818-14.075-45.689c-1.219-3.958-5.411-6.178-9.375-4.959-2.718.837-4.615 3.078-5.144 5.682l-13.918 44.969-8.89-44.94c-.804-4.062-4.745-6.703-8.812-5.901-4.063.804-6.705 4.749-5.902 8.812 0 0 13.663 68.928 13.785 69.272 1.283 3.613 4.709 6.03 8.539 6.03h.061c3.854-.025 7.278-2.494 8.52-6.143.022-.066 13.972-45.131 13.972-45.131s13.911 45.148 13.947 45.249c1.285 3.611 4.711 6.025 8.539 6.025h.063c3.853-.027 7.276-2.495 8.518-6.143.105-.311 13.802-69.023 13.802-69.023.808-4.062-1.83-8.011-5.892-8.819z"/><path d="m475.312 151.996c0-4.142-3.357-7.499-7.499-7.499h-423.627c-4.142 0-7.499 3.358-7.499 7.499v133.285c0 4.142 3.357 7.499 7.499 7.499h346.104c4.142 0 7.499-3.358 7.499-7.499 0-4.142-3.357-7.499-7.499-7.499h-338.605v-118.287h408.628v118.287h-36.136c-4.142 0-7.499 3.358-7.499 7.499 0 4.142 3.357 7.499 7.499 7.499h43.635c4.142 0 7.499-3.358 7.499-7.499v-133.285z"/><path d="m486.75 29.27h-461.498c-13.923 0-25.25 11.327-25.25 25.251l-.002 402.958c0 13.923 11.327 25.251 25.25 25.251h22.947c4.142 0 7.499-3.358 7.499-7.499s-3.357-7.499-7.499-7.499h-22.947c-5.653 0-10.252-4.599-10.252-10.252v-348.917h482.002v348.916c0 5.653-4.599 10.252-10.252 10.252h-403.63c-4.142 0-7.499 3.358-7.499 7.499s3.357 7.499 7.499 7.499h403.63c13.923 0 25.25-11.327 25.25-25.251l.002-402.957c0-13.923-11.327-25.251-25.25-25.251zm10.252 64.294h-482.002v-39.043c0-5.653 4.599-10.252 10.252-10.252h461.498c5.653 0 10.252 4.599 10.252 10.252z"/><path d="m62.833 58.88c-5.543 0-10.037 4.494-10.037 10.037s4.494 10.037 10.037 10.037 10.037-4.494 10.037-10.037-4.493-10.037-10.037-10.037z"/><ellipse cx="101.225" cy="68.917" rx="10.037" ry="10.037" transform="matrix(.957 -.29 .29 .957 -15.628 32.291)"/><path d="m139.617 58.88c-5.543 0-10.037 4.494-10.037 10.037s4.494 10.037 10.037 10.037 10.037-4.494 10.037-10.037-4.493-10.037-10.037-10.037z"/></g></g></svg>