<svg id="positive-imac" enable-background="new 0 0 300 300" height="512" viewBox="0 0 300 300" width="512" xmlns="http://www.w3.org/2000/svg"><g><path d="m206 61.891c6.617 0 12-5.383 12-12s-5.383-12-12-12-12 5.383-12 12 5.383 12 12 12zm0-16c2.205 0 4 1.795 4 4s-1.795 4-4 4-4-1.795-4-4 1.795-4 4-4z"/><path d="m118.397 56.26c2.362 0 4.276-1.915 4.276-4.276s-1.915-4.276-4.276-4.276-4.277 1.915-4.277 4.276 1.915 4.276 4.277 4.276z"/><path d="m49.375 52.938c.781.781 1.805 1.172 2.828 1.172s2.047-.391 2.828-1.172l3.172-3.172 3.172 3.172c.781.781 1.805 1.172 2.828 1.172s2.047-.391 2.828-1.172c1.562-1.562 1.562-4.094 0-5.656l-3.172-3.172 3.172-3.172c1.562-1.562 1.562-4.094 0-5.656s-4.094-1.562-5.656 0l-3.172 3.172-3.172-3.172c-1.562-1.562-4.094-1.562-5.656 0s-1.562 4.094 0 5.656l3.172 3.172-3.172 3.172c-1.563 1.562-1.563 4.093 0 5.656z"/><path d="m159.215 189.891h77.57c7.287 0 13.215-5.928 13.215-13.215v-73.57c0-7.287-5.928-13.215-13.215-13.215h-77.57c-7.287 0-13.215 5.928-13.215 13.215v73.57c0 7.287 5.928 13.215 13.215 13.215zm-5.215-86.786c0-2.875 2.34-5.215 5.215-5.215h77.57c2.875 0 5.215 2.34 5.215 5.215v73.57c0 2.875-2.34 5.215-5.215 5.215h-77.57c-2.875 0-5.215-2.34-5.215-5.215z"/><path d="m259.67 73.891h-219.34c-3.49 0-6.33 2.84-6.33 6.33v147.34c0 3.49 2.84 6.33 6.33 6.33h77.67v24h-8c-2.209 0-4 1.791-4 4s1.791 4 4 4h80c2.209 0 4-1.791 4-4s-1.791-4-4-4h-8v-24h77.67c3.49 0 6.33-2.84 6.33-6.33v-147.34c0-3.491-2.84-6.33-6.33-6.33zm-1.67 8v116h-216v-116zm-84 176h-48v-24h48zm-132-32v-20h216v20z"/><path d="m59.144 153.78c6.599 7.41 16.178 12.111 26.856 12.111 10.68 0 20.26-4.702 26.859-12.113.02-.025.044-.044.063-.069 5.629-6.355 9.078-14.682 9.078-23.818 0-19.85-16.15-36-36-36s-36 16.15-36 36c0 9.135 3.448 17.461 9.076 23.815.02.027.046.047.068.074zm7.434-3.765c.95-3.833 3.264-7.154 6.5-9.362 3.489 3.26 7.997 5.238 12.922 5.238 4.926 0 9.434-1.979 12.923-5.239 3.237 2.209 5.55 5.532 6.5 9.363-5.04 4.865-11.881 7.876-19.423 7.876s-14.383-3.011-19.422-7.876zm19.422-12.124c-6.617 0-12-6.281-12-14s5.383-14 12-14 12 6.281 12 14-5.383 14-12 14zm0-36c15.439 0 28 12.561 28 28 0 4.508-1.096 8.755-2.996 12.531-1.763-3.259-4.282-6.06-7.354-8.207 1.496-3.081 2.35-6.594 2.35-10.324 0-12.131-8.973-22-20-22s-20 9.869-20 22c0 3.731.854 7.244 2.351 10.326-3.071 2.147-5.591 4.947-7.354 8.207-1.901-3.776-2.997-8.025-2.997-12.533 0-15.44 12.561-28 28-28z"/><path d="m106 169.891h-40c-2.209 0-4 1.791-4 4s1.791 4 4 4h40c2.209 0 4-1.791 4-4s-1.791-4-4-4z"/><path d="m98 181.891h-24c-2.209 0-4 1.791-4 4s1.791 4 4 4h24c2.209 0 4-1.791 4-4s-1.791-4-4-4z"/><path d="m192.629 177.486c.764.838 1.84 1.307 2.959 1.307.152 0 .305-.008.459-.027 1.279-.146 2.408-.9 3.035-2.025l38.412-68.902c.689-1.238.674-2.75-.045-3.973s-2.031-1.975-3.449-1.975h-19.092c-1.49 0-2.857.828-3.547 2.148l-19.889 38.104-6.555-6.988c-.758-.807-1.812-1.264-2.918-1.264h-20c-1.584 0-3.018.934-3.658 2.383s-.365 3.139.699 4.311zm-12.361-35.595 9.227 9.834c.887.947 2.17 1.41 3.461 1.227 1.285-.176 2.404-.963 3.004-2.111l21.373-40.949h9.859l-32.389 58.098-23.754-26.098h9.219z"/></g></svg>