<svg id="Layer_1" enable-background="new 0 0 74 74" height="512" viewBox="0 0 74 74" width="512" xmlns="http://www.w3.org/2000/svg"><g><path d="m59.07 41.6c-.28 0-.5.22-.5.5v21.36c0 1.04-.84 1.88-1.88 1.88h-1.5v-27.62c0-.28-.22-.5-.5-.5s-.5.22-.5.5v28.88c0 1.05-.85 1.9-1.9 1.9h-41.85c-1.05 0-1.9-.85-1.9-1.9v-45.47h10.08c1.6 0 2.9-1.3 2.9-2.9v-10.09h14.92c.28 0 .5-.22.5-.5s-.22-.5-.5-.5h-15.42c-.13 0-.26.05-.35.15l-7.35 7.35v-7.26c0-1.04.84-1.88 1.88-1.88h41.49c1.04 0 1.88.84 1.88 1.88v20.6c0 .28.22.5.5.5s.5-.22.5-.5v-20.6c0-1.59-1.29-2.88-2.88-2.88h-41.49c-1.59 0-2.88 1.29-2.88 2.88v8.26l-4.62 4.63c-.1.09-.16.22-.16.36v.01 45.96c0 1.6 1.3 2.9 2.9 2.9h41.85c1.6 0 2.9-1.3 2.9-2.9v-.26h1.5c1.59 0 2.88-1.29 2.88-2.88v-21.36c0-.28-.22-.5-.5-.5zm-40.45-21.47h-9.37l3.91-3.92c.01-.01.01-.01.02-.02l7.34-7.35v9.38c0 1.05-.85 1.91-1.9 1.91z"/><path d="m38.54 38.41h13.12c.28 0 .5-.22.5-.5s-.22-.5-.5-.5h-13.12c-.28 0-.5.22-.5.5s.23.5.5.5z"/><path d="m38.54 42.75h13.12c.28 0 .5-.22.5-.5s-.22-.5-.5-.5h-13.12c-.28 0-.5.22-.5.5s.23.5.5.5z"/><path d="m38.54 47.09h13.12c.28 0 .5-.22.5-.5s-.22-.5-.5-.5h-13.12c-.28 0-.5.22-.5.5s.23.5.5.5z"/><path d="m41.04 17.25h-2.15c-.46 0-.83.37-.83.83v6.34c0 .46.37.83.83.83h2.15c.46 0 .83-.37.83-.83v-6.34c0-.46-.37-.83-.83-.83zm-.17 6.99h-1.81v-5.99h1.81z"/><path d="m45.46 13.84h-2.15c-.46 0-.83.37-.83.83v9.75c0 .46.37.83.83.83h2.15c.46 0 .83-.37.83-.83v-9.75c0-.46-.37-.83-.83-.83zm-.17 10.4h-1.81v-9.41h1.81z"/><path d="m13.05 65.9h19.28c.83 0 1.5-.67 1.5-1.5v-12.44c0-.83-.67-1.5-1.5-1.5h-19.28c-.83 0-1.5.67-1.5 1.5v12.44c-.01.83.67 1.5 1.5 1.5zm-.51-13.94c0-.28.23-.5.5-.5h19.28c.28 0 .5.23.5.5v12.44c0 .28-.23.5-.5.5h-19.27c-.28 0-.5-.23-.5-.5v-12.44z"/><path d="m14.29 63.87h1.5c.43 0 .78-.35.78-.78v-2.94c0-.43-.35-.78-.78-.78h-1.5c-.43 0-.78.35-.78.78v2.94c0 .43.35.78.78.78zm.22-3.5h1.06v2.5h-1.06z"/><path d="m18.11 63.87h1.5c.43 0 .78-.35.78-.78v-5.94c0-.43-.35-.78-.78-.78h-1.5c-.43 0-.78.35-.78.78v5.94c0 .43.35.78.78.78zm.22-6.5h1.06v5.5h-1.06z"/><path d="m21.94 63.87h1.5c.43 0 .78-.35.78-.78v-8.3c0-.43-.35-.78-.78-.78h-1.5c-.43 0-.78.35-.78.78v8.3c0 .43.35.78.78.78zm.22-8.86h1.06v7.86h-1.06z"/><path d="m25.76 63.87h1.5c.43 0 .78-.35.78-.78v-4.83c0-.43-.35-.78-.78-.78h-1.5c-.43 0-.78.35-.78.78v4.83c0 .43.35.78.78.78zm.22-5.39h1.06v4.39h-1.06z"/><path d="m29.59 63.87h1.5c.43 0 .78-.35.78-.78v-7.03c0-.43-.35-.78-.78-.78h-1.5c-.43 0-.78.35-.78.78v7.03c0 .43.35.78.78.78zm.22-7.59h1.06v6.59h-1.06z"/><path d="m66.01 37.04-8.65-8.65c-.6-.6-1.58-.6-2.19 0l-.03.03-1.04-1.04c1.57-2.12 2.51-4.73 2.51-7.56 0-7.04-5.72-12.76-12.75-12.76-7.04 0-12.76 5.72-12.76 12.76 0 .5.04 1 .09 1.49h-1.14c-.45 0-.82.37-.82.83v2.28c0 .45.37.82.82.82h2.16c.04 0 .07-.01.1-.02.37.79.82 1.53 1.34 2.22l-6.5-.03v-15.28c0-.28-.22-.5-.5-.5s-.5.22-.5.5v15.29c0 .57.46 1.03 1.03 1.03h7.31c2.33 2.53 5.66 4.12 9.37 4.12 2.83 0 5.44-.94 7.56-2.5l1.04 1.04-.03.03c-.29.29-.45.68-.45 1.09s.16.8.45 1.09l8.65 8.65c.3.3.7.45 1.09.45.4 0 .79-.15 1.09-.45l2.75-2.75c.6-.6.6-1.58 0-2.18zm-11.49-3.04 3.52-3.52 5.88 5.88-3.52 3.52zm-24.29-9.76v-1.93h1.11c.13.67.33 1.31.56 1.93zm1.87-4.42c0-6.48 5.28-11.76 11.76-11.76s11.75 5.28 11.75 11.76-5.27 11.75-11.75 11.75c-6.49 0-11.76-5.27-11.76-11.75zm20.1 9.62c.45-.39.88-.82 1.27-1.27l.96.96-1.28 1.28zm.77 2.79c0-.15.06-.28.16-.39l2.35-2.35c.01-.01.02-.01.02-.02.01-.01.01-.02.02-.02l.36-.36c.11-.11.25-.16.39-.16s.28.05.39.16l.68.68-3.52 3.52-.68-.68c-.11-.09-.17-.23-.17-.38zm12.33 6.29-2.75 2.75c-.21.21-.56.21-.77 0l-.68-.68 3.52-3.52.68.68c.21.21.21.56 0 .77z"/><path d="m43.86 10.08c-5.37 0-9.74 4.37-9.74 9.74s4.37 9.74 9.74 9.74 9.74-4.37 9.74-9.74c-.01-5.37-4.38-9.74-9.74-9.74zm-7.41 14.16h-.13c-.73-1.24-1.16-2.67-1.2-4.2h1.33zm7.41 4.32c-2.81 0-5.31-1.34-6.91-3.4.29-.12.5-.4.5-.74v-4.55c0-.46-.37-.83-.83-.83h-1.47c.4-4.46 4.15-7.96 8.7-7.96 4.82 0 8.74 3.92 8.74 8.74s-3.92 8.74-8.73 8.74z"/><path d="m45.1 65.62c4.1 0 7.44-3.34 7.44-7.44s-3.34-7.44-7.44-7.44-7.44 3.34-7.44 7.44 3.34 7.44 7.44 7.44zm0-13.88c3.55 0 6.44 2.89 6.44 6.44s-2.89 6.44-6.44 6.44-6.44-2.89-6.44-6.44 2.89-6.44 6.44-6.44z"/><path d="m45.1 63.68c3.03 0 5.5-2.47 5.5-5.5s-2.47-5.5-5.5-5.5-5.5 2.47-5.5 5.5 2.47 5.5 5.5 5.5zm0-10c2.48 0 4.5 2.02 4.5 4.5s-2.02 4.5-4.5 4.5-4.5-2.02-4.5-4.5 2.02-4.5 4.5-4.5z"/><path d="m43.76 59.7c-.15-.07-.31-.04-.42.07-.07.07-.09.15-.09.25 0 .07.02.15.07.21.04.06.1.11.17.14.42.18.86.28 1.34.32v.42c0 .08.02.15.08.2.05.04.12.07.2.07s.15-.03.2-.08.08-.12.08-.2v-.42c.29-.03.56-.09.78-.2.26-.12.45-.29.58-.5.14-.2.2-.44.2-.69 0-.31-.07-.56-.23-.76-.15-.18-.34-.33-.57-.42-.2-.09-.47-.17-.77-.24v-1.49c.31.01.61.07.89.18.06.02.1.03.14.03.1 0 .19-.04.26-.12.06-.07.09-.15.09-.24 0-.17-.08-.29-.23-.34-.34-.12-.72-.2-1.14-.23v-.4c0-.08-.03-.15-.09-.2-.11-.11-.29-.11-.4 0-.05.05-.07.12-.07.2v.42c-.31.03-.57.11-.8.24-.24.14-.42.31-.54.53-.12.2-.19.44-.19.69 0 .28.08.53.23.72.15.18.33.32.56.42.2.09.45.18.74.26v1.43c-.38-.04-.73-.13-1.07-.27zm1.63-1.04c.26.08.47.16.61.25.14.08.2.2.2.35 0 .41-.26.64-.81.69zm-1.12-1.18c-.14-.1-.2-.23-.2-.4 0-.19.07-.34.22-.45.14-.11.32-.18.54-.22v1.32c-.25-.07-.44-.15-.56-.25z"/><path d="m23.05 31.72c-2.28 0-4.32 1.02-5.7 2.62h-1.54l-1.5-1.5c-.2-.2-.51-.2-.71 0s-.2.51 0 .71l1.57 1.57c.14.14.34.22.54.22h.91c-.7 1.14-1.11 2.48-1.11 3.92 0 4.16 3.38 7.54 7.54 7.54.63 0 1.24-.09 1.83-.23l.85 1c.13.13.3.2.48.2h3.45c.28 0 .5-.22.5-.5s-.22-.5-.5-.5h-3.3l-.45-.53c2.74-1.13 4.68-3.83 4.68-6.97 0-4.17-3.39-7.55-7.54-7.55zm0 10.86c-1.83 0-3.32-1.49-3.32-3.32s1.48-3.31 3.31-3.32h.01s.01 0 .01 0c1.83.01 3.31 1.49 3.31 3.32s-1.49 3.32-3.32 3.32zm-2.34-7.24c.28 0 .5-.22.5-.5s-.22-.5-.5-.5h-1.95c1.03-.9 2.35-1.49 3.8-1.6v2.24c-1.34.16-2.49.91-3.17 2.01l-1.86-1.21c.1-.15.2-.3.31-.44zm-4.2 3.92c0-.92.19-1.79.54-2.59l1.91 1.24c-.14.43-.24.87-.24 1.35 0 1.04.39 1.99 1.01 2.74l-1.58 1.58c-1.01-1.16-1.64-2.67-1.64-4.32zm7.94 5.25c-.18-.21-.49-.23-.7-.06-.21.18-.24.49-.06.71l.45.53c-.36.06-.72.1-1.09.1-1.59 0-3.05-.57-4.18-1.52l1.58-1.58c.73.55 1.62.89 2.6.89.78 0 1.49-.22 2.12-.58l1.6 1.62c-.48.33-1 .6-1.56.79zm3.1-.53-1.56-1.58c.84-.79 1.38-1.9 1.38-3.15 0-2.21-1.68-4.02-3.82-4.27v-2.24c3.37.26 6.04 3.08 6.04 6.51 0 1.87-.79 3.54-2.04 4.73z"/><path d="m24.03 39.19c-.19-.08-.44-.16-.72-.23v-1.39c.29.01.57.07.83.16.05.02.1.03.13.03.1 0 .18-.03.24-.11.05-.06.08-.14.08-.23 0-.16-.08-.27-.22-.32-.31-.12-.67-.19-1.07-.21v-.38c0-.08-.03-.14-.08-.18-.1-.1-.27-.1-.38 0-.05.05-.07.12-.07.18v.39c-.29.03-.53.1-.74.23-.23.13-.4.29-.51.49-.12.19-.18.41-.18.64 0 .27.08.49.22.67.14.17.31.3.52.4.18.08.42.16.69.24v1.34c-.35-.02-.68-.1-.99-.24-.14-.06-.29-.03-.39.07-.06.07-.09.14-.09.23 0 .07.02.14.06.2.04.05.1.1.16.13.39.16.81.27 1.25.3v.39c0 .08.02.14.08.19.05.04.11.07.18.07s.14-.03.19-.08.07-.11.07-.18v-.39c.27-.03.52-.09.73-.19.24-.12.42-.27.55-.46s.19-.41.19-.65c0-.29-.07-.53-.22-.71-.12-.17-.3-.31-.51-.4zm-1.25-.36c-.23-.06-.4-.14-.52-.23-.13-.09-.19-.21-.19-.38 0-.18.07-.31.2-.42.13-.1.3-.17.51-.2zm.53 2.08v-1.21c.25.08.44.15.57.23s.19.18.19.33c0 .39-.25.6-.76.65z"/><path d="m36.45 48.06c0-.28-.22-.5-.5-.5h-5.01c-.28 0-.5.22-.5.5s.22.5.5.5h5.01c.27 0 .5-.22.5-.5z"/><path d="m35.95 45.79h-5.01c-.28 0-.5.22-.5.5s.22.5.5.5h5.01c.28 0 .5-.22.5-.5s-.23-.5-.5-.5z"/><path d="m10.32 32.28h5.8c.28 0 .5-.22.5-.5s-.22-.5-.5-.5h-5.8c-.28 0-.5.22-.5.5s.23.5.5.5z"/><path d="m10.32 30.46h5.8c.28 0 .5-.22.5-.5s-.22-.5-.5-.5h-5.8c-.28 0-.5.22-.5.5s.23.5.5.5z"/></g></svg>