<svg id="positive-magnify" enable-background="new 0 0 300 300" height="512" viewBox="0 0 300 300" width="512" xmlns="http://www.w3.org/2000/svg"><g><path d="m120.797 216.596c-6.617 0-12 5.383-12 12s5.383 12 12 12 12-5.383 12-12-5.383-12-12-12zm0 16c-2.205 0-4-1.795-4-4s1.795-4 4-4 4 1.795 4 4-1.795 4-4 4z"/><path d="m203.756 40.82c2.362 0 4.276-1.915 4.276-4.276s-1.915-4.277-4.276-4.277-4.276 1.915-4.276 4.277 1.915 4.276 4.276 4.276z"/><circle cx="224.797" cy="124.596" r="4"/><path d="m220.312 89.081c.781.781 1.805 1.172 2.828 1.172s2.047-.391 2.828-1.172l2.828-2.828 2.828 2.828c.781.781 1.805 1.172 2.828 1.172s2.047-.391 2.828-1.172c1.562-1.562 1.562-4.094 0-5.656l-2.828-2.828 2.828-2.828c1.562-1.562 1.562-4.094 0-5.656s-4.094-1.562-5.656 0l-2.828 2.828-2.828-2.828c-1.562-1.562-4.094-1.562-5.656 0s-1.562 4.094 0 5.656l2.828 2.828-2.828 2.828c-1.562 1.562-1.562 4.093 0 5.656z"/><path d="m258.619 236.762-38.082-38.082c-1.562-1.562-4.094-1.562-5.656 0l-1.172 1.172-26.187-26.187c24.282-32.855 21.647-79.49-8.098-109.235-32.75-32.754-86.043-32.754-118.793 0-32.752 32.752-32.752 86.041 0 118.793 16.375 16.377 37.887 24.564 59.396 24.564 17.56 0 35.072-5.552 49.839-16.466l26.187 26.187-1.172 1.172c-1.562 1.562-1.562 4.094 0 5.656l38.082 38.082c3.426 3.428 7.982 5.314 12.828 5.314s9.402-1.887 12.828-5.314c3.428-3.426 5.314-7.982 5.314-12.828s-1.886-9.402-5.314-12.828zm-192.332-59.195c-29.633-29.633-29.633-77.848 0-107.48 14.816-14.816 34.279-22.225 53.74-22.225s38.924 7.408 53.74 22.225c29.633 29.633 29.633 77.848 0 107.48s-77.847 29.633-107.48 0zm109.804 8.668c1.113-1.001 2.262-1.941 3.332-3.011 1.071-1.071 2.01-2.219 3.011-3.333l25.618 25.618-6.344 6.344zm76.872 70.527c-3.832 3.832-10.512 3.832-14.344 0l-.166-.166 5.172-5.172c1.562-1.562 1.562-4.094 0-5.656s-4.094-1.562-5.656 0l-5.172 5.172-2.344-2.344 5.172-5.172c1.562-1.562 1.562-4.094 0-5.656s-4.094-1.562-5.656 0l-5.172 5.172-2.344-2.344 5.172-5.172c1.562-1.562 1.562-4.094 0-5.656s-4.094-1.562-5.656 0l-5.172 5.172-2.344-2.344 5.172-5.172c1.562-1.562 1.562-4.094 0-5.656s-4.094-1.562-5.656 0l-5.172 5.172-5.432-5.432 14.344-14.344 35.254 35.254c1.916 1.916 2.971 4.463 2.971 7.172s-1.055 5.256-2.971 7.172z"/><path d="m168.109 75.745c-12.842-12.844-29.918-19.918-48.082-19.918s-35.24 7.074-48.082 19.918c-12.844 12.842-19.918 29.918-19.918 48.082s7.074 35.24 19.918 48.082c12.842 12.844 29.918 19.918 48.082 19.918s35.24-7.074 48.082-19.918c12.844-12.842 19.918-29.918 19.918-48.082s-7.074-35.241-19.918-48.082zm-5.656 90.507c-11.332 11.332-26.398 17.574-42.426 17.574s-31.094-6.242-42.426-17.574-17.574-26.398-17.574-42.426 6.242-31.094 17.574-42.426 26.399-17.573 42.426-17.573 31.094 6.242 42.426 17.574 17.574 26.398 17.574 42.426-6.242 31.093-17.574 42.425z"/><path d="m152.797 88.596h-19.092c-1.49 0-2.857.828-3.547 2.148l-19.889 38.104-6.555-6.988c-.758-.807-1.812-1.264-2.918-1.264h-20c-1.584 0-3.018.934-3.658 2.383s-.365 3.139.699 4.311l33.588 36.902c.764.838 1.84 1.307 2.959 1.307.152 0 .305-.008.459-.027 1.279-.146 2.408-.9 3.035-2.025l38.412-68.902c.689-1.238.674-2.75-.045-3.973s-2.03-1.976-3.448-1.976zm-39.198 66.098-23.754-26.098h9.219l9.227 9.834c.887.947 2.178 1.408 3.461 1.227 1.285-.176 2.404-.963 3.004-2.111l21.373-40.949h9.859z"/></g></svg>