<svg id="Capa_1" enable-background="new 0 0 512 512" height="512" viewBox="0 0 512 512" width="512" xmlns="http://www.w3.org/2000/svg"><g><g><path d="m340.776 93.522c4.043 0 7.942 1.19 11.273 3.44 3.429 2.317 8.089 1.417 10.407-2.014 2.318-3.43 1.416-8.09-2.013-10.408-5.819-3.932-12.62-6.01-19.666-6.01-19.39 0-35.165 15.775-35.165 35.164 0 19.39 15.775 35.165 35.165 35.165 8.9 0 17.414-3.631 23.171-10.486 2.662-3.17 2.25-7.898-.919-10.56-3.188-2.678-7.657-1.915-10.625.856-3.469 3.24-6.512 5.199-11.627 5.199-11.124 0-20.174-9.05-20.174-20.173-.001-11.123 9.05-20.173 20.173-20.173z"/><path d="m391.444 79.719c-7.858 2.367-13.418 8.569-14.511 16.186-1.028 7.161 2.077 14.049 8.103 17.978.331.216.678.405 1.039.566.321.143 7.959 3.543 16.559 6.715 1.786.659 7.562 3.103 6.887 6.89-.511 2.858-4.053 5.815-9.097 5.815-5.34 0-10.473-2.146-13.73-5.74-2.781-3.069-7.521-3.299-10.588-.521-3.068 2.78-3.301 7.52-.521 10.588 6.142 6.778 15.195 10.665 24.839 10.665 11.942 0 21.975-7.642 23.855-18.171 1.418-7.946-2.16-18.316-16.456-23.59-6.698-2.47-12.941-5.159-14.961-6.042-1.218-1.027-1.174-2.431-1.089-3.022.125-.867.763-2.988 3.996-3.962 7.471-2.251 14.458 3.226 14.697 3.415 3.168 2.626 7.867 2.207 10.519-.949 2.664-3.169 2.255-7.897-.915-10.561-.534-.449-13.216-10.901-28.626-6.26z"/><path d="m460.32 133.868c-5.34 0-10.472-2.146-13.729-5.74-2.781-3.069-7.522-3.299-10.588-.521-3.067 2.78-3.301 7.52-.521 10.588 6.142 6.778 15.195 10.665 24.838 10.665 11.942 0 21.975-7.642 23.855-18.172 1.419-7.946-2.159-18.316-16.456-23.589-6.698-2.47-12.94-5.159-14.96-6.042-1.218-1.027-1.174-2.431-1.089-3.022.125-.867.763-2.988 3.996-3.962 7.478-2.254 14.472 3.237 14.696 3.416 3.17 2.625 7.868 2.206 10.519-.95 2.664-3.169 2.254-7.897-.915-10.561-.533-.447-13.208-10.901-28.624-6.259-7.858 2.367-13.418 8.569-14.511 16.186-1.028 7.161 2.077 14.049 8.103 17.978.331.216.678.405 1.04.566.321.143 7.958 3.543 16.558 6.715 1.787.659 7.563 3.103 6.886 6.89-.511 2.858-4.053 5.814-9.098 5.814z"/><path d="m486.11 175.3h18.395c4.14 0 7.496-3.356 7.496-7.496v-108.218c0-4.14-3.355-7.496-7.496-7.496h-75.875c-4.14 0-7.496 3.356-7.496 7.496s3.355 7.496 7.496 7.496h68.379v93.228h-203.94v-93.229h100.643c4.14 0 7.496-3.356 7.496-7.496s-3.355-7.496-7.496-7.496h-108.138c-4.14 0-7.496 3.356-7.496 7.496v34.658h-218.102c-18.795 0-34.086 15.29-34.086 34.085v248.944c0 7.07 2.165 13.643 5.865 19.094h-11.882c-10.958.001-19.873 8.916-19.873 19.874 0 24.079 19.59 43.67 43.669 43.67h424.662c24.079 0 43.669-19.59 43.669-43.67 0-10.958-8.915-19.874-19.873-19.874h-11.882c3.7-5.451 5.865-12.024 5.865-19.094zm-200.536 0h153.601v180.861c0 2.571-2.092 4.663-4.663 4.663h-311.255v-67.204c0-4.14-3.355-7.496-7.496-7.496s-7.496 3.356-7.496 7.496v67.205h-30.777c-2.571 0-4.662-2.092-4.662-4.663v-206.723c0-2.571 2.092-4.663 4.662-4.663h30.777v114.61c0 4.14 3.355 7.496 7.496 7.496s7.496-3.356 7.496-7.496v-114.61h154.822v23.028c-.001 4.14 3.355 7.496 7.495 7.496zm-244.692-46.971c0-10.529 8.565-19.094 19.094-19.094h218.102v20.551h-200.59c-10.837 0-19.654 8.817-19.654 19.654v206.722c0 10.837 8.816 19.655 19.654 19.655h357.023c10.837 0 19.655-8.817 19.655-19.655v-180.862h16.952v201.972c0 10.529-8.565 19.094-19.094 19.094h-392.048c-10.529 0-19.094-8.565-19.094-19.094zm260.31 283.029v1.889c0 4.078-3.318 7.396-7.395 7.396h-75.592c-4.079 0-7.396-3.318-7.396-7.396v-1.889zm190.935 0c2.692 0 4.882 2.19 4.882 4.882 0 15.813-12.865 28.678-28.678 28.678h-424.662c-15.813 0-28.678-12.865-28.678-28.678 0-2.692 2.19-4.882 4.882-4.882h175.944v1.889c0 12.344 10.043 22.387 22.387 22.387h75.592c12.344 0 22.386-10.043 22.386-22.387v-1.889z"/><path d="m323.418 211.155h23.656c4.14 0 7.496-3.356 7.496-7.496s-3.355-7.496-7.496-7.496h-23.656c-4.14 0-7.496 3.356-7.496 7.496s3.356 7.496 7.496 7.496z"/><path d="m347.074 258.796h-23.656c-4.14 0-7.496 3.356-7.496 7.496s3.355 7.496 7.496 7.496h23.656c4.14 0 7.496-3.356 7.496-7.496s-3.356-7.496-7.496-7.496z"/><path d="m347.074 290.113h-23.656c-4.14 0-7.496 3.356-7.496 7.496s3.355 7.496 7.496 7.496h23.656c4.14 0 7.496-3.356 7.496-7.496s-3.356-7.496-7.496-7.496z"/><path d="m242.049 321.429h-23.656c-4.14 0-7.496 3.356-7.496 7.496s3.355 7.496 7.496 7.496h23.656c4.14 0 7.496-3.356 7.496-7.496s-3.356-7.496-7.496-7.496z"/><path d="m347.074 321.429h-70.231c-4.14 0-7.496 3.356-7.496 7.496s3.355 7.496 7.496 7.496h70.231c4.14 0 7.496-3.356 7.496-7.496s-3.356-7.496-7.496-7.496z"/><path d="m295.992 266.292c0-4.14-3.355-7.496-7.496-7.496h-23.656c-4.14 0-7.496 3.356-7.496 7.496s3.355 7.496 7.496 7.496h23.656c4.141 0 7.496-3.356 7.496-7.496z"/><path d="m243.48 266.292c0-4.14-3.355-7.496-7.496-7.496h-66.895c-4.14 0-7.496 3.356-7.496 7.496s3.355 7.496 7.496 7.496h66.895c4.141 0 7.496-3.356 7.496-7.496z"/><path d="m161.594 203.659c0 4.14 3.355 7.496 7.496 7.496h119.407c4.14 0 7.496-3.356 7.496-7.496s-3.355-7.496-7.496-7.496h-119.408c-4.14.001-7.495 3.357-7.495 7.496z"/><path d="m347.074 227.48h-177.985c-4.14 0-7.496 3.356-7.496 7.496s3.355 7.496 7.496 7.496h177.985c4.14 0 7.496-3.356 7.496-7.496s-3.356-7.496-7.496-7.496z"/><path d="m378.739 211.155h14.604c4.14 0 7.496-3.356 7.496-7.496s-3.355-7.496-7.496-7.496h-14.604c-4.14 0-7.496 3.356-7.496 7.496s3.356 7.496 7.496 7.496z"/><path d="m378.739 242.471h14.604c4.14 0 7.496-3.356 7.496-7.496s-3.355-7.496-7.496-7.496h-14.604c-4.14 0-7.496 3.356-7.496 7.496.001 4.14 3.356 7.496 7.496 7.496z"/><path d="m378.739 273.788h14.604c4.14 0 7.496-3.356 7.496-7.496s-3.355-7.496-7.496-7.496h-14.604c-4.14 0-7.496 3.356-7.496 7.496s3.356 7.496 7.496 7.496z"/><path d="m378.739 305.104h14.604c4.14 0 7.496-3.356 7.496-7.496s-3.355-7.496-7.496-7.496h-14.604c-4.14 0-7.496 3.356-7.496 7.496.001 4.14 3.356 7.496 7.496 7.496z"/><path d="m378.739 336.42h14.604c4.14 0 7.496-3.356 7.496-7.496s-3.355-7.496-7.496-7.496h-14.604c-4.14 0-7.496 3.356-7.496 7.496s3.356 7.496 7.496 7.496z"/></g></g></svg>