<svg id="Layer_1" enable-background="new 0 0 74 74" height="512" viewBox="0 0 74 74" width="512" xmlns="http://www.w3.org/2000/svg"><g><path d="m38.17 25.96c-.16-.07-.33-.04-.44.08-.07.08-.1.16-.1.26 0 .08.02.16.07.23.05.06.11.12.18.15.44.19.92.3 1.42.34v.44c0 .09.02.16.09.22.05.05.12.08.21.08s.16-.03.22-.09.09-.12.09-.21v-.44c.31-.03.59-.1.83-.22.27-.13.47-.3.62-.53.15-.22.22-.47.22-.74 0-.33-.08-.6-.25-.81-.16-.19-.37-.35-.61-.45-.22-.09-.5-.18-.82-.26v-1.59c.33.02.65.08.95.19.06.02.11.03.15.03.11 0 .2-.04.27-.12.06-.07.09-.16.09-.26 0-.18-.09-.3-.25-.37-.36-.13-.76-.22-1.21-.24v-.43c0-.09-.03-.16-.09-.21-.12-.12-.31-.12-.43 0-.05.05-.08.13-.08.21v.44c-.33.03-.61.12-.85.26-.26.15-.45.33-.58.56-.13.22-.2.47-.2.73 0 .3.09.56.25.76.16.19.35.34.59.45.21.09.47.19.79.27v1.52c-.4-.01-.77-.1-1.13-.25zm1.73-1.11c.28.09.5.17.65.26s.22.21.22.37c0 .44-.28.68-.86.74v-1.37zm-1.19-1.25c-.15-.1-.22-.24-.22-.43 0-.2.08-.36.23-.48s.34-.19.58-.23v1.4c-.26-.07-.46-.16-.59-.26z"/><path d="m63.11 6.32h-10.81v-.32c0-.83-.67-1.5-1.5-1.5h-17.65c-.83 0-1.5.67-1.5 1.5v.32h-10.82c-1.56 0-2.83 1.27-2.83 2.84v57.5c0 1.57 1.27 2.84 2.84 2.84h42.28c1.57 0 2.84-1.27 2.84-2.84v-57.5c0-1.57-1.28-2.84-2.85-2.84zm-29.96 5.45h17.65c.83 0 1.5-.67 1.5-1.5v-.61h10.32v56.51h-41.29v-56.51h10.32v.61c0 .83.68 1.5 1.5 1.5zm0-6.27h17.65c.28 0 .5.22.5.5v.81.01 2.34.01 1.1c0 .28-.22.5-.5.5h-17.65c-.28 0-.5-.22-.5-.5v-1.1s0 0 0-.01v-2.34s0 0 0-.01v-.81c0-.28.23-.5.5-.5zm31.81 61.16c0 1.03-.81 1.84-1.84 1.84h-42.29c-1.03 0-1.84-.81-1.84-1.84v-57.5c0-1.03.81-1.84 1.84-1.84h10.82v1.34h-10.82c-.28 0-.5.22-.5.5v57.51c0 .28.22.5.5.5h42.28c.28 0 .5-.22.5-.5v-57.51c0-.28-.22-.5-.5-.5h-10.81v-1.34h10.82c1.03 0 1.84.81 1.84 1.84z"/><path d="m37.91 55.32h-2.46c-.52 0-.94.42-.94.94v6.38c0 .52.42.94.94.94h2.46c.52 0 .94-.42.94-.94v-6.38c0-.52-.42-.94-.94-.94zm-2.41 7.33v-6.33l2.34-.06.06 6.33z"/><path d="m32.57 58.21h-2.47c-.52 0-.94.42-.94.94v3.49c0 .52.42.94.94.94h2.46c.52 0 .94-.42.94-.94v-3.49c.01-.51-.41-.94-.93-.94zm-2.41 4.44v-3.43l2.34-.06.06 3.43z"/><path d="m43.24 56.59h-2.46c-.52 0-.94.42-.94.94v5.12c0 .52.42.94.94.94h2.46c.52 0 .94-.42.94-.94v-5.12c.01-.52-.42-.94-.94-.94zm-2.4 6.06-.06-5.06h2.4l.06 5z"/><path d="m48.58 54.14h-2.46c-.52 0-.94.42-.94.94v7.57c0 .52.42.94.94.94h2.46c.52 0 .94-.42.94-.94v-7.57c0-.52-.42-.94-.94-.94zm-2.4 8.51-.06-7.51h2.4l.06 7.45z"/><path d="m53.92 54.58h-2.46c-.52 0-.94.42-.94.94v7.13c0 .52.42.94.94.94h2.46c.52 0 .94-.42.94-.94v-7.13c0-.52-.42-.94-.94-.94zm-2.4 8.07-.06-7.07h2.4l.06 7.01z"/><path d="m59.26 51.02h-2.46c-.52 0-.94.42-.94.94v10.68c0 .52.42.94.94.94h2.46c.52 0 .94-.42.94-.94v-10.68c0-.52-.42-.94-.94-.94zm-2.41 11.63-.05-10.63h2.4l.06 10.56z"/><path d="m41.73 47.3v-10.79c0-1.08-.88-1.95-1.95-1.95h-15.27c-1.08 0-1.95.88-1.95 1.95v10.79c0 1.08.88 1.95 1.95 1.95h15.26c1.08 0 1.96-.88 1.96-1.95zm-18.17 0v-10.79c0-.53.43-.95.95-.95h15.26c.53 0 .95.43.95.95v10.79c0 .53-.43.95-.95.95h-15.26c-.52 0-.95-.43-.95-.95z"/><path d="m34.82 42.79h-1.53c-.4 0-.73.33-.73.73v3.24c0 .4.33.73.73.73h1.53c.4 0 .73-.33.73-.73v-3.24c0-.4-.33-.73-.73-.73zm-.27 3.71h-1v-2.71h1z"/><path d="m27.19 43.06h-1.53c-.4 0-.73.33-.73.73v2.97c0 .4.33.73.73.73h1.53c.4 0 .73-.33.73-.73v-2.97c0-.41-.33-.73-.73-.73zm-.27 3.44h-1v-2.44h1z"/><path d="m31 41.51h-1.53c-.4 0-.73.33-.73.73v4.52c0 .4.33.73.73.73h1.53c.4 0 .73-.33.73-.73v-4.52c0-.4-.32-.73-.73-.73zm-.27 4.99h-1v-3.98h1z"/><path d="m38.63 39.08h-1.53c-.4 0-.73.33-.73.73v6.95c0 .4.33.73.73.73h1.53c.4 0 .73-.33.73-.73v-6.95c0-.4-.33-.73-.73-.73zm-.27 7.42h-1v-6.42h1z"/><path d="m59.7 42.52h-15.82c-.28 0-.5.22-.5.5s.22.5.5.5h15.82c.28 0 .5-.22.5-.5s-.22-.5-.5-.5z"/><path d="m59.7 40.02h-15.82c-.28 0-.5.22-.5.5s.22.5.5.5h15.82c.28 0 .5-.22.5-.5s-.22-.5-.5-.5z"/><path d="m59.7 37.51h-15.82c-.28 0-.5.22-.5.5s.22.5.5.5h15.82c.28 0 .5-.22.5-.5s-.22-.5-.5-.5z"/><path d="m15.56 63.36v-35.54c0-.02-.01-.05-.01-.07 0-.03 0-.07-.01-.1l-2.89-8.18c-.13-.36-.46-.6-.84-.6s-.72.23-.84.6l-2.88 8.14c0 .01-.01.02-.01.02v.01.01c-.02.05-.03.1-.03.16v40.19c0 .83.67 1.5 1.5 1.5h4.52c.84 0 1.5-.66 1.5-1.5v-4.6c0-.01 0-.01 0-.02s0-.02-.01-.02zm-6.52-.48v-34.56h2.26v34.56zm3.27-34.56h2.26v34.56h-2.26zm.11-6.49h-1.22l.61-1.74zm-1.58 1h1.93l1.59 4.49h-5.1zm3.22 45.67h-4.52c-.28 0-.5-.22-.5-.5v-4.12h5.52v4.12c0 .28-.21.5-.5.5z"/><path d="m48.4 49.96c-.19-.14-.45-.13-.63.03l-5.37 4.78-5.57-3.39c-.2-.12-.45-.09-.61.07l-4.91 4.91c-.2.2-.2.51 0 .71.1.1.23.15.35.15s.26-.05.35-.15l4.63-4.63 5.23 3.19c.37.22.83.18 1.15-.1l5.11-4.53 2.82 2.06c.37.27.86.25 1.21-.05l5.89-5.11-.3 1.33c-.06.27.11.54.38.6.04.01.07.01.11.01.23 0 .44-.16.49-.39l.59-2.64c.05-.23-.02-.47-.19-.64s-.41-.24-.65-.19l-2.64.6c-.27.06-.44.33-.38.6s.33.44.6.38l1.17-.26-5.7 4.97z"/><path d="m51.87 35.13h8.27c.28 0 .5-.22.5-.5s-.22-.5-.5-.5h-8.27c-.28 0-.5.22-.5.5s.22.5.5.5z"/><path d="m51.87 33.07h8.27c.28 0 .5-.22.5-.5s-.22-.5-.5-.5h-8.27c-.28 0-.5.22-.5.5s.22.5.5.5z"/><path d="m52.81 15.41h8.27c.28 0 .5-.22.5-.5s-.22-.5-.5-.5h-8.27c-.28 0-.5.22-.5.5s.22.5.5.5z"/><path d="m52.81 17.47h8.27c.28 0 .5-.22.5-.5s-.22-.5-.5-.5h-8.27c-.28 0-.5.22-.5.5s.22.5.5.5z"/><path d="m29.24 20.43-1.79 1.79c-.2.2-.2.51 0 .71.1.1.23.15.35.15s.26-.05.35-.15l1.73-1.73h1.81c-.39.98-.61 2.04-.61 3.15 0 4.69 3.82 8.51 8.51 8.51.84 0 1.65-.13 2.41-.35l1.5 1.5c.15.15.35.23.56.23h5.69c.28 0 .5-.22.5-.5s-.22-.5-.5-.5h-5.6l-1.11-1.11c2.98-1.33 5.06-4.31 5.06-7.77 0-2.99-1.56-5.63-3.9-7.14l.89-.89h5.6c.28 0 .5-.22.5-.5s-.22-.5-.5-.5h-5.69c-.21 0-.41.08-.56.23l-1.15 1.15c-1.12-.54-2.37-.86-3.7-.86-3.19 0-5.96 1.76-7.42 4.36h-2.37c-.21-.02-.41.07-.56.22zm2.85 3.91c0-1.09.24-2.12.65-3.05l2.29 1.49c-.17.49-.28 1.01-.28 1.56 0 1.19.45 2.28 1.17 3.12l-1.89 1.89c-1.2-1.32-1.94-3.08-1.94-5.01zm7.5-3.85h.01s.01 0 .01 0c2.12.01 3.84 1.73 3.84 3.85s-1.73 3.85-3.85 3.85-3.85-1.73-3.85-3.85 1.72-3.84 3.84-3.85zm1.99 10.16c-.2-.2-.51-.2-.71 0s-.2.51 0 .71l.32.32c-.51.11-1.05.17-1.59.17-1.85 0-3.55-.68-4.86-1.8l1.9-1.9c.82.64 1.84 1.04 2.96 1.04.89 0 1.71-.26 2.43-.68l1.91 1.94c-.51.36-1.07.66-1.67.89zm.23-11.76c.1.1.23.15.35.15s.26-.05.35-.15l.96-.96c2.17 1.32 3.63 3.7 3.63 6.42 0 2.16-.92 4.11-2.39 5.48l-1.87-1.9c.98-.89 1.6-2.16 1.6-3.58 0-2.5-1.91-4.55-4.35-4.8v-2.68c.86.06 1.69.25 2.45.58l-.74.74c-.19.19-.19.5.01.7zm-2.71-2.03v2.68c-1.55.16-2.88 1.04-3.65 2.32l-1.03-.67h1.07c.28 0 .5-.22.5-.5s-.22-.5-.5-.5h-2.14c1.26-1.89 3.35-3.17 5.75-3.33z"/><path d="m23.67 24.68h6.6c.28 0 .5-.22.5-.5s-.22-.5-.5-.5h-6.6c-.28 0-.5.22-.5.5s.22.5.5.5z"/><path d="m23.67 26.75h6.6c.28 0 .5-.22.5-.5s-.22-.5-.5-.5h-6.6c-.28 0-.5.22-.5.5s.22.5.5.5z"/></g></svg>