<svg id="Capa_1" enable-background="new 0 0 512 512" height="512" viewBox="0 0 512 512" width="512" xmlns="http://www.w3.org/2000/svg"><g><g><ellipse cx="62.835" cy="68.008" rx="10.037" ry="10.037" transform="matrix(.707 -.707 .707 .707 -29.685 64.35)"/><ellipse cx="101.227" cy="68.008" rx="10.037" ry="10.037" transform="matrix(.383 -.924 .924 .383 -.342 135.504)"/><circle cx="139.619" cy="68.008" r="10.037"/><path d="m504.499 402.296c4.142 0 7.499-3.357 7.499-7.499l.002-340.276c0-13.923-11.328-25.25-25.251-25.25h-304.793c-4.142 0-7.499 3.357-7.499 7.499s3.358 7.499 7.499 7.499h304.793c5.653 0 10.253 4.599 10.253 10.252v39.043h-482.002v-39.043c0-5.653 4.6-10.252 10.253-10.252h121.857c4.142 0 7.499-3.357 7.499-7.499s-3.358-7.499-7.499-7.499h-121.857c-13.923 0-25.251 11.327-25.251 25.25l-.002 402.957c0 13.923 11.328 25.25 25.251 25.25h461.496c13.923 0 25.251-11.327 25.251-25.25v-28.187c0-4.142-3.358-7.499-7.499-7.499-4.142 0-7.499 3.357-7.499 7.499v28.187c0 5.653-4.6 10.252-10.253 10.252h-461.496c-5.653 0-10.253-4.599-10.253-10.252v-348.915h482.002v286.234c0 4.142 3.357 7.499 7.499 7.499z"/><path d="m66.512 141.335h-12.998c-4.142 0-7.499 3.357-7.499 7.499s3.358 7.499 7.499 7.499h12.998c4.142 0 7.499-3.357 7.499-7.499 0-4.141-3.357-7.499-7.499-7.499z"/><path d="m100.154 156.334h47.404c4.142 0 7.499-3.357 7.499-7.499s-3.358-7.499-7.499-7.499h-47.404c-4.142 0-7.499 3.357-7.499 7.499s3.357 7.499 7.499 7.499z"/><path d="m66.512 177.141h-12.998c-4.142 0-7.499 3.357-7.499 7.499s3.358 7.499 7.499 7.499h12.998c4.142 0 7.499-3.357 7.499-7.499s-3.357-7.499-7.499-7.499z"/><path d="m100.154 192.14h47.404c4.142 0 7.499-3.357 7.499-7.499s-3.358-7.499-7.499-7.499h-47.404c-4.142 0-7.499 3.357-7.499 7.499s3.357 7.499 7.499 7.499z"/><path d="m66.512 212.946h-12.998c-4.142 0-7.499 3.357-7.499 7.499s3.358 7.499 7.499 7.499h12.998c4.142 0 7.499-3.357 7.499-7.499s-3.357-7.499-7.499-7.499z"/><path d="m241.08 220.445c0-4.142-3.358-7.499-7.499-7.499h-109.725c-4.142 0-7.499 3.357-7.499 7.499s3.358 7.499 7.499 7.499h109.725c4.141 0 7.499-3.357 7.499-7.499z"/><path d="m66.512 248.752h-12.998c-4.142 0-7.499 3.357-7.499 7.499s3.358 7.499 7.499 7.499h12.998c4.142 0 7.499-3.357 7.499-7.499s-3.357-7.499-7.499-7.499z"/><path d="m177.23 256.251c0-4.142-3.358-7.499-7.499-7.499h-49.698c-4.142 0-7.499 3.357-7.499 7.499s3.358 7.499 7.499 7.499h49.698c4.141 0 7.499-3.357 7.499-7.499z"/><path d="m66.512 284.556h-12.998c-4.142 0-7.499 3.357-7.499 7.499s3.358 7.499 7.499 7.499h12.998c4.142 0 7.499-3.357 7.499-7.499 0-4.141-3.357-7.499-7.499-7.499z"/><path d="m100.154 299.555h14.527c4.142 0 7.499-3.357 7.499-7.499s-3.358-7.499-7.499-7.499h-14.527c-4.142 0-7.499 3.357-7.499 7.499s3.357 7.499 7.499 7.499z"/><path d="m206.473 292.056c0-4.142-3.358-7.499-7.499-7.499h-51.416c-4.142 0-7.499 3.357-7.499 7.499s3.358 7.499 7.499 7.499h51.416c4.142 0 7.499-3.357 7.499-7.499z"/><path d="m66.512 318.852h-12.998c-4.142 0-7.499 3.357-7.499 7.499s3.358 7.499 7.499 7.499h12.998c4.142 0 7.499-3.357 7.499-7.499s-3.357-7.499-7.499-7.499z"/><path d="m123.856 318.852c-4.142 0-7.499 3.357-7.499 7.499s3.358 7.499 7.499 7.499h23.702c4.142 0 7.499-3.357 7.499-7.499s-3.358-7.499-7.499-7.499z"/><path d="m66.512 354.656h-12.998c-4.142 0-7.499 3.357-7.499 7.499s3.358 7.499 7.499 7.499h12.998c4.142 0 7.499-3.357 7.499-7.499s-3.357-7.499-7.499-7.499z"/><path d="m100.154 369.655h106.107c4.142 0 7.499-3.357 7.499-7.499s-3.358-7.499-7.499-7.499h-106.107c-4.142 0-7.499 3.357-7.499 7.499s3.357 7.499 7.499 7.499z"/><path d="m66.512 390.462h-12.998c-4.142 0-7.499 3.357-7.499 7.499s3.358 7.499 7.499 7.499h12.998c4.142 0 7.499-3.357 7.499-7.499s-3.357-7.499-7.499-7.499z"/><path d="m241.08 397.961c0-4.142-3.358-7.499-7.499-7.499h-109.725c-4.142 0-7.499 3.357-7.499 7.499s3.358 7.499 7.499 7.499h109.725c4.141.001 7.499-3.357 7.499-7.499z"/><path d="m66.512 426.267h-12.998c-4.142 0-7.499 3.357-7.499 7.499s3.358 7.499 7.499 7.499h12.998c4.142 0 7.499-3.357 7.499-7.499s-3.357-7.499-7.499-7.499z"/><path d="m120.033 441.265h49.698c4.142 0 7.499-3.357 7.499-7.499s-3.358-7.499-7.499-7.499h-49.698c-4.142 0-7.499 3.357-7.499 7.499s3.357 7.499 7.499 7.499z"/><path d="m458.489 354.984c4.142 0 7.499-3.357 7.499-7.499s-3.358-7.499-7.499-7.499h-19.998c-1.538-19.348-8.985-37.053-20.517-51.326l14.76-15.239c2.882-2.975 2.806-7.723-.169-10.604-2.976-2.881-7.724-2.805-10.604.17l-14.309 14.773c-8.659-7.786-18.77-13.988-29.873-18.143.683-2.67 1.055-5.462 1.055-8.342 0-5.706-1.426-11.083-3.931-15.803 2.94-2.042 5.94-4.922 7.799-8.892 1.738-3.711 3.089-9.77-.345-17.573-1.668-3.791-6.094-5.509-9.884-3.844-3.791 1.669-5.512 6.094-3.844 9.885 1.402 3.187.726 4.66.504 5.143-.713 1.553-2.469 2.878-4.148 3.81-5.602-4.114-12.509-6.552-19.977-6.552s-14.375 2.437-19.977 6.552c-1.679-.932-3.435-2.257-4.148-3.81-.222-.483-.898-1.956.504-5.143 1.668-3.791-.053-8.216-3.844-9.885-3.791-1.665-8.216.053-9.884 3.844-3.433 7.803-2.083 13.863-.345 17.573 1.859 3.969 4.86 6.85 7.799 8.892-2.505 4.72-3.931 10.097-3.931 15.803 0 2.88.373 5.672 1.056 8.342-11.103 4.154-21.215 10.357-29.874 18.143l-14.309-14.773c-2.882-2.975-7.63-3.05-10.604-.17-2.975 2.882-3.051 7.629-.169 10.604l14.76 15.239c-11.532 14.274-18.978 31.978-20.517 51.327h-19.998c-4.142 0-7.499 3.357-7.499 7.499s3.358 7.499 7.499 7.499h20c1.588 19.97 9.46 38.195 21.631 52.699l-15.877 16.393c-2.882 2.975-2.806 7.723.169 10.604 1.456 1.41 3.337 2.112 5.216 2.112 1.96 0 3.917-.764 5.388-2.282l15.624-16.132c16.454 14.254 37.902 22.888 61.329 22.888s44.875-8.635 61.329-22.888l15.624 16.132c1.471 1.518 3.428 2.282 5.388 2.282 1.879 0 3.76-.702 5.216-2.112 2.975-2.882 3.051-7.629.169-10.604l-15.877-16.393c12.171-14.504 20.044-32.729 21.631-52.699h20.002zm-120.981 70.917c-39.935-3.79-71.283-37.506-71.283-78.417s31.348-74.627 71.283-78.417zm-10.819-170.396c-.319-1.362-.509-2.773-.509-4.231 0-10.382 8.446-18.828 18.828-18.828s18.828 8.446 18.828 18.828c0 1.458-.173 2.874-.493 4.234-5.932-1.18-12.062-1.805-18.335-1.805-6.268 0-12.392.624-18.319 1.802zm25.818 170.396v-156.833c39.935 3.79 71.283 37.506 71.283 78.417s-31.348 74.626-71.283 78.416z"/><circle cx="387.186" cy="324.7" r="10.037"/><ellipse cx="373.595" cy="377.872" rx="10.037" ry="10.037" transform="matrix(.383 -.924 .924 .383 -118.482 578.423)"/><ellipse cx="302.83" cy="324.7" rx="10.037" ry="10.037" transform="matrix(.383 -.924 .924 .383 -113.042 480.221)"/><circle cx="316.42" cy="377.872" r="10.037"/></g></g></svg>