<svg id="Layer_1" enable-background="new 0 0 1600 1600" height="512" viewBox="0 0 1600 1600" width="512" xmlns="http://www.w3.org/2000/svg"><g fill="rgb(0,0,0)"><path d="m1504 1221.1h-1408c-35.3 0-64-28.7-64-64v-941.8c0-35.3 28.7-64 64-64h1408c35.3 0 64 28.7 64 64v941.8c0 35.3-28.7 64-64 64zm-1408-1021.8c-8.8 0-16 7.2-16 16v941.8c0 8.8 7.2 16 16 16h1408c8.8 0 16-7.2 16-16v-941.8c0-8.8-7.2-16-16-16z"/><path d="m1504 1221.1h-1408c-35.3 0-64-28.7-64-64v-115.5c0-13.3 10.7-24 24-24h1488c13.3 0 24 10.7 24 24v115.5c0 35.3-28.7 64-64 64zm-1424-155.5v91.5c0 8.8 7.2 16 16 16h1408c8.8 0 16-7.2 16-16v-91.5z"/><path d="m1103.9 1448.7h-607.8c-13.3 0-24-10.7-24-24s10.7-24 24-24h607.8c13.3 0 24 10.7 24 24s-10.7 24-24 24z"/><path d="m574.4 1448.7c-3.4 0-6.9-.7-10.2-2.3-12-5.6-17.2-19.9-11.5-31.9l106.8-227.6c4-8.4 12.4-13.8 21.7-13.8h237.6c9.3 0 17.8 5.4 21.7 13.8l106.8 227.6c5.6 12 .5 26.3-11.5 31.9s-26.3.5-31.9-11.5l-100.3-213.8h-207.2l-100.3 213.8c-4.1 8.7-12.7 13.8-21.7 13.8z"/><g><g><path d="m746.9 926.3h-259.9c-42.9 0-84.5-8.4-123.7-25-37.8-16-71.8-38.9-101-68.1s-52.1-63.1-68.1-101c-16.6-39.3-25-80.9-25-123.8s8.4-84.5 25-123.7c16-37.8 38.9-71.8 68.1-101s63.1-52.1 101-68.1c39.2-16.6 80.9-25 123.8-25h259.8c13.3 0 24 10.7 24 24v103c0 13.3-10.7 24-24 24h-259.9c-92 0-166.9 74.9-166.9 166.9s74.9 166.9 167 166.9h259.8c13.3 0 24 10.7 24 24v102.9c0 13.3-10.8 24-24 24zm-259.9-587.7c-36.4 0-71.8 7.1-105 21.2-32.1 13.6-61 33.1-85.8 57.8-24.8 24.8-44.2 53.6-57.8 85.8-14.1 33.3-21.2 68.6-21.2 105.1 0 36.4 7.1 71.8 21.2 105.1 13.6 32.1 33.1 61 57.8 85.8 24.8 24.8 53.6 44.2 85.8 57.8 33.3 14.1 68.6 21.2 105.1 21.2h235.8v-54.9h-235.9c-118.5 0-214.9-96.4-214.9-214.9s96.4-214.9 214.9-214.9h235.8v-54.9h-235.8z"/><path d="m648 441.5c-13.3 0-24-10.7-24-24v-102.9c0-13.3 10.7-24 24-24s24 10.7 24 24v103c0 13.2-10.7 23.9-24 23.9z"/><path d="m648 926.3c-13.3 0-24-10.7-24-24v-103c0-13.3 10.7-24 24-24s24 10.7 24 24v103c0 13.3-10.7 24-24 24z"/></g><g><g><g><path d="m1169.2 550.8c-2.7 0-5.4-.5-8.1-1.4-12.5-4.5-19-18.2-14.5-30.7 17-47.5 62.3-79.4 112.7-79.4h7.4c50.5 0 95.8 31.9 112.7 79.4 4.5 12.5-2.1 26.2-14.5 30.7-12.5 4.5-26.2-2.1-30.7-14.5-10.2-28.5-37.3-47.6-67.5-47.6h-7.4c-30.2 0-57.4 19.1-67.5 47.6-3.5 9.8-12.8 15.9-22.6 15.9z"/><path d="m1263 487.3c-42.3 0-76.7-34.4-76.7-76.7s34.4-76.7 76.7-76.7 76.7 34.4 76.7 76.7-34.4 76.7-76.7 76.7zm0-105.3c-15.8 0-28.7 12.9-28.7 28.7s12.9 28.7 28.7 28.7 28.7-12.9 28.7-28.7-12.9-28.7-28.7-28.7z"/></g><path d="m1263 586.2c-92.5 0-167.8-75.3-167.8-167.8s75.3-167.8 167.8-167.8 167.8 75.3 167.8 167.8-75.3 167.8-167.8 167.8zm0-287.6c-66.1 0-119.8 53.7-119.8 119.8s53.7 119.8 119.8 119.8 119.8-53.7 119.8-119.8-53.7-119.8-119.8-119.8z"/></g><g><g><path d="m1169.2 931c-2.7 0-5.4-.5-8.1-1.4-12.5-4.5-19-18.2-14.5-30.7 17-47.5 62.3-79.4 112.7-79.4h7.4c50.5 0 95.8 31.9 112.7 79.4 4.5 12.5-2.1 26.2-14.5 30.7-12.5 4.5-26.2-2.1-30.7-14.5-10.2-28.5-37.3-47.6-67.5-47.6h-7.4c-30.2 0-57.4 19.1-67.5 47.6-3.5 9.8-12.8 15.9-22.6 15.9z"/><path d="m1263 867.5c-42.3 0-76.7-34.4-76.7-76.7s34.4-76.7 76.7-76.7 76.7 34.4 76.7 76.7-34.4 76.7-76.7 76.7zm0-105.3c-15.8 0-28.7 12.9-28.7 28.7s12.9 28.7 28.7 28.7 28.7-12.9 28.7-28.7c0-15.9-12.9-28.7-28.7-28.7z"/></g><path d="m1263 966.3c-92.5 0-167.8-75.3-167.8-167.8s75.3-167.8 167.8-167.8 167.8 75.3 167.8 167.8-75.3 167.8-167.8 167.8zm0-287.6c-66.1 0-119.8 53.7-119.8 119.8s53.8 119.8 119.8 119.8c66.1 0 119.8-53.7 119.8-119.8s-53.7-119.8-119.8-119.8z"/></g></g><g><path d="m885.6 550.8h-121.7c-13.3 0-24-10.7-24-24s10.7-24 24-24h121.7c13.3 0 24 10.7 24 24s-10.7 24-24 24z"/><path d="m1012.3 550.8h-56.9c-13.3 0-24-10.7-24-24s10.7-24 24-24h56.9c13.3 0 24 10.7 24 24s-10.7 24-24 24z"/><path d="m1012.3 634.7h-121.6c-13.3 0-24-10.7-24-24s10.7-24 24-24h121.7c13.3 0 24 10.7 24 24s-10.8 24-24.1 24z"/><path d="m820.8 634.7h-56.9c-13.3 0-24-10.7-24-24s10.7-24 24-24h56.9c13.3 0 24 10.7 24 24s-10.7 24-24 24z"/><path d="m1012.3 718.6h-67c-13.3 0-24-10.7-24-24s10.7-24 24-24h67c13.3 0 24 10.7 24 24s-10.7 24-24 24z"/><path d="m875.5 718.6h-111.6c-13.3 0-24-10.7-24-24s10.7-24 24-24h111.6c13.3 0 24 10.7 24 24s-10.7 24-24 24z"/></g></g></g></svg>