<svg id="positive-mind" enable-background="new 0 0 300 300" height="512" viewBox="0 0 300 300" width="512" xmlns="http://www.w3.org/2000/svg"><g><path d="m216 222c-6.617 0-12 5.383-12 12s5.383 12 12 12 12-5.383 12-12-5.383-12-12-12zm0 16c-2.205 0-4-1.795-4-4s1.795-4 4-4 4 1.795 4 4-1.795 4-4 4z"/><circle cx="176" cy="234" r="4"/><path d="m140 194c2.209 0 4-1.791 4-4s-1.791-4-4-4h-8c-2.209 0-4 1.791-4 4s1.791 4 4 4z"/><path d="m232.82 22h-97.64c-10.576 0-19.18 8.604-19.18 19.18v61.641c0 4.182 1.382 8.025 3.663 11.18h-40.046c-17.433-.001-31.617 14.183-31.617 31.616v84.383c0 2.209 1.791 4 4 4 2.847 0 5.546-.618 8-1.695v41.695c0 2.209 1.791 4 4 4s4-1.791 4-4v-48.124c1.719-2.308 3-4.957 3.596-7.876h4.404c6.617 0 12-5.383 12-12 0-2.209-1.791-4-4-4s-4 1.791-4 4c0 2.205-1.795 4-4 4h-4v-19.977c.023-4.043 2.975-5.699 5.494-5.891 2.527-.168 5.686 1.004 6.318 4.996l.236 1.496c.307 1.944 1.983 3.376 3.952 3.376h8c2.209 0 4-1.791 4-4v-18.17c0-3.215 2.615-5.83 5.83-5.83h40.877c.437 0 .861-.049 1.293-.065v43.78c0 22.064-17.955 40.129-40.025 40.271-.023 0-.043.013-.066.014h-11.909c-2.209 0-4 1.791-4 4s1.791 4 4 4h8v16c0 2.209 1.791 4 4 4s4-1.791 4-4v-16.203c24.6-2.184 44-22.973 44-48.082v-45.061c13.845-4.035 24-16.817 24-31.947v-10.707h52.82c10.576 0 19.18-8.604 19.18-19.18v-61.64c0-10.576-8.604-19.18-19.18-19.18zm-60.82 110.707c0 13.947-11.346 25.293-25.293 25.293h-40.877c-7.625 0-13.83 6.205-13.83 13.83v14.17h-.693c-2.061-7.34-8.689-10.285-14.416-9.844-6.172.467-12.838 4.99-12.891 13.844v24c0 5.215-3.344 9.664-8 11.314v-79.697c0-13.023 10.594-23.617 23.617-23.617h55.562.821v12c0 1.617.975 3.076 2.469 3.695.496.205 1.015.305 1.531.305 1.041 0 2.062-.406 2.828-1.172l14.828-14.828h14.344zm72-29.887c0 6.164-5.016 11.18-11.18 11.18h-76.82c-1.061 0-2.078.422-2.828 1.172l-9.172 9.172v-6.344c0-2.209-1.791-4-4-4h-4.82c-6.164 0-11.18-5.016-11.18-11.18v-61.64c0-6.164 5.016-11.18 11.18-11.18h97.641c6.164 0 11.18 5.016 11.18 11.18v61.64z"/><path d="m230.828 143.172c-1.562-1.562-4.094-1.562-5.656 0l-3.172 3.172-3.172-3.172c-1.562-1.562-4.094-1.562-5.656 0s-1.562 4.094 0 5.656l3.172 3.172-3.172 3.172c-1.562 1.562-1.562 4.094 0 5.656.781.781 1.805 1.172 2.828 1.172s2.047-.391 2.828-1.172l3.172-3.172 3.172 3.172c.781.781 1.805 1.172 2.828 1.172s2.047-.391 2.828-1.172c1.562-1.562 1.562-4.094 0-5.656l-3.172-3.172 3.172-3.172c1.563-1.562 1.563-4.094 0-5.656z"/><path d="m220 34h-19.092c-1.49 0-2.857.828-3.547 2.148l-19.889 38.104-6.555-6.988c-.757-.807-1.812-1.264-2.917-1.264h-20c-1.584 0-3.018.934-3.658 2.383s-.365 3.139.699 4.311l33.588 36.902c.764.838 1.84 1.307 2.959 1.307.152 0 .305-.008.459-.027 1.279-.146 2.408-.9 3.035-2.025l38.412-68.902c.689-1.238.674-2.75-.045-3.973s-2.031-1.976-3.449-1.976zm-39.197 66.098-23.754-26.098h9.219l9.227 9.834c.889.945 2.172 1.408 3.461 1.227 1.285-.176 2.404-.963 3.004-2.111l21.372-40.95h9.859z"/></g></svg>