<svg id="positive-mobile" enable-background="new 0 0 300 300" height="512" viewBox="0 0 300 300" width="512" xmlns="http://www.w3.org/2000/svg"><g><path d="m206.789 50h-81.578c-10.594 0-19.211 8.834-19.211 19.691v24.309h-.574-14.856c-2.211 0-4 1.791-4 4s1.789 4 4 4h19.43c2.211 0 4-1.791 4-4v-28.309c0-6.447 5.027-11.691 11.211-11.691h13.03c1.145 6.794 7.028 12 14.142 12h27.234c7.113 0 12.997-5.206 14.142-12h13.03c6.184 0 11.211 5.244 11.211 11.691v176.617c0 6.447-5.027 11.691-11.211 11.691h-81.578c-6.184 0-11.211-5.244-11.211-11.691v-28.308c0-2.209-1.789-4-4-4h-19.426c-2.211 0-4 1.791-4 4s1.789 4 4 4h8.262 6.594.57v24.309c0 10.857 8.617 19.691 19.211 19.691h81.578c10.594 0 19.211-8.834 19.211-19.691v-176.618c0-10.857-8.617-19.691-19.211-19.691zm-27.172 12h-27.234c-2.676 0-4.964-1.659-5.911-4h39.056c-.947 2.341-3.235 4-5.911 4z"/><path d="m150 222h8c2.211 0 4-1.791 4-4v-8c0-2.209-1.789-4-4-4s-4 1.791-4 4v4h-4c-2.211 0-4 1.791-4 4s1.789 4 4 4z"/><path d="m75.715 214h-14.856c-2.211 0-4 1.791-4 4s1.789 4 4 4h14.855c2.211 0 4-1.791 4-4s-1.788-4-3.999-4z"/><path d="m135.145 214h-14.855c-2.211 0-4 1.791-4 4s1.789 4 4 4h14.855c2.211 0 4-1.791 4-4s-1.79-4-4-4z"/><path d="m46 214h-4v-4c0-2.209-1.789-4-4-4s-4 1.791-4 4v8c0 2.209 1.789 4 4 4h8c2.211 0 4-1.791 4-4s-1.789-4-4-4z"/><path d="m38 169.428c2.211 0 4-1.791 4-4v-14.858c0-2.209-1.789-4-4-4s-4 1.791-4 4v14.857c0 2.21 1.789 4.001 4 4.001z"/><path d="m38 139.715c2.211 0 4-1.791 4-4v-14.857c0-2.209-1.789-4-4-4s-4 1.791-4 4v14.857c0 2.209 1.789 4 4 4z"/><path d="m38 199.143c2.211 0 4-1.791 4-4v-14.857c0-2.209-1.789-4-4-4s-4 1.791-4 4v14.857c0 2.209 1.789 4 4 4z"/><path d="m46 94h-8c-2.211 0-4 1.791-4 4v8c0 2.209 1.789 4 4 4s4-1.791 4-4v-4h4c2.211 0 4-1.791 4-4s-1.789-4-4-4z"/><path d="m135.141 102c2.211 0 4-1.791 4-4s-1.789-4-4-4h-14.855c-2.211 0-4 1.791-4 4s1.789 4 4 4z"/><path d="m60.855 102h14.855c2.211 0 4-1.791 4-4s-1.789-4-4-4h-14.855c-2.211 0-4 1.791-4 4s1.79 4 4 4z"/><path d="m162 98c0-2.209-1.789-4-4-4h-8c-2.211 0-4 1.791-4 4s1.789 4 4 4h4v4c0 2.209 1.789 4 4 4s4-1.791 4-4z"/><path d="m158 176.285c-2.211 0-4 1.791-4 4v14.857c0 2.209 1.789 4 4 4s4-1.791 4-4v-14.857c0-2.209-1.789-4-4-4z"/><path d="m162 150.572c0-2.209-1.789-4-4-4s-4 1.791-4 4v14.857c0 2.209 1.789 4 4 4s4-1.791 4-4z"/><path d="m162 120.857c0-2.209-1.789-4-4-4s-4 1.791-4 4v14.857c0 2.209 1.789 4 4 4s4-1.791 4-4z"/><path d="m142 250c0 2.209 1.789 4 4 4h40c2.211 0 4-1.791 4-4s-1.789-4-4-4h-40c-2.211 0-4 1.791-4 4z"/><circle cx="258" cy="122" r="4"/><path d="m254 62c-6.617 0-12 5.383-12 12s5.383 12 12 12 12-5.383 12-12-5.383-12-12-12zm0 16c-2.207 0-4-1.795-4-4s1.793-4 4-4 4 1.795 4 4-1.793 4-4 4z"/><circle cx="238" cy="38" r="4"/><path d="m58.34 156.383c-.637 1.449-.363 3.139.703 4.309l33.586 36.904c.762.836 1.836 1.307 2.957 1.307.152 0 .305-.008.457-.027 1.281-.146 2.41-.9 3.035-2.025l38.414-68.902c.691-1.238.676-2.75-.043-3.973s-2.031-1.976-3.449-1.976h-19.09c-1.488 0-2.855.828-3.547 2.148l-19.887 38.104-6.559-6.988c-.757-.807-1.812-1.264-2.917-1.264h-20c-1.582 0-3.02.934-3.66 2.383zm21.93 5.617 9.227 9.834c.887.945 2.18 1.406 3.461 1.227 1.285-.176 2.402-.963 3.004-2.111l21.374-40.95h9.855l-32.391 58.096-23.749-26.096z"/></g></svg>