<svg id="positive-sign" enable-background="new 0 0 300 300" height="512" viewBox="0 0 300 300" width="512" xmlns="http://www.w3.org/2000/svg"><g><circle cx="50" cy="72" r="4"/><path d="m150 56c-57.348 0-104 46.654-104 104s46.652 104 104 104 104-46.654 104-104-46.652-104-104-104zm0 200c-52.934 0-96-43.066-96-96s43.066-96 96-96 96 43.066 96 96-43.066 96-96 96z"/><path d="m150 76c-46.316 0-84 37.682-84 84s37.684 84 84 84 84-37.682 84-84-37.684-84-84-84zm0 160c-41.906 0-76-34.094-76-76s34.094-76 76-76 76 34.094 76 76-34.094 76-76 76z"/><path d="m150 88c-39.699 0-72 32.299-72 72s32.301 72 72 72 72-32.299 72-72-32.301-72-72-72zm0 136c-35.289 0-64-28.711-64-64s28.711-64 64-64 64 28.711 64 64-28.711 64-64 64z"/><path d="m186 124h-19.09c-1.488 0-2.855.828-3.547 2.148l-19.887 38.104-6.559-6.988c-.757-.807-1.812-1.264-2.917-1.264h-20c-1.582 0-3.02.934-3.66 2.383-.637 1.449-.363 3.139.703 4.309l33.586 36.904c.762.836 1.836 1.307 2.957 1.307.152 0 .305-.008.457-.027 1.281-.146 2.41-.9 3.035-2.025l38.414-68.902c.691-1.238.676-2.75-.043-3.973s-2.031-1.976-3.449-1.976zm-39.199 66.096-23.75-26.096h9.219l9.227 9.834c.887.945 2.184 1.406 3.461 1.227 1.285-.176 2.402-.963 3.004-2.111l21.374-40.95h9.855z"/><path d="m71.172 54.828c.781.781 1.805 1.172 2.828 1.172s2.047-.391 2.828-1.172l3.172-3.172 3.172 3.172c.781.781 1.805 1.172 2.828 1.172s2.047-.391 2.828-1.172c1.562-1.562 1.562-4.094 0-5.656l-3.172-3.172 3.172-3.172c1.562-1.562 1.562-4.094 0-5.656s-4.094-1.562-5.656 0l-3.172 3.172-3.172-3.172c-1.562-1.562-4.094-1.562-5.656 0s-1.562 4.094 0 5.656l3.172 3.172-3.172 3.172c-1.563 1.562-1.563 4.094 0 5.656z"/></g></svg>