<svg id="Capa_1" enable-background="new 0 0 512 512" height="512" viewBox="0 0 512 512" width="512" xmlns="http://www.w3.org/2000/svg"><g><path d="m186 110h25v105c0 8.284 6.716 15 15 15h60c8.284 0 15-6.716 15-15v-105h25c12.887 0 19.775-15.179 11.289-24.878l-70-80c-5.976-6.83-16.601-6.83-22.577 0l-70 80c-8.487 9.699-1.599 24.878 11.288 24.878z"/><circle cx="256" cy="310" r="50"/><path d="m411 280c-16.569 0-30 13.431-30 30v65h-78.449c-13.125 9.427-29.194 15-46.551 15s-33.426-5.573-46.551-15h-78.449v-65c0-16.569-13.431-30-30-30s-30 13.431-30 30v65c0 33.137 26.863 60 60 60h50v62c0 8.284 6.716 15 15 15h120c8.284 0 15-6.716 15-15v-62h50c33.137 0 60-26.863 60-60v-65c0-16.569-13.431-30-30-30z"/></g></svg>