<svg id="Capa_1" enable-background="new 0 0 512 512" height="512" viewBox="0 0 512 512" width="512" xmlns="http://www.w3.org/2000/svg"><g><path d="m485.354 52.485-70.551-.005c-.001 0-.001 0-.001 0-4.141 0-7.499 3.357-7.499 7.498 0 4.142 3.357 7.5 7.498 7.5l70.553.005c6.422 0 11.647 5.224 11.647 11.646v262.516h-18.763v-237.037c0-9.713-7.901-17.614-17.614-17.614h-112.351v-19.511h31.532c4.142 0 7.499-3.357 7.499-7.499s-3.357-7.499-7.499-7.499h-31.532v-11.638c0-4.142-3.357-7.499-7.499-7.499h-169.544c-4.142 0-7.499 3.357-7.499 7.499v11.637h-137.085c-14.693.001-26.646 11.954-26.646 26.646v300.46c0 14.693 11.953 26.646 26.646 26.646h184.098c-2.384 13.528-7.907 40.156-16.887 57.418h-41.676c-4.142 0-7.499 3.357-7.499 7.499s3.357 7.499 7.499 7.499h207.639c4.142 0 7.499-3.357 7.499-7.499s-3.357-7.499-7.499-7.499h-41.675c-8.967-17.244-14.497-43.884-16.885-57.418h184.095c14.693 0 26.646-11.953 26.646-26.646v-300.46c-.001-14.692-11.954-26.645-26.647-26.645zm-306.625-4.138h154.545v57.072h-154.545zm-7.499 72.07h77.272v66.289h-127.173c-4.142 0-7.499 3.357-7.499 7.499v54.858h-45.903c-4.142 0-7.499 3.357-7.499 7.499v45.401c0 4.142 3.357 7.499 7.499 7.499h106.804c4.142 0 7.499-3.357 7.499-7.499v-45.401c0-4.142-3.357-7.499-7.499-7.499h-45.902v-47.358h119.674v47.358h-45.903c-4.142 0-7.499 3.357-7.499 7.499v45.401c0 4.142 3.357 7.499 7.499 7.499h16.853c4.142 0 7.499-3.357 7.499-7.499s-3.357-7.499-7.499-7.499h-9.354v-30.402h91.805v30.402h-48.108c-4.142 0-7.499 3.357-7.499 7.499s3.357 7.499 7.499 7.499h55.608c4.142 0 7.499-3.357 7.499-7.499v-45.401c0-4.142-3.357-7.499-7.499-7.499h-45.903v-47.358h119.674v47.358h-45.902c-4.142 0-7.499 3.357-7.499 7.499v45.401c0 4.142 3.357 7.499 7.499 7.499h106.804c4.142 0 7.499-3.357 7.499-7.499v-45.401c0-4.142-3.357-7.499-7.499-7.499h-45.904v-54.858c0-4.142-3.357-7.499-7.499-7.499h-127.173v-66.289h77.272c4.142 0 7.499-3.357 7.499-7.499v-10.926h112.352c1.442 0 2.616 1.174 2.616 2.616v237.037h-414.48v-237.037c0-1.442 1.174-2.616 2.616-2.616h112.356v10.926c-.001 4.142 3.356 7.499 7.498 7.499zm-3.998 143.645v30.402h-91.806v-30.402zm269.346 0v30.402h-91.806v-30.402zm-421.579-184.932c0-6.422 5.225-11.646 11.647-11.646h137.085v19.511h-112.356c-9.713 0-17.614 7.902-17.614 17.614v237.037h-18.762zm286.577 384.523h-91.153c8.605-19.953 13.568-45.568 15.55-57.418h60.052c1.983 11.85 6.947 37.465 15.551 57.418zm195.425-84.063c0 6.422-5.225 11.647-11.647 11.647h-458.708c-6.422 0-11.647-5.225-11.647-11.647v-22.946h482.003v22.946z"/></g></svg>