<svg id="positive-user" enable-background="new 0 0 300 300" height="512" viewBox="0 0 300 300" width="512" xmlns="http://www.w3.org/2000/svg"><g><path d="m171.327 237.507 2.673-45.507v-36h28c2.211 0 4-1.791 4-4v-44c0-6.617-5.383-12-12-12s-12 5.383-12 12l.051 24h-12.051v-24c0-11.027-8.973-20-20-20s-20 8.973-20 20v9.926c0 5.345 1.911 10.251 5.084 14.074h-17.137l.053-24c0-6.617-5.383-12-12-12s-12 5.383-12 12v44c0 2.209 1.791 4 4 4h28l.008 36.234 2.663 45.271c-20.375 2.989-32.448 9.81-32.448 18.495 0 13.131 27.053 20 53.777 20 26.723 0 53.777-6.869 53.777-20 0-8.677-12.08-15.502-32.45-18.493zm-21.327-33.507c-2.211 0-4 1.791-4 4v48h-8.229l-3.536-60h31.523l-3.532 60h-8.226v-48c0-2.209-1.789-4-4-4zm44-100c2.207 0 4 1.795 4 4v4h-7.991l-.009-4c0-2.205 1.793-4 4-4zm-56 13.926v-9.926c0-6.617 5.383-12 12-12s12 5.383 12 12v24h-9.926c-7.762 0-14.074-6.314-14.074-14.074zm-32-13.926c2.205 0 4 1.795 4 3.992l-.009 4.008h-7.991v-4c0-2.205 1.795-4 4-4zm-4 44v-28h7.974l-.035 15.992c-.002 1.062.418 2.082 1.168 2.834s1.77 1.174 2.832 1.174h38.135 13.926 20.062c1.062 0 2.082-.424 2.832-1.176.75-.754 1.172-1.773 1.168-2.836l-.035-15.988h7.973v28h-28c-2.211 0-4 1.791-4 4l.007 36h-32.007v-36c0-2.209-1.791-4-4-4zm48 120c-29.619 0-45.777-7.928-45.777-12 0-2.447 7.365-7.793 24.919-10.485l.866 14.72c.123 2.115 1.875 3.765 3.992 3.765h32c2.117 0 3.867-1.65 3.992-3.766l.865-14.719c17.554 2.696 24.921 8.045 24.921 10.485-.001 4.072-16.157 12-45.778 12z"/><path d="m150 80c15.438 0 28-12.561 28-28s-12.562-28-28-28c-15.439 0-28 12.561-28 28s12.561 28 28 28zm0-48c11.027 0 20 8.973 20 20s-8.973 20-20 20-20-8.973-20-20 8.973-20 20-20z"/><path d="m145.781 63.328c.664.442 1.434.672 2.219.672.281 0 .562-.029.844-.09 1.055-.227 1.977-.873 2.547-1.791l10-16c1.172-1.873.602-4.34-1.27-5.512-1.879-1.174-4.344-.602-5.512 1.273l-5.485 8.776-3.73 2.798-1.175-.783c-1.848-1.23-4.324-.729-5.547 1.109-1.225 1.838-.729 4.322 1.109 5.547z"/><path d="m206 168h-8c-2.211 0-4 1.791-4 4s1.789 4 4 4h8c2.211 0 4-1.791 4-4s-1.789-4-4-4z"/><path d="m230 168h-12c-2.211 0-4 1.791-4 4s1.789 4 4 4h12c2.211 0 4-1.791 4-4s-1.789-4-4-4z"/><path d="m250 160c-2.211 0-4 1.791-4 4v4h-4c-2.211 0-4 1.791-4 4s1.789 4 4 4h8c2.211 0 4-1.791 4-4v-8c0-2.209-1.789-4-4-4z"/><path d="m250 98.287c-2.211 0-4 1.791-4 4v15.428c0 2.209 1.789 4 4 4s4-1.791 4-4v-15.428c0-2.209-1.789-4-4-4z"/><path d="m250 129.145c-2.211 0-4 1.791-4 4v15.428c0 2.209 1.789 4 4 4s4-1.791 4-4v-15.428c0-2.209-1.789-4-4-4z"/><path d="m250 67.43c-2.211 0-4 1.791-4 4v15.428c0 2.209 1.789 4 4 4s4-1.791 4-4v-15.428c0-2.209-1.789-4-4-4z"/><path d="m250 44h-8c-2.211 0-4 1.791-4 4s1.789 4 4 4h4v4c0 2.209 1.789 4 4 4s4-1.791 4-4v-8c0-2.209-1.789-4-4-4z"/><path d="m231.332 48c0-2.209-1.789-4-4-4h-14.668c-2.211 0-4 1.791-4 4s1.789 4 4 4h14.668c2.211 0 4-1.791 4-4z"/><path d="m190 52h8c2.211 0 4-1.791 4-4s-1.789-4-4-4h-8c-2.211 0-4 1.791-4 4s1.789 4 4 4z"/><path d="m106 172c0-2.209-1.791-4-4-4h-8c-2.209 0-4 1.791-4 4s1.791 4 4 4h8c2.209 0 4-1.791 4-4z"/><path d="m82 168h-12c-2.209 0-4 1.791-4 4s1.791 4 4 4h12c2.209 0 4-1.791 4-4s-1.791-4-4-4z"/><path d="m58 168h-4v-4c0-2.209-1.791-4-4-4s-4 1.791-4 4v8c0 2.209 1.791 4 4 4h8c2.209 0 4-1.791 4-4s-1.791-4-4-4z"/><path d="m50 152.572c2.209 0 4-1.791 4-4v-15.428c0-2.209-1.791-4-4-4s-4 1.791-4 4v15.428c0 2.209 1.791 4 4 4z"/><path d="m50 121.715c2.209 0 4-1.791 4-4v-15.428c0-2.209-1.791-4-4-4s-4 1.791-4 4v15.428c0 2.209 1.791 4 4 4z"/><path d="m50 90.857c2.209 0 4-1.791 4-4v-15.427c0-2.209-1.791-4-4-4s-4 1.791-4 4v15.428c0 2.208 1.791 3.999 4 3.999z"/><path d="m58 44h-8c-2.209 0-4 1.791-4 4v8c0 2.209 1.791 4 4 4s4-1.791 4-4v-4h4c2.209 0 4-1.791 4-4s-1.791-4-4-4z"/><path d="m91.332 48c0-2.209-1.791-4-4-4h-14.666c-2.209 0-4 1.791-4 4s1.791 4 4 4h14.666c2.209 0 4-1.791 4-4z"/><path d="m102 52h8c2.209 0 4-1.791 4-4s-1.791-4-4-4h-8c-2.209 0-4 1.791-4 4s1.791 4 4 4z"/></g></svg>