<svg id="Capa_1" enable-background="new 0 0 512 512" height="512" viewBox="0 0 512 512" width="512" xmlns="http://www.w3.org/2000/svg"><g><path d="m141.317 335.327c-9.763-9.763-25.592-9.763-35.355 0l-91.317 91.317c-19.526 19.526-19.526 51.184 0 70.711 19.526 19.526 51.184 19.526 70.711 0l91.317-91.317c9.763-9.763 9.763-25.592 0-35.355z"/><path d="m189.603 279.971-30.607 30.607 42.426 42.426 30.608-30.608c-16.223-11.88-30.546-26.203-42.427-42.425z"/><path d="m366.741 122.49-9.134 9.135c-5.858 5.858-15.356 5.858-21.214 0l-9.134-9.135c-6.31-6.31-14.601-9.465-22.889-9.465-8.291 0-16.578 3.154-22.89 9.466-12.62 12.621-12.62 33.156 0 45.777l65.52 65.519 65.52-65.519c6.113-6.114 9.48-14.243 9.48-22.889s-3.367-16.775-9.48-22.888c-12.622-12.621-33.158-12.622-45.779-.001z"/><path d="m347 0c-90.982 0-165 74.019-165 165s74.019 165 165 165 165-74.019 165-165-74.019-165-165-165zm86.732 189.481-76.126 76.126c-5.858 5.858-15.355 5.858-21.213 0l-76.126-76.126c-24.318-24.317-24.318-63.886 0-88.203 23.834-23.834 62.315-24.311 86.732-1.425 24.418-22.882 62.899-22.407 86.732 1.424 11.78 11.78 18.268 27.443 18.268 44.103s-6.486 32.321-18.267 44.101z"/></g></svg>