<svg id="Capa_1" enable-background="new 0 0 511.957 511.957" height="512" viewBox="0 0 511.957 511.957" width="512" xmlns="http://www.w3.org/2000/svg"><g><g><path d="m304.877 2.561c-1.421-1.628-3.476-2.561-5.636-2.561h-266.416c-4.133 0-7.483 3.35-7.483 7.483v496.991c0 4.133 3.35 7.483 7.483 7.483h70.045c4.133 0 7.483-3.35 7.483-7.483s-3.35-7.483-7.483-7.483h-62.562v-482.025h251.45v88.781c0 4.133 3.35 7.483 7.483 7.483h76.586v385.761h-238.24c-4.133 0-7.483 3.35-7.483 7.483s3.35 7.483 7.483 7.483h245.723c4.133 0 7.483-3.35 7.483-7.483v-400.727c0-1.81-.656-3.558-1.847-4.922zm1.847 93.703v-68.836l60.116 68.836z"/><path d="m161.515 183.509h20.031c4.133 0 7.483-3.35 7.483-7.483s-3.35-7.483-7.483-7.483h-20.031c-4.133 0-7.483 3.35-7.483 7.483s3.35 7.483 7.483 7.483z"/><path d="m161.515 213.229h129.513c4.133 0 7.483-3.35 7.483-7.483s-3.35-7.483-7.483-7.483h-129.513c-4.133 0-7.483 3.35-7.483 7.483s3.35 7.483 7.483 7.483z"/><path d="m329.351 168.543h-114.969c-4.133 0-7.483 3.35-7.483 7.483s3.35 7.483 7.483 7.483h114.969c4.133 0 7.483-3.35 7.483-7.483s-3.35-7.483-7.483-7.483z"/><path d="m104.136 213.229c.091 0 .181-.002.272-.005 2.32-.085 4.47-1.241 5.819-3.131l29.355-41.127c2.401-3.364 1.62-8.037-1.743-10.438-3.364-2.399-8.037-1.62-10.438 1.743l-23.71 33.218-11.148-13.436c-2.639-3.181-7.355-3.619-10.537-.98-3.18 2.639-3.62 7.356-.981 10.537l17.353 20.914c1.424 1.716 3.536 2.705 5.758 2.705z"/><path d="m161.515 262.795h20.031c4.133 0 7.483-3.35 7.483-7.483s-3.35-7.483-7.483-7.483h-20.031c-4.133 0-7.483 3.35-7.483 7.483 0 4.134 3.35 7.483 7.483 7.483z"/><path d="m161.515 292.515h129.513c4.133 0 7.483-3.35 7.483-7.483s-3.35-7.483-7.483-7.483h-129.513c-4.133 0-7.483 3.35-7.483 7.483s3.35 7.483 7.483 7.483z"/><path d="m329.351 247.829h-114.969c-4.133 0-7.483 3.35-7.483 7.483s3.35 7.483 7.483 7.483h114.969c4.133 0 7.483-3.35 7.483-7.483s-3.35-7.483-7.483-7.483z"/><path d="m81.025 268.896 17.353 20.914c1.424 1.717 3.537 2.705 5.758 2.705.091 0 .181-.002.272-.005 2.32-.085 4.47-1.241 5.819-3.13l29.355-41.127c2.401-3.364 1.62-8.037-1.743-10.438-3.364-2.399-8.037-1.62-10.438 1.743l-23.71 33.218-11.148-13.436c-2.639-3.181-7.355-3.619-10.537-.98-3.181 2.638-3.62 7.355-.981 10.536z"/><path d="m161.515 342.081h20.031c4.133 0 7.483-3.35 7.483-7.483s-3.35-7.483-7.483-7.483h-20.031c-4.133 0-7.483 3.35-7.483 7.483s3.35 7.483 7.483 7.483z"/><path d="m161.515 371.801h129.513c4.133 0 7.483-3.35 7.483-7.483s-3.35-7.483-7.483-7.483h-129.513c-4.133 0-7.483 3.35-7.483 7.483s3.35 7.483 7.483 7.483z"/><path d="m329.351 327.115h-114.969c-4.133 0-7.483 3.35-7.483 7.483s3.35 7.483 7.483 7.483h114.969c4.133 0 7.483-3.35 7.483-7.483 0-4.134-3.35-7.483-7.483-7.483z"/><path d="m81.025 348.182 17.353 20.914c1.424 1.717 3.537 2.705 5.758 2.705.091 0 .182-.002.272-.005 2.32-.085 4.47-1.241 5.819-3.131l29.355-41.128c2.401-3.364 1.62-8.037-1.744-10.438-3.363-2.4-8.037-1.618-10.438 1.743l-23.71 33.219-11.148-13.436c-2.639-3.181-7.355-3.62-10.537-.98-3.18 2.639-3.619 7.357-.98 10.537z"/><path d="m161.515 421.367h20.031c4.133 0 7.483-3.35 7.483-7.483s-3.35-7.483-7.483-7.483h-20.031c-4.133 0-7.483 3.35-7.483 7.483s3.35 7.483 7.483 7.483z"/><path d="m161.515 451.087h129.513c4.133 0 7.483-3.35 7.483-7.483s-3.35-7.483-7.483-7.483h-129.513c-4.133 0-7.483 3.35-7.483 7.483s3.35 7.483 7.483 7.483z"/><path d="m329.351 406.401h-114.969c-4.133 0-7.483 3.35-7.483 7.483s3.35 7.483 7.483 7.483h114.969c4.133 0 7.483-3.35 7.483-7.483s-3.35-7.483-7.483-7.483z"/><path d="m121.833 407.29c-2.974-2.871-7.711-2.788-10.581.188l-9.542 9.887-9.542-9.887c-2.87-2.975-7.607-3.058-10.581-.188s-3.057 7.608-.188 10.58l9.911 10.269-9.91 10.269c-2.87 2.973-2.786 7.71.188 10.58 1.452 1.402 3.325 2.099 5.196 2.099 1.96 0 3.917-.765 5.385-2.287l9.542-9.887 9.542 9.887c1.468 1.522 3.425 2.287 5.385 2.287 1.87 0 3.743-.698 5.196-2.099 2.974-2.87 3.057-7.608.188-10.58l-9.911-10.269 9.911-10.269c2.869-2.973 2.785-7.71-.189-10.58z"/><path d="m479.133 149.652h-16.145v-26.205c0-13.231-10.764-23.994-23.995-23.994s-23.995 10.764-23.995 23.994v66.87c0 4.133 3.35 7.483 7.483 7.483s7.483-3.35 7.483-7.483v-25.699h18.059v290.146h-18.059v-229.565c0-4.133-3.35-7.483-7.483-7.483s-7.483 3.35-7.483 7.483v237.048c0 .01.001.02.002.03.005.86.174 1.767.473 2.573.015.041 16.496 42.207 16.552 42.349 2.448 6.264 11.495 6.247 13.938 0 0 0 16.5-42.195 16.512-42.227.336-.859.513-1.802.514-2.725 0-.026 0-297.629 0-297.629h8.662v103.589c0 4.133 3.35 7.483 7.483 7.483s7.483-3.35 7.483-7.483v-111.072c-.001-4.133-3.352-7.483-7.484-7.483zm-40.141 334.275-5.551-14.197h11.103zm9.029-334.275h-18.059v-26.205c0-4.978 4.05-9.028 9.029-9.028s9.029 4.05 9.029 9.028v26.205z"/></g></g></svg>