<svg id="Layer_1" enable-background="new 0 0 1600 1600" height="512" viewBox="0 0 1600 1600" width="512" xmlns="http://www.w3.org/2000/svg"><g fill="rgb(0,0,0)"><g><g><path d="m1478.7 1427.8h-1357.4c-49.2 0-89.3-40-89.3-89.3v-1077c0-49.2 40-89.3 89.3-89.3h1357.5c49.2 0 89.3 40 89.3 89.3v1077c-.1 49.2-40.2 89.3-89.4 89.3zm-1357.4-1207.6c-22.8 0-41.3 18.5-41.3 41.3v1077c0 22.8 18.5 41.3 41.3 41.3h1357.5c22.8 0 41.3-18.5 41.3-41.3v-1077c0-22.8-18.5-41.3-41.3-41.3z"/><path d="m1544 435h-1488c-13.3 0-24-10.7-24-24s10.7-24 24-24h1488c13.3 0 24 10.7 24 24s-10.7 24-24 24z"/><path d="m1397 327.6h-649.3c-13.3 0-24-10.7-24-24s10.7-24 24-24h649.3c13.3 0 24 10.7 24 24s-10.7 24-24 24z"/></g><g><circle cx="235.1" cy="303.6" r="32.1"/><circle cx="369.4" cy="303.6" r="32.1"/><circle cx="503.7" cy="303.6" r="32.1"/></g></g><g><g><path d="m1371.3 700.6h-425.8c-13.3 0-24-10.7-24-24s10.7-24 24-24h425.8c13.3 0 24 10.7 24 24s-10.7 24-24 24z"/><path d="m863.4 700.6h-9.4c-13.3 0-24-10.7-24-24s10.7-24 24-24h9.4c13.3 0 24 10.7 24 24s-10.7 24-24 24z"/><path d="m1371.3 854.4h-425.8c-13.3 0-24-10.7-24-24s10.7-24 24-24h425.8c13.3 0 24 10.7 24 24s-10.7 24-24 24z"/><path d="m863.4 854.4h-9.4c-13.3 0-24-10.7-24-24s10.7-24 24-24h9.4c13.3 0 24 10.7 24 24s-10.7 24-24 24z"/><path d="m1371.3 1008.3h-425.8c-13.3 0-24-10.7-24-24s10.7-24 24-24h425.8c13.3 0 24 10.7 24 24s-10.7 24-24 24z"/><path d="m863.4 1008.3h-9.4c-13.3 0-24-10.7-24-24s10.7-24 24-24h9.4c13.3 0 24 10.7 24 24s-10.7 24-24 24z"/><path d="m1371.3 1162.1h-425.8c-13.3 0-24-10.7-24-24s10.7-24 24-24h425.8c13.3 0 24 10.7 24 24s-10.7 24-24 24z"/><path d="m863.4 1162.1h-9.4c-13.3 0-24-10.7-24-24s10.7-24 24-24h9.4c13.3 0 24 10.7 24 24s-10.7 24-24 24z"/></g><g><path d="m625 1249.4h-316.3c-57.3 0-104-46.7-104-104v-378.2c0-13.3 10.7-24 24-24h476.3c13.3 0 24 10.7 24 24v378.2c0 57.4-46.6 104-104 104zm-372.3-458.2v354.2c0 30.9 25.1 56 56 56h316.3c30.9 0 56-25.1 56-56v-354.2z"/><path d="m592.1 857.5c-13.3 0-24-10.7-24-24v-118.9c0-55.8-45.4-101.3-101.3-101.3s-101.3 45.4-101.3 101.3v118.9c0 13.3-10.7 24-24 24s-24-10.7-24-24v-118.9c0-82.3 67-149.3 149.3-149.3s149.3 67 149.3 149.3v118.9c0 13.2-10.7 24-24 24z"/></g></g></g></svg>