<svg id="Capa_1" enable-background="new 0 0 504.289 504.289" height="512" viewBox="0 0 504.289 504.289" width="512" xmlns="http://www.w3.org/2000/svg"><g><g id="Page-1_35_"><g id="_x30_36---Colour" transform="translate(-1)"><path id="Shape_185_" d="m407.991 198.077c16.065-64.395-9.432-132.009-64.017-169.762s-126.846-37.753-181.431 0-80.083 105.366-64.018 169.762c-56.32 23.817-94.05 77.753-97.115 138.824s29.078 118.513 82.731 147.848 119.358 25.391 169.116-10.15c49.757 35.432 115.388 39.308 168.97 9.979s85.686-86.703 82.655-147.711c-3.031-61.009-40.666-114.918-96.891-138.79zm-297.422-37.922c-.189-54.98 31.227-105.177 80.759-129.039s108.367-17.144 151.244 17.271 62.168 90.402 49.589 143.923c-47.309-14.508-98.679-6.108-138.903 22.713-40.224-28.821-91.594-37.22-138.903-22.713-2.48-10.539-3.75-21.327-3.786-32.155zm193.049 184.656c-.008 41.841-18.427 81.559-50.361 108.594-40.829-34.377-58.839-88.804-46.575-140.75 30.359 9.303 62.808 9.303 93.167 0 2.475 10.541 3.739 21.329 3.769 32.156zm-50.36-41.967c-14.165 0-28.25-2.113-41.791-6.27 8.443-23.412 22.848-44.216 41.791-60.357 18.943 16.141 33.348 36.945 41.791 60.357-13.541 4.157-27.627 6.27-41.791 6.27zm-57.479-12.188c-35.684-15.835-63.364-45.543-76.641-82.256 40.773-12.526 85.015-6.089 120.53 17.534-19.766 17.605-34.848 39.845-43.889 64.722zm71.068-64.73c35.514-23.623 79.757-30.059 120.53-17.534-13.277 36.713-40.956 66.421-76.641 82.256-9.041-24.877-24.123-47.118-43.889-64.722zm-105.917 261.573c-67.475.027-125.737-47.234-139.63-113.263s20.386-132.76 82.152-159.926c15.092 41.61 46.728 75.12 87.401 92.58-14.377 57.286 4.463 117.803 48.816 156.806-23.319 15.537-50.718 23.82-78.739 23.803zm184.656 0c-28.021.017-55.42-8.266-78.739-23.804 44.353-39.003 63.193-99.52 48.816-156.806 40.673-17.46 72.309-50.97 87.401-92.58 61.765 27.165 96.044 93.896 82.152 159.926s-72.155 113.291-139.63 113.264z"/><path id="Shape_184_" d="m222.085 55.556c2.931-.809 5.196-3.139 5.92-6.092s-.205-6.067-2.43-8.14-5.396-2.78-8.291-1.85c-34.186 10.256-62.443 34.488-77.79 66.711-1.993 4.188-.214 9.199 3.974 11.193 4.188 1.993 9.199.214 11.193-3.974 13.298-27.938 37.789-48.95 67.424-57.848z"/></g></g></g></svg>