<svg id="Layer_1" enable-background="new 0 0 1600 1600" height="512" viewBox="0 0 1600 1600" width="512" xmlns="http://www.w3.org/2000/svg"><g fill="rgb(0,0,0)"><path d="m1504 1221.1h-1408c-35.3 0-64-28.7-64-64v-941.8c0-35.3 28.7-64 64-64h1408c35.3 0 64 28.7 64 64v941.8c0 35.3-28.7 64-64 64zm-1408-1021.8c-8.8 0-16 7.2-16 16v941.8c0 8.8 7.2 16 16 16h1408c8.8 0 16-7.2 16-16v-941.8c0-8.8-7.2-16-16-16z"/><path d="m1504 1221.1h-1408c-35.3 0-64-28.7-64-64v-115.5c0-13.3 10.7-24 24-24h1488c13.3 0 24 10.7 24 24v115.5c0 35.3-28.7 64-64 64zm-1424-155.5v91.5c0 8.8 7.2 16 16 16h1408c8.8 0 16-7.2 16-16v-91.5z"/><path d="m1103.9 1448.7h-607.8c-13.3 0-24-10.7-24-24s10.7-24 24-24h607.8c13.3 0 24 10.7 24 24s-10.7 24-24 24z"/><path d="m574.4 1448.7c-3.4 0-6.9-.7-10.2-2.3-12-5.6-17.2-19.9-11.5-31.9l106.8-227.6c4-8.4 12.4-13.8 21.7-13.8h237.6c9.3 0 17.8 5.4 21.7 13.8l106.8 227.6c5.6 12 .5 26.3-11.5 31.9s-26.3.5-31.9-11.5l-100.3-213.8h-207.2l-100.3 213.8c-4.1 8.7-12.7 13.8-21.7 13.8z"/><g><g><path d="m791.3 571.3h-244.8c-13.3 0-24-10.7-24-24v-244.8c0-13.3 10.7-24 24-24 71.8 0 139.3 28 190.1 78.7 50.8 50.8 78.7 118.3 78.7 190.1 0 13.2-10.8 24-24 24zm-220.8-48h195.5c-11.1-102.6-92.9-184.4-195.5-195.5z"/><path d="m424.1 938.5c-71.8 0-139.3-28-190.1-78.7-50.8-50.8-78.7-118.3-78.7-190.1s28-139.3 78.7-190.1c50.8-50.8 118.3-78.7 190.1-78.7 13.3 0 24 10.7 24 24v220.8h220.8c13.3 0 24 10.7 24 24 0 71.8-28 139.3-78.7 190.1-50.8 50.7-118.3 78.7-190.1 78.7zm-24-488.3c-110.5 12-196.8 105.9-196.8 219.5 0 121.8 99 220.8 220.8 220.8 113.6 0 207.5-86.3 219.5-196.8h-219.5c-13.3 0-24-10.7-24-24z"/></g><g><path d="m1170.7 581.3c-85.5 0-165.8-33.3-226.2-93.7l-40.8-40.8c-4.5-4.5-7-10.6-7-17s2.5-12.5 7-17l40.8-40.8c60.4-60.4 140.8-93.7 226.2-93.7s165.8 33.3 226.2 93.7l40.8 40.8c9.4 9.4 9.4 24.6 0 33.9l-40.8 40.8c-60.4 60.5-140.7 93.8-226.2 93.8zm-216-151.4 23.8 23.8c51.4 51.4 119.6 79.6 192.3 79.6s140.9-28.3 192.3-79.6l23.8-23.8-23.8-23.8c-51.4-51.4-119.6-79.6-192.3-79.6s-140.9 28.3-192.3 79.6z"/><path d="m1170.7 508.6c-43.4 0-78.7-35.3-78.7-78.7s35.3-78.7 78.7-78.7 78.7 35.3 78.7 78.7-35.3 78.7-78.7 78.7zm0-109.4c-16.9 0-30.7 13.8-30.7 30.7s13.8 30.7 30.7 30.7 30.7-13.8 30.7-30.7-13.7-30.7-30.7-30.7z"/></g><g><path d="m1420.7 716.7h-246c-13.3 0-24-10.7-24-24s10.7-24 24-24h246c13.3 0 24 10.7 24 24s-10.7 24-24 24z"/><path d="m1096.4 716.7h-175.7c-13.3 0-24-10.7-24-24s10.7-24 24-24h175.6c13.3 0 24 10.7 24 24s-10.7 24-23.9 24z"/><path d="m1420.7 938.5h-500c-13.3 0-24-10.7-24-24s10.7-24 24-24h500c13.3 0 24 10.7 24 24s-10.7 24-24 24z"/><path d="m1198.6 827.6h-277.9c-13.3 0-24-10.7-24-24s10.7-24 24-24h277.9c13.3 0 24 10.7 24 24s-10.7 24-24 24z"/><path d="m1420.7 827.6h-143.7c-13.3 0-24-10.7-24-24s10.7-24 24-24h143.8c13.3 0 24 10.7 24 24s-10.8 24-24.1 24z"/></g></g></g></svg>