<svg id="Layer_1" enable-background="new 0 0 74 74" height="512" viewBox="0 0 74 74" width="512" xmlns="http://www.w3.org/2000/svg"><g><path d="m13.43 58.27h-5.64c-.68 0-1.23-.55-1.23-1.23v-35.16h7.13c1.23 0 2.23-1 2.23-2.23v-7.13h22.05c.68 0 1.24.55 1.24 1.23v16.75c0 .28.22.5.5.5s.5-.22.5-.5v-16.76c0-1.23-1-2.23-2.24-2.23h-22.53c-.02 0-.04.01-.05.01-.03 0-.06.01-.09.02-.07.02-.13.05-.18.09-.01.01-.03.01-.04.02l-5.62 5.62-3.75 3.74c-.06.06-.1.15-.12.24 0 .02-.01.03-.01.05s-.01.04-.01.07v35.67c0 1.23 1 2.23 2.23 2.23h5.63c.28 0 .5-.22.5-.5s-.23-.5-.5-.5zm.27-37.39h-6.43l2.92-2.92 4.74-4.73v6.42c0 .67-.55 1.23-1.23 1.23z"/><path d="m37.9 31.68c.28 0 .5-.22.5-.5v-6.15c0-.84-.68-1.53-1.52-1.53h-27.97c-.84 0-1.52.69-1.52 1.53v15.61c0 .84.68 1.53 1.52 1.53h5.12c.28 0 .5-.22.5-.5s-.22-.5-.5-.5h-5.12c-.29 0-.52-.24-.52-.53v-15.61c0-.29.23-.53.52-.53h27.96c.29 0 .52.24.52.53v6.15c.01.28.23.5.51.5z"/><path d="m10.93 33.71c-.56 0-1.01.46-1.01 1.01v3.85c0 .56.46 1.01 1.01 1.01h1.78c.56 0 1.01-.46 1.01-1.01v-3.85c0-.56-.46-1.01-1.01-1.01zm1.78 4.88-1.79-.01v-3.85l.01-.01 1.79.01z"/><path d="m30.94 35.42c.28 0 .5-.22.5-.5v-2.42c0-.56-.46-1.02-1.02-1.02h-1.77c-.56 0-1.02.46-1.02 1.02v2.42c0 .28.22.5.5.5s.5-.22.5-.5l.02-2.44 1.79.02v2.42c0 .28.23.5.5.5z"/><path d="m26.52 35.42c.28 0 .5-.22.5-.5v-.81c0-.56-.46-1.02-1.02-1.02h-1.77c-.56 0-1.02.46-1.02 1.02v.81c0 .28.22.5.5.5s.5-.22.5-.5l.02-.83 1.79.02v.81c0 .28.22.5.5.5z"/><path d="m35.38 34.18c.28 0 .5-.22.5-.5v-4.04c0-.56-.46-1.01-1.02-1.01h-1.77c-.56 0-1.02.45-1.02 1.01v5.28c0 .28.22.5.5.5s.5-.22.5-.5l.02-5.29 1.79.01v4.04c0 .28.22.5.5.5z"/><path d="m22.08 35.42c.28 0 .5-.22.5-.5v-2.12c0-.56-.46-1.01-1.02-1.01h-1.78c-.56 0-1.01.45-1.01 1.01v2.12c0 .28.22.5.5.5s.5-.22.5-.5l.01-2.13 1.8.01v2.12c0 .28.23.5.5.5z"/><path d="m17.65 35.42c.28 0 .5-.22.5-.5v-1.57c0-.56-.46-1.01-1.02-1.01h-1.78c-.56 0-1.01.45-1.01 1.01v1.57c0 .28.22.5.5.5s.5-.22.5-.5l.01-1.58 1.8.01v1.57c0 .28.23.5.5.5z"/><path d="m10.49 26.99h12.94c.28 0 .5-.22.5-.5s-.22-.5-.5-.5h-12.94c-.28 0-.5.22-.5.5s.22.5.5.5z"/><path d="m23.93 28.78c0-.28-.22-.5-.5-.5h-12.94c-.28 0-.5.22-.5.5s.22.5.5.5h12.94c.28 0 .5-.22.5-.5z"/><path d="m51.43 64.05h-33.95c-.56 0-1.05-.44-1.1-1l-1.78-17.18c-.03-.32.08-.63.29-.87s.51-.36.82-.36h37.48c.28 0 .5-.22.5-.5 0-.21-.13-.39-.32-.46v-9.58c0-1.16-.95-2.11-2.11-2.11h-11.24c-.57 0-1.12.23-1.51.63l-3.72 3.81h-17.14c-1.16 0-2.11.95-2.11 2.12v5.11c-.53.05-1.02.28-1.38.67-.4.44-.6 1.04-.54 1.64l1.78 17.19c.1 1.07 1.03 1.9 2.1 1.9h33.94c.28 0 .5-.22.5-.5s-.24-.51-.51-.51zm-.57-20.42h-32.8v-2.42c0-.66.53-1.2 1.19-1.2h30.42c.66 0 1.2.54 1.2 1.2v2.42zm-33.21-6.21h17.35c.13 0 .26-.05.36-.15l3.87-3.96c.2-.21.49-.33.79-.33h11.24c.61 0 1.11.5 1.11 1.11v9.54h-.51v-2.42c0-1.21-.99-2.2-2.2-2.2h-30.42c-1.21 0-2.19.99-2.19 2.2v2.42h-.52v-5.09c0-.61.5-1.12 1.12-1.12z"/><path d="m57.04 43.72c-.28 0-.5.22-.5.5v1.29c-5.08.26-9.14 4.46-9.14 9.6 0 5.31 4.32 9.63 9.63 9.63 2.41 0 4.67-.89 6.43-2.49l.23.23c.09.09.22.15.35.15s.26-.05.35-.15c1.86-1.86 2.92-4.28 3.04-6.87h.48c.28 0 .5-.22.5-.5.03-6.28-5.08-11.39-11.37-11.39zm10.38 10.89h-4.94c-.24-2.61-2.32-4.7-4.94-4.94v-4.94c5.34.26 9.63 4.55 9.88 9.88zm-10.38 4.97c-2.46 0-4.46-2-4.46-4.46s2-4.46 4.46-4.46h.01.01c2.45.01 4.45 2 4.45 4.46-.01 2.46-2.01 4.46-4.47 4.46zm0 4.17c-4.76 0-8.63-3.87-8.63-8.63 0-4.59 3.61-8.35 8.14-8.6v3.17c-2.78.25-4.97 2.59-4.97 5.44 0 3.01 2.45 5.46 5.46 5.46 1.33 0 2.55-.48 3.49-1.27l2.23 2.24c-1.57 1.4-3.58 2.19-5.72 2.19zm7.01-2.33-2.8-2.81c.69-.83 1.13-1.86 1.24-2.99h3.97c-.12 2.15-.96 4.18-2.41 5.8z"/><path d="m54.24 29.9c5.78 0 10.48-4.7 10.48-10.48s-4.71-10.47-10.48-10.47-10.48 4.7-10.48 10.48 4.7 10.47 10.48 10.47zm-6.23-3.36 2.52-2.52c1.02.82 2.31 1.32 3.71 1.32 1.12 0 2.17-.32 3.06-.86l2.54 2.57c-1.57 1.16-3.5 1.85-5.6 1.85-2.39 0-4.57-.89-6.23-2.36zm6.21-12.03h.02s.01 0 .02 0c2.7.01 4.9 2.21 4.9 4.92s-2.21 4.92-4.92 4.92-4.92-2.21-4.92-4.92 2.19-4.91 4.9-4.92zm9.49 4.91c0 2.77-1.2 5.26-3.1 6.99l-2.49-2.53c1.25-1.09 2.04-2.68 2.04-4.46 0-3.1-2.39-5.64-5.42-5.89v-3.56c4.99.27 8.97 4.4 8.97 9.45zm-9.97-9.45v3.56c-1.99.17-3.7 1.32-4.64 2.97l-2.98-1.94c1.58-2.62 4.38-4.42 7.62-4.59zm-8.09 5.48 3.01 1.96c.01 0 .02 0 .02.01-.23.63-.36 1.31-.36 2.01 0 1.5.56 2.87 1.49 3.91l-2.51 2.51c-1.56-1.69-2.53-3.94-2.53-6.42-.01-1.43.31-2.77.88-3.98z"/><path d="m52.46 21.43c-.19-.09-.42-.05-.55.1-.09.1-.13.2-.13.33 0 .1.03.19.09.28.06.08.14.15.22.18.55.23 1.14.38 1.77.43v.55c0 .11.03.2.11.27.07.06.16.1.26.1s.2-.04.27-.11.11-.16.11-.26v-.55c.39-.04.74-.13 1.04-.27.34-.16.59-.38.77-.66.18-.27.27-.58.27-.92 0-.41-.1-.75-.31-1.01-.2-.24-.46-.44-.76-.56-.27-.12-.62-.22-1.02-.32v-1.98c.42.02.81.1 1.18.23.08.03.14.04.18.04.14 0 .25-.05.34-.15.08-.09.12-.2.12-.32 0-.22-.11-.38-.31-.46-.45-.16-.95-.27-1.51-.3v-.53c0-.11-.04-.19-.12-.26-.15-.15-.39-.15-.53 0-.07.07-.1.16-.1.26v.55c-.41.04-.76.15-1.06.32-.32.18-.56.42-.72.7-.16.27-.25.58-.25.91 0 .38.11.7.31.95.19.24.44.43.74.56.26.12.59.23.98.34v1.9c-.48-.03-.94-.14-1.39-.34zm2.15-1.37c.35.11.62.21.8.33.18.11.27.26.27.46 0 .54-.35.84-1.07.92zm-1.48-1.56c-.18-.13-.27-.3-.27-.53 0-.25.1-.45.29-.6.18-.15.43-.24.72-.29v1.74c-.33-.09-.58-.19-.74-.32z"/></g></svg>