<svg id="Layer_1" enable-background="new 0 0 1600 1600" height="512" viewBox="0 0 1600 1600" width="512" xmlns="http://www.w3.org/2000/svg"><g><g fill="rgb(0,0,0)"><path d="m863.9 1179.5h-127.8c-13.3 0-24-10.7-24-24v-151.2l-359.1-489.3c-5.4-7.3-6.2-17-2.1-25 4.1-8.1 12.4-13.2 21.4-13.2h855.3c9 0 17.3 5.1 21.4 13.2s3.3 17.8-2.1 25l-359.1 489.3v151.2c.1 13.2-10.7 24-23.9 24zm-103.8-48h79.8v-135.1c0-5.1 1.6-10.1 4.7-14.2l335.7-457.4h-760.6l335.7 457.4c3 4.1 4.7 9.1 4.7 14.2z"/><path d="m1231.8 524.8h-863.6c-35.3 0-64-28.7-64-64v-26.3c0-35.3 28.7-64 64-64h863.6c35.3 0 64 28.7 64 64v26.3c0 17.1-6.6 33.2-18.7 45.3s-28.2 18.7-45.3 18.7zm-863.6-106.3c-8.8 0-16 7.2-16 16v26.3c0 8.8 7.2 16 16 16h863.6c4.3 0 8.3-1.7 11.3-4.7s4.7-7 4.7-11.3v-26.3c0-8.8-7.2-16-16-16z"/><g><path d="m497.6 418.5c-13.3 0-24-10.7-24-24v-73.5c0-13.3 10.7-24 24-24h39.9c6.7-28.5 18-55.8 33.5-80.7l-28.3-28.3c-9.4-9.4-9.4-24.6 0-33.9l52.9-52.9c9.4-9.4 24.6-9.4 33.9 0l28.3 28.3c24.9-15.5 52.3-26.8 80.7-33.5v-40c0-13.3 10.7-24 24-24h74.8c13.3 0 24 10.7 24 24v39.9c28.5 6.7 55.8 18 80.7 33.5l28.3-28.3c9.4-9.4 24.6-9.4 33.9 0l52.9 52.9c9.4 9.4 9.4 24.6 0 33.9l-28.3 28.3c15.5 24.9 26.8 52.3 33.5 80.7h39.9c13.3 0 24 10.7 24 24v73.5c0 13.3-10.7 24-24 24s-24-10.7-24-24v-49.4h-35.7c-11.9 0-21.9-8.7-23.7-20.4-5.3-34.9-19.3-68.5-40.3-97.1-7-9.6-6-22.8 2.4-31.2l25.3-25.3-19-19-25.3 25.3c-8.4 8.4-21.6 9.4-31.2 2.4-28.6-21-62.2-34.9-97.1-40.3-11.7-1.8-20.4-11.9-20.4-23.7v-35.7h-26.8v35.7c0 11.9-8.7 21.9-20.4 23.7-34.9 5.3-68.5 19.3-97.1 40.3-9.6 7-22.8 6-31.2-2.4l-25.3-25.3-19 19 25.3 25.3c8.4 8.4 9.4 21.6 2.4 31.2-21 28.6-34.9 62.2-40.3 97.1-1.8 11.7-11.9 20.4-23.7 20.4h-35.7v49.5c.2 13.3-10.5 24-23.8 24z"/><path d="m918.6 418.5c-2.3 0-4.7-.3-7-1-12.7-3.9-19.8-17.3-16-29.9 2.9-9.4 4.3-19.2 4.3-29.2 0-55.1-44.8-99.9-99.9-99.9s-99.9 44.8-99.9 99.9c0 9.9 1.5 19.8 4.3 29.2 3.9 12.7-3.3 26.1-16 29.9-12.7 3.9-26.1-3.3-29.9-16-4.2-13.9-6.4-28.4-6.4-43.1 0-81.6 66.4-147.9 147.9-147.9 81.6 0 147.9 66.4 147.9 147.9 0 14.7-2.1 29.2-6.4 43.1-3.1 10.4-12.6 17-22.9 17z"/></g></g><g><g><path d="m800 1568c-97.3 0-176.5-79.2-176.5-176.5s79.2-176.5 176.5-176.5 176.5 79.2 176.5 176.5-79.2 176.5-176.5 176.5zm0-305c-70.8 0-128.5 57.6-128.5 128.5s57.7 128.5 128.5 128.5 128.5-57.6 128.5-128.5-57.7-128.5-128.5-128.5z" fill="rgb(0,0,0)"/></g><g fill="rgb(0,0,0)"><g><path d="m800 1496.3c-13.3 0-24-10.7-24-24v-6c0-13.3 10.7-24 24-24s24 10.7 24 24v6c0 13.2-10.7 24-24 24z"/><path d="m800 1340.7c-13.3 0-24-10.7-24-24v-5.9c0-13.3 10.7-24 24-24s24 10.7 24 24v5.9c0 13.2-10.7 24-24 24z"/></g><path d="m857.8 1396.5c-5-7.3-12.5-13.3-22.3-17.8-6.2-2.8-17.3-6.1-33-9.6-19.8-4.5-23.5-7.6-23.6-7.7-1.5-1.4-2.1-2.8-2.1-5 0-1.9.5-4.3 4-7.1 2.3-1.8 7.3-4 18.4-4 8.3 0 14.6 1.6 18.2 4.5 2.4 1.9 4.1 4.7 5.1 8.2 2.4 8.2 9.7 13.7 18.2 13.7.4 0 .9 0 1.5-.1h.2c5.7-.4 10.9-3.4 14.2-8.1s4.3-10.5 2.7-16c-1.4-5.1-3.6-9.8-6.5-14.2-5.4-8.2-13.1-14.4-22.8-18.6-9.2-3.9-19.8-5.8-31.5-5.8-10.7 0-20.7 1.9-29.6 5.6-9.6 4-17.1 10-22.2 17.8s-7.7 16.3-7.7 25.4c0 8.3 2.2 16 6.5 22.8 4.2 6.7 10.5 12.3 18.8 16.6l.1.1c5.9 3.1 15.8 6.3 29.3 9.6 15.4 3.7 21.5 5.6 23.9 6.5 5.1 1.9 7.3 3.8 8.3 5.1 1.2 1.5 1.7 3.3 1.7 5.4 0 2.2-.7 4.3-2.1 6.2-1.5 2.1-4.1 3.8-7.7 5.2-4.3 1.7-9.4 2.5-15.2 2.5-6.6 0-12.5-1.1-17.6-3.3-4.6-2-7.9-4.5-9.8-7.4-1.3-1.9-2.3-4.2-3-6.9-2.3-8.3-9.9-14.1-18.4-14.1-.6 0-1.2 0-1.7.1-5.5.5-10.5 3.3-13.8 7.8s-4.4 10.2-3.1 15.6c1.5 6.4 4.1 12.5 7.8 18.1 6 9.1 14.3 16 24.6 20.4 9.8 4.2 21.9 6.4 36 6.4 11.4 0 21.9-2.2 31.3-6.4 9.7-4.4 17.4-10.9 22.7-19.1s8-17.2 8-26.6c-.2-9.7-2.7-18.3-7.8-25.8z"/></g></g></g></svg>