<svg id="Layer_1" height="512" viewBox="0 0 512 512" width="512" xmlns="http://www.w3.org/2000/svg" data-name="Layer 1"><path d="m256 0c-141.159 0-256 114.841-256 256s114.841 256 256 256 256-114.841 256-256-114.841-256-256-256zm0 496c-132.336 0-240-107.663-240-240s107.664-240 240-240 240 107.663 240 240-107.663 240-240 240zm0-452.059c-116.93 0-212.059 95.129-212.059 212.059s95.129 212.058 212.059 212.058 212.058-95.129 212.058-212.058-95.129-212.059-212.058-212.059zm0 408.117c-108.107 0-196.059-87.952-196.059-196.058s87.952-196.059 196.059-196.059 196.058 87.952 196.058 196.059-87.952 196.058-196.058 196.058zm-8-362.916v-8.4a8 8 0 0 1 16 0v8.4a8 8 0 0 1 -16 0zm120.329 54.528a8 8 0 0 1 0-11.314l5.94-5.939a8 8 0 0 1 11.313 11.313l-5.939 5.94a8 8 0 0 1 -11.314 0zm46.528 112.33a8 8 0 0 1 8-8h8.4a8 8 0 1 1 0 16h-8.4a8 8 0 0 1 -8-8zm-29.274 118.269a8 8 0 0 1 -11.315 11.313l-5.939-5.94a8 8 0 1 1 11.314-11.313zm-121.583 48.588v8.4a8 8 0 1 1 -16 0v-8.4a8 8 0 1 1 16 0zm-120.33-54.529a8 8 0 0 1 0 11.314l-5.939 5.94a8 8 0 1 1 -11.314-11.313l5.939-5.94a8 8 0 0 1 11.314-.001zm-46.528-112.328a8 8 0 0 1 -8 8h-8.4a8 8 0 0 1 0-16h8.4a8 8 0 0 1 8 8zm29.275-118.27a8 8 0 0 1 11.313-11.313l5.94 5.939a8 8 0 0 1 -11.314 11.314zm225.675 10.864-86.01 86.006a23.6 23.6 0 0 0 -20.165 0l-56.87-56.869a8 8 0 0 0 -11.313 11.313l56.87 56.87a23.658 23.658 0 1 0 42.792 0l86.009-86.01a8 8 0 1 0 -11.313-11.313zm-96.092 115.063a7.658 7.658 0 1 1 7.658-7.657 7.666 7.666 0 0 1 -7.658 7.657zm58.2 79.235h-116.4a8 8 0 0 0 -8 8v30.6a8 8 0 0 0 8 8h116.4a8 8 0 0 0 8-8v-30.6a8 8 0 0 0 -8-8zm-8 30.6h-100.4v-14.6h100.4z"/></svg>