<svg id="Capa_1" enable-background="new 0 0 512 512" height="512" viewBox="0 0 512 512" width="512" xmlns="http://www.w3.org/2000/svg"><g><g><path d="m231.306 80.422c-3.088 2.758-3.356 7.496-.598 10.584s7.496 3.355 10.584.599c3.974-3.55 9.102-5.503 14.438-5.503 5.538 0 10.809 2.085 14.842 5.873 1.447 1.359 3.29 2.032 5.13 2.032 1.997 0 3.99-.794 5.466-2.365 2.834-3.018 2.685-7.761-.333-10.595-6.824-6.406-15.739-9.936-25.105-9.936-9.025-.001-17.698 3.306-24.424 9.311z"/><path d="m219.162 67.785c9.985-8.915 22.864-13.825 36.263-13.825 13.906 0 27.144 5.239 37.276 14.752 1.447 1.359 3.29 2.031 5.129 2.031 1.997 0 3.991-.793 5.466-2.365 2.833-3.018 2.684-7.761-.334-10.595-12.922-12.133-29.805-18.814-47.538-18.814-17.087 0-33.512 6.262-46.248 17.633-3.088 2.757-3.356 7.496-.599 10.583 2.759 3.089 7.497 3.356 10.585.6z"/><path d="m434.512 142.907h-357.023c-10.837 0-19.655 8.817-19.655 19.655v206.722c0 10.837 8.817 19.655 19.655 19.655h357.023c10.837 0 19.654-8.817 19.654-19.655v-206.722c0-10.838-8.817-19.655-19.654-19.655zm4.663 226.376c0 2.572-2.092 4.663-4.663 4.663h-357.023c-2.571 0-4.663-2.092-4.663-4.663v-206.721c0-2.572 2.092-4.663 4.663-4.663h357.023c2.571 0 4.663 2.092 4.663 4.663z"/><path d="m492.127 409.489h-11.882c3.7-5.451 5.865-12.024 5.865-19.094v-36.573c0-4.14-3.356-7.496-7.496-7.496s-7.496 3.355-7.496 7.496v36.573c0 10.529-8.565 19.094-19.094 19.094h-392.048c-10.529 0-19.094-8.565-19.094-19.094v-248.945c0-10.528 8.565-19.094 19.094-19.094h392.049c10.529 0 19.094 8.565 19.094 19.094v177.465c0 4.14 3.356 7.496 7.496 7.496s7.496-3.355 7.496-7.496v-177.465c0-18.795-15.29-34.085-34.085-34.085h-392.05c-18.795 0-34.085 15.29-34.085 34.085v248.945c0 7.07 2.165 13.643 5.865 19.094h-11.882c-10.959 0-19.874 8.914-19.874 19.873 0 24.079 19.59 43.669 43.669 43.669h424.661c24.079 0 43.669-19.59 43.669-43.669.001-10.959-8.914-19.873-19.872-19.873zm-281.319 14.991h90.384v1.888c0 4.078-3.318 7.395-7.396 7.395h-75.591c-4.078 0-7.396-3.317-7.396-7.395v-1.888zm257.523 33.56h-424.662c-15.813 0-28.678-12.865-28.678-28.678 0-2.692 2.19-4.882 4.882-4.882h175.943v1.888c0 12.344 10.043 22.386 22.387 22.386h75.591c12.344 0 22.387-10.043 22.387-22.386v-1.888h175.943c2.692 0 4.882 2.19 4.882 4.882.003 15.813-12.862 28.678-28.675 28.678z"/><path d="m405.499 228.239h-90.424v-30.336c0-7.022-5.713-12.735-12.734-12.735h-121.428c-4.14 0-7.496 3.355-7.496 7.496s3.356 7.496 7.496 7.496h119.172v28.08h-90.424c-7.022 0-12.734 5.712-12.734 12.735v12.467h-10.817c-2.778 0-5.524.929-7.734 2.618l-32.549 24.886v-14.769c0-7.022-5.713-12.735-12.734-12.735h-24.333v-53.282h37.664c4.14 0 7.496-3.355 7.496-7.496s-3.356-7.496-7.496-7.496h-39.921c-7.022 0-12.735 5.712-12.735 12.735v57.795c0 7.022 5.713 12.735 12.735 12.735h24.333v17.078c0 4.88 2.718 9.254 7.092 11.416 1.805.893 3.738 1.332 5.658 1.332 2.733 0 5.442-.89 7.719-2.631l35.569-27.195h10.053v30.335c0 7.022 5.713 12.735 12.734 12.735h115.467l35.571 27.195c2.277 1.741 4.984 2.631 7.718 2.631 1.92 0 3.854-.439 5.659-1.332 4.374-2.162 7.092-6.536 7.092-11.415v-17.079h24.333c7.022 0 12.735-5.712 12.735-12.735v-57.793c-.002-7.023-5.715-12.736-12.737-12.736zm-2.256 68.272h-24.333c-7.022 0-12.734 5.712-12.734 12.735v14.769l-32.547-24.884c-2.208-1.689-4.956-2.62-7.736-2.62h-113.975v-53.281h191.325z"/></g></g></svg>