<svg id="Capa_1" enable-background="new 0 0 512 512" height="512" viewBox="0 0 512 512" width="512" xmlns="http://www.w3.org/2000/svg"><g><g><g><path d="m247.796 471.753h16.408c4.113 0 7.448-3.334 7.448-7.448s-3.335-7.448-7.448-7.448h-16.408c-4.113 0-7.448 3.334-7.448 7.448s3.335 7.448 7.448 7.448z"/><path d="m390.272 195.871c-4.113 0-7.448 3.334-7.448 7.448v213.292h-253.648v-28.969c0-4.114-3.335-7.448-7.448-7.448s-7.448 3.334-7.448 7.448v87.516c0 20.314 16.527 36.842 36.842 36.842h209.757c20.314 0 36.842-16.527 36.842-36.842v-271.84c-.001-4.113-3.335-7.447-7.449-7.447zm-7.448 279.287c0 12.101-9.845 21.946-21.945 21.946h-209.758c-12.101 0-21.946-9.844-21.946-21.946v-43.652h253.648v43.652z"/></g><path d="m360.879 0h-209.758c-20.314 0-36.842 16.527-36.842 36.842v316.358c0 4.114 3.335 7.448 7.448 7.448s7.448-3.334 7.448-7.448v-316.358c0-12.101 9.845-21.946 21.946-21.946h209.757c12.101 0 21.945 9.844 21.945 21.946v131.963c0 4.114 3.335 7.448 7.448 7.448s7.448-3.334 7.448-7.448v-131.963c.001-20.315-16.526-36.842-36.84-36.842z"/><path d="m363.037 47.855c0-4.114-3.335-7.448-7.448-7.448h-199.178c-4.113 0-7.448 3.334-7.448 7.448v98.194c0 4.114 3.335 7.448 7.448 7.448h199.179c4.113 0 7.448-3.334 7.448-7.448v-98.194zm-39.399 7.449-67.638 33.345-67.638-33.345zm-159.779 4.527 75.298 37.121-75.298 37.122zm24.503 78.77 67.638-33.345 67.638 33.345zm159.779-4.527-75.298-37.121 75.298-37.121z"/><path d="m189.393 255.28c8.888 0 16.861-2.917 23.053-8.433 1.214-1.08 2.369-2.271 3.433-3.54 2.643-3.152 2.231-7.85-.921-10.493-3.152-2.642-7.85-2.23-10.493.921-.6.717-1.247 1.384-1.924 1.986-3.473 3.094-7.897 4.663-13.148 4.663-14.08 0-25.534-11.455-25.534-25.535s11.455-25.534 25.534-25.534c5.118 0 10.053 1.506 14.271 4.356 3.409 2.302 8.039 1.406 10.341-2.003 2.303-3.408 1.406-8.038-2.002-10.341-6.691-4.52-14.509-6.909-22.611-6.909-22.293 0-40.43 18.137-40.43 40.43.001 22.295 18.138 40.432 40.431 40.432z"/><path d="m355.589 240.384h-119.692c-4.113 0-7.448 3.334-7.448 7.448s3.335 7.448 7.448 7.448h119.693c4.113 0 7.448-3.334 7.448-7.448-.001-4.113-3.335-7.448-7.449-7.448z"/><path d="m355.589 274.339h-91.127c-4.113 0-7.448 3.334-7.448 7.448s3.335 7.448 7.448 7.448h91.127c4.113 0 7.448-3.334 7.448-7.448s-3.334-7.448-7.448-7.448z"/><path d="m156.411 289.235h73.945c4.113 0 7.448-3.334 7.448-7.448s-3.335-7.448-7.448-7.448h-73.945c-4.113 0-7.448 3.334-7.448 7.448s3.334 7.448 7.448 7.448z"/><path d="m156.411 323.189h199.179c4.113 0 7.448-3.334 7.448-7.448s-3.335-7.448-7.448-7.448h-199.179c-4.113 0-7.448 3.334-7.448 7.448s3.334 7.448 7.448 7.448z"/><path d="m355.589 342.248h-14.811c-4.113 0-7.448 3.334-7.448 7.448s3.335 7.448 7.448 7.448h14.811c4.113 0 7.448-3.334 7.448-7.448s-3.334-7.448-7.448-7.448z"/><path d="m156.411 357.144h150.633c4.113 0 7.448-3.334 7.448-7.448s-3.335-7.448-7.448-7.448h-150.633c-4.113 0-7.448 3.334-7.448 7.448s3.334 7.448 7.448 7.448z"/><path d="m156.411 391.098h199.179c4.113 0 7.448-3.334 7.448-7.448s-3.335-7.448-7.448-7.448h-199.179c-4.113 0-7.448 3.334-7.448 7.448s3.334 7.448 7.448 7.448z"/></g></g></svg>