<svg id="Layer_1" enable-background="new 0 0 74 74" height="512" viewBox="0 0 74 74" width="512" xmlns="http://www.w3.org/2000/svg"><g><path d="m32.31 14.69h22.88c.93 0 1.69-.76 1.69-1.69s-.76-1.68-1.69-1.68h-22.88c-.93 0-1.68.76-1.68 1.68-.01.93.75 1.69 1.68 1.69zm0-2.37h22.88c.38 0 .69.31.69.68s-.31.69-.69.69h-22.88c-.37 0-.68-.31-.68-.69-.01-.38.3-.68.68-.68z"/><path d="m15.59 15.14c1.19 0 2.16-.95 2.16-2.12 0-1.21-.95-2.16-2.16-2.16s-2.16.95-2.16 2.16c0 1.17.97 2.12 2.16 2.12zm0-3.28c.65 0 1.16.51 1.16 1.16 0 .62-.52 1.12-1.16 1.12s-1.16-.5-1.16-1.12c0-.65.51-1.16 1.16-1.16z"/><path d="m20.87 15.14c1.19 0 2.16-.95 2.16-2.12 0-1.21-.95-2.16-2.16-2.16s-2.16.95-2.16 2.16c0 1.17.97 2.12 2.16 2.12zm0-3.28c.65 0 1.16.51 1.16 1.16 0 .62-.52 1.12-1.16 1.12s-1.16-.5-1.16-1.12c0-.65.51-1.16 1.16-1.16z"/><path d="m26.15 15.14c1.19 0 2.16-.95 2.16-2.12 0-1.21-.95-2.16-2.16-2.16s-2.16.95-2.16 2.16c0 1.17.97 2.12 2.16 2.12zm0-3.28c.65 0 1.16.51 1.16 1.16 0 .62-.52 1.12-1.16 1.12s-1.16-.5-1.16-1.12c0-.65.51-1.16 1.16-1.16z"/><path d="m55.87 44.92c-4.16 0-7.55 3.38-7.55 7.55s3.38 7.55 7.55 7.55 7.55-3.38 7.55-7.55-3.39-7.55-7.55-7.55zm0 14.09c-3.61 0-6.55-2.94-6.55-6.55s2.94-6.55 6.55-6.55 6.55 2.94 6.55 6.55-2.94 6.55-6.55 6.55z"/><path d="m56.57 51.12c.08 0 .16-.03.21-.08.06-.06.09-.13.09-.22 0-.08-.03-.16-.09-.22s-.13-.09-.21-.09h-2.15c-.09 0-.16.03-.23.09-.06.06-.09.15-.09.23v3.25c0 .09.03.16.09.23.06.06.14.09.23.09h2.15c.08 0 .16-.03.21-.08.06-.06.09-.13.09-.22 0-.08-.03-.16-.09-.21-.06-.06-.13-.09-.21-.09h-1.82v-1.03h1.63c.09 0 .16-.03.22-.09s.09-.13.09-.21c0-.09-.03-.16-.09-.22s-.13-.09-.22-.09h-1.63v-1.03h1.82z"/><path d="m52.83 52.37c-.18-.07-.41-.14-.69-.21-.21-.05-.38-.09-.5-.14-.12-.04-.21-.1-.29-.17-.07-.07-.1-.15-.1-.26 0-.16.08-.29.23-.38.16-.1.38-.15.65-.15.28 0 .57.04.83.14.05.02.09.03.12.03.09 0 .16-.03.21-.09s.08-.13.08-.21c0-.14-.07-.24-.2-.29-.32-.12-.69-.18-1.09-.18-.3 0-.57.05-.78.15-.22.11-.39.25-.51.43-.11.18-.17.38-.17.59 0 .25.07.45.21.61.13.15.3.26.49.33.18.07.42.15.71.21.21.06.38.11.5.15.11.03.2.09.27.15.06.06.09.13.09.21 0 .13 0 .54-.86.54-.36 0-.7-.07-1.02-.21-.11-.05-.26-.03-.35.06-.06.06-.08.13-.08.21 0 .06.02.12.06.18.04.05.08.09.14.11.4.18.85.27 1.31.27.28 0 .53-.04.75-.14.22-.09.39-.23.51-.4.13-.18.19-.37.19-.59 0-.26-.07-.47-.2-.63-.16-.14-.32-.25-.51-.32z"/><path d="m59.22 50.46c-.39 0-.73.08-1.03.25-.29.17-.52.41-.68.71s-.24.64-.25 1.03c.01.38.09.73.25 1.03s.39.54.68.71c.3.17.64.26 1.03.26.38 0 .73-.09 1.02-.26s.52-.41.68-.71.25-.64.25-1.03c-.01-.38-.09-.73-.25-1.02-.16-.3-.39-.54-.68-.72-.29-.17-.64-.25-1.02-.25zm1.31 2c0 .26-.06.5-.16.71-.11.21-.26.37-.45.49-.2.12-.43.18-.7.18-.28 0-.51-.06-.71-.18s-.35-.28-.45-.49c-.11-.21-.16-.45-.16-.71s.05-.5.16-.71c.1-.21.25-.37.45-.5.2-.11.44-.18.71-.18s.5.06.7.18.35.29.45.5c.1.2.16.44.16.71z"/><path d="m68.54 50.07-2.2-.52c-.08-.02-.15-.09-.18-.18-.19-.67-.47-1.33-.82-1.98-.05-.08-.05-.18 0-.25l1.18-1.94c.3-.49.22-1.12-.18-1.53l-1.66-1.67c-.41-.41-1.04-.49-1.54-.19l-1.94 1.19c-.08.05-.17.05-.25 0-.09-.05-.19-.09-.28-.13v-32.09c0-1.58-1.29-2.87-2.87-2.87h-44.29c-1.58 0-2.87 1.29-2.87 2.87v6.82.01s0 .01 0 .01v36.92l-5.66 5.66c-.31.31-.49.73-.49 1.17s.17.86.49 1.17l3.04 3.04c.31.31.73.49 1.17.49s.86-.17 1.17-.49l5.97-5.97h28.94l-.06.09c-.3.49-.23 1.13.18 1.54l1.66 1.67c.41.41 1.04.49 1.54.19l1.96-1.19c.07-.04.16-.04.24 0 .63.34 1.3.62 1.98.82.09.03.15.09.17.17l.54 2.22c.14.56.64.95 1.21.95h2.34c.58 0 1.08-.39 1.21-.95l.54-2.21c.02-.08.09-.15.18-.18.67-.19 1.33-.47 1.98-.82.09-.05.18-.05.25 0l1.94 1.19c.5.3 1.13.23 1.54-.19l1.66-1.67c.41-.41.48-1.04.18-1.53l-1.18-1.95c-.04-.07-.04-.16 0-.24.34-.63.62-1.3.82-1.98.03-.09.09-.15.17-.17l2.22-.54c.56-.14.96-.63.96-1.21v-2.36c0-.56-.39-1.06-.96-1.19zm-55.03-41.16h44.29c1.03 0 1.87.84 1.87 1.87v6.33h-48.03v-6.33c0-1.03.84-1.87 1.87-1.87zm35.28 20.67c-.27-.01-.48-.23-.48-.5v-5.24c0-.28.22-.5.5-.5h.02 5.4c.28 0 .5.22.5.5v5.24c0 .29-.21.5-.5.5zm-1.39 0h-9.83c-2.29-1.61-5.07-2.57-8.08-2.57s-5.79.96-8.08 2.57h-4.33c-.28 0-.5-.22-.5-.5v-5.24c0-.28.22-.5.5-.5h30.32c-.06.16-.09.33-.09.5v5.24c0 .18.03.35.09.5zm-17.91-1.56c7.21 0 13.08 5.87 13.08 13.08s-5.87 13.07-13.08 13.07-13.07-5.86-13.07-13.07c0-7.22 5.86-13.08 13.07-13.08zm-9.17 23.73-1.14 1.15-1.49-1.49 1.14-1.14c.46.53.96 1.02 1.49 1.48zm-1.07 2.63c.26.26.26.67 0 .93l-.79.79-3.97-3.97.79-.79c.13-.13.3-.19.47-.19s.34.06.47.19zm-5.47-1.55 3.97 3.97-1.97 1.97s-.01.01-.01.01l-4.61 4.61-3.97-3.97 4.3-4.3s.01-.01.01-.01zm-4.11 12.06c-.25.25-.68.25-.93 0l-3.04-3.04c-.13-.13-.19-.29-.19-.47s.07-.34.19-.47l.79-.79 3.97 3.97zm7.67-6.26 2.62-2.62c.65-.65.65-1.7 0-2.35l-.07-.07 1.22-1.23c2.34 1.75 5.24 2.79 8.38 2.79 7.76 0 14.08-6.31 14.08-14.07 0-4.18-1.84-7.93-4.75-10.51h9.94.04.02 5.4c.84 0 1.5-.66 1.5-1.5v-5.24c0-.83-.67-1.5-1.5-1.5h-37.14c-.83 0-1.5.67-1.5 1.5v5.24c0 .83.67 1.5 1.5 1.5h3.08c-2.9 2.58-4.74 6.33-4.74 10.51 0 3.14 1.05 6.03 2.79 8.38l-1.22 1.22-.07-.07c-.65-.65-1.7-.65-2.35 0l-2.92 2.92v-35.41h48.03v24.3c-.23-.09-.47-.18-.7-.25-.09-.03-.16-.09-.18-.17l-.54-2.21c-.14-.56-.64-.95-1.21-.95h-2.34c-.58 0-1.08.39-1.21.95l-.54 2.22c-.02.08-.08.14-.17.17-.68.2-1.34.48-1.98.82-.08.04-.17.04-.24 0l-1.96-1.19c-.49-.3-1.13-.22-1.54.19l-1.66 1.67c-.41.41-.48 1.04-.18 1.54l1.19 1.93c.04.07.04.16 0 .24-.34.62-.62 1.3-.83 2.01-.03.09-.09.15-.17.17l-2.21.53c-.56.14-.96.64-.96 1.22v2.36c0 .58.39 1.08.95 1.21l2.22.54c.08.02.14.08.17.17.21.7.49 1.37.83 1.99.05.08.05.17 0 .24l-.51.84h-28.57zm51.16-4.99c0 .12-.08.21-.19.24l-2.22.54c-.43.1-.76.42-.89.86-.18.61-.43 1.21-.74 1.78-.21.4-.21.86.02 1.24l1.18 1.95c.06.1.04.22-.04.3l-1.66 1.67c-.08.08-.21.1-.31.04l-1.94-1.19c-.38-.23-.85-.24-1.25-.02-.58.32-1.18.57-1.78.74-.43.13-.77.47-.88.9l-.54 2.21c-.03.11-.13.19-.24.19h-2.34c-.12 0-.21-.08-.24-.19l-.54-2.22c-.1-.42-.43-.76-.86-.89-.61-.18-1.21-.43-1.78-.74-.19-.1-.4-.16-.6-.16-.22 0-.44.06-.63.18l-1.96 1.19c-.1.06-.22.04-.31-.04l-1.66-1.67c-.08-.08-.1-.21-.04-.31l1.19-1.93c.23-.38.24-.85.02-1.25-.31-.56-.56-1.16-.75-1.79-.13-.43-.46-.75-.89-.86l-2.22-.54c-.11-.03-.19-.13-.19-.24v-2.36c0-.12.08-.22.19-.24l2.21-.53c.43-.1.77-.43.89-.86.19-.64.44-1.25.75-1.81.22-.4.21-.87-.02-1.25l-1.19-1.93c-.06-.1-.05-.22.04-.31l1.66-1.67c.08-.08.21-.1.31-.04l1.96 1.19c.38.23.84.24 1.24.02.57-.31 1.17-.56 1.78-.74.43-.13.76-.47.86-.89l.54-2.22c.03-.11.13-.19.24-.19h2.34c.12 0 .22.08.24.19l.54 2.21c.1.43.44.77.88.9.6.17 1.2.42 1.78.74.4.22.88.21 1.25-.02l1.94-1.19c.1-.06.23-.04.31.04l1.66 1.67c.08.08.1.21.04.3l-1.18 1.94c-.23.38-.24.85-.02 1.25.32.58.57 1.18.74 1.78.13.44.47.77.91.88l2.2.52c.11.03.19.13.19.24z"/><path d="m29.49 51.83c5.92 0 10.74-4.81 10.74-10.73s-4.82-10.74-10.74-10.74-10.73 4.82-10.73 10.74c0 5.91 4.81 10.73 10.73 10.73zm0-20.47c5.37 0 9.74 4.37 9.74 9.74s-4.37 9.73-9.74 9.73-9.73-4.37-9.73-9.73c0-5.37 4.36-9.74 9.73-9.74z"/><path d="m28.41 42.64c.1.1.23.15.35.15s.26-.05.35-.15l2.38-2.38c.2-.2.2-.51 0-.71s-.51-.2-.71 0l-2.03 2.03-.57-.57c-.2-.2-.51-.2-.71 0s-.2.51 0 .71z"/><path d="m29.49 49.51c4.64 0 8.41-3.77 8.41-8.41s-3.77-8.41-8.41-8.41-8.41 3.77-8.41 8.41 3.77 8.41 8.41 8.41zm-7.41-8.42c0-1.07.23-2.08.64-3l2.25 1.46c-.17.49-.28 1-.28 1.54 0 1.18.44 2.25 1.15 3.08l-1.86 1.86c-1.18-1.31-1.9-3.04-1.9-4.94zm7.4-3.79h.01s.01 0 .01 0c2.09.01 3.79 1.71 3.79 3.8s-1.7 3.8-3.8 3.8c-2.09 0-3.8-1.7-3.8-3.8s1.7-3.8 3.79-3.8zm-4.78 9.44 1.87-1.87c.81.63 1.82 1.02 2.92 1.02.88 0 1.69-.25 2.4-.67l1.88 1.91c-1.21.86-2.69 1.37-4.28 1.37-1.83.01-3.5-.66-4.79-1.76zm12.2-5.65c0 2.13-.91 4.05-2.35 5.4l-1.84-1.87c.96-.88 1.58-2.13 1.58-3.53 0-2.47-1.89-4.49-4.3-4.75v-2.64c3.85.27 6.91 3.48 6.91 7.39zm-7.91-7.38v2.64c-1.53.16-2.84 1.03-3.6 2.29l-2.2-1.43c1.23-1.98 3.35-3.34 5.8-3.5z"/></g></svg>