<svg id="Capa_1" enable-background="new 0 0 512 512" height="512" viewBox="0 0 512 512" width="512" xmlns="http://www.w3.org/2000/svg"><g><path d="m96 351h320c19.299 0 35-15.701 35-35v-140c0-19.299-15.701-35-35-35h-320c-19.299 0-35 15.701-35 35v140c0 19.299 15.701 35 35 35zm-5-175c0-2.757 2.243-5 5-5h320c2.757 0 5 2.243 5 5v140c0 2.757-2.243 5-5 5h-320c-2.757 0-5-2.243-5-5z"/><path d="m232.708 299.416 80-40c11.056-5.528 11.056-21.305 0-26.833l-80-40c-9.973-4.986-21.708 2.266-21.708 13.417v80c0 11.151 11.735 18.403 21.708 13.416zm8.292-69.145 31.459 15.729-31.459 15.729z"/><path d="m436 401h-47.58c-6.192-17.459-22.865-30-42.42-30s-36.228 12.541-42.42 30h-117.58c-8.284 0-15 6.716-15 15s6.716 15 15 15h117.58c6.192 17.459 22.865 30 42.42 30s36.228-12.541 42.42-30h47.58c8.284 0 15-6.716 15-15s-6.716-15-15-15zm-90 30c-8.271 0-15-6.729-15-15s6.729-15 15-15 15 6.729 15 15-6.729 15-15 15z"/><path d="m126 381c-8.284 0-15 6.716-15 15v40c0 8.284 6.716 15 15 15s15-6.716 15-15v-40c0-8.284-6.716-15-15-15z"/><path d="m76 451c8.284 0 15-6.716 15-15v-40c0-8.284-6.716-15-15-15s-15 6.716-15 15v40c0 8.284 6.716 15 15 15z"/><path d="m457 0h-402c-30.327 0-55 24.673-55 55v402c0 30.327 24.673 55 55 55h402c30.327 0 55-24.673 55-55v-402c0-30.327-24.673-55-55-55zm-427 55c0-13.785 11.215-25 25-25h307v50h-332zm452 402c0 13.785-11.215 25-25 25h-402c-13.785 0-25-11.215-25-25v-347h452zm0-377h-90v-50h65c13.785 0 25 11.215 25 25z"/></g></svg>