<svg id="Capa_1" enable-background="new 0 0 512 512" height="512" viewBox="0 0 512 512" width="512" xmlns="http://www.w3.org/2000/svg"><g><g><path d="m157.133 351.463h149.057c4.141 0 7.498-3.357 7.498-7.498s-3.357-7.498-7.498-7.498h-149.057c-4.141 0-7.498 3.357-7.498 7.498s3.357 7.498 7.498 7.498z"/><path d="m80.235 351.463h42.244c4.141 0 7.498-3.357 7.498-7.498s-3.357-7.498-7.498-7.498h-42.244c-4.141 0-7.498 3.357-7.498 7.498s3.357 7.498 7.498 7.498z"/><path d="m80.235 378.271h225.955c4.141 0 7.498-3.357 7.498-7.498s-3.357-7.498-7.498-7.498h-225.955c-4.141 0-7.498 3.357-7.498 7.498 0 4.142 3.357 7.498 7.498 7.498z"/><path d="m306.19 390.083h-53.393c-4.141 0-7.498 3.356-7.498 7.498s3.357 7.498 7.498 7.498h53.393c4.141 0 7.498-3.356 7.498-7.498s-3.357-7.498-7.498-7.498z"/><path d="m80.235 405.079h137.533c4.141 0 7.498-3.356 7.498-7.498s-3.357-7.498-7.498-7.498h-137.533c-4.141 0-7.498 3.356-7.498 7.498s3.357 7.498 7.498 7.498z"/><path d="m198.7 192.028h-118.465c-4.141 0-7.498 3.357-7.498 7.498v87.144c0 4.141 3.357 7.498 7.498 7.498h118.465c4.141 0 7.498-3.357 7.498-7.498v-87.144c0-4.142-3.357-7.498-7.498-7.498zm-7.498 87.143h-103.468v-72.147h103.468z"/><path d="m358.887 81.347h-278.652c-4.141 0-7.498 3.357-7.498 7.498v53.153c0 4.142 3.357 7.498 7.498 7.498h75.953c4.141 0 7.498-3.356 7.498-7.498s-3.357-7.498-7.498-7.498h-68.454v-38.157h263.655v38.157h-160.419c-4.141 0-7.498 3.357-7.498 7.498s3.357 7.498 7.498 7.498h167.917c4.141 0 7.498-3.356 7.498-7.498v-53.153c0-4.141-3.357-7.498-7.498-7.498z"/><path d="m477.035 232.94h-110.574c-4.141 0-7.498 3.357-7.498 7.498v30.031c0 4.142 3.357 7.498 7.498 7.498h110.573c4.141 0 7.498-3.357 7.498-7.498v-30.031c.001-4.141-3.356-7.498-7.497-7.498zm-7.499 30.031h-95.576v-15.034h95.577v15.034z"/><path d="m483.797 211.598h-47.989l.001-189.188c0-12.357-10.053-22.41-22.41-22.41h-387.672c-12.358 0-22.411 10.053-22.411 22.41l-.001 387.365c0 12.357 10.053 22.41 22.41 22.41h309.086v54.926c0 13.723 11.165 24.888 24.888 24.888h124.098c13.724 0 24.888-11.165 24.888-24.888v-250.625c0-13.723-11.164-24.888-24.888-24.888zm-465.485-189.188c0-4.088 3.326-7.414 7.414-7.414h387.672c4.088 0 7.414 3.326 7.414 7.414v31.599h-402.5zm-.001 46.595h402.5v92.833h-402.5v-92.833zm316.5 348.184h-309.086c-4.088 0-7.414-3.326-7.414-7.414v-85.419h316.5zm0-107.829h-316.499v-132.525h402.498v34.763h-54.425v-12.072c0-4.141-3.357-7.498-7.498-7.498h-118.465c-4.141 0-7.498 3.357-7.498 7.498v87.144c0 4.141 3.357 7.498 7.498 7.498h94.388v15.192zm0-72.874v42.685h-86.89v-72.147h103.468v6.006c-9.649 3.429-16.578 12.647-16.578 23.456zm158.878 250.626c0 5.455-4.437 9.892-9.892 9.892h-124.098c-5.455 0-9.892-4.437-9.892-9.892v-22.734h143.882zm0-37.73h-143.882v-57.719h143.882zm0-165.069h-82.902c-4.141 0-7.498 3.357-7.498 7.498s3.357 7.498 7.498 7.498h82.902v77.357h-143.882v-77.356h25.974c4.141 0 7.498-3.357 7.498-7.498 0-4.142-3.357-7.498-7.498-7.498h-25.974v-47.827c0-5.455 4.437-9.892 9.892-9.892h124.098c5.455 0 9.892 4.437 9.892 9.892z"/><path d="m420.713 415.813h56.321c4.141 0 7.498-3.357 7.498-7.498s-3.357-7.498-7.498-7.498h-56.321c-4.141 0-7.498 3.357-7.498 7.498s3.357 7.498 7.498 7.498z"/><path d="m366.461 415.813h20.366c4.141 0 7.498-3.357 7.498-7.498s-3.357-7.498-7.498-7.498h-20.366c-4.141 0-7.498 3.357-7.498 7.498s3.357 7.498 7.498 7.498z"/><path d="m366.461 440.228h110.573c4.141 0 7.498-3.357 7.498-7.498s-3.357-7.498-7.498-7.498h-110.573c-4.141 0-7.498 3.357-7.498 7.498s3.357 7.498 7.498 7.498z"/><path d="m358.963 319.127v37.721c0 4.141 3.357 7.498 7.498 7.498h44.229c4.141 0 7.498-3.357 7.498-7.498v-37.721c0-4.142-3.357-7.498-7.498-7.498h-44.229c-4.141 0-7.498 3.356-7.498 7.498zm14.997 7.498h29.233v22.725h-29.233z"/><path d="m432.805 364.346h44.229c4.141 0 7.498-3.357 7.498-7.498v-37.721c0-4.142-3.357-7.498-7.498-7.498h-44.229c-4.141 0-7.498 3.356-7.498 7.498v37.721c0 4.142 3.357 7.498 7.498 7.498zm7.498-37.721h29.233v22.725h-29.233z"/></g></g></svg>