<svg id="Capa_1" enable-background="new 0 0 512 512" height="512" viewBox="0 0 512 512" width="512" xmlns="http://www.w3.org/2000/svg"><g><g id="Page-1_46_"><g id="_x30_47---Layout"><path id="Shape_251_" d="m238.933 0h-221.866c-9.426 0-17.067 7.641-17.067 17.067v477.867c0 9.425 7.641 17.066 17.067 17.066h221.867c9.426 0 17.067-7.641 17.067-17.067v-477.866c-.001-9.426-7.642-17.067-17.068-17.067zm-221.866 494.933v-477.866h221.867v477.867h-221.867z"/><path id="Shape_250_" d="m494.933 221.867h-204.8c-9.426 0-17.067 7.641-17.067 17.067v256c0 9.426 7.641 17.067 17.067 17.067h204.8c9.426 0 17.067-7.641 17.067-17.067v-256c0-9.426-7.641-17.067-17.067-17.067zm0 273.066h-204.8v-256h204.8z"/><path id="Shape_249_" d="m494.933 0h-204.8c-9.426 0-17.067 7.641-17.067 17.067v170.667c0 9.426 7.641 17.067 17.067 17.067h204.8c9.426 0 17.067-7.641 17.067-17.067v-170.667c0-9.426-7.641-17.067-17.067-17.067zm0 17.067v129.707l-61.662-75.375c-1.621-1.978-4.043-3.125-6.601-3.125s-4.98 1.147-6.601 3.125l-38.016 46.438-17.067-20.83c-1.621-1.978-4.043-3.125-6.6-3.125s-4.98 1.147-6.601 3.125l-61.653 75.366v-155.306zm-77.738 170.666h-117.607l58.812-71.851zm22.05 0-46.165-56.431 33.587-41.028 68.267 83.439v14.02z"/><path id="Shape_248_" d="m76.8 68.267c4.713 0 8.533-3.821 8.533-8.533v-8.534h34.133v85.333h-8.533c-4.713 0-8.533 3.821-8.533 8.533 0 4.713 3.821 8.533 8.533 8.533h34.133c4.713 0 8.533-3.821 8.533-8.533 0-4.713-3.821-8.533-8.533-8.533h-8.533v-85.333h34.133v8.533c0 4.713 3.821 8.533 8.533 8.533s8.533-3.821 8.533-8.533v-17.066c0-4.713-3.82-8.533-8.533-8.533h-102.399c-4.713 0-8.533 3.821-8.533 8.533v17.067c0 4.712 3.82 8.533 8.533 8.533z"/><path id="Shape_247_" d="m213.333 179.2h-170.666c-4.713 0-8.533 3.821-8.533 8.533 0 4.713 3.821 8.533 8.533 8.533h170.667c4.713 0 8.533-3.821 8.533-8.533s-3.821-8.533-8.534-8.533z"/><path id="Shape_246_" d="m42.667 238.933h59.733c4.713 0 8.533-3.821 8.533-8.533s-3.821-8.533-8.533-8.533h-59.733c-4.713 0-8.533 3.82-8.533 8.533s3.82 8.533 8.533 8.533z"/><path id="Shape_245_" d="m162.133 238.933c4.713 0 8.533-3.821 8.533-8.533s-3.821-8.533-8.533-8.533h-25.6c-4.713 0-8.533 3.82-8.533 8.533s3.821 8.533 8.533 8.533z"/><path id="Shape_244_" d="m213.333 264.533h-170.666c-4.713 0-8.533 3.82-8.533 8.533s3.821 8.533 8.533 8.533h170.667c4.713 0 8.533-3.82 8.533-8.533s-3.821-8.533-8.534-8.533z"/><path id="Shape_243_" d="m42.667 324.267h76.8c4.713 0 8.533-3.821 8.533-8.533 0-4.713-3.821-8.533-8.533-8.533h-76.8c-4.713 0-8.533 3.821-8.533 8.533-.001 4.712 3.82 8.533 8.533 8.533z"/><path id="Shape_242_" d="m213.333 384h-170.666c-4.713 0-8.533 3.82-8.533 8.533s3.821 8.533 8.533 8.533h170.667c4.713 0 8.533-3.82 8.533-8.533s-3.821-8.533-8.534-8.533z"/><path id="Shape_241_" d="m85.333 426.667h-42.666c-4.713 0-8.533 3.82-8.533 8.533s3.821 8.533 8.533 8.533h42.667c4.713 0 8.533-3.821 8.533-8.533s-3.821-8.533-8.534-8.533z"/><path id="Shape_240_" d="m162.133 426.667h-42.667c-4.713 0-8.533 3.82-8.533 8.533s3.821 8.533 8.533 8.533h42.667c4.713 0 8.533-3.821 8.533-8.533s-3.82-8.533-8.533-8.533z"/><path id="Shape_239_" d="m409.6 409.6h-8.533v-8.533c0-4.713-3.82-8.533-8.533-8.533s-8.533 3.82-8.533 8.533v8.533h-8.533c-4.713 0-8.533 3.82-8.533 8.533s3.821 8.533 8.533 8.533h8.532v8.533c0 4.713 3.82 8.533 8.533 8.533s8.533-3.821 8.533-8.533v-8.533h8.533c4.713 0 8.533-3.82 8.533-8.533s-3.819-8.533-8.532-8.533z"/><path id="Shape_238_" d="m332.8 85.333c14.138 0 25.6-11.462 25.6-25.6s-11.462-25.6-25.6-25.6-25.6 11.462-25.6 25.6 11.462 25.6 25.6 25.6zm0-34.133c4.713 0 8.533 3.821 8.533 8.533s-3.82 8.533-8.533 8.533-8.533-3.821-8.533-8.533 3.82-8.533 8.533-8.533z"/><path id="Shape_237_" d="m392.533 358.4c-32.99 0-59.733 26.744-59.733 59.733s26.744 59.733 59.733 59.733 59.733-26.744 59.733-59.733c-.042-32.972-26.76-59.691-59.733-59.733zm0 102.4c-23.564 0-42.667-19.103-42.667-42.667s19.102-42.667 42.667-42.667c23.564 0 42.667 19.103 42.667 42.667-.028 23.553-19.114 42.639-42.667 42.667z"/><path id="Shape_236_" d="m315.733 281.6h153.6c4.713 0 8.533-3.82 8.533-8.533s-3.821-8.533-8.533-8.533h-153.6c-4.713 0-8.533 3.82-8.533 8.533s3.821 8.533 8.533 8.533z"/><path id="Shape_235_" d="m315.733 324.267h34.133c4.713 0 8.533-3.821 8.533-8.533 0-4.713-3.821-8.533-8.533-8.533h-34.133c-4.713 0-8.533 3.821-8.533 8.533s3.821 8.533 8.533 8.533z"/><path id="Shape_234_" d="m409.6 324.267c4.713 0 8.533-3.821 8.533-8.533 0-4.713-3.821-8.533-8.533-8.533h-25.6c-4.713 0-8.533 3.821-8.533 8.533 0 4.713 3.821 8.533 8.533 8.533z"/></g></g></g></svg>