<svg id="Capa_1" enable-background="new 0 0 512 512" height="512" viewBox="0 0 512 512" width="512" xmlns="http://www.w3.org/2000/svg"><g><g><path d="m120.179 231.875h-22.789c-4.14 0-7.495 3.355-7.495 7.495s3.355 7.495 7.495 7.495h22.789c4.14 0 7.495-3.355 7.495-7.495s-3.356-7.495-7.495-7.495z"/><path d="m188.12 231.875h-41.066c-4.14 0-7.495 3.355-7.495 7.495s3.355 7.495 7.495 7.495h41.066c4.14 0 7.495-3.355 7.495-7.495s-3.356-7.495-7.495-7.495z"/><path d="m97.39 216.273h72.453c4.14 0 7.495-3.355 7.495-7.495s-3.355-7.495-7.495-7.495h-72.453c-4.14 0-7.495 3.355-7.495 7.495s3.355 7.495 7.495 7.495z"/><path d="m97.39 185.681h22.789c4.14 0 7.495-3.355 7.495-7.495s-3.355-7.495-7.495-7.495h-22.789c-4.14 0-7.495 3.355-7.495 7.495s3.355 7.495 7.495 7.495z"/><path d="m224.227 170.692h-77.173c-4.14 0-7.495 3.355-7.495 7.495s3.355 7.495 7.495 7.495h77.173c4.14 0 7.495-3.355 7.495-7.495s-3.356-7.495-7.495-7.495z"/><path d="m105.629 362.484c3.683 1.497 8.248-.601 9.646-4.272.002-.005 4.007-10.521 4.007-10.521h27.366l3.963 10.5c1.461 3.872 5.787 5.83 9.658 4.365 3.872-1.461 5.827-5.785 4.365-9.658l-23.259-61.632c-.025-.068-.053-.136-.08-.204-1.381-3.356-4.615-5.523-8.249-5.523-3.631.004-6.865 2.177-8.241 5.537-.023.057-.046.114-.067.172 0 0-23.47 61.625-23.471 61.629-1.581 4.155.844 8.177 4.362 9.607zm27.399-50.886 7.964 21.103h-16.001z"/><path d="m195.015 360.602c4.034 0 7.854-.932 11.259-2.588 1.021 2.925 3.797 5.026 7.07 5.026 4.14 0 7.495-3.355 7.495-7.495v-41.534c0-4.14-3.355-7.495-7.495-7.495-3.273 0-6.049 2.101-7.07 5.026-3.405-1.656-7.225-2.588-11.259-2.588-14.239 0-25.824 11.585-25.824 25.824s11.585 25.824 25.824 25.824zm0-36.659c5.974 0 10.834 4.86 10.834 10.834s-4.86 10.834-10.834 10.834-10.834-4.86-10.834-10.834 4.86-10.834 10.834-10.834z"/><path d="m285.739 331.384c1.697.579 2.699 1.344 3.249 3.741v9.744c0 11.377 10.322 20.633 23.009 20.633 4.14 0 7.495-3.355 7.495-7.495s-3.355-7.495-7.495-7.495c-4.347 0-8.019-2.584-8.019-5.644v-10.49c0-.447-.04-.893-.119-1.332-.658-3.639-1.929-6.503-3.526-8.757 1.597-2.253 2.868-5.118 3.526-8.757.079-.439.119-.885.119-1.332v-10.49c0-3.059 3.672-5.644 8.019-5.644 4.14 0 7.495-3.355 7.495-7.495s-3.355-7.495-7.495-7.495c-12.687 0-23.009 9.256-23.009 20.633v9.744c-.55 2.397-1.552 3.162-3.249 3.741-3.036 1.034-5.077 3.886-5.077 7.094s2.04 6.061 5.077 7.096z"/><path d="m398.659 334.379v10.49c0 3.059-3.672 5.644-8.019 5.644-4.14 0-7.495 3.355-7.495 7.495s3.355 7.495 7.495 7.495c12.687 0 23.009-9.256 23.009-20.633v-9.743c.549-2.398 1.553-3.163 3.249-3.742 3.036-1.034 5.077-3.886 5.077-7.094s-2.041-6.059-5.077-7.094c-1.696-.579-2.699-1.344-3.249-3.742v-9.743c0-11.377-10.322-20.633-23.009-20.633-4.14 0-7.495 3.355-7.495 7.495s3.355 7.495 7.495 7.495c4.347 0 8.019 2.584 8.019 5.644v10.49c0 .447.04.894.12 1.334.658 3.638 1.929 6.501 3.525 8.755-1.596 2.253-2.867 5.117-3.525 8.755-.08.438-.12.885-.12 1.332z"/><path d="m336.353 362.862c.909.362 1.845.533 2.768.533 2.979 0 5.798-1.79 6.966-4.727l25.144-63.217c1.53-3.846-.347-8.205-4.194-9.734-3.844-1.532-8.203.348-9.734 4.194l-25.144 63.217c-1.53 3.847.347 8.205 4.194 9.734z"/><path d="m492.076 410.085h-11.88c3.699-5.45 5.864-12.022 5.864-19.092v-227.617c1.823-.931 3.557-2.123 5.128-3.694 5.097-5.098 6.234-11.91 7.237-17.919.918-5.498 2.562-9.617 5.842-14.148 3.445-4.761 7.733-10.687 7.733-18.178 0-7.492-4.288-13.418-7.734-18.179-3.292-4.548-4.918-8.627-5.841-14.147-1.002-6.01-2.139-12.821-7.237-17.92-5.098-5.097-11.91-6.234-17.919-7.237-5.864-.978-9.376-2.388-14.147-5.842-4.761-3.445-10.687-7.733-18.178-7.733-7.492 0-13.418 4.288-18.18 7.734-4.488 3.247-8.707 4.932-14.146 5.841-6.01 1.002-12.82 2.139-17.92 7.238-8.514 8.517-6.125 22.455-13.078 32.066-3.221 4.451-7.176 9.921-7.678 16.736h-309.972c-18.793 0-34.082 15.288-34.082 34.081v248.919c0 7.069 2.164 13.641 5.864 19.092h-11.88c-10.958-.001-19.872 8.914-19.872 19.871 0 24.076 19.588 43.664 43.665 43.664h75.261c4.14 0 7.495-3.355 7.495-7.495s-3.355-7.495-7.495-7.495h-75.261c-15.812 0-28.675-12.863-28.675-28.675 0-2.693 2.19-4.883 4.881-4.883h175.926v1.888c0 12.343 10.042 22.385 22.385 22.385h75.584c12.343 0 22.384-10.042 22.384-22.385v-1.888h175.926c2.691 0 4.881 2.19 4.881 4.883 0 15.811-12.863 28.675-28.675 28.675h-314.896c-4.14 0-7.495 3.355-7.495 7.495s3.355 7.495 7.495 7.495h314.896c24.076 0 43.665-19.588 43.665-43.664 0-10.957-8.914-19.872-19.871-19.872zm-102.314-310.039c4.732-6.541 7.156-12.525 8.482-20.469.664-3.974 1.35-8.084 3.053-9.786 1.703-1.703 5.812-2.389 9.787-3.053 7.865-1.313 13.974-3.784 20.468-8.482 3.473-2.513 6.753-4.887 9.391-4.887 2.637 0 5.917 2.373 9.391 4.888 6.539 4.733 12.423 7.138 20.468 8.482 3.974.664 8.084 1.35 9.786 3.053 1.703 1.703 2.389 5.812 3.052 9.787 1.282 7.677 3.927 14.172 8.483 20.468 2.513 3.473 4.887 6.753 4.887 9.391 0 2.637-2.373 5.917-4.887 9.39-4.601 6.357-7.201 12.786-8.483 20.468-.664 3.975-1.35 8.084-3.052 9.786-1.703 1.704-5.813 2.39-9.788 3.053-8.031 1.34-13.865 3.704-20.467 8.482-3.473 2.514-6.753 4.887-9.39 4.887-2.638 0-5.918-2.374-9.391-4.887-6.502-4.705-12.536-7.158-20.469-8.483-3.975-.664-8.084-1.35-9.786-3.052-1.703-1.703-2.389-5.813-3.053-9.787-1.277-7.648-3.912-14.15-8.483-20.468-2.514-3.473-4.887-6.753-4.887-9.39.001-2.638 2.375-5.918 4.888-9.391zm-56.596 127.902 22.002 23.596c1.476 1.584 3.477 2.384 5.483 2.384 1.83 0 3.666-.667 5.109-2.013 3.028-2.823 3.194-7.565.371-10.592l-7.627-8.179 38.752-35.87 41.874 44.908v16.862h-175.572v-23.814l41.005-37.956 5.016 5.379c2.823 3.028 7.564 3.194 10.592.371 3.028-2.822 3.194-7.565.371-10.592l-10.108-10.841c-2.814-3.02-7.544-3.194-10.573-.389l-36.303 33.603v-56.283h126.078c.335.395.684.783 1.061 1.16 5.098 5.097 11.91 6.234 17.923 7.238 5.697.95 9.422 2.425 14.144 5.841 4.37 3.161 9.724 7.023 16.366 7.639v39.803l-36.003-38.612c-2.814-3.02-7.543-3.194-10.573-.389l-44.272 40.979-4.152-4.453c-2.823-3.028-7.567-3.194-10.592-.371-3.029 2.822-3.195 7.564-.372 10.591zm105.912 46.086v95.854c0 2.567-2.089 4.657-4.657 4.657h-170.863v-100.511zm-137.917 152.929c0 4.078-3.317 7.395-7.395 7.395h-75.584c-4.078 0-7.395-3.317-7.395-7.395v-1.888h90.374zm169.909-35.97c0 10.527-8.564 19.092-19.092 19.092h-392.008c-10.528 0-19.092-8.564-19.092-19.092v-248.919c0-10.527 8.564-19.091 19.092-19.091h314.448c1.05 1.656 2.163 3.198 3.203 4.635 3.508 4.846 4.85 8.214 5.839 14.144.097.583.197 1.174.3 1.769 0 0-306.28 0-306.302.001h-.034c-5.493 0-9.912 1.82-13.841 5.669-3.702 3.626-5.755 8.829-5.755 13.981v206.702c0 10.836 8.815 19.651 19.652 19.651h356.987c10.836 0 19.653-8.815 19.653-19.651v-193.691c1.798-1.117 3.462-2.319 5.003-3.433 3.839-2.778 7.257-4.628 11.947-5.465zm-398.022-131.959v-96.161c0-2.094 1.455-3.927 3.506-4.35.299-.062 172.015 0 172.015 0v100.512h-175.521zm175.521 14.99v100.523h-171.089c-2.57 0-4.662-2.091-4.662-4.662v-95.861z"/><path d="m428.995 135.394c1.427 1.719 3.542 2.709 5.769 2.709.09 0 .182-.002.272-.005 2.324-.085 4.478-1.243 5.828-3.136l30.224-42.345c2.405-3.37 1.623-8.05-1.746-10.455-3.372-2.405-8.05-1.622-10.455 1.746l-24.569 34.424-11.651-14.044c-2.643-3.186-7.367-3.624-10.554-.983-3.185 2.644-3.625 7.368-.983 10.554z"/></g></g></svg>