<svg id="Layer_1" enable-background="new 0 0 74 74" height="512" viewBox="0 0 74 74" width="512" xmlns="http://www.w3.org/2000/svg"><g><path d="m19.16 30.56c0 .8.66 1.45 1.46 1.45s1.45-.65 1.45-1.45c0-.81-.65-1.46-1.45-1.46s-1.46.65-1.46 1.46zm1.92 0c0 .25-.2.45-.45.45s-.46-.2-.46-.45c0-.26.2-.46.46-.46.24 0 .45.21.45.46z"/><path d="m6.71 28.86v3.39c0 .28.22.5.5.5s.5-.22.5-.5v-3.39c0-.28-.22-.5-.5-.5s-.5.22-.5.5z"/><path d="m8.63 28.86v3.39c0 .28.22.5.5.5s.5-.22.5-.5v-3.39c0-.28-.22-.5-.5-.5s-.5.22-.5.5z"/><path d="m10.56 28.86v3.39c0 .28.22.5.5.5s.5-.22.5-.5v-3.39c0-.28-.22-.5-.5-.5s-.5.22-.5.5z"/><path d="m14.42 28.86v3.39c0 .28.22.5.5.5s.5-.22.5-.5v-3.39c0-.28-.22-.5-.5-.5s-.5.22-.5.5z"/><path d="m12.49 28.86v3.39c0 .28.22.5.5.5s.5-.22.5-.5v-3.39c0-.28-.22-.5-.5-.5s-.5.22-.5.5z"/><path d="m20.62 20.42c-.81 0-1.46.66-1.46 1.46s.66 1.45 1.46 1.45 1.45-.65 1.45-1.45c.01-.81-.64-1.46-1.45-1.46zm0 1.91c-.25 0-.46-.2-.46-.45 0-.26.2-.46.46-.46.25 0 .45.21.45.46.01.25-.2.45-.45.45z"/><path d="m23.85 20.42c-.81 0-1.46.66-1.46 1.46s.66 1.45 1.46 1.45 1.45-.65 1.45-1.45c0-.81-.65-1.46-1.45-1.46zm0 1.91c-.25 0-.46-.2-.46-.45 0-.26.2-.46.46-.46.25 0 .45.21.45.46s-.2.45-.45.45z"/><path d="m27.08 20.42c-.81 0-1.46.66-1.46 1.46s.66 1.45 1.46 1.45 1.45-.65 1.45-1.45c0-.81-.65-1.46-1.45-1.46zm0 1.91c-.25 0-.46-.2-.46-.45 0-.26.2-.46.46-.46.25 0 .45.21.45.46s-.2.45-.45.45z"/><path d="m7.21 19.68c-.28 0-.5.22-.5.5v3.39c0 .28.22.5.5.5s.5-.22.5-.5v-3.39c0-.28-.22-.5-.5-.5z"/><path d="m9.13 19.68c-.28 0-.5.22-.5.5v3.39c0 .28.22.5.5.5s.5-.22.5-.5v-3.39c0-.28-.22-.5-.5-.5z"/><path d="m11.06 19.68c-.28 0-.5.22-.5.5v3.39c0 .28.22.5.5.5s.5-.22.5-.5v-3.39c0-.28-.23-.5-.5-.5z"/><path d="m14.92 19.68c-.28 0-.5.22-.5.5v3.39c0 .28.22.5.5.5s.5-.22.5-.5v-3.39c0-.28-.23-.5-.5-.5z"/><path d="m12.99 19.68c-.28 0-.5.22-.5.5v3.39c0 .28.22.5.5.5s.5-.22.5-.5v-3.39c0-.28-.22-.5-.5-.5z"/><path d="m7.21 37.04c-.28 0-.5.22-.5.5v3.39c0 .28.22.5.5.5s.5-.22.5-.5v-3.39c0-.27-.22-.5-.5-.5z"/><path d="m8.63 37.54v3.39c0 .28.22.5.5.5s.5-.22.5-.5v-3.39c0-.28-.22-.5-.5-.5s-.5.23-.5.5z"/><path d="m10.56 37.54v3.39c0 .28.22.5.5.5s.5-.22.5-.5v-3.39c0-.28-.22-.5-.5-.5s-.5.23-.5.5z"/><path d="m14.42 37.54v3.39c0 .28.22.5.5.5s.5-.22.5-.5v-3.39c0-.28-.22-.5-.5-.5s-.5.23-.5.5z"/><path d="m12.49 37.54v3.39c0 .28.22.5.5.5s.5-.22.5-.5v-3.39c0-.28-.22-.5-.5-.5s-.5.23-.5.5z"/><path d="m66.45 46.77v-13.96c0-.02-.01-.04-.01-.06 1.81-2.44 2.88-5.45 2.88-8.72 0-8.1-6.59-14.69-14.69-14.69-4.65 0-8.78 2.18-11.48 5.57-.63-.22-1.3-.35-2.01-.35-3.34 0-6.06 2.72-6.06 6.06 0 3.01 2.21 5.51 5.09 5.97.3 1.72.9 3.32 1.75 4.77h-17.15c-1.56 0-2.83 1.27-2.83 2.83v19.19h-7.27c-.19-.94-.92-1.68-1.84-1.91v-8.37h7.61c.28 0 .5-.22.5-.5s-.22-.5-.5-.5h-14.36c-.22 0-.4-.18-.4-.41v-4.91c0-.23.18-.41.4-.41h1.55 12.81c.28 0 .5-.22.5-.5s-.22-.5-.5-.5h-12.31v-.95h12.32c.28 0 .5-.22.5-.5 0 0 0 0 0-.01s0 0 0-.01c0-.28-.22-.5-.5-.5h-14.37c-.22 0-.4-.18-.4-.4v-4.9c0-.23.18-.41.4-.41h23.07c.22 0 .41.19.41.41v1.76c0 .28.22.5.5.5s.5-.22.5-.5v-1.76c0-.78-.63-1.41-1.41-1.41h-1.05v-.96h1.05c.77 0 1.4-.63 1.4-1.4v-4.91c0-.77-.63-1.4-1.4-1.4h-23.07c-.77 0-1.4.63-1.4 1.4v4.91c0 .77.63 1.4 1.4 1.4h1.05v.96h-1.05c-.77 0-1.4.63-1.4 1.41v4.91c0 .77.63 1.4 1.4 1.4h1.05v.96h-1.05c-.77 0-1.4.63-1.4 1.41v4.91c0 .78.63 1.41 1.4 1.41h5.75v8.32c-1.19.19-2.11 1.22-2.11 2.46 0 1.38 1.12 2.5 2.5 2.5 1.21 0 2.22-.86 2.45-2h7.27v2.12c0 1.56 1.27 2.83 2.83 2.83h9.68v2.71h-3.03c-.72 0-1.31.59-1.31 1.31s.59 1.31 1.31 1.31h16.48c.72 0 1.31-.59 1.31-1.31s-.59-1.31-1.31-1.31h-3.03v-2.71h9.68c1.56 0 2.83-1.27 2.83-2.83v-6.57h6.07c.32 1.01 1.26 1.75 2.37 1.75 1.38 0 2.5-1.12 2.5-2.5.01-1.16-.79-2.13-1.87-2.41zm-60.77-22.44v-4.91c0-.22.18-.4.4-.4h23.07c.22 0 .4.18.4.4v4.91c0 .22-.18.4-.4.4h-23.07c-.22 0-.4-.18-.4-.4zm2.45 2.36v-.95h18.97v.95zm4.09 28.69c-.83 0-1.5-.67-1.5-1.5s.67-1.5 1.5-1.5 1.5.67 1.5 1.5-.67 1.5-1.5 1.5zm50.82-20.38c-.82-.67-1.72-1.24-2.66-1.69 1.03-2.5 1.62-5.63 1.66-8.85h6.41c-.13 4.16-2.09 7.99-5.41 10.54zm-5.86-1.85c.71.15 1.42.34 2.1.62-.56 1.17-1.2 2.1-1.9 2.79v-2.37c0-.37-.07-.72-.2-1.04zm2.85.94c.8.38 1.56.86 2.29 1.43-1.46.98-3.07 1.66-4.79 2.03.94-.8 1.8-1.98 2.5-3.46zm8.42-10.49h-6.41c-.04-3.22-.63-6.35-1.66-8.85.94-.45 1.83-1.01 2.66-1.69 3.32 2.55 5.28 6.38 5.41 10.54zm-6.13-11.06c-.72.57-1.49 1.05-2.29 1.43-.7-1.48-1.56-2.67-2.5-3.46 1.72.37 3.32 1.05 4.79 2.03zm-7.26-2.31c1.59.22 3.08 1.65 4.21 4.06-1.35.54-2.77.84-4.21.89zm0 5.81c1.56-.05 3.1-.38 4.56-.96.97 2.38 1.52 5.4 1.57 8.52h-6.13zm6.13 8.42c-.05 3.12-.6 6.14-1.57 8.52-1.01-.41-2.06-.68-3.12-.83-.39-.37-.89-.63-1.44-.73v-6.95h6.13zm-12.09 6.9c-.62-2.06-.99-4.45-1.03-6.9h6.13v6.9zm5.1-7.76h-6.13c.05-3.12.6-6.14 1.57-8.52 1.46.58 2.99.91 4.56.96zm0-13.37v4.95c-1.45-.05-2.86-.35-4.22-.89 1.14-2.41 2.63-3.84 4.22-4.06zm-2.47.28c-.94.79-1.8 1.98-2.51 3.46-.79-.38-1.56-.86-2.28-1.43 1.46-.98 3.07-1.66 4.79-2.03zm-5.52 2.55c.83.68 1.73 1.24 2.67 1.69-1.03 2.5-1.62 5.63-1.66 8.85h-.81c.5-.88.79-1.9.79-2.98 0-2.32-1.31-4.33-3.23-5.35.66-.81 1.4-1.56 2.24-2.21zm-10.12 7.56c0-2.79 2.27-5.06 5.06-5.06s5.06 2.27 5.06 5.06-2.27 5.06-5.06 5.06c-2.79-.01-5.06-2.27-5.06-5.06zm4.99 6.05h.07c1.88 0 3.57-.86 4.68-2.21h1.4c.03 2.44.39 4.81 1 6.9h-5.29c-.91-1.43-1.54-3.01-1.86-4.69zm-18.14 7.52c0-1.01.82-1.83 1.83-1.83h29.78c1.01 0 1.83.82 1.83 1.83v16.78c0 1.01-.82 1.83-1.83 1.83h-29.78c-1.01 0-1.83-.82-1.83-1.83zm25.26 29.16c0 .17-.14.31-.31.31h-16.47c-.17 0-.31-.14-.31-.31s.14-.31.31-.31h3.5.02s.02 0 .02 0h9.37.02s.02 0 .02 0h3.5c.2.01.33.14.33.31zm-4.33-1.3h-8.42v-2.71h8.42zm10.68-3.72h-10.17s0 0 0 0h-9.41s0 0 0 0h-10.2c-1.01 0-1.83-.82-1.83-1.83v-3.39c.49.42 1.13.69 1.83.69h29.78c.7 0 1.33-.27 1.83-.69v3.39c0 1.01-.82 1.83-1.83 1.83zm2.83-19.89c3.17-.6 5.97-2.22 8.07-4.51v12.78c-1.12.17-1.98 1.08-2.1 2.21h-5.97zm8.45 12.24c-.83 0-1.5-.67-1.5-1.5s.67-1.5 1.5-1.5 1.5.67 1.5 1.5-.68 1.5-1.5 1.5z"/><path d="m24.77 52.06h29.78c.6 0 1.08-.49 1.08-1.08v-16.79c0-.6-.49-1.08-1.08-1.08h-29.78c-.6 0-1.08.49-1.08 1.08v16.78c0 .6.48 1.09 1.08 1.09zm-.08-17.87c0-.05.04-.08.08-.08h29.78c.05 0 .08.04.08.08v16.78c0 .05-.04.08-.08.08h-29.78c-.05 0-.08-.04-.08-.08z"/><path d="m39.65 54.44c-.97 0-1.76.8-1.76 1.77s.79 1.77 1.76 1.77c.98 0 1.77-.79 1.77-1.77s-.79-1.77-1.77-1.77zm0 2.55c-.41 0-.76-.35-.76-.77 0-.43.34-.77.76-.77.43 0 .77.35.77.77.01.41-.35.77-.77.77z"/><path d="m39.17 43.04 1.03.25c.1.31.22.61.38.9l-.55.91c-.21.34-.15.78.13 1.07l.83.83c.29.29.73.34 1.07.13l.9-.55c.3.16.6.29.91.38l.25 1.03c.1.39.45.67.85.67h1.17c.4 0 .75-.28.85-.67l.25-1.03c.31-.1.61-.22.9-.38l.91.55c.35.21.79.16 1.07-.13l.83-.83c.29-.29.34-.73.12-1.07l-.55-.89c.15-.29.28-.59.38-.91l1.03-.25c.39-.09.67-.44.67-.85v-1.17c0-.41-.28-.76-.67-.85l-1.03-.25c-.1-.32-.23-.63-.38-.92l.55-.89c.21-.35.16-.79-.12-1.07l-.82-.83c-.29-.29-.73-.34-1.07-.13l-.91.55c-.29-.15-.59-.28-.9-.38l-.25-1.03c-.1-.39-.44-.67-.85-.67h-1.17c-.4 0-.75.27-.85.67l-.25 1.03c-.31.09-.61.22-.91.38l-.9-.55c-.35-.21-.79-.16-1.08.13l-.83.83c-.28.29-.34.73-.13 1.07l.55.91c-.16.3-.29.6-.38.91l-1.02.24c-.4.09-.67.44-.67.85v1.17c0 .4.27.75.66.84zm.34-1.92 1-.24c.3-.07.54-.31.63-.61.08-.28.2-.56.35-.84.15-.27.14-.61-.02-.87l-.54-.89.69-.69.88.54c.26.16.6.17.88.02.27-.15.56-.27.84-.35.3-.09.54-.33.61-.63l.24-1h.97l.25 1.01c.07.3.3.54.6.63.29.09.57.2.84.35s.6.14.87-.02l.89-.54.68.69-.54.88c-.16.26-.17.6-.02.87.15.26.26.55.35.85s.33.53.63.6l1.01.24v.98l-1.01.25c-.3.07-.54.3-.63.6s-.21.58-.35.84c-.15.28-.15.61.02.88l.54.88-.68.69-.89-.54c-.26-.16-.6-.17-.87-.02s-.55.26-.84.35c-.3.09-.53.33-.6.62l-.25 1.01h-.97l-.24-1c-.07-.3-.31-.54-.61-.63-.28-.08-.56-.2-.84-.35-.27-.15-.61-.14-.88.02l-.88.54-.69-.69.54-.89c.16-.26.16-.59.02-.87-.15-.27-.26-.55-.35-.84-.09-.3-.33-.53-.63-.6l-1.01-.25v-.98z"/><path d="m45.55 45.16c1.97 0 3.57-1.6 3.57-3.56 0-1.97-1.6-3.57-3.57-3.57-1.96 0-3.56 1.6-3.56 3.57s1.6 3.56 3.56 3.56zm0-6.12c1.42 0 2.57 1.15 2.57 2.57 0 1.41-1.15 2.56-2.57 2.56-1.41 0-2.56-1.15-2.56-2.56 0-1.42 1.15-2.57 2.56-2.57z"/><path d="m27.41 46.48.77.18c.2.56.49 1.07.86 1.44l-.22.82c-.11.41.07.84.43 1.05l.86.5c.36.21.83.16 1.13-.14l.56-.58c.57.11 1.2.13 1.66-.02l.61.6c.18.18.42.27.66.27.16 0 .32-.04.47-.13l.86-.5c.36-.21.54-.64.43-1.05l-.23-.76c.38-.44.67-.94.82-1.46l.83-.23c.4-.11.69-.48.69-.9v-.97c0-.42-.28-.79-.69-.9l-.78-.19c-.19-.55-.49-1.06-.86-1.43l.22-.82c.11-.41-.07-.84-.43-1.05l-.86-.5c-.36-.21-.83-.15-1.13.14l-.56.58c-.56-.11-1.14-.11-1.69 0l-.58-.58c-.3-.3-.76-.36-1.13-.14l-.86.5c-.37.21-.54.64-.43 1.05l.23.76c-.38.44-.67.94-.82 1.47l-.82.22c-.41.11-.69.48-.69.9v.98c0 .41.28.78.69.89zm1.08-2.04c.29-.08.53-.3.63-.6.15-.44.38-.84.68-1.18.21-.24.28-.56.2-.85l-.25-.75.78-.51.61.6c.22.21.53.31.84.25.44-.08.9-.08 1.34 0 .31.06.62-.03.84-.25l.53-.59.83.43-.22.82c-.08.3 0 .62.2.85.3.34.53.74.68 1.17.1.29.34.52.63.6l.78.17.05.92-.83.23c-.29.08-.53.3-.63.6-.15.43-.38.83-.68 1.17-.21.24-.28.56-.2.86l.25.75-.78.51-.61-.6c-.17-.17-.41-.27-.66-.27-.06 0-.12.01-.18.02-.45.09-.89.09-1.34 0-.31-.06-.62.03-.84.25l-.53.59-.83-.42.22-.82c.08-.29 0-.61-.2-.85-.3-.34-.53-.74-.68-1.18-.1-.3-.34-.52-.64-.6l-.77-.16-.05-.92z"/><path d="m32.66 48.14c1.68 0 3.05-1.37 3.05-3.06 0-1.68-1.37-3.05-3.05-3.05-1.69 0-3.06 1.37-3.06 3.05.01 1.69 1.38 3.06 3.06 3.06zm0-5.1c1.13 0 2.05.92 2.05 2.05s-.92 2.06-2.05 2.06-2.06-.92-2.06-2.06c.01-1.13.93-2.05 2.06-2.05z"/><path d="m44.26 18.98c-.2-.2-.51-.2-.71 0l-3.31 3.3-1.5-1.5c-.2-.2-.51-.2-.71 0s-.2.51 0 .71l1.5 1.5c.19.19.44.29.71.29s.52-.1.72-.3l3.3-3.3c.19-.19.19-.51 0-.7z"/></g></svg>