<svg id="Layer_1" enable-background="new 0 0 74 74" height="512" viewBox="0 0 74 74" width="512" xmlns="http://www.w3.org/2000/svg"><g><path d="m59.87 19.56c.01-.16.01-.33.01-.49 0-7.01-5.71-12.72-12.72-12.72-4.12 0-7.93 1.96-10.3 5.26-1.15-.64-2.45-.98-3.79-.98-4.37 0-7.93 3.56-7.93 7.93 0 .45.03.85.08 1.21-1.89.39-3.61 1.3-4.99 2.67-.2.19-.2.51-.01.71.2.2.51.2.71.01 1.36-1.34 3.07-2.19 4.95-2.48.14-.02.26-.1.34-.22s.1-.26.07-.4c-.11-.42-.15-.88-.15-1.49 0-3.82 3.11-6.93 6.93-6.93 1.31 0 2.58.37 3.66 1.07.23.15.54.08.69-.14 2.16-3.26 5.8-5.21 9.74-5.21 6.46 0 11.72 5.26 11.72 11.72 0 .21-.01.41-.02.62l-.01.35c0 .13.06.27.16.36.09.1.24.15.37.15 4.99 0 9.05 4.06 9.05 9.05 0 5-4.06 9.07-9.05 9.07h-13.53c-.28 0-.5.22-.5.5s.22.5.5.5h13.54c5.54 0 10.05-4.52 10.05-10.07 0-5.38-4.24-9.77-9.57-10.05z"/><path d="m31.47 18.61c-.08-.07-.17-.11-.27-.11h-.14c-.07 0-.14.02-.22.05l-.89.46c-.14.07-.21.18-.21.33 0 .1.03.19.1.25.06.07.15.1.25.1.05 0 .11-.02.18-.05l.56-.28v3.13h-.71c-.1 0-.18.04-.25.1-.07.07-.1.15-.1.25s.03.18.1.25c.06.07.15.1.25.1h2.02c.1 0 .18-.03.25-.1.07-.06.1-.15.1-.25s-.03-.18-.1-.25-.15-.1-.25-.1h-.57v-3.62c.01-.09-.03-.18-.1-.26z"/><path d="m35.13 23.27c.59 0 1.05-.22 1.37-.66.31-.43.47-1.02.47-1.75s-.16-1.32-.47-1.75c-.32-.44-.78-.66-1.37-.66-.6 0-1.06.22-1.37.66-.31.43-.47 1.02-.47 1.75s.16 1.32.47 1.75c.31.44.78.66 1.37.66zm-.81-3.69c.19-.3.46-.44.81-.44.36 0 .62.15.81.44.19.31.29.73.29 1.28s-.1.98-.29 1.28-.46.44-.81.44c-.36 0-.62-.15-.81-.44-.19-.31-.29-.74-.29-1.28 0-.55.1-.97.29-1.28z"/><path d="m39.24 23.27c.59 0 1.05-.22 1.37-.66.31-.43.47-1.02.47-1.75s-.16-1.32-.47-1.75c-.32-.44-.78-.66-1.37-.66-.6 0-1.06.22-1.37.66-.31.43-.47 1.02-.47 1.75s.16 1.32.47 1.75c.31.44.77.66 1.37.66zm-.81-3.69c.19-.3.46-.44.81-.44.36 0 .62.15.81.44.19.31.29.73.29 1.28s-.1.98-.29 1.28-.46.44-.81.44c-.36 0-.62-.15-.81-.44-.19-.31-.29-.74-.29-1.28-.01-.55.09-.97.29-1.28z"/><path d="m43.78 18.61c-.08-.07-.17-.11-.27-.11h-.14c-.07 0-.14.02-.22.05l-.89.46c-.14.07-.21.18-.21.33 0 .1.03.19.1.25.06.07.15.1.25.1.05 0 .11-.02.18-.05l.56-.28v3.13h-.71c-.1 0-.18.04-.25.1-.07.07-.1.15-.1.25s.03.18.1.25.15.1.25.1h2.02c.1 0 .18-.03.25-.1.07-.06.1-.15.1-.25s-.03-.18-.1-.25-.15-.1-.25-.1h-.57v-3.62c.01-.09-.03-.18-.1-.26z"/><path d="m47.44 23.27c.59 0 1.05-.22 1.37-.66.31-.43.47-1.02.47-1.75s-.16-1.32-.47-1.75c-.32-.44-.78-.66-1.37-.66-.6 0-1.06.22-1.37.66-.31.43-.47 1.02-.47 1.75s.16 1.32.47 1.75c.31.44.78.66 1.37.66zm-.81-3.69c.19-.3.46-.44.81-.44.36 0 .62.15.81.44.19.31.29.73.29 1.28s-.1.98-.29 1.28-.46.44-.81.44c-.36 0-.62-.15-.81-.44-.19-.31-.29-.74-.29-1.28 0-.55.1-.97.29-1.28z"/><path d="m51.98 18.61c-.08-.07-.17-.11-.27-.11h-.14c-.07 0-.14.02-.22.05l-.89.46c-.14.07-.21.18-.21.33 0 .1.03.19.1.25.06.07.15.1.25.1.05 0 .11-.02.18-.05l.56-.28v3.13h-.71c-.1 0-.18.04-.25.1-.07.07-.1.15-.1.25s.03.18.1.25c.06.07.15.1.25.1h2.02c.1 0 .18-.03.25-.1.07-.06.1-.15.1-.25s-.03-.18-.1-.25-.15-.1-.25-.1h-.58v-3.62c.02-.09-.01-.18-.09-.26z"/><path d="m57.02 19.1c-.32-.44-.78-.66-1.37-.66-.6 0-1.06.22-1.37.66-.31.43-.47 1.02-.47 1.75s.16 1.32.47 1.75c.31.44.78.66 1.37.66s1.05-.22 1.37-.66c.31-.43.47-1.02.47-1.75s-.16-1.32-.47-1.75zm-.56 3.03c-.19.3-.46.44-.81.44s-.62-.15-.81-.44c-.19-.31-.29-.74-.29-1.28s.1-.97.29-1.27.46-.44.81-.44c.36 0 .62.15.81.44.19.31.29.73.29 1.28 0 .54-.1.97-.29 1.27z"/><path d="m46.07 30.45c.31.44.78.66 1.37.66s1.05-.22 1.37-.66c.31-.43.47-1.02.47-1.75s-.16-1.32-.47-1.75c-.32-.44-.78-.66-1.37-.66-.6 0-1.06.22-1.37.66-.31.43-.47 1.02-.47 1.75s.16 1.32.47 1.75zm.56-3.03c.19-.3.46-.44.81-.44.36 0 .62.15.81.44.19.31.29.73.29 1.28s-.1.98-.29 1.28-.46.44-.81.44c-.36 0-.62-.15-.81-.44-.19-.31-.29-.74-.29-1.28 0-.55.1-.97.29-1.28z"/><path d="m49.7 28.69c0 .73.16 1.32.47 1.75.31.44.78.66 1.37.66s1.05-.22 1.37-.66c.31-.43.47-1.02.47-1.75s-.16-1.32-.47-1.75c-.32-.44-.78-.66-1.37-.66-.6 0-1.06.22-1.37.66-.31.43-.47 1.02-.47 1.75zm1.03-1.27c.19-.3.46-.44.81-.44.36 0 .62.15.81.44.19.31.29.73.29 1.28s-.1.98-.29 1.28-.46.44-.81.44c-.36 0-.62-.15-.81-.44-.19-.31-.29-.74-.29-1.28 0-.55.1-.97.29-1.28z"/><path d="m54.75 30.35c-.1 0-.18.04-.25.1-.07.07-.1.15-.1.25s.03.18.1.25c.06.07.15.1.25.1h2.02c.1 0 .18-.03.25-.1s.1-.15.1-.25-.03-.18-.1-.25-.15-.1-.25-.1h-.57v-3.62c0-.11-.04-.2-.11-.27s-.17-.11-.27-.11h-.14c-.07 0-.14.02-.22.05l-.89.46c-.14.07-.21.18-.21.33 0 .1.03.19.1.25.07.07.15.1.25.1.05 0 .11-.02.18-.05l.56-.28v3.13h-.7z"/><path d="m7.73 40.95v5.29c0 .28.22.5.5.5s.5-.22.5-.5v-5.29c0-.28-.22-.5-.5-.5s-.5.22-.5.5z"/><path d="m10.74 40.95v5.29c0 .28.22.5.5.5s.5-.22.5-.5v-5.29c0-.28-.22-.5-.5-.5s-.5.22-.5.5z"/><path d="m13.74 40.95v5.29c0 .28.22.5.5.5s.5-.22.5-.5v-5.29c0-.28-.22-.5-.5-.5s-.5.22-.5.5z"/><path d="m19.76 40.95v5.29c0 .28.22.5.5.5s.5-.22.5-.5v-5.29c0-.28-.22-.5-.5-.5s-.5.22-.5.5z"/><path d="m16.76 40.95v5.29c0 .28.22.5.5.5s.5-.22.5-.5v-5.29c0-.28-.22-.5-.5-.5s-.5.22-.5.5z"/><path d="m29.17 28.05c-1.1 0-2 .9-2 2 0 1.09.9 1.99 2 1.99 1.09 0 1.99-.89 1.99-1.99-.01-1.1-.9-2-1.99-2zm0 2.98c-.55 0-1-.44-1-.99s.45-1 1-1c.54 0 .99.45.99 1-.01.55-.45.99-.99.99z"/><path d="m34.2 28.05c-1.1 0-2 .9-2 2 0 1.09.9 1.99 2 1.99s1.99-.89 1.99-1.99-.89-2-1.99-2zm0 2.98c-.55 0-1-.44-1-.99s.45-1 1-1c.54 0 .99.45.99 1s-.44.99-.99.99z"/><path d="m39.24 28.05c-1.1 0-2 .9-2 2 0 1.09.9 1.99 2 1.99s1.99-.89 1.99-1.99c-.01-1.1-.9-2-1.99-2zm0 2.98c-.55 0-1-.44-1-.99s.45-1 1-1c.54 0 .99.45.99 1-.01.55-.45.99-.99.99z"/><path d="m8.23 26.9c-.28 0-.5.22-.5.5v5.29c0 .28.22.5.5.5s.5-.22.5-.5v-5.29c0-.28-.22-.5-.5-.5z"/><path d="m11.24 26.9c-.28 0-.5.22-.5.5v5.29c0 .28.22.5.5.5s.5-.22.5-.5v-5.29c0-.28-.23-.5-.5-.5z"/><path d="m14.24 26.9c-.28 0-.5.22-.5.5v5.29c0 .28.22.5.5.5s.5-.22.5-.5v-5.29c0-.28-.22-.5-.5-.5z"/><path d="m20.26 26.9c-.28 0-.5.22-.5.5v5.29c0 .28.22.5.5.5s.5-.22.5-.5v-5.29c0-.28-.22-.5-.5-.5z"/><path d="m17.26 26.9c-.28 0-.5.22-.5.5v5.29c0 .28.22.5.5.5s.5-.22.5-.5v-5.29c0-.28-.22-.5-.5-.5z"/><path d="m7.73 54.5v5.29c0 .28.22.5.5.5s.5-.22.5-.5v-5.29c0-.28-.22-.5-.5-.5s-.5.22-.5.5z"/><path d="m10.74 54.5v5.29c0 .28.22.5.5.5s.5-.22.5-.5v-5.29c0-.28-.22-.5-.5-.5s-.5.22-.5.5z"/><path d="m13.74 54.5v5.29c0 .28.22.5.5.5s.5-.22.5-.5v-5.29c0-.28-.22-.5-.5-.5s-.5.22-.5.5z"/><path d="m19.76 54.5v5.29c0 .28.22.5.5.5s.5-.22.5-.5v-5.29c0-.28-.22-.5-.5-.5s-.5.22-.5.5z"/><path d="m16.76 54.5v5.29c0 .28.22.5.5.5s.5-.22.5-.5v-5.29c0-.28-.22-.5-.5-.5s-.5.22-.5.5z"/><path d="m37.71 65.28c-.26-.09-.53.04-.61.31l-3.88.03v-.75h3.27c.28 0 .5-.22.5-.5s-.22-.5-.5-.5h-3.77-16.58c-.01 0-.01 0-.02 0h-4.85c-.01 0-.01 0-.02 0h-1.45c-.28 0-.51-.23-.51-.52v-.46h25.7c.28 0 .5-.22.5-.5s-.22-.5-.5-.5h-28.51c-.5 0-.91-.41-.91-.91v-7.68c0-.5.41-.91.91-.91h2.42 18.17c.28 0 .5-.22.5-.5s-.22-.5-.5-.5h-17.67v-2.05h13.87c.14 0 .27-.06.36-.15s.15-.22.15-.36c0-.28-.22-.5-.5-.5h-16.8c-.5 0-.91-.41-.91-.91v-7.67c0-.5.41-.91.91-.91h36.01c.5 0 .91.41.91.91v.09c0 .28.22.46.5.46s.5-.27.5-.54c0-1.05-.86-1.91-1.91-1.91h-1.92v-2.06h1.92c1.05 0 1.91-.86 1.91-1.91v-7.67c0-1.05-.86-1.91-1.91-1.91h-36.01c-1.05 0-1.91.86-1.91 1.91v7.67c0 1.05.86 1.91 1.91 1.91h1.92v2.06h-1.92c-1.05 0-1.91.86-1.91 1.91v7.67c0 1.05.86 1.91 1.91 1.91h1.92v2.06h-1.92c-1.05 0-1.91.86-1.91 1.91v7.67c0 1.05.86 1.91 1.91 1.91h1.81v.46c0 .84.68 1.52 1.51 1.52h.97v.75c0 .54.44.97.97.97h3.91c.54 0 .97-.43.97-.97v-.75h15.59v.75c0 .54.43.97.97.97h3.91c.42 0 .78-.27.91-.66.1-.27-.03-.57-.29-.65zm-32.15-31.41v-7.67c0-.5.41-.91.91-.91h36.01c.5 0 .91.41.91.91v7.67c0 .5-.41.91-.91.91h-36c-.51.01-.92-.4-.92-.91zm3.84 3.97v-2.05h30.17v2.05zm6.25 27.74-3.88.03v-.75h3.86z"/><path d="m56.09 47.84c-.01-.08-.04-.16-.09-.22-.01-.01 0-.02-.01-.03l-4.84-6.06c-.09-.12-.24-.19-.39-.19l-19.36.02c-.15 0-.29.07-.39.19l-4.83 6.06c-.01.01 0 .02-.01.02-.05.07-.08.14-.09.23v.03c-.01.07.01.15.04.22 0 .01 0 .02.01.03 0 .01.02.01.02.02.01.02.01.04.03.06l14.52 19.24c.01.01.02.01.03.02.02.02.04.05.06.07.01.01.03.01.04.02h.01c.02.01.05.03.07.04s.03.01.05.02c.01 0 .01.01.02.01.03.01.05.01.08.01.02 0 .03.01.05.01s.04-.01.05-.01c.02 0 .04 0 .06-.01.01 0 .01-.01.02-.01s.03-.01.04-.01c.04-.01.07-.03.1-.05.01 0 .02-.01.02-.01l.03-.03c.02-.02.05-.03.07-.06l14.5-19.24c.01-.02.02-.04.03-.06.01-.01.02-.01.02-.03.01-.01 0-.02.01-.03.03-.07.04-.14.04-.22-.01-.03-.01-.04-.01-.05zm-15.01-5.19 3.8 4.76h-7.6zm-4.84 4.46-3.8-4.75h7.59zm5.88-4.76h7.59l-3.8 4.76zm2.95 6.06-3.99 16.59-4-16.59zm-9.01 0 3.98 16.51-12.47-16.51zm10.04 0h8.49l-12.46 16.53zm8.45-1.01h-7.6l3.8-4.76zm-23.15-4.74 3.8 4.75h-7.59z"/><path d="m22.98 26.9c-.28 0-.5.22-.5.5v5.29c0 .28.22.5.5.5s.5-.22.5-.5v-5.29c0-.28-.22-.5-.5-.5z"/><path d="m22.48 40.94v5.29c0 .28.22.5.5.5s.5-.22.5-.5v-5.29c0-.28-.22-.5-.5-.5s-.5.23-.5.5z"/><path d="m22.48 54.49v5.29c0 .28.22.5.5.5s.5-.22.5-.5v-5.29c0-.28-.22-.5-.5-.5s-.5.22-.5.5z"/></g></svg>