<svg id="svg6" clip-rule="evenodd" fill-rule="evenodd" height="512" stroke-linejoin="round" stroke-miterlimit="2" viewBox="0 0 24 24" width="512" xmlns="http://www.w3.org/2000/svg" xmlns:svg="http://www.w3.org/2000/svg"><path id="path2" d="m14 11.414-6.879 6.879c-.286.286-.371.716-.216 1.09.154.373.519.617.923.617h11.172c.265 0 .52-.105.707-.293.188-.187.293-.442.293-.707 0-3.463 0-10.537 0-14 0-.265-.105-.52-.293-.707-.187-.188-.442-.293-.707-.293-3.463 0-10.537 0-14 0-.552 0-1 .448-1 1v10c0 .552-.448 1-1 1s-1-.448-1-1c0 0 0-6.586 0-10 0-1.657 1.343-3 3-3h14c.796 0 1.559.316 2.121.879.563.562.879 1.325.879 2.121v14c0 .796-.316 1.559-.879 2.121-.562.563-1.325.879-2.121.879-2.678 0-7.515 0-11.172 0-1.213 0-2.307-.731-2.771-1.852-.465-1.121-.208-2.411.65-3.269l6.879-6.879h-3.243c-.552 0-1-.448-1-1s.448-1 1-1h5.657c.552 0 1 .448 1 1v5.657c0 .552-.448 1-1 1s-1-.448-1-1z"/></svg>