<svg height="30" viewBox="0 0 30 30" width="30" xmlns="http://www.w3.org/2000/svg" xmlns:sketch="http://www.bohemiancoding.com/sketch/ns"><g id="arrow" fill="none" fill-rule="evenodd"><g id="arrow_072-top_right-up-direction-move" fill="#000" transform="translate(-360 -405)"><path d="m362 407.5v25c0 .276142.223858.5.5.5h25c.276142 0 .5-.223858.5-.5v-25c0-.276142-.223858-.5-.5-.5h-25c-.276142 0-.5.223858-.5.5zm16.39903 6.276452c.195263-.195263.511845-.195263.707107-.000001l2.121321 2.121321c.195262.195262.195262.511844 0 .707107l-6.408889 6.408888 4.448694-.007702c.445556.00012.668447.538965.353171.8538l-3.002971 2.998774c-.093748.093617-.220819.146199-.353306.146199h-7.764157c-.276142 0-.5-.223858-.5-.5v-7.787272c0-.13263.052695-.259826.14649-.353597l3.000901-3.000156c.315046-.314969.853629-.091756.853509.353732l-.010759 4.467795z" transform="matrix(-1 0 0 -1 750 840)"/></g></g></svg>