<svg viewBox="0 0 64 64" xmlns="http://www.w3.org/2000/svg"><g id="Up_Right-7" fill="#222" data-name="Up Right"><path d="m24.9287 41.0713a2 2 0 0 1 -1.4141-3.4141l14.1426-14.1426a2 2 0 1 1 2.8282 2.8282l-14.1426 14.1426a1.9938 1.9938 0 0 1 -1.4141.5859z"/><path d="m39.0713 26.9287h-12.7285a2 2 0 0 1 0-4h12.7285a2 2 0 0 1 0 4z"/><path d="m39.0713 39.6572a2 2 0 0 1 -2-2v-12.7285a2 2 0 0 1 4 0v12.7285a2 2 0 0 1 -2 2z"/><path d="m55 57h-46a2 2 0 0 1 -2-2v-46a2 2 0 0 1 2-2h46a2 2 0 0 1 2 2v46a2 2 0 0 1 -2 2zm-44-4h42v-42h-42z"/></g></svg>