<svg viewBox="0 0 64 64" xmlns="http://www.w3.org/2000/svg"><g id="Up_Right-5" data-name="Up Right"><path d="m41 7h-18a16.0212 16.0212 0 0 0 -16 16v18a16.0212 16.0212 0 0 0 16 16h18a16.0212 16.0212 0 0 0 16-16v-18a16.0212 16.0212 0 0 0 -16-16zm.07 30.66a2 2 0 0 1 -4 0v-7.9l-10.73 10.73a1.9825 1.9825 0 0 1 -1.41.58 1.995 1.995 0 0 1 -1.42-3.41l10.73-10.73h-7.9a2 2 0 1 1 0-4h12.64a.8173.8173 0 0 1 .27.01h.04a.5663.5663 0 0 1 .18.03 1.8922 1.8922 0 0 1 .55.2 1.275 1.275 0 0 1 .25.15 1.9917 1.9917 0 0 1 .41.41 1.275 1.275 0 0 1 .15.25 1.8922 1.8922 0 0 1 .2.55.5663.5663 0 0 1 .03.18v.04a.8784.8784 0 0 1 .01.28z" fill="#222"/></g></svg>