<svg id="Layer_1" height="512" viewBox="0 0 512 512" width="512" xmlns="http://www.w3.org/2000/svg"><path d="m462.21 299.29c0 11.02-4.29 21.38-12.09 29.18l-81.52 81.53c-8.3 8.3-19.34 12.87-31.08 12.87h-136.46c-.99 0-1.94.47-2.54 1.26l-36.29 47.67c-6.89 9.05-17.34 14.68-28.69 15.44-.89.06-1.77.09-2.66.09-10.41 0-20.44-4.13-27.85-11.54l-41.73-41.73c-7.44-7.44-11.54-17.33-11.54-27.85s4.1-20.41 11.54-27.85l72.15-72.15c15.85-19.06 39.11-29.98 63.9-29.98 20.31 0 39.41 7.32 54.22 20.09h46.87c17.16 0 31.91 10.54 38.12 25.48 2.52-.24 4.85-1.33 6.66-3.14l48.54-48.54c7.79-7.79 18.16-12.09 29.18-12.09s21.38 4.29 29.18 12.09 12.09 18.16 12.09 29.18zm-241.76-140.89c-10.28-19.75-14.12-42.98-10.8-65.42 3.73-25.23 16.13-47.77 35.88-65.18 3.35-2.95 8-4.02 12.23-2.6 4.21 1.42 7.33 4.84 8.23 9.2 0 .01.01.03.01.05.49 1.89 6.31 22.07 31.92 34.88 11.14 5.57 19.92 11.58 26.84 17.66 1.76-.28 3.55-.55 5.39-.79 15.1-1.94 28.23-7.27 39.03-15.84 7.46-5.92 10.88-11.15 10.91-11.2 2.33-3.76 6.51-6 10.89-5.91 4.42.09 8.46 2.52 10.63 6.37 14.79 26.27 19.7 55.32 14.22 84-4.88 25.51-17.79 49.17-36.34 66.65-14.54 13.69-31.47 22.56-48.95 25.66-4.56.81-9.11 1.21-13.61 1.21-12.98 0-25.59-3.34-37.2-9.87-7.19 17.61-6.89 31.5-6.88 31.78.24 6.9-5.16 12.69-12.05 12.93-.15 0-.3 0-.45 0-6.7 0-12.25-5.31-12.48-12.06-.03-.79-.56-19.48 8.85-42.45.85-2.08 1.81-4.24 2.88-6.46-5.43-6.29-9.56-13.42-12.31-21.22-10.84-7.62-20.03-18.34-26.82-31.4zm112.89-47.4c-26.76 3.44-46.92 13.29-56.76 27.71-6.94 10.17-9.82 24.7-7.32 37.02.9 4.47 2.45 8.6 4.62 12.4 11.23-14.27 27.62-28.71 51.54-39.8 6.27-2.9 13.69-.18 16.6 6.08s.18 13.69-6.08 16.6c-20.65 9.58-34.53 22.01-43.88 34.5 25.8 14.48 53.01 2.83 70.29-13.44 23.73-22.35 39.7-62.84 24.83-104.17-10.88 9.26-28.38 19.82-53.83 23.1z"/></svg>