<?xml version="1.0"?>
<svg xmlns="http://www.w3.org/2000/svg" id="line" viewBox="0 0 64 64"><path d="M7.29481,37.41164c1.04367-.13012,1.06894,1.12814,1.3193,1.831a1.00162,1.00162,0,0,0,1.249.66307c1.02267-.344.65586-1.35237.41692-2.122a2.92823,2.92823,0,0,0-3.23128-2.35637.94386.94386,0,0,1-1.0488-.91794V29.49a.93024.93024,0,0,1,1.0488-.91793,2.91274,2.91274,0,0,0,3.17958-2.163,22.18722,22.18722,0,0,1,2.42277-5.85039,2.93757,2.93757,0,0,0-.71091-3.78308.92116.92116,0,0,1-.10351-1.38863l3.54969-3.54969a.91832.91832,0,0,1,1.38862.10352,2.93853,2.93853,0,0,0,3.786.709,22.18975,22.18975,0,0,1,5.8377-2.41887,2.8978,2.8978,0,0,0,2.17278-3.18154.92835.92835,0,0,1,.91794-1.04879h5.01936a.929.929,0,0,1,.91794,1.04879A2.89075,2.89075,0,0,0,37.58777,10.228a22.35166,22.35166,0,0,1,5.43634,2.18157.99976.99976,0,1,0,.98825-1.73822A24.32648,24.32648,0,0,0,38.079,8.28955.90405.90405,0,0,1,37.41,7.30032a2.92488,2.92488,0,0,0-2.90128-3.29969H29.4894a2.92483,2.92483,0,0,0-2.90225,3.29481.91379.91379,0,0,1-.67674.99606,24.25489,24.25489,0,0,0-6.3699,2.63761.91691.91691,0,0,1-1.14645-.16992,2.94443,2.94443,0,0,0-4.42173-.33586L10.42264,13.973a2.92248,2.92248,0,0,0,.335,4.42075.91536.91536,0,0,1,.17285,1.14449,24.25957,24.25957,0,0,0-2.64152,6.38163.90372.90372,0,0,1-.98922.66892A2.9249,2.9249,0,0,0,4,29.49v5.01937A2.93016,2.93016,0,0,0,7.29481,37.41164Z"/><path d="M56.70335,26.58778a.96522.96522,0,0,1-1.05465-.89353c-.16-.78782-.48149-1.9079-1.51369-1.60053-1.09511.36046-.58836,1.50837-.367,2.30559a2.905,2.905,0,0,0,3.18148,2.17278.945.945,0,0,1,1.04879.91793v5.01937a.9292.9292,0,0,1-1.04879.91794,2.91177,2.91177,0,0,0-3.17959,2.163,22.18708,22.18708,0,0,1-2.42277,5.8504,2.93758,2.93758,0,0,0,.71091,3.78308.92119.92119,0,0,1,.10352,1.38862l-3.54969,3.54969a.91707.91707,0,0,1-1.38863-.10351,2.941,2.941,0,0,0-3.786-.709,22.18945,22.18945,0,0,1-5.8377,2.41886A2.91518,2.91518,0,0,0,35.4394,57.079a.93718.93718,0,0,1-.93064.91989H29.4894c-.75285.00342-1.042-.76175-.89048-1.41017a2.89317,2.89317,0,0,0-2.19048-2.8182,22.18749,22.18749,0,0,1-5.85039-2.42277,2.938,2.938,0,0,0-3.78308.71091.91769.91769,0,0,1-1.38862.10351l-.58006-.58006a.99986.99986,0,1,0-1.414,1.414l.58006.58006a2.94544,2.94544,0,0,0,4.42075-.335.9124.9124,0,0,1,1.1445-.17279,24.25937,24.25937,0,0,0,6.38162,2.64152.904.904,0,0,1,.66893.98922,2.94284,2.94284,0,0,0,2.90133,3.29964l5.0193.00006A2.92818,2.92818,0,0,0,37.43933,57.079c-.099-.555.01166-1.22426.64848-1.37105a24.25552,24.25552,0,0,0,6.36985-2.6376.91372.91372,0,0,1,1.14644.16991,2.94612,2.94612,0,0,0,4.42173.33587l3.54969-3.54963a2.94151,2.94151,0,0,0-.335-4.42075.91543.91543,0,0,1-.17278-1.1445,24.25934,24.25934,0,0,0,2.64151-6.38162.90371.90371,0,0,1,.98923-.66893,2.92488,2.92488,0,0,0,3.29969-2.90127V29.49A2.92771,2.92771,0,0,0,56.70335,26.58778Z"/><path d="M45.64024,32.78289c-.4569,10.882-13.727,16.83794-22.12635,9.92521a1.00072,1.00072,0,0,0-1.24978,1.56269c9.75176,7.90031,24.78032,1.16744,25.374-11.43151A1.00045,1.00045,0,0,0,45.64024,32.78289Z"/><path d="M16.3619,31.114a.99974.99974,0,0,0,1.996.11127c.44218-10.8871,13.72373-16.84918,22.12635-9.93394a1.00073,1.00073,0,0,0,1.24977-1.56276C31.99878,11.82959,16.93988,18.56857,16.3619,31.114Z"/><path d="M35.38276,38.43407a1.0057,1.0057,0,0,0,1.414,0L55.72584,19.505l1.747,1.748a1.00706,1.00706,0,0,0,1.70306-.61625l.81834-8.99965a1.00795,1.00795,0,0,0-1.08688-1.08687l-8.99971.81735a.99986.99986,0,0,0-.61619,1.70307l1.747,1.748L36.08977,29.76736l-5.8377-5.8377a.99961.99961,0,0,0-1.414,0L4.293,48.47378a1.006,1.006,0,0,0,0,1.414l3.27235,3.27236a.99961.99961,0,0,0,1.414,0L29.54506,32.59539ZM8.27232,51.03912,6.414,49.18078l23.13108-23.1301,5.8377,5.8377a.99959.99959,0,0,0,1.414,0L53.15952,15.52564a.99961.99961,0,0,0,0-1.414l-.9443-.94528,5.67852-.51561-.51658,5.67755c-.62865-.584-1.42208-1.8158-2.35833-.9443L36.08977,36.313l-5.8377-5.83867a.99961.99961,0,0,0-1.414,0Z"/></svg>
