<?xml version="1.0" encoding="UTF-8"?>
<svg xmlns="http://www.w3.org/2000/svg" id="Icons" viewBox="0 0 60 60" width="512" height="512"><path d="M57,0H50a3,3,0,0,0-.227,5.991L43,12.758l-1.877-1.871a3.049,3.049,0,0,0-4.239,0L27,20.757l-7.877-7.87a3.049,3.049,0,0,0-4.239,0L.89,26.878a2.994,2.994,0,1,0,4.229,4.239L17,19.243l7.878,7.869a3.047,3.047,0,0,0,4.238.005L39,17.242l1.877,1.871a2.972,2.972,0,0,0,4.238,0l8.892-8.89A3,3,0,0,0,60,10V3A3,3,0,0,0,57,0Zm1,10a1,1,0,0,1-2,0V7.82a1,1,0,0,0-1.707-.707L43.7,17.708a.972.972,0,0,1-1.4-.006l-2.59-2.58a1,1,0,0,0-1.413,0L27.7,25.708a.99.99,0,0,1-1.4,0l-8.59-8.58a1,1,0,0,0-1.414,0L3.705,29.7a1,1,0,0,1-1.409,0,.986.986,0,0,1,0-1.4l14-14a.972.972,0,0,1,1.4,0l8.589,8.58a1,1,0,0,0,1.414,0L38.3,12.293a.993.993,0,0,1,1.4.005l2.59,2.58a1,1,0,0,0,1.413,0l9.18-9.17A1,1,0,0,0,52.181,4H50a1,1,0,0,1,0-2h7a1,1,0,0,1,1,1Z"/><path d="M30,60A15,15,0,1,0,15,45,15.017,15.017,0,0,0,30,60Zm0-28A13,13,0,1,1,17,45,13.015,13.015,0,0,1,30,32Z"/><path d="M24.788,52.027a3.031,3.031,0,0,0,4.555-.153l8-10a3,3,0,1,0-4.685-3.748l-5.843,7.3a3,3,0,0,0-4.026,4.417Zm-.465-4.946a1.018,1.018,0,0,1,1.414.061l.422.461a1.016,1.016,0,0,0,1.519-.05l6.542-8.178a1,1,0,0,1,1.56,1.249l-8,10a1.011,1.011,0,0,1-1.517.051l-2-2.182A1,1,0,0,1,24.323,47.081Z"/></svg>
