<svg fill="none" height="512" viewBox="0 0 32 32" width="512" xmlns="http://www.w3.org/2000/svg"><path d="m25.1875 6.81251c-1.8175-1.81947-4.1339-3.05897-6.656-3.5617s-5.1367-.24609-7.513.73744c-2.3762.98353-4.40734 2.64977-5.83641 4.78791s-2.19186 4.65214-2.19186 7.22384c0 2.5718.76279 5.0857 2.19186 7.2239 1.42907 2.1381 3.46021 3.8043 5.83641 4.7879 2.3763.9835 4.9909 1.2401 7.513.7374s4.8385-1.7422 6.656-3.5617c1.2072-1.2061 2.1648-2.6384 2.8182-4.2148.6534-1.5765.9897-3.2662.9897-4.9727s-.3363-3.3962-.9897-4.9727c-.6534-1.57642-1.611-3.00865-2.8182-4.21479zm-4.6875 11.68749c0 .2652-.1053.5196-.2929.7071-.1875.1875-.4419.2929-.7071.2929s-.5196-.1054-.7071-.2929-.2929-.4419-.2929-.7071v-3.5875l-5.2875 5.3c-.1933.1814-.4474.2839-.7125.2875-.2655-.0011-.5205-.104-.7125-.2875-.1878-.1896-.2931-.4456-.2931-.7125 0-.2668.1053-.5229.2931-.7125l5.3-5.2875h-3.5875c-.2652 0-.5196-.1054-.7071-.2929s-.2929-.4419-.2929-.7071.1054-.5196.2929-.7071.4419-.2929.7071-.2929h6c.1288-.0003.2563.0252.375.075.2469.0999.4445.293.55.5375.049.1234.0744.2548.075.3875z" fill="rgb(0,0,0)"/></svg>