<svg id="Layer_1" enable-background="new 0 0 24 24" viewBox="0 0 24 24" xmlns="http://www.w3.org/2000/svg"><g><path d="m11 22.6h-9c-.3 0-.6-.3-.6-.6v-9c0-.3.3-.6.6-.6h9c.3 0 .6.3.6.6v9c0 .3-.3.6-.6.6zm-8.4-1.2h7.8v-7.8h-7.8z" fill="rgb(0,0,0)"/></g><g><path d="m14 10.6c-.2 0-.3-.1-.4-.2-.2-.2-.2-.6 0-.8l8-8c.2-.2.6-.2.8 0s.2.6 0 .8l-8 8c-.1.1-.2.2-.4.2z" fill="rgb(0,0,0)"/></g><g><path d="m22 8.6c-.3 0-.6-.3-.6-.6v-5.4h-5.4c-.3 0-.6-.3-.6-.6s.3-.6.6-.6h6c.3 0 .6.3.6.6v6c0 .3-.3.6-.6.6z" fill="rgb(0,0,0)"/></g><g><path d="m22 22.6h-7c-.3 0-.6-.3-.6-.6s.3-.6.6-.6h6.4v-9.4c0-.3.3-.6.6-.6s.6.3.6.6v10c0 .3-.3.6-.6.6z" fill="rgb(0,0,0)"/></g><g><path d="m2 9.6c-.3 0-.6-.3-.6-.6v-7c0-.3.3-.6.6-.6h10c.3 0 .6.3.6.6s-.3.6-.6.6h-9.4v6.4c0 .3-.3.6-.6.6z" fill="rgb(0,0,0)"/></g></svg>