<svg enable-background="new 0 0 32 32" height="512" viewBox="0 0 32 32" width="512" xmlns="http://www.w3.org/2000/svg"><g id="_x30_3_hands_holding_tree_buds"><g><path d="m30.598 20.505c-.4-.699-1.048-1.197-1.823-1.404s-1.583-.097-2.229.281l-5.265 2.691c-.552-.651-1.364-1.073-2.281-1.073h-8c-1.417 0-2.88.771-3.861 2h-5.139c-.552 0-1 .448-1 1s.448 1 1 1h5.65c.34 0 .657-.173.841-.459.593-.922 1.601-1.541 2.509-1.541h8c.552 0 1 .449 1 1s-.448 1-1 1h-6c-.552 0-1 .448-1 1s.448 1 1 1h6c1.654 0 3-1.346 3-3 0-.016-.005-.031-.005-.046l5.509-2.817c.231-.135.501-.17.754-.104.257.069.472.234.607.471.354.611-.018 1.087-.411 1.389l-10.171 5.721c-.295.195-.93.386-1.283.386h-15c-.552 0-1 .448-1 1s.448 1 1 1h15c.741 0 1.767-.308 2.324-.68l10.166-5.716c.034-.019.067-.041.1-.064 1.405-1.026 1.809-2.648 1.008-4.035z"/><g><g><path d="" style="fill:none;stroke:rgb(0,0,0);stroke-width:2;stroke-linecap:round;stroke-linejoin:round;stroke-miterlimit:10"/></g><path d="m29.96 5.71c-.1-.31-.34-.56-.64-.66-.13-.04-3.18-1.05-5.32-1.05-2.21 0-4 1.79-4 4 0 .13.01.26.02.41l-1.94 1.32c-.55-1.03-1.28-1.87-2.09-2.53-.05.74-.36 1.36-.86 1.88.95.91 1.72 2.19 1.87 4 .02.31.04.65.04.99.31-.05.64-.07.96-.07.35 0 .7.02 1.04.07 0-.38-.01-.79-.04-1.15-.04-.44-.12-.85-.21-1.25l2.15-1.47c.56.47 1.43.8 2.79.8h.3c2.359-.07 5.22-3.67 5.77-4.39.19-.26.25-.6.16-.9z"/><path d="m11.14 5.01c1.3.19 3.23.85 4.85 2.19.01-.06.01-.13.01-.2 0-3.31-2.69-6-6-6-3.01 0-6.38 2.06-6.53 2.15-.39.24-.57.73-.42 1.17.09.27 2.28 6.68 6.95 6.68 1.69 0 3.94-.62 5.13-1.92-1.75-1.69-4.12-2.07-4.28-2.09-.54-.08-.92-.59-.84-1.14.08-.54.58-.92 1.13-.84z"/></g><path d="m19 20c.896 0 1.758.307 2.457.86l2.997-1.532c-1.059-2.529-3.572-4.328-6.454-4.328-3.165 0-5.842 2.112-6.705 5z"/></g></g></svg>