<?xml version="1.0" encoding="utf-8"?>
<!-- Generator: Adobe Illustrator 24.0.2, SVG Export Plug-In . SVG Version: 6.00 Build 0)  -->
<svg version="1.1" xmlns="http://www.w3.org/2000/svg" xmlns:xlink="http://www.w3.org/1999/xlink" x="0px" y="0px"
	 viewBox="0 0 2000 2000" style="enable-background:new 0 0 2000 2000;" xml:space="preserve">
<style type="text/css">
	.st0{fill:#FFFFFF;}
	.st1{fill:#2B2D6D;}
	.st2{fill:#D7BB97;}
	.st3{fill:#FCBB7C;}
	.st4{fill:#F7B97C;}
	.st5{fill:#EFB986;}
	.st6{fill:url(#SVGID_1_);}
	.st7{fill:url(#SVGID_2_);}
	.st8{fill:url(#SVGID_3_);}
	.st9{fill:url(#SVGID_4_);}
	.st10{fill:url(#SVGID_5_);}
	.st11{fill:#456581;}
	.st12{fill:url(#SVGID_6_);}
	.st13{fill:url(#SVGID_7_);}
	.st14{fill:#668299;}
	.st15{fill:url(#SVGID_8_);}
	.st16{fill:url(#SVGID_9_);}
	.st17{fill:url(#SVGID_10_);}
	.st18{fill:url(#SVGID_11_);}
	.st19{fill:url(#SVGID_12_);}
	.st20{fill:url(#SVGID_13_);}
	.st21{fill:url(#SVGID_14_);}
	.st22{fill:url(#SVGID_15_);}
	.st23{fill:url(#SVGID_16_);}
	.st24{fill:url(#SVGID_17_);}
	.st25{fill:url(#SVGID_18_);}
	.st26{fill:url(#SVGID_19_);}
	.st27{fill:url(#SVGID_20_);}
	.st28{fill:url(#SVGID_21_);}
	.st29{fill:url(#SVGID_22_);}
	.st30{fill:url(#SVGID_23_);}
	.st31{fill:url(#SVGID_24_);}
	.st32{fill:url(#SVGID_25_);}
	.st33{fill:url(#SVGID_26_);}
	.st34{fill:url(#SVGID_27_);}
	.st35{fill:url(#SVGID_28_);}
	.st36{fill:url(#SVGID_29_);}
	.st37{fill:url(#SVGID_30_);}
	.st38{fill:url(#SVGID_31_);}
	.st39{fill:url(#SVGID_32_);}
	.st40{fill:url(#SVGID_33_);}
	.st41{fill:url(#SVGID_34_);}
	.st42{fill:url(#SVGID_35_);}
	.st43{fill:url(#SVGID_36_);}
</style>
<g id="Background">
	<rect x="-2200" transform="matrix(-1 -1.224647e-16 1.224647e-16 -1 -2400 2000)" class="st0" width="2000" height="2000"/>
	<rect x="-2200" transform="matrix(-1 -1.224647e-16 1.224647e-16 -1 -2400 2000)" class="st0" width="2000" height="2000"/>
	<rect transform="matrix(-1 -1.224647e-16 1.224647e-16 -1 2000 2000)" width="2000" height="2000"/>
	<rect x="-6600" transform="matrix(-1 -1.224647e-16 1.224647e-16 -1 -11200 2000)" class="st0" width="2000" height="2000"/>
	<rect x="-6600" transform="matrix(-1 -1.224647e-16 1.224647e-16 -1 -11200 2000)" class="st0" width="2000" height="2000"/>
	<rect x="-4400" transform="matrix(-1 -1.224647e-16 1.224647e-16 -1 -6800 2000)" width="2000" height="2000"/>
	<rect x="-11000" transform="matrix(-1 -1.224647e-16 1.224647e-16 -1 -20000 2000)" class="st0" width="2000" height="2000"/>
	<rect x="-11000" transform="matrix(-1 -1.224647e-16 1.224647e-16 -1 -20000 2000)" class="st0" width="2000" height="2000"/>
	<rect x="-8800" transform="matrix(-1 -1.224647e-16 1.224647e-16 -1 -15600 2000)" width="2000" height="2000"/>
	
		<rect x="-2200" y="-2678.4" transform="matrix(-1 -1.224647e-16 1.224647e-16 -1 -2400 -3356.8)" class="st0" width="2000" height="2000"/>
	
		<rect x="-2200" y="-2678.4" transform="matrix(-1 -1.224647e-16 1.224647e-16 -1 -2400 -3356.8)" class="st0" width="2000" height="2000"/>
	<rect y="-2678.4" transform="matrix(-1 -1.224647e-16 1.224647e-16 -1 2000 -3356.8)" class="st1" width="2000" height="2000"/>
	
		<rect x="-6600" y="-2678.4" transform="matrix(-1 -1.224647e-16 1.224647e-16 -1 -11200 -3356.8)" class="st0" width="2000" height="2000"/>
	
		<rect x="-6600" y="-2678.4" transform="matrix(-1 -1.224647e-16 1.224647e-16 -1 -11200 -3356.8)" class="st0" width="2000" height="2000"/>
	
		<rect x="-4400" y="-2678.4" transform="matrix(-1 -1.224647e-16 1.224647e-16 -1 -6800 -3356.8)" class="st1" width="2000" height="2000"/>
	
		<rect x="-11000" y="-2678.4" transform="matrix(-1 -1.224647e-16 1.224647e-16 -1 -20000 -3356.8)" class="st0" width="2000" height="2000"/>
	
		<rect x="-11000" y="-2678.4" transform="matrix(-1 -1.224647e-16 1.224647e-16 -1 -20000 -3356.8)" class="st0" width="2000" height="2000"/>
	
		<rect x="-8800" y="-2678.4" transform="matrix(-1 -1.224647e-16 1.224647e-16 -1 -15600 -3356.8)" class="st1" width="2000" height="2000"/>
</g>
<g id="Logo">
	<g>
		<g>
			<path class="st1" d="M-10272.4-1591.7h-28.6l-26.6,58.5l-26.6-58.5h-28.6v100.2h23.3v-63.5l23.3,53.5h17.2l23.3-53.5l0.1,63.5
				h23.2V-1591.7L-10272.4-1591.7z"/>
			<path class="st1" d="M-10200.3-1523.5v32h-26.2v-31.3l-36.9-68.9h26.2l23.7,43l23.2-43h26.2L-10200.3-1523.5z"/>
			<path class="st1" d="M-10057.8-1541.5c0,28.4-22.4,50-51.9,50h-40v-100.1h40.5C-10080.1-1591.6-10057.8-1570-10057.8-1541.5z
				 M-10069.3-1541.4c0-22.6-17.7-39.6-40.2-39.6h-28.7v78.9h29.2C-10086.8-1502.1-10069.3-1519-10069.3-1541.4z"/>
			<path class="st1" d="M-10025.4-1591.6v100.1h-11.4v-100.1H-10025.4z"/>
			<path class="st1" d="M-9925.4-1540.4h10.2v36.3c-9.9,7.9-23.7,13-37.2,13c-29,0-52.2-22.3-52.2-50.5c0-28.2,23.3-50.3,52.8-50.3
				c13.9,0,27.3,5.3,36.9,13.7l-6.6,8.3c-8.1-7.3-19.2-11.6-30.3-11.6c-22.9,0-41.2,17.7-41.2,39.9c0,22.3,18.4,40,41.3,40
				c9,0,18.6-3.1,26.3-8.4V-1540.4z"/>
			<path class="st1" d="M-9876-1591.6v100.1h-11.4v-100.1H-9876z"/>
			<path class="st1" d="M-9782.5-1591.6v10.6h-32.7v89.5h-11.4v-89.5h-32.6v-10.6H-9782.5z"/>
			<path class="st1" d="M-9712.1-1517.1h-54.5l-11.2,25.6h-12.2l44.9-100.1h11.9l44.7,100.1h-12.4L-9712.1-1517.1z M-9716.6-1527.7
				l-22.7-51.5l-22.4,51.5H-9716.6z"/>
			<path class="st1" d="M-9661.2-1591.6v89.5h43.9v10.6h-55.3v-100.1H-9661.2z"/>
		</g>
		<g>
			<path class="st1" d="M-10202-1434.9l13.8,43.9l13.7-43.9h5.8l13.8,43.9l13.7-43.9h6l-16.9,50.3h-5.9l-13.6-42.6l-13.7,42.6h-5.9
				l-16.8-50.3H-10202z"/>
			<path class="st1" d="M-10044.4-1409.7c0,14.2-11.6,25.4-26.3,25.4c-14.7,0-26.4-11.2-26.4-25.4c0-14.2,11.6-25.3,26.4-25.3
				C-10056.1-1435-10044.4-1423.9-10044.4-1409.7z M-10091.3-1409.7c0,11.1,9.3,20.1,20.6,20.1s20.4-9,20.4-20.1
				c0-11.1-9.2-20-20.4-20S-10091.3-1420.9-10091.3-1409.7z"/>
			<path class="st1" d="M-9965.1-1384.6l-10.6-16.1c-1,0.1-2.1,0.1-3.2,0.1h-13.4v16h-5.8v-50.3h19.1c12.6,0,19.8,6.2,19.8,16.9
				c0,8.3-4.1,13.9-11.4,16.2l11.9,17.2H-9965.1z M-9978.9-1405.9c9.1,0,14.3-4.1,14.3-12c0-7.7-5.2-11.7-14.3-11.7h-13.4v23.7
				H-9978.9z"/>
			<path class="st1" d="M-9876-1384.6l-18.5-23.9l-9.8,10.8v13.2h-5.8v-50.3h5.8v29.3l27-29.3h6.8l-20,21.9l21.5,28.4H-9876z"/>
			<path class="st1" d="M-9809.3-1429.5c-6.5,0-10.7,2.6-10.7,6.9c0,13.1,28.3,6.3,28.3,24.5c0,8.3-7.4,13.7-18.2,13.7
				c-7.3,0-14.5-3.2-19.3-7.7l2.6-5c4.7,4.5,11.1,7,16.8,7c7.3,0,11.8-2.9,11.8-7.8c0.1-13.4-28.3-6.3-28.3-24.4
				c0-7.9,7-12.9,17.4-12.9c5.8,0,11.8,1.9,16,4.7l-2.4,5.1C-9800-1428.3-9805.3-1429.5-9809.3-1429.5z"/>
		</g>
		<g>
			<g>
				<polygon class="st2" points="-9793.4,-1925.5 -9896.8,-1878.5 -9896.8,-1925.5 -9896.8,-1972.4 				"/>
				<polygon class="st3" points="-9896.8,-1878.5 -9793.4,-1925.5 -9793.4,-1878.5 -9793.4,-1831.5 				"/>
				<polygon class="st4" points="-9896.6,-1784.8 -9793.2,-1831.8 -9793.2,-1784.8 -9793.2,-1737.8 				"/>
				<polygon class="st5" points="-9896.6,-1690.8 -9793.2,-1737.8 -9793.2,-1690.8 -9793.2,-1643.9 				"/>
				
					<linearGradient id="SVGID_1_" gradientUnits="userSpaceOnUse" x1="-9896.5762" y1="-1737.8253" x2="-9793.1523" y2="-1737.8253">
					<stop  offset="0" style="stop-color:#DBBCA0"/>
					<stop  offset="1" style="stop-color:#FCBB7C"/>
				</linearGradient>
				<polygon class="st6" points="-9793.2,-1737.8 -9896.6,-1690.8 -9896.6,-1737.8 -9896.6,-1784.8 				"/>
				<g>
					
						<linearGradient id="SVGID_2_" gradientUnits="userSpaceOnUse" x1="-9896.5762" y1="-1831.7805" x2="-9793.1523" y2="-1831.7805">
						<stop  offset="0" style="stop-color:#DBBCA0"/>
						<stop  offset="1" style="stop-color:#FCBB7C"/>
					</linearGradient>
					<polygon class="st7" points="-9793.2,-1831.8 -9896.6,-1784.8 -9896.6,-1831.8 -9896.6,-1878.8 					"/>
					
						<linearGradient id="SVGID_3_" gradientUnits="userSpaceOnUse" x1="-10014.3281" y1="-1787.4779" x2="-9903.9854" y2="-1828.9929">
						<stop  offset="3.143308e-02" style="stop-color:#9CB3C2"/>
						<stop  offset="0.2789" style="stop-color:#A3B4BE"/>
						<stop  offset="0.6439" style="stop-color:#B7B7B2"/>
						<stop  offset="1" style="stop-color:#D1BBA3"/>
					</linearGradient>
					<polygon class="st8" points="-10000,-1831.8 -9896.6,-1784.8 -9896.6,-1831.8 -9896.6,-1878.8 					"/>
				</g>
			</g>
			<g>
				
					<linearGradient id="SVGID_4_" gradientUnits="userSpaceOnUse" x1="-10032.0469" y1="-1925.4624" x2="-10218.8936" y2="-1925.4624">
					<stop  offset="0.655" style="stop-color:#66859A"/>
					<stop  offset="1" style="stop-color:#456581"/>
				</linearGradient>
				<polygon class="st9" points="-10206.6,-1925.5 -10103.2,-1878.5 -10103.2,-1925.5 -10103.2,-1972.4 				"/>
				
					<linearGradient id="SVGID_5_" gradientUnits="userSpaceOnUse" x1="-10071.377" y1="-1878.4849" x2="-10234.3945" y2="-1878.4849">
					<stop  offset="0.2815" style="stop-color:#66859A"/>
					<stop  offset="0.6568" style="stop-color:#456581"/>
				</linearGradient>
				<polygon class="st10" points="-10103.2,-1878.5 -10206.6,-1925.5 -10206.6,-1878.5 -10206.6,-1831.5 				"/>
				<polygon class="st11" points="-10103.4,-1784.8 -10206.8,-1831.8 -10206.8,-1784.8 -10206.8,-1737.8 				"/>
				<polygon class="st11" points="-10103.4,-1690.8 -10206.8,-1737.8 -10206.8,-1690.8 -10206.8,-1643.9 				"/>
				
					<linearGradient id="SVGID_6_" gradientUnits="userSpaceOnUse" x1="-10097.5361" y1="-1737.4791" x2="-10208.9717" y2="-1744.0341">
					<stop  offset="0.2931" style="stop-color:#66859A"/>
					<stop  offset="1" style="stop-color:#456581"/>
				</linearGradient>
				<polygon class="st12" points="-10206.8,-1737.8 -10103.4,-1690.8 -10103.4,-1737.8 -10103.4,-1784.8 				"/>
				<g>
					
						<linearGradient id="SVGID_7_" gradientUnits="userSpaceOnUse" x1="-10045.624" y1="-1765.7363" x2="-10207.3145" y2="-1897.9291">
						<stop  offset="0.2815" style="stop-color:#66859A"/>
						<stop  offset="0.6568" style="stop-color:#456581"/>
					</linearGradient>
					<polygon class="st13" points="-10206.8,-1831.8 -10103.4,-1784.8 -10103.4,-1831.8 -10103.4,-1878.8 					"/>
					<polygon class="st14" points="-10000,-1831.8 -10103.4,-1784.8 -10103.4,-1831.8 -10103.4,-1878.8 					"/>
				</g>
			</g>
			<g>
				
					<linearGradient id="SVGID_8_" gradientUnits="userSpaceOnUse" x1="-10083.4248" y1="-1822.7742" x2="-9941.417" y2="-1757.9232">
					<stop  offset="0" style="stop-color:#668299"/>
					<stop  offset="0.1491" style="stop-color:#6B869D"/>
					<stop  offset="0.3234" style="stop-color:#7993A7"/>
					<stop  offset="0.5098" style="stop-color:#90A9B9"/>
					<stop  offset="0.5845" style="stop-color:#9CB3C2"/>
					<stop  offset="1" style="stop-color:#B2BEBA"/>
				</linearGradient>
				<polygon class="st15" points="-10103.4,-1784.8 -10000,-1737.8 -10000,-1784.8 -10000,-1831.8 				"/>
				
					<linearGradient id="SVGID_9_" gradientUnits="userSpaceOnUse" x1="-10017.9922" y1="-1779.3173" x2="-9919.0645" y2="-1809.4789">
					<stop  offset="3.143308e-02" style="stop-color:#9CB3C2"/>
					<stop  offset="0.2789" style="stop-color:#A3B4BE"/>
					<stop  offset="0.6439" style="stop-color:#B7B7B2"/>
					<stop  offset="1" style="stop-color:#D1BBA3"/>
				</linearGradient>
				<polygon class="st16" points="-9896.6,-1784.8 -10000,-1737.8 -10000,-1784.8 -10000,-1831.8 				"/>
			</g>
		</g>
	</g>
	<g>
		<g>
			<path d="M-10272.4,1086.7h-28.6l-26.6,58.5l-26.6-58.5h-28.6v100.2h23.3v-63.5l23.3,53.5h17.2l23.3-53.5l0.1,63.5h23.2V1086.7
				L-10272.4,1086.7z"/>
			<path d="M-10200.3,1154.9v32h-26.2v-31.3l-36.9-68.9h26.2l23.7,43l23.2-43h26.2L-10200.3,1154.9z"/>
			<path d="M-10057.8,1136.9c0,28.4-22.4,50-51.9,50h-40v-100.1h40.5C-10080.1,1086.8-10057.8,1108.4-10057.8,1136.9z
				 M-10069.3,1137c0-22.6-17.7-39.6-40.2-39.6h-28.7v78.9h29.2C-10086.8,1176.3-10069.3,1159.4-10069.3,1137z"/>
			<path d="M-10025.4,1086.8v100.1h-11.4v-100.1H-10025.4z"/>
			<path d="M-9925.4,1138h10.2v36.3c-9.9,7.9-23.7,13-37.2,13c-29,0-52.2-22.3-52.2-50.5c0-28.2,23.3-50.3,52.8-50.3
				c13.9,0,27.3,5.3,36.9,13.7l-6.6,8.3c-8.1-7.3-19.2-11.6-30.3-11.6c-22.9,0-41.2,17.7-41.2,39.9c0,22.3,18.4,40,41.3,40
				c9,0,18.6-3.1,26.3-8.4V1138z"/>
			<path d="M-9876,1086.8v100.1h-11.4v-100.1H-9876z"/>
			<path d="M-9782.5,1086.8v10.6h-32.7v89.5h-11.4v-89.5h-32.6v-10.6H-9782.5z"/>
			<path d="M-9712.1,1161.3h-54.5l-11.2,25.6h-12.2l44.9-100.1h11.9l44.7,100.1h-12.4L-9712.1,1161.3z M-9716.6,1150.7l-22.7-51.5
				l-22.4,51.5H-9716.6z"/>
			<path d="M-9661.2,1086.8v89.5h43.9v10.6h-55.3v-100.1H-9661.2z"/>
		</g>
		<g>
			<path d="M-10202,1243.5l13.8,43.9l13.7-43.9h5.8l13.8,43.9l13.7-43.9h6l-16.9,50.3h-5.9l-13.6-42.6l-13.7,42.6h-5.9l-16.8-50.3
				H-10202z"/>
			<path d="M-10044.4,1268.7c0,14.2-11.6,25.4-26.3,25.4c-14.7,0-26.4-11.2-26.4-25.4c0-14.2,11.6-25.3,26.4-25.3
				C-10056.1,1243.4-10044.4,1254.5-10044.4,1268.7z M-10091.3,1268.7c0,11.1,9.3,20.1,20.6,20.1s20.4-9,20.4-20.1
				c0-11.1-9.2-20-20.4-20S-10091.3,1257.5-10091.3,1268.7z"/>
			<path d="M-9965.1,1293.8l-10.6-16.1c-1,0.1-2.1,0.1-3.2,0.1h-13.4v16h-5.8v-50.3h19.1c12.6,0,19.8,6.2,19.8,16.9
				c0,8.3-4.1,13.9-11.4,16.2l11.9,17.2H-9965.1z M-9978.9,1272.5c9.1,0,14.3-4.1,14.3-12c0-7.7-5.2-11.7-14.3-11.7h-13.4v23.7
				H-9978.9z"/>
			<path d="M-9876,1293.8l-18.5-23.9l-9.8,10.8v13.2h-5.8v-50.3h5.8v29.3l27-29.3h6.8l-20,21.9l21.5,28.4H-9876z"/>
			<path d="M-9809.3,1248.9c-6.5,0-10.7,2.6-10.7,6.9c0,13.1,28.3,6.3,28.3,24.5c0,8.3-7.4,13.7-18.2,13.7c-7.3,0-14.5-3.2-19.3-7.7
				l2.6-5c4.7,4.5,11.1,7,16.8,7c7.3,0,11.8-2.9,11.8-7.8c0.1-13.4-28.3-6.3-28.3-24.4c0-7.9,7-12.9,17.4-12.9
				c5.8,0,11.8,1.9,16,4.7l-2.4,5.1C-9800,1250.1-9805.3,1248.9-9809.3,1248.9z"/>
		</g>
		<g>
			<g>
				<polygon points="-9793.4,752.9 -9896.8,799.9 -9896.8,752.9 -9896.8,706 				"/>
				<polygon points="-9896.8,799.9 -9793.4,752.9 -9793.4,799.9 -9793.4,846.9 				"/>
				<polygon points="-9896.6,893.6 -9793.2,846.6 -9793.2,893.6 -9793.2,940.6 				"/>
				<polygon points="-9896.6,987.6 -9793.2,940.6 -9793.2,987.6 -9793.2,1034.5 				"/>
				<polygon points="-9793.2,940.6 -9896.6,987.6 -9896.6,940.6 -9896.6,893.6 				"/>
				<g>
					<polygon points="-9793.2,846.6 -9896.6,893.6 -9896.6,846.6 -9896.6,799.6 					"/>
					<polygon points="-10000,846.6 -9896.6,893.6 -9896.6,846.6 -9896.6,799.6 					"/>
				</g>
			</g>
			<g>
				<polygon points="-10206.6,752.9 -10103.2,799.9 -10103.2,752.9 -10103.2,706 				"/>
				<polygon points="-10103.2,799.9 -10206.6,752.9 -10206.6,799.9 -10206.6,846.9 				"/>
				<polygon points="-10103.4,893.6 -10206.8,846.6 -10206.8,893.6 -10206.8,940.6 				"/>
				<polygon points="-10103.4,987.6 -10206.8,940.6 -10206.8,987.6 -10206.8,1034.5 				"/>
				<polygon points="-10206.8,940.6 -10103.4,987.6 -10103.4,940.6 -10103.4,893.6 				"/>
				<g>
					<polygon points="-10206.8,846.6 -10103.4,893.6 -10103.4,846.6 -10103.4,799.6 					"/>
					<polygon points="-10000,846.6 -10103.4,893.6 -10103.4,846.6 -10103.4,799.6 					"/>
				</g>
			</g>
			<g>
				<polygon points="-10103.4,893.6 -10000,940.6 -10000,893.6 -10000,846.6 				"/>
				<polygon points="-9896.6,893.6 -10000,940.6 -10000,893.6 -10000,846.6 				"/>
			</g>
		</g>
	</g>
	<g>
		<g>
			<path class="st0" d="M-8072.4,1086.7h-28.6l-26.6,58.5l-26.6-58.5h-28.6v100.2h23.3v-63.5l23.3,53.5h17.2l23.3-53.5l0.1,63.5
				h23.2V1086.7L-8072.4,1086.7z"/>
			<path class="st0" d="M-8000.3,1154.9v32h-26.2v-31.3l-36.9-68.9h26.2l23.7,43l23.2-43h26.2L-8000.3,1154.9z"/>
			<path class="st0" d="M-7857.8,1136.9c0,28.4-22.4,50-51.9,50h-40v-100.1h40.5C-7880.1,1086.8-7857.8,1108.4-7857.8,1136.9z
				 M-7869.3,1137c0-22.6-17.7-39.6-40.2-39.6h-28.7v78.9h29.2C-7886.8,1176.3-7869.3,1159.4-7869.3,1137z"/>
			<path class="st0" d="M-7825.4,1086.8v100.1h-11.4v-100.1H-7825.4z"/>
			<path class="st0" d="M-7725.4,1138h10.2v36.3c-9.9,7.9-23.7,13-37.2,13c-29,0-52.2-22.3-52.2-50.5c0-28.2,23.3-50.3,52.8-50.3
				c13.9,0,27.3,5.3,36.9,13.7l-6.6,8.3c-8.1-7.3-19.2-11.6-30.3-11.6c-22.9,0-41.2,17.7-41.2,39.9c0,22.3,18.4,40,41.3,40
				c9,0,18.6-3.1,26.3-8.4V1138z"/>
			<path class="st0" d="M-7676,1086.8v100.1h-11.4v-100.1H-7676z"/>
			<path class="st0" d="M-7582.5,1086.8v10.6h-32.7v89.5h-11.4v-89.5h-32.6v-10.6H-7582.5z"/>
			<path class="st0" d="M-7512.1,1161.3h-54.5l-11.1,25.6h-12.2l44.9-100.1h11.9l44.7,100.1h-12.4L-7512.1,1161.3z M-7516.6,1150.7
				l-22.7-51.5l-22.4,51.5H-7516.6z"/>
			<path class="st0" d="M-7461.2,1086.8v89.5h43.9v10.6h-55.3v-100.1H-7461.2z"/>
		</g>
		<g>
			<path class="st0" d="M-8002,1243.5l13.8,43.9l13.7-43.9h5.8l13.8,43.9l13.7-43.9h6l-16.9,50.3h-5.9l-13.6-42.6l-13.7,42.6h-5.9
				l-16.8-50.3H-8002z"/>
			<path class="st0" d="M-7844.4,1268.7c0,14.2-11.6,25.4-26.3,25.4c-14.7,0-26.4-11.2-26.4-25.4c0-14.2,11.6-25.3,26.4-25.3
				C-7856.1,1243.4-7844.4,1254.5-7844.4,1268.7z M-7891.3,1268.7c0,11.1,9.3,20.1,20.6,20.1c11.2,0,20.4-9,20.4-20.1
				c0-11.1-9.2-20-20.4-20C-7881.9,1248.7-7891.3,1257.5-7891.3,1268.7z"/>
			<path class="st0" d="M-7765.1,1293.8l-10.6-16.1c-1,0.1-2.1,0.1-3.2,0.1h-13.4v16h-5.8v-50.3h19.1c12.6,0,19.8,6.2,19.8,16.9
				c0,8.3-4.1,13.9-11.4,16.2l11.9,17.2H-7765.1z M-7778.9,1272.5c9.1,0,14.3-4.1,14.3-12c0-7.7-5.2-11.7-14.3-11.7h-13.4v23.7
				H-7778.9z"/>
			<path class="st0" d="M-7676,1293.8l-18.5-23.9l-9.8,10.8v13.2h-5.8v-50.3h5.8v29.3l27-29.3h6.8l-20,21.9l21.5,28.4H-7676z"/>
			<path class="st0" d="M-7609.3,1248.9c-6.5,0-10.7,2.6-10.7,6.9c0,13.1,28.3,6.3,28.3,24.5c0,8.3-7.4,13.7-18.2,13.7
				c-7.3,0-14.5-3.2-19.3-7.7l2.6-5c4.7,4.5,11.1,7,16.7,7c7.3,0,11.8-2.9,11.8-7.8c0.1-13.4-28.3-6.3-28.3-24.4
				c0-7.9,7-12.9,17.4-12.9c5.8,0,11.8,1.9,16,4.7l-2.4,5.1C-7600,1250.1-7605.3,1248.9-7609.3,1248.9z"/>
		</g>
		<g>
			<g>
				<polygon class="st0" points="-7593.4,752.9 -7696.8,799.9 -7696.8,752.9 -7696.8,706 				"/>
				<polygon class="st0" points="-7696.8,799.9 -7593.4,752.9 -7593.4,799.9 -7593.4,846.9 				"/>
				<polygon class="st0" points="-7696.6,893.6 -7593.2,846.6 -7593.2,893.6 -7593.2,940.6 				"/>
				<polygon class="st0" points="-7696.6,987.6 -7593.2,940.6 -7593.2,987.6 -7593.2,1034.5 				"/>
				<polygon class="st0" points="-7593.2,940.6 -7696.6,987.6 -7696.6,940.6 -7696.6,893.6 				"/>
				<g>
					<polygon class="st0" points="-7593.2,846.6 -7696.6,893.6 -7696.6,846.6 -7696.6,799.6 					"/>
					<polygon class="st0" points="-7800,846.6 -7696.6,893.6 -7696.6,846.6 -7696.6,799.6 					"/>
				</g>
			</g>
			<g>
				<polygon class="st0" points="-8006.6,752.9 -7903.2,799.9 -7903.2,752.9 -7903.2,706 				"/>
				<polygon class="st0" points="-7903.2,799.9 -8006.6,752.9 -8006.6,799.9 -8006.6,846.9 				"/>
				<polygon class="st0" points="-7903.4,893.6 -8006.8,846.6 -8006.8,893.6 -8006.8,940.6 				"/>
				<polygon class="st0" points="-7903.4,987.6 -8006.8,940.6 -8006.8,987.6 -8006.8,1034.5 				"/>
				<polygon class="st0" points="-8006.8,940.6 -7903.4,987.6 -7903.4,940.6 -7903.4,893.6 				"/>
				<g>
					<polygon class="st0" points="-8006.8,846.6 -7903.4,893.6 -7903.4,846.6 -7903.4,799.6 					"/>
					<polygon class="st0" points="-7800,846.6 -7903.4,893.6 -7903.4,846.6 -7903.4,799.6 					"/>
				</g>
			</g>
			<g>
				<polygon class="st0" points="-7903.4,893.6 -7800,940.6 -7800,893.6 -7800,846.6 				"/>
				<polygon class="st0" points="-7696.6,893.6 -7800,940.6 -7800,893.6 -7800,846.6 				"/>
			</g>
		</g>
	</g>
	<g>
		<g>
			<path class="st0" d="M-8072.4-1591.7h-28.6l-26.6,58.5l-26.6-58.5h-28.6v100.2h23.3v-63.5l23.3,53.5h17.2l23.3-53.5l0.1,63.5
				h23.2V-1591.7L-8072.4-1591.7z"/>
			<path class="st0" d="M-8000.3-1523.5v32h-26.2v-31.3l-36.9-68.9h26.2l23.7,43l23.2-43h26.2L-8000.3-1523.5z"/>
			<path class="st0" d="M-7857.8-1541.5c0,28.4-22.4,50-51.9,50h-40v-100.1h40.5C-7880.1-1591.6-7857.8-1570-7857.8-1541.5z
				 M-7869.3-1541.4c0-22.6-17.7-39.6-40.2-39.6h-28.7v78.9h29.2C-7886.8-1502.1-7869.3-1519-7869.3-1541.4z"/>
			<path class="st0" d="M-7825.4-1591.6v100.1h-11.4v-100.1H-7825.4z"/>
			<path class="st0" d="M-7725.4-1540.4h10.2v36.3c-9.9,7.9-23.7,13-37.2,13c-29,0-52.2-22.3-52.2-50.5c0-28.2,23.3-50.3,52.8-50.3
				c13.9,0,27.3,5.3,36.9,13.7l-6.6,8.3c-8.1-7.3-19.2-11.6-30.3-11.6c-22.9,0-41.2,17.7-41.2,39.9c0,22.3,18.4,40,41.3,40
				c9,0,18.6-3.1,26.3-8.4V-1540.4z"/>
			<path class="st0" d="M-7676-1591.6v100.1h-11.4v-100.1H-7676z"/>
			<path class="st0" d="M-7582.5-1591.6v10.6h-32.7v89.5h-11.4v-89.5h-32.6v-10.6H-7582.5z"/>
			<path class="st0" d="M-7512.1-1517.1h-54.5l-11.1,25.6h-12.2l44.9-100.1h11.9l44.7,100.1h-12.4L-7512.1-1517.1z M-7516.6-1527.7
				l-22.7-51.5l-22.4,51.5H-7516.6z"/>
			<path class="st0" d="M-7461.2-1591.6v89.5h43.9v10.6h-55.3v-100.1H-7461.2z"/>
		</g>
		<g>
			<path class="st0" d="M-8002-1434.9l13.8,43.9l13.7-43.9h5.8l13.8,43.9l13.7-43.9h6l-16.9,50.3h-5.9l-13.6-42.6l-13.7,42.6h-5.9
				l-16.8-50.3H-8002z"/>
			<path class="st0" d="M-7844.4-1409.7c0,14.2-11.6,25.4-26.3,25.4c-14.7,0-26.4-11.2-26.4-25.4c0-14.2,11.6-25.3,26.4-25.3
				C-7856.1-1435-7844.4-1423.9-7844.4-1409.7z M-7891.3-1409.7c0,11.1,9.3,20.1,20.6,20.1c11.2,0,20.4-9,20.4-20.1
				c0-11.1-9.2-20-20.4-20C-7881.9-1429.7-7891.3-1420.9-7891.3-1409.7z"/>
			<path class="st0" d="M-7765.1-1384.6l-10.6-16.1c-1,0.1-2.1,0.1-3.2,0.1h-13.4v16h-5.8v-50.3h19.1c12.6,0,19.8,6.2,19.8,16.9
				c0,8.3-4.1,13.9-11.4,16.2l11.9,17.2H-7765.1z M-7778.9-1405.9c9.1,0,14.3-4.1,14.3-12c0-7.7-5.2-11.7-14.3-11.7h-13.4v23.7
				H-7778.9z"/>
			<path class="st0" d="M-7676-1384.6l-18.5-23.9l-9.8,10.8v13.2h-5.8v-50.3h5.8v29.3l27-29.3h6.8l-20,21.9l21.5,28.4H-7676z"/>
			<path class="st0" d="M-7609.3-1429.5c-6.5,0-10.7,2.6-10.7,6.9c0,13.1,28.3,6.3,28.3,24.5c0,8.3-7.4,13.7-18.2,13.7
				c-7.3,0-14.5-3.2-19.3-7.7l2.6-5c4.7,4.5,11.1,7,16.7,7c7.3,0,11.8-2.9,11.8-7.8c0.1-13.4-28.3-6.3-28.3-24.4
				c0-7.9,7-12.9,17.4-12.9c5.8,0,11.8,1.9,16,4.7l-2.4,5.1C-7600-1428.3-7605.3-1429.5-7609.3-1429.5z"/>
		</g>
		<g>
			<g>
				<polygon class="st2" points="-7593.4,-1925.5 -7696.8,-1878.5 -7696.8,-1925.5 -7696.8,-1972.4 				"/>
				<polygon class="st3" points="-7696.8,-1878.5 -7593.4,-1925.5 -7593.4,-1878.5 -7593.4,-1831.5 				"/>
				<polygon class="st4" points="-7696.6,-1784.8 -7593.2,-1831.8 -7593.2,-1784.8 -7593.2,-1737.8 				"/>
				<polygon class="st5" points="-7696.6,-1690.8 -7593.2,-1737.8 -7593.2,-1690.8 -7593.2,-1643.9 				"/>
				
					<linearGradient id="SVGID_10_" gradientUnits="userSpaceOnUse" x1="-7696.5762" y1="-1737.8253" x2="-7593.1523" y2="-1737.8253">
					<stop  offset="0" style="stop-color:#DBBCA0"/>
					<stop  offset="1" style="stop-color:#FCBB7C"/>
				</linearGradient>
				<polygon class="st17" points="-7593.2,-1737.8 -7696.6,-1690.8 -7696.6,-1737.8 -7696.6,-1784.8 				"/>
				<g>
					
						<linearGradient id="SVGID_11_" gradientUnits="userSpaceOnUse" x1="-7696.5762" y1="-1831.7805" x2="-7593.1523" y2="-1831.7805">
						<stop  offset="0" style="stop-color:#DBBCA0"/>
						<stop  offset="1" style="stop-color:#FCBB7C"/>
					</linearGradient>
					<polygon class="st18" points="-7593.2,-1831.8 -7696.6,-1784.8 -7696.6,-1831.8 -7696.6,-1878.8 					"/>
					
						<linearGradient id="SVGID_12_" gradientUnits="userSpaceOnUse" x1="-7814.3281" y1="-1787.4779" x2="-7703.9854" y2="-1828.9929">
						<stop  offset="3.143308e-02" style="stop-color:#9CB3C2"/>
						<stop  offset="0.2789" style="stop-color:#A3B4BE"/>
						<stop  offset="0.6439" style="stop-color:#B7B7B2"/>
						<stop  offset="1" style="stop-color:#D1BBA3"/>
					</linearGradient>
					<polygon class="st19" points="-7800,-1831.8 -7696.6,-1784.8 -7696.6,-1831.8 -7696.6,-1878.8 					"/>
				</g>
			</g>
			<g>
				
					<linearGradient id="SVGID_13_" gradientUnits="userSpaceOnUse" x1="-7832.0469" y1="-1925.4624" x2="-8018.8936" y2="-1925.4624">
					<stop  offset="0.655" style="stop-color:#66859A"/>
					<stop  offset="1" style="stop-color:#456581"/>
				</linearGradient>
				<polygon class="st20" points="-8006.6,-1925.5 -7903.2,-1878.5 -7903.2,-1925.5 -7903.2,-1972.4 				"/>
				
					<linearGradient id="SVGID_14_" gradientUnits="userSpaceOnUse" x1="-7871.377" y1="-1878.4849" x2="-8034.3945" y2="-1878.4849">
					<stop  offset="0.2815" style="stop-color:#66859A"/>
					<stop  offset="0.6568" style="stop-color:#456581"/>
				</linearGradient>
				<polygon class="st21" points="-7903.2,-1878.5 -8006.6,-1925.5 -8006.6,-1878.5 -8006.6,-1831.5 				"/>
				<polygon class="st11" points="-7903.4,-1784.8 -8006.8,-1831.8 -8006.8,-1784.8 -8006.8,-1737.8 				"/>
				<polygon class="st11" points="-7903.4,-1690.8 -8006.8,-1737.8 -8006.8,-1690.8 -8006.8,-1643.9 				"/>
				
					<linearGradient id="SVGID_15_" gradientUnits="userSpaceOnUse" x1="-7897.5366" y1="-1737.4791" x2="-8008.9717" y2="-1744.0341">
					<stop  offset="0.2931" style="stop-color:#66859A"/>
					<stop  offset="1" style="stop-color:#456581"/>
				</linearGradient>
				<polygon class="st22" points="-8006.8,-1737.8 -7903.4,-1690.8 -7903.4,-1737.8 -7903.4,-1784.8 				"/>
				<g>
					
						<linearGradient id="SVGID_16_" gradientUnits="userSpaceOnUse" x1="-7845.6245" y1="-1765.7363" x2="-8007.3149" y2="-1897.9291">
						<stop  offset="0.2815" style="stop-color:#66859A"/>
						<stop  offset="0.6568" style="stop-color:#456581"/>
					</linearGradient>
					<polygon class="st23" points="-8006.8,-1831.8 -7903.4,-1784.8 -7903.4,-1831.8 -7903.4,-1878.8 					"/>
					<polygon class="st14" points="-7800,-1831.8 -7903.4,-1784.8 -7903.4,-1831.8 -7903.4,-1878.8 					"/>
				</g>
			</g>
			<g>
				
					<linearGradient id="SVGID_17_" gradientUnits="userSpaceOnUse" x1="-7883.4248" y1="-1822.7742" x2="-7741.417" y2="-1757.9232">
					<stop  offset="0" style="stop-color:#668299"/>
					<stop  offset="0.1491" style="stop-color:#6B869D"/>
					<stop  offset="0.3234" style="stop-color:#7993A7"/>
					<stop  offset="0.5098" style="stop-color:#90A9B9"/>
					<stop  offset="0.5845" style="stop-color:#9CB3C2"/>
					<stop  offset="1" style="stop-color:#B2BEBA"/>
				</linearGradient>
				<polygon class="st24" points="-7903.4,-1784.8 -7800,-1737.8 -7800,-1784.8 -7800,-1831.8 				"/>
				
					<linearGradient id="SVGID_18_" gradientUnits="userSpaceOnUse" x1="-7817.9927" y1="-1779.3173" x2="-7719.0645" y2="-1809.4789">
					<stop  offset="3.143308e-02" style="stop-color:#9CB3C2"/>
					<stop  offset="0.2789" style="stop-color:#A3B4BE"/>
					<stop  offset="0.6439" style="stop-color:#B7B7B2"/>
					<stop  offset="1" style="stop-color:#D1BBA3"/>
				</linearGradient>
				<polygon class="st25" points="-7696.6,-1784.8 -7800,-1737.8 -7800,-1784.8 -7800,-1831.8 				"/>
			</g>
		</g>
	</g>
	<g>
		<g>
			<path class="st1" d="M-6011.8-1835h-43.2l-40.2,88.4l-40.2-88.4h-43.2v151.5h35.2v-96l35.2,80.8h25.9l35.2-80.8l0.2,96h35V-1835
				L-6011.8-1835z"/>
			<path class="st1" d="M-5902.8-1731.9v48.4h-39.6v-47.3l-55.8-104.2h39.6l35.9,65.1l35-65.1h39.6L-5902.8-1731.9z"/>
			<path class="st1" d="M-5687.3-1759.2c0,43-33.9,75.6-78.5,75.6h-60.5v-151.3h61.2C-5721.1-1834.8-5687.3-1802.2-5687.3-1759.2z
				 M-5704.8-1759c0-34.2-26.8-59.9-60.7-59.9h-43.4v119.3h44.1C-5731.2-1699.5-5704.8-1725-5704.8-1759z"/>
			<path class="st1" d="M-5638.5-1834.8v151.3h-17.3v-151.3H-5638.5z"/>
			<path class="st1" d="M-5487.2-1757.5h15.3v54.9c-14.9,11.9-35.9,19.7-56.2,19.7c-43.9,0-78.9-33.7-78.9-76.3
				c0-42.6,35.2-76.1,79.8-76.1c21,0,41.3,8,55.8,20.8l-9.9,12.5c-12.3-11-29-17.5-45.8-17.5c-34.6,0-62.2,26.8-62.2,60.3
				c0,33.7,27.9,60.5,62.5,60.5c13.6,0,28.1-4.8,39.8-12.8V-1757.5z"/>
			<path class="st1" d="M-5412.6-1834.8v151.3h-17.3v-151.3H-5412.6z"/>
			<path class="st1" d="M-5271.2-1834.8v16h-49.5v135.3h-17.3v-135.3h-49.3v-16H-5271.2z"/>
			<path class="st1" d="M-5164.7-1722.2h-82.3l-16.9,38.7h-18.4l67.9-151.3h17.9l67.7,151.3h-18.8L-5164.7-1722.2z M-5171.6-1738.2
				l-34.4-77.8l-33.9,77.8H-5171.6z"/>
			<path class="st1" d="M-5087.7-1834.8v135.3h66.4v16h-83.6v-151.3H-5087.7z"/>
		</g>
		<g>
			<path class="st1" d="M-5905.5-1597.9l20.9,66.3l20.7-66.3h8.7l20.9,66.3l20.6-66.3h9l-25.5,76.1h-8.9l-20.5-64.5l-20.8,64.5h-8.9
				l-25.4-76.1H-5905.5z"/>
			<path class="st1" d="M-5667.2-1559.9c0,21.4-17.6,38.4-39.8,38.4c-22.3,0-39.9-17-39.9-38.4c0-21.4,17.6-38.3,39.9-38.3
				C-5684.8-1598.2-5667.2-1581.3-5667.2-1559.9z M-5738-1559.9c0,16.8,14.1,30.4,31.1,30.4s30.9-13.6,30.9-30.4
				c0-16.8-13.9-30.2-30.9-30.2S-5738-1576.7-5738-1559.9z"/>
			<path class="st1" d="M-5547.2-1521.9l-16-24.3c-1.5,0.1-3.2,0.2-4.9,0.2h-20.2v24.1h-8.7v-76.1h28.9c19,0,30,9.4,30,25.5
				c0,12.5-6.2,21.1-17.2,24.6l17.9,26H-5547.2z M-5568-1554c13.8,0,21.6-6.2,21.6-18.2c0-11.6-7.8-17.7-21.6-17.7h-20.2v35.9H-5568
				z"/>
			<path class="st1" d="M-5412.5-1521.9l-28-36.2l-14.8,16.3v19.9h-8.7v-76.1h8.7v44.2l40.9-44.2h10.3l-30.2,33.2l32.5,42.9H-5412.5
				z"/>
			<path class="st1" d="M-5311.7-1589.8c-9.8,0-16.2,3.9-16.2,10.4c0,19.8,42.8,9.5,42.7,37.1c0,12.6-11.2,20.8-27.5,20.8
				c-11.1,0-22-4.8-29.1-11.6l3.9-7.5c7.1,6.7,16.7,10.7,25.3,10.7c11,0,17.8-4.5,17.8-11.8c0.1-20.3-42.7-9.6-42.7-36.8
				c0-12,10.5-19.6,26.3-19.6c8.8,0,17.8,2.8,24.1,7.1l-3.7,7.7C-5297.6-1587.9-5305.6-1589.8-5311.7-1589.8z"/>
		</g>
	</g>
	<g>
		<g>
			<path d="M-6011.8,843.4h-43.2l-40.2,88.4l-40.2-88.4h-43.2v151.5h35.2v-96l35.2,80.8h25.9l35.2-80.8l0.2,96h35V843.4
				L-6011.8,843.4z"/>
			<path d="M-5902.8,946.5v48.4h-39.6v-47.3l-55.8-104.2h39.6l35.9,65.1l35-65.1h39.6L-5902.8,946.5z"/>
			<path d="M-5687.3,919.2c0,43-33.9,75.6-78.5,75.6h-60.5V843.6h61.2C-5721.1,843.6-5687.3,876.2-5687.3,919.2z M-5704.8,919.4
				c0-34.2-26.8-59.9-60.7-59.9h-43.4v119.3h44.1C-5731.2,978.9-5704.8,953.4-5704.8,919.4z"/>
			<path d="M-5638.5,843.6v151.3h-17.3V843.6H-5638.5z"/>
			<path d="M-5487.2,920.9h15.3v54.9c-14.9,11.9-35.9,19.7-56.2,19.7c-43.9,0-78.9-33.7-78.9-76.3c0-42.6,35.2-76.1,79.8-76.1
				c21,0,41.3,8,55.8,20.8l-9.9,12.5c-12.3-11-29-17.5-45.8-17.5c-34.6,0-62.2,26.8-62.2,60.3c0,33.7,27.9,60.5,62.5,60.5
				c13.6,0,28.1-4.8,39.8-12.8V920.9z"/>
			<path d="M-5412.6,843.6v151.3h-17.3V843.6H-5412.6z"/>
			<path d="M-5271.2,843.6v16h-49.5v135.3h-17.3V859.6h-49.3v-16H-5271.2z"/>
			<path d="M-5164.7,956.2h-82.3l-16.9,38.7h-18.4l67.9-151.3h17.9l67.7,151.3h-18.8L-5164.7,956.2z M-5171.6,940.2l-34.4-77.8
				l-33.9,77.8H-5171.6z"/>
			<path d="M-5087.7,843.6v135.3h66.4v16h-83.6V843.6H-5087.7z"/>
		</g>
		<g>
			<path d="M-5905.5,1080.5l20.9,66.3l20.7-66.3h8.7l20.9,66.3l20.6-66.3h9l-25.5,76.1h-8.9l-20.5-64.5l-20.8,64.5h-8.9l-25.4-76.1
				H-5905.5z"/>
			<path d="M-5667.2,1118.5c0,21.4-17.6,38.4-39.8,38.4c-22.3,0-39.9-17-39.9-38.4c0-21.4,17.6-38.3,39.9-38.3
				C-5684.8,1080.2-5667.2,1097.1-5667.2,1118.5z M-5738,1118.5c0,16.8,14.1,30.4,31.1,30.4s30.9-13.6,30.9-30.4
				c0-16.8-13.9-30.2-30.9-30.2S-5738,1101.7-5738,1118.5z"/>
			<path d="M-5547.2,1156.5l-16-24.3c-1.5,0.1-3.2,0.2-4.9,0.2h-20.2v24.1h-8.7v-76.1h28.9c19,0,30,9.4,30,25.5
				c0,12.5-6.2,21.1-17.2,24.6l17.9,26H-5547.2z M-5568,1124.4c13.8,0,21.6-6.2,21.6-18.2c0-11.6-7.8-17.7-21.6-17.7h-20.2v35.9
				H-5568z"/>
			<path d="M-5412.5,1156.5l-28-36.2l-14.8,16.3v19.9h-8.7v-76.1h8.7v44.2l40.9-44.2h10.3l-30.2,33.2l32.5,42.9H-5412.5z"/>
			<path d="M-5311.7,1088.6c-9.8,0-16.2,3.9-16.2,10.4c0,19.8,42.8,9.5,42.7,37.1c0,12.6-11.2,20.8-27.5,20.8
				c-11.1,0-22-4.8-29.1-11.6l3.9-7.5c7.1,6.7,16.7,10.7,25.3,10.7c11,0,17.8-4.5,17.8-11.8c0.1-20.3-42.7-9.6-42.7-36.8
				c0-12,10.5-19.6,26.3-19.6c8.8,0,17.8,2.8,24.1,7.1l-3.7,7.7C-5297.6,1090.5-5305.6,1088.6-5311.7,1088.6z"/>
		</g>
	</g>
	<g>
		<g>
			<path class="st0" d="M-3811.8-1835h-43.2l-40.2,88.4l-40.2-88.4h-43.2v151.5h35.2v-96l35.2,80.8h25.9l35.2-80.8l0.2,96h35V-1835
				L-3811.8-1835z"/>
			<path class="st0" d="M-3702.8-1731.9v48.4h-39.6v-47.3l-55.8-104.2h39.6l35.9,65.1l35-65.1h39.6L-3702.8-1731.9z"/>
			<path class="st0" d="M-3487.3-1759.2c0,43-33.9,75.6-78.5,75.6h-60.5v-151.3h61.2C-3521.1-1834.8-3487.3-1802.2-3487.3-1759.2z
				 M-3504.8-1759c0-34.2-26.8-59.9-60.7-59.9h-43.4v119.3h44.1C-3531.2-1699.5-3504.8-1725-3504.8-1759z"/>
			<path class="st0" d="M-3438.5-1834.8v151.3h-17.3v-151.3H-3438.5z"/>
			<path class="st0" d="M-3287.2-1757.5h15.3v54.9c-14.9,11.9-35.9,19.7-56.2,19.7c-43.9,0-78.9-33.7-78.9-76.3
				c0-42.6,35.2-76.1,79.8-76.1c21,0,41.3,8,55.8,20.8l-9.9,12.5c-12.3-11-29-17.5-45.8-17.5c-34.6,0-62.2,26.8-62.2,60.3
				c0,33.7,27.9,60.5,62.5,60.5c13.6,0,28.1-4.8,39.8-12.8V-1757.5z"/>
			<path class="st0" d="M-3212.6-1834.8v151.3h-17.3v-151.3H-3212.6z"/>
			<path class="st0" d="M-3071.2-1834.8v16h-49.5v135.3h-17.3v-135.3h-49.3v-16H-3071.2z"/>
			<path class="st0" d="M-2964.7-1722.2h-82.3l-16.9,38.7h-18.4l67.9-151.3h17.9l67.7,151.3h-18.8L-2964.7-1722.2z M-2971.6-1738.2
				l-34.4-77.8l-33.9,77.8H-2971.6z"/>
			<path class="st0" d="M-2887.7-1834.8v135.3h66.4v16h-83.6v-151.3H-2887.7z"/>
		</g>
		<g>
			<path class="st0" d="M-3705.5-1597.9l20.9,66.3l20.6-66.3h8.7l20.9,66.3l20.7-66.3h9l-25.5,76.1h-8.9l-20.5-64.5l-20.8,64.5h-8.9
				l-25.4-76.1H-3705.5z"/>
			<path class="st0" d="M-3467.2-1559.9c0,21.4-17.6,38.4-39.8,38.4c-22.3,0-39.9-17-39.9-38.4c0-21.4,17.6-38.3,39.9-38.3
				C-3484.8-1598.2-3467.2-1581.3-3467.2-1559.9z M-3538-1559.9c0,16.8,14.1,30.4,31.1,30.4s30.9-13.6,30.9-30.4
				c0-16.8-13.9-30.2-30.9-30.2S-3538-1576.7-3538-1559.9z"/>
			<path class="st0" d="M-3347.2-1521.9l-16-24.3c-1.5,0.1-3.2,0.2-4.9,0.2h-20.2v24.1h-8.7v-76.1h28.9c19,0,30,9.4,30,25.5
				c0,12.5-6.2,21.1-17.2,24.6l17.9,26H-3347.2z M-3368-1554c13.8,0,21.6-6.2,21.6-18.2c0-11.6-7.8-17.7-21.6-17.7h-20.2v35.9H-3368
				z"/>
			<path class="st0" d="M-3212.5-1521.9l-28-36.2l-14.8,16.3v19.9h-8.7v-76.1h8.7v44.2l40.9-44.2h10.3l-30.2,33.2l32.5,42.9H-3212.5
				z"/>
			<path class="st0" d="M-3111.7-1589.8c-9.8,0-16.2,3.9-16.2,10.4c0,19.8,42.8,9.5,42.7,37.1c0,12.6-11.2,20.8-27.5,20.8
				c-11.1,0-22-4.8-29.1-11.6l3.9-7.5c7.1,6.7,16.7,10.7,25.3,10.7c11,0,17.8-4.5,17.8-11.8c0.1-20.3-42.7-9.6-42.7-36.8
				c0-12,10.5-19.6,26.3-19.6c8.8,0,17.8,2.8,24.1,7.1l-3.7,7.7C-3097.6-1587.9-3105.6-1589.8-3111.7-1589.8z"/>
		</g>
	</g>
	<g>
		<g>
			<path class="st0" d="M-3811.8,843.4h-43.2l-40.2,88.4l-40.2-88.4h-43.2v151.5h35.2v-96l35.2,80.8h25.9l35.2-80.8l0.2,96h35V843.4
				L-3811.8,843.4z"/>
			<path class="st0" d="M-3702.8,946.5v48.4h-39.6v-47.3l-55.8-104.2h39.6l35.9,65.1l35-65.1h39.6L-3702.8,946.5z"/>
			<path class="st0" d="M-3487.3,919.2c0,43-33.9,75.6-78.5,75.6h-60.5V843.6h61.2C-3521.1,843.6-3487.3,876.2-3487.3,919.2z
				 M-3504.8,919.4c0-34.2-26.8-59.9-60.7-59.9h-43.4v119.3h44.1C-3531.2,978.9-3504.8,953.4-3504.8,919.4z"/>
			<path class="st0" d="M-3438.5,843.6v151.3h-17.3V843.6H-3438.5z"/>
			<path class="st0" d="M-3287.2,920.9h15.3v54.9c-14.9,11.9-35.9,19.7-56.2,19.7c-43.9,0-78.9-33.7-78.9-76.3
				c0-42.6,35.2-76.1,79.8-76.1c21,0,41.3,8,55.8,20.8l-9.9,12.5c-12.3-11-29-17.5-45.8-17.5c-34.6,0-62.2,26.8-62.2,60.3
				c0,33.7,27.9,60.5,62.5,60.5c13.6,0,28.1-4.8,39.8-12.8V920.9z"/>
			<path class="st0" d="M-3212.6,843.6v151.3h-17.3V843.6H-3212.6z"/>
			<path class="st0" d="M-3071.2,843.6v16h-49.5v135.3h-17.3V859.6h-49.3v-16H-3071.2z"/>
			<path class="st0" d="M-2964.7,956.2h-82.3l-16.9,38.7h-18.4l67.9-151.3h17.9l67.7,151.3h-18.8L-2964.7,956.2z M-2971.6,940.2
				l-34.4-77.8l-33.9,77.8H-2971.6z"/>
			<path class="st0" d="M-2887.7,843.6v135.3h66.4v16h-83.6V843.6H-2887.7z"/>
		</g>
		<g>
			<path class="st0" d="M-3705.5,1080.5l20.9,66.3l20.6-66.3h8.7l20.9,66.3l20.7-66.3h9l-25.5,76.1h-8.9l-20.5-64.5l-20.8,64.5h-8.9
				l-25.4-76.1H-3705.5z"/>
			<path class="st0" d="M-3467.2,1118.5c0,21.4-17.6,38.4-39.8,38.4c-22.3,0-39.9-17-39.9-38.4c0-21.4,17.6-38.3,39.9-38.3
				C-3484.8,1080.2-3467.2,1097.1-3467.2,1118.5z M-3538,1118.5c0,16.8,14.1,30.4,31.1,30.4s30.9-13.6,30.9-30.4
				c0-16.8-13.9-30.2-30.9-30.2S-3538,1101.7-3538,1118.5z"/>
			<path class="st0" d="M-3347.2,1156.5l-16-24.3c-1.5,0.1-3.2,0.2-4.9,0.2h-20.2v24.1h-8.7v-76.1h28.9c19,0,30,9.4,30,25.5
				c0,12.5-6.2,21.1-17.2,24.6l17.9,26H-3347.2z M-3368,1124.4c13.8,0,21.6-6.2,21.6-18.2c0-11.6-7.8-17.7-21.6-17.7h-20.2v35.9
				H-3368z"/>
			<path class="st0" d="M-3212.5,1156.5l-28-36.2l-14.8,16.3v19.9h-8.7v-76.1h8.7v44.2l40.9-44.2h10.3l-30.2,33.2l32.5,42.9H-3212.5
				z"/>
			<path class="st0" d="M-3111.7,1088.6c-9.8,0-16.2,3.9-16.2,10.4c0,19.8,42.8,9.5,42.7,37.1c0,12.6-11.2,20.8-27.5,20.8
				c-11.1,0-22-4.8-29.1-11.6l3.9-7.5c7.1,6.7,16.7,10.7,25.3,10.7c11,0,17.8-4.5,17.8-11.8c0.1-20.3-42.7-9.6-42.7-36.8
				c0-12,10.5-19.6,26.3-19.6c8.8,0,17.8,2.8,24.1,7.1l-3.7,7.7C-3097.6,1090.5-3105.6,1088.6-3111.7,1088.6z"/>
		</g>
	</g>
	<g>
		<g>
			<polygon class="st2" points="-798.8,-1906.2 -999.7,-1815 -999.7,-1906.2 -999.7,-1997.4 			"/>
			<polygon class="st3" points="-999.7,-1815 -798.8,-1906.2 -798.8,-1815 -798.8,-1723.8 			"/>
			<polygon class="st4" points="-999.2,-1633 -798.3,-1724.3 -798.3,-1633 -798.3,-1541.8 			"/>
			<polygon class="st5" points="-999.2,-1450.6 -798.3,-1541.8 -798.3,-1450.6 -798.3,-1359.4 			"/>
			<linearGradient id="SVGID_19_" gradientUnits="userSpaceOnUse" x1="-999.1503" y1="-1541.8192" x2="-798.3007" y2="-1541.8192">
				<stop  offset="0" style="stop-color:#DBBCA0"/>
				<stop  offset="1" style="stop-color:#FCBB7C"/>
			</linearGradient>
			<polygon class="st26" points="-798.3,-1541.8 -999.2,-1450.6 -999.2,-1541.8 -999.2,-1633 			"/>
			<g>
				<linearGradient id="SVGID_20_" gradientUnits="userSpaceOnUse" x1="-999.1503" y1="-1724.2805" x2="-798.3007" y2="-1724.2805">
					<stop  offset="0" style="stop-color:#DBBCA0"/>
					<stop  offset="1" style="stop-color:#FCBB7C"/>
				</linearGradient>
				<polygon class="st27" points="-798.3,-1724.3 -999.2,-1633 -999.2,-1724.3 -999.2,-1815.5 				"/>
				
					<linearGradient id="SVGID_21_" gradientUnits="userSpaceOnUse" x1="-1227.825" y1="-1638.2445" x2="-1013.5386" y2="-1718.8672">
					<stop  offset="3.143308e-02" style="stop-color:#9CB3C2"/>
					<stop  offset="0.2789" style="stop-color:#A3B4BE"/>
					<stop  offset="0.6439" style="stop-color:#B7B7B2"/>
					<stop  offset="1" style="stop-color:#D1BBA3"/>
				</linearGradient>
				<polygon class="st28" points="-1200,-1724.3 -999.2,-1633 -999.2,-1724.3 -999.2,-1815.5 				"/>
			</g>
		</g>
		<g>
			
				<linearGradient id="SVGID_22_" gradientUnits="userSpaceOnUse" x1="-1262.2355" y1="-1906.2115" x2="-1625.0929" y2="-1906.2115">
				<stop  offset="0.655" style="stop-color:#66859A"/>
				<stop  offset="1" style="stop-color:#456581"/>
			</linearGradient>
			<polygon class="st29" points="-1601.2,-1906.2 -1400.3,-1815 -1400.3,-1906.2 -1400.3,-1997.4 			"/>
			
				<linearGradient id="SVGID_23_" gradientUnits="userSpaceOnUse" x1="-1338.6147" y1="-1814.9808" x2="-1655.1954" y2="-1814.9808">
				<stop  offset="0.2815" style="stop-color:#66859A"/>
				<stop  offset="0.6568" style="stop-color:#456581"/>
			</linearGradient>
			<polygon class="st30" points="-1400.3,-1815 -1601.2,-1906.2 -1601.2,-1815 -1601.2,-1723.8 			"/>
			<polygon class="st11" points="-1400.8,-1633 -1601.7,-1724.3 -1601.7,-1633 -1601.7,-1541.8 			"/>
			<polygon class="st11" points="-1400.8,-1450.6 -1601.7,-1541.8 -1601.7,-1450.6 -1601.7,-1359.4 			"/>
			
				<linearGradient id="SVGID_24_" gradientUnits="userSpaceOnUse" x1="-1389.4166" y1="-1541.1466" x2="-1605.8246" y2="-1553.8765">
				<stop  offset="0.2931" style="stop-color:#66859A"/>
				<stop  offset="1" style="stop-color:#456581"/>
			</linearGradient>
			<polygon class="st31" points="-1601.7,-1541.8 -1400.8,-1450.6 -1400.8,-1541.8 -1400.8,-1633 			"/>
			<g>
				
					<linearGradient id="SVGID_25_" gradientUnits="userSpaceOnUse" x1="-1288.6028" y1="-1596.0225" x2="-1602.6066" y2="-1852.7417">
					<stop  offset="0.2815" style="stop-color:#66859A"/>
					<stop  offset="0.6568" style="stop-color:#456581"/>
				</linearGradient>
				<polygon class="st32" points="-1601.7,-1724.3 -1400.8,-1633 -1400.8,-1724.3 -1400.8,-1815.5 				"/>
				<polygon class="st14" points="-1200,-1724.3 -1400.8,-1633 -1400.8,-1724.3 -1400.8,-1815.5 				"/>
			</g>
		</g>
		<g>
			<linearGradient id="SVGID_26_" gradientUnits="userSpaceOnUse" x1="-1362.012" y1="-1706.7903" x2="-1086.2314" y2="-1580.8492">
				<stop  offset="0" style="stop-color:#668299"/>
				<stop  offset="0.1491" style="stop-color:#6B869D"/>
				<stop  offset="0.3234" style="stop-color:#7993A7"/>
				<stop  offset="0.5098" style="stop-color:#90A9B9"/>
				<stop  offset="0.5845" style="stop-color:#9CB3C2"/>
				<stop  offset="1" style="stop-color:#B2BEBA"/>
			</linearGradient>
			<polygon class="st33" points="-1400.8,-1633 -1200,-1541.8 -1200,-1633 -1200,-1724.3 			"/>
			
				<linearGradient id="SVGID_27_" gradientUnits="userSpaceOnUse" x1="-1234.9417" y1="-1622.3967" x2="-1042.8228" y2="-1680.9707">
				<stop  offset="3.143308e-02" style="stop-color:#9CB3C2"/>
				<stop  offset="0.2789" style="stop-color:#A3B4BE"/>
				<stop  offset="0.6439" style="stop-color:#B7B7B2"/>
				<stop  offset="1" style="stop-color:#D1BBA3"/>
			</linearGradient>
			<polygon class="st34" points="-999.2,-1633 -1200,-1541.8 -1200,-1633 -1200,-1724.3 			"/>
		</g>
	</g>
	<g>
		<g>
			<polygon points="-798.8,772.2 -999.7,863.4 -999.7,772.2 -999.7,681 			"/>
			<polygon points="-999.7,863.4 -798.8,772.2 -798.8,863.4 -798.8,954.6 			"/>
			<polygon points="-999.2,1045.4 -798.3,954.1 -798.3,1045.4 -798.3,1136.6 			"/>
			<polygon points="-999.2,1227.8 -798.3,1136.6 -798.3,1227.8 -798.3,1319 			"/>
			<polygon points="-798.3,1136.6 -999.2,1227.8 -999.2,1136.6 -999.2,1045.4 			"/>
			<g>
				<polygon points="-798.3,954.1 -999.2,1045.4 -999.2,954.1 -999.2,862.9 				"/>
				<polygon points="-1200,954.1 -999.2,1045.4 -999.2,954.1 -999.2,862.9 				"/>
			</g>
		</g>
		<g>
			<polygon points="-1601.2,772.2 -1400.3,863.4 -1400.3,772.2 -1400.3,681 			"/>
			<polygon points="-1400.3,863.4 -1601.2,772.2 -1601.2,863.4 -1601.2,954.6 			"/>
			<polygon points="-1400.8,1045.4 -1601.7,954.1 -1601.7,1045.4 -1601.7,1136.6 			"/>
			<polygon points="-1400.8,1227.8 -1601.7,1136.6 -1601.7,1227.8 -1601.7,1319 			"/>
			<polygon points="-1601.7,1136.6 -1400.8,1227.8 -1400.8,1136.6 -1400.8,1045.4 			"/>
			<g>
				<polygon points="-1601.7,954.1 -1400.8,1045.4 -1400.8,954.1 -1400.8,862.9 				"/>
				<polygon points="-1200,954.1 -1400.8,1045.4 -1400.8,954.1 -1400.8,862.9 				"/>
			</g>
		</g>
		<g>
			<polygon points="-1400.8,1045.4 -1200,1136.6 -1200,1045.4 -1200,954.1 			"/>
			<polygon points="-999.2,1045.4 -1200,1136.6 -1200,1045.4 -1200,954.1 			"/>
		</g>
	</g>
	<g>
		<g>
			<polygon class="st0" points="1401.2,772.2 1200.3,863.4 1200.3,772.2 1200.3,681 			"/>
			<polygon class="st0" points="1200.3,863.4 1401.2,772.2 1401.2,863.4 1401.2,954.6 			"/>
			<polygon class="st0" points="1200.8,1045.4 1401.7,954.1 1401.7,1045.4 1401.7,1136.6 			"/>
			<polygon class="st0" points="1200.8,1227.8 1401.7,1136.6 1401.7,1227.8 1401.7,1319 			"/>
			<polygon class="st0" points="1401.7,1136.6 1200.8,1227.8 1200.8,1136.6 1200.8,1045.4 			"/>
			<g>
				<polygon class="st0" points="1401.7,954.1 1200.8,1045.4 1200.8,954.1 1200.8,862.9 				"/>
				<polygon class="st0" points="1000,954.1 1200.8,1045.4 1200.8,954.1 1200.8,862.9 				"/>
			</g>
		</g>
		<g>
			<polygon class="st0" points="598.8,772.2 799.7,863.4 799.7,772.2 799.7,681 			"/>
			<polygon class="st0" points="799.7,863.4 598.8,772.2 598.8,863.4 598.8,954.6 			"/>
			<polygon class="st0" points="799.2,1045.4 598.3,954.1 598.3,1045.4 598.3,1136.6 			"/>
			<polygon class="st0" points="799.2,1227.8 598.3,1136.6 598.3,1227.8 598.3,1319 			"/>
			<polygon class="st0" points="598.3,1136.6 799.2,1227.8 799.2,1136.6 799.2,1045.4 			"/>
			<g>
				<polygon class="st0" points="598.3,954.1 799.2,1045.4 799.2,954.1 799.2,862.9 				"/>
				<polygon class="st0" points="1000,954.1 799.2,1045.4 799.2,954.1 799.2,862.9 				"/>
			</g>
		</g>
		<g>
			<polygon class="st0" points="799.2,1045.4 1000,1136.6 1000,1045.4 1000,954.1 			"/>
			<polygon class="st0" points="1200.8,1045.4 1000,1136.6 1000,1045.4 1000,954.1 			"/>
		</g>
	</g>
	<g>
		<g>
			<polygon class="st2" points="1401.2,-1906.2 1200.3,-1815 1200.3,-1906.2 1200.3,-1997.4 			"/>
			<polygon class="st3" points="1200.3,-1815 1401.2,-1906.2 1401.2,-1815 1401.2,-1723.8 			"/>
			<polygon class="st4" points="1200.8,-1633 1401.7,-1724.3 1401.7,-1633 1401.7,-1541.8 			"/>
			<polygon class="st5" points="1200.8,-1450.6 1401.7,-1541.8 1401.7,-1450.6 1401.7,-1359.4 			"/>
			<linearGradient id="SVGID_28_" gradientUnits="userSpaceOnUse" x1="1200.8497" y1="-1541.8192" x2="1401.6993" y2="-1541.8192">
				<stop  offset="0" style="stop-color:#DBBCA0"/>
				<stop  offset="1" style="stop-color:#FCBB7C"/>
			</linearGradient>
			<polygon class="st35" points="1401.7,-1541.8 1200.8,-1450.6 1200.8,-1541.8 1200.8,-1633 			"/>
			<g>
				<linearGradient id="SVGID_29_" gradientUnits="userSpaceOnUse" x1="1200.8497" y1="-1724.2805" x2="1401.6993" y2="-1724.2805">
					<stop  offset="0" style="stop-color:#DBBCA0"/>
					<stop  offset="1" style="stop-color:#FCBB7C"/>
				</linearGradient>
				<polygon class="st36" points="1401.7,-1724.3 1200.8,-1633 1200.8,-1724.3 1200.8,-1815.5 				"/>
				<linearGradient id="SVGID_30_" gradientUnits="userSpaceOnUse" x1="972.1751" y1="-1638.2445" x2="1186.4614" y2="-1718.8672">
					<stop  offset="3.143308e-02" style="stop-color:#9CB3C2"/>
					<stop  offset="0.2789" style="stop-color:#A3B4BE"/>
					<stop  offset="0.6439" style="stop-color:#B7B7B2"/>
					<stop  offset="1" style="stop-color:#D1BBA3"/>
				</linearGradient>
				<polygon class="st37" points="1000,-1724.3 1200.8,-1633 1200.8,-1724.3 1200.8,-1815.5 				"/>
			</g>
		</g>
		<g>
			<linearGradient id="SVGID_31_" gradientUnits="userSpaceOnUse" x1="937.7646" y1="-1906.2115" x2="574.9072" y2="-1906.2115">
				<stop  offset="0.655" style="stop-color:#66859A"/>
				<stop  offset="1" style="stop-color:#456581"/>
			</linearGradient>
			<polygon class="st38" points="598.8,-1906.2 799.7,-1815 799.7,-1906.2 799.7,-1997.4 			"/>
			<linearGradient id="SVGID_32_" gradientUnits="userSpaceOnUse" x1="861.3853" y1="-1814.9808" x2="544.8046" y2="-1814.9808">
				<stop  offset="0.2815" style="stop-color:#66859A"/>
				<stop  offset="0.6568" style="stop-color:#456581"/>
			</linearGradient>
			<polygon class="st39" points="799.7,-1815 598.8,-1906.2 598.8,-1815 598.8,-1723.8 			"/>
			<polygon class="st11" points="799.2,-1633 598.3,-1724.3 598.3,-1633 598.3,-1541.8 			"/>
			<polygon class="st11" points="799.2,-1450.6 598.3,-1541.8 598.3,-1450.6 598.3,-1359.4 			"/>
			<linearGradient id="SVGID_33_" gradientUnits="userSpaceOnUse" x1="810.5834" y1="-1541.1466" x2="594.1755" y2="-1553.8765">
				<stop  offset="0.2931" style="stop-color:#66859A"/>
				<stop  offset="1" style="stop-color:#456581"/>
			</linearGradient>
			<polygon class="st40" points="598.3,-1541.8 799.2,-1450.6 799.2,-1541.8 799.2,-1633 			"/>
			<g>
				<linearGradient id="SVGID_34_" gradientUnits="userSpaceOnUse" x1="911.3972" y1="-1596.0225" x2="597.3935" y2="-1852.7417">
					<stop  offset="0.2815" style="stop-color:#66859A"/>
					<stop  offset="0.6568" style="stop-color:#456581"/>
				</linearGradient>
				<polygon class="st41" points="598.3,-1724.3 799.2,-1633 799.2,-1724.3 799.2,-1815.5 				"/>
				<polygon class="st14" points="1000,-1724.3 799.2,-1633 799.2,-1724.3 799.2,-1815.5 				"/>
			</g>
		</g>
		<g>
			<linearGradient id="SVGID_35_" gradientUnits="userSpaceOnUse" x1="837.988" y1="-1706.7903" x2="1113.7686" y2="-1580.8492">
				<stop  offset="0" style="stop-color:#668299"/>
				<stop  offset="0.1491" style="stop-color:#6B869D"/>
				<stop  offset="0.3234" style="stop-color:#7993A7"/>
				<stop  offset="0.5098" style="stop-color:#90A9B9"/>
				<stop  offset="0.5845" style="stop-color:#9CB3C2"/>
				<stop  offset="1" style="stop-color:#B2BEBA"/>
			</linearGradient>
			<polygon class="st42" points="799.2,-1633 1000,-1541.8 1000,-1633 1000,-1724.3 			"/>
			<linearGradient id="SVGID_36_" gradientUnits="userSpaceOnUse" x1="965.0583" y1="-1622.3967" x2="1157.1772" y2="-1680.9707">
				<stop  offset="3.143308e-02" style="stop-color:#9CB3C2"/>
				<stop  offset="0.2789" style="stop-color:#A3B4BE"/>
				<stop  offset="0.6439" style="stop-color:#B7B7B2"/>
				<stop  offset="1" style="stop-color:#D1BBA3"/>
			</linearGradient>
			<polygon class="st43" points="1200.8,-1633 1000,-1541.8 1000,-1633 1000,-1724.3 			"/>
		</g>
	</g>
</g>
</svg>
