<?xml version="1.0" encoding="UTF-8"?>
<svg version="1.1" xmlns="http://www.w3.org/2000/svg" width="2000" height="2000">
<path d="M0 0 C0 60.39 0 120.78 0 183 C2.97 183.99 5.94 184.98 9 186 C11.74429095 187.18405624 14.44533014 188.39133948 17.14453125 189.66796875 C17.89891983 190.01945984 18.65330841 190.37095093 19.43055725 190.73309326 C21.04940672 191.48757383 22.66731955 192.24406686 24.28436279 193.00241089 C28.6516535 195.04962124 33.02676805 197.07994562 37.40234375 199.109375 C38.74090424 199.73047401 38.74090424 199.73047401 40.10650635 200.36412048 C48.65305237 204.320202 57.2568712 208.1405654 65.875 211.9375 C78.81963863 217.64568433 91.67699096 223.52379366 104.5 229.5 C118.80738826 236.16773358 133.1665504 242.69441353 147.61767578 249.04467773 C155.54568427 252.53524076 163.42279381 256.11355117 171.2578125 259.80859375 C172.96576608 260.60997888 174.67377335 261.41124959 176.38183594 262.21240234 C179.64598857 263.74416976 182.89983411 265.29551158 186.14941406 266.85791016 C187.62789658 267.553172 189.10672 268.2477095 190.5859375 268.94140625 C191.24989532 269.26757431 191.91385315 269.59374237 192.59793091 269.92979431 C196.86377234 271.90346445 199.49329324 272.33543019 204 271 C206.38143559 270.0479507 208.66474833 269.06061303 210.9765625 267.96484375 C211.64623047 267.65500549 212.31589844 267.34516724 213.00585938 267.02593994 C214.45466191 266.35488638 215.90198374 265.68062856 217.34796143 265.00350952 C221.287513 263.15918438 225.23816278 261.33887627 229.1875 259.515625 C230.00392975 259.13798508 230.8203595 258.76034515 231.66152954 258.3712616 C239.21429693 254.88429806 246.81492152 251.51086796 254.42718506 248.15628052 C269.06990015 241.70188036 283.60813651 235.04246922 298.11212158 228.28256226 C310.73974619 222.40003944 323.41997383 216.65788439 336.16952515 211.04486084 C345.19340509 207.0697679 354.17486496 203.01571389 363.11328125 198.8515625 C364.04824432 198.4161615 364.9832074 197.9807605 365.94650269 197.53216553 C370.51463642 195.40241847 375.07885427 193.26467896 379.63867188 191.1171875 C381.29683709 190.34106482 382.95503841 189.56501929 384.61328125 188.7890625 C385.35959305 188.43462067 386.10590485 188.08017883 386.87483215 187.71499634 C387.58040756 187.38575165 388.28598297 187.05650696 389.01293945 186.71728516 C389.61717239 186.4324527 390.22140533 186.14762024 390.84394836 185.85415649 C393.81607474 184.67669812 396.92613811 183.87824626 400 183 C400 122.61 400 62.22 400 0 C412.49028482 5.35297921 424.88835131 10.71081736 437.18963623 16.45504761 C450.69063794 22.75617489 464.24237126 28.92683713 477.875 34.9375 C491.69440051 41.03264637 505.41052239 47.33108855 519.10012817 53.71194458 C531.28514253 59.38857289 543.51533091 64.94567882 555.8125 70.375 C566.9798687 75.30652887 578.11338986 80.29952419 589.1875 85.4375 C590.97087769 86.26290283 590.97087769 86.26290283 592.7902832 87.10498047 C600.8719241 90.8719241 600.8719241 90.8719241 602 92 C602.09905716 94.90155688 602.13174514 97.77933878 602.12304783 100.68136692 C602.12420167 101.60774954 602.12535552 102.53413217 602.12654433 103.48858699 C602.12921902 106.63389336 602.12468186 109.77914989 602.12025452 112.92445374 C602.12069004 115.18570751 602.12156461 117.44696124 602.12284368 119.7082147 C602.12509227 125.95402418 602.12106243 132.19981668 602.11606562 138.44562399 C602.11220735 144.47946188 602.1130248 150.51329786 602.11374746 156.54713647 C602.1150635 168.89579187 602.11171186 181.24444193 602.10573006 193.59309578 C602.09981966 205.82560312 602.09596545 218.05810823 602.09487724 230.29061699 C602.0948085 231.05026628 602.09473976 231.80991558 602.09466894 232.59258455 C602.09433062 236.4502202 602.09402923 240.30785586 602.09374207 244.16549151 C602.09163982 271.5124288 602.08489736 298.85936318 602.07543945 326.20629883 C602.06625994 352.77888982 602.05917392 379.35148001 602.05493164 405.92407227 C602.05473435 407.15198894 602.05473435 407.15198894 602.05453308 408.404712 C602.05321459 416.62529554 602.05193877 424.84587907 602.05069422 433.06646262 C602.04815778 449.81379393 602.04533653 466.56112519 602.04234314 483.30845642 C602.04220585 484.07852706 602.04206856 484.8485977 602.04192711 485.64200381 C602.03272135 537.09467044 602.01685481 588.54733538 602 640 C598.35512593 638.42078479 594.71106641 636.83969823 591.06713867 635.25830078 C590.04617851 634.8159761 589.02521835 634.37365143 587.97332001 633.91792297 C579.76755296 630.35511493 571.62789953 626.6645683 563.51452637 622.89703369 C550.48070366 616.84760298 537.39635017 610.92541152 524.25 605.125 C510.38987859 599.00773185 496.63191528 592.68861233 482.90042114 586.28833008 C470.71522442 580.61160703 458.48485698 575.05440413 446.1875 569.625 C435.0201313 564.69347113 423.88661014 559.70047581 412.8125 554.5625 C411.62358154 554.01223145 410.43466309 553.46196289 409.2097168 552.89501953 C401.1280759 549.1280759 401.1280759 549.1280759 400 548 C399.90237776 545.65972876 399.87002396 543.34901619 399.87974548 541.00828552 C399.87889106 540.26830812 399.87803663 539.52833072 399.87715632 538.76592976 C399.87549931 536.26767587 399.88102647 533.76948802 399.88647461 531.27124023 C399.88675646 529.48786419 399.88659879 527.70448803 399.8860321 525.92111206 C399.88574404 521.06387809 399.89164212 516.20666859 399.89860606 511.34944034 C399.90483821 506.27919052 399.90544329 501.20894019 399.90663147 496.13868713 C399.9097452 486.53036307 399.91795914 476.92205032 399.92798096 467.31373125 C399.93914081 456.37800472 399.94465222 445.44227766 399.94967639 434.50654685 C399.96014172 412.00435828 399.97774196 389.50217978 400 367 C398.99133692 367.46167415 397.98267384 367.92334829 396.94344521 368.39901257 C393.15836278 370.13132743 389.37299642 371.86302111 385.58754921 373.59453869 C383.95722664 374.34037331 382.32697849 375.08637062 380.69680977 375.83254147 C370.26663385 380.60654805 359.82490143 385.34739552 349.32104492 389.95751953 C334.75503425 396.35698878 320.30795765 402.99663698 305.88787842 409.71743774 C293.25936064 415.60037664 280.57641112 421.33821608 267.82846069 426.95715332 C253.31374787 433.35990515 238.91692207 440.00751443 224.53710938 446.70703125 C223.7008049 447.09654968 222.86450043 447.48606812 222.00285339 447.88739014 C220.45206033 448.6101441 218.90165916 449.3337399 217.35176086 450.05841064 C215.94541811 450.71449579 214.53667561 451.36546548 213.12539673 452.01086426 C211.63085723 452.70640614 210.14890308 453.42932219 208.67709351 454.17175293 C204.0307351 456.43638803 201.13237958 457.68674821 196 456 C193.47335136 454.97663869 191.04234167 453.914608 188.5859375 452.74609375 C187.8717868 452.41401413 187.15763611 452.08193451 186.42184448 451.73979187 C184.87879115 451.02160471 183.33722095 450.30022408 181.79699707 449.57598877 C177.62445406 447.61463488 173.44063407 445.67759304 169.2578125 443.73828125 C168.39877319 443.33933655 167.53973389 442.94039185 166.65466309 442.52935791 C158.95435321 438.96064334 151.20469584 435.51028047 143.43804932 432.08889771 C128.843892 425.659758 114.35475113 419.02552785 99.90042114 412.28833008 C86.97367076 406.26613909 73.9896972 400.39280961 60.94342041 394.63452148 C49.80386989 389.71654635 38.72532843 384.68794396 27.70385742 379.51025391 C18.52173262 375.2035229 9.27651449 371.12289533 0 367 C0 426.73 0 486.46 0 548 C-18.64482177 557.32241089 -18.64482177 557.32241089 -28.01806641 561.57739258 C-28.70588196 561.88996002 -29.39369751 562.20252747 -30.10235596 562.52456665 C-31.16543976 563.00740616 -31.16543976 563.00740616 -32.25 563.5 C-33.77395488 564.19484178 -35.2978799 564.88974905 -36.82177734 565.5847168 C-48.13020552 570.7333932 -59.48492646 575.77464402 -70.85046387 580.7956543 C-84.00650174 586.61270148 -97.0612792 592.63456206 -110.09902954 598.71139526 C-123.02320551 604.73239729 -136.00379838 610.60660269 -149.04852295 616.3614502 C-160.43152423 621.38403727 -171.74595838 626.53423462 -182.99926758 631.84130859 C-184.0436499 632.33195801 -185.08803223 632.82260742 -186.1640625 633.328125 C-187.50138428 633.96089355 -187.50138428 633.96089355 -188.86572266 634.60644531 C-193.19038691 636.5292669 -197.60564981 638.24225993 -202 640 C-202 459.16 -202 278.32 -202 92 C-183.35517823 82.67758911 -183.35517823 82.67758911 -173.98193359 78.42260742 C-172.95021027 77.95375626 -172.95021027 77.95375626 -171.89764404 77.47543335 C-170.83456024 76.99259384 -170.83456024 76.99259384 -169.75 76.5 C-168.22604512 75.80515822 -166.7021201 75.11025095 -165.17822266 74.4152832 C-153.86979448 69.2666068 -142.51507354 64.22535598 -131.14953613 59.2043457 C-117.99046213 53.38595608 -104.93303462 47.36200264 -91.89190674 41.28457642 C-79.17382261 35.3607075 -66.40364318 29.57414235 -53.56698608 23.91210938 C-39.78080597 17.82990847 -26.08347261 11.56365853 -12.41113281 5.22998047 C-11.27272194 4.70372574 -11.27272194 4.70372574 -10.11131287 4.1668396 C-8.68527711 3.50744081 -7.25999755 2.84640344 -5.83558655 2.1835022 C-1.11213775 0 -1.11213775 0 0 0 Z " fill="#6D8597" transform="translate(800,680)"/>
<path d="M0 0 C3.30672507 1.40946833 6.61231323 2.8215848 9.91772461 4.23413086 C11.30303501 4.82455296 11.30303501 4.82455296 12.71633148 5.42690277 C20.94829071 8.94733353 29.07801961 12.66723245 37.18963623 16.45504761 C50.69063794 22.75617489 64.24237126 28.92683713 77.875 34.9375 C91.69440051 41.03264637 105.41052239 47.33108855 119.10012817 53.71194458 C131.28514253 59.38857289 143.51533091 64.94567882 155.8125 70.375 C166.9798687 75.30652887 178.11338986 80.29952419 189.1875 85.4375 C190.97087769 86.26290283 190.97087769 86.26290283 192.7902832 87.10498047 C200.8719241 90.8719241 200.8719241 90.8719241 202 92 C202.09905716 94.90155688 202.13174514 97.77933878 202.12304783 100.68136692 C202.12420167 101.60774954 202.12535552 102.53413217 202.12654433 103.48858699 C202.12921902 106.63389336 202.12468186 109.77914989 202.12025452 112.92445374 C202.12069004 115.18570751 202.12156461 117.44696124 202.12284368 119.7082147 C202.12509227 125.95402418 202.12106243 132.19981668 202.11606562 138.44562399 C202.11220735 144.47946188 202.1130248 150.51329786 202.11374746 156.54713647 C202.1150635 168.89579187 202.11171186 181.24444193 202.10573006 193.59309578 C202.09981966 205.82560312 202.09596545 218.05810823 202.09487724 230.29061699 C202.0948085 231.05026628 202.09473976 231.80991558 202.09466894 232.59258455 C202.09433062 236.4502202 202.09402923 240.30785586 202.09374207 244.16549151 C202.09163982 271.5124288 202.08489736 298.85936318 202.07543945 326.20629883 C202.06625994 352.77888982 202.05917392 379.35148001 202.05493164 405.92407227 C202.05480011 406.74268338 202.05466859 407.56129449 202.05453308 408.404712 C202.05321459 416.62529554 202.05193877 424.84587907 202.05069422 433.06646262 C202.04815778 449.81379393 202.04533653 466.56112519 202.04234314 483.30845642 C202.0421372 484.46356238 202.0421372 484.46356238 202.04192711 485.64200381 C202.03272135 537.09467044 202.01685481 588.54733538 202 640 C198.35512593 638.42078479 194.71106641 636.83969823 191.06713867 635.25830078 C190.04617851 634.8159761 189.02521835 634.37365143 187.97332001 633.91792297 C179.76755296 630.35511493 171.62789953 626.6645683 163.51452637 622.89703369 C150.48070366 616.84760298 137.39635017 610.92541152 124.25 605.125 C110.38987859 599.00773185 96.63191528 592.68861233 82.90042114 586.28833008 C70.71522442 580.61160703 58.48485698 575.05440413 46.1875 569.625 C35.0201313 564.69347113 23.88661014 559.70047581 12.8125 554.5625 C11.62358154 554.01223145 10.43466309 553.46196289 9.2097168 552.89501953 C1.1280759 549.1280759 1.1280759 549.1280759 0 548 C-0.09905716 545.09844312 -0.13174514 542.22066122 -0.12304783 539.31863308 C-0.12420167 538.39225046 -0.12535552 537.46586783 -0.12654433 536.51141301 C-0.12921902 533.36610664 -0.12468186 530.22085011 -0.12025452 527.07554626 C-0.12069004 524.81429249 -0.12156461 522.55303876 -0.12284368 520.2917853 C-0.12509227 514.04597582 -0.12106243 507.80018332 -0.11606562 501.55437601 C-0.11220735 495.52053812 -0.1130248 489.48670214 -0.11374746 483.45286353 C-0.1150635 471.10420813 -0.11171186 458.75555807 -0.10573006 446.40690422 C-0.09981966 434.17439688 -0.09596545 421.94189177 -0.09487724 409.70938301 C-0.0948085 408.94973372 -0.09473976 408.19008442 -0.09466894 407.40741545 C-0.09433062 403.5497798 -0.09402923 399.69214414 -0.09374207 395.83450849 C-0.09163982 368.4875712 -0.08489736 341.14063682 -0.07543945 313.79370117 C-0.06625994 287.22111018 -0.05917392 260.64851999 -0.05493164 234.07592773 C-0.05473435 232.84801106 -0.05473435 232.84801106 -0.05453308 231.595288 C-0.05321459 223.37470446 -0.05193877 215.15412093 -0.05069422 206.93353738 C-0.04815778 190.18620607 -0.04533653 173.43887481 -0.04234314 156.69154358 C-0.04220585 155.92147294 -0.04206856 155.1514023 -0.04192711 154.35799619 C-0.03272135 102.90532956 -0.01685481 51.45266462 0 0 Z " fill="#EFBA87" transform="translate(1200,680)"/>
<path d="M0 0 C3.30672507 1.40946833 6.61231323 2.8215848 9.91772461 4.23413086 C11.30303501 4.82455296 11.30303501 4.82455296 12.71633148 5.42690277 C20.94829071 8.94733353 29.07801961 12.66723245 37.18963623 16.45504761 C50.69063794 22.75617489 64.24237126 28.92683713 77.875 34.9375 C91.69440051 41.03264637 105.41052239 47.33108855 119.10012817 53.71194458 C132.02069509 59.7312445 144.9982956 65.60216112 158.03845215 71.35742188 C172.44738769 77.71837538 186.74531624 84.30092537 201 91 C199.46187417 94.07625166 196.50017135 94.72886215 193.46875 96.02734375 C192.78321045 96.32770035 192.0976709 96.62805695 191.39135742 96.93751526 C189.89070591 97.59473909 188.3888552 98.24922973 186.88598633 98.90136719 C182.77130295 100.68819991 178.66671156 102.49786323 174.5625 104.30859375 C173.69911011 104.68925995 172.83572021 105.06992615 171.94616699 105.46212769 C162.40562329 109.6824238 152.9529677 114.08794996 143.5 118.5 C129.99355594 124.79761233 116.43749257 130.95815617 102.80126953 136.96923828 C89.76552054 142.72021906 76.83472575 148.68178409 63.92147827 154.70214844 C49.76437394 161.29913725 35.53601456 167.71861582 21.2421875 174.01367188 C20.52717575 174.32896851 19.812164 174.64426514 19.07548523 174.96911621 C17.75829189 175.54949111 16.44048545 176.12847775 15.12190247 176.70568848 C12.26471016 177.96341627 9.46631714 179.27303424 6.6862793 180.6953125 C4 182 4 182 2 182 C1.505 182.99 1.505 182.99 1 184 C-0.66749941 182.33250059 -0.12214776 180.30804249 -0.12908131 178.08123869 C-0.12616847 177.37210799 -0.12325563 176.66297729 -0.12025452 175.93235779 C-0.12110894 175.18421328 -0.12196337 174.43606877 -0.12284368 173.66525322 C-0.12450073 171.13936053 -0.11897348 168.61353314 -0.11352539 166.08764648 C-0.11324354 164.28456626 -0.11340121 162.48148592 -0.1139679 160.67840576 C-0.11425596 155.76745461 -0.10835784 150.85652766 -0.10139394 145.94558215 C-0.09516184 140.81927788 -0.09455672 135.69297312 -0.09336853 130.56666565 C-0.09025479 120.85209374 -0.08204083 111.13753303 -0.07201904 101.42296606 C-0.06085923 90.36632283 -0.05534779 79.30967907 -0.05032361 68.25303161 C-0.03985825 45.50201486 -0.02225798 22.75100805 0 0 Z " fill="#D7BB96" transform="translate(1200,680)"/>
</svg>
