<svg id="Layer_1" viewBox="0 0 168 168" xmlns="http://www.w3.org/2000/svg" data-name="Layer 1"><path d="m112 56h4a2 2 0 0 0 0-4h-4a2 2 0 0 0 0 4z" fill="#0bceb2"/><path d="m100 56h4a2 2 0 0 0 0-4h-4a2 2 0 0 0 0 4z" fill="#0bceb2"/><path d="m91 76h-5a2 2 0 0 0 0 4h5a2 2 0 0 0 0-4z" fill="#0bceb2"/><path d="m112 76h-13a2 2 0 0 0 0 4h13a2 2 0 0 0 0-4z" fill="#2d4356"/><path d="m52 72h16a2 2 0 0 0 0-4h-16a2 2 0 0 0 0 4z" fill="#0bceb2"/><path d="m76 72h39a2 2 0 0 0 0-4h-39a2 2 0 0 0 0 4z" fill="#2d4356"/><path d="m52 80h26a2 2 0 0 0 0-4h-26a2 2 0 0 0 0 4z" fill="#2d4356"/><path d="m87 86a2.0001 2.0001 0 0 0 -2-2h-33a2 2 0 0 0 0 4h33a2.0001 2.0001 0 0 0 2-2z" fill="#0bceb2"/><g fill="#2d4356"><path d="m16.30471 38.49023a3 3 0 1 0 -3-3 3.00344 3.00344 0 0 0 3 3zm0-4.5a1.5 1.5 0 1 1 -1.5 1.5 1.50148 1.50148 0 0 1 1.5-1.5z"/><path d="m158.30471 69a2 2 0 1 0 2 2 2.00229 2.00229 0 0 0 -2-2zm0 3a1 1 0 1 1 1-1 1.001 1.001 0 0 1 -1 1z"/><path d="m139 42a2 2 0 1 0 2 2 2.00229 2.00229 0 0 0 -2-2zm0 3a1 1 0 1 1 1-1 1.001 1.001 0 0 1 -1 1z"/><path d="m158.30471 10a2 2 0 1 0 2 2 2.00229 2.00229 0 0 0 -2-2zm0 3a1 1 0 1 1 1-1 1.001 1.001 0 0 1 -1 1z"/><path d="m66 8a2 2 0 1 0 -2 2 2.00229 2.00229 0 0 0 2-2zm-3 0a1 1 0 1 1 1 1 1.001 1.001 0 0 1 -1-1z"/></g><path d="m10.888 69.011 1.487-1.955-.939-.532-.955 2.19h-.031l-.97-2.175-.955.548 1.471 1.909v.031l-2.301-.297v1.064l2.316-.297v.031l-1.486 1.908.891.564 1.018-2.206h.031l.939 2.19.986-.563-1.502-1.878v-.031l2.362.282v-1.064l-2.362.312z" fill="#0bceb2"/><path d="m48.994 40.547-.856 1.099.514.324.586-1.27h.018l.54 1.261.568-.324-.865-1.082v-.017l1.36.162v-.613l-1.36.18v-.018l.856-1.126-.54-.306-.55 1.261h-.018l-.558-1.252-.551.315.848 1.099v.018l-1.325-.171v.613l1.333-.171z" fill="#0bceb2"/><path d="m116.724 11.521v-1.043l-2.317.307v-.031l1.459-1.918-.921-.522-.936 2.148h-.032l-.95-2.133-.938.538 1.444 1.872v.031l-2.257-.292v1.043l2.272-.291v.031l-1.459 1.872.875.553.999-2.165h.029l.921 2.149.968-.552-1.474-1.842v-.031z" fill="#0bceb2"/><path d="m93.351 36.288 1.258-1.655-.794-.45-.807 1.853h-.027l-.821-1.84-.808.464 1.245 1.615v.026l-1.947-.251v.9l1.96-.251v.026l-1.258 1.615.754.477.862-1.867h.026l.794 1.853.834-.476-1.271-1.589v-.026l1.999.238v-.9l-1.999.264z" fill="#0bceb2"/><circle cx="2" cy="146" fill="#2d4356" r="2"/><path d="m11 144h-3a2 2 0 0 0 0 4h3a2 2 0 0 0 0-4z" fill="#2d4356"/><path d="m160 144h-3a2 2 0 0 0 0 4h3a2 2 0 0 0 0-4z" fill="#2d4356"/><circle cx="166" cy="146" fill="#2d4356" r="2"/><path d="m118.15387 152h-8.30774a2.00641 2.00641 0 0 0 0 4h8.30774a2.00641 2.00641 0 0 0 0-4z" fill="#0bceb2"/><path d="m58.15387 152h-8.30774a2.00641 2.00641 0 0 0 0 4h8.30774a2.00641 2.00641 0 0 0 0-4z" fill="#0bceb2"/><path d="m104 152h-40a2 2 0 0 0 0 4h15.94v2h-7.94a2 2 0 0 0 0 4h25a2 2 0 0 0 0-4h-8.94v-2h15.94a2 2 0 0 0 0-4z" fill="#0bceb2"/><path d="m150.72 144h-2.73a4.03305 4.03305 0 0 0 -1.44-3.09l-12.12-10a5.2572 5.2572 0 0 0 -.49-.33 3.67916 3.67916 0 0 0 .06-.58v-50a3.99887 3.99887 0 0 0 -4-4h-4v-26a6.00476 6.00476 0 0 0 -6-6h-58a1.95263 1.95263 0 0 0 -.24.02.27639.27639 0 0 1 -.09.01 2.5449 2.5449 0 0 0 -.47.14.46643.46643 0 0 1 -.1.05 2.44 2.44 0 0 0 -.43.28l-18 16a1.90064 1.90064 0 0 0 -.34.42 1.47892 1.47892 0 0 0 -.08.13 1.862 1.862 0 0 0 -.17.41c0 .03-.02.06-.02.09a1.68531 1.68531 0 0 0 -.06.45v14h-4a3.99891 3.99891 0 0 0 -4 4v50a3.67917 3.67917 0 0 0 .06.58 5.26529 5.26529 0 0 0 -.49.33l-12.12 10a4.03305 4.03305 0 0 0 -1.44 3.09h-2.73a2.0172 2.0172 0 1 0 0 4h133.44a2.0172 2.0172 0 1 0 0-4zm-96.88-88.07 6.16-5.48v7.55a2.00587 2.00587 0 0 1 -2 2h-8.74zm-7.84 8.07h12a6.00476 6.00476 0 0 0 6-6v-10h56a2.00587 2.00587 0 0 1 2 2v10h-52a2 2 0 0 0 0 4h52v58h-9v-1.49a5.49766 5.49766 0 0 0 -3.67-5.19 27.31442 27.31442 0 0 0 -2.83-7.07 5.49936 5.49936 0 0 0 -.93-6.36l-2.02-2.1a5.385 5.385 0 0 0 -6.3-1.09 25.6664 25.6664 0 0 0 -6.64-2.85 5.431 5.431 0 0 0 -5.18-3.85h-2.86a5.431 5.431 0 0 0 -5.18 3.85 25.6664 25.6664 0 0 0 -6.64 2.85 5.385 5.385 0 0 0 -6.3 1.09l-2.02 2.1a5.49936 5.49936 0 0 0 -.93 6.36 27.31211 27.31211 0 0 0 -2.83 7.07 5.49772 5.49772 0 0 0 -3.67 5.19v1.49h-9zm19.31 42.76a1.52254 1.52254 0 0 1 0-2.1l2.02-2.1a1.402 1.402 0 0 1 1.01-.43 1.38569 1.38569 0 0 1 1.01.43l1.15 1.2a21.41178 21.41178 0 0 1 10.64-4.59v-1.68a1.46262 1.46262 0 0 1 1.43-1.49h2.86a1.46258 1.46258 0 0 1 1.43 1.49v1.68a21.41155 21.41155 0 0 1 10.64 4.59l1.15-1.2a1.40113 1.40113 0 0 1 2.02 0l2.02 2.1a1.52254 1.52254 0 0 1 0 2.1l-1.15 1.2a23.28673 23.28673 0 0 1 4.41 11.07h1.62a1.45387 1.45387 0 0 1 1.43 1.48v1.49h-50v-1.49a1.45387 1.45387 0 0 1 1.43-1.48h1.62a23.28673 23.28673 0 0 1 4.41-11.07zm-27.31-26.76h4v44a2.00591 2.00591 0 0 0 2 2h80a2.00591 2.00591 0 0 0 2-2v-44h4v50h-92zm-14 64 12.12-10h95.76l12.12 10z" fill="#2d4356"/><path d="m102 122h-4a14 14 0 0 0 -28 0h-4a18 18 0 0 1 36 0z" fill="#0bceb2"/></svg>