<svg id="Layer_1" enable-background="new 0 0 100 100" height="100" viewBox="0 0 100 100" width="100" xmlns="http://www.w3.org/2000/svg"><g><path d="m6.507 15.766h86.985v49.024h-86.985z" fill="#333"/><path d="m31.658 53.108h4.169v1.462h-4.169z" fill="#f9ec31"/><path d="m43.443 40.796h4.169v1.462h-4.169z" fill="#9a8479"/><path d="m34.869 38.386h4.169v1.463h-4.169z" fill="#faaf40"/><g><path d="m13.538 21.097h4.169v1.462h-4.169z" fill="#ee4036"/><path d="m13.538 33.408h4.169v1.463h-4.169z" fill="#ee4036"/><path d="m13.538 38.386h4.169v1.463h-4.169z" fill="#faaf40"/><path d="m13.538 40.796h4.169v1.462h-4.169z" fill="#9a8479"/><path d="m13.538 35.871h6.97v1.462h-6.97z" fill="#00adee"/><path d="m18.733 38.386h15.136v1.463h-15.136z" fill="#a6a8ab"/><path d="m18.733 40.796h23.71v1.462h-23.71z" fill="#a6a8ab"/><path d="m13.538 43.258h4.169v1.463h-4.169z" fill="#00a69c"/><path d="m13.538 48.183h4.169v1.463h-4.169z" fill="#f9ec31"/><path d="m52.91 43.258h4.17v1.463h-4.17z" fill="#00a69c"/><g fill="#a6a8ab"><path d="m18.733 43.258h33.177v1.463h-33.177z"/><path d="m13.538 45.721h33.214v1.462h-33.214z"/><path d="m18.733 48.183h28.019v1.463h-28.019z"/><path d="m13.538 50.646h20.331v1.462h-20.331z"/><path d="m13.538 53.107h17.051v1.463h-17.051z"/><path d="m13.538 55.57h8.525v1.462h-8.525z"/></g><path d="m13.538 58.032h6.97v1.463h-6.97z" fill="#00adee"/><path d="m13.538 23.559h10.391v1.463h-10.391z" fill="#8bc53f"/><path d="m13.538 26.021h13.855v1.462h-13.855z" fill="#8bc53f"/><path d="m13.538 28.483h10.391v1.463h-10.391z" fill="#8bc53f"/><path d="m13.538 30.946h10.391v1.462h-10.391z" fill="#8bc53f"/></g><g fill="#58595b"><path d="m11.274 21.097h1.264v1.462h-1.264z"/><path d="m11.274 23.559h1.264v1.463h-1.264z"/><path d="m11.274 26.021h1.264v1.462h-1.264z"/><path d="m11.274 28.483h1.264v1.463h-1.264z"/><path d="m11.274 30.946h1.264v1.462h-1.264z"/><path d="m11.274 33.408h1.264v1.463h-1.264z"/><path d="m11.274 35.871h1.264v1.462h-1.264z"/><path d="m11.274 38.333h1.264v1.463h-1.264z"/><path d="m11.274 40.796h1.264v1.462h-1.264z"/><path d="m11.274 43.258h1.264v1.463h-1.264z"/><path d="m11.274 45.721h1.264v1.462h-1.264z"/><path d="m11.274 48.183h1.264v1.463h-1.264z"/><path d="m11.274 50.646h1.264v1.462h-1.264z"/><path d="m11.274 53.107h1.264v1.463h-1.264z"/><path d="m11.274 55.57h1.264v1.462h-1.264z"/><path d="m11.274 58.032h1.264v1.463h-1.264z"/></g><path d="m94.668 11.943h-43.881-1.496-43.88c-1.563 0-2.91 1.189-2.91 2.753v54.093.19 5.011.315c0 1.563 1.347 2.877 2.91 2.877h35.146c-.041.896-.321 4.753-2.155 6.623-1.445 1.472-3.453 2.854-2.669 3.563.19.435 1.091.688 3.14.688h11.208.708 11.207c2.334 0 3.15-.382 3.158-.953h-.08v-.189h-.084c-.105-.769-1.662-1.908-2.84-3.106-1.834-1.87-2.113-5.726-2.154-6.623h34.674c1.564 0 2.83-1.313 2.83-2.877v-.315-5.011-.19-54.094c0-1.565-1.27-2.755-2.832-2.755zm-44.668 62.497c-1.021 0-1.847-.825-1.847-1.846s.826-1.847 1.847-1.847c1.02 0 1.846.826 1.846 1.847.002 1.021-.826 1.846-1.846 1.846zm43.494-9.655h-86.987v-49.024h86.987z" fill="#404041"/></g></svg>