<svg id="Layer_1" enable-background="new 0 0 100 100" height="100" viewBox="0 0 100 100" width="100" xmlns="http://www.w3.org/2000/svg"><path d="m94.668 11.943h-43.881-1.496-43.881c-1.563 0-2.91 1.189-2.91 2.752v54.094.189 5.012.314c0 1.564 1.347 2.877 2.91 2.877h35.146c-.041.896-.321 4.754-2.155 6.623-1.445 1.473-3.453 2.855-2.669 3.564.19.434 1.091.688 3.14.688h11.208.708 11.207c2.334 0 3.15-.383 3.158-.953h-.08v-.189h-.083c-.105-.77-1.662-1.908-2.84-3.107-1.834-1.869-2.113-5.725-2.154-6.623h34.674c1.564 0 2.83-1.313 2.83-2.877v-.314-5.013-.189-54.094c0-1.565-1.27-2.754-2.832-2.754zm-44.669 62.496c-1.021 0-1.847-.824-1.847-1.846 0-1.02.826-1.846 1.847-1.846s1.847.826 1.847 1.846c.002 1.022-.826 1.846-1.847 1.846zm43.495-9.654h-86.987v-49.025h86.987z" fill="#404041"/><path d="m6.507 15.76h55.058v49.025h-55.058z" fill="#333"/><g><g><path d="m12.889 20.662h4.169v1.462h-4.169z" fill="#ee4036"/><path d="m12.889 32.974h4.169v1.462h-4.169z" fill="#ee4036"/><path d="m12.889 37.951h4.169v1.463h-4.169z" fill="#faaf40"/><path d="m12.889 40.361h4.169v1.463h-4.169z" fill="#9a8479"/><path d="m12.889 35.437h6.97v1.462h-6.97z" fill="#00adee"/><path d="m18.084 37.951h15.136v1.463h-15.136z" fill="#a6a8ab"/><path d="m18.084 40.361h23.71v1.463h-23.71z" fill="#a6a8ab"/><path d="m12.889 42.824h4.169v1.462h-4.169z" fill="#00a69c"/><path d="m12.889 47.748h4.169v1.463h-4.169z" fill="#f9ec31"/><path d="m52.262 42.824h4.17v1.462h-4.17z" fill="#00a69c"/><g fill="#a6a8ab"><path d="m18.084 42.824h33.178v1.462h-33.178z"/><path d="m12.889 45.286h33.214v1.462h-33.214z"/><path d="m18.084 47.748h28.019v1.463h-28.019z"/><path d="m12.889 50.211h20.331v1.463h-20.331z"/><path d="m12.889 52.674h17.051v1.462h-17.051z"/><path d="m12.889 55.136h8.525v1.462h-8.525z"/></g><path d="m12.889 57.598h6.97v1.463h-6.97z" fill="#00adee"/><path d="m12.889 23.125h10.391v1.462h-10.391z" fill="#8bc53f"/><path d="m12.889 25.587h13.855v1.462h-13.855z" fill="#8bc53f"/><path d="m12.889 28.049h10.391v1.462h-10.391z" fill="#8bc53f"/><path d="m12.889 30.512h10.391v1.462h-10.391z" fill="#8bc53f"/></g><g fill="#58595b"><path d="m10.625 20.662h1.264v1.462h-1.264z"/><path d="m10.625 23.125h1.264v1.462h-1.264z"/><path d="m10.625 25.587h1.264v1.462h-1.264z"/><path d="m10.625 28.049h1.264v1.462h-1.264z"/><path d="m10.625 30.512h1.264v1.462h-1.264z"/><path d="m10.625 32.974h1.264v1.462h-1.264z"/><path d="m10.625 35.437h1.264v1.462h-1.264z"/><path d="m10.625 37.898h1.264v1.463h-1.264z"/><path d="m10.625 40.361h1.264v1.463h-1.264z"/><path d="m10.625 42.824h1.264v1.462h-1.264z"/><path d="m10.625 45.286h1.264v1.462h-1.264z"/><path d="m10.625 47.748h1.264v1.463h-1.264z"/><path d="m10.625 50.211h1.264v1.463h-1.264z"/><path d="m10.625 52.674h1.264v1.462h-1.264z"/><path d="m10.625 55.136h1.264v1.462h-1.264z"/><path d="m10.625 57.598h1.264v1.463h-1.264z"/></g></g><path d="m64.99 21.244h25.047v4.925h-25.047z" fill="#00a69c"/><path d="m64.99 28.175h11.523v14.652h-11.523z" fill="#8bc53f"/><path d="m78.514 28.175h11.523v14.652h-11.523z" fill="#00a69c"/><path d="m64.99 44.827h11.523v14.652h-11.523z" fill="#ee4036"/><path d="m78.514 44.827h11.523v14.652h-11.523z" fill="#808184"/></svg>