<svg height="512" viewBox="0 0 64 64" width="512" xmlns="http://www.w3.org/2000/svg"><g id="Flat_copy_3"><g><g><path d="m.5 10.505h63v49h-63z" fill="#fff"/></g><g><path d="m63 11.005v48h-62v-48zm1-1h-64v50h64z" fill="#efefef"/></g></g><g><g><path d="m64 10.005v-3c0-1.65-1.35-3-3-3h-58c-1.65 0-3 1.35-3 3v3z" fill="#3b3b3b"/></g><g><g><circle cx="4.021" cy="7.005" fill="#999" r=".854"/></g><g><circle cx="6.583" cy="7.005" fill="#999" r=".854"/></g><g><circle cx="9.146" cy="7.005" fill="#999" r=".854"/></g></g><g><path d="m55.5 8.505h-37c-.825 0-1.5-.675-1.5-1.5 0-.825.675-1.5 1.5-1.5h37c.825 0 1.5.675 1.5 1.5 0 .825-.675 1.5-1.5 1.5z" fill="#fff"/></g></g><g><path d="m7 22.005h50v1h-50z" fill="#999"/></g><g><path d="m7 19.005h50v1h-50z" fill="#999"/></g><g><path d="m7 16.005h50v1h-50z" fill="#999"/></g><g><path d="m7 28.005h22v26h-22z" fill="#db2b42"/></g><g><path d="m35 28.005h22v26h-22z" fill="#999"/></g></g></svg>