<svg height="512" viewBox="0 0 64 64" width="512" xmlns="http://www.w3.org/2000/svg"><g id="Layer_2_copy_4"><g><path d="m1.103 7.724h61.793v46.345h-61.793z" fill="#fff" transform="matrix(0 1 -1 0 62.897 -1.103)"/></g><g><path d="m13.241 38.13h37.517v19.227h-37.517z" fill="#ccc"/></g><g><path d="m15.569 40.724h32.862v.736h-32.862z" fill="#fff"/></g><g><path d="m15.569 42.625h32.862v.736h-32.862z" fill="#fff"/></g><g><path d="m15.569 44.525h32.862v.736h-32.862z" fill="#fff"/></g><g><path d="m15.569 47.161v-.735h32.862v.735" fill="#fff"/></g><g><path d="m15.569 48.326h32.862v.736h-32.862z" fill="#fff"/></g><g><path d="m15.569 50.226h32.862v.736h-32.862z" fill="#fff"/></g><g><path d="m15.569 52.127h32.862v.736h-32.862z" fill="#fff"/></g><g><path d="m48.431 54.027v.736h-32.862v-.736" fill="#fff"/></g><g><path d="m13.241 11.85h37.517v21.866h-37.517z" fill="#32bea6"/></g><g><path d="m13.241 36.659h9.379v1.471h-9.379z"/></g><g><path d="m22.621 36.659h9.379v1.471h-9.379z" fill="#32bea6"/></g><g><path d="m32 36.659h9.379v1.471h-9.379z"/></g><g><path d="m41.379 36.659h9.379v1.471h-9.379z" fill="#32bea6"/></g><g><path d="m28.282-19.454h7.436v46.345h-7.436z" transform="matrix(0 1 -1 0 35.718 -28.282)"/></g><g><path d="m13.241 2.702h13.759v.736h-13.759z" fill="#fff"/></g><g><path d="m13.241 3.999h10.537v.736h-10.537z" fill="#fff"/></g><g><path d="m33.563 3.999h2.7v.736h-2.7z" fill="#fff"/></g><g><path d="m37.187 3.999h2.7v.736h-2.7z" fill="#fff"/></g><g><path d="m40.811 3.999h2.7v.736h-2.7z" fill="#fff"/></g><g><path d="m44.435 3.999h2.7v.736h-2.7z" fill="#fff"/></g><g><path d="m48.059 3.999h2.7v.736h-2.7z" fill="#fff"/></g><g><path d="m30.897 39.724h2.207v46.345h-2.207z" transform="matrix(0 1 -1 0 94.897 30.897)"/></g></g></svg>