<svg id="Layer_1" viewBox="0 0 168 168" xmlns="http://www.w3.org/2000/svg" data-name="Layer 1"><path d="m116 52.24882h-4a2 2 0 0 0 0 4h4a2 2 0 0 0 0-4z" fill="#0bceb2"/><path d="m104 52.24882h-4a2 2 0 0 0 0 4h4a2 2 0 0 0 0-4z" fill="#0bceb2"/><path d="m112.63641 83.24882a5.59577 5.59577 0 0 0 -3.19025.98138 5.60813 5.60813 0 0 0 -6.36487.01813 5.54152 5.54152 0 0 0 -3.19653-.99951 5.37717 5.37717 0 0 0 -4.73736 2.78618 5.32006 5.32006 0 0 0 -4.7714-2.78618 5.59563 5.59563 0 0 0 -3.19025.98138 5.60919 5.60919 0 0 0 -6.36517.01788 5.54184 5.54184 0 0 0 -3.19623-.99927 5.377 5.377 0 0 0 -4.73755 2.78656 5.32019 5.32019 0 0 0 -4.77161-2.78656 5.59563 5.59563 0 0 0 -3.19025.98138 5.60919 5.60919 0 0 0 -6.36517.01788 5.542 5.542 0 0 0 -3.19623-.99927 5.1418 5.1418 0 0 0 -4.85791 7.36066l3.43988 7.55273.02643.05688a5.41635 5.41635 0 0 0 4.90131 3.02972 5.52116 5.52116 0 0 0 2.87756-.80432 5.54256 5.54256 0 0 0 2.87976.80432 5.25506 5.25506 0 0 0 4.92029-3.10468l3.296-7.35815 3.3595 7.37622.02643.05688a5.41635 5.41635 0 0 0 4.90131 3.02972 5.52173 5.52173 0 0 0 2.87756-.80432 5.54256 5.54256 0 0 0 2.87976.80432 5.25512 5.25512 0 0 0 4.91992-3.10388l3.29614-7.35846 3.35925 7.37573.02643.05676a5.41611 5.41611 0 0 0 4.90131 3.02985 5.52173 5.52173 0 0 0 2.87756-.80432 5.54334 5.54334 0 0 0 2.87982.80432 5.25525 5.25525 0 0 0 4.92023-3.10468l3.42523-7.64673a5.01676 5.01676 0 0 0 .50269-2.14193 5.184 5.184 0 0 0 -5.36359-5.10662zm-43.28381 5.55328-3.45953 7.72327a1.29686 1.29686 0 0 1 -1.26245.72345 1.38481 1.38481 0 0 1 -1.313-.80865l-1.56549-4.65979-1.56585 4.63862a1.369 1.369 0 0 1 -1.313.82983 1.39434 1.39434 0 0 1 -1.28754-.74457l-3.45953-7.59583a1.35843 1.35843 0 0 1 -.12621-.51069 1.26487 1.26487 0 0 1 1.36359-1.14893 1.3505 1.3505 0 0 1 1.2879.74457l2.09551 5.23389 1.69171-5.14862a1.31563 1.31563 0 0 1 1.31342-.82983 1.34709 1.34709 0 0 1 1.28754.76569l1.69214 5.21277 2.07043-5.23389a1.36259 1.36259 0 0 1 1.313-.74457 1.21936 1.21936 0 0 1 1.36359 1.10663 1.07933 1.07933 0 0 1 -.12623.44665zm22.2608 0-3.45953 7.72327a1.29686 1.29686 0 0 1 -1.26245.72345 1.38481 1.38481 0 0 1 -1.313-.80865l-1.56542-4.6598-1.56592 4.63863a1.369 1.369 0 0 1 -1.313.82983 1.39434 1.39434 0 0 1 -1.28754-.74457l-3.45947-7.59583a1.35743 1.35743 0 0 1 -.12628-.51068 1.26487 1.26487 0 0 1 1.36359-1.14893 1.3505 1.3505 0 0 1 1.2879.74457l2.09552 5.23389 1.69171-5.14862a1.31572 1.31572 0 0 1 1.31348-.82983 1.34706 1.34706 0 0 1 1.28748.76569l1.69214 5.21277 2.07039-5.23391a1.36259 1.36259 0 0 1 1.313-.74457 1.21936 1.21936 0 0 1 1.36359 1.10663 1.07933 1.07933 0 0 1 -.12619.44666zm22.26038 0-3.45953 7.72327a1.29682 1.29682 0 0 1 -1.26239.72345 1.3849 1.3849 0 0 1 -1.313-.80865l-1.56543-4.65979-1.56597 4.63862a1.369 1.369 0 0 1 -1.313.82983 1.39418 1.39418 0 0 1 -1.28748-.74457l-3.45953-7.59583a1.35743 1.35743 0 0 1 -.12628-.51068 1.26487 1.26487 0 0 1 1.36359-1.14893 1.3505 1.3505 0 0 1 1.2879.74457l2.09552 5.23389 1.69171-5.14862a1.31614 1.31614 0 0 1 1.31348-.82983 1.347 1.347 0 0 1 1.28748.76569l1.69214 5.21277 2.07043-5.23389a1.36259 1.36259 0 0 1 1.313-.74457 1.21936 1.21936 0 0 1 1.36358 1.10661 1.07933 1.07933 0 0 1 -.12622.44666z" fill="#0bceb2"/><path d="m114 105.24882h-60a2 2 0 0 0 0 4h60a2 2 0 0 0 0-4z" fill="#2d4356"/><circle cx="2" cy="146.249" fill="#2d4356" r="2"/><path d="m11 144.24882h-3a2 2 0 0 0 0 4h3a2 2 0 0 0 0-4z" fill="#2d4356"/><path d="m160 144.24882h-3a2 2 0 0 0 0 4h3a2 2 0 0 0 0-4z" fill="#2d4356"/><circle cx="166" cy="146.249" fill="#2d4356" r="2"/><path d="m118.15387 152.24882h-8.30774a2.00641 2.00641 0 0 0 0 4h8.30774a2.00641 2.00641 0 0 0 0-4z" fill="#0bceb2"/><path d="m58.15387 152.24882h-8.30774a2.00641 2.00641 0 0 0 0 4h8.30774a2.00641 2.00641 0 0 0 0-4z" fill="#0bceb2"/><path d="m104 152.24882h-40a2 2 0 0 0 0 4h15.94v2h-7.94a2 2 0 0 0 0 4h25a2 2 0 0 0 0-4h-8.94v-2h15.94a2 2 0 0 0 0-4z" fill="#0bceb2"/><g fill="#2d4356"><path d="m150.72131 144.24882h-2.72925a3.99325 3.99325 0 0 0 -1.44635-3.08539l-12.12-10a3.98788 3.98788 0 0 0 -.48425-.33362 3.963 3.963 0 0 0 .05853-.581v-50a4 4 0 0 0 -4-4h-4v-26a6.00656 6.00656 0 0 0 -6-6h-71.99999a6.00656 6.00656 0 0 0 -6 6v26h-4a4 4 0 0 0 -4 4v50a3.963 3.963 0 0 0 .05853.581 3.992 3.992 0 0 0 -.48419.33362l-12.12 10a3.99344 3.99344 0 0 0 -1.44635 3.08539h-2.7293a2.017 2.017 0 1 0 0 4h133.44262a2.017 2.017 0 1 0 0-4zm-104.72131-94a2.00229 2.00229 0 0 1 2-2h72a2.00229 2.00229 0 0 1 2 2v10h-76zm-8 30h4v44a2 2 0 0 0 4 0v-60h76v60a2 2 0 0 0 4 0v-44h4v50h-92zm-14 64 12.12-10h95.76l12.12 10z"/><path d="m43 37.58542a3 3 0 1 0 -3-3 3.00344 3.00344 0 0 0 3 3zm0-4.5a1.5 1.5 0 1 1 -1.5 1.5 1.50148 1.50148 0 0 1 1.5-1.5z"/><path d="m158.30471 71.24882a2 2 0 1 0 2 2 2.00229 2.00229 0 0 0 -2-2zm0 3a1 1 0 1 1 1-1 1.001 1.001 0 0 1 -1 1z"/><path d="m120 14.24882a2 2 0 1 0 2 2 2.00229 2.00229 0 0 0 -2-2zm0 3a1 1 0 1 1 1-1 1.001 1.001 0 0 1 -1 1z"/><path d="m158.30471 12.24882a2 2 0 1 0 2 2 2.00229 2.00229 0 0 0 -2-2zm0 3a1 1 0 1 1 1-1 1.001 1.001 0 0 1 -1 1z"/><path d="m17 54.12652a2 2 0 1 0 -2 2 2.00229 2.00229 0 0 0 2-2zm-3 0a1 1 0 1 1 1 1 1.001 1.001 0 0 1 -1-1z"/></g><path d="m8.111 9.815 1.486-1.955-.939-.532-.954 2.19h-.032l-.969-2.175-.956.548 1.472 1.909v.031l-2.301-.297v1.064l2.316-.297v.031l-1.487 1.908.892.564 1.018-2.206h.031l.939 2.19.986-.563-1.502-1.878v-.031l2.362.282v-1.064l-2.362.313z" fill="#0bceb2"/><path d="m69.213 7.481-.856 1.099.514.325.586-1.271h.017l.541 1.262.568-.325-.865-1.081v-.018l1.36.162v-.612l-1.36.18v-.018l.856-1.126-.54-.307-.55 1.261h-.018l-.559-1.252-.55.315.847 1.1v.018l-1.325-.171v.612l1.334-.171z" fill="#0bceb2"/><path d="m146.724 42.77v-1.043l-2.317.307v-.031l1.459-1.918-.921-.522-.936 2.148h-.032l-.95-2.133-.938.537 1.444 1.873v.031l-2.257-.292v1.043l2.272-.291v.031l-1.459 1.872.875.553.999-2.165h.029l.921 2.149.968-.552-1.474-1.842v-.031z" fill="#0bceb2"/><path d="m100.701 34.373 1.258-1.654-.794-.45-.808 1.853h-.027l-.82-1.84-.808.463 1.245 1.615v.027l-1.947-.252v.9l1.96-.251v.026l-1.258 1.615.754.477.861-1.867h.026l.795 1.854.834-.477-1.271-1.589v-.026l1.999.238v-.9l-1.999.265z" fill="#0bceb2"/></svg>