<svg id="Layer_1" enable-background="new 0 0 74 74" height="512" viewBox="0 0 74 74" width="512" xmlns="http://www.w3.org/2000/svg" xmlns:xlink="http://www.w3.org/1999/xlink"><linearGradient id="lg1"><stop offset="0" stop-color="#9ce3ff"/><stop offset="1" stop-color="#6cf"/></linearGradient><linearGradient id="SVGID_1_" gradientUnits="userSpaceOnUse" x1="22.956" x2="44.568" xlink:href="#lg1" y1="27.374" y2="61.44"/><linearGradient id="SVGID_2_" gradientUnits="userSpaceOnUse" x1="26.27" x2="47.882" xlink:href="#lg1" y1="25.272" y2="59.337"/><linearGradient id="lg2"><stop offset="0" stop-color="#eff2f8"/><stop offset="1" stop-color="#d8dfea"/></linearGradient><linearGradient id="SVGID_3_" gradientUnits="userSpaceOnUse" x1="19.783" x2="26.642" xlink:href="#lg2" y1="12.427" y2="42.693"/><linearGradient id="lg3"><stop offset="0" stop-color="#555a60"/><stop offset="1" stop-color="#3f444c"/></linearGradient><linearGradient id="SVGID_4_" gradientTransform="matrix(.973 .23 -.23 .973 -9.904 475.911)" gradientUnits="userSpaceOnUse" x1="-79.869" x2="-82.574" xlink:href="#lg3" y1="-458.766" y2="-463.881"/><linearGradient id="SVGID_5_" gradientUnits="userSpaceOnUse" x1="31.898" x2="36.596" y1="23.122" y2="34.743"><stop offset="0" stop-color="#ff7171"/><stop offset="1" stop-color="#f33"/></linearGradient><linearGradient id="lg4"><stop offset="0" stop-color="#fff"/><stop offset="1" stop-color="#eff2f8"/></linearGradient><linearGradient id="SVGID_6_" gradientUnits="userSpaceOnUse" x1="32.986" x2="35.342" xlink:href="#lg4" y1="27.161" y2="30.741"/><linearGradient id="SVGID_7_" gradientTransform="matrix(.984 -.18 .18 .984 -67.802 -358.73)" gradientUnits="userSpaceOnUse" x1="49.669" x2="53.277" xlink:href="#lg3" y1="397.905" y2="410.264"/><linearGradient id="SVGID_8_" gradientTransform="matrix(.984 -.18 .18 .984 -67.802 -358.73)" gradientUnits="userSpaceOnUse" x1="49.783" x2="51.609" xlink:href="#lg4" y1="396.075" y2="404.763"/><linearGradient id="lg5"><stop offset="0" stop-color="#696c70"/><stop offset="1" stop-color="#3f444c"/></linearGradient><linearGradient id="SVGID_9_" gradientTransform="matrix(.984 -.18 .18 .984 -67.802 -358.73)" gradientUnits="userSpaceOnUse" x1="52.717" x2="55.121" xlink:href="#lg5" y1="402.801" y2="409.451"/><linearGradient id="SVGID_10_" gradientTransform="matrix(.984 -.18 .18 .984 -67.802 -358.73)" gradientUnits="userSpaceOnUse" x1="47.764" x2="49.096" xlink:href="#lg5" y1="404.386" y2="410.251"/><linearGradient id="SVGID_11_" gradientTransform="matrix(.984 -.18 .18 .984 -67.802 -358.73)" gradientUnits="userSpaceOnUse" x1="45.887" x2="47.099" y1="399.553" y2="402.907"><stop offset="0" stop-color="#ffdc85"/><stop offset="1" stop-color="#fc3"/></linearGradient><linearGradient id="SVGID_12_" gradientUnits="userSpaceOnUse" x1="46.513" x2="51.143" xlink:href="#lg2" y1="6.458" y2="18.632"/><g><g><path d="m13.02 40.29 2.97 3.36c3.23 3.66 5.74 7.85 7.43 12.33 1.34 3.55 2.17 7.27 2.46 11.09.08 1.1 1.01 1.93 2.11 1.93h10.74c1.1 0 2.03-.83 2.11-1.93.66-8.65 4.11-16.88 9.89-23.43l2.97-3.36h-40.68z" fill="url(#SVGID_1_)"/><path d="m55.09 35.02v2.85c0 3.81-9.73 6.87-21.74 6.87-11.99 0-21.72-3.06-21.72-6.87v-2.85c0-3.79 9.73-6.88 21.72-6.88 12.01 0 21.74 3.09 21.74 6.88z" fill="url(#SVGID_2_)"/><path d="m52.86 35.01c0 3.08-8.73 5.56-19.51 5.56-10.76 0-19.5-2.49-19.5-5.56 0-3.08 8.73-5.57 19.5-5.57 10.78 0 19.51 2.5 19.51 5.57z" fill="#fff"/></g><g><path d="m34.19 10.22-5.51 23.27c-.26 1.11-1.38 1.8-2.5 1.54l-16.08-3.8c-1.11-.26-1.8-1.38-1.54-2.5l4.41-18.66 8.2-5.06 11.47 2.71c1.13.26 1.82 1.38 1.55 2.5z" fill="url(#SVGID_3_)"/><path d="m21.18 5.01-1.09 4.61c-.26 1.11-1.38 1.8-2.5 1.54l-4.61-1.09z" fill="url(#SVGID_4_)"/><g fill="#555a60"><path d="m29.31 17.73c-.07.3-.37.47-.65.4l-13.18-3.12c-.3-.07-.47-.36-.4-.65s.36-.47.65-.4l13.18 3.12c.28.07.47.37.4.65z"/><path d="m28.59 20.77c-.07.3-.37.47-.65.4l-13.18-3.12c-.3-.07-.47-.36-.4-.65s.36-.47.65-.4l13.18 3.12c.28.07.47.36.4.65z"/><path d="m27.87 23.81c-.07.3-.37.47-.65.4l-13.18-3.12c-.3-.07-.47-.36-.4-.65s.36-.47.65-.4l13.18 3.12c.29.06.47.36.4.65z"/><path d="m27.15 26.84c-.07.3-.37.47-.65.4l-13.18-3.12c-.3-.07-.47-.36-.4-.65s.36-.47.65-.4l13.18 3.12c.29.07.47.37.4.65z"/><path d="m26.44 29.88c-.07.3-.37.47-.65.4l-13.19-3.12c-.3-.07-.47-.36-.4-.65s.36-.47.65-.4l13.18 3.12c.29.06.47.36.41.65z"/></g></g><g><path d="m40.51 28.92c0 3.47-2.81 6.28-6.28 6.28s-6.25-2.81-6.25-6.28c0-3.44 2.79-6.25 6.25-6.25 3.47 0 6.28 2.81 6.28 6.25z" fill="url(#SVGID_5_)"/><path d="m37.23 29.52-3.9 2.36c-.46.28-1.04-.05-1.04-.59v-4.71c0-.54.58-.86 1.04-.59l3.9 2.36c.45.26.45.91 0 1.17z" fill="url(#SVGID_6_)"/></g><g><path d="m63.74 23.05 1.72 9.43c.19 1.04-.5 2.04-1.54 2.23l-14.59 2.67c-1.04.19-2.04-.5-2.23-1.54l-1.72-9.43c-.19-1.04.5-2.04 1.54-2.23l14.59-2.67c1.04-.19 2.04.5 2.23 1.54z" fill="url(#SVGID_7_)"/><path d="m62.98 23.19 1.39 7.6-4.19-4.83c-.65-.75-1.87-.52-2.2.4l-2.19 5.94-1.49-1.72c-.65-.75-1.87-.52-2.2.4l-2.02 5.48-.89.16c-.63.11-1.22-.3-1.34-.92l-1.72-9.43c-.11-.63.3-1.22.92-1.34l14.59-2.67c.63-.11 1.23.3 1.34.93z" fill="url(#SVGID_8_)"/><g><path d="m64.37 30.78.33 1.83c.11.63-.3 1.22-.92 1.34l-9.22 1.69 3.42-9.29c.34-.93 1.55-1.15 2.2-.4z" fill="url(#SVGID_9_)"/><path d="m58.12 34.99-8.05 1.47 2.02-5.48c.34-.93 1.55-1.15 2.2-.4z" fill="url(#SVGID_10_)"/></g><path d="m51.8 27.29c.18.97-.47 1.9-1.43 2.07-.97.18-1.9-.47-2.07-1.43-.18-.97.47-1.9 1.43-2.07.96-.18 1.89.46 2.07 1.43z" fill="url(#SVGID_11_)"/></g><g><path d="m56.55 6.25v9.12c0 .7-.56 1.26-1.26 1.26h-8.25l-3.42 3.43c-.26.26-.72.08-.72-.3v-3.13h-1.86c-.7 0-1.26-.56-1.26-1.26v-9.12c0-.7.56-1.26 1.26-1.26h14.26c.69 0 1.25.57 1.25 1.26z" fill="url(#SVGID_12_)"/><g fill="#555a60"><path d="m54.69 8.24c0 .24-.2.43-.43.43h-12.18c-.24 0-.43-.19-.43-.43 0-.23.19-.43.43-.43h12.18c.23 0 .43.2.43.43z"/><path d="m54.69 10.82c0 .24-.2.43-.43.43h-12.18c-.24 0-.43-.19-.43-.43 0-.23.19-.43.43-.43h12.18c.23 0 .43.19.43.43z"/><path d="m54.69 13.39c0 .24-.2.43-.43.43h-12.18c-.24 0-.43-.19-.43-.43 0-.23.19-.43.43-.43h12.18c.23 0 .43.2.43.43z"/></g></g></g></svg>