<svg height="512" viewBox="0 0 60 59" width="512" xmlns="http://www.w3.org/2000/svg"><g id="Page-1" fill="none" fill-rule="evenodd"><g id="003---3D" fill-rule="nonzero" transform="translate(-1)"><path id="Shape" d="m49 27.94v20.12c.0003533.7272088-.3940455 1.3973038-1.03 1.75l-16 8.89c-.2978237.1619124-.6310167.2477869-.97.25v-22.19l17.68-9.84.02-.02c.2007777.3093114.3051902.6712748.3 1.04z" fill="#f0c419"/><path id="Shape" d="m48.7 26.9-.02.02-17.68 9.84-17.68-9.84-.02-.01v-.01c.1748738-.2981513.4271071-.543474.73-.71l16-8.89c.6045871-.329918 1.3354129-.329918 1.94 0l16 8.89c.3028929.166526.5551262.4118487.73.71z" fill="#f3d55b"/><path id="Shape" d="m31 36.76v22.19c-.3389833-.0022131-.6721763-.0880876-.97-.25l-16-8.89c-.6359545-.3526962-1.0303533-1.0227912-1.03-1.75v-20.12c-.0052027-.3656019.0992934-.7243717.3-1.03l.02.01z" fill="#f29c1f"/><g fill="#d25627"><path id="Shape" d="m8 53c-.46842924.0057459-.87806423-.3144677-.98557503-.7704286-.10751079-.455961.11592176-.9254452.53757503-1.1295714l18-9c.3197527-.1596977.7004141-.1366785.9985927.0603866.2981787.1970651.4685741.5382372.4470001.895-.0215741.3567629-.2318401.6749157-.5515928.8346134l-18 9c-.1381167.0707786-.29081172.1084388-.446.11z"/><path id="Shape" d="m2 56c-.46842924.0057459-.87806423-.3144677-.98557503-.7704286-.10751079-.455961.11592176-.9254452.53757503-1.1295714l2-1c.49429485-.2468713 1.09512872-.0462949 1.342.448s.04629485 1.0951287-.448 1.342l-2 1c-.1381167.0707786-.29081172.1084388-.446.11z"/><path id="Shape" d="m54 53c-.1543931.001545-.307047-.0326823-.446-.1l-18-9c-.4942949-.2468713-.6948713-.8477051-.448-1.342s.8477051-.6948713 1.342-.448l18 9c.4098463.2099351.6233472.6726076.5171381 1.1206772s-.5046672.7656851-.9651381.7693228z"/><path id="Shape" d="m60 56c-.1543931.001545-.307047-.0326823-.446-.1l-2-1c-.4942948-.2468713-.6948712-.8477051-.448-1.342.2468713-.4942948.8477052-.6948713 1.342-.448l2 1c.4098463.2099351.6233472.6726076.5171381 1.1206772s-.5046672.7656851-.9651381.7693228z"/><path id="Shape" d="m31 30c-.5522847 0-1-.4477153-1-1v-22c0-.55228475.4477153-1 1-1s1 .44771525 1 1v22c0 .5522847-.4477153 1-1 1z"/><path id="Shape" d="m31 4c-.5522847 0-1-.44771525-1-1v-2c0-.55228475.4477153-1 1-1s1 .44771525 1 1v2c0 .55228475-.4477153 1-1 1z"/></g></g></g></svg>