<svg height="512" viewBox="0 0 64 64" width="512" xmlns="http://www.w3.org/2000/svg"><g id="Layer_2_copy_4"><g><path d="m1.103 7.724h61.793v46.345h-61.793z" fill="#fff" transform="matrix(0 1 -1 0 62.897 -1.103)"/></g><g><path d="m28.282-19.454h7.436v46.345h-7.436z" transform="matrix(0 1 -1 0 35.718 -28.282)"/></g><g><path d="m13.23 2.702h13.759v.736h-13.759z" fill="#fff"/></g><g><path d="m13.23 3.999h10.537v.736h-10.537z" fill="#fff"/></g><g><path d="m33.552 3.999h2.7v.736h-2.7z" fill="#fff"/></g><g><path d="m37.176 3.999h2.7v.736h-2.7z" fill="#fff"/></g><g><path d="m40.8 3.999h2.7v.736h-2.7z" fill="#fff"/></g><g><path d="m44.423 3.999h2.7v.736h-2.7z" fill="#fff"/></g><g><path d="m48.047 3.999h2.7v.736h-2.7z" fill="#fff"/></g><g><path d="m30.897 39.724h2.207v46.345h-2.207z" transform="matrix(0 1 -1 0 94.897 30.897)"/></g><g><path d="m33.471 28.054h17.299v13.192h-17.299z" fill="#32bea6"/></g><g><path d="m13.23 28.054h17.299v13.192h-17.299z" fill="#32bea6"/></g><g><path d="m33.471 44.188h17.299v13.192h-17.299z" fill="#32bea6"/></g><g><path d="m13.23 44.188h17.299v13.192h-17.299z" fill="#32bea6"/></g><g><path d="m33.471 11.85h17.299v13.261h-17.299z" fill="#32bea6"/></g><g><path d="m13.23 11.85h17.299v13.261h-17.299z" fill="#32bea6"/></g></g></svg>