<svg id="Layer_1" viewBox="0 0 168 168" xmlns="http://www.w3.org/2000/svg" data-name="Layer 1"><path d="m44 112h-10a4 4 0 0 0 -4 4v10a4 4 0 0 0 4 4h10a4 4 0 0 0 4-4v-10a4 4 0 0 0 -4-4zm0 14h-10v-10h10z" fill="#2d4356"/><path d="m66 112h-10a4 4 0 0 0 -4 4v10a4 4 0 0 0 4 4h10a4 4 0 0 0 4-4v-10a4 4 0 0 0 -4-4zm0 14h-10v-10h10z" fill="#0bceb2"/><path d="m74 126a4 4 0 0 0 4 4h10a4 4 0 0 0 4-4v-10a4 4 0 0 0 -4-4h-10a4 4 0 0 0 -4 4zm4-10h10v10h-10z" fill="#2d4356"/><path d="m48 94a4 4 0 0 0 -4-4h-10a4 4 0 0 0 -4 4v10a4 4 0 0 0 4 4h10a4 4 0 0 0 4-4zm-4 10h-10v-10h10z" fill="#0bceb2"/><path d="m70 94a4 4 0 0 0 -4-4h-10a4 4 0 0 0 -4 4v10a4 4 0 0 0 4 4h10a4 4 0 0 0 4-4zm-4 10h-10v-10h10z" fill="#2d4356"/><path d="m48 72a4 4 0 0 0 -4-4h-10a4 4 0 0 0 -4 4v10a4 4 0 0 0 4 4h10a4 4 0 0 0 4-4zm-4 10h-10v-10h10z" fill="#2d4356"/><path d="m48 50a4 4 0 0 0 -4-4h-10a4 4 0 0 0 -4 4v10a4 4 0 0 0 4 4h10a4 4 0 0 0 4-4zm-4 10h-10v-10h10z" fill="#0bceb2"/><path d="m70 50a4 4 0 0 0 -4-4h-10a4 4 0 0 0 -4 4v10a4 4 0 0 0 4 4h10a3.97476 3.97476 0 0 0 2.955-1.325 9.93182 9.93182 0 0 1 -.42328-7.39471l1.25488-3.68652c.05981-.17566.14459-.33643.21338-.5069zm-4 10h-10v-10h10z" fill="#2d4356"/><path d="m70 72a4 4 0 0 0 -4-4h-10a4 4 0 0 0 -4 4v10a4 4 0 0 0 4 4h10a3.99559 3.99559 0 0 0 3.927-3.27539 9.96715 9.96715 0 0 1 .073-6.77448zm-4 10h-10v-10h10z" fill="#0bceb2"/><path d="m82.00629 94c-.36407-.36432-.72742-.72943-1.07709-1.10889a9.98982 9.98982 0 0 1 -5.6352-1.82061 3.97643 3.97643 0 0 0 -1.294 2.9295v10a4 4 0 0 0 4 4h10a3.98866 3.98866 0 0 0 3.75287-2.65948 9.95351 9.95351 0 0 1 -3.75287-3.96088v2.62036h-10v-10z" fill="#0bceb2"/><path d="m93.93213 31.967-3.49439 1.7194a5.96686 5.96686 0 0 0 -3.12451 6.88525 34.13524 34.13524 0 0 0 -7.31488 8.32556 5.96657 5.96657 0 0 0 -6.425 3.98529l-1.25513 3.68671a5.96666 5.96666 0 0 0 2.65883 7.07779 34.13334 34.13334 0 0 0 .71552 11.05933 5.96678 5.96678 0 0 0 -1.72571 7.36139l1.71954 3.49457a5.961 5.961 0 0 0 6.88611 3.12549 34.14066 34.14066 0 0 0 8.32471 7.3139 5.96657 5.96657 0 0 0 3.98529 6.425l3.68671 1.25513a5.96663 5.96663 0 0 0 7.07776-2.65881c.98523.09741 1.97339.14844 2.96161.15979l-1.599-4.06915a30.07107 30.07107 0 0 1 -3.96655-.531l-.71088 2.08813a1.94719 1.94719 0 0 1 -2.47089 1.21582l-3.68677-1.25512a1.94733 1.94733 0 0 1 -1.21582-2.47095l.71088-2.08813a30.02235 30.02235 0 0 1 -11.8-10.36639l-1.979.97375a1.94737 1.94737 0 0 1 -2.60693-.88751l-1.71942-3.49438a1.94739 1.94739 0 0 1 .88751-2.60693l1.97894-.97375a30.02218 30.02218 0 0 1 -1.01324-15.67418l-2.0882-.71088a1.94731 1.94731 0 0 1 -1.21582-2.47089l1.25513-3.68677a1.94724 1.94724 0 0 1 2.47089-1.21582l2.0882.71088a30.02253 30.02253 0 0 1 10.36638-11.80007l-.97375-1.97894a1.9473 1.9473 0 0 1 .88751-2.60693l3.49438-1.71942a1.94718 1.94718 0 0 1 2.60693.88751l.97369 1.97888a30.02237 30.02237 0 0 1 15.67424-1.01319l.71088-2.08813a1.94719 1.94719 0 0 1 2.47089-1.21582l3.68677 1.25513a1.94716 1.94716 0 0 1 1.21582 2.47089l-.71088 2.08813a30.02211 30.02211 0 0 1 11.80011 10.36639l1.97894-.97369a1.94727 1.94727 0 0 1 2.60693.88745l1.71942 3.49445a1.9473 1.9473 0 0 1 -.88751 2.60693l-1.97888.97369a30.0215 30.0215 0 0 1 1.01312 15.67413l2.0882.71088a1.9473 1.9473 0 0 1 1.21582 2.47095l-1.25513 3.68677a1.94729 1.94729 0 0 1 -2.47089 1.21582l-2.0882-.71094a29.96151 29.96151 0 0 1 -4.99774 7.2298l1.60742 4.0907a34.12523 34.12523 0 0 0 5.31958-6.5481 5.96657 5.96657 0 0 0 6.425-3.98529l1.25513-3.68677a5.96659 5.96659 0 0 0 -2.6588-7.07773 34.13954 34.13954 0 0 0 -.71527-11.05817 5.96076 5.96076 0 0 0 1.72528-7.36273l-1.71942-3.49438a5.96091 5.96091 0 0 0 -6.886-3.12555 34.13957 34.13957 0 0 0 -8.32477-7.31384 5.96669 5.96669 0 0 0 -3.98529-6.425l-3.68671-1.25507a5.9666 5.9666 0 0 0 -7.07782 2.65874 34.141 34.141 0 0 0 -11.05811.71521 5.96091 5.96091 0 0 0 -7.36276-1.72521z" fill="#2d4356"/><path d="m138.30579 141.38416a8.91821 8.91821 0 0 0 5.07727-11.56409l-18.629-47.407a22.61078 22.61078 0 0 0 -11.13733-38.32428 4 4 0 0 0 -4.56079 5.37415l5.04694 12.84357-4.60272 5.727-7.29846-1.0907-5.05021-12.85199a3.99995 3.99995 0 0 0 -6.99219-.84174 22.622 22.622 0 0 0 17.9307 35.67664l18.6329 47.41728a8.94784 8.94784 0 0 0 11.58289 5.0412zm-7.86-6.50409-19.66918-50.05426a18.80177 18.80177 0 0 1 -19.48675-11.72571 18.58558 18.58558 0 0 1 2.13879-17.54633l5.89563 15.00336 11.85547 1.77173 7.49475-9.3255-5.89563-15.00336a18.61731 18.61731 0 0 1 7.2121 33.22876l19.66919 50.05424a4.9459 4.9459 0 0 1 -9.21442 3.597z" fill="#0bceb2"/><circle cx="2" cy="150" fill="#2d4356" r="2"/><path d="m11 148h-3a2 2 0 0 0 0 4h3a2 2 0 0 0 0-4z" fill="#2d4356"/><path d="m160 148h-3a2 2 0 0 0 0 4h3a2 2 0 0 0 0-4z" fill="#2d4356"/><circle cx="166" cy="150" fill="#2d4356" r="2"/><path d="m118.15387 156h-8.30774a2.00641 2.00641 0 0 0 0 4h8.30774a2.00641 2.00641 0 0 0 0-4z" fill="#0bceb2"/><path d="m58.15387 156h-8.30774a2.00641 2.00641 0 0 0 0 4h8.30774a2.00641 2.00641 0 0 0 0-4z" fill="#0bceb2"/><path d="m104 156h-40a2 2 0 0 0 0 4h15.94v2h-7.94a2 2 0 0 0 0 4h25a2 2 0 0 0 0-4h-8.94v-2h15.94a2 2 0 0 0 0-4z" fill="#0bceb2"/><g fill="#2d4356"><path d="m150.72131 148h-51.80031a7.95228 7.95228 0 0 0 1.079-4v-36.0199a9.93252 9.93252 0 0 1 -2.71973-.51184l-1.28027-.43579v32.96753h-70v-104h57.60382a9.99407 9.99407 0 0 1 2.44653-4h-60.05035a4.0045 4.0045 0 0 1 4-4h62a3.98936 3.98936 0 0 1 .84119.09265 9.65054 9.65054 0 0 1 5.82965-.50439 7.98973 7.98973 0 0 0 -6.67084-3.58826h-62a8 8 0 0 0 -8 8v112a7.95228 7.95228 0 0 0 1.079 4h-5.80031a2.017 2.017 0 1 0 0 4h133.44262a2.017 2.017 0 1 0 0-4zm-120.72131 0a4.00454 4.00454 0 0 1 -4-4h70a4.00454 4.00454 0 0 1 -4 4z"/><path d="m68.30471 8a3 3 0 1 0 -3-3 3.00344 3.00344 0 0 0 3 3zm0-4.5a1.5 1.5 0 1 1 -1.5 1.5 1.50148 1.50148 0 0 1 1.5-1.5z"/><path d="m146 34.52386a2 2 0 1 0 2 2 2.00229 2.00229 0 0 0 -2-2zm0 3a1 1 0 1 1 1-1 1.001 1.001 0 0 1 -1 1z"/><path d="m146 4.5a2 2 0 1 0 2 2 2.00229 2.00229 0 0 0 -2-2zm0 3a1 1 0 1 1 1-1 1.001 1.001 0 0 1 -1 1z"/><path d="m160.5 56a2 2 0 1 0 2 2 2.00229 2.00229 0 0 0 -2-2zm0 3a1 1 0 1 1 1-1 1.001 1.001 0 0 1 -1 1z"/><path d="m41 17.48116a2 2 0 1 0 -2 2 2.00229 2.00229 0 0 0 2-2zm-3 0a1 1 0 1 1 1 1 1.001 1.001 0 0 1 -1-1z"/></g><path d="m9.915 41.011 1.487-1.955-.939-.532-.954 2.19h-.032l-.969-2.175-.956.548 1.472 1.909v.031l-2.301-.297v1.064l2.316-.297v.031l-1.487 1.908.892.564 1.018-2.206h.03l.939 2.19.986-.563-1.502-1.878v-.031l2.362.282v-1.064l-2.362.312z" fill="#0bceb2"/><path d="m5.734 10.23-.856 1.099.514.325.586-1.271h.018l.54 1.261.568-.324-.865-1.081v-.018l1.36.162v-.613l-1.36.18v-.018l.856-1.126-.54-.306-.55 1.261h-.018l-.558-1.252-.551.315.848 1.1v.018l-1.325-.172v.613l1.333-.171z" fill="#0bceb2"/><path d="m164.724 26.521v-1.043l-2.317.307v-.031l1.459-1.918-.921-.522-.936 2.148h-.032l-.95-2.133-.938.538 1.444 1.872v.031l-2.257-.292v1.043l2.272-.291v.031l-1.459 1.872.875.553.999-2.165h.029l.921 2.149.968-.552-1.474-1.842v-.031z" fill="#0bceb2"/><path d="m116.748 19.586 1.258-1.655-.795-.45-.807 1.853h-.027l-.82-1.84-.809.464 1.245 1.615v.026l-1.946-.251v.9l1.959-.252v.027l-1.258 1.615.755.477.861-1.867h.026l.795 1.853.834-.476-1.271-1.589v-.027l1.998.239v-.9l-1.998.264z" fill="#0bceb2"/></svg>