<svg height="512" viewBox="0 0 64 64" width="512" xmlns="http://www.w3.org/2000/svg"><g id="Flat_copy_3"><g><g><path d="m.5 10.505h63v49h-63z" fill="#fff"/></g><g><path d="m63 11.005v48h-62v-48zm1-1h-64v50h64z" fill="#efefef"/></g></g><g><g><path d="m64 10.005v-3c0-1.65-1.35-3-3-3h-58c-1.65 0-3 1.35-3 3v3z" fill="#3b3b3b"/></g><g><g><circle cx="4.021" cy="7.005" fill="#999" r=".854"/></g><g><circle cx="6.583" cy="7.005" fill="#999" r=".854"/></g><g><circle cx="9.146" cy="7.005" fill="#999" r=".854"/></g></g><g><path d="m55.5 8.505h-37c-.825 0-1.5-.675-1.5-1.5 0-.825.675-1.5 1.5-1.5h37c.825 0 1.5.675 1.5 1.5 0 .825-.675 1.5-1.5 1.5z" fill="#fff"/></g></g><g><path d="m35 48.005h22v1h-22z" fill="#999"/></g><g><path d="m35 51.005h22v1h-22z" fill="#999"/></g><g><path d="m35 54.005h22v1h-22z" fill="#999"/></g><g><path d="m35 39.005h22v1h-22z" fill="#999"/></g><g><path d="m35 42.005h22v1h-22z" fill="#999"/></g><g><path d="m35 45.005h22v1h-22z" fill="#999"/></g><g><path d="m35 30.005h22v1h-22z" fill="#999"/></g><g><path d="m35 33.005h22v1h-22z" fill="#999"/></g><g><path d="m35 36.005h22v1h-22z" fill="#999"/></g><g><path d="m35 21.005h22v1h-22z" fill="#999"/></g><g><path d="m35 24.005h22v1h-22z" fill="#999"/></g><g><path d="m35 27.005h22v1h-22z" fill="#999"/></g><g><path d="m35 18.005h22v1h-22z" fill="#999"/></g><g><path d="m35 15.005h22v1h-22z" fill="#999"/></g><g><path d="m7 15.005h22v40h-22z" fill="#db2b42"/></g></g></svg>