<svg id="Capa_1" enable-background="new 0 0 512 512" height="512" viewBox="0 0 512 512" width="512" xmlns="http://www.w3.org/2000/svg"><g><path d="m432.166 511.999h-352.332c-13.444 0-24.343-10.899-24.343-24.343v-463.311c0-13.444 10.899-24.343 24.343-24.343h352.332c13.444 0 24.343 10.899 24.343 24.343v463.311c0 13.444-10.898 24.343-24.343 24.343z" fill="#b6c4cf"/><path d="m456.507 24.348v463.305c0 13.451-10.897 24.348-24.337 24.348h-20.599c13.441 0 24.337-10.897 24.337-24.348v-463.305c0-13.451-10.896-24.348-24.337-24.348h20.599c13.44 0 24.337 10.897 24.337 24.348z" fill="#9facba"/><path d="m408.765 452.216h-305.53c-6.79 0-12.294-5.504-12.294-12.294v-392.129c0-6.79 5.504-12.294 12.294-12.294h305.53c6.79 0 12.294 5.504 12.294 12.294v392.129c-.001 6.79-5.505 12.294-12.294 12.294z" fill="#fee97d"/><path d="m421.057 47.789v392.136c0 6.787-5.5 12.287-12.287 12.287h-19.795c6.798 0 12.297-5.5 12.297-12.287v-392.136c0-6.787-5.5-12.287-12.297-12.287h19.795c6.787 0 12.287 5.5 12.287 12.287z" fill="#fedf30"/><g><path d="m270.48 489.832h-28.96c-4.267 0-7.724-3.458-7.724-7.724s3.458-7.724 7.724-7.724h28.961c4.267 0 7.724 3.458 7.724 7.724 0 4.265-3.458 7.724-7.725 7.724z" fill="#8d9ca8"/></g><g><g><g><path d="m311.724 276.311c-8.309-.391-14.702-7.549-14.702-15.868v-60.169c0-22.656-18.366-41.022-41.022-41.022-22.656 0-41.022 18.366-41.022 41.022v60.169c0 8.319-6.393 15.476-14.702 15.868-8.872.418-16.196-6.652-16.196-15.431v-60.606c0-39.72 32.2-71.92 71.92-71.92 39.72 0 71.92 32.2 71.92 71.92v60.606c-.001 8.78-7.325 15.849-16.196 15.431z" fill="#8d9ca8"/></g><g fill="#7a8c98"><path d="m238.954 159.255c2.925 0 5.778.309 8.528.886-7.91 1.668-14.986 5.623-20.485 11.123-7.426 7.426-12.019 17.684-12.019 29.013v60.169c0 8.312-6.396 15.47-14.697 15.861-3.461.165-6.684-.814-9.331-2.575 4.233-2.884 6.983-7.838 6.983-13.286v-60.169c0-11.329 4.594-21.587 12.009-29.013 7.425-7.415 17.683-12.009 29.012-12.009z"/><path d="m327.919 200.277v60.601c0 8.785-7.323 15.851-16.201 15.428-2.853-.134-5.479-1.071-7.704-2.575 4.14-2.781 6.859-7.498 6.859-12.854v-60.601c0-19.867-8.054-37.84-21.072-50.858-11.113-11.113-25.872-18.611-42.32-20.557 2.791-.34 5.634-.505 8.518-.505 19.857 0 37.84 8.054 50.858 21.062 13.019 13.02 21.062 30.992 21.062 50.859z"/></g><circle cx="255.999" cy="312" fill="#b6c4cf" r="95.659"/><path d="m351.659 312.004c0 52.825-42.825 95.65-95.66 95.65-20.547 0-39.58-6.478-55.173-17.509 11.247 4.645 23.565 7.21 36.49 7.21 52.825 0 95.66-42.835 95.66-95.66 0-32.278-15.985-60.817-40.476-78.131 34.729 14.337 59.159 48.531 59.159 88.44z" fill="#9facba"/><path d="m279.107 298.397c0-12.762-10.346-23.108-23.108-23.108s-23.108 10.346-23.108 23.108c0 7.587 3.657 14.32 9.305 18.533v17.978c0 7.623 6.18 13.803 13.803 13.803s13.803-6.18 13.803-13.803v-17.978c5.648-4.213 9.305-10.946 9.305-18.533z" fill="#f5f8f9"/><path d="m279.016 296.271c.755 8.452-3.038 16.054-9.215 20.656v17.613c0 7.324-5.552 13.654-12.86 14.14-3.011.2-5.834-.568-8.182-2.018 3.934-2.431 6.561-6.787 6.561-11.751v-18.161c0-2.912 1.343-5.673 3.656-7.441 3.524-2.694 5.655-5.113 5.655-10.908 0-10.227-6.653-18.91-15.871-21.948 2.324-.778 4.81-1.181 7.402-1.163 11.773.077 21.807 9.253 22.854 20.981z" fill="#e8edf2"/></g><g><g><g><path d="m368.912 156.241c-.734 0-1.48-.105-2.219-.327-4.087-1.224-6.408-5.529-5.184-9.615 4.798-16.02.44-33.31-11.372-45.122-11.916-11.915-29.222-16.307-45.166-11.457-4.076 1.238-8.395-1.061-9.638-5.143-1.241-4.082 1.062-8.397 5.144-9.638 21.411-6.512 44.626-.642 60.584 15.315 15.834 15.834 21.677 39.008 15.248 60.477-1.003 3.347-4.073 5.51-7.397 5.51z" fill="#8d9ca8"/></g><g><path d="m335.179 142.707c-.734 0-1.481-.106-2.22-.327-4.087-1.224-6.407-5.529-5.183-9.616.789-2.633.073-5.473-1.867-7.413-1.963-1.964-4.802-2.689-7.405-1.898-4.076 1.238-8.396-1.062-9.638-5.144-1.241-4.082 1.062-8.396 5.144-9.638 8.074-2.455 16.819-.249 22.822 5.755 5.962 5.962 8.163 14.687 5.742 22.77-1.001 3.348-4.071 5.511-7.395 5.511z" fill="#8d9ca8"/></g></g></g></g></g></svg>