<svg height="512" viewBox="0 0 58 58" width="512" xmlns="http://www.w3.org/2000/svg"><g id="Page-1" fill="none" fill-rule="evenodd"><g id="005---Window" fill-rule="nonzero" transform="translate(-1)"><path id="Shape" d="m59 2.18v39.82h-58v-39.82c-.04521019-1.152631.84774936-2.12595691 2-2.18h54c1.1522506.05404309 2.0452102 1.027369 2 2.18z" fill="#90bae1"/><path id="Shape" d="m59 2.18v9.03c-6.1670924 15.0002462-20.7814793 24.7918855-37 24.79-7.4174658.0107038-14.69056482-2.0500076-21-5.95v-27.87c-.04521019-1.152631.84774936-2.12595691 2-2.18h54c1.1522506.05404309 2.0452102 1.027369 2 2.18z" fill="#b0d3f0"/><path id="Shape" d="m59 42v3.82c.0452102 1.152631-.8477494 2.1259569-2 2.18h-54c-1.15225064-.0540431-2.04521019-1.027369-2-2.18v-3.82z" fill="#547580"/><path id="Shape" d="m38 48 3 6h-11-11l3-6z" fill="#3f5c6c"/><rect id="Rectangle-path" fill="#547580" height="4" rx="2" width="34" x="13" y="54"/><path id="Shape" d="m47 6v6h-40v-6c.0032948-1.10320187.89679813-1.9967052 2-2h36c1.1032019.0032948 1.9967052.89679813 2 2z" fill="#3b97d3"/><path id="Shape" d="m47 12v24c-.0032948 1.1032019-.8967981 1.9967052-2 2h-36c-1.10320187-.0032948-1.9967052-.8967981-2-2v-24z" fill="#ecf0f1"/><circle id="Oval" cx="11" cy="8" fill="#e64c3c" r="1"/><circle id="Oval" cx="15" cy="8" fill="#f0c419" r="1"/><circle id="Oval" cx="19" cy="8" fill="#65ddb9" r="1"/><path id="Shape" d="m52.462 29.22-.232-.232c-.3451439-.3445889-.5390905-.812285-.5390905-1.3s.1939466-.9554111.5390905-1.3c.463022-.4627472.6446362-1.1370207.4766713-1.769723s-.6600983-1.1281145-1.2916713-1.300277l-9.127-2.489c-.692509-.1889921-1.4331892.0076391-1.940775.515225-.5075859.5075858-.7042171 1.248266-.515225 1.940775l2.489 9.127c.1721625.631573.6675747 1.1237064 1.300277 1.2916713s1.3069758-.0136493 1.769723-.4766713c.3445889-.3451439.812285-.5390905 1.3-.5390905s.9554111.1939466 1.3.5390905l.232.232c.3443272.3456361.8121214.5399228 1.3.5399228s.9556728-.1942867 1.3-.5399228l1.646-1.646c.713295-.7183026.7101628-1.878559-.007-2.593z" fill="#fff"/></g></g></svg>