<svg id="Layer_1" viewBox="0 0 168 168" xmlns="http://www.w3.org/2000/svg" data-name="Layer 1"><path d="m22 111.14745a1.99352 1.99352 0 0 0 1.41406-.58594l11.78748-11.78751a21.03816 21.03816 0 1 0 -2.91854-2.73769l-11.69706 11.69708a2 2 0 0 0 1.41406 3.41406zm13.97919-41.02081a17 17 0 1 1 0 24.04163 16.94684 16.94684 0 0 1 0-24.04163z" fill="#0bceb2"/><path d="m124 120.64745h-1v-25a3.99887 3.99887 0 0 0 -4-4h-4a3.99887 3.99887 0 0 0 -4 4v25h-4v-17a3.99887 3.99887 0 0 0 -4-4h-4a3.99887 3.99887 0 0 0 -4 4v17h-4v-9a3.99887 3.99887 0 0 0 -4-4h-4a3.99887 3.99887 0 0 0 -4 4v9h-31v-13.5a25.29665 25.29665 0 0 1 -4-.33v15.83a2.046 2.046 0 0 0 2 2h78a2 2 0 0 0 0-4zm-37 0h-4v-9h4zm16 0h-4v-17h4zm16 0h-4v-25h4z" fill="#2d4356"/><path d="m137 60.64745v7a2 2 0 0 1 -4 0v-2.17l-24.59 24.58a1.9659 1.9659 0 0 1 -1.41.59h-13.17l-20.42 20.41a1.9659 1.9659 0 0 1 -1.41.59h-13.17l-8 9h-2.83v-2.83l8.59-9.58a1.96585 1.96585 0 0 1 1.41-.59h13.17l20.42-20.41a1.96585 1.96585 0 0 1 1.41-.59h13.17l24-24h-3.17a2 2 0 0 1 0-4h8a1.89069 1.89069 0 0 1 .53.08.56448.56448 0 0 1 .12.04 1.84712 1.84712 0 0 1 .45.21 2.28212 2.28212 0 0 1 .4.35.8637.8637 0 0 0 .07.1 2.11046 2.11046 0 0 1 .28.45 2.35465 2.35465 0 0 1 .12.51c.01.05.01.09.02.14 0 .03998.01.07996.01.12z" fill="#0bceb2"/><path d="m113.51514 73.64745h-41.99207a24.7792 24.7792 0 0 1 1.06866 4h36.92316z" fill="#2d4356"/><circle cx="2" cy="144.647" fill="#2d4356" r="2"/><path d="m11 142.64745h-3a2 2 0 0 0 0 4h3a2 2 0 0 0 0-4z" fill="#2d4356"/><path d="m118.15387 150.64745h-8.30774a2.00641 2.00641 0 0 0 0 4h8.30774a2.00641 2.00641 0 0 0 0-4z" fill="#0bceb2"/><path d="m58.15387 150.64745h-8.30774a2.00641 2.00641 0 0 0 0 4h8.30774a2.00641 2.00641 0 0 0 0-4z" fill="#0bceb2"/><path d="m104 150.64745h-40a2 2 0 0 0 0 4h15.94v2h-7.94a2 2 0 0 0 0 4h25a2 2 0 0 0 0-4h-8.94v-2h15.94a2 2 0 1 0 0-4z" fill="#0bceb2"/><g fill="#2d4356"><path d="m160 142.64745h-3a2 2 0 0 0 0 4h3a2 2 0 0 0 0-4z"/><circle cx="166" cy="144.647" r="2"/><path d="m150.72131 142.64745h-2.72925a3.99325 3.99325 0 0 0 -1.44635-3.08539l-12.12-10a3.98788 3.98788 0 0 0 -.48425-.33362 3.963 3.963 0 0 0 .05853-.581v-51a3.98635 3.98635 0 0 0 -3.55939-3.95557l-3.95569 3.95557h3.51509v51h-92v-23.59325a24.82351 24.82351 0 0 1 -2.28955-1.132l-1.71045 1.71031v23.015a3.963 3.963 0 0 0 .05853.581 3.992 3.992 0 0 0 -.48419.33362l-12.12 10a3.99344 3.99344 0 0 0 -1.44635 3.08539h-2.7293a2.017 2.017 0 1 0 0 4h133.44262a2.017 2.017 0 1 0 0-4zm-126.72131 0 12.12-10h95.76l12.12 10z"/><path d="m132 14.14745a3 3 0 1 0 -3-3 3.00344 3.00344 0 0 0 3 3zm0-4.5a1.5 1.5 0 1 1 -1.5 1.5 1.50148 1.50148 0 0 1 1.5-1.5z"/><path d="m158.30471 67.64745a2 2 0 1 0 2 2 2.00229 2.00229 0 0 0 -2-2zm0 3a1 1 0 1 1 1-1 1.001 1.001 0 0 1 -1 1z"/><path d="m98.30471 38.64745a2 2 0 1 0 2 2 2.00229 2.00229 0 0 0 -2-2zm0 3a1 1 0 1 1 1-1 1.001 1.001 0 0 1 -1 1z"/><path d="m75.33333 57.31412a2 2 0 1 0 2 2 2.00229 2.00229 0 0 0 -2-2zm0 3a1 1 0 1 1 1-1 1.001 1.001 0 0 1 -1 1z"/><path d="m17.30471 26.64745a2 2 0 1 0 -2 2 2.00229 2.00229 0 0 0 2-2zm-3 0a1 1 0 1 1 1 1 1.001 1.001 0 0 1 -1-1z"/></g><path d="m10.888 67.659 1.487-1.956-.939-.532-.955 2.19h-.031l-.97-2.174-.955.547 1.471 1.909v.032l-2.301-.298v1.064l2.316-.297v.031l-1.486 1.909.891.563 1.018-2.206h.031l.939 2.191.986-.564-1.502-1.877v-.032l2.362.282v-1.064l-2.362.313z" fill="#0bceb2"/><path d="m52.081 32.714-.856 1.099.514.325.586-1.271h.017l.541 1.262.568-.325-.865-1.081v-.018l1.36.162v-.613l-1.36.18v-.017l.856-1.127-.54-.306-.55 1.261h-.018l-.559-1.252-.55.315.847 1.1v.018l-1.325-.172v.613l1.334-.171z" fill="#0bceb2"/><path d="m82.983 10.56v-1.044l-2.316.307v-.031l1.458-1.918-.921-.521-.936 2.148h-.031l-.951-2.133-.937.537 1.443 1.872v.031l-2.257-.292v1.044l2.272-.292v.031l-1.458 1.872.874.553.999-2.164h.03l.921 2.148.967-.552-1.473-1.842v-.031z" fill="#0bceb2"/><path d="m157.415 43.233 1.258-1.654-.795-.45-.807 1.853h-.027l-.82-1.84-.809.463 1.245 1.615v.027l-1.947-.252v.9l1.96-.251v.026l-1.258 1.615.755.477.861-1.867h.026l.794 1.854.834-.477-1.27-1.589v-.026l1.998.238v-.9l-1.998.265z" fill="#0bceb2"/></svg>