<svg id="Layer_1" enable-background="new 0 0 74 74" height="512" viewBox="0 0 74 74" width="512" xmlns="http://www.w3.org/2000/svg" xmlns:xlink="http://www.w3.org/1999/xlink"><linearGradient id="lg1"><stop offset="0" stop-color="#696c70"/><stop offset="1" stop-color="#3f444c"/></linearGradient><linearGradient id="SVGID_1_" gradientUnits="userSpaceOnUse" x1="28.848" x2="37.559" xlink:href="#lg1" y1="27.552" y2="47.765"/><linearGradient id="SVGID_2_" gradientUnits="userSpaceOnUse" x1="33.547" x2="33.547" xlink:href="#lg1" y1="50.643" y2="55.177"/><linearGradient id="SVGID_3_" gradientUnits="userSpaceOnUse" x1="33.547" x2="33.547" y1="50.678" y2="51.974"><stop offset="0" stop-color="#555a60"/><stop offset="1" stop-color="#3f444c"/></linearGradient><linearGradient id="lg2"><stop offset="0" stop-color="#fff"/><stop offset="1" stop-color="#eff2f8"/></linearGradient><linearGradient id="SVGID_4_" gradientUnits="userSpaceOnUse" x1="51.116" x2="22.26" xlink:href="#lg2" y1="51.478" y2="28.911"/><linearGradient id="SVGID_5_" gradientUnits="userSpaceOnUse" x1="13.699" x2="33.954" xlink:href="#lg2" y1="26.928" y2="49.403"/><linearGradient id="lg3"><stop offset="0" stop-color="#947bff"/><stop offset="1" stop-color="#63f"/></linearGradient><linearGradient id="SVGID_6_" gradientUnits="userSpaceOnUse" x1="22.277" x2="24.421" xlink:href="#lg3" y1="35.696" y2="39.779"/><linearGradient id="SVGID_7_" gradientUnits="userSpaceOnUse" x1="24.826" x2="26.971" xlink:href="#lg3" y1="35.696" y2="39.779"/><linearGradient id="SVGID_8_" gradientUnits="userSpaceOnUse" x1="27.376" x2="29.52" xlink:href="#lg3" y1="35.696" y2="39.779"/><linearGradient id="SVGID_9_" gradientUnits="userSpaceOnUse" x1="29.925" x2="32.07" xlink:href="#lg3" y1="35.696" y2="39.779"/><linearGradient id="SVGID_10_" gradientUnits="userSpaceOnUse" x1="32.474" x2="34.619" xlink:href="#lg3" y1="35.696" y2="39.779"/><linearGradient id="SVGID_11_" gradientUnits="userSpaceOnUse" x1="35.024" x2="37.169" xlink:href="#lg3" y1="35.696" y2="39.779"/><linearGradient id="SVGID_12_" gradientUnits="userSpaceOnUse" x1="14.337" x2="19.556" y1="15.099" y2="25.037"><stop offset="0" stop-color="#9ce3ff"/><stop offset="1" stop-color="#6cf"/></linearGradient><linearGradient id="lg4"><stop offset="0" stop-color="#ff7171"/><stop offset="1" stop-color="#f33"/></linearGradient><linearGradient id="SVGID_13_" gradientUnits="userSpaceOnUse" x1="17.085" x2="22.644" xlink:href="#lg4" y1="24.346" y2="34.221"/><linearGradient id="SVGID_14_" gradientUnits="userSpaceOnUse" x1="20.712" x2="15.91" xlink:href="#lg4" y1="30.656" y2="22.573"/><linearGradient id="SVGID_15_" gradientUnits="userSpaceOnUse" x1="17.818" x2="19.753" xlink:href="#lg2" y1="24.795" y2="29.37"/><linearGradient id="SVGID_16_" gradientUnits="userSpaceOnUse" x1="18.943" x2="21.104" xlink:href="#lg1" y1="25.408" y2="28.448"/><linearGradient id="SVGID_17_" gradientUnits="userSpaceOnUse" x1="17.224" x2="19.565" xlink:href="#lg1" y1="27.785" y2="30.966"/><linearGradient id="SVGID_18_" gradientUnits="userSpaceOnUse" x1="52.283" x2="55.584" y1="39.866" y2="51.692"><stop offset="0" stop-color="#ffa04a"/><stop offset="1" stop-color="#f60"/></linearGradient><linearGradient id="lg5"><stop offset="0" stop-color="#eff2f8"/><stop offset="1" stop-color="#d8dfea"/></linearGradient><linearGradient id="SVGID_19_" gradientUnits="userSpaceOnUse" x1="55.323" x2="55.402" xlink:href="#lg5" y1="43.879" y2="54.322"/><linearGradient id="SVGID_20_" gradientUnits="userSpaceOnUse" x1="55.373" x2="55.373" xlink:href="#lg5" y1="47.29" y2="44.258"/><linearGradient id="SVGID_21_" gradientUnits="userSpaceOnUse" x1="55.323" x2="55.402" xlink:href="#lg5" y1="45.906" y2="56.348"/><linearGradient id="SVGID_22_" gradientUnits="userSpaceOnUse" x1="47.723" x2="57.282" y1="39.228" y2="59.244"><stop offset="0" stop-color="#ffdc85"/><stop offset="1" stop-color="#fc3"/></linearGradient><linearGradient id="SVGID_23_" gradientUnits="userSpaceOnUse" x1="37.219" x2="59.973" xlink:href="#lg1" y1="7.85" y2="51.169"/><linearGradient id="SVGID_24_" gradientUnits="userSpaceOnUse" x1="20.681" x2="22.473" xlink:href="#lg2" y1="14.88" y2="18.291"/><linearGradient id="SVGID_25_" gradientUnits="userSpaceOnUse" x1="21.01" x2="22.146" y1="15.504" y2="17.667"><stop offset="0" stop-color="#64e88c"/><stop offset="1" stop-color="#3c6"/></linearGradient><linearGradient id="SVGID_26_" gradientUnits="userSpaceOnUse" x1="60.619" x2="62.411" xlink:href="#lg2" y1="49.406" y2="52.818"/><linearGradient id="SVGID_27_" gradientUnits="userSpaceOnUse" x1="60.947" x2="62.084" xlink:href="#lg4" y1="50.03" y2="52.194"/><linearGradient id="SVGID_28_" gradientUnits="userSpaceOnUse" x1="59.585" x2="63.447" xlink:href="#lg5" y1="16.585" y2="16.585"/><linearGradient id="SVGID_29_" gradientUnits="userSpaceOnUse" x1="60.947" x2="62.084" xlink:href="#lg3" y1="15.504" y2="17.667"/><g><g><g><path d="m54.43 26.52v24.24h-41.77v-24.24c0-1 .81-1.81 1.81-1.81h38.15c1 0 1.81.81 1.81 1.81z" fill="url(#SVGID_1_)"/><path d="m8.91 52.07.36.73c.77 1.54 2.34 2.51 4.05 2.51h40.43c1.72 0 3.29-.97 4.05-2.51l.36-.73c.3-.6-.14-1.31-.81-1.31h-47.62c-.68 0-1.12.71-.82 1.31z" fill="url(#SVGID_2_)"/><path d="m26.58 50.76.29.59c.22.44.67.72 1.17.72h11.01c.5 0 .95-.28 1.17-.72l.29-.59z" fill="url(#SVGID_3_)"/><path d="m14.47 26.52h38.15v22.43h-38.15z" fill="url(#SVGID_4_)"/><path d="m14.47 48.95v-22.43l38.15 22.43z" fill="url(#SVGID_5_)"/></g><g><path d="m22.75 35.45h1.21v4.58h-1.21z" fill="url(#SVGID_6_)"/><path d="m25.3 35.45h1.21v4.58h-1.21z" fill="url(#SVGID_7_)"/><path d="m27.85 35.45h1.21v4.58h-1.21z" fill="url(#SVGID_8_)"/><path d="m30.39 35.45h1.21v4.58h-1.21z" fill="url(#SVGID_9_)"/><path d="m32.94 35.45h1.21v4.58h-1.21z" fill="url(#SVGID_10_)"/><path d="m35.49 35.45h1.21v4.58h-1.21z" fill="url(#SVGID_11_)"/><g fill="#d8dfea"><path d="m38.04 35.45h1.21v4.58h-1.21z"/><path d="m40.59 35.45h1.21v4.58h-1.21z"/><path d="m43.14 35.45h1.21v4.58h-1.21z"/></g></g></g><path d="m33.55 24.17c0 2.23-1.85 4.06-4.1 4.06h-21.22c-1.79 0-3.23-1.43-3.23-3.2 0-1.71 1.36-3.11 3.06-3.17-.14-.4-.2-.8-.2-1.23 0-2.23 1.82-4.06 4.1-4.06.61 0 1.15.14 1.67.37.75-3.29 3.69-5.74 7.24-5.74 4.1 0 7.42 3.29 7.42 7.34 0 .63-.09 1.26-.23 1.83.43-.17.89-.26 1.39-.26 2.25.01 4.1 1.81 4.1 4.06z" fill="url(#SVGID_12_)"/><g><g><g><g><path d="m20.81 22.54.81-.8c.18-.18.47-.22.69-.09l1.14.66c.22.13.33.4.27.65l-.29 1.09c-.05.19 0 .38.13.53.45.52.8 1.13 1.03 1.78.06.18.2.32.39.37l1.09.29c.25.07.43.3.43.56v1.3c0 .26-.17.49-.43.56l-1.09.29c-.19.05-.33.19-.39.37-.23.66-.58 1.27-1.03 1.78-.13.15-.18.34-.13.53l.29 1.09c.07.25-.04.52-.27.65l-1.14.66c-.22.13-.51.09-.69-.09l-.81-.8c-.14-.14-.33-.19-.52-.15-.32.06-.66.1-1.01.1s-.69-.03-1.01-.1c-.19-.04-.38.02-.52.15l-.81.8c-.18.18-.47.22-.69.09l-1.14-.66c-.22-.13-.33-.4-.27-.65l.29-1.09c.05-.19 0-.38-.13-.53-.45-.52-.8-1.11-1.03-1.77-.06-.18-.2-.32-.39-.37l-1.1-.3c-.25-.07-.42-.3-.42-.55v-1.31c0-.26.17-.49.42-.55l1.1-.3c.18-.05.32-.19.39-.37.23-.66.58-1.25 1.03-1.77.13-.15.18-.34.13-.53l-.29-1.09c-.07-.25.04-.52.27-.65l1.14-.66c.22-.13.51-.09.69.09l.81.8c.14.14.33.19.52.15.32-.06.66-.1 1.01-.1s.69.03 1.01.1c.19.02.38-.03.52-.16z" fill="url(#SVGID_13_)"/><path d="m19.27 32.25c-2.22 0-4.02-1.8-4.02-4.02s1.8-4.02 4.02-4.02 4.02 1.8 4.02 4.02-1.8 4.02-4.02 4.02zm0-6.94c-1.61 0-2.92 1.31-2.92 2.93 0 1.61 1.31 2.93 2.92 2.93s2.93-1.31 2.93-2.93-1.32-2.93-2.93-2.93z" fill="url(#SVGID_14_)"/><circle cx="19.27" cy="28.23" fill="url(#SVGID_15_)" r="3.3"/></g></g></g><g><path d="m19.47 25.95v-.46l-1.14.66 1.14.66v-.42c.94.1 1.67.88 1.67 1.84 0 .12.1.22.22.22s.22-.1.22-.22c0-1.2-.93-2.18-2.11-2.28z" fill="url(#SVGID_16_)"/><path d="m19.08 30.07c-.94-.1-1.68-.88-1.68-1.84 0-.12-.1-.22-.22-.22s-.22.1-.22.22c0 1.2.93 2.18 2.12 2.28v.46l1.14-.66-1.14-.66z" fill="url(#SVGID_17_)"/></g></g><g><path d="m69 40.63v20.62c0 .86-.69 1.55-1.55 1.55h-24.15c-.86 0-1.55-.69-1.55-1.55v-17.33c0-.86.69-1.55 1.55-1.55h12.48l2.75-2.82c.29-.3.69-.47 1.11-.47h7.8c.87 0 1.56.69 1.56 1.55z" fill="url(#SVGID_18_)"/><path d="m43.47 45.22v10.58c0 .76.61 1.37 1.37 1.37h21.06c.76 0 1.37-.61 1.37-1.37v-10.58c0-.76-.61-1.37-1.37-1.37h-21.06c-.75 0-1.37.61-1.37 1.37z" fill="url(#SVGID_19_)"/><path d="m43.47 46.23v10.58c0 .76.61 1.37 1.37 1.37h21.06c.76 0 1.37-.61 1.37-1.37v-10.58c0-.76-.61-1.37-1.37-1.37h-21.06c-.75 0-1.37.62-1.37 1.37z" fill="url(#SVGID_20_)"/><path d="m43.47 47.24v10.58c0 .76.61 1.37 1.37 1.37h21.06c.76 0 1.37-.61 1.37-1.37v-10.58c0-.76-.61-1.37-1.37-1.37h-21.06c-.75.01-1.37.62-1.37 1.37z" fill="url(#SVGID_21_)"/><path d="m41.75 49.25v12c0 .86.69 1.55 1.55 1.55h24.15c.86 0 1.55-.69 1.55-1.55v-12c0-.86-.69-1.55-1.55-1.55h-24.15c-.86 0-1.55.69-1.55 1.55z" fill="url(#SVGID_22_)"/><g fill="#f60"><path d="m65.78 58.1c0 .28-.24.5-.51.5h-7.52c-.28 0-.5-.23-.5-.5 0-.28.23-.51.5-.51h7.52c.28 0 .51.23.51.51z"/><path d="m65.78 60.29c0 .28-.24.5-.51.5h-7.52c-.28 0-.5-.23-.5-.5 0-.28.23-.51.5-.51h7.52c.28 0 .51.22.51.51z"/></g></g><g><g><path d="m62.04 50.09h-1.04v-32.98h-39.42v-1.05h40.46z" fill="url(#SVGID_23_)"/></g><g><path d="m23.51 16.59c0 1.06-.86 1.92-1.93 1.92s-1.93-.86-1.93-1.92c0-1.07.86-1.93 1.93-1.93s1.93.86 1.93 1.93z" fill="url(#SVGID_24_)"/><path d="m22.8 16.59c0 .67-.55 1.22-1.22 1.22s-1.22-.55-1.22-1.22c0-.68.55-1.22 1.22-1.22s1.22.54 1.22 1.22z" fill="url(#SVGID_25_)"/><path d="m63.45 51.12c0 1.06-.86 1.92-1.93 1.92s-1.93-.86-1.93-1.92c0-1.07.86-1.93 1.93-1.93s1.93.86 1.93 1.93z" fill="url(#SVGID_26_)"/><path d="m62.74 51.12c0 .67-.55 1.22-1.22 1.22-.68 0-1.22-.55-1.22-1.22 0-.68.55-1.22 1.22-1.22.67-.01 1.22.54 1.22 1.22z" fill="url(#SVGID_27_)"/><path d="m63.45 16.59c0 1.06-.86 1.92-1.93 1.92s-1.93-.86-1.93-1.92c0-1.07.86-1.93 1.93-1.93s1.93.86 1.93 1.93z" fill="url(#SVGID_28_)"/><path d="m62.74 16.59c0 .67-.55 1.22-1.22 1.22-.68 0-1.22-.55-1.22-1.22 0-.68.55-1.22 1.22-1.22.67-.01 1.22.54 1.22 1.22z" fill="url(#SVGID_29_)"/></g></g></g></svg>