<svg id="Layer_1" enable-background="new 0 0 100 100" height="100" viewBox="0 0 100 100" width="100" xmlns="http://www.w3.org/2000/svg"><g><circle cx="49.651" cy="72.83" fill="none" r="1.846"/><path d="m6.159 65.021h86.986v-49.025h-86.986zm50.427-18.135 11.509-4.933v-.062l-11.509-4.932v-3.289l14.891 6.825v2.854l-14.891 6.825zm-4.934-17.962h3.133l-6.639 22.49h-3.133zm-23.827 11.664 14.89-6.918v3.289l-11.26 4.932v.062l11.26 4.933v3.288l-14.89-6.917z" fill="#333"/><path d="m94.319 12.179h-43.881-1.495-43.88c-1.563 0-2.91 1.189-2.91 2.752v54.093.19 5.011.315c0 1.563 1.347 2.877 2.91 2.877h35.146c-.041.896-.321 4.753-2.155 6.623-1.445 1.472-3.453 2.854-2.669 3.563.19.435 1.091.688 3.14.688h11.208.707 11.207c2.334 0 3.15-.382 3.158-.953h-.08v-.189h-.082c-.104-.769-1.662-1.908-2.84-3.106-1.834-1.87-2.113-5.726-2.154-6.623h34.674c1.564 0 2.83-1.313 2.83-2.877v-.315-5.011-.19-54.094c-.002-1.565-1.27-2.754-2.834-2.754zm-44.668 62.497c-1.021 0-1.847-.825-1.847-1.846s.826-1.847 1.847-1.847c1.02 0 1.847.826 1.847 1.847.001 1.021-.827 1.846-1.847 1.846zm43.495-9.655h-86.987v-49.025h86.986v49.025z" fill="#1a1a1a"/><g fill="#999"><path d="m42.715 46.886-11.26-4.933v-.062l11.26-4.932v-3.289l-14.89 6.918v2.668l14.89 6.918z"/><path d="m54.785 28.924h-3.133l-6.638 22.49h3.132z"/><path d="m71.477 40.495-14.891-6.825v3.289l11.509 4.932v.062l-11.509 4.933v3.288l14.891-6.825z"/></g></g></svg>