<svg id="Layer_1" enable-background="new 0 0 100 100" height="100" viewBox="0 0 100 100" width="100" xmlns="http://www.w3.org/2000/svg"><g><path d="m6.007 64.547h86.987v-49.025h-86.987zm84.567-6.955h-19.017v-2.174h19.018v2.174zm0-4.522h-19.017v-2.173h19.018v2.173zm0-4.52h-19.017v-2.174h19.018v2.174zm0-4.584h-19.017v-11.56h19.018v11.56zm-82.389-25.802h82v11.451h-82zm42.108 34.785v-2.153h18.838v2.153zm18.838 2.324v2.154h-18.838v-2.154zm-18.838-6.802v-2.154h18.838v2.154zm0-4.541v-11.451h18.838v11.451zm-21.055 9.019v-2.153h18.838v2.153zm18.838 2.324v2.154h-18.838v-2.154zm-18.838-6.802v-2.154h18.838v2.154zm0-4.541v-11.451h18.838v11.451zm-21.053-11.451h18.838v11.451h-18.838zm0 13.838h18.838v2.154h-18.838zm0 4.479h18.838v2.153h-18.838zm0 4.477h18.838v2.154h-18.838zm0 4.652h82v2.153h-82z" fill="none"/><circle cx="49.5" cy="72.356" fill="none" r="1.846"/><path d="m94.168 11.706h-43.881-1.495-43.881c-1.563 0-2.91 1.189-2.91 2.752v54.093.19 5.011.315c0 1.563 1.347 2.877 2.91 2.877h35.146c-.041.896-.321 4.753-2.155 6.623-1.445 1.472-3.453 2.854-2.669 3.563.19.434 1.091.688 3.14.688h11.208.707 11.208c2.334 0 3.15-.383 3.158-.953h-.08v-.189h-.084c-.105-.769-1.662-1.908-2.84-3.106-1.834-1.87-2.113-5.726-2.154-6.623h34.674c1.564 0 2.83-1.313 2.83-2.877v-.315-5.011-.19-54.095c0-1.564-1.27-2.753-2.832-2.753zm-44.668 62.496c-1.021 0-1.847-.825-1.847-1.846s.826-1.847 1.847-1.847c1.02 0 1.846.826 1.846 1.847.002 1.021-.827 1.846-1.846 1.846zm43.494-9.655h-86.987v-49.025h86.987z" fill="#1a1a1a"/><g fill="#ccc"><path d="m8.185 46.317h18.838v2.154h-18.838z"/><path d="m8.185 50.796h18.838v2.153h-18.838z"/><path d="m8.185 55.273h18.838v2.154h-18.838z"/><path d="m29.238 55.273h18.838v2.154h-18.838z"/><path d="m50.293 55.273h18.838v2.154h-18.838z"/><path d="m71.557 55.418h19.018v2.174h-19.018z"/><path d="m29.238 46.317h18.838v2.154h-18.838z"/><path d="m29.238 50.796h18.838v2.153h-18.838z"/><path d="m50.293 46.317h18.838v2.154h-18.838z"/><path d="m50.293 50.796h18.838v2.153h-18.838z"/><path d="m71.557 46.376h19.018v2.174h-19.018z"/><path d="m71.557 50.897h19.018v2.173h-19.018z"/></g><path d="m8.185 59.925h82v2.153h-82z" fill="#b3b3b3"/><path d="m8.185 18.164h82v11.451h-82z" fill="#999"/><path d="m8.185 32.479h18.838v11.451h-18.838z" fill="#8dc63f"/><path d="m29.238 32.479h18.838v11.451h-18.838z" fill="#00a651"/><path d="m50.293 32.479h18.838v11.451h-18.838z" fill="#00a79d"/><path d="m71.557 32.406h19.018v11.56h-19.018z" fill="#ef4136"/></g></svg>