<svg id="Layer_1" enable-background="new 0 0 50 50" height="512" viewBox="0 0 50 50" width="512" xmlns="http://www.w3.org/2000/svg"><g><g><g><g><g><g enable-background="new"><g><path d="m40.18082 17.40545-.0043 1.51769-3.42347-1.97654.0043-1.51769z" fill="#3f535c"/></g><g><path d="m40.26751 17.52819-.00431 1.5177c.00013-.04463-.02833-.08906-.08668-.12275l.0043-1.51769c.05835.03369.08682.07811.08669.12274z" fill="#3f535c"/></g><g><path d="m46.84515 22.5595-.0043 1.51769-19.01343-10.9774.0043-1.51769z" fill="#3f535c"/></g><g><path d="m39.74995 17.65586-.0043 1.51769-3.42348-1.97655.0043-1.51769z" fill="#546f7a"/></g><g><path d="m36.75365 16.7332.0037-1.30428c-.1189-.06863-.31425-.06528-.43248.00342-.05856.03403-.08788.07824-.08802.12255l-.00249.87848z" fill="#3f535c"/></g><g><path d="m36.23259 17.07258.0043-1.51768c-.00012.04489.02974.08987.08958.12442l-.0043 1.51769c-.05984-.03455-.08971-.07954-.08958-.12443z" fill="#546f7a"/></g><g><path d="m40.26752 17.5282-.00431 1.51769c-.00012.04628-.031.09279-.09119.12777-.11789.06851-.3075.06853-.42637-.0001l.0043-1.51769c.11888.06863.30848.06861.42637.0001.06019-.03498.09108-.08149.0912-.12777z" fill="#546f7a"/></g><g><path d="m49 21.78712-.00431 1.51769c-.00046.16372-.10917.32721-.32631.45339l.0043-1.51769c.21714-.12618.32585-.28967.32632-.45339z" fill="#3f535c"/></g><g><path d="m22.4223 36.75252-.0043 1.51769-19.01343-10.97741.0043-1.51769z" fill="#fff"/></g><g><path d="m27.83172 11.5821-.0043 1.51769-24.42286 14.19302.0043-1.51769z" fill="#3f535c"/></g><g><path d="m1 28.21269.00429-1.51768c-.00046.16663.10858.33355.32693.45962l-.0043 1.51769c-.21835-.12607-.32739-.29299-.32692-.45963z" fill="#3f535c"/></g><g><path d="m12.55415 32.99248c-.41604-.2402-1.09149-.24014-1.50478.00002.00141-.50588.00287-1.0118.00429-1.51768.41329-.24016 1.08875-.24022 1.50479-.00002l.00003.00002c-.00143.50589-.0029 1.01181-.00432 1.51769z" fill="#3f535c"/></g><g><path d="m12.86237 33.42663c.00045-.15787-.10259-.31542-.30819-.43414.00141-.50588.00287-1.0118.00429-1.51768.20562.11871.30866.27626.30821.43413-.00131.45531-.00303 1.06239-.00431 1.51769z" fill="#3f535c"/></g><g><path d="m11.04934 32.99252c-.20174.11723-.30309.27232-.30353.4282l.00429-1.51769c.00046-.15588.10181-.31096.30355-.4282l.00003-.00002c-.00143.50589-.0029 1.01181-.00432 1.51769z" fill="#3f535c"/></g><g><path d="m40.18084 17.40546c.11888.06863.1137.18181-.00452.25051-.11789.06851-.3075.06853-.42637-.0001l-3.42348-1.97655c-.11888-.06863-.11946-.17846-.00157-.24697.11821-.0687.31358-.07207.43246-.00343z" fill="#475e68"/></g><g><path d="m20.04749 37.96046-.00431 1.51769-18.71626-10.80584.0043-1.51769z" fill="#3f535c"/></g><g><path d="m12.55847 31.47479c.41011.23678.41219.62804-.00108.86821-.4075.23681-1.08299.23689-1.49309.00011-.41605-.24021-.41813-.63147-.01063-.86829.41326-.24016 1.08875-.24023 1.5048-.00003z" fill="#475e68"/></g><g><path d="m46.84516 22.55951-.0043 1.51769-24.42286 14.19301.0043-1.51769z" fill="#fff"/></g><g><path d="m46.84516 22.55951-24.42286 14.19301-19.01343-10.97741 24.42286-14.19301z" fill="#fff"/></g><g><path d="m48.67368 22.24051-.0043 1.51769-27.05049 15.72003.0043-1.51769z" fill="#3f535c"/></g><g><path d="m21.62319 37.96054-.0043 1.51769c-.43088.2504-1.13588.25385-1.5757-.00008l.0043-1.51769c.43982.25394 1.14482.25049 1.5757.00008z" fill="#3f535c"/></g></g></g><g><path d="m48.66871 21.32763c.43982.25393.44194.65895.00497.91289l-27.0505 15.72003c-.43088.2504-1.13588.25385-1.5757-.00008l-18.71626-10.80585c-.43388-.2505-.43615-.66229-.00527-.91269l27.0505-15.72003c.43696-.25394 1.14212-.25061 1.576-.00011zm-26.24643 15.42489 24.42287-14.19302-19.01343-10.9774-24.42286 14.19302zm-11.35801-4.40941c.4101.23677 1.08558.23671 1.49309-.00011.41328-.24017.41119-.63143.00109-.86821-.41605-.24021-1.09153-.24014-1.50481.00003-.4075.23682-.40542.62809.01063.86829m25.69308-16.9142c-.11889-.06864-.31425-.06527-.43247.00342-.1179.06852-.11732.17835.00157.24699l3.42347 1.97654c.11887.06863.30848.06861.42638.00009.11821-.0687.12339-.18187.00452-.2505z" fill="#546f7a"/></g></g><g><g><path d="m22.75744 25.33532c1.33052.78032 1.33495 2.04189-.00253 2.81915-1.33749.77726-3.51801.7803-4.8695.01216l.59044-.34313c1.02544.57989 2.67132.57685 3.68482-.01213 1.01094-.5875 1.01095-1.54094.00904-2.1345z" fill="#5f6ac4"/></g><g><path d="m16.75711 21.87103c1.32527.78337 1.32715 2.04034-.00779 2.81612-1.34528.78179-3.54157.7818-4.89572-.00002-1.34626-.77726-1.35865-2.04031-.03424-2.82216l.59425.34309c-1.00042.59357-.98993 1.547.03029 2.13603 1.02547.59206 2.68974.59356 3.71117-.00003 1.00839-.58601 1.01089-1.53786.0116-2.1299z" fill="#7db343"/></g><g><path d="m28.77873 28.80876c1.2965.77267 1.30866 1.99929.0366 2.77509l-.59425-.34309c.94552-.58603.93773-1.50753-.03265-2.08895z" fill="#ee534f"/></g></g><g fill="#475e68"><path d="m26.31051 31.51412c-.58887 0-1.14355-.13293-1.5625-.37427-.42871-.24805-.66601-.58081-.66601-.93738-.00098-.35413.23242-.68494.65625-.9314.41602-.24146.96875-.37439 1.55859-.37439s1.14648.13342 1.56641.37573c.42773.24731.66406.57983.66504.93604 0 .354-.23242.6842-.65527.92981-.417.24231-.97169.37586-1.56251.37586zm-.01367-2.44263c-.53711 0-1.04004.12048-1.41602.33911-.36719.21338-.56934.49463-.56934.79187.00098.29919.20605.58252.5791.79761.37793.21838.88281.33862 1.41992.33862.53809 0 1.04297-.12073 1.41992-.34009.36719-.21301.56934-.49365.56836-.79004 0-.29871-.20508-.58154-.57715-.79626-.38085-.21985-.88671-.34082-1.42479-.34082z"/><path d="m20.30612 28.04659c-.58984 0-1.146-.13342-1.56543-.37561-.42822-.24731-.66406-.57947-.66455-.93555-.00049-.35437.23291-.68518.65723-.93164.41553-.24158.96875-.37463 1.55859-.37463.58936 0 1.14453.13306 1.56299.37451.42969.24817.6665.58142.66699.93811.00049.35364-.23145.68359-.6543.92908-.4165.2423-.97119.37573-1.56152.37573zm-.01758-2.44348c-.53711 0-1.04004.12036-1.41602.33875-.3667.21313-.56836.49426-.56787.79187.00049.29968.20557.58289.57715.79749.37939.21899.88477.33948 1.42383.33948s1.04346-.12048 1.41992-.33936c.36572-.21252.56689-.49292.56641-.78931-.00049-.29968-.20605-.58337-.57861-.79858-.37989-.21949-.88624-.34034-1.42481-.34034z"/><path d="m14.29684 24.57845c-.58838 0-1.14307-.13306-1.56152-.37476-.4292-.24768-.66553-.58057-.66602-.93762-.00049-.35437.23193-.68506.65576-.93115.41455-.24109.96777-.37378 1.55762-.37378.59131 0 1.14746.13318 1.56641.37512.4292.24768.66553.58008.66602.93591.00049.35352-.23242.68384-.65576.92993-.41749.24268-.97267.37635-1.56251.37635zm-.01416-2.44263c-.53711 0-1.04004.12024-1.41602.33862-.36621.21313-.56787.49426-.56738.79175.00049.29968.20557.58301.57715.79773.37939.21887.88477.33936 1.42383.33936.53857 0 1.04297-.12048 1.41992-.33923.36572-.21265.56689-.49304.56641-.78955-.00049-.29968-.20605-.58325-.57861-.79834-.37989-.21949-.88624-.34034-1.4253-.34034z"/></g></g><g><g><path d="m39.01879 25.99302c.10573.06105.10624.16097.00132.22194-.10984.06383-.28236.06386-.38809.00282-.03333-.01924-.05637-.04185-.06962-.0657-.02058-.03619-.01754-.07555.00889-.11101.01353-.0183.03335-.03566.05952-.05087.10492-.06096.27744-.061.38798.00282z" fill="#ee534f"/></g><g><path d="m32.67291 23.70103c.11054.06382.11105.16375.00613.22472-.00622.00361-.01281.00701-.01931.01016-.05167.02509-.11403.0377-.17643.03769-.07094.00016-.14178-.01583-.19715-.0478-.05106-.02948-.07731-.06805-.07867-.10724-.00131-.03707.01948-.07458.06353-.10557.00587-.00412.012-.00808.01874-.01199.10491-.06099.27743-.06102.38316.00003z" fill="#ee534f"/></g><g><path d="m31.35892 24.38892c.05145.0297.08239.07098.08266.11675-.00183.03496-.02352.06745-.05875.09393-.03974.02988-.09676.05188-.16266.06034-.01953.00253-.03954.00388-.06032.00389-.07306-.00136-.14038-.01953-.19002-.04819-.0351-.02026-.06115-.04581-.07426-.07439-.00612-.01314-.00965-.02688-.00981-.04107.00259-.02521.01431-.04876.03304-.06976.04687-.05277.13897-.08843.2487-.0884.07662.00133.14309.019.19142.0469z" fill="#475e68"/></g><g><path d="m28.26892 21.72259c.11054.06382.11105.16375.00121.22758-.02642.01535-.05734.02691-.09015.03439-.05875.0135-.12459.0145-.18575.0029-.04053-.0078-.07906-.02104-.11208-.0401-.04421-.02553-.06967-.05793-.07712-.09134-.00815-.03592.00519-.07323.04004-.10473.01012-.00916.02202-.01789.03575-.02587.10985-.06384.28237-.06388.3881-.00283z" fill="#ee534f"/></g><g><path d="m28.47308 23.09611c.03905.02255.06358.04992.07446.0787.01396.03657.0059.07513-.02313.10849-.01268.01459-.0294.02834-.05012.04039-.10984.06383-.2821.06371-.39264-.00011-.10573-.06104-.1065-.16082.00334-.22465.01917-.01114.04103-.02043.06402-.02756.05731-.01793.12381-.02365.18656-.01683.05069.00556.09887.01926.13751.04157z" fill="#ee534f"/></g><g><path d="m23.74941 21.35356c.04003.02311.0654.05096.07673.08001.01425.03613.00662.07405-.02305.10704-.01199.01348-.02812.02638-.04755.03767-.10984.06383-.28235.06386-.39289.00004-.09109-.05259-.10378-.13404-.03549-.19636.01085-.00994.02381-.01957.03909-.02845.03186-.01852.07026-.03146.11082-.03866.0929-.01657.19879-.00375.27234.03871z" fill="#ee534f"/></g><g><path d="m22.10275 19.87737c.09715.05609.10534.14485.02068.20851-.00745.0056-.01522.01102-.02428.01629-.03704.02153-.08246.03522-.13062.04163-.08798.01163-.18416-.00219-.25255-.04167-.0471-.02719-.07395-.061-.08158-.09542-.00776-.03629.00569-.07324.0409-.10453.00979-.00875.02135-.01709.03456-.02477.10983-.06383.28235-.06386.39289-.00004z" fill="#ee534f"/></g><g><path d="m22.74932 22.29111c.0248.01432.04493.03134.05884.05048.01437.0194.02245.04087.02275.06355.00001.01531-.00413.03003-.01097.04379-.03397.06682-.14388.1144-.27102.11452-.07306-.00136-.14038-.01953-.19002-.04819-.05129-.02961-.0836-.07047-.08381-.11561.00406-.04087.03194-.07759.07615-.10519.04321-.02697.10209-.0449.1705-.04922.01285-.00069.02608-.00115.03989-.00098.07306.00137.13923.01887.18769.04685z" fill="#475e68"/></g><g enable-background="new"><g><path d="m21.67529 19.90218c-.03521.03129-.04867.06824-.0409.10453l-4.98627-.66762.04267-.10831z" fill="#ee534f"/></g><g><path d="m21.10351 20.39226c-.03623.0265-.05905.05984-.0607.0955-.00008.00235.00024.00464.00047.00688l-4.51419-1.03069.07123-.10264z" fill="#475e68"/></g><g><path d="m21.51105 20.37936c.05145.0297.0824.07098.08267.11676-.00261.05221-.04959.09922-.1191.12751-.04511.01837-.09953.02897-.15798.02794-.00734-.00004-.01464-.00035-.02193-.00066-.06525-.00316-.12364-.01976-.16763-.04516-.04944-.02854-.08045-.06805-.08381-.11111-.00023-.00223-.00056-.00452-.00046-.00687.00164-.03566.02447-.069.06069-.0955.05114-.0374.12947-.0615.21612-.05979.07664.00131.14311.01898.19143.04688z" fill="#475e68"/></g><g><path d="m19.54115 20.77291c-.0568.01702-.10233.04474-.12736.07862l-2.94613-1.26278.11444-.08879z" fill="#7db343"/></g><g><path d="m19.86414 20.80242c.05128.02961.08385.07032.08407.11546-.00319.03117-.0204.05994-.04727.08405-.03589.0321-.08961.0563-.15368.06733-.02556.00445-.05262.00684-.08078.00678-.07542-.00273-.14279-.02092-.19186-.04925-.05069-.02927-.08201-.06926-.08223-.1144-.00013-.02168.00754-.04216.02142-.06086.02502-.03387.07055-.06161.12736-.07863.03998-.01203.08517-.01865.13296-.01867.07305.00136.14037.01953.19001.04819z" fill="#7db343"/></g><g><path d="m22.12342 20.08588 1.35364 1.22899c-.04057.0072-.07897.02014-.11083.03865-.01528.00888-.02824.01851-.03908.02845l-1.35863-1.23817c.04815-.0064.09357-.0201.13061-.04163.00908-.00527.01684-.01068.02429-.01629z" fill="#ee534f"/></g><g><path d="m27.84507 21.75129c-.03485.03149-.0482.06881-.04005.10472l-4.00193-.31539c.02967-.03299.0373-.0709.02304-.10704z" fill="#ee534f"/></g><g><path d="m21.31664 20.65156c.05846.00104.11287-.00956.15798-.02793l1.04711 1.62162c-.0684.00432-.12729.02224-.1705.04921l-1.0565-1.64355c.00727.00031.01456.00062.02191.00065z" fill="#475e68"/></g><g><path d="m25.87418 22.49027c-.04564.02796-.07503.06562-.0771.10644l-2.97714-.14779c.00684-.01375.01098-.02846.01097-.04377-.0003-.02268-.00838-.04416-.02275-.06355z" fill="#475e68"/></g><g><path d="m26.26558 22.48816c.05145.02971.0824.07098.08267.11676-.00072.01009-.00303.01986-.00646.02928-.01641.04335-.06269.08055-.12571.10328-.04229.0152-.09211.02395-.1449.02288-.07662-.00132-.14309-.01899-.19143-.0469-.05112-.02951-.08196-.07043-.08239-.11599.0018-.04158.03118-.07923.07682-.1072.0507-.03105.12199-.05051.19998-.049.07662.00131.14309.01898.19142.04689z" fill="#475e68"/></g><g><path d="m19.74723 21.06926c.06408-.01102.11781-.03522.1537-.06733l1.35614 1.83095c-.06622.002-.12518.01717-.17051.04081z" fill="#7db343"/></g><g><path d="m27.99422 21.98745c.06116.0116.127.0106.18575-.0029l.15561 1.06999c-.06277-.00681-.12927-.00109-.18657.01683z" fill="#ee534f"/></g><g><path d="m21.4687 22.87943c.03801.02195.06519.05024.07617.08239.00328.0103.00535.02079.00542.03164-.00121.02751-.01358.05278-.03426.07475-.04763.05083-.14036.08342-.24747.0834-.07429.00002-.14069-.0176-.18957-.04583-.05203-.03004-.08425-.07205-.08452-.11782.00242-.04482.03721-.08566.09211-.11428.04534-.02364.10429-.03882.1705-.04081.00789-.00024.01587-.00044.02393-.00029.07306.00137.13924.01887.18769.04685z" fill="#7db343"/></g><g><path d="m25.20826 23.28913c-.02642.02405-.04245.05201-.04397.08176.00006.00903.00167.01776.00407.02635l-3.65233-.32903c.02067-.02197.03304-.04724.03426-.07475-.00009-.01085-.00214-.02135-.00543-.03164z" fill="#7db343"/></g><g><path d="m25.63607 23.26092c.05128.02961.08386.07032.08407.11546-.00419.0408-.03182.07737-.07519.10514-.04263.02731-.10047.04583-.16694.05127-.01285.00098-.02608.00175-.0396.00175-.07542-.00273-.1428-.02092-.19186-.04925-.04055-.02341-.06828-.05383-.07816-.08804-.00241-.00859-.00402-.01733-.00407-.02636.00151-.02974.01753-.0577.04397-.08175.05006-.04552.13745-.0764.23777-.0764.07304.00136.14037.01952.19001.04818z" fill="#7db343"/></g><g><path d="m26.34178 22.6342 1.3208 1.59867c-.06449.01169-.11751.0366-.15159.06944l-1.29493-1.56483c.06302-.02274.1093-.05994.12572-.10328z" fill="#475e68"/></g></g><g><path d="m25.47798 23.53279c.06648-.00544.12432-.02396.16695-.05127l1.16048 1.69278c-.06791.0001-.12924.01541-.17522.04047z" fill="#7db343"/></g><g enable-background="new"><g><path d="m28.54752 23.17482 3.72348.53816c-.04406.03098-.06485.06849-.06355.10557l-3.68306-.53525c.02903-.03335.03709-.07192.02313-.10848z" fill="#ee534f"/></g><g><path d="m30.91879 24.43042c-.01872.021-.03045.04454-.03303.06976.00016.0142.00368.02794.0098.04107l-2.91784-.06673c.02996-.02502.04774-.05527.04753-.08811.0005-.00752-.00059-.01474-.00209-.02191z" fill="#475e68"/></g><g><path d="m27.94567 24.27326c.04207.02429.07023.05615.07748.09125.00151.00718.00258.0144.00208.02191.00022.03284-.01755.06309-.04751.08811-.05074.04243-.13761.07001-.23422.07005-.07306-.00136-.14038-.01953-.19002-.04819-.05128-.02961-.0836-.07047-.08407-.11546.00298-.02889.01786-.05571.0416-.07862.03408-.03284.08711-.05775.15159-.06944.02895-.00519.06041-.00804.09335-.00732.07306.00136.14065.01937.18972.04771z" fill="#475e68"/></g><g><path d="m30.10974 25.36873c-.00108.01107-.00008.02187.00287.03226l-3.03619-.01411c.00968-.01602.01543-.03341.01526-.05151-.00017-.02019-.00656-.03949-.0177-.05733l3.07034.01431c-.02199.02242-.03466.04842-.03458.07638z" fill="#7db343"/></g><g><path d="m30.57585 25.25879c.05145.0297.08247.07102.08027.11537.0001.05198-.04394.09708-.11011.1252-.04702.01997-.10519.0314-.16696.03025-.00266-.00004-.00545-.00014-.00815-.0002-.07226-.0012-.13775-.01831-.18509-.04564-.03818-.02205-.06446-.05072-.07319-.08277-.00294-.0104-.00396-.02119-.00286-.03226-.00008-.02796.01259-.05396.03458-.07637.04817-.04902.14056-.08091.2425-.07907.07428-.00004.14068.01759.18901.04549z" fill="#7db343"/></g><g><path d="m32.65972 23.9359 1.0824 1.85807c-.05879.00447-.11546.01977-.16131.04642-.00337.00196-.00615.00395-.00935.006l-1.08817-1.87281c.06239.00003.12476-.01259.17643-.03768z" fill="#ee534f"/></g><g><path d="m33.9737 25.84034c.03497.02019.05814.04467.06989.07066.01669.03664.01003.07632-.0205.11151-.01342.01536-.0307.02969-.05299.04264-.10518.06112-.27743.061-.38316-.00004-.10706-.06181-.11077-.15729-.01547-.21871.0032-.00205.00598-.00405.00935-.00601.04585-.02665.10253-.04194.16132-.04642.08183-.00616.16718.00921.23156.04637z" fill="#ee534f"/></g><g><path d="m38.57129 26.04107c-.02643.03546-.02948.07482-.0089.11101l-4.53932-.12957c.03054-.03519.0372-.07487.02052-.11151z" fill="#ee534f"/></g><g><path d="m31.22017 24.65995c.06589-.00847.1229-.03047.16266-.06034l1.19876 2.20826c-.01789.00107-.03623.0031-.05414.00656-.04528.00867-.08443.02389-.11531.04326z" fill="#475e68"/></g><g><path d="m38.36108 26.59795c.11054.06382.10638.16646.00146.22743-.10518.06112-.28235.06386-.39289.00004-.02073-.01197-.03706-.0256-.04959-.04004-.02837-.03349-.03447-.07212-.01963-.10827.01147-.02819.03578-.05497.07282-.0765.10492-.06096.2821-.0637.38783-.00266z" fill="#475e68"/></g><g><path d="m37.90041 26.67712c-.01483.03615-.00874.07478.01964.10826l-5.03767.21774c.01099-.02726.01029-.05678-.00458-.08607-.00462-.00838-.01115-.01604-.01798-.02359z" fill="#475e68"/></g><g><path d="m32.81059 26.85423c.01963.01133.03596.02467.04924.03924.00684.00755.01335.01521.01799.02359.01486.02929.01556.0588.00457.08607-.02155.05298-.08746.09716-.18555.11375-.10164.01965-.20824.00312-.27902-.03775-.02919-.01685-.05218-.03793-.06625-.06226-.03302-.05688-.00593-.11747.06059-.15919.0309-.01937.07004-.03459.11532-.04326.01791-.00346.03623-.00549.05413-.00656.08479-.00566.16951.01204.22898.04637z" fill="#475e68"/></g><g><path d="m30.37089 25.5294c.06992.00136.12807-.01007.17511-.03005l.98057 2.08799c-.06575.00496-.12494.0227-.16851.04887z" fill="#7db343"/></g><g><path d="m36.414 27.47343c.05203.03004.08426.07205.08453.11783-.00433.08603-.12842.15814-.28173.15816-.07196-.00133-.13835-.01896-.18721-.04717-.02149-.01241-.03937-.02693-.05307-.04295-.01958-.02271-.03021-.04865-.02888-.0764.00052-.01171.00327-.02302.00805-.03407.02943-.06944.13656-.12133.26876-.12123.07428-.00001.14068.01762.18955.04583z" fill="#7db343"/></g><g><path d="m35.94761 27.58291c-.00132.02774.00931.05369.02888.0764l-4.1568.1411c.01001-.01584.01669-.03299.01844-.05088-.00017-.0205-.00715-.04014-.01928-.05826l4.13682-.14243c-.00478.01105-.00754.02237-.00806.03407z" fill="#7db343"/></g><g><path d="m31.75434 27.63391c.02795.01614.04989.03571.06452.05736.01215.01812.01913.03775.01929.05826-.00175.01789-.00844.03504-.01844.05087-.04049.06305-.1408.10718-.26329.10728-.07542-.00273-.14279-.02091-.19186-.04925-.05068-.02926-.08175-.0694-.08196-.11454-.00043-.04197.02885-.07968.07548-.10768.04357-.02616.10277-.0439.16851-.04886.0124-.00094.02485-.00156.03773-.00162.07305.00136.14038.01952.19002.04818z" fill="#7db343"/></g></g><g><path d="m27.00969 25.219c.02836.01637.05023.0365.06431.05904.01114.01784.01754.03714.0177.05734.00017.0181-.00559.03549-.01527.05151-.03811.06263-.14362.10615-.2618.10394-.07543-.00003-.14412-.01748-.19324-.04584-.05063-.02923-.08038-.07012-.07578-.11518-.00028-.04548.0322-.08644.08459-.11502.04598-.02507.10732-.04037.17524-.04048.00571 0 .01131-.00007.01698.0002.07429-.00003.13955.01695.18727.04449z" fill="#7db343"/></g></g><g><g><path d="m43.0106 23.46086-.57311.33305-16.93605-9.77803.57312-.33306z" fill="#cfd8dd"/></g><g><path d="m41.47225 24.35485-.57312.33306-16.93605-9.77803.57312-.33306z" fill="#cfd8dd"/></g><g><path d="m28.51163 18.6542-.57312.33306-5.51379-3.18339.57312-.33306z" fill="#cfd8dd"/></g><g><path d="m44.54307 22.57028-.57312.33307-16.93605-9.77804.57312-.33306z" fill="#cfd8dd"/></g></g><g><g><path d="m25.00215 34.33414-1.25112.72707-5.09094-2.93925 1.25112-.72707z" fill="#ee534f"/></g><g><path d="m19.03145 30.88696-1.25112.72707-5.09093-2.93926 1.25112-.72707z" fill="#5f6ac4"/></g><g><path d="m13.06493 27.44218-1.25112.72707-5.09094-2.93925 1.25112-.72707z" fill="#7db343"/></g></g></g><g><g><g><path d="m45.13311 24.9855c-.14796.08542-.26319.28504-.26271.45506.00046.16131.11644.22743.2644.14201l1.36052-.7855c.14108-.08145.25631-.28106.25586-.44238-.00048-.17002-.11647-.23614-.25755-.15469z" fill="#546f7a"/></g></g><g enable-background="new"><g fill="#b0b8bc"><path d="m44.13821 25.47105.15197.08837c-.04634-.02805-.10994-.02374-.18.01726l-1.36133.78466c-.14659.08516-.26192.28562-.26192.45488.00108.07973.0291.13578.07437.16273l-.15197-.08837c-.04528-.02695-.0733-.083-.07438-.16278 0-.1692.11533-.36967.26192-.45377l1.36133-.78576c.07007-.04095.13366-.04527.18001-.01722z"/><path d="m46.6744 24.18299c-.04635-.028-.11102-.02368-.18108.01726l-1.36026.78576c-.14766.08515-.263.28452-.263.45482.00108.07868.02803.13473.07437.16168l-.15197-.08837c-.04527-.02695-.07329-.083-.07437-.16168 0-.17031.11533-.36972.263-.45488l1.36025-.78576c.07006-.04095.13474-.04416.18108-.01721z"/></g><g><path d="m42.74928 26.36181c-.14727.08503-.2625.28464-.26202.45466.00046.16131.11644.22743.26372.1424l1.36052-.7855c.14108-.08145.25631-.28107.25586-.44238-.00048-.17002-.11647-.23614-.25755-.15469z" fill="#546f7a"/></g></g></g></g></svg>