<svg id="Layer_1" enable-background="new 0 0 50 50" height="512" viewBox="0 0 50 50" width="512" xmlns="http://www.w3.org/2000/svg"><g><g><g><g enable-background="new"><g><path d="m35.96465 44.26279c.01066 1.4695-1.03297 3.28011-2.31091 4.01434l-.28756.17056c-.6496.37283-1.23531.40455-1.65065.16016l-21.76745-12.65193c.426.24492 1.01171.2132 1.65065-.15964l.28756-.17056c1.27795-.73475 2.32157-2.54484 2.31091-4.01486z" fill="#dde4e7"/></g><g><path d="m30.84175 44.86161-21.76648-12.64929.18357-.10599 21.76647 12.6493z" fill="#cfd8dd"/></g><g><path d="m31.57709 48.83144-21.76746-12.65193c-.44726-.25531-.72415-.82003-.72415-1.60781l-.01066-2.3644 21.76745 12.6514.01066 2.3644c0 .78779.2769 1.3421.72416 1.60834z" fill="#dde4e7"/></g><g><path d="m40.73313 15.54499v2.01237l-21.76746-12.65141v-2.01289c0-.73475-.26624-1.2459-.68158-1.49082l21.76746 12.65141c.41534.23452.67092.75607.68158 1.49134z" fill="#cfd8dd"/></g><g><path d="m35.96829 44.26496-21.76647-12.64929-.07351-25.93116 21.76647 12.64929z" fill="#dde4e7"/></g><g><path d="m38.39553 13.99441c1.38706-.80082 2.51941-.15539 2.52393 1.43839l.00572 2.01596-.19037.10991-.00571-2.01596c-.00419-1.47637-1.04788-2.07151-2.33294-1.32958-1.27828.73802-2.32198 2.53831-2.31779 4.01468l.07352 25.93116c.00452 1.59378-1.11372 3.53052-2.50078 4.33134l-.28556.16487c-1.38706.80082-2.51258.15952-2.5171-1.43426l-.00669-2.35931.18357-.10598.00669 2.3593c.00416 1.46874 1.05468 2.06758 2.33294 1.32958l.28556-.16487c1.27828-.73801 2.32195-2.54594 2.31779-4.01468l-.07353-25.93116c-.00452-1.59378 1.1137-3.53857 2.50075-4.33939z" fill="#b0b8bc"/></g><g><path d="m40.18999 13.81965c-.45792-.26624-1.09686-.2236-1.79976.17004-1.38441.80963-2.50259 2.74764-2.49193 4.34505l-21.76745-12.6514c-.01066-1.59742 1.10752-3.53543 2.50259-4.33413.69224-.40507 1.33118-.44719 1.7891-.18096z" fill="#dde4e7"/></g></g></g><g><g><path d="m31.03113 26.792c1.3218.76314 2.39457 2.6211 2.39026 4.14008-.00432 1.52357-1.0841 2.13874-2.4059 1.3756-1.32592-.76552-2.39869-2.62347-2.39437-4.14704.00431-1.51898 1.08409-2.13416 2.41001-1.36864zm-.01518 5.35114c1.24405.71825 2.26223.14264 2.2663-1.29139.00405-1.42969-1.00755-3.17695-2.25159-3.8952-1.24407-.71826-2.26225-.1429-2.26631 1.28679-.00406 1.43402 1.00753 3.18153 2.2516 3.8998" fill="#475e68"/></g><g><path d="m30.35072 16.6586c1.32181.76315 2.39457 2.62595 2.39026 4.14493-.00431 1.51872-1.08409 2.13416-2.4059 1.37101-1.3259-.76551-2.39866-2.62372-2.39436-4.14244.00431-1.51899 1.08409-2.13902 2.41-1.3735zm-.01463 5.08352c1.11351.64289 2.0212.12144 2.02483-1.15799.00363-1.27966-.89814-2.8458-2.01166-3.48869-1.11717-.645-2.02486-.12356-2.02849 1.15611-.00363 1.27943.89814 2.84556 2.01532 3.49057" fill="#475e68"/></g><g><path d="m31.03112 26.79133c1.32181.76315 2.39457 2.62595 2.39026 4.14493-.00431 1.51872-1.08409 2.13416-2.4059 1.37101-1.3259-.76551-2.39866-2.62372-2.39436-4.14244.00431-1.51898 1.0841-2.13901 2.41-1.3735zm-.01462 5.08352c1.11351.64289 2.0212.12144 2.02483-1.15799.00363-1.27966-.89814-2.8458-2.01166-3.48868-1.11717-.645-2.02486-.12356-2.02849 1.15611-.00363 1.27942.89814 2.84556 2.01532 3.49056" fill="#475e68"/></g><g><path d="m30.29789 36.73951c1.32181.76315 2.39457 2.62595 2.39026 4.14493-.00431 1.51872-1.08409 2.13416-2.4059 1.37101-1.32591-.76551-2.39866-2.62372-2.39436-4.14244.00431-1.51898 1.0841-2.13901 2.41-1.3735zm-.01462 5.08352c1.11351.64289 2.0212.12144 2.02483-1.15799.00363-1.27966-.89814-2.8458-2.01166-3.48869-1.11718-.645-2.02486-.12356-2.02849 1.15611-.00363 1.27944.89814 2.84557 2.01532 3.49057" fill="#475e68"/></g><g><path d="m30.38807 15.05059c2.0911 1.23081 3.77977 4.16522 3.77295 6.57279-.00683 2.40756-1.70659 3.38566-3.79782 2.2018l.00301-1.06283c1.57969.88853 2.86479.14683 2.86995-1.67294.00517-1.82462-1.27153-4.04537-2.8511-4.97624z" fill="#5f6ac4"/></g><g><path d="m30.29788 36.74015c1.32181.76315 2.39458 2.6211 2.39028 4.14008-.00432 1.52357-1.0841 2.13901-2.40591 1.37586-1.3259-.76551-2.39867-2.62373-2.39435-4.14729.0043-1.51898 1.08408-2.13416 2.40998-1.36865zm-.01517 5.35114c1.24406.71826 2.25815.14053 2.26222-1.29375.00405-1.42944-1.00345-3.17459-2.24751-3.89285-1.24814-.72062-2.26224-.14264-2.2663 1.2868-.00406 1.43428 1.00345 3.17918 2.25159 3.8998" fill="#475e68"/></g><g><path d="m30.35982 35.14148c2.04605 1.21885 3.69805 4.07077 3.74049 6.4503l-.92486-.53397c-.04411-1.79174-1.28006-3.92764-2.81865-4.8535z" fill="#fed44c"/></g><g><path d="m31.08076 25.19082c2.0829 1.23093 3.77157 4.16049 3.76476 6.56346-.00687 2.4216-1.72712 3.40192-3.83465 2.18514-2.09526-1.2097-3.79623-4.14636-3.80577-6.55877l.92486.53397c.01122 1.82922 1.29611 4.04551 2.88393 4.96223 1.59599.92144 2.90156.18212 2.90678-1.65653.00515-1.81518-1.26744-4.03356-2.84291-4.96666z" fill="#ee534f"/></g></g><g><g><path d="m17.63369 28.63315-.01254 4.4227-1.124-.64894.01254-4.4227z" fill="#ca4743"/></g><g><path d="m19.99732 25.83976-.02431 8.57394-1.12398-.64893.02431-8.57395z" fill="#475e68"/></g><g><path d="m22.33269 31.34612-.01254 4.4227-1.12398-.64894.01254-4.42269z" fill="#fed44c"/></g><g><path d="m24.69632 28.55272-.02431 8.57395-1.12398-.64894.02431-8.57394z" fill="#5f6ac4"/></g></g></g><g><g><path d="m17.59241 10.26455-.00589 2.07945-1.80693-1.04323.0059-2.07945z" fill="#cfd8dd"/></g><g><path d="m22.01219 14.0554-.00183.64513-3.89728-2.2501.00182-.64513z" fill="#cfd8dd"/></g><g><path d="m26.89084 15.83075-.00183.64512-8.77299-5.06508.00183-.64513z" fill="#cfd8dd"/></g></g><g><g><path d="m17.59241 13.47775-.00589 2.07946-1.80693-1.04323.0059-2.07946z" fill="#cfd8dd"/></g><g><path d="m22.01219 17.26861-.00183.64512-3.89728-2.2501.00182-.64512z" fill="#cfd8dd"/></g><g><path d="m26.89084 19.04395-.00183.64513-8.77299-5.06509.00183-.64512z" fill="#cfd8dd"/></g></g><g><g><path d="m17.59241 16.69096-.00589 2.07945-1.80693-1.04323.0059-2.07945z" fill="#cfd8dd"/></g><g><path d="m22.01219 20.48181-.00183.64513-3.89728-2.2501.00182-.64513z" fill="#cfd8dd"/></g><g><path d="m26.89084 22.25716-.00183.64512-8.77299-5.06508.00183-.64513z" fill="#cfd8dd"/></g></g><g><g><path d="m17.59241 19.90416-.00589 2.07946-1.80693-1.04323.0059-2.07946z" fill="#cfd8dd"/></g><g><path d="m22.01219 23.69502-.00183.64512-3.89728-2.2501.00182-.64512z" fill="#cfd8dd"/></g><g><path d="m26.89084 25.47036-.00183.64513-8.77299-5.06509.00183-.64512z" fill="#cfd8dd"/></g></g></g></svg>