<svg id="Layer_1" viewBox="0 0 168 168" xmlns="http://www.w3.org/2000/svg" data-name="Layer 1"><path d="m116 52.0999h-4a2 2 0 0 0 0 4h4a2 2 0 0 0 0-4z" fill="#0bceb2"/><path d="m104 52.0999h-4a2 2 0 0 0 0 4h4a2 2 0 0 0 0-4z" fill="#0bceb2"/><path d="m52 72.0999h12a2 2 0 0 0 0-4h-12a2 2 0 0 0 0 4z" fill="#0bceb2"/><path d="m72 72.0999h5a2 2 0 0 0 0-4h-5a2 2 0 0 0 0 4z" fill="#2d4356"/><path d="m101 80.0999a2 2 0 0 0 0-4h-5a2 2 0 0 0 0 4z" fill="#0bceb2"/><path d="m86 108.0999a2 2 0 0 0 0 4h5a2 2 0 0 0 0-4z" fill="#0bceb2"/><path d="m116 68.0999h-31a2 2 0 0 0 0 4h31a2 2 0 0 0 0-4z" fill="#0bceb2"/><path d="m74 86.0999a2.0001 2.0001 0 0 0 2 2h31a2 2 0 0 0 0-4h-31a2.0001 2.0001 0 0 0 -2 2z" fill="#2d4356"/><path d="m52 80.0999h36a2 2 0 0 0 0-4h-36a2 2 0 0 0 0 4z" fill="#2d4356"/><path d="m52 88.0999h16a2 2 0 0 0 0-4h-16a2 2 0 0 0 0 4z" fill="#0bceb2"/><path d="m109 116.0999h-16a2 2 0 0 0 0 4h16a2 2 0 0 0 0-4z" fill="#2d4356"/><path d="m52 96.0999h36a2 2 0 0 0 0-4h-36a2 2 0 0 0 0 4z" fill="#0bceb2"/><path d="m52 104.0999h16a2 2 0 0 0 0-4h-16a2 2 0 1 0 0 4z" fill="#2d4356"/><path d="m52 112.0999h26a2 2 0 0 0 0-4h-26a2 2 0 1 0 0 4z" fill="#2d4356"/><path d="m85 116.0999h-33a2 2 0 1 0 0 4h33a2 2 0 0 0 0-4z" fill="#0bceb2"/><circle cx="2" cy="146.1" fill="#2d4356" r="2"/><path d="m11 144.0999h-3a2 2 0 0 0 0 4h3a2 2 0 0 0 0-4z" fill="#2d4356"/><path d="m118.15387 152.0999h-8.30774a2.00641 2.00641 0 0 0 0 4h8.30774a2.00641 2.00641 0 0 0 0-4z" fill="#0bceb2"/><path d="m58.15387 152.0999h-8.30774a2.00641 2.00641 0 0 0 0 4h8.30774a2.00641 2.00641 0 0 0 0-4z" fill="#0bceb2"/><path d="m104 152.0999h-40a2 2 0 0 0 0 4h15.94v2h-7.94a2 2 0 0 0 0 4h25a2 2 0 0 0 0-4h-8.94v-2h15.94a2 2 0 0 0 0-4z" fill="#0bceb2"/><g fill="#2d4356"><path d="m160 144.0999h-3a2 2 0 0 0 0 4h3a2 2 0 0 0 0-4z"/><circle cx="166" cy="146.1" r="2"/><path d="m150.72131 144.0999h-2.72925a3.99325 3.99325 0 0 0 -1.44635-3.08539l-12.12-10a3.98789 3.98789 0 0 0 -.48425-.33362 3.963 3.963 0 0 0 .05853-.581v-50a4 4 0 0 0 -4-4h-4v-26a6.00656 6.00656 0 0 0 -6-6h-71.99999a6.00656 6.00656 0 0 0 -6 6v26h-4a4 4 0 0 0 -4 4v50a3.963 3.963 0 0 0 .05853.581 3.992 3.992 0 0 0 -.48419.33362l-12.12 10a3.99344 3.99344 0 0 0 -1.44634 3.08539h-2.72931a2.017 2.017 0 1 0 0 4h133.44262a2.017 2.017 0 1 0 0-4zm-104.72131-94a2.002 2.002 0 0 1 2-2h72a2.002 2.002 0 0 1 2 2v10h-76zm-8 30h4v44a2 2 0 0 0 4 0v-60h76v60a2 2 0 0 0 4 0v-44h4v50h-92zm-14 64 12.12-10h95.76l12.12 10z"/><path d="m50 35.53124a3 3 0 1 0 -3-3 3.00344 3.00344 0 0 0 3 3zm0-4.5a1.5 1.5 0 1 1 -1.5 1.5 1.50148 1.50148 0 0 1 1.5-1.5z"/><path d="m142 58.0999a2 2 0 1 0 2 2 2.00229 2.00229 0 0 0 -2-2zm0 3a1 1 0 1 1 1-1 1.001 1.001 0 0 1 -1 1z"/><path d="m22 74.0999a2 2 0 1 0 2 2 2.00229 2.00229 0 0 0 -2-2zm0 3a1 1 0 1 1 1-1 1.001 1.001 0 0 1 -1 1z"/><path d="m128 8.53355a2 2 0 1 0 2 2 2.00229 2.00229 0 0 0 -2-2zm0 3a1 1 0 1 1 1-1 1.001 1.001 0 0 1 -1 1z"/><path d="m8 52.0999a2 2 0 1 0 -2 2 2.00229 2.00229 0 0 0 2-2zm-3 0a1 1 0 1 1 1 1 1.001 1.001 0 0 1 -1-1z"/></g><path d="m10.888 19.33 1.487-1.955-.939-.532-.955 2.19h-.031l-.97-2.175-.955.548 1.471 1.909v.031l-2.301-.297v1.064l2.316-.297v.031l-1.486 1.908.891.564 1.018-2.206h.031l.939 2.19.986-.563-1.502-1.878v-.031l2.362.282v-1.064l-2.362.313z" fill="#0bceb2"/><path d="m100.734 34.184-.856 1.099.514.325.586-1.271h.018l.54 1.262.568-.324-.865-1.082v-.018l1.36.162v-.612l-1.36.18v-.018l.856-1.126-.54-.307-.55 1.262h-.018l-.558-1.253-.551.316.848 1.099v.018l-1.325-.171v.612l1.333-.171z" fill="#0bceb2"/><path d="m163.029 22.841v-1.044l-2.317.307v-.031l1.458-1.918-.921-.522-.936 2.148h-.031l-.951-2.133-.937.538 1.443 1.872v.031l-2.256-.292v1.044l2.271-.292v.031l-1.458 1.872.875.553.998-2.164h.03l.921 2.148.967-.552-1.473-1.842v-.031z" fill="#0bceb2"/><path d="m80.351 8.005 1.258-1.655-.794-.45-.807 1.853h-.027l-.821-1.84-.808.464 1.245 1.615v.026l-1.947-.251v.9l1.96-.252v.027l-1.258 1.615.754.477.862-1.867h.026l.794 1.853.834-.476-1.271-1.589v-.027l1.999.239v-.9l-1.999.264z" fill="#0bceb2"/></svg>