<svg id="Capa_1" enable-background="new 0 0 512 512" height="512" viewBox="0 0 512 512" width="512" xmlns="http://www.w3.org/2000/svg"><g><path d="m457.621 459.682h-403.242c-9.387 0-16.997-7.61-16.997-16.997v-266.314c0-9.387 7.61-16.997 16.997-16.997h403.242c9.387 0 16.997 7.61 16.997 16.997v266.314c0 9.387-7.61 16.997-16.997 16.997z" fill="#596c76"/><path d="m474.623 176.367v266.314c0 9.393-7.617 16.999-16.999 16.999h-20.53c9.382 0 16.999-7.606 16.999-16.999v-266.314c0-9.382-7.617-16.999-16.999-16.999h20.53c9.382.001 16.999 7.617 16.999 16.999z" fill="#465a61"/><path d="m429.912 431.766h-347.824c-6.3 0-11.408-5.107-11.408-11.408v-221.661c0-6.3 5.107-11.408 11.408-11.408h347.824c6.3 0 11.408 5.107 11.408 11.408v221.661c-.001 6.3-5.108 11.408-11.408 11.408z" fill="#dff6fd"/><path d="m441.323 198.694v221.661c0 6.303-5.112 11.415-11.415 11.415h-20.828c6.303 0 11.415-5.112 11.415-11.415v-221.661c0-6.292-5.112-11.404-11.415-11.404h20.828c6.303-.001 11.415 5.111 11.415 11.404z" fill="#c8effe"/><path d="m256 79.018c-66.605 0-120.6 53.994-120.601 120.599-.001 72.822 57.242 131.796 114.759 169.511 3.547 2.326 8.138 2.326 11.684 0 57.517-37.715 114.76-96.688 114.759-169.511-.001-66.605-53.996-120.599-120.601-120.599z" fill="#fe646f"/><path d="m376.598 199.621c0 72.82-57.239 131.796-114.754 169.507-3.551 2.325-8.137 2.325-11.689 0-3.967-2.602-7.945-5.311-11.891-8.116 1.951-.032 3.903-.608 5.599-1.728 57.516-37.722 114.754-96.688 114.754-169.518 0-41.956-21.436-78.92-53.943-100.506 42.361 18.696 71.924 61.068 71.924 110.361z" fill="#fd4755"/><circle cx="256" cy="198.06" fill="#f5f8f9" r="75.095"/><path d="m331.091 198.064c0 41.465-33.615 75.091-75.091 75.091-20.018 0-38.212-7.839-51.671-20.615 10.195 5.173 21.724 8.084 33.936 8.084 41.476 0 75.091-33.616 75.091-75.091 0-21.447-8.99-40.793-23.409-54.487 24.411 12.403 41.144 37.753 41.144 67.018z" fill="#e8edf2"/><g><g><g><path d="m209.349 43.229c-1.223 0-2.463-.292-3.618-.908-3.751-2.002-5.17-6.666-3.167-10.417 10.502-19.679 30.998-31.904 53.489-31.904 22.317 0 42.767 12.214 53.368 31.874 2.018 3.743.62 8.412-3.123 10.43-3.743 2.019-8.412.62-10.43-3.123-7.91-14.671-23.166-23.785-39.815-23.785-16.795 0-32.085 9.103-39.906 23.756-1.385 2.598-4.047 4.077-6.798 4.077z" fill="#b6c4cf"/></g><g><path d="m242.661 57.464c-1.223 0-2.463-.292-3.618-.908-3.751-2.002-5.17-6.666-3.167-10.417 3.96-7.42 11.676-12.029 20.139-12.029 8.404 0 16.103 4.598 20.094 12 2.018 3.743.62 8.412-3.124 10.43s-8.411.62-10.429-3.123c-1.3-2.411-3.806-3.909-6.541-3.909-2.766 0-5.278 1.487-6.556 3.881-1.385 2.597-4.047 4.075-6.798 4.075z" fill="#b6c4cf"/></g></g></g><path d="m488.866 511.996h-465.732c-12.165 0-22.026-9.862-22.026-22.026v-18.547c0-7.618 6.176-13.794 13.794-13.794h482.197c7.618 0 13.794 6.176 13.794 13.794v18.547c-.001 12.165-9.862 22.026-22.027 22.026z" fill="#b6c4cf"/><path d="m510.889 471.423v18.549c0 12.164-9.854 22.029-22.018 22.029h-20.53c12.164 0 22.018-9.864 22.018-22.029v-18.549c0-7.617-6.169-13.796-13.786-13.796h20.53c7.616 0 13.786 6.179 13.786 13.796z" fill="#9facba"/><path d="m288.703 484.081h-65.407c-10.297 0-18.645-8.348-18.645-18.645v-7.807h102.696v7.807c.001 10.297-8.346 18.645-18.644 18.645z" fill="#8d9ca8"/><path d="m307.345 457.627v7.812c0 10.296-8.345 18.641-18.641 18.641h-20.53c10.296 0 18.641-8.345 18.641-18.641v-7.812z" fill="#7a8c98"/></g></svg>