<svg id="Layer_1" enable-background="new 0 0 100 100" height="100" viewBox="0 0 100 100" width="100" xmlns="http://www.w3.org/2000/svg"><g><circle cx="50.266" cy="72.356" fill="none" r="1.846"/><path d="m6.773 64.547h86.987v-49.025h-86.987zm29.849-2.297h-12.539v-15.944h12.539zm0-18.711h-12.539v-15.943h12.539zm14.715 18.711h-12.539v-15.944h12.539zm0-18.711h-12.539v-15.943h12.539zm14.756 18.711h-12.538v-15.944h12.538zm0-18.711h-12.538v-15.943h12.538zm25.173 18.565h-22.996v-34.508h22.996zm-63.09-43.879h63.09v7.195h-63.09zm-18.909 0h17.002v7.195h-17.002zm0 9.371h12.538v15.943h-12.538zm0 18.71h12.538v15.944h-12.538z" fill="none"/><path d="m94.934 11.706h-43.881-1.495-43.881c-1.563 0-2.91 1.189-2.91 2.752v54.093.19 5.011.315c0 1.563 1.347 2.877 2.91 2.877h35.146c-.041.896-.321 4.753-2.155 6.623-1.445 1.472-3.453 2.854-2.669 3.563.19.434 1.091.688 3.14.688h11.208.707 11.207c2.334 0 3.15-.383 3.158-.953h-.08v-.189h-.082c-.104-.769-1.662-1.908-2.84-3.106-1.834-1.87-2.113-5.726-2.154-6.623h34.674c1.564 0 2.83-1.313 2.83-2.877v-.315-5.011-.19-54.095c-.001-1.564-1.27-2.753-2.833-2.753zm-44.668 62.496c-1.021 0-1.847-.825-1.847-1.846s.826-1.847 1.847-1.847c1.02 0 1.847.826 1.847 1.847s-.828 1.846-1.847 1.846zm43.494-9.655h-86.987v-49.025h86.987z" fill="#1a1a1a"/><path d="m9.267 18.225h17.002v7.195h-17.002z" fill="#8dc63f"/><path d="m28.176 18.225h63.09v7.195h-63.09z" fill="#999"/><path d="m9.267 27.596h12.538v15.943h-12.538z" fill="#666"/><path d="m24.083 27.596h12.539v15.943h-12.539z" fill="#666"/><path d="m38.798 27.596h12.539v15.943h-12.539z" fill="#666"/><path d="m53.555 27.596h12.538v15.943h-12.538z" fill="#666"/><g fill="#999"><path d="m9.267 46.306h12.538v15.944h-12.538z"/><path d="m24.083 46.306h12.539v15.944h-12.539z"/><path d="m38.798 46.306h12.539v15.944h-12.539z"/><path d="m53.555 46.306h12.538v15.944h-12.538z"/></g><path d="m68.27 27.596h22.996v34.508h-22.996z" fill="#333"/></g></svg>