<svg id="Layer_1" enable-background="new 0 0 74 74" height="512" viewBox="0 0 74 74" width="512" xmlns="http://www.w3.org/2000/svg" xmlns:xlink="http://www.w3.org/1999/xlink"><linearGradient id="lg1"><stop offset="0" stop-color="#947bff"/><stop offset="1" stop-color="#63f"/></linearGradient><linearGradient id="SVGID_1_" gradientUnits="userSpaceOnUse" x1="48.2" x2="57.382" xlink:href="#lg1" y1="18.904" y2="35.251"/><linearGradient id="lg2"><stop offset="0" stop-color="#eff2f8"/><stop offset="1" stop-color="#d8dfea"/></linearGradient><linearGradient id="SVGID_2_" gradientUnits="userSpaceOnUse" x1="41.982" x2="59.186" xlink:href="#lg2" y1="7.283" y2="39"/><linearGradient id="lg3"><stop offset="0" stop-color="#555a60"/><stop offset="1" stop-color="#3f444c"/></linearGradient><linearGradient id="SVGID_3_" gradientUnits="userSpaceOnUse" x1="26.625" x2="31.982" xlink:href="#lg3" y1="55.074" y2="60.62"/><linearGradient id="SVGID_4_" gradientUnits="userSpaceOnUse" x1="30.181" x2="30.252" xlink:href="#lg3" y1="61.935" y2="63.9"/><linearGradient id="SVGID_5_" gradientUnits="userSpaceOnUse" x1="30.187" x2="30.038" xlink:href="#lg2" y1="50.88" y2="57.21"/><linearGradient id="lg4"><stop offset="0" stop-color="#696c70"/><stop offset="1" stop-color="#3f444c"/></linearGradient><linearGradient id="SVGID_6_" gradientUnits="userSpaceOnUse" x1="25.307" x2="35.269" xlink:href="#lg4" y1="27.791" y2="47.8"/><linearGradient id="lg5"><stop offset="0" stop-color="#fff"/><stop offset="1" stop-color="#eff2f8"/></linearGradient><linearGradient id="SVGID_7_" gradientUnits="userSpaceOnUse" x1="26.173" x2="34.825" xlink:href="#lg5" y1="29.565" y2="46.869"/><linearGradient id="SVGID_8_" gradientUnits="userSpaceOnUse" x1="34.907" x2="16.435" xlink:href="#lg5" y1="52.456" y2="36.564"/><linearGradient id="SVGID_9_" gradientUnits="userSpaceOnUse" x1="29.44" x2="30.993" xlink:href="#lg3" y1="52.895" y2="55.566"/><linearGradient id="SVGID_10_" gradientUnits="userSpaceOnUse" x1="5.35" x2="21.067" xlink:href="#lg4" y1="41.526" y2="68.417"/><linearGradient id="SVGID_11_" gradientUnits="userSpaceOnUse" x1="5.734" x2="20.673" xlink:href="#lg2" y1="42.184" y2="67.744"/><linearGradient id="SVGID_12_" gradientUnits="userSpaceOnUse" x1="10.495" x2="14.118" xlink:href="#lg4" y1="42.103" y2="42.817"/><linearGradient id="SVGID_13_" gradientUnits="userSpaceOnUse" x1="14.647" x2="15.791" xlink:href="#lg4" y1="42.347" y2="42.572"/><linearGradient id="SVGID_14_" gradientUnits="userSpaceOnUse" x1="9.912" x2="16.506" y1="50.292" y2="59.599"><stop offset="0" stop-color="#64e88c"/><stop offset="1" stop-color="#3c6"/></linearGradient><linearGradient id="SVGID_15_" gradientUnits="userSpaceOnUse" x1="10.799" x2="13.948" xlink:href="#lg5" y1="52.211" y2="56.524"/><linearGradient id="SVGID_16_" gradientUnits="userSpaceOnUse" x1="10.159" x2="13.308" xlink:href="#lg5" y1="52.679" y2="56.991"/><linearGradient id="SVGID_17_" gradientUnits="userSpaceOnUse" x1="11.207" x2="14.356" xlink:href="#lg5" y1="51.914" y2="56.226"/><linearGradient id="SVGID_18_" gradientUnits="userSpaceOnUse" x1="11.611" x2="14.76" xlink:href="#lg5" y1="51.618" y2="55.931"/><linearGradient id="SVGID_19_" gradientUnits="userSpaceOnUse" x1="25.879" x2="34.799" y1="31.531" y2="44.12"><stop offset="0" stop-color="#ff7171"/><stop offset="1" stop-color="#f33"/></linearGradient><linearGradient id="SVGID_20_" gradientUnits="userSpaceOnUse" x1="27.08" x2="31.339" xlink:href="#lg5" y1="34.127" y2="39.96"/><linearGradient id="SVGID_21_" gradientUnits="userSpaceOnUse" x1="26.213" x2="30.473" xlink:href="#lg5" y1="34.759" y2="40.592"/><linearGradient id="SVGID_22_" gradientUnits="userSpaceOnUse" x1="27.631" x2="31.89" xlink:href="#lg5" y1="33.724" y2="39.557"/><linearGradient id="SVGID_23_" gradientUnits="userSpaceOnUse" x1="28.178" x2="32.438" xlink:href="#lg5" y1="33.325" y2="39.158"/><linearGradient id="SVGID_24_" gradientUnits="userSpaceOnUse" x1="60.283" x2="66.566" y1="53.022" y2="67.602"><stop offset="0" stop-color="#ffdc85"/><stop offset="1" stop-color="#fc3"/></linearGradient><linearGradient id="SVGID_25_" gradientUnits="userSpaceOnUse" x1="63.337" x2="63.716" y1="52.067" y2="57.437"><stop offset="0" stop-color="#ffa04a"/><stop offset="1" stop-color="#f60"/></linearGradient><linearGradient id="SVGID_26_" gradientUnits="userSpaceOnUse" x1="53.03" x2="58.865" xlink:href="#lg1" y1="47.168" y2="52.86"/><linearGradient id="SVGID_27_" gradientUnits="userSpaceOnUse" x1="53.044" x2="58.879" xlink:href="#lg1" y1="47.154" y2="52.846"/><linearGradient id="SVGID_28_" gradientUnits="userSpaceOnUse" x1="53.063" x2="58.899" xlink:href="#lg1" y1="47.133" y2="52.825"/><g><g><g><path d="m68.62 23.32c0 9.9-8.04 17.93-17.94 17.93-9.91 0-17.94-8.03-17.94-17.93 0-9.91 8.03-17.94 17.94-17.94 9.9 0 17.94 8.03 17.94 17.94z" fill="url(#SVGID_1_)"/><path d="m50.68 5c-10.1 0-18.32 8.22-18.32 18.32s8.22 18.32 18.32 18.32 18.32-8.22 18.32-18.32-8.22-18.32-18.32-18.32zm17.55 17.94h-8.38c-.04-4.32-.84-8.28-2.14-11.37 1.27-.59 2.46-1.35 3.55-2.25 4.14 3.14 6.85 8.06 6.97 13.62zm-17.17-17.16c2.22.21 4.23 2.23 5.68 5.37-1.79.74-3.71 1.15-5.68 1.2zm-.76 6.57c-1.96-.05-3.89-.46-5.68-1.2 1.45-3.14 3.45-5.16 5.68-5.37zm0 .76v9.83h-8.03c.04-4.23.81-8.1 2.05-11.09 1.88.78 3.91 1.21 5.98 1.26zm0 10.59v9.82c-2.07.05-4.1.48-5.98 1.26-1.24-2.99-2-6.85-2.05-11.08zm0 10.59v6.57c-2.23-.21-4.23-2.23-5.68-5.37 1.79-.74 3.71-1.15 5.68-1.2zm.76 0c1.96.05 3.89.46 5.68 1.2-1.45 3.14-3.45 5.16-5.68 5.37zm0-.76v-9.83h8.03c-.04 4.23-.81 8.1-2.05 11.09-1.88-.78-3.91-1.22-5.98-1.26zm0-10.59v-9.83c2.07-.05 4.09-.48 5.98-1.26 1.24 2.99 2 6.86 2.05 11.09zm9.56-14.08c-.99.8-2.07 1.48-3.21 2.01-1.01-2.17-2.27-3.84-3.7-4.84 2.53.44 4.87 1.42 6.91 2.83zm-16.66 2.01c-1.15-.53-2.22-1.21-3.22-2.01 2.04-1.4 4.38-2.39 6.91-2.83-1.42 1-2.69 2.68-3.69 4.84zm-3.86-1.55c1.09.9 2.28 1.66 3.55 2.25-1.3 3.09-2.09 7.05-2.14 11.37h-8.38c.12-5.55 2.83-10.48 6.97-13.62zm-6.97 14.38h8.38c.04 4.32.84 8.27 2.14 11.37-1.27.59-2.46 1.35-3.55 2.25-4.14-3.14-6.85-8.07-6.97-13.62zm7.61 14.08c.99-.8 2.07-1.48 3.22-2.01 1.01 2.17 2.27 3.85 3.7 4.84-2.54-.44-4.89-1.43-6.92-2.83zm16.67-2.01c1.14.53 2.22 1.21 3.21 2.01-2.04 1.4-4.38 2.38-6.91 2.83 1.42-1 2.69-2.68 3.7-4.84zm3.85 1.55c-1.09-.9-2.28-1.66-3.55-2.25 1.3-3.09 2.09-7.05 2.14-11.37h8.38c-.12 5.56-2.83 10.48-6.97 13.62z" fill="url(#SVGID_2_)"/></g></g><g><path d="m24.48 54.67h11.47v8.25h-11.47z" fill="url(#SVGID_3_)"/><path d="m41.22 62.92c0 .54-.44.98-.98.98h-20.04c-.54 0-.98-.44-.98-.98 0-.54.44-.98.98-.98h20.04c.54-.01.98.43.98.98z" fill="url(#SVGID_4_)"/><path d="m51.58 44.62v9.96c0 1.56-1.27 2.83-2.83 2.83h-37.07c-1.56 0-2.83-1.27-2.83-2.83v-9.96c0-.78.63-1.42 1.42-1.42h39.9c.78.01 1.41.64 1.41 1.42z" fill="url(#SVGID_5_)"/><path d="m51.58 27.44v20.41c0 1.56-1.27 2.83-2.83 2.83h-37.07c-1.56 0-2.83-1.27-2.83-2.83v-20.41c0-1.56 1.27-2.83 2.83-2.83h37.07c1.56 0 2.83 1.27 2.83 2.83z" fill="url(#SVGID_6_)"/><path d="m11.69 48.57c-.39 0-.71-.32-.71-.71v-20.41c0-.39.32-.71.71-.71h37.06c.39 0 .71.32.71.71v20.41c0 .39-.32.71-.71.71z" fill="url(#SVGID_7_)"/><path d="m49.17 48.41c-.11.11-.26.15-.43.15h-37.06c-.39 0-.71-.31-.71-.71v-20.4c0-.23.11-.43.28-.56z" fill="url(#SVGID_8_)"/><path d="m31.76 54.23c0 .84-.69 1.55-1.55 1.55-.84 0-1.53-.71-1.53-1.55 0-.86.69-1.55 1.53-1.55.86.01 1.55.7 1.55 1.55z" fill="url(#SVGID_9_)"/></g><g><g><path d="m21.24 41.86v25.91c0 .68-.55 1.23-1.23 1.23h-13.78c-.68 0-1.23-.55-1.23-1.23v-25.91c0-.68.55-1.23 1.23-1.23h13.78c.68 0 1.23.55 1.23 1.23z" fill="url(#SVGID_10_)"/><path d="m6.23 68.21c-.24 0-.44-.2-.44-.44v-25.91c0-.24.2-.44.44-.44h13.78c.24 0 .44.2.44.44v25.91c0 .24-.2.44-.44.44z" fill="url(#SVGID_11_)"/><g><path d="m14.18 42.46c0 .14-.12.25-.26.25h-3.24c-.14 0-.26-.11-.26-.25s.12-.26.26-.26h3.24c.15.01.26.12.26.26z" fill="url(#SVGID_12_)"/><path d="m15.81 42.46c0 .14-.11.25-.25.25h-.68c-.14 0-.25-.11-.25-.25s.11-.26.25-.26h.68c.14.01.25.12.25.26z" fill="url(#SVGID_13_)"/></g></g><g><path d="m18.42 54.82c0 2.93-2.38 5.3-5.3 5.3-2.93 0-5.3-2.37-5.3-5.3s2.37-5.3 5.3-5.3 5.3 2.37 5.3 5.3z" fill="url(#SVGID_14_)"/><g><path d="m14.63 55.22c.1.1.1.25 0 .34-.09.09-.25.09-.34 0-.64-.64-1.72-.64-2.35 0-.1.09-.25.09-.34 0-.09-.1-.09-.25 0-.34.83-.83 2.21-.83 3.03 0z" fill="url(#SVGID_15_)"/><path d="m13.61 56.24c.27.27.26.72 0 .99-.27.27-.71.27-.99 0-.27-.27-.27-.71 0-.99.28-.27.72-.27.99 0z" fill="url(#SVGID_16_)"/><path d="m15.49 54.37c.09.09.09.25 0 .34-.1.09-.25.09-.34 0-1.1-1.1-2.96-1.1-4.06 0-.09.1-.25.1-.34 0-.1-.09-.1-.25 0-.34 1.29-1.29 3.46-1.29 4.74 0z" fill="url(#SVGID_17_)"/><path d="m16.34 53.85c-.1.1-.25.1-.34 0-1.56-1.56-4.2-1.56-5.76 0-.09.1-.25.1-.34 0-.09-.09-.09-.25 0-.34 1.75-1.75 4.7-1.74 6.45 0 .08.1.08.25-.01.34z" fill="url(#SVGID_18_)"/></g></g></g><g><path d="m37.39 37.65c0 3.96-3.21 7.17-7.17 7.17s-7.17-3.21-7.17-7.17 3.21-7.17 7.17-7.17 7.17 3.21 7.17 7.17z" fill="url(#SVGID_19_)"/><g><path d="m32.27 38.19c.13.13.13.33 0 .46-.12.12-.33.12-.46 0-.87-.87-2.32-.87-3.18 0-.13.12-.33.12-.46 0-.12-.13-.12-.33 0-.46 1.11-1.11 2.98-1.11 4.1 0z" fill="url(#SVGID_20_)"/><path d="m30.89 39.58c.37.37.36.97 0 1.33-.37.37-.96.37-1.33 0-.36-.36-.37-.96 0-1.33.36-.37.96-.37 1.33 0z" fill="url(#SVGID_21_)"/><path d="m33.42 37.04c.12.12.12.33 0 .46-.13.12-.34.12-.46 0-1.49-1.49-4-1.49-5.49-.01-.12.13-.33.13-.46 0-.13-.12-.13-.33 0-.46 1.74-1.73 4.68-1.73 6.41.01z" fill="url(#SVGID_22_)"/><path d="m34.58 36.34c-.13.13-.33.13-.46 0-2.12-2.11-5.68-2.11-7.8 0-.12.13-.33.13-.46 0-.12-.12-.12-.33 0-.46 2.36-2.36 6.36-2.36 8.72.01.12.12.12.33 0 .45z" fill="url(#SVGID_23_)"/></g></g><g><path d="m58.06 57.58v5.96c0 3.02 2.45 5.47 5.48 5.47 3.02 0 5.47-2.45 5.47-5.47v-5.96c0-3.02-2.45-5.47-5.47-5.47-1.52 0-2.88.61-3.87 1.61-1 .98-1.61 2.35-1.61 3.86z" fill="url(#SVGID_24_)"/><path d="m63.38 52.12v5.29h.29v-5.29c-.05-.01-.09-.01-.14-.01s-.1 0-.15.01z" fill="url(#SVGID_25_)"/><path d="m62.99 54.26v2.04c0 .3.24.54.54.54.29 0 .53-.24.53-.54v-2.04c0-.3-.24-.54-.53-.54-.3 0-.54.24-.54.54z" fill="#3f444c"/></g><g><g><path d="m60.1 51.85c0 .21-.17.37-.37.37-.83 0-1.51.68-1.51 1.5 0 .21-.17.38-.37.38-.21 0-.38-.17-.38-.38 0-1.24 1.01-2.25 2.26-2.25.2 0 .37.17.37.38z" fill="url(#SVGID_26_)"/><path d="m60.1 49.35c0 .21-.16.38-.37.38-2.21 0-4.01 1.79-4.01 3.99 0 .21-.16.38-.37.38s-.38-.17-.38-.38c0-2.61 2.14-4.74 4.76-4.74.21 0 .37.17.37.37z" fill="url(#SVGID_27_)"/><path d="m53.23 53.72c0 .21-.17.37-.38.37-.2 0-.37-.16-.37-.37 0-3.99 3.25-7.24 7.25-7.24.21 0 .38.17.38.38 0 .2-.17.37-.38.37-3.58 0-6.5 2.91-6.5 6.49z" fill="url(#SVGID_28_)"/></g></g></g></svg>