<svg id="Layer_1" viewBox="0 0 168 168" xmlns="http://www.w3.org/2000/svg" data-name="Layer 1"><path d="m75.51465 93.69147 8.48535-8.48535a1.99979 1.99979 0 0 0 -2.82812-2.82812l-8.48535 8.48535a1.99979 1.99979 0 1 0 2.82813 2.82813z" fill="#2d4356"/><path d="m92.48535 93.69147-8.48535 8.48535a1.99979 1.99979 0 1 0 2.82813 2.82813l8.48535-8.48535a1.99979 1.99979 0 0 0 -2.82812-2.82812z" fill="#2d4356"/><path d="m94.25293 83.43854a1.99927 1.99927 0 0 0 -2.82812 0l-17.67774 17.67773a1.99979 1.99979 0 1 0 2.82813 2.82813l17.67773-17.67774a1.99927 1.99927 0 0 0 0-2.82812z" fill="#0bceb2"/><path d="m49.80471 51.44147a3 3 0 1 0 -3-3 3.00344 3.00344 0 0 0 3 3zm0-4.5a1.5 1.5 0 1 1 -1.5 1.5 1.50148 1.50148 0 0 1 1.5-1.5z" fill="#2d4356"/><path d="m114.5 19.69147a2 2 0 1 0 2 2 2.00229 2.00229 0 0 0 -2-2zm0 3a1 1 0 1 1 1-1 1.001 1.001 0 0 1 -1 1z" fill="#2d4356"/><path d="m88.5 43.94147a2 2 0 1 0 2 2 2.00229 2.00229 0 0 0 -2-2zm0 3a1 1 0 1 1 1-1 1.001 1.001 0 0 1 -1 1z" fill="#2d4356"/><path d="m153.05471 77.44147a2 2 0 1 0 2 2 2.00229 2.00229 0 0 0 -2-2zm0 3a1 1 0 1 1 1-1 1.001 1.001 0 0 1 -1 1z" fill="#2d4356"/><path d="m17.30471 32.69147a2 2 0 1 0 -2 2 2.00229 2.00229 0 0 0 2-2zm-3 0a1 1 0 1 1 1 1 1.001 1.001 0 0 1 -1-1z" fill="#2d4356"/><path d="m10.888 73.703 1.487-1.956-.939-.532-.955 2.19h-.031l-.97-2.174-.955.547 1.471 1.909v.032l-2.301-.298v1.064l2.316-.297v.031l-1.486 1.909.891.563 1.018-2.206h.031l.939 2.191.986-.564-1.502-1.877v-.032l2.362.282v-1.064l-2.362.313z" fill="#0bceb2"/><path d="m71.489 19.039-.856 1.099.513.324.586-1.271h.018l.541 1.262.568-.324-.865-1.082v-.018l1.36.162v-.612l-1.36.18v-.018l.856-1.126-.541-.306-.549 1.261h-.019l-.558-1.253-.55.316.847 1.099v.018l-1.325-.171v.612l1.334-.17z" fill="#0bceb2"/><path d="m160.055 29.155v-1.044l-2.317.307v-.03l1.458-1.919-.921-.521-.936 2.148h-.031l-.951-2.133-.937.537 1.443 1.873v.03l-2.257-.292v1.044l2.272-.291v.03l-1.458 1.872.875.553.998-2.164h.03l.921 2.149.967-.553-1.473-1.842v-.03z" fill="#0bceb2"/><path d="m129.371 53.693 1.258-1.654-.795-.45-.807 1.852h-.027l-.82-1.84-.809.464 1.245 1.615v.027l-1.946-.252v.9l1.959-.251v.026l-1.258 1.615.755.477.861-1.867h.026l.794 1.853.835-.476-1.271-1.589v-.026l1.998.238v-.9l-1.998.265z" fill="#0bceb2"/><g fill="#2d4356"><circle cx="2" cy="134.691" r="2"/><path d="m11 132.69147h-3a2 2 0 0 0 0 4h3a2 2 0 0 0 0-4z"/><path d="m160 132.69147h-3a2 2 0 0 0 0 4h3a2 2 0 0 0 0-4z"/><circle cx="166" cy="134.691" r="2"/><path d="m160 132.69147h-3a2 2 0 0 0 0 4h3a2 2 0 0 0 0-4z"/><circle cx="166" cy="134.691" r="2"/></g><path d="m58.15387 140.69147h-8.30774a2.00641 2.00641 0 0 0 0 4h8.30774a2.00641 2.00641 0 0 0 0-4z" fill="#0bceb2"/><path d="m118.15387 140.69147h-8.30774a2.00641 2.00641 0 0 0 0 4h8.30774a2.00641 2.00641 0 0 0 0-4z" fill="#0bceb2"/><path d="m104 140.69147h-40a2 2 0 0 0 0 4h15.94v2h-7.94a2 2 0 0 0 0 4h25a2 2 0 0 0 0-4h-8.94v-2h15.94a2 2 0 0 0 0-4z" fill="#0bceb2"/><path d="m150.72131 132.69147h-2.72931a3.99325 3.99325 0 0 0 -1.44635-3.08539l-12.12-10a3.992 3.992 0 0 0 -.48419-.33362 3.963 3.963 0 0 0 .05853-.581v-50a4 4 0 0 0 -4-4h-91.99999a4 4 0 0 0 -4 4v50a3.963 3.963 0 0 0 .05853.581 3.992 3.992 0 0 0 -.48419.33362l-12.12 10a3.99344 3.99344 0 0 0 -1.44635 3.08539h-2.7293a2.017 2.017 0 1 0 0 4h133.44262a2.017 2.017 0 1 0 0-4zm-112.72131-64h92v50h-92zm-14 64 12.12-10h95.76l12.12 10z" fill="#2d4356"/></svg>