<svg id="Layer_1" viewBox="0 0 168 168" xmlns="http://www.w3.org/2000/svg" data-name="Layer 1"><path d="m116 52.63736h-4a2 2 0 0 0 0 4h4a2 2 0 0 0 0-4z" fill="#0bceb2"/><path d="m104 52.63736h-4a2 2 0 0 0 0 4h4a2 2 0 0 0 0-4z" fill="#0bceb2"/><path d="m116 70.63736h-38a2 2 0 0 0 0 4h38a2 2 0 0 0 0-4z" fill="#0bceb2"/><path d="m78 82.63736h15a2 2 0 0 0 0-4h-15a2 2 0 0 0 0 4z" fill="#2d4356"/><path d="m106 78.63736h-5a2 2 0 0 0 0 4h5a2 2 0 0 0 0-4z" fill="#0bceb2"/><path d="m102 92.63736a2.0001 2.0001 0 0 0 2 2h5a2 2 0 0 0 0-4h-5a2.0001 2.0001 0 0 0 -2 2z" fill="#2d4356"/><path d="m52 84.63736a2.0001 2.0001 0 0 0 2-2v-10h12a2 2 0 0 0 0-4h-14a2.0001 2.0001 0 0 0 -2 2v12a2.0001 2.0001 0 0 0 2 2z" fill="#0bceb2"/><path d="m78 94.63736h18a2 2 0 0 0 0-4h-18a2 2 0 0 0 0 4z" fill="#0bceb2"/><path d="m78 102.63736h37a2 2 0 0 0 0-4h-37a2 2 0 0 0 0 4z" fill="#2d4356"/><path d="m52 104.63736a2.0001 2.0001 0 0 0 2-2v-10h12a2 2 0 0 0 0-4h-14a2.0001 2.0001 0 0 0 -2 2v12a2.0001 2.0001 0 0 0 2 2z" fill="#0bceb2"/><path d="m116 110.63736h-38a2 2 0 0 0 0 4h38a2 2 0 0 0 0-4z" fill="#0bceb2"/><path d="m106 118.63736h-28a2 2 0 0 0 0 4h28a2 2 0 0 0 0-4z" fill="#2d4356"/><path d="m68 110.63736a2.0001 2.0001 0 0 0 -2-2h-14a2.0001 2.0001 0 0 0 -2 2v12a2 2 0 0 0 4 0v-10h12a2.0001 2.0001 0 0 0 2-2z" fill="#0bceb2"/><path d="m68.58594 72.2233-6.58594 6.58594-2.58594-2.58594a1.99979 1.99979 0 0 0 -2.82812 2.82813l4 4a1.99927 1.99927 0 0 0 2.82813 0l8-8a1.99979 1.99979 0 0 0 -2.82812-2.82812z" fill="#2d4356"/><path d="m68.58594 92.2233-6.58594 6.58594-2.58594-2.58594a1.99979 1.99979 0 0 0 -2.82812 2.82813l4 4a1.99927 1.99927 0 0 0 2.82813 0l8-8a1.99979 1.99979 0 0 0 -2.82812-2.82812z" fill="#2d4356"/><path d="m68.58594 112.2233-6.58594 6.58594-2.58594-2.58594a1.99979 1.99979 0 0 0 -2.82812 2.82813l4 4a1.99927 1.99927 0 0 0 2.82813 0l8-8a1.99979 1.99979 0 0 0 -2.82812-2.82812z" fill="#2d4356"/><circle cx="2" cy="146.637" fill="#2d4356" r="2"/><path d="m11 144.63736h-3a2 2 0 0 0 0 4h3a2 2 0 0 0 0-4z" fill="#2d4356"/><path d="m118.15387 152.63736h-8.30774a2.00641 2.00641 0 0 0 0 4h8.30774a2.00641 2.00641 0 0 0 0-4z" fill="#0bceb2"/><path d="m58.15387 152.63736h-8.30774a2.00641 2.00641 0 0 0 0 4h8.30774a2.00641 2.00641 0 0 0 0-4z" fill="#0bceb2"/><path d="m104 152.63736h-40a2 2 0 0 0 0 4h15.94v2h-7.94a2 2 0 0 0 0 4h25a2 2 0 0 0 0-4h-8.94v-2h15.94a2 2 0 0 0 0-4z" fill="#0bceb2"/><g fill="#2d4356"><path d="m160 144.63736h-3a2 2 0 0 0 0 4h3a2 2 0 0 0 0-4z"/><circle cx="166" cy="146.637" r="2"/><path d="m150.72131 144.63736h-2.72925a3.99325 3.99325 0 0 0 -1.44635-3.08539l-12.12-10a3.98788 3.98788 0 0 0 -.48425-.33362 3.963 3.963 0 0 0 .05853-.581v-50a4 4 0 0 0 -4-4h-4v-26a6.00656 6.00656 0 0 0 -6-6h-71.99999a6.00656 6.00656 0 0 0 -6 6v26h-4a4 4 0 0 0 -4 4v50a3.963 3.963 0 0 0 .05853.581 3.992 3.992 0 0 0 -.48419.33362l-12.12 10a3.99344 3.99344 0 0 0 -1.44635 3.08539h-2.7293a2.017 2.017 0 1 0 0 4h133.44262a2.017 2.017 0 1 0 0-4zm-104.72131-94a2.00261 2.00261 0 0 1 2-2h72a2.00261 2.00261 0 0 1 2 2v10h-76zm-8 30h4v44a2 2 0 0 0 4 0v-60h76v60a2 2 0 0 0 4 0v-44h4v50h-92zm-14 64 12.12-10h95.76l12.12 10z"/><path d="m4.69529 27.63736a3 3 0 1 0 -3-3 3.00344 3.00344 0 0 0 3 3zm0-4.5a1.5 1.5 0 1 1 -1.5 1.5 1.50148 1.50148 0 0 1 1.5-1.5z"/><path d="m160.30471 51.63736a2 2 0 1 0 2 2 2.00229 2.00229 0 0 0 -2-2zm0 3a1 1 0 1 1 1-1 1.001 1.001 0 0 1 -1 1z"/><path d="m120.74641 13.63736a2 2 0 1 0 2 2 2.00229 2.00229 0 0 0 -2-2zm0 3a1 1 0 1 1 1-1 1.001 1.001 0 0 1 -1 1z"/><path d="m136.5 48.63736a2 2 0 1 0 2 2 2.00229 2.00229 0 0 0 -2-2zm0 3a1 1 0 1 1 1-1 1.001 1.001 0 0 1 -1 1z"/><path d="m66 7.36264a2 2 0 1 0 -2 2 2.00229 2.00229 0 0 0 2-2zm-3 0a1 1 0 1 1 1 1 1.001 1.001 0 0 1 -1-1z"/></g><path d="m23.5 61.649 1.487-1.956-.939-.532-.954 2.19h-.032l-.97-2.174-.955.547 1.471 1.909v.032l-2.301-.298v1.064l2.317-.297v.031l-1.487 1.909.892.563 1.017-2.206h.031l.939 2.19.986-.563-1.502-1.877v-.032l2.362.282v-1.064l-2.362.313z" fill="#0bceb2"/><path d="m52.081 34.704-.856 1.099.514.325.586-1.271h.017l.541 1.261.568-.324-.865-1.081v-.018l1.36.162v-.613l-1.36.18v-.018l.856-1.126-.54-.306-.55 1.261h-.018l-.559-1.252-.55.315.847 1.1v.018l-1.325-.172v.613l1.334-.171z" fill="#0bceb2"/><path d="m159.029 18.159v-1.044l-2.317.307v-.031l1.458-1.918-.921-.521-.936 2.148h-.031l-.951-2.133-.937.537 1.443 1.872v.031l-2.256-.292v1.044l2.271-.291v.03l-1.458 1.872.875.553.998-2.164h.03l.921 2.148.967-.552-1.473-1.842v-.03z" fill="#0bceb2"/><path d="m99.351 31.742 1.258-1.655-.794-.45-.807 1.853h-.027l-.821-1.84-.808.464 1.245 1.615v.027l-1.947-.252v.9l1.96-.251v.026l-1.258 1.615.754.477.862-1.867h.026l.794 1.853.834-.476-1.271-1.589v-.026l1.999.238v-.9l-1.999.264z" fill="#0bceb2"/></svg>