<svg id="Layer_1" viewBox="0 0 168 168" xmlns="http://www.w3.org/2000/svg" data-name="Layer 1"><path d="m118 101.28841a4 4 0 0 0 -4-4h-24a4 4 0 0 0 -4 4v6a4 4 0 0 0 4 4h24a4 4 0 0 0 4-4zm-4 6h-24v-6h24z" fill="#2d4356"/><path d="m78 115.28841h-24a4 4 0 0 0 -4 4v6a4 4 0 0 0 4 4h24a4 4 0 0 0 4-4v-6a4 4 0 0 0 -4-4zm0 10h-24v-6h24z" fill="#0bceb2"/><path d="m114 115.28841h-24a4 4 0 0 0 -4 4v6a4 4 0 0 0 4 4h24a4 4 0 0 0 4-4v-6a4 4 0 0 0 -4-4zm0 10h-24v-6h24z" fill="#0bceb2"/><path d="m82 101.28841a3.99206 3.99206 0 0 0 -.07172-.71173 12.015 12.015 0 0 1 -11.92828 10.71173h8a4 4 0 0 0 4-4z" fill="#2d4356"/><path d="m118 75.28841a4 4 0 0 0 -4-4h-32v4h32v14h-32v4h32a4 4 0 0 0 4-4z" fill="#0bceb2"/><path d="m44 129.28841a2.0001 2.0001 0 0 0 2-2v-16h-4v16a2.0001 2.0001 0 0 0 2 2z" fill="#2d4356"/><path d="m28 107.28841h42a8 8 0 0 0 8-8v-68a8 8 0 0 0 -8-8h-42a8 8 0 0 0 -8 8v68a8 8 0 0 0 8 8zm0-80h42a4.0045 4.0045 0 0 1 4 4h-50a4.00454 4.00454 0 0 1 4-4zm-4 8h50v60h-50zm50 64a4.00454 4.00454 0 0 1 -4 4h-42a4.00458 4.00458 0 0 1 -4-4z" fill="#2d4356"/><path d="m66 39.28841h-34a4 4 0 0 0 -4 4v12a4 4 0 0 0 4 4h34a4 4 0 0 0 4-4v-12a4 4 0 0 0 -4-4zm0 16h-34v-12h34z" fill="#0bceb2"/><path d="m66 63.28841h-34a4 4 0 0 0 -4 4v4a4 4 0 0 0 4 4h34a4 4 0 0 0 4-4v-4a4 4 0 0 0 -4-4zm0 8h-34v-4h34z" fill="#2d4356"/><path d="m66 79.28841h-34a4 4 0 0 0 -4 4v4a4 4 0 0 0 4 4h34a4 4 0 0 0 4-4v-4a4 4 0 0 0 -4-4zm0 8h-34v-4h34z" fill="#0bceb2"/><circle cx="2" cy="149.288" fill="#2d4356" r="2"/><path d="m11 147.28841h-3a2 2 0 0 0 0 4h3a2 2 0 0 0 0-4z" fill="#2d4356"/><path d="m118.15387 155.28841h-8.30774a2.00641 2.00641 0 0 0 0 4h8.30774a2.00641 2.00641 0 0 0 0-4z" fill="#0bceb2"/><path d="m58.15387 155.28841h-8.30774a2.00641 2.00641 0 0 0 0 4h8.30774a2.00641 2.00641 0 0 0 0-4z" fill="#0bceb2"/><path d="m104 155.28841h-40a2 2 0 0 0 0 4h15.94v2h-7.94a2 2 0 0 0 0 4h25a2 2 0 0 0 0-4h-8.94v-2h15.94a2 2 0 0 0 0-4z" fill="#0bceb2"/><g fill="#2d4356"><path d="m160 147.28841h-3a2 2 0 0 0 0 4h3a2 2 0 0 0 0-4z"/><circle cx="166" cy="149.288" r="2"/><path d="m150.72131 147.28841h-2.72925a3.99325 3.99325 0 0 0 -1.44635-3.08539l-12.12-10a3.98789 3.98789 0 0 0 -.48425-.33362 3.963 3.963 0 0 0 .05853-.581v-50a4 4 0 0 0 -4-4h-4v-26a6.00656 6.00656 0 0 0 -6-6h-37.99999v4h38a2.00229 2.00229 0 0 1 2 2v10h-40v4h40v60a2 2 0 0 0 4 0v-44h4v50h-92v-22h-4v22a3.963 3.963 0 0 0 .05853.581 3.992 3.992 0 0 0 -.48419.33362l-12.12 10a3.99344 3.99344 0 0 0 -1.44635 3.08539h-2.7293a2.017 2.017 0 1 0 0 4h133.44262a2.017 2.017 0 1 0 0-4zm-126.72131 0 12.12-10h95.76l12.12 10z"/><path d="m103 34.28841a3 3 0 1 0 -3-3 3.00344 3.00344 0 0 0 3 3zm0-4.5a1.5 1.5 0 1 1 -1.5 1.5 1.50148 1.50148 0 0 1 1.5-1.5z"/><path d="m158.30471 68.28841a2 2 0 1 0 2 2 2.00229 2.00229 0 0 0 -2-2zm0 3a1 1 0 1 1 1-1 1.001 1.001 0 0 1 -1 1z"/><path d="m128 6.07681a2 2 0 1 0 2 2 2.00229 2.00229 0 0 0 -2-2zm0 3a1 1 0 1 1 1-1 1.001 1.001 0 0 1 -1 1z"/><path d="m160.30471 29.28841a2 2 0 1 0 2 2 2.00229 2.00229 0 0 0 -2-2zm0 3a1 1 0 1 1 1-1 1.001 1.001 0 0 1 -1 1z"/><path d="m42 14.28841a2 2 0 1 0 -2 2 2.00229 2.00229 0 0 0 2-2zm-3 0a1 1 0 1 1 1 1 1.001 1.001 0 0 1 -1-1z"/></g><path d="m8.015 42.038 1.486-1.956-.939-.532-.954 2.19h-.032l-.969-2.174-.956.547 1.472 1.909v.032l-2.301-.298v1.064l2.316-.297v.031l-1.487 1.909.892.563 1.018-2.206h.031l.939 2.191.986-.564-1.502-1.877v-.032l2.362.282v-1.064l-2.362.313z" fill="#0bceb2"/><path d="m5.734 4.442-.856 1.099.514.324.586-1.27h.018l.54 1.261.568-.324-.865-1.082v-.018l1.36.163v-.613l-1.36.18v-.018l.856-1.126-.54-.306-.55 1.261h-.018l-.558-1.253-.551.316.848 1.099v.018l-1.325-.171v.613l1.333-.171z" fill="#0bceb2"/><path d="m138.817 48.598v-1.043l-2.317.307v-.031l1.458-1.918-.921-.522-.936 2.148h-.031l-.951-2.133-.937.537 1.443 1.873v.031l-2.257-.292v1.043l2.272-.291v.031l-1.458 1.872.875.553.998-2.165h.03l.921 2.149.967-.552-1.473-1.842v-.031z" fill="#0bceb2"/><path d="m86.351 5.653 1.258-1.654-.794-.451-.807 1.853h-.027l-.821-1.84-.808.464 1.245 1.615v.027l-1.947-.252v.9l1.96-.251v.026l-1.258 1.615.754.477.862-1.867h.026l.794 1.853.834-.476-1.271-1.589v-.026l1.999.238v-.9l-1.999.265z" fill="#0bceb2"/></svg>