<svg id="Layer_1" enable-background="new 0 0 50 50" height="512" viewBox="0 0 50 50" width="512" xmlns="http://www.w3.org/2000/svg"><g><g><g><g enable-background="new"><g><path d="m24.4347 29.90471-3.41475 1.98117c-1.98127 1.16008-4.75168.99884-7.77987-.7566-6.04025-3.49517-10.93695-11.96804-10.92082-18.9104.01612-3.44719 1.24029-5.87902 3.20534-7.02258l3.39872-1.98117c-1.96514 1.14356-3.18932 3.57539-3.18932 7.02258-.03215 6.94236 4.88057 15.43096 10.9047 18.90961 3.04431 1.75623 5.79861 1.91746 7.796.75739z" fill="#768c95"/></g><g opacity=".2"><path d="m26.589 23.41966c-.02082 7.18629-5.13146 10.10644-11.38935 6.49776-6.2579-3.61937-11.33721-12.41139-11.31633-19.60837.02081-7.19648 5.13145-10.11663 11.38935-6.49726 6.25789 3.60868 11.33721 12.41139 11.31633 19.60787z" fill="#53c7fd"/></g><g><path d="m28.76758 23.54278c0 3.80111-1.35306 6.49091-3.52751 7.74694l-3.39872 1.98196c2.15843-1.25681 3.51149-3.94661 3.52751-7.74851.01612-7.66672-5.39592-17.0409-12.04826-20.89078-3.36648-1.9332-6.41069-2.11016-8.60136-.83761l3.39872-1.98118c2.2067-1.27254 5.25101-1.09558 8.60126.83761 6.66846 3.84988 12.0805 13.22407 12.04836 20.89157z" fill="#768c95"/></g><g><path d="m13.31296 4.63196c6.664 3.84746 12.07627 13.22183 12.05453 20.89086-.02171 7.65751-5.46936 10.7619-12.13336 6.91443-6.67431-3.85341-12.07627-13.22182-12.05457-20.87934.02175-7.66903 5.45909-10.77937 12.1334-6.92595zm-.07511 26.49358c6.0367 3.48529 10.96843.67511 10.9881-6.26179.0197-6.94841-4.88004-15.42323-10.91674-18.90852s-10.96843-.68667-10.98813 6.26174c-.01967 6.93689 4.88007 15.42328 10.91677 18.90857" fill="#475e68"/></g></g></g><g><g><g enable-background="new"><g><path d="m28.82532 27.91254c-.01287-.00957-.02572-.01915-.03857-.02574-.00322-.00314-.00322-.00314-.00644-.00314-.0225-.0193-.05144-.03531-.08035-.04175l-.00322-.0033c-.14464-.05462-.33427-.04818-.5657.02574-.12856.04175-.26998.10609-.41784.19288-.89034.5143-1.78709 1.63597-1.99924 2.507-.04498.18331-.05464.34072-.03535.46926.00322.0226.00643.0419.01287.06121.0032.02558.01285.05132.02248.07376v.0033c.01287.03531.02572.06435.04822.08993.00322.00973.00965.0193.01929.02903.00965.01601.0225.03217.03857.04175.00322.00643.00965.01287.01607.0193l-.82836-.72274c-.16071-.13811-.21535-.40805-.12214-.78424.21213-.87103 1.10568-1.996 1.99922-2.5103.50463-.28925.89999-.32456 1.11212-.14141z" fill="#dde4e7"/></g><g><path d="m28.94746 28.70008c-.21215.87103-1.1089 1.996-2.00245 2.5103-.51748.29898-.92247.32785-1.12497.1221-.01607-.01287-.02892-.02574-.03857-.04175-.00963-.00973-.01607-.0193-.01929-.02903-.01928-.02558-.03535-.05775-.04822-.08993 0 0 0 0 0-.0033-.00963-.02244-.01929-.04818-.02248-.07376-.00644-.0193-.00965-.03861-.01287-.06121-.01929-.12854-.00963-.28595.03535-.46926.21215-.87103 1.1089-1.9927 1.99924-2.507.14786-.08679.28928-.15114.41784-.19288.22822-.07392.42106-.08035.5657-.02574l.00322.0033c.02892.00957.05785.02574.08035.04175.00322 0 .00322 0 .00644.00314.18962.12868.25713.40836.16071.81327z" fill="#b0b8bc"/></g></g></g><g><g enable-background="new"><g><path d="m34.69285 33.52002c-.01086-.00808-.0217-.01616-.03254-.02172-.00272-.00265-.00272-.00265-.00543-.00265-.01899-.01629-.0434-.0298-.0678-.03523l-.00272-.00278c-.12205-.04609-.28206-.04065-.47735.02172-.10848.03522-.22781.08952-.35258.16276-.75129.43398-1.50799 1.38047-1.687 2.11547-.03796.15468-.0461.28751-.02983.39597.00271.01907.00543.03536.01086.05165.0027.02159.01085.0433.01897.06224v.00278c.01086.0298.0217.05429.04069.07588.00272.00821.00814.01629.01627.0245.00814.01351.01899.02715.03254.03522.00272.00543.00814.01086.01356.01629l-5.93972-5.1614c-.13561-.11654-.18171-.34432-.10307-.66176.179-.735.933-1.68427 1.68698-2.11825.42582-.24407.75943-.27387.93843-.11932z" fill="#dde4e7"/></g><g><path d="m34.7949 34.18457c-.17902.735-.93571 1.68427-1.68972 2.11825-.43666.25228-.7784.27665-.94927.10303-.01356-.01086-.0244-.02172-.03254-.03522-.00813-.00821-.01356-.01629-.01627-.0245-.01627-.02159-.02983-.04873-.04069-.07588 0 0 0 0 0-.00278-.00813-.01894-.01627-.04066-.01897-.06224-.00543-.01629-.00814-.03258-.01086-.05165-.01627-.10846-.00813-.24129.02983-.39597.17901-.735.93571-1.68149 1.687-2.11547.12477-.07323.2441-.12753.35258-.16276.19257-.06237.3553-.06781.47735-.02172l.00272.00278c.0244.00808.04882.02172.0678.03523.00272 0 .00272 0 .00543.00265.16002.10858.21698.34457.13561.68625z" fill="#35484f"/></g></g></g></g><g><g enable-background="new"><g><path d="m48.5972 44.21591c-.01733-.01289-.03463-.02579-.05194-.03466-.00433-.00423-.00433-.00423-.00866-.00423-.0303-.026-.06927-.04755-.10822-.05622l-.00433-.00444c-.19479-.07355-.45016-.06488-.76184.03466-.17313.05622-.36359.14288-.56271.25976-1.19903.69262-2.4067 2.20319-2.69241 3.37622-.06058.24687-.07358.45886-.04761.63196.00433.03043.00866.05643.01733.08243.00431.03445.01731.06911.03028.09934v.00444c.01733.04756.03464.08666.06494.12111.00433.0131.013.026.02597.0391.013.02156.0303.04333.05194.05622.00433.00867.013.01733.02164.026l-15.76568-13.77266c-.21643-.186-.29001-.54953-.16449-1.05616.28568-1.17303 1.48904-2.68804 2.69238-3.38066.67959-.38953 1.21203-.43709 1.49771-.19043z" fill="#ee534f"/></g><g><path d="m48.76169 45.2765c-.2857 1.17303-1.49337 2.68804-2.69674 3.38066-.6969.40264-1.24231.44153-1.51501.16444-.02164-.01733-.03894-.03466-.05194-.05622-.01297-.0131-.02164-.026-.02597-.0391-.02597-.03445-.04761-.07778-.06494-.12111 0 0 0 0 0-.00444-.01297-.03022-.02597-.06489-.03028-.09934-.00867-.026-.013-.05199-.01733-.08243-.02597-.1731-.01297-.38509.04761-.63196.2857-1.17303 1.49337-2.68361 2.69241-3.37622.19912-.11688.38958-.20354.56271-.25976.30734-.09955.56704-.10822.76184-.03466l.00433.00444c.03894.01289.07791.03466.10822.05622.00433 0 .00433 0 .00866.00423.25537.17331.34628.54995.21643 1.09525z" fill="#ca4743"/></g></g></g></g><g><g enable-background="new"><g><path d="m9.43464 15.07099 1.32256-.76858-.01696 5.97918-1.32256.76859z" fill="#6a9839"/></g><g><path d="m7.91507 14.19367 1.32256-.76859 1.51957.87733-1.32256.76858z" fill="#97c269"/></g><g><path d="m9.43464 15.07099-.01696 5.97919-1.51956-.87733.01695-5.97918z" fill="#7db343"/></g></g><g enable-background="new"><g><path d="m12.6301 11.29451 1.32256-.76859-.03286 11.59139-1.32256.76858z" fill="#3f535c"/></g><g><path d="m11.11055 10.4172 1.32256-.76859 1.51955.87731-1.32256.76859z" fill="#768c95"/></g><g><path d="m12.6301 11.29451-.03286 11.59138-1.51955-.87731.03286-11.59138z" fill="#475e68"/></g></g><g enable-background="new"><g><path d="m15.78736 18.73874 1.32256-.76859-.01695 5.97919-1.32256.76858z" fill="#f2bc36"/></g><g><path d="m14.26781 17.86143 1.32256-.76859 1.51955.87731-1.32256.76859z" fill="#fed44c"/></g><g><path d="m15.78736 18.73874-.01695 5.97918-1.51955-.87731.01695-5.97918z" fill="#f9c73a"/></g></g><g enable-background="new"><g><path d="m18.98283 14.96226 1.32256-.76859-.03286 11.59139-1.32256.76858z" fill="#ca4743"/></g><g><path d="m17.46328 14.08495 1.32256-.76859 1.51955.87731-1.32256.76859z" fill="#f17572"/></g><g><path d="m18.98283 14.96226-.03286 11.59138-1.51955-.87731.03286-11.59138z" fill="#ee534f"/></g></g></g></g></svg>