<svg height="512" viewBox="0 0 64 64" width="512" xmlns="http://www.w3.org/2000/svg"><g id="Flat_copy_3"><g><g><path d="m.495 10.505h63v49h-63z" fill="#fff"/></g><g><path d="m62.995 11.005v48h-62v-48zm1-1h-64v50h64z" fill="#efefef"/></g></g><g><g><path d="m63.995 10.005v-3c0-1.65-1.35-3-3-3h-58c-1.65 0-3 1.35-3 3v3z" fill="#3b3b3b"/></g><g><g><circle cx="4.016" cy="7.005" fill="#999" r=".854"/></g><g><circle cx="6.578" cy="7.005" fill="#999" r=".854"/></g><g><circle cx="9.141" cy="7.005" fill="#999" r=".854"/></g></g><g><path d="m55.495 8.505h-37c-.825 0-1.5-.675-1.5-1.5 0-.825.675-1.5 1.5-1.5h37c.825 0 1.5.675 1.5 1.5 0 .825-.675 1.5-1.5 1.5z" fill="#fff"/></g></g><g><path d="m6.995 30.005h10v9h-10z" fill="#db2b42"/></g><g><path d="m22.995 31.005h34v1h-34z" fill="#999"/></g><g><path d="m22.995 34.005h34v1h-34z" fill="#999"/></g><g><path d="m22.995 37.005h34v1h-34z" fill="#999"/></g><g><path d="m46.995 16.005h10v9h-10z" fill="#db2b42" transform="matrix(-1 0 0 -1 103.99 41.01)"/></g><g><path d="m6.995 17.005h34v1h-34z" fill="#999" transform="matrix(-1 0 0 -1 47.99 35.01)"/></g><g><path d="m6.995 20.005h34v1h-34z" fill="#999" transform="matrix(-1 0 0 -1 47.99 41.01)"/></g><g><path d="m6.995 23.005h34v1h-34z" fill="#999" transform="matrix(-1 0 0 -1 47.99 47.01)"/></g><g><path d="m46.995 44.005h10v9h-10z" fill="#db2b42" transform="matrix(-1 0 0 -1 103.99 97.01)"/></g><g><path d="m6.995 45.005h34v1h-34z" fill="#999" transform="matrix(-1 0 0 -1 47.99 91.01)"/></g><g><path d="m6.995 48.005h34v1h-34z" fill="#999" transform="matrix(-1 0 0 -1 47.99 97.01)"/></g><g><path d="m6.995 51.005h34v1h-34z" fill="#999" transform="matrix(-1 0 0 -1 47.99 103.01)"/></g></g></svg>