<svg id="Layer_1" viewBox="0 0 168 168" xmlns="http://www.w3.org/2000/svg" data-name="Layer 1"><path d="m99.99963 50a2 2 0 0 0 0 4h4a2 2 0 0 0 0-4z" fill="#0bceb2"/><path d="m91.99969 89a2 2 0 0 0 4 0 22.99988 22.99988 0 1 0 -45.99976 0 2 2 0 1 0 3.99994 0 18.99991 18.99991 0 1 1 37.99982 0z" fill="#0bceb2"/><path d="m72.99982 104a15 15 0 0 0 0-30 2 2 0 0 0 0 4 11 11 0 1 1 -10.99994 11 2 2 0 0 0 -4 0 15.01666 15.01666 0 0 0 14.99994 15z" fill="#2d4356"/><path d="m72.99982 86a3.00328 3.00328 0 0 1 3 3 2 2 0 1 0 3.99994 0 7 7 0 1 0 -6.99994 7 2 2 0 0 0 0-4 3 3 0 0 1 0-6z" fill="#0bceb2"/><path d="m111.99957 50a2 2 0 0 0 0 4h2.207a24.78262 24.78262 0 0 1 3.63892-1.23151 1.999 1.999 0 0 0 -1.84592-2.76849z" fill="#0bceb2"/><path d="m103.16553 90.79565a3.97742 3.97742 0 0 0 -.66577 2.20435v27h-3.99994v-18a4 4 0 0 0 -4-4h-4a4 4 0 0 0 -3.99994 4v18h-5v-8a4 4 0 0 0 -4-4h-3.99994a4 4 0 0 0 -4 4v8h-.50012a2 2 0 0 0 0 4h44.99976a1.99616 1.99616 0 0 0 .49323-3.9314c.00043-.02344.0069-.0451.0069-.0686v-19.89679a24.95829 24.95829 0 0 1 -3.99994-2.07825v21.97504h-4v-25.1958a25.16335 25.16335 0 0 1 -3.33424-4.00855zm-25.66565 29.20435h-3.99994v-8h3.99994zm16.99994 0h-4v-18h4z" fill="#0bceb2"/><path d="m147.13855 52.35547a2.00049 2.00049 0 0 0 -2.78314.50586l-16.44965 23.76025-5.32757-6.84958a2.07145 2.07145 0 0 0 -3.15723 0l-6.39941 8.228h-5.97131c-.01941-.3327-.05048-.66241-.05048-1a16.97446 16.97446 0 0 1 25.88983-14.47021l2.25635-3.29529a20.98595 20.98595 0 1 0 -13.14636 38.66418v16.10132a2 2 0 1 0 3.99994 0v-16.10132a20.96591 20.96591 0 0 0 17.21548-29.33789l-2.80719 4.05493a16.99266 16.99266 0 0 1 -32.65799 9.38428h6.24976a2.00073 2.00073 0 0 0 1.57861-.772l5.42139-6.97021 5.42132 6.97021a2 2 0 0 0 1.57861.772l.05566-.001a2.0003 2.0003 0 0 0 1.58887-.86035l18.00037-26a2.00116 2.00116 0 0 0 -.50586-2.78318z" fill="#2d4356"/><circle cx="2" cy="144" fill="#2d4356" r="2"/><path d="m11 142h-3a2 2 0 0 0 0 4h3a2 2 0 0 0 0-4z" fill="#2d4356"/><path d="m118.15387 150h-8.30774a2.00641 2.00641 0 0 0 0 4h8.30774a2.00641 2.00641 0 0 0 0-4z" fill="#0bceb2"/><path d="m58.15387 150h-8.30774a2.00641 2.00641 0 0 0 0 4h8.30774a2.00641 2.00641 0 0 0 0-4z" fill="#0bceb2"/><path d="m104 150h-40a2 2 0 0 0 0 4h15.94v2h-7.94a2 2 0 0 0 0 4h25a2 2 0 0 0 0-4h-8.94v-2h15.94a2 2 0 0 0 0-4z" fill="#0bceb2"/><g fill="#2d4356"><path d="m160 142h-3a2 2 0 0 0 0 4h3a2 2 0 0 0 0-4z"/><circle cx="166" cy="144" r="2"/><path d="m150.72131 142h-2.72974a3.99311 3.99311 0 0 0 -1.44641-3.08539l-12.11993-10a3.98655 3.98655 0 0 0 -.48413-.33362 3.963 3.963 0 0 0 .05853-.581v-28.09551a24.80392 24.80392 0 0 1 -4 1.36267v26.73285h-91.99951v-50h3.99982v44a2 2 0 0 0 4 0v-60h58.01343a25.21368 25.21368 0 0 1 3.76544-4h-61.77887v-10a2.002 2.002 0 0 1 2-2h71.99963a2.002 2.002 0 0 1 2 2v4.08722c.66058-.05261 1.32617-.08722 2.00006-.08722s1.33936.03455 1.99988.08716v-4.08716a6.00655 6.00655 0 0 0 -5.99994-6h-71.99963a6.00656 6.00656 0 0 0 -6 6v26h-3.99982a4 4 0 0 0 -4 4v50a3.963 3.963 0 0 0 .05853.581 3.992 3.992 0 0 0 -.48419.33362l-12.11993 10a3.99325 3.99325 0 0 0 -1.44635 3.08538h-2.72949a2.017 2.017 0 1 0 0 4h133.44262a2.017 2.017 0 1 0 0-4zm-126.72113 0 12.11993-10h95.75952l12.11993 10z"/><path d="m95.99969 35.33661a3 3 0 1 0 -3-3 3.00344 3.00344 0 0 0 3 3zm0-4.5a1.5 1.5 0 1 1 -1.5 1.5 1.50148 1.50148 0 0 1 1.5-1.5z"/><path d="m158.5 52a2 2 0 1 0 2 2 2.00229 2.00229 0 0 0 -2-2zm0 3a1 1 0 1 1 1-1 1.001 1.001 0 0 1 -1 1z"/><path d="m72.99979 6.5a2 2 0 1 0 2 2 2.00229 2.00229 0 0 0 -2-2zm0 3a1 1 0 1 1 1-1 1.001 1.001 0 0 1 -1 1z"/><path d="m117.99957 6.5a2 2 0 1 0 2 2 2.00229 2.00229 0 0 0 -2-2zm0 3a1 1 0 1 1 1-1 1.001 1.001 0 0 1 -1 1z"/><path d="m22.66667 68a2 2 0 1 0 -2 2 2.00229 2.00229 0 0 0 2-2zm-3 0a1 1 0 1 1 1 1 1.001 1.001 0 0 1 -1-1z"/></g><path d="m13.415 19.809 1.487-1.955-.939-.532-.954 2.19h-.032l-.969-2.175-.956.548 1.472 1.909v.031l-2.301-.297v1.063l2.316-.296v.031l-1.487 1.908.892.564 1.018-2.207h.03l.939 2.191.986-.563-1.502-1.878v-.031l2.362.281v-1.063l-2.362.312z" fill="#0bceb2"/><path d="m52.081 34.067-.856 1.099.514.324.586-1.27h.017l.541 1.261.568-.324-.865-1.082v-.018l1.36.163v-.613l-1.36.18v-.018l.856-1.126-.54-.306-.55 1.261h-.018l-.559-1.253-.55.316.847 1.099v.018l-1.325-.171v.613l1.334-.171z" fill="#0bceb2"/><path d="m138.65 42.521v-1.043l-2.317.307v-.031l1.459-1.918-.921-.522-.936 2.148h-.032l-.95-2.133-.938.538 1.444 1.872v.031l-2.257-.292v1.043l2.272-.291v.031l-1.459 1.872.875.553.998-2.165h.03l.921 2.149.968-.552-1.474-1.842v-.031z" fill="#0bceb2"/><path d="m162.351 24.903 1.258-1.655-.794-.45-.807 1.853h-.027l-.821-1.84-.808.463 1.245 1.616v.026l-1.947-.252v.9l1.96-.251v.027l-1.258 1.614.754.477.862-1.867h.026l.794 1.854.834-.477-1.271-1.588v-.027l1.999.238v-.9l-1.999.265z" fill="#0bceb2"/></svg>