<svg id="Layer_1" viewBox="0 0 168 168" xmlns="http://www.w3.org/2000/svg" data-name="Layer 1"><path d="m116 53.52647h-4a2 2 0 0 0 0 4h4a2 2 0 0 0 0-4z" fill="#0bceb2"/><path d="m104 53.52647h-4a2 2 0 0 0 0 4h4a2 2 0 0 0 0-4z" fill="#0bceb2"/><circle cx="2" cy="147.526" fill="#2d4356" r="2"/><path d="m11 145.52647h-3a2 2 0 0 0 0 4h3a2 2 0 0 0 0-4z" fill="#2d4356"/><path d="m118.15387 153.52647h-8.30774a2.00641 2.00641 0 0 0 0 4h8.30774a2.00641 2.00641 0 0 0 0-4z" fill="#0bceb2"/><path d="m58.15387 153.52647h-8.30774a2.00641 2.00641 0 0 0 0 4h8.30774a2.00641 2.00641 0 0 0 0-4z" fill="#0bceb2"/><path d="m104 153.52647h-40a2 2 0 0 0 0 4h15.94v2h-7.94a2 2 0 0 0 0 4h25a2 2 0 0 0 0-4h-8.94v-2h15.94a2 2 0 0 0 0-4z" fill="#0bceb2"/><g fill="#2d4356"><path d="m160 145.52647h-3a2 2 0 0 0 0 4h3a2 2 0 0 0 0-4z"/><circle cx="166" cy="147.526" r="2"/><path d="m150.72131 145.52647h-2.72931a3.99325 3.99325 0 0 0 -1.44635-3.08539l-12.12-10a3.992 3.992 0 0 0 -.48419-.33362 3.963 3.963 0 0 0 .05853-.581v-49a4 4 0 0 0 -4-4h-4v-27a6.00656 6.00656 0 0 0 -6-6h-71.99999a6.00656 6.00656 0 0 0 -6 6v27h-4a4 4 0 0 0 -4 4v49a3.963 3.963 0 0 0 .05853.581 3.992 3.992 0 0 0 -.48419.33362l-12.12 10a3.99344 3.99344 0 0 0 -1.44635 3.08539h-2.7293a2.017 2.017 0 1 0 0 4h133.44262a2.017 2.017 0 1 0 0-4zm-104.72131-94a2.00229 2.00229 0 0 1 2-2h72a2.00229 2.00229 0 0 1 2 2v10h-76zm-8 31h4v43a2 2 0 1 0 4 0v-60h76v60a2 2 0 1 0 4 0v-43h4v49h-92zm-14 63 12.12-10h95.76l12.12 10z"/><path d="m75.17 82.52649h-10.46a7.04206 7.04206 0 0 1 0 4h10.46l-.58-.59a1.97384 1.97384 0 0 1 0-2.81995z"/><path d="m56 91.23651v7.29h4v-7.29a7.04206 7.04206 0 0 1 -4 0z"/><path d="m85.41 75.11652.63568.63568.0033-.00677-.049-.049v-6.17h-3.99998v6.17l.59-.58a1.97384 1.97384 0 0 1 2.82.00009z"/><path d="m92.83 82.52649-.14038-.14038-.00433.00574.72467.72467a1.97384 1.97384 0 0 1 0 2.81995l-.58.59h10.46a7.04206 7.04206 0 0 1 0-4z"/><path d="m110 91.52649a6.95883 6.95883 0 0 1 -2-.29v7.29h4v-7.29a6.95883 6.95883 0 0 1 -2 .29z"/><path d="m85.41 93.93646a1.9797 1.9797 0 0 1 -2.81995 0l-.59-.58v18.42a8.125 8.125 0 0 1 4 0v-18.42z"/><path d="m86 111.7865c.07.02.13.03.2.05-.07-.02-.13-.04-.2-.06z"/><path d="m82 111.7865v-.01c-.07.02-.13.04-.2.06.07-.02003.13-.02998.2-.05z"/><path d="m7.69529 67.52647a3 3 0 1 0 -3-3 3.00344 3.00344 0 0 0 3 3zm0-4.5a1.5 1.5 0 1 1 -1.5 1.5 1.50148 1.50148 0 0 1 1.5-1.5z"/><path d="m158.30471 47.52647a2 2 0 1 0 2 2 2.00229 2.00229 0 0 0 -2-2zm0 3a1 1 0 1 1 1-1 1.001 1.001 0 0 1 -1 1z"/><path d="m71.94 33.12317a2 2 0 1 0 2 2 2.00229 2.00229 0 0 0 -2-2zm0 3a1 1 0 1 1 1-1 1.001 1.001 0 0 1 -1 1z"/><path d="m152.58056 4.47353a2 2 0 1 0 2 2 2.00229 2.00229 0 0 0 -2-2zm0 3a1 1 0 1 1 1-1 1.001 1.001 0 0 1 -1 1z"/><path d="m30.5 41.75662a2 2 0 1 0 -2 2 2.00229 2.00229 0 0 0 2-2zm-3 0a1 1 0 1 1 1 1 1.001 1.001 0 0 1 -1-1z"/></g><path d="m21.638 10.538 1.487-1.956-.939-.532-.954 2.19h-.032l-.97-2.174-.955.547 1.471 1.909v.032l-2.3-.298v1.064l2.316-.297v.031l-1.487 1.909.892.563 1.018-2.206h.03l.939 2.191.986-.564-1.502-1.877v-.032l2.362.282v-1.064l-2.362.313z" fill="#0bceb2"/><path d="m68.779 8.204-.856 1.099.514.324.586-1.271h.018l.54 1.262.568-.324-.865-1.082v-.018l1.36.162v-.612l-1.36.18v-.018l.856-1.126-.54-.306-.55 1.261h-.018l-.559-1.253-.55.316.848 1.099v.018l-1.325-.171v.612l1.333-.17z" fill="#0bceb2"/><path d="m135.448 41.278v-1.043l-2.316.306v-.03l1.458-1.918-.921-.522-.936 2.148h-.031l-.951-2.133-.938.537 1.444 1.873v.03l-2.257-.291v1.043l2.272-.291v.03l-1.459 1.872.875.553.999-2.164h.03l.921 2.149.967-.553-1.473-1.842v-.03z" fill="#0bceb2"/><path d="m114.351 15.314 1.258-1.654-.794-.45-.807 1.853h-.027l-.821-1.84-.808.463 1.245 1.615v.027l-1.947-.252v.9l1.96-.251v.026l-1.258 1.615.754.477.862-1.867h.026l.794 1.854.834-.477-1.271-1.589v-.026l1.999.238v-.9l-1.999.265z" fill="#0bceb2"/><path d="m114 98.52649h-8a4 4 0 0 0 -4 4v8a4 4 0 0 0 4 4h8a4 4 0 0 0 4-4v-8a4 4 0 0 0 -4-4zm0 12h-8v-8h8z" fill="#0bceb2"/><path d="m62 98.52649h-8a4 4 0 0 0 -4 4v8a4 4 0 0 0 4 4h8a4 4 0 0 0 4-4v-8a4 4 0 0 0 -4-4zm0 12h-8v-8h8z" fill="#0bceb2"/><path d="m84 111.52649a8 8 0 1 0 8 8 8.00909 8.00909 0 0 0 -8-8zm0 12a4 4 0 1 1 4-4 4 4 0 0 1 -4 4z" fill="#0bceb2"/><path d="m58 91.52649a7 7 0 1 0 -7-7 7.00794 7.00794 0 0 0 7 7zm0-10a3 3 0 1 1 -3 3 3 3 0 0 1 3-3z" fill="#0bceb2"/><path d="m110 91.52649a7 7 0 1 0 -7-7 7.00794 7.00794 0 0 0 7 7zm0-10a3 3 0 1 1 -3 3 3 3 0 0 1 3-3z" fill="#0bceb2"/><path d="m85.41406 75.11243a1.99927 1.99927 0 0 0 -2.82812 0l-8 8a1.99927 1.99927 0 0 0 0 2.82813l8 8a1.99927 1.99927 0 0 0 2.82813 0l8-8a1.99927 1.99927 0 0 0 0-2.82812zm-1.41406 14.58545-5.17187-5.17139 5.17187-5.17139 5.17188 5.17139z" fill="#0bceb2"/></svg>