<svg id="Capa_1" enable-background="new 0 0 512 512" height="512" viewBox="0 0 512 512" width="512" xmlns="http://www.w3.org/2000/svg"><g><g><circle cx="372.286" cy="138.917" fill="#fee97d" r="138.917"/><path d="m511.2 138.92c0 76.717-62.197 138.913-138.914 138.913-22.804 0-44.319-5.492-63.301-15.224 14.519 5.158 30.161 7.96 46.453 7.96 76.717 0 138.913-62.188 138.913-138.914 0-53.94-30.746-100.708-75.677-123.717 53.903 19.085 92.526 70.52 92.526 130.982z" fill="#fedf30"/><path d="m282.877 351.438c-4.026-18.281 5.38-34.746 4.623-52.733-1.329-31.534-14.669-60.82-29.996-87.518h-108.06-108.061c-15.327 26.698-28.667 55.984-29.996 87.518-.757 17.986 8.649 34.451 4.623 52.733-4.562 20.714-14.628 40.002-15.19 61.566-.998 38.256 32.717 74.024 70.965 75.285h77.659 77.659c38.248-1.261 71.964-37.029 70.965-75.285-.563-21.563-10.629-40.852-15.191-61.566z" fill="#918291"/><path d="m298.072 413.006c.998 38.252-32.726 74.025-70.967 75.281h-23.101c38.241-1.255 71.955-37.029 70.957-75.281-.558-21.567-10.623-40.849-15.183-61.568-4.034-18.284 5.376-34.743 4.625-52.737-1.331-31.524-14.678-60.817-30.001-87.513h23.101c15.333 26.696 28.67 55.989 30.001 87.513.751 17.994-8.648 34.453-4.625 52.737 4.559 20.72 14.624 40.001 15.193 61.568z" fill="#7a6d79"/><path d="m33.284 511.997c0-64.153 52.006-116.159 116.159-116.159 64.153 0 116.159 52.006 116.159 116.159z" fill="#c1e9af"/><path d="m265.603 512h-23.252c0-60.227-45.849-109.756-104.53-115.582 3.82-.386 7.704-.579 11.62-.579 32.072 0 61.117 13.004 82.137 34.024s34.025 50.055 34.025 82.137z" fill="#ade194"/><path d="m149.443 431.986c-14.154 0-25.629-11.474-25.629-25.628v-67.84h51.257v67.84c.001 14.154-11.473 25.628-25.628 25.628z" fill="#ffeee6"/><path d="m175.075 338.519v67.834c0 14.163-11.481 25.634-25.634 25.634-3.745 0-7.296-.805-10.505-2.243 8.927-4.013 15.129-12.972 15.129-23.391v-67.834z" fill="#ffdfcf"/><g fill="#fac600"><path d="m363.071 95.008c1.349 2.285 3.805 3.687 6.458 3.687h29.369c-.022 5.016-.047 9.835-.072 14.162-.023 4.142 3.314 7.519 7.457 7.543h.044c4.121 0 7.476-3.33 7.499-7.457.015-2.626.044-7.825.073-14.248h1.811c4.143 0 7.5-3.358 7.5-7.5s-3.357-7.5-7.5-7.5h-1.753c.057-17.845.063-37.228-.157-39.861-.462-5.542-3.77-10.055-8.426-11.497-4.612-1.43-9.534.386-13.173 4.85-4.247 5.21-25.102 42.886-29.239 50.386-1.281 2.323-1.24 5.151.109 7.435zm35.903-40.594c.028 7.356.015 18.116-.02 29.281h-16.684c6.324-11.324 12.523-22.216 16.704-29.281z"/><path d="m316.63 61.17c4.064.799 8.007-1.85 8.805-5.914 1.037-5.282 5.707-9.115 11.104-9.115 6.101 0 11.089 4.852 11.31 10.9l-.243 1.907c-.936 3.743-3.146 8.121-6.575 13.02-11.657 16.655-18.615 25.766-22.354 30.661-4.562 5.973-6.45 8.445-5.154 12.656.755 2.454 2.615 4.336 5.104 5.166 1.018.34 2.06.688 16.135.688 5.6 0 13.263-.055 23.807-.188 4.142-.052 7.457-3.452 7.404-7.594-.051-4.142-3.416-7.473-7.594-7.405-8.089.102-16.699.165-23.521.169 4.136-5.502 10.117-13.628 18.462-25.551 4.639-6.628 7.66-12.876 8.98-18.572.057-.246.101-.494.133-.743l.363-2.845c.04-.315.061-.632.061-.95 0-14.511-11.806-26.317-26.317-26.317-12.548 0-23.408 8.926-25.823 21.225-.799 4.062 1.848 8.004 5.913 8.802z"/><path d="m443.313 131.776h-142.054c-4.143 0-7.5 3.358-7.5 7.5s3.357 7.5 7.5 7.5h142.054c4.143 0 7.5-3.358 7.5-7.5s-3.358-7.5-7.5-7.5z"/><path d="m387.318 157.434h-40.853c-4.143 0-7.5 3.358-7.5 7.5s3.357 7.5 7.5 7.5h29.363l-28.021 63.742c-1.667 3.792.056 8.217 3.848 9.884.982.432 2.007.636 3.015.636 2.885 0 5.635-1.674 6.87-4.484l32.644-74.26c1.02-2.319.799-4.996-.586-7.118s-3.746-3.4-6.28-3.4z"/></g><g><path d="m277.316 226.774c-4.143 0-7.5-3.358-7.5-7.5v-67.634c0-43.23-35.17-78.4-78.4-78.4h-83.945c-43.23 0-78.4 35.17-78.4 78.4v67.62c0 4.142-3.357 7.5-7.5 7.5s-7.5-3.358-7.5-7.5v-67.62c0-51.501 41.899-93.4 93.4-93.4h83.945c51.501 0 93.4 41.899 93.4 93.4v67.634c0 4.142-3.357 7.5-7.5 7.5z" fill="#8d9ca8"/></g><g><path d="m251.048 270.671h15.477c17.431 0 31.562-14.131 31.562-31.562 0-17.431-14.131-31.562-31.562-31.562h-15.477z" fill="#8ac9fe"/></g><path d="m50.681 270.676h-18.32c-17.432 0-31.564-14.131-31.564-31.564 0-17.432 14.131-31.564 31.564-31.564h18.32z" fill="#8ac9fe"/><path d="m149.443 365.235c-57.24 0-103.641-46.402-103.641-103.641v-63.431l103.641-54.899 103.641 54.899v63.431c0 57.24-46.401 103.641-103.641 103.641z" fill="#ffeee6"/><path d="m253.081 198.162v63.435c0 57.233-46.396 103.64-103.64 103.64-3.627 0-7.2-.183-10.73-.547 52.201-5.365 92.91-49.486 92.91-103.093v-74.798z" fill="#ffdfcf"/><g><g><path d="m102.808 261.443c-4.143 0-7.5-3.358-7.5-7.5v-14.79c0-4.142 3.357-7.5 7.5-7.5s7.5 3.358 7.5 7.5v14.79c0 4.142-3.358 7.5-7.5 7.5z" fill="#918291"/></g><g><path d="m196.079 261.443c-4.143 0-7.5-3.358-7.5-7.5v-14.79c0-4.142 3.357-7.5 7.5-7.5s7.5 3.358 7.5 7.5v14.79c0 4.142-3.357 7.5-7.5 7.5z" fill="#918291"/></g></g><g><path d="m249.451 326.619h-62.468c-4.143 0-7.5-3.358-7.5-7.5s3.357-7.5 7.5-7.5h62.035c6.394-.835 11.173-6.251 11.173-12.737v-28.248c0-4.142 3.357-7.5 7.5-7.5s7.5 3.358 7.5 7.5v28.248c0 14.309-10.732 26.215-24.964 27.697-.257.026-.516.04-.776.04z" fill="#8d9ca8"/></g><path d="m149.443 89.536c-57.239 0-103.641 46.402-103.641 103.641v18.038s67.184.642 103.641-49.994c36.457 50.636 103.641 49.994 103.641 49.994v-18.038c0-57.24-46.401-103.641-103.641-103.641z" fill="#918291"/><path d="m253.081 193.173v18.037s-8.659.086-21.46-2.146v-13.326c0-57.244-46.396-103.64-103.64-103.64-.547 0-1.094 0-1.642.021 7.425-1.695 15.161-2.586 23.101-2.586 57.245 0 103.641 46.406 103.641 103.64z" fill="#7a6d79"/><path d="m172.265 335.05h-9.292c-8.129 0-14.719-6.59-14.719-14.719v-2.425c0-8.129 6.59-14.719 14.719-14.719h9.292c8.129 0 14.719 6.59 14.719 14.719v2.425c0 8.13-6.59 14.719-14.719 14.719z" fill="#596c76"/><path d="m186.989 317.909v2.426c0 8.13-6.599 14.719-14.719 14.719h-9.292c-1.192 0-2.344-.144-3.443-.411 6.455-1.542 11.265-7.36 11.265-14.308v-2.426c0-6.948-4.81-12.766-11.265-14.308 1.1-.267 2.251-.411 3.443-.411h9.292c8.12-.001 14.719 6.588 14.719 14.719z" fill="#465a61"/></g><path d="m298.093 239.115c0 17.42-14.142 31.562-31.562 31.562h-13.45v-13.304c14.312-2.986 25.067-15.672 25.067-30.882 0-6.883-2.197-13.244-5.948-18.427 6.446 1.153 12.2 4.285 16.643 8.728 5.718 5.716 9.25 13.607 9.25 22.323z" fill="#60b7ff"/></g></svg>