<svg id="Layer_1" enable-background="new 0 0 50 50" height="512" viewBox="0 0 50 50" width="512" xmlns="http://www.w3.org/2000/svg"><g><g><g><g><g enable-background="new"><path d="m43.64853 37.0157-14.27702 8.29486c-.4699.27235-1.2259.27235-1.6958 0l-21.01749-12.25102c-.23836-.13597-.35413-.31306-.35413-.49667v1.10977c0 .18401.11577.3611.35413.49707l21.01749 12.25101c.4699.27235 1.2259.27235 1.68898 0l14.28384-8.555z" fill="#b0b8bc"/><g><path d="m21.53258 24.13169 22.11595 12.88401-14.51605 8.43581c-.33201.19295-.87576.19372-1.20832.00171l-21.35881-12.44687c-.33706-.1946-.33774-.68086-.00124-.87641l13.76016-7.99653c.33201-.19295.87575-.19372 1.20831-.00172z" fill="#dde4e7"/></g></g><g enable-background="new"><g><path d="m25.39044 37.96292.14447-.08509-6.82436-3.93264-4.46392 2.62339.14452.08305 4.3194-2.5383z" fill="#b0b8bc"/><path d="m25.39044 37.96292-6.67989-3.84959-4.3194 2.5383 6.67985 3.84959z" fill="#cfd8dd"/></g></g><path d="m42.20798 36.4327-.5572.33067-20.28065-11.83414.46681-.25783z" fill="#b0b8bc"/><g><g enable-background="new"><g><path d="m19.51089 25.9144.0004-.14278c-.00009.03174.02017.06373.06235.08809l-.00041.14278c-.04217-.02435-.06243-.05635-.06234-.08809z" fill="#768c95"/></g><g><path d="m21.43318 25.93888-.00041.14278c-.00009.0315-.02167.06284-.06394.08741l.0004-.14278c.04228-.02457.06386-.05591.06395-.08741z" fill="#768c95"/></g><g><path d="m21.36923 26.02629-.0004.14278-.59989.34862.0004-.14278z" fill="#768c95"/></g><g><path d="m20.46607 26.37496-.0004.14278-.89243-.51524.00041-.14278z" fill="#768c95"/></g><g><path d="m20.76934 26.37491-.0004.14278c-.08005.04652-.21604.05041-.30327.00005l.0004-.14278c.08723.05036.22322.04647.30327-.00005z" fill="#768c95"/></g><g><path d="m21.36832 25.85063c.08723.05036.08542.12655.00091.17566l-.59989.34862c-.08005.04652-.21604.05041-.30327.00005l-.89242-.51524c-.08499-.04907-.08096-.12915-.00091-.17567l.59989-.34862c.08451-.04911.21828-.04911.30327-.00004z" fill="#475e68"/></g></g><g enable-background="new"><g><path d="m20.88112 26.70485.0004-.14278c-.00009.03212.0196.06406.05872.08665l-.0004.14278c-.03912-.02259-.05881-.05453-.05872-.08665z" fill="#768c95"/></g><g><path d="m22.80346 26.73318-.00041.14279c-.00009.03123-.02004.06223-.06092.08599l.0004-.14278c.04089-.02377.06084-.05477.06093-.086z" fill="#768c95"/></g><g><path d="m21.8349 27.16525-.00041.14278-.89465-.51653.0004-.14278z" fill="#768c95"/></g><g><path d="m22.74253 26.81917-.0004.14278-.59989.34862.0004-.14278z" fill="#768c95"/></g><g><path d="m22.14264 27.16779-.00041.14278c-.08005.04652-.22276.04653-.30774-.00254l.00041-.14278c.08499.04907.22769.04906.30774.00254z" fill="#768c95"/></g><g><path d="m22.73715 26.64092c.08499.04907.0899.12914.00539.17825l-.59989.34862c-.08005.04652-.22276.04653-.30774-.00254l-.89465-.51653c-.07828-.0452-.07873-.12786.00132-.17438l.59989-.34862c.08451-.04911.22276-.04653.30104-.00133z" fill="#475e68"/></g></g><g enable-background="new"><g><path d="m22.25187 27.49821.0004-.14278c-.00009.03099.01965.06214.06125.08616l-.0004.14278c-.0416-.02402-.06134-.05517-.06125-.08616z" fill="#768c95"/></g><g><path d="m24.17447 27.52219-.0004.14278c-.00009.03145-.02111.06286-.0631.08727l.0004-.14278c.04199-.02441.06301-.05582.0631-.08727z" fill="#768c95"/></g><g><path d="m24.11136 27.60946-.0004.14278-.5999.34862.00041-.14278z" fill="#768c95"/></g><g><path d="m23.2082 27.95812-.00041.14278-.89466-.51653.0004-.14278z" fill="#768c95"/></g><g><path d="m23.51147 27.95808-.00041.14278c-.08005.04652-.21828.04911-.30327.00004l.00041-.14278c.08499.04907.22322.04648.30327-.00004z" fill="#768c95"/></g><g><path d="m24.11045 27.43379c.08499.04907.08542.12655.00091.17566l-.59989.34862c-.08005.04652-.21828.04911-.30327.00005l-.89467-.51654c-.08499-.04907-.07872-.12785.00133-.17437l.59989-.34862c.08451-.04911.21604-.05041.30103-.00134z" fill="#475e68"/></g></g><g enable-background="new"><g><path d="m23.61961 28.28658.0004-.14278c-.00009.03173.02017.06373.06236.08809l-.0004.14278c-.0422-.02436-.06245-.05636-.06236-.08809z" fill="#768c95"/></g><g><path d="m25.54534 28.31679-.00041.14278c-.00009.03117-.02005.06194-.06067.08554l.00041-.14278c.04062-.0236.06058-.05437.06067-.08554z" fill="#768c95"/></g><g><path d="m24.57479 28.74713-.0004.14278-.89242-.51524.0004-.14278z" fill="#768c95"/></g><g><path d="m25.48466 28.40233-.00041.14279-.59989.34862.00041-.14279z" fill="#768c95"/></g><g><path d="m24.88477 28.75095-.0004.14278c-.08005.04652-.22276.04653-.30997-.00383l.0004-.14278c.08721.05036.22992.05035.30997.00383z" fill="#768c95"/></g><g><path d="m25.47704 28.2228c.08722.05036.09213.13042.00762.17954l-.59989.34862c-.08005.04652-.22276.04653-.30997-.00383l-.89242-.51524c-.085-.04908-.08096-.12915-.00091-.17566l.59989-.34862c.08451-.04911.21827-.04912.30327-.00005z" fill="#475e68"/></g></g><g enable-background="new"><g><path d="m24.9895 29.07351.0004-.14278c-.00009.03401.02185.06868.06578.09404l-.0004.14278c-.04394-.02536-.06588-.06004-.06578-.09404z" fill="#768c95"/></g><g><path d="m26.91547 29.10345-.00041.14279c-.00008.03154-.02167.06314-.06423.08787l.00041-.14278c.04256-.02473.06414-.05633.06423-.08788z" fill="#768c95"/></g><g><path d="m26.85124 29.19133-.0004.14278-.5999.34862.00041-.14278z" fill="#768c95"/></g><g><path d="m25.95032 29.54129-.0004.14278-.89465-.51652.0004-.14279z" fill="#768c95"/></g><g><path d="m26.25135 29.53995-.0004.14278c-.08005.04652-.21604.05041-.30103.00134l.0004-.14278c.08499.04907.22098.04518.30103-.00134z" fill="#768c95"/></g><g><path d="m26.85257 29.01696c.08499.04907.08318.12526-.00133.17437l-.59989.34862c-.08005.04652-.21604.05041-.30103.00134l-.89465-.51653c-.085-.04908-.08768-.13303-.00763-.17954l.59989-.34862c.08451-.04911.22499-.04524.30999.00383z" fill="#475e68"/></g></g><g enable-background="new"><g><path d="m18.06931 26.75337.0004-.14278c-.00009.03164.02019.06313.06184.08718l-.0004.14278c-.04166-.02404-.06193-.05554-.06184-.08718z" fill="#768c95"/></g><g><path d="m20.21208 26.64972-.00041.14278c-.00008.03077-.02109.06129-.06276.08551l.0004-.14278c.04168-.02422.06268-.05474.06277-.08551z" fill="#768c95"/></g><g><path d="m20.14932 26.73523-.00041.14278-.81774.47522.00041-.14278z" fill="#768c95"/></g><g><path d="m19.02397 27.21301-.00041.14279-.89242-.51524.00041-.14279z" fill="#768c95"/></g><g><path d="m19.33158 27.21045-.00041.14278c-.08439.04904-.22038.05293-.30761.00257l.0004-.14278c.08724.05036.22323.04647.30762-.00257z" fill="#768c95"/></g><g><path d="m20.14611 26.5609c.08723.05036.08759.12529.0032.17433l-.81774.47522c-.08439.04904-.22038.05293-.30761.00257l-.89242-.51524c-.08499-.04907-.08096-.12914.00343-.17819l.81774-.47522c.08439-.04904.21599-.04778.30098.00129z" fill="#475e68"/></g></g><g enable-background="new"><g><path d="m19.43955 27.54389.0004-.14278c-.00009.03198.01959.06338.0582.08567l-.00041.14278c-.03861-.02229-.05828-.05368-.05819-.08567z" fill="#768c95"/></g><g><path d="m21.58241 27.44403-.00041.14278c-.00008.03049-.01952.06067-.05979.08407l.0004-.14278c.04028-.0234.05972-.05358.0598-.08407z" fill="#768c95"/></g><g><path d="m21.52262 27.5281-.00041.14279-.81774.47521.00041-.14278z" fill="#768c95"/></g><g><path d="m20.39279 28.00331-.0004.14278-.89465-.51653.0004-.14278z" fill="#768c95"/></g><g><path d="m20.70488 28.00332-.0004.14278c-.08439.04904-.2271.04905-.31208-.00002l.0004-.14278c.08498.04907.22769.04907.31208.00002z" fill="#768c95"/></g><g><path d="m21.51494 27.35119c.08499.04907.09207.12788.00768.17692l-.81774.47522c-.08439.04904-.2271.04905-.31208-.00002l-.89465-.51653c-.07828-.0452-.07873-.12786.00566-.1769l.81774-.47522c.08439-.04904.22047-.0452.29875 0z" fill="#475e68"/></g></g><g enable-background="new"><g><path d="m20.81026 28.33714.0004-.14278c-.00009.03089.01967.06156.06076.08528l-.00041.14278c-.04108-.02371-.06084-.05438-.06075-.08528z" fill="#768c95"/></g><g><path d="m22.95338 28.23305-.00041.14278c-.00009.03071-.02055.0613-.06193.08535l.0004-.14278c.04139-.02405.06185-.05464.06194-.08535z" fill="#768c95"/></g><g><path d="m22.89144 28.3184-.0004.14278-.81774.47522.0004-.14278z" fill="#768c95"/></g><g><path d="m21.76609 28.79618-.0004.14278-.89467-.51653.00041-.14278z" fill="#768c95"/></g><g><path d="m22.0737 28.79362-.0004.14278c-.08439.04904-.22262.05163-.30761.00257l.0004-.14278c.08499.04906.22323.04647.30761-.00257z" fill="#768c95"/></g><g><path d="m22.88824 28.14406c.08499.04907.08759.12529.0032.17434l-.81774.47522c-.08439.04904-.22262.05163-.30761.00257l-.89467-.51654c-.08499-.04907-.07872-.12785.00567-.17689l.81774-.47522c.08439-.04904.21375-.04908.29873-.00001z" fill="#475e68"/></g></g><g enable-background="new"><g><path d="m22.17802 29.12555.0004-.14278c-.00008.03164.02019.06313.06184.08718l-.0004.14278c-.04165-.02405-.06193-.05555-.06184-.08718z" fill="#768c95"/></g><g><path d="m24.3243 29.02763-.00041.14279c-.00008.03043-.01953.06038-.05956.08364l.00041-.14278c.04002-.02327.05947-.05322.05956-.08365z" fill="#768c95"/></g><g><path d="m23.13269 29.58519-.00041.14278-.89242-.51524.00041-.14278z" fill="#768c95"/></g><g><path d="m24.26474 29.11127-.0004.14279-.81774.47521.0004-.14278z" fill="#768c95"/></g><g><path d="m23.447 29.58649-.0004.14278c-.08439.04904-.2271.04905-.31432-.0013l.00041-.14278c.08722.05035.22992.05034.31431.0013z" fill="#768c95"/></g><g><path d="m24.25484 28.93307c.08722.05036.0943.12916.00991.17821l-.81775.47521c-.08439.04904-.2271.04905-.31431-.0013l-.89242-.51524c-.085-.04908-.08096-.12914.00343-.17819l.81774-.47522c.08439-.04904.21598-.04779.30098.00129z" fill="#475e68"/></g></g><g enable-background="new"><g><path d="m23.54798 29.91258.0004-.14278c-.00009.03391.02184.068.06519.09303l-.0004.14278c-.04335-.02503-.06529-.05912-.06519-.09303z" fill="#768c95"/></g><g><path d="m25.69436 29.81431-.00041.14278c-.00008.03081-.02109.06158-.06303.08595l.00041-.14278c.04194-.02437.06294-.05513.06303-.08595z" fill="#768c95"/></g><g><path d="m25.63132 29.90027-.0004.14278-.81774.47522.00041-.14278z" fill="#768c95"/></g><g><path d="m24.50822 30.37935-.00041.14278-.89465-.51653.00041-.14278z" fill="#768c95"/></g><g><path d="m24.81359 30.37549-.0004.14278c-.08439.04904-.22038.05293-.30537.00386l.00041-.14278c.08498.04907.22096.04518.30536-.00386z" fill="#768c95"/></g><g><path d="m25.63037 29.72723c.08499.04907.08535.124.00096.17304l-.81774.47522c-.08439.04904-.22038.05293-.30536.00386l-.89465-.51653c-.085-.04908-.08768-.13302-.00329-.18207l.81774-.47522c.08439-.04904.2227-.04391.3077.00517z" fill="#475e68"/></g></g><g enable-background="new"><g><path d="m16.73963 27.52296.0004-.14278c-.00009.03188.02186.06368.0649.08854l-.0004.14278c-.04305-.02485-.06499-.05666-.0649-.08854z" fill="#768c95"/></g><g><path d="m19.57691 27.82574-.00041.14279c-.00009.03143-.02108.06281-.063.08717l.0004-.14278c.04193-.02437.06292-.05575.06301-.08718z" fill="#768c95"/></g><g><path d="m19.5139 27.91292-.0004.14278-.81557.47396.00041-.14279z" fill="#768c95"/></g><g><path d="m18.39519 28.38685-.00041.14278-1.59025-.91813.00041-.14278z" fill="#768c95"/></g><g><path d="m18.69834 28.38687-.00041.14278c-.08668.05037-.21816.04904-.30315-.00002l.00041-.14278c.08499.04907.21647.0504.30315.00002z" fill="#768c95"/></g><g><path d="m19.51287 27.73732c.08499.04907.08542.12655.00103.17559l-.81557.47396c-.08668.05037-.21816.04904-.30315-.00002l-1.59025-.91813c-.08499-.04907-.08771-.12522-.00103-.1756l.81557-.47396c.08439-.04904.21816-.04904.30315.00002z" fill="#475e68"/></g></g><g enable-background="new"><g><path d="m18.83976 28.73299.0004-.14278c-.00009.03337.02307.06687.06722.09236l-.0004.14278c-.04416-.0255-.06732-.05899-.06722-.09236z" fill="#768c95"/></g><g><path d="m20.98128 28.63856-.00041.14278c-.00009.03126-.01948.06275-.06052.0866l.0004-.14278c.04105-.02385.06044-.05534.06053-.0866z" fill="#768c95"/></g><g><path d="m20.92076 28.72516-.00041.14278-.81557.47396.00041-.14278z" fill="#768c95"/></g><g><path d="m19.80204 29.19909-.00041.14279-.89465-.51653.00041-.14278z" fill="#768c95"/></g><g><path d="m20.10519 29.19912-.0004.14278c-.08668.05037-.22487.04517-.30315-.00002l.00041-.14278c.07827.04519.21646.05039.30314.00002z" fill="#768c95"/></g><g><path d="m20.91972 28.54957c.07828.0452.08542.12655.00103.1756l-.81557.47396c-.08668.05037-.22487.04517-.30315-.00002l-.89465-.51653c-.085-.04908-.09219-.12781-.00551-.17818l.81557-.47396c.08439-.04904.22262-.04647.30762.00261z" fill="#475e68"/></g></g><g enable-background="new"><g><path d="m20.21331 29.52543.0004-.14278c-.00009.0337.02363.06776.06921.09407l-.0004.14278c-.04558-.0263-.06931-.06036-.06921-.09407z" fill="#768c95"/></g><g><path d="m22.3554 29.43122-.00041.14279c-.00009.03132-.02.06279-.06134.08681l.0004-.14278c.04135-.02403.06126-.0555.06135-.08682z" fill="#768c95"/></g><g><path d="m22.29406 29.51804-.00041.14278-.81557.47396.00041-.14279z" fill="#768c95"/></g><g><path d="m21.17534 29.99197-.00041.14278-.89242-.51524.00041-.14278z" fill="#768c95"/></g><g><path d="m21.47849 29.99199-.0004.14278c-.08668.05037-.22264.04646-.30315-.00002l.0004-.14278c.08051.04648.21647.0504.30315.00002z" fill="#768c95"/></g><g><path d="m22.29302 29.34244c.08051.04648.08542.12655.00103.1756l-.81557.47396c-.08668.05037-.22264.04646-.30315-.00002l-.89242-.51524c-.08723-.05036-.09442-.12909-.00774-.17947l.81557-.47396c.08439-.04904.22262-.04647.30985.0039z" fill="#475e68"/></g></g><g enable-background="new"><g><path d="m21.58741 30.31808.0004-.14278c-.0001.03411.0237.06849.06841.0943l-.0004.14278c-.04471-.0258-.06851-.06018-.06841-.0943z" fill="#768c95"/></g><g><path d="m23.72897 30.22362-.00041.14278c-.00009.03138-.01999.06311-.06161.0873l.0004-.14278c.04163-.02419.06153-.05593.06162-.0873z" fill="#768c95"/></g><g><path d="m23.66736 30.31091-.00041.14279-.81556.47395.0004-.14278z" fill="#768c95"/></g><g><path d="m22.55087 30.78613-.00041.14279-.89465-.51653.00041-.14278z" fill="#768c95"/></g><g><path d="m22.85179 30.78487-.0004.14278c-.08668.05037-.22264.04646-.30092.00126l.0004-.14278c.07828.0452.21424.04911.30092-.00126z" fill="#768c95"/></g><g><path d="m23.66855 30.13661c.07828.0452.08319.12527-.0012.17431l-.81557.47396c-.08668.05037-.22264.04646-.30092.00126l-.89465-.51653c-.08499-.04907-.09442-.12909-.00774-.17947l.81557-.47396c.08439-.04904.22487-.04517.30985.0039z" fill="#475e68"/></g></g><g enable-background="new"><g><path d="m15.40726 28.29787.0004-.14278c-.00009.03184.02127.06373.06404.08842l-.00041.14278c-.04277-.02469-.06412-.05658-.06403-.08842z" fill="#768c95"/></g><g><path d="m18.60248 28.8098-.00041.14279c-.00008.03086-.02006.06161-.0617.08581l.0004-.14278c.04165-.0242.06162-.05495.06171-.08582z" fill="#768c95"/></g><g><path d="m17.41758 29.36697-.0004.14278-1.94589-1.12346.0004-.14278z" fill="#768c95"/></g><g><path d="m18.54077 28.89562-.0004.14278-.81557.47396.0004-.14278z" fill="#768c95"/></g><g><path d="m17.7252 29.36958-.0004.14278c-.08439.04904-.22264.04646-.30762-.00261l.0004-.14278c.08499.04907.22323.05165.30762.00261z" fill="#768c95"/></g><g><path d="m18.53526 28.71744c.08499.04907.09219.12781.00551.17818l-.81557.47396c-.08439.04904-.22264.04646-.30762-.00261l-1.94588-1.12346c-.08499-.04907-.08542-.12655-.00103-.17559l.81557-.47396c.08668-.05037.21816-.04904.30315.00002z" fill="#475e68"/></g></g><g enable-background="new"><g><path d="m17.8396 29.70344.0004-.14278c-.00009.0311.02072.06216.06293.08653l-.0004.14278c-.04221-.02437-.06302-.05543-.06293-.08653z" fill="#768c95"/></g><g><path d="m19.98017 29.60273-.00041.14279c-.00008.03106-.02109.06219-.06386.08705l.0004-.14278c.04278-.02487.06378-.056.06387-.08706z" fill="#768c95"/></g><g><path d="m19.9163 29.68978-.0004.14279-.81557.47395.0004-.14278z" fill="#768c95"/></g><g><path d="m18.79758 30.16372-.0004.14278-.89465-.51653.0004-.14278z" fill="#768c95"/></g><g><path d="m19.10073 30.16374-.0004.14278c-.08439.04904-.21816.04904-.30315-.00002l.0004-.14278c.08499.04906.21876.04906.30315.00002z" fill="#768c95"/></g><g><path d="m19.91527 29.51419c.08499.04907.08771.12522.00103.1756l-.81557.47396c-.08439.04904-.21816.04904-.30315-.00002l-.89465-.51653c-.085-.04908-.08319-.12527.0012-.17431l.81557-.47396c.08668-.05037.21592-.05034.30092-.00126z" fill="#475e68"/></g></g><g enable-background="new"><g><path d="m14.07508 29.07084.0004-.14278c-.00009.03192.02183.06398.06514.08898l-.00041.14278c-.0433-.025-.06522-.05706-.06513-.08898z" fill="#768c95"/></g><g><path d="m17.94041 29.96107-.00041.14279c-.00009.03301-.02284.06627-.06642.0916l.0004-.14278c.04359-.02534.06634-.0586.06643-.09161z" fill="#768c95"/></g><g><path d="m17.87398 30.05268-.0004.14278-.81774.47522.0004-.14279z" fill="#768c95"/></g><g><path d="m16.75749 30.52789-.0004.14279-2.61687-1.51085.0004-.14278z" fill="#768c95"/></g><g><path d="m17.05624 30.52789-.0004.14278c-.08439.04904-.21375.04908-.29875 0l.0004-.14278c.085.04908.21436.04904.29875 0z" fill="#768c95"/></g><g><path d="m17.87964 29.87577c.085.04908.07873.12786-.00566.1769l-.81774.47522c-.08439.04904-.21375.04908-.29875 0l-2.61687-1.51085c-.08499-.04907-.08759-.12529-.0032-.17434l.81774-.47522c.08439-.04904.22262-.05163.30761-.00257z" fill="#475e68"/></g></g><g enable-background="new"><g><path d="m19.20303 30.48623.0004-.14278c-.00009.03368.02301.06786.06833.09403l-.00041.14278c-.04531-.02616-.06841-.06034-.06832-.09403z" fill="#768c95"/></g><g><path d="m21.34677 30.39173-.00041.14278c-.00009.03106-.02109.0622-.06387.08706l.00041-.14278c.04277-.02486.06378-.056.06387-.08706z" fill="#768c95"/></g><g><path d="m21.2829 30.47879-.00041.14278-.81557.47396.00041-.14278z" fill="#768c95"/></g><g><path d="m20.16418 30.95272-.0004.14278-.89243-.51524.00041-.14278z" fill="#768c95"/></g><g><path d="m20.46733 30.95275-.00041.14278c-.08439.04904-.21816.04904-.30315-.00002l.0004-.14278c.085.04906.21877.04906.30316.00002z" fill="#768c95"/></g><g><path d="m21.28187 30.30319c.08499.04907.08771.12522.00103.1756l-.81557.47396c-.08439.04904-.21816.04904-.30315-.00002l-.89242-.51524c-.08723-.05036-.09214-.13043-.00775-.17947l.81557-.47396c.08668-.05037.22264-.04646.30987.0039z" fill="#475e68"/></g></g><g enable-background="new"><g><path d="m17.14489 30.84444.0004-.14278c-.00009.03118.02126.06241.06401.08709l-.0004.14278c-.04275-.02468-.0641-.05591-.06401-.08709z" fill="#768c95"/></g><g><path d="m19.28794 30.74034-.00041.14279c-.00009.03292-.02223.06599-.06526.091l.0004-.14278c.04304-.02501.06517-.05809.06527-.09101z" fill="#768c95"/></g><g><path d="m18.10396 31.30528-.00041.14278-.89465-.51653.00041-.14278z" fill="#768c95"/></g><g><path d="m19.22268 30.83135-.00041.14278-.81774.47522.00041-.14279z" fill="#768c95"/></g><g><path d="m18.40494 31.30656-.0004.14278c-.08439.04904-.21599.04778-.30098-.00129l.0004-.14278c.08499.04908.21659.05034.30098.00129z" fill="#768c95"/></g><g><path d="m19.2261 30.65316c.08499.04907.08096.12914-.00343.17819l-.81774.47522c-.08439.04904-.21599.04778-.30098-.00129l-.89465-.51653c-.085-.04908-.08536-.124-.00097-.17305l.81774-.47522c.08439-.04904.22038-.05293.30538-.00385z" fill="#475e68"/></g></g><g enable-background="new"><g><path d="m12.74294 29.8462.0004-.14278c-.00009.03184.02127.06373.06403.08842l-.0004.14278c-.04276-.02469-.06412-.05658-.06403-.08842z" fill="#768c95"/></g><g><path d="m15.29988 29.97854-.00041.14278c-.00009.03374-.02345.06785-.06758.0935l.00041-.14278c.04412-.02564.06749-.05976.06758-.0935z" fill="#768c95"/></g><g><path d="m15.2323 30.07204-.00041.14278-.81557.47396.00041-.14278z" fill="#768c95"/></g><g><path d="m14.11582 30.54727-.0004.14278-1.30844-.75543.0004-.14278z" fill="#768c95"/></g><g><path d="m14.41673 30.546-.00041.14278c-.08439.04904-.21592.05034-.3009.00127l.0004-.14278c.08499.04907.21652.04777.30091-.00127z" fill="#768c95"/></g><g><path d="m15.24014 29.89389c.08499.04907.07655.12911-.00784.17815l-.81557.47396c-.08439.04904-.21592.05034-.30091.00127l-1.30844-.75543c-.08499-.04907-.08542-.12655-.00103-.17559l.81557-.47396c.08439-.04904.22479-.0529.30978-.00383z" fill="#475e68"/></g></g><g enable-background="new"><g><path d="m14.46169 30.8347.0004-.14278c-.0001.03408.02306.06857.06751.09424l-.00041.14278c-.04445-.02566-.0676-.06015-.0675-.09424z" fill="#768c95"/></g><g><path d="m16.60832 30.73397-.00041.14278c-.00009.03373-.02345.06785-.06758.09349l.0004-.14278c.04413-.02563.06749-.05975.06759-.09349z" fill="#768c95"/></g><g><path d="m16.54074 30.82747-.00041.14278-.81557.47396.00041-.14278z" fill="#768c95"/></g><g><path d="m15.42425 31.30269-.0004.14278-.89466-.51653.00041-.14278z" fill="#768c95"/></g><g><path d="m15.72517 31.30143-.00041.14278c-.08439.04904-.21592.05034-.30092.00126l.0004-.14278c.08501.04907.21654.04778.30093-.00126z" fill="#768c95"/></g><g><path d="m16.54856 30.64931c.085.04908.07656.12912-.00783.17816l-.81557.47396c-.08439.04904-.21592.05034-.30092.00126l-.89465-.51653c-.08499-.04907-.09213-.13042-.00774-.17947l.81557-.47396c.08439-.04904.2315-.04902.31649.00004z" fill="#475e68"/></g></g><g enable-background="new"><g><path d="m15.85511 31.6392.0004-.14278c-.00009.03408.02306.06858.06751.09424l-.0004.14278c-.04445-.02566-.0676-.06016-.06751-.09424z" fill="#768c95"/></g><g><path d="m18.00175 31.53847-.00041.14278c-.0001.03373-.02345.06785-.06758.09349l.00041-.14278c.04412-.02564.06748-.05976.06758-.09349z" fill="#768c95"/></g><g><path d="m17.93417 31.63197-.00041.14278-.81557.47396.00041-.14279z" fill="#768c95"/></g><g><path d="m16.81768 32.10719-.00041.14278-.89465-.51653.00041-.14278z" fill="#768c95"/></g><g><path d="m17.1186 32.10592-.00041.14278c-.08439.04904-.21592.05034-.30092.00126l.0004-.14278c.08501.04908.21654.04778.30093-.00126z" fill="#768c95"/></g><g><path d="m17.94199 31.4538c.085.04908.07656.12912-.00783.17816l-.81557.47396c-.08439.04904-.21592.05034-.30092.00126l-.89465-.51653c-.08499-.04907-.09213-.13042-.00774-.17947l.81557-.47396c.08439-.04904.2315-.04902.31648.00004z" fill="#475e68"/></g></g><g enable-background="new"><g><path d="m20.57043 31.27501.0004-.14278c-.0001.03408.02306.06858.06751.09424l-.00041.14278c-.04445-.02566-.0676-.06015-.0675-.09424z" fill="#768c95"/></g><g><path d="m22.71446 31.18014-.00041.14278c-.00008.03115-.02163.06246-.06498.08765l.0004-.14278c.04335-.02519.0649-.05651.06499-.08765z" fill="#768c95"/></g><g><path d="m22.64948 31.26778-.00041.14279-.81556.47395.0004-.14278z" fill="#768c95"/></g><g><path d="m21.53301 31.74301-.00041.14278-.89467-.51653.00041-.14279z" fill="#768c95"/></g><g><path d="m21.83391 31.74174-.00041.14278c-.08439.04904-.21592.05034-.3009.00127l.0004-.14278c.08499.04907.21652.04777.30091-.00127z" fill="#768c95"/></g><g><path d="m22.65069 31.09348c.08499.04907.08547.12393-.00121.1743l-.81557.47396c-.08439.04904-.21592.05034-.30091.00127l-.89467-.51654c-.08499-.04907-.09213-.13042-.00774-.17947l.81557-.47396c.08668-.05037.22487-.04517.30985.0039z" fill="#475e68"/></g></g><g enable-background="new"><g><path d="m18.52167 31.63501.0004-.14278c-.00009.03374.02361.06808.06947.09456l-.00041.14278c-.04585-.02648-.06955-.06082-.06946-.09456z" fill="#768c95"/></g><g><path d="m20.66795 31.53709-.0004.14278c-.00009.03292-.02223.066-.06527.09101l.00041-.14278c.04302-.02502.06516-.05809.06526-.09101z" fill="#768c95"/></g><g><path d="m19.48396 32.10202-.0004.14278-.89242-.51524.0004-.14278z" fill="#768c95"/></g><g><path d="m20.60268 31.62809-.0004.14278-.81774.47522.0004-.14278z" fill="#768c95"/></g><g><path d="m19.78494 32.10331-.0004.14278c-.08439.04905-.21598.04779-.30098-.00129l.0004-.14278c.08501.04908.21659.05033.30098.00129z" fill="#768c95"/></g><g><path d="m20.60611 31.4499c.085.04908.08096.12915-.00343.17819l-.81774.47522c-.08439.04904-.21598.04779-.30098-.00129l-.89242-.51524c-.08722-.05036-.0943-.12916-.00991-.17821l.81774-.47522c.08439-.04904.2271-.04905.31431.0013z" fill="#475e68"/></g></g><g enable-background="new"><g><path d="m26.36059 29.87038.0004-.14278c-.00009.03099.01965.06214.06126.08616l-.0004.14278c-.04161-.02402-.06135-.05517-.06126-.08616z" fill="#768c95"/></g><g><path d="m28.28547 29.89821-.00041.14279c-.00009.03123-.02004.06223-.06093.08599l.0004-.14278c.0409-.02376.06086-.05477.06094-.086z" fill="#768c95"/></g><g><path d="m27.31692 30.3303-.00041.14278-.89466-.51654.0004-.14278z" fill="#768c95"/></g><g><path d="m28.22454 29.98421-.0004.14278-.5999.34862.00041-.14279z" fill="#768c95"/></g><g><path d="m27.62465 30.33282-.0004.14278c-.08005.04652-.22274.04654-.30773-.00253l.0004-.14278c.08499.04907.22768.04905.30773.00253z" fill="#768c95"/></g><g><path d="m28.21917 29.80597c.08499.04907.08988.12913.00537.17824l-.59989.34862c-.08005.04652-.22274.04654-.30773-.00253l-.89467-.51654c-.08499-.04907-.07872-.12785.00133-.17437l.59989-.34862c.08451-.04911.21604-.05041.30103-.00134z" fill="#475e68"/></g></g><g enable-background="new"><g><path d="m24.91899 30.70931.0004-.14278c-.00008.03089.01968.06156.06076.08528l-.0004.14278c-.04109-.02371-.06085-.05438-.06076-.08528z" fill="#768c95"/></g><g><path d="m27.06443 30.60906-.00041.14279c-.00008.03049-.01953.06067-.0598.08408l.0004-.14278c.04028-.02341.05972-.05359.05981-.08409z" fill="#768c95"/></g><g><path d="m27.00462 30.69314-.0004.14279-.81774.47521.00041-.14278z" fill="#768c95"/></g><g><path d="m25.87481 31.16835-.0004.14279-.89467-.51654.00041-.14278z" fill="#768c95"/></g><g><path d="m26.18689 31.16836-.0004.14278c-.08439.04904-.22708.04906-.31207-.00001l.0004-.14278c.08498.04907.22768.04905.31207.00001z" fill="#768c95"/></g><g><path d="m26.99696 30.51624c.08499.04907.09205.12787.00766.17691l-.81774.47522c-.08439.04904-.22708.04906-.31207-.00001l-.89467-.51654c-.08499-.04907-.07872-.12785.00567-.17689l.81774-.47522c.08439-.04904.21375-.04908.29873-.00001z" fill="#475e68"/></g></g><g enable-background="new"><g><path d="m22.96189 31.1129.0004-.14278c-.00009.03337.02307.06687.06722.09236l-.0004.14278c-.04415-.02549-.06731-.05899-.06722-.09236z" fill="#768c95"/></g><g><path d="m25.10148 31.01789-.00041.14278c-.00009.03121-.02001.06218-.06082.08589l.0004-.14278c.04082-.02371.06074-.05468.06083-.08589z" fill="#768c95"/></g><g><path d="m23.91747 31.57514-.00041.14278-.88795-.51266.00041-.14278z" fill="#768c95"/></g><g><path d="m25.04066 31.10379-.00041.14278-.81556.47396.0004-.14278z" fill="#768c95"/></g><g><path d="m24.22509 31.57775-.0004.14278c-.08668.05037-.22264.04646-.30762-.00261l.0004-.14278c.08498.04906.22094.05298.30762.00261z" fill="#768c95"/></g><g><path d="m25.03515 30.92561c.08499.04907.0899.12914.00551.17818l-.81557.47396c-.08668.05037-.22264.04646-.30762-.00261l-.88795-.51266c-.08499-.04907-.09219-.12781-.00551-.17818l.81557-.47396c.08439-.04904.22264-.04646.30762.00261z" fill="#475e68"/></g></g><g enable-background="new"><g><path d="m21.9382 32.06598.0004-.14278c-.00009.03333.02244.06694.06633.09228l-.0004.14278c-.04389-.02534-.06643-.05895-.06633-.09228z" fill="#768c95"/></g><g><path d="m24.08218 31.97102-.00041.14279c-.00009.03106-.02109.06219-.06387.08706l.0004-.14278c.04278-.02488.06379-.05601.06388-.08707z" fill="#768c95"/></g><g><path d="m24.0183 32.05807-.0004.14279-.81557.47396.00041-.14279z" fill="#768c95"/></g><g><path d="m22.89959 32.53201-.00041.14278-.89465-.51653.0004-.14278z" fill="#768c95"/></g><g><path d="m23.20274 32.53203-.0004.14278c-.08439.04904-.21815.04905-.30315-.00003l.00041-.14278c.08499.04909.21875.04907.30314.00003z" fill="#768c95"/></g><g><path d="m24.01727 31.88248c.085.04908.08772.12522.00103.17559l-.81557.47396c-.08439.04904-.21815.04905-.30315-.00002l-.89465-.51653c-.08499-.04907-.0899-.12914-.00551-.17818l.81557-.47396c.08668-.05037.22264-.04646.30762.00261z" fill="#475e68"/></g></g><g enable-background="new"><g><path d="m19.90247 32.43151.0004-.14278c-.00009.03416.02369.06883.06869.09481l-.00041.14278c-.04499-.02598-.06878-.06065-.06868-.09481z" fill="#768c95"/></g><g><path d="m22.04626 32.33413-.00041.14279c-.00009.03282-.02107.06602-.06356.09071l.0004-.14278c.04249-.02469.06348-.0579.06357-.09072z" fill="#768c95"/></g><g><path d="m20.86398 32.89878-.0004.14278-.89242-.51524.0004-.14278z" fill="#768c95"/></g><g><path d="m21.9827 32.42485-.0004.14278-.81774.47522.0004-.14278z" fill="#768c95"/></g><g><path d="m21.16496 32.90007-.0004.14278c-.08439.04904-.22047.0452-.30098-.00129l.0004-.14278c.08052.04648.21659.05033.30098.00129z" fill="#768c95"/></g><g><path d="m21.98613 32.24666c.08051.04649.08096.12915-.00343.17819l-.81774.47522c-.08439.04904-.22047.0452-.30098-.00129l-.89242-.51524c-.085-.04908-.09431-.12917-.00992-.17821l.81774-.47522c.08439-.04904.22933-.04776.31433.00131z" fill="#475e68"/></g></g><g enable-background="new"><g><path d="m27.73081 30.6569.0004-.14278c-.00009.03361.02182.06796.06659.0938l-.0004.14278c-.04477-.02584-.06669-.06019-.06659-.0938z" fill="#768c95"/></g><g><path d="m29.65483 30.68759-.00041.14278c-.00009.03134-.02003.06285-.06145.08691l.0004-.14278c.04143-.02406.06137-.05557.06146-.08691z" fill="#768c95"/></g><g><path d="m29.59338 30.77451-.0004.14278-.59989.34862.0004-.14278z" fill="#768c95"/></g><g><path d="m28.69022 31.12317-.0004.14278-.89243-.51524.00041-.14278z" fill="#768c95"/></g><g><path d="m28.99349 31.12313-.0004.14278c-.08005.04652-.22276.04653-.30327.00005l.0004-.14278c.08051.04647.22322.04647.30327-.00005z" fill="#768c95"/></g><g><path d="m29.59247 30.59884c.08051.04648.08542.12655.00091.17566l-.59989.34862c-.08005.04652-.22276.04653-.30327.00005l-.89242-.51524c-.08723-.05036-.08768-.13302-.00763-.17954l.59989-.34862c.08451-.04911.22276-.04653.30999.00384z" fill="#475e68"/></g></g><g enable-background="new"><g><path d="m26.28928 31.49594.0004-.14278c-.00009.03351.02183.06731.06601.09282l-.0004.14278c-.04419-.0255-.06611-.0593-.06601-.09282z" fill="#768c95"/></g><g><path d="m28.43376 31.39848-.00041.14278c-.00008.0306-.0195.06126-.06029.08496l.0004-.14278c.0408-.0237.06021-.05436.0603-.08496z" fill="#768c95"/></g><g><path d="m28.37346 31.48344-.0004.14279-.81774.47521.00041-.14278z" fill="#768c95"/></g><g><path d="m27.24812 31.96123-.00041.14278-.89242-.51524.0004-.14278z" fill="#768c95"/></g><g><path d="m27.55573 31.95866-.00041.14278c-.08439.04904-.2271.04905-.30761.00257l.0004-.14278c.08052.04648.22323.04648.30762-.00257z" fill="#768c95"/></g><g><path d="m28.37026 31.30911c.08051.04648.08759.12529.0032.17433l-.81774.47522c-.08439.04904-.2271.04905-.30761.00257l-.89242-.51524c-.08723-.05036-.08768-.13303-.00329-.18207l.81774-.47522c.08439-.04904.22047-.0452.3077.00517z" fill="#475e68"/></g></g><g enable-background="new"><g><path d="m24.33442 31.90712.0004-.14278c-.00009.0323.02135.06409.06129.08714l-.00041.14278c-.03993-.02305-.06137-.05484-.06128-.08714z" fill="#768c95"/></g><g><path d="m26.47596 31.81273-.00041.14279c-.00008.03108-.01951.06183-.05977.08522l.00041-.14278c.04025-.0234.05968-.05415.05977-.08523z" fill="#768c95"/></g><g><path d="m25.29077 32.36801-.00041.14279-.89465-.51653.0004-.14278z" fill="#768c95"/></g><g><path d="m26.41619 31.89795-.00041.14278-.81556.47396.0004-.14278z" fill="#768c95"/></g><g><path d="m25.60062 32.37191-.0004.14278c-.08668.05037-.22487.04517-.30985-.00389l.0004-.14278c.08498.04906.22317.05426.30985.00389z" fill="#768c95"/></g><g><path d="m26.40845 31.71848c.08499.04907.09213.13042.00774.17947l-.81557.47396c-.08668.05037-.22487.04517-.30985-.0039l-.89465-.51653c-.07828-.0452-.08549-.12394.0012-.17431l.81557-.47396c.08439-.04904.22264-.04646.30092-.00126z" fill="#475e68"/></g></g><g enable-background="new"><g><path d="m23.30479 32.85499.0004-.14278c-.00009.03333.02244.06693.06633.09227l-.0004.14278c-.0439-.02534-.06643-.05894-.06633-.09227z" fill="#768c95"/></g><g><path d="m25.44877 32.76002-.00041.14279c-.00008.03106-.02109.06219-.06386.08705l.0004-.14278c.04278-.02486.06378-.056.06387-.08706z" fill="#768c95"/></g><g><path d="m25.3849 32.84708-.0004.14278-.81557.47396.0004-.14278z" fill="#768c95"/></g><g><path d="m24.26618 33.32101-.0004.14278-.89467-.51653.00041-.14279z" fill="#768c95"/></g><g><path d="m24.56933 33.32104-.0004.14278c-.08439.04904-.21816.04905-.30315-.00002l.00041-.14278c.08498.04906.21875.04906.30314.00002z" fill="#768c95"/></g><g><path d="m25.38387 32.67149c.08499.04906.08772.12522.00103.17559l-.81557.47396c-.08439.04904-.21816.04904-.30315-.00003l-.89467-.51654c-.08499-.04906-.08988-.12913-.00549-.17817l.81557-.47396c.08668-.05037.22262-.04647.30761.0026z" fill="#475e68"/></g></g><g enable-background="new"><g><path d="m21.27931 33.23021.0004-.14278c-.00009.03191.02183.06397.06514.08898l-.0004.14278c-.04331-.025-.06523-.05706-.06514-.08898z" fill="#768c95"/></g><g><path d="m23.4257 33.13187-.0004.14278c-.00009.03271-.02108.06536-.06299.08972l.0004-.14278c.04191-.02435.0629-.05701.06299-.08972z" fill="#768c95"/></g><g><path d="m22.23951 33.69294-.0004.14278-.89465-.51653.0004-.14278z" fill="#768c95"/></g><g><path d="m23.36271 33.22159-.00041.14279-.81774.47521.00041-.14278z" fill="#768c95"/></g><g><path d="m22.54497 33.69681-.0004.14278c-.08439.04904-.22047.0452-.30546-.00387l.00041-.14278c.08498.04907.22106.05291.30545.00387z" fill="#768c95"/></g><g><path d="m23.36166 33.04082c.08499.04907.08544.13173.00105.18077l-.81774.47522c-.08439.04904-.22047.0452-.30545-.00387l-.89465-.51653c-.085-.04908-.08759-.12529-.0032-.17434l.81774-.47522c.08439-.04905.22261-.05165.30761-.00257z" fill="#475e68"/></g></g><g enable-background="new"><g><path d="m29.10162 31.45161.0004-.14278c-.00009.03174.02017.06373.06236.08809l-.00041.14278c-.04218-.02435-.06244-.05635-.06235-.08809z" fill="#768c95"/></g><g><path d="m31.0242 31.47563-.00041.14279c-.00009.03154-.02167.06314-.06423.08787l.0004-.14278c.04256-.02474.06415-.05634.06424-.08788z" fill="#768c95"/></g><g><path d="m30.95996 31.5635-.0004.14278-.59989.34862.0004-.14278z" fill="#768c95"/></g><g><path d="m30.05905 31.91346-.00041.14278-.89467-.51653.00041-.14279z" fill="#768c95"/></g><g><path d="m30.36007 31.91212-.0004.14278c-.08005.04652-.21604.05041-.30103.00134l.0004-.14278c.08499.04907.22098.04518.30103-.00134z" fill="#768c95"/></g><g><path d="m30.96129 31.38913c.08499.04907.08318.12526-.00133.17437l-.59989.34862c-.08005.04652-.21604.05041-.30103.00134l-.89467-.51654c-.08499-.04907-.08096-.12914-.00091-.17566l.59989-.34862c.08451-.04911.21828-.04911.30327-.00004z" fill="#475e68"/></g></g><g enable-background="new"><g><path d="m27.66004 32.29058.0004-.14278c-.00009.03164.02019.06313.06184.08718l-.0004.14278c-.04166-.02404-.06193-.05554-.06184-.08718z" fill="#768c95"/></g><g><path d="m29.80308 32.18649-.00041.14278c-.00009.03081-.02109.06158-.06304.08595l.0004-.14278c.04196-.02437.06297-.05514.06305-.08595z" fill="#768c95"/></g><g><path d="m29.74005 32.27244-.00041.14278-.81774.47522.00041-.14278z" fill="#768c95"/></g><g><path d="m28.61694 32.75152-.0004.14278-.89467-.51653.0004-.14278z" fill="#768c95"/></g><g><path d="m28.92231 32.74766-.00041.14278c-.08439.04904-.22038.05293-.30536.00386l.0004-.14278c.08499.04907.22098.04518.30537-.00386z" fill="#768c95"/></g><g><path d="m29.73909 32.0994c.08499.04906.08535.12399.00096.17304l-.81774.47522c-.08439.04904-.22038.05293-.30537.00386l-.89467-.51654c-.08499-.04907-.08096-.12915.00343-.17819l.81774-.47522c.08439-.04904.21599-.04778.30098.00129z" fill="#475e68"/></g></g><g enable-background="new"><g><path d="m25.70799 32.69954.0004-.14278c-.00009.03266.02192.06503.06325.08889l-.00041.14278c-.04132-.02386-.06334-.05623-.06324-.08889z" fill="#768c95"/></g><g><path d="m27.85007 32.60538-.00041.14278c-.00009.03115-.02002.06188-.06058.08545l.00041-.14278c.04055-.02357.06049-.0543.06058-.08545z" fill="#768c95"/></g><g><path d="m26.66407 33.16089-.00041.14278-.89242-.51524.0004-.14278z" fill="#768c95"/></g><g><path d="m27.78949 32.69083-.00041.14278-.81557.47396.00041-.14279z" fill="#768c95"/></g><g><path d="m26.97392 33.16478-.00041.14278c-.08668.05037-.22262.04647-.30985-.0039l.0004-.14278c.08724.05037.22318.05428.30986.0039z" fill="#768c95"/></g><g><path d="m27.78175 32.51136c.08723.05037.09213.13042.00774.17947l-.81557.47396c-.08668.05037-.22262.04647-.30985-.00389l-.89242-.51524c-.08051-.04649-.08772-.12522-.00103-.17559l.81557-.47396c.08439-.04904.22264-.04646.30315.00002z" fill="#475e68"/></g></g><g enable-background="new"><g><path d="m24.67243 33.6433.0004-.14278c-.0001.03408.02306.06858.06752.09425l-.0004.14278c-.04446-.02566-.06762-.06016-.06752-.09425z" fill="#768c95"/></g><g><path d="m26.81646 33.54843-.00041.14278c-.00009.03114-.02164.06245-.06498.08764l.0004-.14278c.04335-.02518.06491-.05649.06499-.08764z" fill="#768c95"/></g><g><path d="m26.75148 33.63607-.0004.14279-.81557.47396.0004-.14279z" fill="#768c95"/></g><g><path d="m25.63501 34.11131-.00041.14278-.89465-.51653.00041-.14278z" fill="#768c95"/></g><g><path d="m25.93591 34.11003-.0004.14278c-.08439.04904-.21592.05034-.30091.00127l.0004-.14278c.085.04907.21652.04777.30091-.00127z" fill="#768c95"/></g><g><path d="m26.75269 33.46178c.08499.04907.08547.12392-.00121.1743l-.81557.47396c-.08439.04904-.21592.05034-.30091.00127l-.89465-.51653c-.085-.04908-.09214-.13043-.00775-.17947l.81557-.47396c.08668-.05037.22487-.04517.30987.0039z" fill="#475e68"/></g></g><g enable-background="new"><g><path d="m22.66046 34.02885.0004-.14278c-.00009.03118.02125.06241.064.08709l-.0004.14278c-.04275-.02468-.06409-.05591-.064-.08709z" fill="#768c95"/></g><g><path d="m24.8035 33.92475-.00041.14278c-.00009.03292-.02223.066-.06526.09101l.0004-.14278c.04304-.02501.06518-.05809.06527-.09101z" fill="#768c95"/></g><g><path d="m23.61952 34.48969-.00041.14278-.89465-.51653.0004-.14278z" fill="#768c95"/></g><g><path d="m24.73824 34.01575-.00041.14279-.81774.47521.00041-.14278z" fill="#768c95"/></g><g><path d="m23.9205 34.49097-.00041.14278c-.08439.04904-.21598.04779-.30098-.00129l.00041-.14278c.085.04908.21659.05034.30098.00129z" fill="#768c95"/></g><g><path d="m24.74166 33.83757c.085.04908.08096.12915-.00343.17819l-.81774.47522c-.08439.04904-.21598.04779-.30098-.00129l-.89465-.51653c-.08499-.04907-.08536-.124-.00097-.17305l.81774-.47522c.08439-.04904.22039-.05292.30538-.00385z" fill="#475e68"/></g></g><g enable-background="new"><g><path d="m17.24854 32.4437.0004-.14278c-.0001.03408.02306.06858.06751.09424l-.00041.14278c-.04444-.02567-.06759-.06016-.0675-.09424z" fill="#768c95"/></g><g><path d="m19.39518 32.34296-.00041.14278c-.0001.03374-.02345.06786-.06758.0935l.0004-.14278c.04413-.02564.06749-.05976.06759-.0935z" fill="#768c95"/></g><g><path d="m19.32759 32.43646-.0004.14278-.81557.47396.00041-.14278z" fill="#768c95"/></g><g><path d="m18.21112 32.91169-.0004.14278-.89467-.51653.00041-.14279z" fill="#768c95"/></g><g><path d="m18.51203 32.91042-.00041.14278c-.08439.04905-.21592.05034-.3009.00127l.0004-.14278c.08499.04907.21652.04777.30091-.00127z" fill="#768c95"/></g><g><path d="m19.33544 32.25831c.08499.04907.07655.12911-.00784.17815l-.81557.47396c-.08439.04904-.21592.05034-.30091.00127l-.89467-.51654c-.08499-.04906-.09213-.13042-.00774-.17947l.81557-.47396c.08439-.04904.2315-.04903.31649.00004z" fill="#475e68"/></g></g><g enable-background="new"><g><path d="m30.47185 32.24206.0004-.14278c-.00009.03211.01959.06406.05872.08665l-.0004.14278c-.03912-.02258-.05881-.05453-.05872-.08665z" fill="#768c95"/></g><g><path d="m32.39538 32.27235-.0004.14278c-.00009.03111-.01955.06188-.05987.08532l.0004-.14278c.04033-.02343.05978-.05421.05987-.08532z" fill="#768c95"/></g><g><path d="m31.42563 32.70246-.00041.14278-.89465-.51653.0004-.14278z" fill="#768c95"/></g><g><path d="m32.33551 32.35767-.00041.14278-.59989.34863.00041-.14279z" fill="#768c95"/></g><g><path d="m31.73562 32.70629-.00041.14278c-.08005.04652-.22499.04524-.30999-.00383l.0004-.14278c.08501.04907.22995.05035.31.00383z" fill="#768c95"/></g><g><path d="m32.32788 32.17813c.085.04908.09214.13043.00763.17955l-.59989.34862c-.08005.04652-.22499.04524-.30999-.00383l-.89465-.51653c-.07828-.0452-.07873-.12786.00132-.17438l.59989-.34862c.08451-.04911.22276-.04653.30104-.00133z" fill="#475e68"/></g></g><g enable-background="new"><g><path d="m29.03028 33.0811.0004-.14278c-.00009.03198.01959.06338.05819.08567l-.00041.14278c-.0386-.02228-.05827-.05368-.05818-.08567z" fill="#768c95"/></g><g><path d="m31.17436 32.98321-.00041.14278c-.00008.03036-.01904.06032-.05876.0834l.0004-.14278c.03972-.02308.05868-.05304.05877-.0834z" fill="#768c95"/></g><g><path d="m29.98352 33.54052-.0004.14278-.89466-.51653.00041-.14278z" fill="#768c95"/></g><g><path d="m31.11559 33.06661-.0004.14278-.81774.47522.0004-.14278z" fill="#768c95"/></g><g><path d="m30.29785 33.54183-.0004.14278c-.08439.04904-.22933.04776-.31433-.00131l.0004-.14278c.08501.04907.22994.05035.31433.00131z" fill="#768c95"/></g><g><path d="m31.10567 32.8884c.085.04908.09431.12917.00992.17822l-.81774.47522c-.08439.04904-.22933.04776-.31433-.00131l-.89465-.51653c-.07828-.0452-.07873-.12786.00566-.1769l.81774-.47522c.08439-.04904.22047-.0452.29875 0z" fill="#475e68"/></g></g><g enable-background="new"><g><path d="m27.0821 33.49221.0004-.14278c-.00009.03307.02197.06573.06244.0891l-.0004.14278c-.04047-.02337-.06254-.05604-.06244-.0891z" fill="#768c95"/></g><g><path d="m29.22362 33.3978-.00041.14278c-.00009.03121-.02002.06218-.06083.0859l.0004-.14278c.04082-.02371.06075-.05468.06084-.0859z" fill="#768c95"/></g><g><path d="m28.0396 33.95505-.00041.14278-.89465-.51652.0004-.14279z" fill="#768c95"/></g><g><path d="m29.16279 33.4837-.00041.14278-.81556.47396.0004-.14278z" fill="#768c95"/></g><g><path d="m28.34722 33.95766-.0004.14278c-.08668.05037-.22262.04647-.30762-.00261l.00041-.14278c.08499.04908.22093.05298.30761.00261z" fill="#768c95"/></g><g><path d="m29.15728 33.30552c.085.04908.0899.12914.00551.17818l-.81557.47396c-.08668.05037-.22262.04647-.30762-.00261l-.89465-.51653c-.07828-.0452-.08771-.12522-.00103-.17559l.81557-.47396c.08439-.04904.22487-.04517.30315.00003z" fill="#475e68"/></g></g><g enable-background="new"><g><path d="m26.0402 34.43427.0004-.14278c-.0001.03333.02244.06694.06633.09229l-.0004.14278c-.04389-.02535-.06642-.05895-.06633-.09229z" fill="#768c95"/></g><g><path d="m28.18306 34.33744-.00041.14278c-.00008.03115-.02163.06246-.06498.08765l.0004-.14278c.04335-.0252.0649-.05651.06499-.08765z" fill="#768c95"/></g><g><path d="m28.11808 34.42508-.00041.14278-.81557.47396.00041-.14278z" fill="#768c95"/></g><g><path d="m27.0016 34.90031-.0004.14278-.89467-.51654.00041-.14278z" fill="#768c95"/></g><g><path d="m27.30251 34.89904-.0004.14278c-.08439.04904-.21592.05034-.30091.00127l.0004-.14278c.08499.04907.21652.04777.30091-.00127z" fill="#768c95"/></g><g><path d="m28.11929 34.25078c.08499.04906.08547.12392-.00121.1743l-.81557.47396c-.08439.04904-.21592.05034-.30091.00127l-.89467-.51653c-.08499-.04907-.0899-.12914-.00551-.17818l.81557-.47396c.08668-.05037.22264-.04646.30762.00261z" fill="#475e68"/></g></g><g enable-background="new"><g><path d="m31.8429 33.03492.0004-.14278c-.00008.03138.0202.06312.06321.08796l-.0004.14278c-.04302-.02484-.0633-.05658-.06321-.08796z" fill="#768c95"/></g><g><path d="m33.7652 33.0594-.00041.14278c-.00009.03145-.02111.06286-.06311.08727l.0004-.14278c.04201-.02441.06303-.05582.06312-.08727z" fill="#768c95"/></g><g><path d="m33.70209 33.14667-.00041.14278-.59989.34862.00041-.14278z" fill="#768c95"/></g><g><path d="m32.79893 33.49533-.00041.14278-.89242-.51523.0004-.14279z" fill="#768c95"/></g><g><path d="m33.1022 33.49529-.0004.14278c-.08005.04652-.21827.04912-.30327.00005l.0004-.14278c.085.04907.22322.04647.30327-.00005z" fill="#768c95"/></g><g><path d="m33.70118 32.971c.085.04908.08542.12655.00091.17566l-.59989.34862c-.08005.04652-.21827.04912-.30327.00005l-.89242-.51524c-.08723-.05037-.08096-.12915-.00091-.17567l.59989-.34862c.08451-.04911.21604-.05041.30327-.00004z" fill="#475e68"/></g></g><g enable-background="new"><g><path d="m30.4013 33.87386.0004-.14278c-.00009.03128.02022.06255.0627.08707l-.00041.14278c-.04247-.02452-.06278-.05578-.06269-.08707z" fill="#768c95"/></g><g><path d="m32.54411 33.77026-.00041.14278c-.00008.03071-.02055.0613-.06194.08535l.0004-.14278c.0414-.02405.06186-.05464.06195-.08535z" fill="#768c95"/></g><g><path d="m32.48217 33.85561-.0004.14278-.81774.47522.0004-.14278z" fill="#768c95"/></g><g><path d="m31.35682 34.33339-.0004.14278-.89243-.51524.00041-.14278z" fill="#768c95"/></g><g><path d="m31.66443 34.33083-.0004.14278c-.08439.04904-.22261.05164-.30761.00257l.0004-.14278c.08501.04907.22322.04647.30761-.00257z" fill="#768c95"/></g><g><path d="m32.47897 33.68127c.085.04908.08759.12529.0032.17433l-.81774.47522c-.08439.04904-.22261.05164-.30761.00257l-.89242-.51524c-.08723-.05037-.08096-.12915.00343-.17819l.81774-.47522c.08439-.04904.21375-.04908.30098.00129z" fill="#475e68"/></g></g><g enable-background="new"><g><path d="m28.45406 34.28751.0004-.14278c-.00008.03114.02129.06213.06378.08666l-.0004.14278c-.04249-.02452-.06387-.05551-.06378-.08666z" fill="#768c95"/></g><g><path d="m30.5981 34.19265-.00041.14278c-.00009.03108-.01952.06182-.05977.08522l.0004-.14278c.04027-.02339.05969-.05413.05978-.08522z" fill="#768c95"/></g><g><path d="m29.4129 34.74792-.00041.14279-.89465-.51653.0004-.14278z" fill="#768c95"/></g><g><path d="m30.53833 34.27787-.0004.14278-.81557.47396.0004-.14278z" fill="#768c95"/></g><g><path d="m29.72276 34.75183-.0004.14278c-.08668.05037-.22487.04517-.30987-.0039l.00041-.14278c.085.04907.22319.05427.30986.0039z" fill="#768c95"/></g><g><path d="m30.53058 34.0984c.085.04908.09214.13043.00775.17947l-.81557.47396c-.08668.05037-.22487.04517-.30987-.00391l-.89465-.51653c-.08499-.04907-.08548-.12394.0012-.17431l.81557-.47396c.08439-.04904.21593-.05033.30092-.00126z" fill="#475e68"/></g></g><g enable-background="new"><g><path d="m27.40679 35.22328.0004-.14278c-.00009.03333.02244.06694.06634.09228l-.0004.14278c-.0439-.02535-.06643-.05895-.06634-.09228z" fill="#768c95"/></g><g><path d="m29.55077 35.12831-.00041.14278c-.00009.03106-.02109.0622-.06386.08706l.0004-.14278c.04278-.02486.06378-.05599.06387-.08706z" fill="#768c95"/></g><g><path d="m29.4869 35.21537-.0004.14278-.81557.47396.00041-.14278z" fill="#768c95"/></g><g><path d="m28.36819 35.6893-.00041.14278-.89465-.51652.0004-.14278z" fill="#768c95"/></g><g><path d="m28.67134 35.68933-.0004.14278c-.08439.04904-.21816.04904-.30315-.00003l.0004-.14278c.08498.04907.21875.04907.30315.00003z" fill="#768c95"/></g><g><path d="m29.48587 35.03978c.08499.04907.08771.12523.00103.1756l-.81557.47395c-.08439.04905-.21816.04905-.30315-.00002l-.89465-.51653c-.085-.04908-.0899-.12914-.00551-.17818l.81557-.47396c.08668-.05037.22262-.04647.30762.00261z" fill="#475e68"/></g></g><g enable-background="new"><g><path d="m33.21035 33.82378.0004-.14278c-.00009.03173.02017.06373.06236.08809l-.00041.14278c-.04219-.02435-.06245-.05634-.06235-.08809z" fill="#768c95"/></g><g><path d="m35.13632 33.85355-.00041.14279c-.00009.03123-.02005.06223-.06093.08599l.0004-.14278c.04089-.02376.06085-.05477.06094-.086z" fill="#768c95"/></g><g><path d="m34.16775 34.28563-.0004.14278-.89466-.51653.00041-.14278z" fill="#768c95"/></g><g><path d="m35.07539 33.93954-.0004.14278-.5999.34863.00041-.14279z" fill="#768c95"/></g><g><path d="m34.4755 34.28816-.0004.14278c-.08005.04652-.22274.04654-.30775-.00254l.0004-.14278c.085.04908.2277.04906.30775.00254z" fill="#768c95"/></g><g><path d="m35.07 33.7613c.085.04908.0899.12914.00539.17825l-.59989.34862c-.08005.04652-.22274.04654-.30775-.00254l-.89465-.51653c-.08499-.04906-.08096-.12914-.00092-.17566l.59989-.34862c.08451-.04911.21828-.04911.30327-.00005z" fill="#475e68"/></g></g><g enable-background="new"><g><path d="m31.76876 34.66275.0004-.14278c-.00009.03164.02018.06313.06183.08718l-.0004.14278c-.04165-.02404-.06192-.05553-.06183-.08718z" fill="#768c95"/></g><g><path d="m33.91528 34.56441-.0004.14278c-.00009.03049-.01953.06067-.0598.08408l.0004-.14278c.04026-.02341.05971-.05359.0598-.08408z" fill="#768c95"/></g><g><path d="m33.85547 34.64848-.0004.14278-.81774.47522.0004-.14278z" fill="#768c95"/></g><g><path d="m32.72565 35.12368-.00041.14279-.89465-.51653.00041-.14278z" fill="#768c95"/></g><g><path d="m33.03773 35.1237-.00041.14278c-.08439.04904-.22708.04906-.31208-.00002l.0004-.14278c.08501.04908.2277.04906.31209.00002z" fill="#768c95"/></g><g><path d="m33.84779 34.47157c.085.04908.09207.12788.00768.17692l-.81774.47522c-.08439.04904-.22709.04906-.31209-.00002l-.89464-.51653c-.08499-.04907-.08096-.12915.00343-.17819l.81774-.47522c.08439-.04904.21599-.04778.30098.00129z" fill="#475e68"/></g></g><g enable-background="new"><g><path d="m29.82764 35.07995.0004-.14278c-.00009.03151.02184.06305.06573.08839l-.0004.14278c-.04389-.02533-.06582-.05688-.06573-.08839z" fill="#768c95"/></g><g><path d="m31.9714 34.98553-.0004.14278c-.00009.03108-.01952.06182-.05977.08522l.0004-.14278c.04026-.02339.05968-.05414.05977-.08522z" fill="#768c95"/></g><g><path d="m30.7862 35.5408-.00041.14278-.89242-.51524.0004-.14278z" fill="#768c95"/></g><g><path d="m31.91163 35.07075-.0004.14278-.81557.47396.00041-.14279z" fill="#768c95"/></g><g><path d="m31.09607 35.5447-.0004.14278c-.08668.05037-.22487.04517-.30987-.00391l.0004-.14278c.085.04909.22319.05429.30987.00391z" fill="#768c95"/></g><g><path d="m31.90388 34.89127c.085.04908.09214.13043.00775.17948l-.81557.47395c-.08668.05037-.22487.04517-.30987-.0039l-.89242-.51524c-.08722-.05035-.08771-.12522-.00103-.1756l.81557-.47395c.08439-.04905.21593-.05033.30315.00002z" fill="#475e68"/></g></g><g enable-background="new"><g><path d="m28.77444 36.01159.0004-.14278c-.00009.03408.02307.06859.06752.09425l-.00041.14278c-.04445-.02566-.06761-.06016-.06751-.09425z" fill="#768c95"/></g><g><path d="m30.91598 35.91721-.00041.14279c-.00008.031-.02002.06248-.06248.08716l.00041-.14278c.04246-.02468.06239-.05616.06248-.08717z" fill="#768c95"/></g><g><path d="m30.8535 36.00438-.00041.14278-.81556.47396.0004-.14279z" fill="#768c95"/></g><g><path d="m29.73701 36.4796-.0004.14278-.89466-.51653.00041-.14278z" fill="#768c95"/></g><g><path d="m30.03793 36.47833-.0004.14278c-.08439.04904-.22264.04646-.30092.00126l.0004-.14278c.07828.0452.21653.04778.30092-.00126z" fill="#768c95"/></g><g><path d="m30.8547 35.83007c.07828.0452.08548.12393-.0012.1743l-.81557.47396c-.08439.04904-.22264.04646-.30092.00126l-.89465-.51653c-.08499-.04907-.09214-.13044-.00775-.17948l.81557-.47396c.08668-.05037.22488-.04516.30987.00391z" fill="#475e68"/></g></g><g enable-background="new"><g><path d="m34.58139 34.61272.0004-.14278c-.0001.03325.02126.06701.0646.09203l-.0004.14278c-.04334-.02502-.06469-.05878-.0646-.09203z" fill="#768c95"/></g><g><path d="m36.50621 34.64068-.00041.14278c-.00008.03154-.02167.06314-.06422.08787l.0004-.14278c.04256-.02473.06415-.05633.06423-.08787z" fill="#768c95"/></g><g><path d="m36.44199 34.72855-.00041.14278-.59989.34862.0004-.14278z" fill="#768c95"/></g><g><path d="m35.54105 35.0785-.0004.14278-.89465-.51653.0004-.14278z" fill="#768c95"/></g><g><path d="m35.84209 35.07717-.0004.14278c-.08005.04652-.21604.05041-.30104.00133l.0004-.14278c.08501.04908.22099.04519.30104-.00133z" fill="#768c95"/></g><g><path d="m36.4433 34.55417c.085.04908.08319.12527-.00132.17438l-.59989.34862c-.08005.04652-.21604.05041-.30104.00133l-.89465-.51653c-.08499-.04907-.08544-.13173-.00539-.17825l.59989-.34862c.08451-.04911.22276-.04653.30774.00254z" fill="#475e68"/></g></g><g enable-background="new"><g><path d="m33.13985 35.45176.0004-.14278c-.0001.03315.02127.06635.06404.09105l-.0004.14278c-.04277-.02469-.06413-.0579-.06404-.09105z" fill="#768c95"/></g><g><path d="m35.2851 35.35154-.00041.14278c-.00008.03081-.02109.06158-.06303.08595l.0004-.14278c.04195-.02438.06296-.05514.06304-.08595z" fill="#768c95"/></g><g><path d="m35.22207 35.43749-.00041.14278-.81774.47522.00041-.14279z" fill="#768c95"/></g><g><path d="m34.09895 35.91656-.0004.14278-.89466-.51653.00041-.14278z" fill="#768c95"/></g><g><path d="m34.40433 35.9127-.0004.14278c-.08439.04904-.22038.05293-.30538.00385l.0004-.14278c.085.04909.22099.0452.30538-.00385z" fill="#768c95"/></g><g><path d="m35.22109 35.26444c.085.04908.08537.12401.00098.17305l-.81774.47522c-.08439.04904-.22038.05293-.30538.00386l-.89465-.51653c-.08499-.04907-.08544-.13173-.00105-.18077l.81774-.47522c.08439-.04904.22047-.0452.30545.00387z" fill="#475e68"/></g></g><g enable-background="new"><g><path d="m24.03699 34.81984.0004-.14278c-.00009.03341.02305.06718.06748.09284l-.0004.14278c-.04444-.02564-.06758-.05943-.06748-.09284z" fill="#768c95"/></g><g><path d="m26.18352 34.7215-.00041.14278c-.00009.03292-.02223.066-.06526.091l.0004-.14278c.04304-.025.06517-.05807.06527-.091z" fill="#768c95"/></g><g><path d="m24.99954 35.28644-.00041.14279-.89466-.51654.0004-.14278z" fill="#768c95"/></g><g><path d="m26.11826 34.81251-.00041.14278-.81774.47522.00041-.14278z" fill="#768c95"/></g><g><path d="m25.30052 35.28773-.0004.14278c-.08439.04904-.21599.04778-.30098-.00129l.0004-.14278c.08498.04907.21659.05033.30098.00129z" fill="#768c95"/></g><g><path d="m26.12168 34.63432c.08499.04907.08096.12915-.00343.17819l-.81774.47522c-.08439.04904-.21599.04778-.30098-.00129l-.89467-.51654c-.08499-.04907-.09207-.12788-.00768-.17692l.81774-.47522c.08439-.04904.2271-.04905.31208.00002z" fill="#475e68"/></g></g><g enable-background="new"><g><path d="m25.4165 35.61749.0004-.14278c-.00009.0327.02191.06535.06351.08936l-.0004.14278c-.0416-.02401-.0636-.05665-.06351-.08936z" fill="#768c95"/></g><g><path d="m27.56099 35.52001-.00041.14279c-.00009.03265-.02108.06504-.06272.08924l.0004-.14278c.04165-.02421.06263-.05659.06273-.08925z" fill="#768c95"/></g><g><path d="m26.37284 36.07932-.00041.14278-.89242-.51524.00041-.14278z" fill="#768c95"/></g><g><path d="m27.49826 35.60926-.0004.14278-.81774.47522.0004-.14279z" fill="#768c95"/></g><g><path d="m26.68052 36.08447-.0004.14278c-.08439.04904-.22045.04521-.30768-.00516l.0004-.14278c.08723.05037.22329.0542.30768.00516z" fill="#768c95"/></g><g><path d="m27.49498 35.4272c.08723.05037.08767.13302.00328.18206l-.81774.47522c-.08439.04904-.22045.04521-.30768-.00515l-.89242-.51524c-.08053-.04649-.08759-.12529-.0032-.17433l.81774-.47522c.08439-.04904.22708-.04906.30761-.00257z" fill="#475e68"/></g></g><g enable-background="new"><g><path d="m26.79488 36.41462.0004-.14278c-.00009.03191.02183.06398.06514.08898l-.0004.14278c-.04332-.025-.06523-.05706-.06514-.08898z" fill="#768c95"/></g><g><path d="m28.94127 36.31628-.00041.14278c-.00009.03271-.02108.06536-.063.08973l.0004-.14278c.04192-.02437.06291-.05702.06301-.08973z" fill="#768c95"/></g><g><path d="m27.75509 36.87736-.00041.14278-.89466-.51654.0004-.14278z" fill="#768c95"/></g><g><path d="m28.87827 36.406-.00041.14279-.81774.47521.00041-.14278z" fill="#768c95"/></g><g><path d="m28.06053 36.88122-.0004.14278c-.08439.04904-.22045.04521-.30544-.00386l.0004-.14278c.08498.04907.22105.0529.30544.00386z" fill="#768c95"/></g><g><path d="m28.87723 36.22524c.08499.04907.08542.13172.00103.18076l-.81774.47522c-.08439.04904-.22045.0452-.30544-.00386l-.89467-.51654c-.08499-.04907-.08759-.12529-.0032-.17434l.81774-.47522c.08439-.04904.22262-.05163.30761-.00257z" fill="#475e68"/></g></g><g enable-background="new"><g><path d="m18.64315 33.25015.0004-.14278c-.00009.03333.02245.06694.06634.09228l-.0004.14278c-.0439-.02534-.06644-.05895-.06634-.09228z" fill="#768c95"/></g><g><path d="m26.22882 36.29293-.00041.14278c-.00009.03339-.02162.06661-.0638.09112l.0004-.14278c.04219-.02451.06372-.05773.06381-.09112z" fill="#768c95"/></g><g><path d="m25.0396 36.85411-.00041.14278-6.32971-3.65446.0004-.14278z" fill="#768c95"/></g><g><path d="m26.16502 36.38405-.0004.14278-.81557.47396.0004-.14278z" fill="#768c95"/></g><g><path d="m25.34945 36.85801-.0004.14278c-.08439.04904-.22262.04647-.30985-.00389l.0004-.14278c.08723.05036.22546.05293.30985.00389z" fill="#768c95"/></g><g><path d="m26.16391 36.20073c.08723.05036.0855.13428.00111.18332l-.81557.47396c-.08439.04904-.22262.04647-.30985-.0039l-6.32971-3.65446c-.08499-.04907-.0899-.12914-.00551-.17818l.81557-.47396c.08439-.04904.22927-.05031.31425-.00125z" fill="#475e68"/></g></g><g enable-background="new"><g><path d="m25.46274 37.18998.0004-.14278c-.00009.03183.02127.06372.06404.08842l-.00041.14278c-.04276-.02469-.06412-.05658-.06403-.08842z" fill="#768c95"/></g><g><path d="m27.60911 37.08917-.00041.14278c-.00009.03345-.02163.06695-.06409.09162l.00041-.14278c.04246-.02467.064-.05817.06409-.09162z" fill="#768c95"/></g><g><path d="m26.42185 37.65215-.00041.14279-.89467-.51654.00041-.14278z" fill="#768c95"/></g><g><path d="m27.54502 37.1808-.0004.14278-.81557.47395.00041-.14278z" fill="#768c95"/></g><g><path d="m26.72946 37.65475-.00041.14278c-.08439.04904-.22262.04647-.30761-.0026l.0004-.14278c.08499.04907.22323.05165.30762.0026z" fill="#768c95"/></g><g><path d="m27.54616 36.99878c.08499.04906.08325.13298-.00114.18202l-.81557.47396c-.08439.04904-.22262.04647-.30761-.0026l-.89467-.51653c-.08499-.04907-.08542-.12656-.00103-.1756l.81557-.47396c.08439-.04904.22479-.05289.30978-.00383z" fill="#475e68"/></g></g><g enable-background="new"><g><path d="m31.20177 35.87268.0004-.14278c-.00009.03188.02186.06368.06491.08854l-.0004.14278c-.04306-.02485-.065-.05666-.06491-.08854z" fill="#768c95"/></g><g><path d="m33.34576 35.77773-.0004.14278c-.00009.03121-.02002.06218-.06082.08589l.0004-.14278c.0408-.02371.06073-.05468.06082-.08589z" fill="#768c95"/></g><g><path d="m32.16174 36.33497-.0004.14279-.89467-.51654.0004-.14278z" fill="#768c95"/></g><g><path d="m33.28493 35.86362-.0004.14278-.81557.47396.00041-.14278z" fill="#768c95"/></g><g><path d="m32.46937 36.33758-.00041.14278c-.08668.05037-.22264.04646-.30762-.00261l.0004-.14278c.08499.04907.22095.05298.30763.00261z" fill="#768c95"/></g><g><path d="m33.27943 35.68544c.08499.04907.0899.12914.00551.17818l-.81557.47396c-.08668.05037-.22264.04646-.30762-.00261l-.89467-.51654c-.08499-.04906-.08772-.12522-.00103-.17559l.81557-.47396c.08439-.04904.21816-.04904.30315.00003z" fill="#475e68"/></g></g><g enable-background="new"><g><path d="m30.14221 36.80257.0004-.14278c-.00009.03333.02244.06693.06632.09227l-.00041.14278c-.04387-.02533-.0664-.05894-.06631-.09227z" fill="#768c95"/></g><g><path d="m32.28257 36.7062-.00041.14279c-.00008.03101-.02002.06249-.06248.08716l.0004-.14278c.04246-.02467.0624-.05615.06249-.08717z" fill="#768c95"/></g><g><path d="m32.22008 36.79337-.0004.14278-.81557.47396.0004-.14278z" fill="#768c95"/></g><g><path d="m31.10361 37.2686-.00041.14278-.89467-.51653.00041-.14279z" fill="#768c95"/></g><g><path d="m31.40451 37.26733-.00041.14278c-.08439.04904-.22262.04647-.3009.00127l.0004-.14278c.07829.0452.21652.04777.30091-.00127z" fill="#768c95"/></g><g><path d="m32.22129 36.61907c.07829.0452.08547.12393-.00121.1743l-.81557.47396c-.08439.04904-.22262.04647-.30091.00127l-.89467-.51654c-.08499-.04907-.08988-.12913-.00549-.17817l.81557-.47396c.08668-.05037.22262-.04647.30761.0026z" fill="#475e68"/></g></g><g enable-background="new"><g><path d="m28.17488 37.21136.0004-.14278c-.00009.03192.02183.06398.06514.08899l-.00041.14278c-.0433-.02501-.06522-.05706-.06513-.08899z" fill="#768c95"/></g><g><path d="m30.318 37.10727-.00041.14279c-.00009.033-.02284.06627-.06643.0916l.00041-.14278c.04358-.02533.06633-.0586.06643-.09161z" fill="#768c95"/></g><g><path d="m30.25157 37.19888-.00041.14278-.81774.47522.00041-.14278z" fill="#768c95"/></g><g><path d="m29.13509 37.67411-.0004.14278-.89467-.51654.00041-.14278z" fill="#768c95"/></g><g><path d="m29.43383 37.6741-.0004.14278c-.08439.04904-.21375.04908-.29873.00001l.0004-.14278c.08498.04907.21434.04903.29873-.00001z" fill="#768c95"/></g><g><path d="m30.25724 37.02199c.08499.04906.07872.12785-.00567.17689l-.81774.47522c-.08439.04904-.21375.04908-.29873.00001l-.89467-.51654c-.08499-.04907-.08759-.12529-.0032-.17434l.81774-.47522c.08439-.04904.22262-.05164.30761-.00257z" fill="#475e68"/></g></g><g enable-background="new"><g><path d="m26.8763 38.0061.0004-.14278c-.00009.03184.02127.06373.06403.08842l-.0004.14278c-.04277-.0247-.06412-.05658-.06403-.08842z" fill="#768c95"/></g><g><path d="m29.02239 37.9058-.0004.14279c-.00009.03339-.02162.06661-.0638.09112l.0004-.14278c.04218-.02452.06371-.05774.0638-.09113z" fill="#768c95"/></g><g><path d="m27.83316 38.46698-.00041.14278-.89242-.51524.0004-.14278z" fill="#768c95"/></g><g><path d="m28.9586 37.99693-.00041.14278-.81557.47395.00041-.14278z" fill="#768c95"/></g><g><path d="m28.14303 38.47088-.0004.14278c-.08439.04904-.22264.04646-.30987-.00391l.0004-.14278c.08723.05037.22548.05295.30987.00391z" fill="#768c95"/></g><g><path d="m28.95747 37.81359c.08723.05037.08551.13428.00112.18333l-.81557.47395c-.08439.04905-.22264.04646-.30987-.0039l-.89242-.51524c-.08499-.04907-.08542-.12655-.00103-.1756l.81557-.47395c.08439-.04905.22479-.0529.30978-.00383z" fill="#475e68"/></g></g><g enable-background="new"><g><path d="m35.95132 35.40759.0004-.14278c-.00008.03099.01965.06214.06126.08616l-.0004.14278c-.04161-.02402-.06135-.05517-.06126-.08616z" fill="#768c95"/></g><g><path d="m37.87739 35.43739-.00041.14279c-.00008.0311-.01954.06188-.05987.08532l.0004-.14278c.04033-.02344.05979-.05422.05988-.08533z" fill="#768c95"/></g><g><path d="m36.90765 35.8675-.00041.14279-.89466-.51654.0004-.14278z" fill="#768c95"/></g><g><path d="m37.81752 35.52271-.00041.14278-.59989.34862.0004-.14278z" fill="#768c95"/></g><g><path d="m37.21762 35.87133-.00041.14278c-.08005.04652-.22499.04524-.30997-.00383l.00041-.14278c.08499.04907.22992.05035.30997.00383z" fill="#768c95"/></g><g><path d="m37.8099 35.34317c.08499.04907.09213.13042.00762.17954l-.59989.34862c-.08005.04652-.22499.04524-.30997-.00383l-.89467-.51654c-.08499-.04906-.07872-.12785.00133-.17437l.59989-.34862c.08451-.04911.21604-.05041.30103-.00134z" fill="#475e68"/></g></g><g enable-background="new"><g><path d="m34.50971 36.24652.0004-.14278c-.00009.03089.01967.06156.06076.08528l-.0004.14278c-.04109-.02371-.06085-.05438-.06076-.08528z" fill="#768c95"/></g><g><path d="m36.65636 36.14824-.00041.14278c-.00008.03036-.01905.06032-.05876.0834l.0004-.14278c.03972-.02307.05869-.05303.05877-.0834z" fill="#768c95"/></g><g><path d="m35.46555 36.70556-.00041.14279-.89467-.51654.00041-.14278z" fill="#768c95"/></g><g><path d="m36.5976 36.23165-.00041.14278-.81774.47522.00041-.14278z" fill="#768c95"/></g><g><path d="m35.77986 36.70687-.0004.14278c-.08439.04904-.22932.04776-.31431-.0013l.0004-.14278c.08498.04906.22992.05034.31431.0013z" fill="#768c95"/></g><g><path d="m36.58769 36.05344c.08499.04907.0943.12917.00991.17821l-.81774.47522c-.08439.04904-.22932.04776-.31431-.0013l-.89467-.51653c-.08499-.04907-.07872-.12785.00567-.1769l.81774-.47522c.08439-.04904.21375-.04908.29874-.00001z" fill="#475e68"/></g></g><g enable-background="new"><g><path d="m32.57507 36.66556.0004-.14278c-.00008.03188.02186.06368.0649.08854l-.0004.14278c-.04305-.02486-.06499-.05666-.0649-.08854z" fill="#768c95"/></g><g><path d="m34.71906 36.57061-.00041.14278c-.00009.03121-.02001.06218-.06082.08589l.0004-.14278c.04081-.02371.06074-.05469.06083-.08589z" fill="#768c95"/></g><g><path d="m33.53504 37.12785-.0004.14278-.89467-.51654.0004-.14278z" fill="#768c95"/></g><g><path d="m34.65823 36.6565-.0004.14278-.81557.47396.00041-.14278z" fill="#768c95"/></g><g><path d="m33.84267 37.13046-.0004.14278c-.08668.05037-.22264.04646-.30762-.00261l.0004-.14278c.08498.04906.22094.05298.30762.00261z" fill="#768c95"/></g><g><path d="m34.65273 36.47832c.08499.04907.0899.12914.00551.17818l-.81557.47395c-.08668.05038-.22264.04646-.30762-.00261l-.89467-.51654c-.08499-.04907-.08771-.12522-.00103-.1756l.81557-.47395c.08439-.04905.21816-.04905.30315.00002z" fill="#475e68"/></g></g><g enable-background="new"><g><path d="m31.50905 37.59112.0004-.14278c-.00009.03368.02301.06786.06833.09403l-.0004.14278c-.04532-.02617-.06842-.06035-.06833-.09403z" fill="#768c95"/></g><g><path d="m33.65031 37.49717-.00041.14278c-.00009.0309-.01953.06216-.06141.08649l.0004-.14278c.04189-.02433.06134-.05558.06142-.08649z" fill="#768c95"/></g><g><path d="m33.58891 37.58366-.00041.14279-.81557.47396.00041-.14279z" fill="#768c95"/></g><g><path d="m32.47019 38.0576-.00041.14278-.8924-.51523.0004-.14278z" fill="#768c95"/></g><g><path d="m32.77334 38.05762-.0004.14278c-.08439.04904-.22487.04517-.30315-.00003l.0004-.14278c.07828.0452.21876.04907.30315.00003z" fill="#768c95"/></g><g><path d="m33.58787 37.40807c.07829.0452.08772.12522.00103.17559l-.81557.47396c-.08439.04904-.22487.04517-.30315-.00002l-.89241-.51523c-.08723-.05037-.09214-.13044-.00775-.17948l.81557-.47396c.08668-.05037.22264-.04646.30987.00391z" fill="#475e68"/></g></g><g enable-background="new"><g><path d="m29.55256 38.00426.0004-.14278c-.00009.03341.02304.06719.06748.09284l-.00041.14278c-.04442-.02565-.06756-.05943-.06747-.09284z" fill="#768c95"/></g><g><path d="m31.69908 37.90591-.00041.14278c-.00009.03292-.02223.06599-.06526.091l.0004-.14278c.04304-.025.06518-.05807.06527-.091z" fill="#768c95"/></g><g><path d="m30.5151 38.47085-.00041.14278-.89465-.51652.00041-.14279z" fill="#768c95"/></g><g><path d="m31.63381 37.99692-.0004.14278-.81774.47522.00041-.14278z" fill="#768c95"/></g><g><path d="m30.81608 38.47214-.0004.14278c-.08439.04904-.21598.04779-.30098-.00129l.0004-.14278c.085.04908.21659.05033.30098.00129z" fill="#768c95"/></g><g><path d="m31.63724 37.81873c.085.04908.08096.12914-.00343.17819l-.81774.47522c-.08439.04904-.21598.04779-.30098-.00129l-.89465-.51653c-.08499-.04906-.09207-.12788-.00768-.17692l.81774-.47522c.08439-.04904.2271-.04905.31209.00002z" fill="#475e68"/></g></g><g enable-background="new"><g><path d="m28.28903 38.82237.0004-.14278c-.00009.03146.02127.0631.06488.08827l-.0004.14278c-.04361-.02517-.06497-.0568-.06488-.08827z" fill="#768c95"/></g><g><path d="m30.43595 38.72192-.0004.14278c-.0001.03339-.02162.06661-.0638.09112l.0004-.14278c.04218-.02451.06371-.05773.0638-.09112z" fill="#768c95"/></g><g><path d="m29.24672 39.28309-.00041.14279-.89241-.51524.00041-.14278z" fill="#768c95"/></g><g><path d="m30.37215 38.81304-.0004.14278-.81557.47396.0004-.14278z" fill="#768c95"/></g><g><path d="m29.55658 39.287-.0004.14278c-.08439.04904-.22264.04646-.30987-.0039l.00041-.14278c.08723.05036.22547.05294.30986.0039z" fill="#768c95"/></g><g><path d="m30.37103 38.62971c.08723.05037.08551.13429.00112.18333l-.81557.47396c-.08439.04904-.22264.04646-.30987-.00391l-.89241-.51523c-.08723-.05036-.08542-.12655-.00103-.17559l.81557-.47396c.08439-.04904.22255-.05419.30978-.00383z" fill="#475e68"/></g></g><g enable-background="new"><g><path d="m37.32154 36.19413.0004-.14278c-.0001.0336.02181.06795.06658.0938l-.0004.14278c-.04476-.02585-.06667-.0602-.06658-.0938z" fill="#768c95"/></g><g><path d="m39.24556 36.2248-.00041.14278c-.00008.03134-.02002.06284-.06144.08691l.00041-.14278c.04141-.02406.06135-.05557.06144-.08691z" fill="#768c95"/></g><g><path d="m39.18411 36.31171-.00041.14279-.59989.34862.00041-.14278z" fill="#768c95"/></g><g><path d="m38.28095 36.66038-.00041.14278-.89242-.51524.00041-.14278z" fill="#768c95"/></g><g><path d="m38.58422 36.66034-.00041.14278c-.08005.04652-.22276.04653-.30327.00005l.0004-.14278c.08052.04647.22323.04647.30328-.00005z" fill="#768c95"/></g><g><path d="m39.1832 36.13605c.08051.04648.08543.12655.00092.17566l-.59989.34862c-.08005.04652-.22276.04653-.30327.00005l-.89242-.51524c-.08723-.05037-.08767-.13302-.00762-.17954l.59989-.34862c.08451-.04911.22274-.04654.30997.00383z" fill="#475e68"/></g></g><g enable-background="new"><g><path d="m38.69236 36.98883.0004-.14278c-.00008.03174.02017.06374.06236.08809l-.0004.14278c-.0422-.02435-.06245-.05635-.06236-.08809z" fill="#768c95"/></g><g><path d="m41.01641 37.24589-.0004.14278c-.00009.03145-.02111.06286-.06311.08727l.0004-.14278c.042-.02441.06302-.05582.06311-.08727z" fill="#768c95"/></g><g><path d="m40.9533 37.33316-.0004.14278-.5999.34862.00041-.14278z" fill="#768c95"/></g><g><path d="m40.05014 37.68182-.0004.14278-1.29502-.74767.0004-.14279z" fill="#768c95"/></g><g><path d="m40.35341 37.68178-.0004.14278c-.08005.04652-.21828.04911-.30327.00005l.0004-.14278c.08499.04906.22322.04647.30327-.00005z" fill="#768c95"/></g><g><path d="m40.95239 37.15749c.08499.04907.08542.12655.00091.17567l-.59989.34862c-.08005.04652-.21828.04911-.30327.00005l-1.29502-.74768c-.085-.04908-.08096-.12914-.00092-.17566l.5999-.34862c.08451-.04911.21827-.04912.30327-.00005z" fill="#475e68"/></g></g><g enable-background="new"><g><path d="m36.00186 37.10735.0004-.14278c-.00008.03128.02022.06255.0627.08707l-.0004.14278c-.04248-.02452-.06279-.05579-.0627-.08707z" fill="#768c95"/></g><g><path d="m39.79532 37.95675-.00041.14278c-.00008.03071-.02055.0613-.06193.08535l.0004-.14278c.04139-.02405.06185-.05464.06194-.08535z" fill="#768c95"/></g><g><path d="m39.73338 38.0421-.0004.14278-.81774.47522.00041-.14279z" fill="#768c95"/></g><g><path d="m38.60804 38.51988-.00041.14279-2.54307-1.46825.0004-.14278z" fill="#768c95"/></g><g><path d="m38.91565 38.51731-.0004.14278c-.08439.04905-.22262.05164-.30761.00257l.0004-.14278c.08498.04907.22322.04648.30761-.00257z" fill="#768c95"/></g><g><path d="m39.73018 37.86776c.08499.04907.08759.12529.0032.17434l-.81774.47522c-.08439.04904-.22262.05164-.30761.00257l-2.54308-1.46824c-.08723-.05037-.08096-.12915.00343-.17819l.81774-.47522c.08439-.04904.21375-.04908.30098.00129z" fill="#475e68"/></g></g><g enable-background="new"><g><path d="m33.9495 37.46032.0004-.14278c-.00009.03114.02128.06212.06377.08665l-.0004.14278c-.04249-.02453-.06386-.05551-.06377-.08665z" fill="#768c95"/></g><g><path d="m36.09354 37.36544-.00041.14278c-.00009.03109-.01952.06183-.05977.08522l.0004-.14278c.04026-.02339.05968-.05413.05978-.08522z" fill="#768c95"/></g><g><path d="m34.90834 37.92072-.0004.14279-.89467-.51654.00041-.14278z" fill="#768c95"/></g><g><path d="m36.03376 37.45066-.0004.14278-.81557.47396.00041-.14278z" fill="#768c95"/></g><g><path d="m35.2182 37.92462-.0004.14278c-.08668.05037-.22487.04517-.30986-.00389l.0004-.14278c.08499.04906.22318.05426.30986.00389z" fill="#768c95"/></g><g><path d="m36.02603 37.2712c.08499.04906.09213.13042.00774.17947l-.81557.47395c-.08668.05037-.22487.04517-.30986-.00389l-.89466-.51654c-.08499-.04906-.08547-.12392.00121-.1743l.81557-.47396c.08439-.04904.21592-.05034.3009-.00127z" fill="#475e68"/></g></g><g enable-background="new"><g><path d="m35.27023 38.22161.0004-.14278c-.00009.03188.02185.06368.06491.08854l-.0004.14278c-.04306-.02486-.065-.05666-.06491-.08854z" fill="#768c95"/></g><g><path d="m38.46315 38.72972-.00041.14278c-.00009.03143-.02108.06281-.063.08718l.0004-.14278c.04193-.02437.06291-.05575.06301-.08718z" fill="#768c95"/></g><g><path d="m38.40014 38.81689-.0004.14278-.81557.47396.00041-.14278z" fill="#768c95"/></g><g><path d="m37.28143 39.29082-.00041.14279-1.94588-1.12346.0004-.14278z" fill="#768c95"/></g><g><path d="m37.58458 39.29085-.0004.14278c-.08668.05037-.21816.04904-.30315-.00003l.0004-.14278c.08498.04907.21646.0504.30315.00003z" fill="#768c95"/></g><g><path d="m38.39911 38.6413c.08499.04907.08543.12655.00103.17559l-.81557.47396c-.08668.05037-.21816.04905-.30315-.00002l-1.94588-1.12346c-.085-.04908-.08772-.12522-.00103-.17559l.81557-.47396c.08439-.04904.21815-.04905.30315.00002z" fill="#475e68"/></g></g><g enable-background="new"><g><path d="m32.87569 38.38128.0004-.14278c-.00009.03302.02135.06577.06156.08899l-.0004.14278c-.04021-.02321-.06165-.05597-.06156-.08899z" fill="#768c95"/></g><g><path d="m37.13077 39.50463-.0004.14278c-.00009.03106-.02109.06219-.06387.08706l.0004-.14278c.04278-.02486.06378-.056.06387-.08706z" fill="#768c95"/></g><g><path d="m37.0669 39.59169-.0004.14278-.81557.47396.00041-.14279z" fill="#768c95"/></g><g><path d="m35.94818 40.06562-.0004.14278-3.01053-1.73813.00041-.14278z" fill="#768c95"/></g><g><path d="m36.25134 40.06564-.0004.14278c-.08439.04904-.21816.04904-.30315-.00003l.0004-.14278c.08498.04908.21875.04908.30315.00003z" fill="#768c95"/></g><g><path d="m37.06587 39.41609c.08499.04907.08772.12522.00103.17559l-.81557.47396c-.08439.04904-.21816.04904-.30315-.00002l-3.01053-1.73813c-.07828-.0452-.08542-.12656-.00103-.1756l.81557-.47396c.08668-.05037.22486-.04517.30315.00003z" fill="#475e68"/></g></g><g enable-background="new"><g><path d="m30.95941 38.81651.0004-.14278c-.00009.0334.02304.06718.06748.09284l-.0004.14278c-.04444-.02565-.06757-.05944-.06748-.09284z" fill="#768c95"/></g><g><path d="m35.80109 40.27422-.0004.14278c-.00009.03292-.02223.06599-.06526.091l.0004-.14278c.04303-.02501.06517-.05808.06526-.091z" fill="#768c95"/></g><g><path d="m34.61712 40.83915-.00041.14278-3.58982-2.07258.00041-.14278z" fill="#768c95"/></g><g><path d="m35.73583 40.36522-.0004.14278-.81774.47522.0004-.14278z" fill="#768c95"/></g><g><path d="m34.91809 40.84044-.0004.14278c-.08439.04905-.21599.04778-.30098-.00129l.0004-.14278c.08499.04907.21659.05033.30098.00129z" fill="#768c95"/></g><g><path d="m35.73926 40.18703c.08499.04906.08096.12914-.00343.17818l-.81774.47522c-.08439.04904-.21599.04778-.30098-.00129l-3.58982-2.07258c-.085-.04908-.09207-.12788-.00768-.17692l.81774-.47522c.08439-.04904.22708-.04906.31208.00002z" fill="#475e68"/></g></g><g enable-background="new"><g><path d="m29.64628 39.56834.0004-.14278c-.00009.03084.01969.06127.06052.08485l-.0004.14278c-.04084-.02357-.06061-.054-.06052-.08485z" fill="#768c95"/></g><g><path d="m31.13701 39.84154-.00041.14278c-.00009.03145-.02111.06286-.0631.08727l.0004-.14278c.042-.02441.06302-.05582.06311-.08727z" fill="#768c95"/></g><g><path d="m31.0739 39.92881-.0004.14278-.16215.09423.0004-.14278z" fill="#768c95"/></g><g><path d="m30.60185 40.02694-.0004.14278-.89465-.51653.0004-.14278z" fill="#768c95"/></g><g><path d="m30.91175 40.02304-.0004.14278c-.08668.05037-.22491.05296-.3099.00389l.0004-.14278c.08499.04907.22322.04648.3099-.00389z" fill="#768c95"/></g><g><path d="m31.07299 39.75314c.08499.04907.08542.12656.00091.17567l-.16215.09423c-.08668.05037-.22491.05297-.3099.0039l-.89465-.51653c-.085-.04908-.07873-.12786.00795-.17823l.16215-.09423c.08451-.04911.21604-.05041.30104-.00133z" fill="#475e68"/></g></g><g enable-background="new"><g><path d="m31.63724 39.95982.0004-.14278c-.00009.03188.02182.06367.06484.0885l-.0004.14278c-.04302-.02483-.06494-.05662-.06484-.0885z" fill="#768c95"/></g><g><path d="m33.13459 40.24053-.00041.14279c-.00009.03123-.02005.06223-.06093.08599l.0004-.14278c.04089-.02377.06085-.05477.06094-.086z" fill="#768c95"/></g><g><path d="m32.59715 40.42208-.00041.14278-.89467-.51654.00041-.14278z" fill="#768c95"/></g><g><path d="m33.07365 40.32653-.0004.14278-.16878.09808.00041-.14278z" fill="#768c95"/></g><g><path d="m32.90488 40.42461-.00041.14278c-.08668.05037-.22274.04654-.30773-.00253l.0004-.14278c.08499.04907.22106.0529.30774.00253z" fill="#768c95"/></g><g><path d="m33.06828 40.14828c.08499.04907.08988.12913.00537.17824l-.16878.09808c-.08668.05037-.22274.04654-.30773-.00253l-.89467-.51654c-.08499-.04907-.08759-.12529-.00091-.17567l.16878-.09808c.08451-.04911.21828-.04911.30327-.00005z" fill="#475e68"/></g></g><g enable-background="new"><g><path d="m30.98721 40.34126.0004-.14278c-.00008.03159.02019.06283.06157.08672l-.0004.14278c-.04139-.02389-.06166-.05513-.06157-.08672z" fill="#768c95"/></g><g><path d="m32.48129 40.62019-.0004.14278c-.00009.03123-.02005.06223-.06093.08599l.0004-.14278c.04088-.02376.06084-.05476.06093-.08599z" fill="#768c95"/></g><g><path d="m32.42036 40.70618-.00041.14278-.16215.09424.00041-.14279z" fill="#768c95"/></g><g><path d="m31.94385 40.80173-.00041.14279-.89467-.51654.00041-.14278z" fill="#768c95"/></g><g><path d="m32.25821 40.80041-.0004.14278c-.08668.05037-.22937.05039-.31436.00132l.0004-.14278c.08499.04907.22768.04905.31436-.00132z" fill="#768c95"/></g><g><path d="m32.41498 40.52794c.08499.04906.08989.12913.00537.17824l-.16215.09423c-.08668.05037-.22937.05039-.31436.00132l-.89467-.51654c-.08499-.04906-.08096-.12914.00572-.17952l.16215-.09423c.08451-.04911.21828-.04911.30327-.00004z" fill="#475e68"/></g></g><g enable-background="new"><g><path d="m32.33176 41.11434.0004-.14278c-.0001.03346.02182.06697.06571.09231l-.0004.14278c-.04389-.02534-.0658-.05885-.06571-.09231z" fill="#768c95"/></g><g><path d="m33.82545 41.39371-.00041.14279c-.00008.03144-.0211.06286-.0631.08727l.0004-.14278c.04201-.02442.06303-.05583.06311-.08728z" fill="#768c95"/></g><g><path d="m33.76235 41.48098-.00041.14278-.16214.09423.0004-.14278z" fill="#768c95"/></g><g><path d="m33.2903 41.57911-.00041.14278-.89242-.51524.00041-.14278z" fill="#768c95"/></g><g><path d="m33.6002 41.57521-.0004.14278c-.08668.05037-.22491.05297-.3099.0039l.0004-.14278c.08499.04907.22322.04647.3099-.0039z" fill="#768c95"/></g><g><path d="m33.76144 41.30532c.08499.04906.08542.12655.00091.17566l-.16215.09423c-.08668.05037-.22491.05297-.3099.0039l-.89242-.51524c-.08723-.05036-.08767-.13301-.00099-.18339l.16215-.09423c.08451-.04911.22274-.04654.30997.00383z" fill="#475e68"/></g></g></g><g><g enable-background="new"><g><path d="m43.21908 20.10515-.04465 17.18606.4741-.27552.04727-17.18941c.00682-.45677-.32008-1.02184-.7219-1.25348l-21.36142-12.33518c-.20427-.11562-.38817-.12254-.52435-.04722l-.47672.27927c.12941-.08183.31322-.06839.51758.04722l21.36819 12.33518c.395.23165.7219.79672.7219 1.25308z" fill="#475e68"/></g><g><path d="m42.49444 18.85314c.40001.23094.72508.79386.72378 1.2536l-.04514 17.18448-22.82142-13.25675.04721-17.10221c.0013-.45974.32847-.64608.73287-.4126z" fill="#3f535c"/></g><path d="m21.03413 23.78021.04523-16.50463 21.45917 12.38926-.04523 16.5048z" fill="#28b9fc"/></g></g></g></g></g><g><g><g enable-background="new"><g><path d="m40.25967 13.45875.47699-.27719-.06806 19.25581-.47698.27718z" fill="#b0b8bc"/></g><g><path d="m23.27421 3.65219.47698-.27719 16.98547 9.80656-.47699.27719z" fill="#dde4e7"/></g></g></g><g><g><path d="m23.27421 3.65344 16.98114 9.80407-.06806 19.2558-16.98114-9.80407zm14.55788 20.17585c.34135.19708.6188.03889.61991-.35332.00111-.3922-.27452-.87457-.61587-1.07165-.34568-.19958-.62313-.03653-.62424.35567-.0005.17536.05449.36792.14622.545l-2.5459 2.54276c-.08368-.09742-.17831-.17983-.27876-.23783-.13271-.07661-.25631-.09968-.35801-.07638l-1.87786-3.25239c.04658-.07293.07315-.17118.07349-.29187.00111-.3922-.27452-.86971-.6202-1.06929-.34135-.19708-.61878-.03887-.61989.35332-.00034.11961.02514.2471.07026.37218l-2.68357 1.53296c-.1035-.14879-.23248-.27588-.37307-.35704-.12402-.0716-.23955-.09593-.33651-.07961l-1.33368-2.31306c.07483-.0739.11945-.19195.11989-.34737.00111-.3922-.27882-.87705-.62017-1.07413-.34138-.19709-.61881-.03404-.61992.35816-.00111.39221.27451.86972.61588 1.06681.09818.05668.19139.08405.27445.08506l1.36098 2.35445c-.05104.07387-.08045.17614-.08081.30302-.00111.3922.27451.87457.61586 1.07165.34567.19957.62313.03652.62424-.35568.00031-.11017-.02122-.22703-.05999-.34249l2.69276-1.53468c.09921.13606.21944.25162.34926.32657.13047.07533.25117.09968.351.07962l1.88031 3.26027c-.04364.07221-.06861.16842-.06894.28559-.00111.39221.27885.87222.6202 1.0693s.6188.03889.61991-.35332c.00044-.15488-.04139-.32203-.1126-.47971l2.55952-2.56134c.07256.07561.15213.14043.23585.18877m-12.84299-8.49415-.00073.25833.96788.55881-.00211.74454.22038.12723.00211-.74454 7.06899 4.08129.00073-.25833-.69135-.39916.01415-4.98983-.71727-.41412-.01415 4.98983-.89011-.5139.00911-3.21224-.71727-.41412-.00911 3.21224-.89011-.5139.01415-4.98982-.71726-.41411-.01414 4.98983-.89011-.5139.0078-2.75054-.71726-.41411-.0078 2.75054-.83826-.48397.01731-6.10691-.22038-.12723-.01731 6.10691zm12.21332 4.65921-1.72836-.99787.00563-1.9858c-.95493-.55132-1.72657-.10673-1.72968.99042-.0031 1.09229.76351 2.42528 1.71843 2.9766.95492.55133 1.73088.10894 1.73398-.98335m2.15971-4.59641.00155-.54628-15.2355-8.79622-.00155.54628zm.00317-1.11708.00154-.54145-15.23551-8.79621-.00153.54145zm-15.24029-7.10834-.00153.54143 6.72764 3.88421.00154-.54143zm13.13416 11.12401-1.22248.70154 1.72404.99537c.00155-.54601-.18714-1.15733-.50156-1.69691m-1.50333.53939 1.22247-.70154c-.31008-.54219-.73722-1.00762-1.21684-1.28452z" fill="#cfd8dd"/></g><g><path d="m25.97287 19.4541c.12962.07484.23299.25377.23256.40273-.00041.14384-.10445.2033-.23407.12846-.12531-.07235-.22868-.25155-.22827-.3954.00043-.14895.10447-.20814.22978-.13579z" fill="#fff"/></g><g><path d="m25.97414 19.00723c.34135.19708.62129.68193.62017 1.07413-.00044.15543-.04506.27348-.11989.34737-.05968.0589-.13858.0897-.22988.08853-.08306-.00101-.17627-.02838-.27445-.08506-.34138-.19709-.617-.6746-.61588-1.06681.00112-.3922.27855-.55526.61993-.35816zm-.00278.97809c.12962.07483.23366.01538.23407-.12848.00042-.14895-.10294-.32789-.23256-.40273-.12531-.07235-.22935-.01316-.22978.1358-.0004.14385.10296.32305.22827.39541" fill="#ee534f"/></g><g><path d="m26.24455 20.51726c.09129.00117.1702-.02962.22988-.08853l1.33368 2.31306c-.08355.0141-.15322.05859-.20258.12992z" fill="#3f535c"/></g><g><path d="m28.70482 23.54821c.03877.11546.06031.23232.05999.34249-.00111.3922-.27857.55525-.62424.35568-.34135-.19708-.61697-.67945-.61586-1.07165.00036-.12688.02977-.22916.08081-.30302.04936-.07133.11904-.11582.20258-.12992.09696-.01632.21248.00801.33651.07961.14059.08117.26957.20825.37307.35704.07952.11418.14402.24126.18714.36977zm-.56298.25127c.12963.07484.23366.01564.23408-.13331.00042-.14897-.10294-.32304-.23257-.39788-.1253-.07234-.22933-.01801-.22975.13096-.00043.14895.10294.32789.22824.40023" fill="#7db343"/></g><g><path d="m32.09785 22.41972c.08332-.01666.15205-.06412.19974-.13858l1.87786 3.25239c-.08261.01922-.15066.06896-.19729.14646z" fill="#3f535c"/></g><g><path d="m31.74963 21.36201c.12962.07484.23299.25377.23256.40273-.00042.14896-.10445.2033-.23407.12846-.1253-.07234-.22868-.24643-.22826-.39539.00043-.14895.10447-.20814.22977-.1358z" fill="#fff"/></g><g><path d="m31.75087 20.91998c.34568.19958.62131.67709.6202 1.06929-.00034.12069-.02691.21894-.07349.29187-.04768.07446-.11642.12192-.19974.13858-.09982.02007-.22053-.00429-.351-.07962-.12983-.07495-.25005-.19051-.34926-.32657-.08212-.11243-.14974-.23889-.19633-.36805-.04513-.12508-.0706-.25257-.07026-.37218.00111-.39219.27853-.5504.61988-.35332zm-.00276.97323c.12963.07484.23366.02051.23408-.12846.00042-.14896-.10294-.32789-.23257-.40273-.12529-.07234-.22933-.01315-.22975.13581-.00043.14896.10295.32304.22824.39538" fill="#28b9fc"/></g><g><path d="m31.20125 21.64548c.04659.12915.11421.25562.19633.36805l-2.69276 1.53468c-.04312-.12851-.10762-.25558-.18714-.36977z" fill="#3f535c"/></g><g enable-background="new"><g><path d="m25.95414 16.89681.00211-.74454.22037.12723-.00211.74454z" fill="#b0b8bc"/></g><g><path d="m33.24636 20.10246-.00074.25832-7.06899-4.08128-.22037-.12723-.96788-.55881.00073-.25832.96788.5588.22037.12723.83826.48397.71726.41411.89011.51391.71726.41411.89011.5139.71727.41411.8901.51391.71728.41412z" fill="#b0b8bc"/></g></g><g><path d="m27.74068 14.1687-.0078 2.75055-.71726-.41411.0078-2.75055z" fill="#28b9fc"/></g><g><path d="m30.95673 15.56304-.0091 3.21224-.71727-.41411.00911-3.21225z" fill="#fed44c"/></g><g enable-background="new"><g><path d="m25.97429 9.78703.22038.12724-.01731 6.10691-.22038-.12724z" fill="#b0b8bc"/></g><g><path d="m29.3544 12.85744-.01415 4.98983-.71726-.41411.01415-4.98983z" fill="#7db343"/></g><g><path d="m32.56916 14.71348-.01415 4.98983-.71728-.41412.01415-4.98983z" fill="#ee534f"/></g><g><path d="m30.85266 11.05672-.00153.54144-6.72765-3.88421.00154-.54144z" fill="#dde4e7"/></g><g><path d="m39.36369 14.85165-.00155.54629-15.2355-8.79622.00155-.54629z" fill="#dde4e7"/></g><g><path d="m39.36684 13.73942-.00154.54144-15.2355-8.79622.00154-.54144z" fill="#768c95"/></g></g><g><path d="m34.53219 26.05679c.12531.07235.22866.25128.22824.40024-.00041.14411-.10443.20331-.22975.13096-.12962-.07484-.23299-.25377-.23258-.39789.00043-.14896.10447-.20815.23409-.13331z" fill="#fff"/></g><g><path d="m35.03673 26.20185c.07121.15768.11304.32483.1126.47971-.00111.39221-.27856.5504-.61991.35332s-.62132-.67709-.6202-1.0693c.00033-.11717.0253-.21338.06894-.28559.04663-.07749.11469-.12724.19729-.14646.1017-.0233.2253-.00023.35801.07638.10044.05799.19507.14041.27876.23783.08981.10448.16682.2261.22451.35411zm-.50605.38614c.12531.07235.22933.01316.22974-.13096.00042-.14895-.10292-.32788-.22823-.40023-.12963-.07484-.23367-.01565-.23409.1333-.00042.14412.10295.32305.23258.39789" fill="#ffa914"/></g><g><path d="m37.83487 22.85119c.12531.07235.22866.25128.22824.40024-.00041.14411-.10443.20331-.22975.13096-.12962-.07484-.23299-.25377-.23258-.39789.00042-.14896.10446-.20814.23409-.13331z" fill="#fff"/></g><g><path d="m37.83613 22.40432c.34135.19708.61699.67945.61587 1.07165-.00111.39221-.27856.5504-.61991.35332-.08372-.04834-.16328-.11316-.23584-.18878-.09304-.09716-.17445-.2127-.23814-.33553-.09173-.17708-.14672-.36964-.14622-.545.00111-.39219.27856-.55524.62424-.35566zm-.00278.97807c.12532.07235.22933.01316.22974-.13096.00042-.14896-.10292-.32788-.22823-.40023-.12963-.07484-.23367-.01565-.23409.1333-.00041.14413.10295.32305.23258.39789" fill="#ee534f"/></g><g><path d="m35.47969 17.01067-.00563 1.9858 1.72836.99787c-.0031 1.0923-.77906 1.53468-1.73398.98335-.95491-.55132-1.72152-1.8843-1.71842-2.9766.00311-1.09714.77476-1.54174 1.72967-.99042z" fill="#7db343"/></g><g><path d="m37.35811 23.30498c.06368.12283.14509.23837.23814.33553l-2.55952 2.56134c-.05769-.12801-.13469-.24964-.22452-.35411z" fill="#3f535c"/></g><g><path d="m28.14335 23.26828c.12964.07485.233.24892.23258.39789-.00042.14896-.10445.20816-.23409.13331-.1253-.07234-.22867-.25128-.22824-.40024.00042-.14896.10445-.2033.22975-.13096z" fill="#fff"/></g><g><path d="m35.76147 16.84985c.47961.27691.90676.74234 1.21684 1.28453l-1.22247.70154z" fill="#fed44c"/></g><g><path d="m37.25917 18.29653c.31442.53957.50312 1.1509.50157 1.69692l-1.72404-.99537z" fill="#28b9fc"/></g></g></g></g></svg>