<svg id="Layer_1" viewBox="0 0 168 168" xmlns="http://www.w3.org/2000/svg" data-name="Layer 1"><path d="m100.00031 52.6875a2 2 0 1 0 0 4h4a2 2 0 1 0 0-4z" fill="#0bceb2"/><path d="m53.99994 100.6875a4 4 0 0 0 -4 4v10a4 4 0 0 0 4 4h10a4 4 0 0 0 4-4v-10a4 4 0 0 0 -4-4zm10 14h-10v-10h10z" fill="#0bceb2"/><path d="m75.99994 100.6875a4 4 0 0 0 -4 4v10a4 4 0 0 0 4 4h10a4 4 0 0 0 4-4v-10a4 4 0 0 0 -4-4zm10 14h-10v-10h10z" fill="#2d4356"/><path d="m115.00031 103.6875h-19a2 2 0 0 0 0 4h19a2 2 0 1 0 0-4z" fill="#2d4356"/><path d="m115.00031 111.6875h-19a2 2 0 0 0 0 4h19a2 2 0 1 0 0-4z" fill="#0bceb2"/><path d="m114.20685 56.6875a24.78193 24.78193 0 0 1 3.6394-1.23163 1.99887 1.99887 0 0 0 -1.84595-2.76837h-4a2 2 0 0 0 0 4z" fill="#0bceb2"/><path d="m102.65417 92.6875h-48.65423v-20h46.00458a24.82442 24.82442 0 0 1 1.55225-4h-47.55683a4 4 0 0 0 -4 4v20a4 4 0 0 0 4 4h51.69232a25.14778 25.14778 0 0 1 -3.03809-4z" fill="#0bceb2"/><path d="m124.00031 118.6875a2.0001 2.0001 0 0 0 2-2v-16.10138a20.99256 20.99256 0 0 0 18.03522-27.1875l-3.2942 3.43138a17.02425 17.02425 0 1 1 -6.42676-10.63361l2.78168-2.89752a20.98886 20.98886 0 1 0 -15.09595 37.28735v16.10128a2.0001 2.0001 0 0 0 2.00001 2z" fill="#2d4356"/><path d="m147.38507 61.24512a1.99764 1.99764 0 0 0 -2.82715.05762l-22.58692 23.52734-7.55664-7.55664a1.99979 1.99979 0 0 0 -2.82812 2.82813l9 9a2.00025 2.00025 0 0 0 1.41406.58594h.02051a2.00137 2.00137 0 0 0 1.42188-.61523l24-25a1.9985 1.9985 0 0 0 -.05762-2.82716z" fill="#0bceb2"/><circle cx="2" cy="146.688" fill="#2d4356" r="2"/><path d="m11 144.6875h-3a2 2 0 0 0 0 4h3a2 2 0 0 0 0-4z" fill="#2d4356"/><path d="m118.15387 152.6875h-8.30774a2.00641 2.00641 0 0 0 0 4h8.30774a2.00641 2.00641 0 0 0 0-4z" fill="#0bceb2"/><path d="m58.15387 152.6875h-8.30774a2.00641 2.00641 0 0 0 0 4h8.30774a2.00641 2.00641 0 0 0 0-4z" fill="#0bceb2"/><path d="m104 152.6875h-40a2 2 0 0 0 0 4h15.94v2h-7.94a2 2 0 0 0 0 4h25a2 2 0 0 0 0-4h-8.94v-2h15.94a2 2 0 0 0 0-4z" fill="#0bceb2"/><g fill="#2d4356"><path d="m160 144.6875h-3a2 2 0 0 0 0 4h3a2 2 0 0 0 0-4z"/><circle cx="166" cy="146.688" r="2"/><path d="m150.72131 144.6875h-2.72937a3.99325 3.99325 0 0 0 -1.44635-3.08539l-12.12-10a3.992 3.992 0 0 0 -.48419-.33362 3.963 3.963 0 0 0 .05853-.581v-28.09368a24.79229 24.79229 0 0 1 -4 1.3609v26.73279h-92v-50h4.00037v44a2 2 0 0 0 4 0v-60h58.01324a25.21368 25.21368 0 0 1 3.76544-4h-61.77867v-10a2.00261 2.00261 0 0 1 2-2h72a2.00261 2.00261 0 0 1 2 2v4.08716c.66046-.05255 1.32593-.08716 1.99963-.08716.674 0 1.33966.03461 2.00037.08722v-4.08722a6.00656 6.00656 0 0 0 -6-6h-72a6.00656 6.00656 0 0 0 -6 6v26h-4.00037a4 4 0 0 0 -4 4v50a3.963 3.963 0 0 0 .05853.581 3.992 3.992 0 0 0 -.48419.33362l-12.12 10a3.99344 3.99344 0 0 0 -1.44635 3.08539h-2.72924a2.017 2.017 0 1 0 0 4h133.44262a2.017 2.017 0 1 0 0-4zm-126.72137 0 12.12-10h95.76l12.12 10z"/><path d="m94.00031 38.02411a3 3 0 1 0 -3-3 3.00344 3.00344 0 0 0 3 3zm0-4.5a1.5 1.5 0 1 1 -1.5 1.5 1.50148 1.50148 0 0 1 1.5-1.5z"/><path d="m160.30471 50.6875a2 2 0 1 0 2 2 2.00229 2.00229 0 0 0 -2-2zm0 3a1 1 0 1 1 1-1 1.001 1.001 0 0 1 -1 1z"/><path d="m60 5.3125a2 2 0 1 0 2 2 2.00229 2.00229 0 0 0 -2-2zm0 3a1 1 0 1 1 1-1 1.001 1.001 0 0 1 -1 1z"/><path d="m134.33333 33.02411a2 2 0 1 0 2 2 2.00229 2.00229 0 0 0 -2-2zm0 3a1 1 0 1 1 1-1 1.001 1.001 0 0 1 -1 1z"/><path d="m15 58.32486a2 2 0 1 0 -2 2 2.00229 2.00229 0 0 0 2-2zm-3 0a1 1 0 1 1 1 1 1.001 1.001 0 0 1 -1-1z"/></g><path d="m9.915 12.8 1.487-1.956-.939-.531-.954 2.189h-.032l-.969-2.174-.956.548 1.472 1.909v.031l-2.301-.298v1.064l2.316-.297v.032l-1.487 1.908.892.564 1.018-2.207h.03l.939 2.191.986-.563-1.502-1.878v-.031l2.362.281v-1.064l-2.362.313z" fill="#0bceb2"/><path d="m33.829 26.155-.857 1.099.514.325.586-1.271h.018l.54 1.261.568-.324-.865-1.081v-.018l1.361.162v-.613l-1.361.18v-.018l.856-1.126-.54-.306-.55 1.261h-.018l-.558-1.252-.551.315.848 1.1v.018l-1.325-.172v.613l1.334-.171z" fill="#0bceb2"/><path d="m162.029 16.31v-1.043l-2.317.306v-.03l1.458-1.918-.921-.522-.936 2.148h-.031l-.951-2.133-.937.537 1.443 1.873v.03l-2.256-.291v1.043l2.271-.291v.03l-1.458 1.872.875.553.998-2.164h.03l.921 2.149.967-.553-1.473-1.842v-.03z" fill="#0bceb2"/><path d="m106.044 9.1 1.258-1.654-.795-.45-.807 1.853h-.027l-.82-1.84-.809.463 1.245 1.615v.027l-1.947-.252v.9l1.96-.251v.027l-1.258 1.614.755.477.861-1.867h.026l.794 1.854.835-.477-1.271-1.589v-.026l1.998.238v-.9l-1.998.265z" fill="#0bceb2"/></svg>