<svg height="512" viewBox="0 0 64 64" width="512" xmlns="http://www.w3.org/2000/svg"><g id="Layer_2_copy"><path d="m1.103 7.724h61.793v46.345h-61.793z" fill="#efefef" transform="matrix(0 1 -1 0 62.897 -1.103)"/><path d="m13.241 11.85h37.517v13.727h-37.517z" fill="#999"/><path d="m13.241 43.629h37.517v13.727h-37.517z" fill="#999"/><path d="m13.241 27.74h37.517v13.727h-37.517z" fill="#999"/><path d="m30.897 39.724h2.207v46.345h-2.207z" transform="matrix(0 1 -1 0 94.897 30.897)"/><path d="m28.261-19.454h7.436v46.345h-7.436z" transform="matrix(0 1 -1 0 35.697 -28.261)"/><g fill="#fff"><path d="m13.209 2.702h13.759v.736h-13.759z"/><path d="m13.209 3.999h10.537v.736h-10.537z"/><path d="m33.531 3.999h2.7v.736h-2.7z"/><path d="m37.155 3.999h2.7v.736h-2.7z"/><path d="m40.779 3.999h2.7v.736h-2.7z"/><path d="m44.403 3.999h2.7v.736h-2.7z"/><path d="m48.026 3.999h2.7v.736h-2.7z"/></g></g></svg>