<svg id="Layer_1" enable-background="new 0 0 74 74" height="512" viewBox="0 0 74 74" width="512" xmlns="http://www.w3.org/2000/svg" xmlns:xlink="http://www.w3.org/1999/xlink"><linearGradient id="lg1"><stop offset="0" stop-color="#696c70"/><stop offset="1" stop-color="#3f444c"/></linearGradient><linearGradient id="SVGID_1_" gradientUnits="userSpaceOnUse" x1="1.56" x2="60.568" xlink:href="#lg1" y1="-1.43" y2="63.032"/><linearGradient id="lg2"><stop offset="0" stop-color="#fff"/><stop offset="1" stop-color="#eff2f8"/></linearGradient><linearGradient id="SVGID_2_" gradientUnits="userSpaceOnUse" x1="24.017" x2="40.311" xlink:href="#lg2" y1="12.968" y2="54.57"/><linearGradient id="SVGID_3_" gradientUnits="userSpaceOnUse" x1="10.339" x2="10.369" y1="9.081" y2="12.073"><stop offset="0" stop-color="#ffdc85"/><stop offset="1" stop-color="#fc3"/></linearGradient><linearGradient id="lg3"><stop offset="0" stop-color="#9ce3ff"/><stop offset="1" stop-color="#6cf"/></linearGradient><linearGradient id="SVGID_4_" gradientUnits="userSpaceOnUse" x1="14.704" x2="14.734" xlink:href="#lg3" y1="9.081" y2="12.073"/><linearGradient id="lg4"><stop offset="0" stop-color="#ff7171"/><stop offset="1" stop-color="#f33"/></linearGradient><linearGradient id="SVGID_5_" gradientUnits="userSpaceOnUse" x1="19.069" x2="19.098" xlink:href="#lg4" y1="9.081" y2="12.073"/><linearGradient id="SVGID_6_" gradientUnits="userSpaceOnUse" x1="15.226" x2="19.138" xlink:href="#lg4" y1="19.014" y2="29.361"/><linearGradient id="SVGID_7_" gradientUnits="userSpaceOnUse" x1="17.097" x2="18.015" xlink:href="#lg2" y1="23.365" y2="28.661"/><linearGradient id="SVGID_8_" gradientUnits="userSpaceOnUse" x1="13.271" x2="13.607" xlink:href="#lg2" y1="21.855" y2="23.794"/><linearGradient id="lg5"><stop offset="0" stop-color="#947bff"/><stop offset="1" stop-color="#63f"/></linearGradient><linearGradient id="SVGID_9_" gradientUnits="userSpaceOnUse" x1="47.687" x2="51.598" xlink:href="#lg5" y1="19.014" y2="29.361"/><linearGradient id="SVGID_10_" gradientUnits="userSpaceOnUse" x1="49.558" x2="50.476" xlink:href="#lg2" y1="23.365" y2="28.661"/><linearGradient id="SVGID_11_" gradientUnits="userSpaceOnUse" x1="45.732" x2="46.068" xlink:href="#lg2" y1="21.855" y2="23.794"/><linearGradient id="lg6"><stop offset="0" stop-color="#ffa04a"/><stop offset="1" stop-color="#f60"/></linearGradient><linearGradient id="SVGID_12_" gradientUnits="userSpaceOnUse" x1="46.87" x2="59.942" xlink:href="#lg6" y1="40.834" y2="63.962"/><linearGradient id="SVGID_13_" gradientUnits="userSpaceOnUse" x1="60.128" x2="49.821" xlink:href="#lg6" y1="62.642" y2="47.559"/><linearGradient id="SVGID_14_" gradientUnits="userSpaceOnUse" x1="49.963" x2="58.307" xlink:href="#lg2" y1="45.165" y2="61.939"/><linearGradient id="SVGID_15_" gradientUnits="userSpaceOnUse" x1="53.986" x2="55.24" xlink:href="#lg4" y1="50.244" y2="56.332"/><linearGradient id="SVGID_16_" gradientUnits="userSpaceOnUse" x1="54.036" x2="54.99" xlink:href="#lg1" y1="53.247" y2="55.3"/><linearGradient id="SVGID_17_" gradientUnits="userSpaceOnUse" x1="54.33" x2="54.876" xlink:href="#lg3" y1="53.879" y2="55.056"/><linearGradient id="SVGID_18_" gradientUnits="userSpaceOnUse" x1="51.695" x2="57.753" xlink:href="#lg5" y1="58.025" y2="58.025"/><linearGradient id="SVGID_19_" gradientUnits="userSpaceOnUse" x1="16.896" x2="23.861" xlink:href="#lg3" y1="35.987" y2="54.408"/><linearGradient id="SVGID_20_" gradientTransform="matrix(.707 -.707 .707 .707 -197.507 -1151.595)" gradientUnits="userSpaceOnUse" x1="-695.672" x2="-691.249" y1="994.789" y2="1009.795"><stop offset="0" stop-color="#555a60"/><stop offset="1" stop-color="#3f444c"/></linearGradient><linearGradient id="SVGID_21_" gradientTransform="matrix(.707 -.707 .707 .707 -197.507 -1151.595)" gradientUnits="userSpaceOnUse" x1="-692.626" x2="-693.876" xlink:href="#lg1" y1="1002.805" y2="1002.805"/><linearGradient id="SVGID_22_" gradientTransform="matrix(.707 .707 -.707 .707 -669.819 942.316)" gradientUnits="userSpaceOnUse" x1="-146.054" x2="-142.905" xlink:href="#lg4" y1="-1118.583" y2="-1116.297"/><linearGradient id="SVGID_23_" gradientTransform="matrix(.707 .707 -.707 .707 -669.819 942.316)" gradientUnits="userSpaceOnUse" x1="-144.097" x2="-143.728" xlink:href="#lg4" y1="-1121.15" y2="-1119.489"/><linearGradient id="SVGID_24_" gradientTransform="matrix(.707 .707 .707 -.707 -262.27 534.767)" gradientUnits="userSpaceOnUse" x1="-144.059" x2="-143.691" xlink:href="#lg4" y1="538.584" y2="536.925"/><linearGradient id="SVGID_25_" gradientTransform="matrix(.707 .707 -.707 .707 -669.819 942.316)" gradientUnits="userSpaceOnUse" x1="-144.248" x2="-144.883" xlink:href="#lg4" y1="-1116.976" y2="-1116.976"/><linearGradient id="SVGID_26_" gradientTransform="matrix(.707 .707 -.707 .707 -669.819 942.316)" gradientUnits="userSpaceOnUse" x1="-142.597" x2="-143.59" xlink:href="#lg4" y1="-1116.976" y2="-1116.976"/><g><g><path d="m62.9 7.51v52.89c0 1.38-1.12 2.51-2.51 2.51h-52.88c-1.39 0-2.51-1.13-2.51-2.51v-52.89c0-1.38 1.12-2.51 2.51-2.51h52.89c1.38 0 2.5 1.13 2.5 2.51z" fill="url(#SVGID_1_)"/><path d="m7.51 61.1c-.38 0-.7-.31-.7-.7v-44.13c0-.39.31-.7.7-.7h52.89c.39 0 .7.31.7.7v44.13c0 .39-.31.7-.7.7z" fill="url(#SVGID_2_)"/><g><g><path d="m11.85 10.58c0 .83-.68 1.49-1.49 1.49-.83 0-1.5-.66-1.5-1.49s.68-1.5 1.5-1.5c.81 0 1.49.68 1.49 1.5z" fill="url(#SVGID_3_)"/><path d="m16.21 10.58c0 .83-.68 1.49-1.49 1.49-.83 0-1.5-.66-1.5-1.49s.68-1.5 1.5-1.5 1.49.68 1.49 1.5z" fill="url(#SVGID_4_)"/><path d="m20.58 10.58c0 .83-.68 1.49-1.49 1.49-.83 0-1.5-.66-1.5-1.49s.68-1.5 1.5-1.5c.81 0 1.49.68 1.49 1.5z" fill="url(#SVGID_5_)"/></g><path d="m59.04 10.58c0 .7-.58 1.27-1.28 1.27h-32.62c-.7 0-1.28-.57-1.28-1.27s.58-1.28 1.28-1.28h32.63c.7 0 1.27.58 1.27 1.28z" fill="#3f444c"/></g></g><g><g><path d="m57.12 48.34h-20.98c-.33 0-.61-.27-.61-.61s.27-.61.61-.61h20.98c.33 0 .61.27.61.61s-.28.61-.61.61z" fill="#cdd5e0"/></g><g><path d="m57.12 44.64h-20.98c-.33 0-.61-.27-.61-.61s.27-.61.61-.61h20.98c.33 0 .61.27.61.61s-.28.61-.61.61z" fill="#cdd5e0"/></g><g><path d="m57.12 55.76h-20.98c-.33 0-.61-.27-.61-.61s.27-.61.61-.61h20.98c.33 0 .61.27.61.61s-.28.61-.61.61z" fill="#cdd5e0"/></g><g><path d="m57.12 52.05h-20.98c-.33 0-.61-.27-.61-.61s.27-.61.61-.61h20.98c.33 0 .61.27.61.61s-.28.61-.61.61z" fill="#cdd5e0"/></g><g><path d="m57.12 40.93h-20.98c-.33 0-.61-.27-.61-.61 0-.33.27-.61.61-.61h20.98c.33 0 .61.27.61.61-.01.34-.28.61-.61.61z" fill="#cdd5e0"/></g></g><g><path d="m40.92 30.26h-13.94c-.33 0-.61-.27-.61-.61s.27-.61.61-.61h13.94c.33 0 .61.27.61.61s-.27.61-.61.61z" fill="#cdd5e0"/></g><g><path d="m40.92 25.97h-13.94c-.33 0-.61-.27-.61-.61s.27-.61.61-.61h13.94c.33 0 .61.27.61.61s-.27.61-.61.61z" fill="#cdd5e0"/></g><g><path d="m54.12 34.56h-40.34c-.33 0-.61-.27-.61-.61s.27-.61.61-.61h40.33c.33 0 .61.27.61.61s-.27.61-.6.61z" fill="#cdd5e0"/></g><g><path d="m40.92 21.67h-13.94c-.33 0-.61-.27-.61-.61 0-.33.27-.61.61-.61h13.94c.33 0 .61.27.61.61s-.27.61-.61.61z" fill="#cdd5e0"/></g><g><g><path d="m25.26 21.34v8.56c0 .48-.39.88-.88.88h-13.33c-.48 0-.88-.39-.88-.88v-8.56c0-.48.39-.88.88-.88h13.33c.49 0 .88.39.88.88z" fill="url(#SVGID_6_)"/><g><path d="m24.01 29.37h-11.75l3.28-4.83 1.47 2.16-.73 2.17 3.71-5.46z" fill="url(#SVGID_7_)"/><path d="m14.41 22.84c0 .53-.42.97-.97.97-.53 0-.97-.44-.97-.97 0-.55.44-1 .97-1 .55 0 .97.44.97 1z" fill="url(#SVGID_8_)"/></g></g><g><path d="m57.72 21.34v8.56c0 .48-.39.88-.88.88h-13.32c-.48 0-.88-.39-.88-.88v-8.56c0-.48.39-.88.88-.88h13.33c.48 0 .87.39.87.88z" fill="url(#SVGID_9_)"/><g><path d="m56.47 29.37h-11.75l3.28-4.83 1.47 2.16-.73 2.17 3.71-5.46z" fill="url(#SVGID_10_)"/><path d="m46.87 22.84c0 .53-.42.97-.97.97-.53 0-.97-.44-.97-.97 0-.55.44-1 .97-1 .55 0 .97.44.97 1z" fill="url(#SVGID_11_)"/></g></g></g><g><g><path d="m44.06 57.95c.21.72.5 1.4.85 2.04.14.25.14.56-.01.8l-1.29 2.12c-.19.32-.15.73.12 1l1.8 1.81c.27.27.68.32 1 .12l2.11-1.29c.25-.15.56-.15.82-.01.64.35 1.33.64 2.04.85.28.08.5.3.57.58l.58 2.4c.09.37.42.62.79.62h2.56c.38 0 .7-.26.79-.62l.59-2.41c.07-.28.28-.49.56-.58.72-.21 1.4-.5 2.04-.85.25-.14.56-.14.8.01l2.13 1.3c.32.2.74.15 1-.12l1.8-1.81c.27-.27.31-.68.12-1l-1.29-2.1c-.15-.25-.15-.56-.01-.81.36-.65.65-1.34.86-2.06.08-.28.29-.49.57-.56l2.41-.59c.37-.09.62-.42.62-.79v-2.56c0-.38-.26-.7-.63-.79l-2.4-.57c-.28-.07-.5-.28-.58-.56-.21-.72-.5-1.42-.86-2.07-.14-.26-.14-.56.01-.81l1.29-2.1c.2-.32.15-.73-.12-1l-1.8-1.81c-.27-.27-.68-.32-1-.12l-2.13 1.3c-.25.15-.55.15-.8.01-.65-.35-1.32-.64-2.04-.85-.28-.08-.49-.3-.56-.58l-.59-2.41c-.09-.37-.42-.62-.79-.62h-2.55c-.38 0-.7.26-.79.62l-.58 2.4c-.07.29-.29.5-.57.58-.72.21-1.4.5-2.04.85-.26.14-.57.14-.82-.01l-2.11-1.29c-.32-.2-.74-.15-1 .12l-1.8 1.81c-.26.27-.31.68-.12 1l1.28 2.11c.15.25.15.56.01.81-.35.64-.64 1.33-.85 2.04-.08.28-.3.51-.59.58l-2.39.57c-.37.09-.63.42-.63.79v2.56c0 .38.26.7.62.79l2.41.59c.29.08.5.29.59.57z" fill="url(#SVGID_12_)"/><path d="m45.22 54.73c0-5.24 4.26-9.5 9.5-9.5s9.5 4.26 9.5 9.5-4.26 9.5-9.5 9.5-9.5-4.26-9.5-9.5zm1.56 0c0 4.38 3.56 7.94 7.94 7.94s7.94-3.56 7.94-7.94-3.56-7.94-7.94-7.94-7.94 3.56-7.94 7.94z" fill="url(#SVGID_13_)"/><circle cx="54.72" cy="54.73" fill="url(#SVGID_14_)" r="8.5"/></g><path d="m55.44 54.73c0 .39-.32.71-.71.71s-.71-.32-.71-.71c0-.29.4-3.3.6-4.79.02-.13.21-.13.22 0 .2 1.49.6 4.49.6 4.79z" fill="url(#SVGID_15_)"/><g fill="#3f444c"><path d="m54.72 48.6c-.13 0-.23-.1-.23-.23v-1.04c0-.13.1-.23.23-.23s.23.1.23.23v1.04c0 .13-.1.23-.23.23z"/><path d="m51.54 49.45c-.08 0-.16-.04-.2-.11l-.52-.9c-.06-.11-.03-.25.08-.31s.25-.03.31.08l.52.9c.06.11.03.25-.08.31-.03.02-.07.03-.11.03z"/><path d="m49.22 51.78c-.04 0-.08-.01-.11-.03l-.9-.52c-.11-.06-.15-.2-.08-.31.06-.11.2-.15.31-.08l.9.52c.11.06.15.2.08.31-.05.07-.12.11-.2.11z"/><path d="m61.13 58.65c-.04 0-.08-.01-.11-.03l-.9-.52c-.11-.06-.15-.2-.08-.31.06-.11.2-.15.31-.08l.9.52c.11.06.15.2.08.31-.04.07-.12.11-.2.11z"/><path d="m48.37 54.96h-1.04c-.13 0-.23-.1-.23-.23s.1-.23.23-.23h1.04c.13 0 .23.1.23.23s-.11.23-.23.23z"/><path d="m62.12 54.95h-1.04c-.13 0-.23-.1-.23-.23s.1-.23.23-.23h1.04c.13 0 .23.1.23.23s-.11.23-.23.23z"/><path d="m48.32 58.66c-.08 0-.16-.04-.2-.11-.06-.11-.03-.25.08-.31l.9-.52c.11-.06.25-.03.31.08s.03.25-.08.31l-.9.52c-.03.02-.07.03-.11.03z"/><path d="m60.23 51.78c-.08 0-.16-.04-.2-.11-.06-.11-.03-.25.08-.31l.9-.52c.11-.06.25-.02.31.08.06.11.03.25-.08.31l-.9.52c-.04.02-.08.03-.11.03z"/><path d="m57.9 49.45c-.04 0-.08-.01-.11-.03-.11-.06-.15-.2-.08-.31l.52-.9c.06-.11.2-.15.31-.08.11.06.15.2.08.31l-.52.9c-.05.07-.12.11-.2.11z"/><path d="m54.73 60.86c.13 0 .23.1.23.23v1.04c0 .13-.1.23-.23.23s-.23-.1-.23-.23v-1.04c0-.12.1-.23.23-.23z"/><path d="m57.91 60.01c.08 0 .16.04.2.11l.52.9c.06.11.03.25-.08.31s-.25.03-.31-.08l-.52-.9c-.06-.11-.03-.25.08-.31.03-.02.07-.03.11-.03z"/><path d="m60.23 57.68c.04 0 .08.01.11.03l.9.52c.11.06.15.2.08.31-.06.11-.2.15-.31.08l-.9-.52c-.11-.06-.15-.2-.08-.31.05-.07.12-.11.2-.11z"/><path d="m49.22 57.69c.08 0 .16.04.2.11.06.11.03.25-.08.31l-.9.52c-.11.06-.25.02-.31-.08-.06-.11-.03-.25.08-.31l.9-.52c.03-.02.07-.03.11-.03z"/><path d="m51.55 60.01c.04 0 .08.01.11.03.11.06.15.2.08.31l-.52.9c-.06.11-.2.15-.31.08-.11-.06-.15-.2-.08-.31l.52-.9c.04-.06.12-.11.2-.11z"/></g><path d="m55.91 54.73c0 .65-.53 1.19-1.19 1.19-.65 0-1.18-.53-1.18-1.19 0-.65.53-1.18 1.18-1.18.66-.01 1.19.52 1.19 1.18z" fill="url(#SVGID_16_)"/><path d="m55.4 54.73c0 .37-.3.68-.68.68-.37 0-.68-.3-.68-.68s.3-.68.68-.68.68.3.68.68z" fill="url(#SVGID_17_)"/><path d="m57.75 57.32v1.41c0 .14-.11.25-.25.25h-5.56c-.14 0-.25-.11-.25-.25v-1.41c0-.14.11-.25.25-.25h5.56c.14 0 .25.11.25.25z" fill="url(#SVGID_18_)"/></g><g><path d="m32.5 39.08v17.31c0 .72-.58 1.29-1.29 1.29h-19.74c-.72 0-1.29-.58-1.29-1.29v-17.31c0-.72.58-1.29 1.29-1.29h19.73c.72 0 1.3.58 1.3 1.29z" fill="url(#SVGID_19_)"/><g><g><path d="m27.13 50.11c.84.56 1.2 1.5 1.08 2.38-.03.19-.26.26-.39.13l-.93-.93-1.23.38-.38 1.22.93.93c.13.13.06.36-.13.39-.73.1-1.5-.14-2.06-.7-.64-.64-.85-1.54-.64-2.36l-5.85-5.85c-.67.17-1.4.06-1.98-.33-.83-.56-1.2-1.49-1.08-2.38.02-.19.26-.26.39-.12l.93.93 1.23-.38.38-1.22-.93-.93c-.13-.13-.06-.37.13-.39.74-.1 1.5.14 2.06.7.64.64.86 1.55.64 2.36l5.85 5.85c.66-.19 1.4-.08 1.98.32z" fill="url(#SVGID_20_)"/><path d="m20.07 45.59 3.4 3.4c.24.24.24.64 0 .88s-.64.24-.88 0l-3.4-3.4c-.24-.24-.24-.64 0-.88.25-.24.64-.24.88 0z" fill="url(#SVGID_21_)"/></g><g><path d="m26.9 43.52-1.09.4-4.93 4.93-.65-.65 4.93-4.93.4-1.09 1.51-.9.73.73z" fill="#fff"/><path d="m21.08 50.16-3.41 3.41c-.1.1-.26.1-.36 0l-1.8-1.8c-.1-.1-.1-.26 0-.36l3.41-3.41c.1-.1.26-.1.36 0l1.8 1.8c.1.1.1.26 0 .36z" fill="url(#SVGID_22_)"/><path d="m21.55 49.68-.12.12c-.1.1-.26.1-.36 0l-1.8-1.8c-.1-.1-.1-.26 0-.36l.12-.12c.2-.2.52-.2.72 0l1.44 1.44c.2.2.2.52 0 .72z" fill="url(#SVGID_23_)"/><path d="m17.19 54.05.12-.12c.1-.1.1-.26 0-.36l-1.8-1.8c-.1-.1-.26-.1-.36 0l-.12.12c-.2.2-.2.52 0 .72l1.44 1.44c.2.19.52.19.72 0z" fill="url(#SVGID_24_)"/><path d="m18.74 48.84-2.4 2.4c-.13.13-.13.35 0 .48s.35.13.48 0l2.4-2.4c.13-.13.14-.35 0-.48-.13-.14-.34-.14-.48 0z" fill="url(#SVGID_25_)"/><path d="m20.15 50.24-2.4 2.4c-.13.13-.35.13-.48 0s-.13-.35 0-.48l2.4-2.4c.13-.13.35-.14.48 0 .13.13.13.35 0 .48z" fill="url(#SVGID_26_)"/></g></g></g></g></svg>