<svg id="Capa_1" enable-background="new 0 0 512 512" height="512" viewBox="0 0 512 512" width="512" xmlns="http://www.w3.org/2000/svg"><g><path d="m491.854 511.999h-471.712c-3.035 0-5.495-2.46-5.495-5.495v-487.669c0-3.035 2.46-5.495 5.495-5.495h471.712c3.035 0 5.495 2.46 5.495 5.495v487.669c0 3.035-2.46 5.495-5.495 5.495z" fill="#f5f8f9"/><path d="m497.353 5.5v501c0 3.038-2.462 5.5-5.5 5.5h-20.908c3.038 0 5.5-2.462 5.5-5.5v-439.637h-.01v-61.363c0-1.339-.463-2.554-1.246-3.502-.113-.134-.237-.268-.361-.391-.989-.989-2.359-1.607-3.883-1.607h20.908c1.524 0 2.894.618 3.883 1.607.124.124.247.257.36.391.783.948 1.257 2.163 1.257 3.502z" fill="#e8edf2"/><path d="m497.345 5.501v61.363h-482.695v-61.363c0-3.038 2.461-5.5 5.489-5.5h471.716c3.039 0 5.49 2.461 5.49 5.5z" fill="#c1e9af"/><path d="m497.342 5.5v61.363h-20.908v-61.363c0-1.339-.463-2.554-1.246-3.502-.113-.134-.237-.268-.361-.391-.988-.989-2.358-1.607-3.882-1.607h20.908c1.524 0 2.894.618 3.883 1.607.124.124.247.257.36.391.783.948 1.246 2.163 1.246 3.502z" fill="#ade194"/><path d="m476.445 5.5v61.363h-.01v-61.363c0-1.339-.463-2.554-1.246-3.502.782.948 1.256 2.163 1.256 3.502z" fill="#ade194"/><g fill="#80d261"><circle cx="58.02" cy="33.432" r="7.724"/><circle cx="95.282" cy="33.432" r="7.724"/><circle cx="132.543" cy="33.432" r="7.724"/></g><path d="m451.321 212.395h-390.646c-4.476 0-8.104-3.628-8.104-8.104v-83.785c0-4.476 3.628-8.104 8.104-8.104h390.646c4.476 0 8.104 3.628 8.104 8.104v83.785c0 4.476-3.628 8.104-8.104 8.104z" fill="#fee97d"/><path d="m459.42 120.502v83.785c0 4.48-3.625 8.105-8.095 8.105h-20.599c4.47 0 8.095-3.625 8.095-8.105v-83.785c0-4.47-3.625-8.105-8.095-8.105h20.599c4.47 0 8.095 3.635 8.095 8.105z" fill="#fedf30"/><g><path d="m459.426 258.012h-126.479c-4.267 0-7.724-3.458-7.724-7.725s3.458-7.724 7.724-7.724h126.478c4.267 0 7.724 3.458 7.724 7.724s-3.457 7.725-7.723 7.725z" fill="#d9e7ec"/></g><g><path d="m87.557 258.012h-34.986c-4.267 0-7.724-3.458-7.724-7.725s3.458-7.724 7.724-7.724h34.986c4.267 0 7.724 3.458 7.724 7.724s-3.458 7.725-7.724 7.725z" fill="#d9e7ec"/></g><g><path d="m459.426 301.167h-112.795c-4.267 0-7.724-3.458-7.724-7.724s3.458-7.724 7.724-7.724h112.795c4.267 0 7.724 3.458 7.724 7.724s-3.458 7.724-7.724 7.724z" fill="#d9e7ec"/></g><g><path d="m87.557 301.167h-34.986c-4.267 0-7.724-3.458-7.724-7.724s3.458-7.724 7.724-7.724h34.986c4.267 0 7.724 3.458 7.724 7.724s-3.458 7.724-7.724 7.724z" fill="#d9e7ec"/></g><g><path d="m459.426 344.322h-100.164c-4.267 0-7.724-3.458-7.724-7.724s3.458-7.724 7.724-7.724h100.164c4.267 0 7.724 3.458 7.724 7.724s-3.458 7.724-7.724 7.724z" fill="#d9e7ec"/></g><g><path d="m95.281 344.322h-42.71c-4.267 0-7.724-3.458-7.724-7.724s3.458-7.724 7.724-7.724h42.71c4.267 0 7.724 3.458 7.724 7.724s-3.457 7.724-7.724 7.724z" fill="#d9e7ec"/></g><g><path d="m459.426 387.477h-50.082c-4.267 0-7.724-3.458-7.724-7.724s3.458-7.724 7.724-7.724h50.082c4.267 0 7.724 3.458 7.724 7.724s-3.458 7.724-7.724 7.724z" fill="#d9e7ec"/></g><g><path d="m124.818 387.477h-72.247c-4.267 0-7.724-3.458-7.724-7.724s3.458-7.724 7.724-7.724h72.247c4.267 0 7.724 3.458 7.724 7.724s-3.457 7.724-7.724 7.724z" fill="#d9e7ec"/></g><g><path d="m459.426 430.632h-30.695c-4.267 0-7.724-3.458-7.724-7.724s3.458-7.724 7.724-7.724h30.695c4.267 0 7.724 3.458 7.724 7.724s-3.458 7.724-7.724 7.724z" fill="#d9e7ec"/></g><g><path d="m255.998 430.632h-203.427c-4.267 0-7.724-3.458-7.724-7.724s3.458-7.724 7.724-7.724h203.427c4.267 0 7.724 3.458 7.724 7.724s-3.457 7.724-7.724 7.724z" fill="#d9e7ec"/></g><g><path d="m459.426 473.787h-42.273c-4.267 0-7.724-3.458-7.724-7.724 0-4.267 3.458-7.725 7.724-7.725h42.273c4.267 0 7.724 3.458 7.724 7.725 0 4.266-3.458 7.724-7.724 7.724z" fill="#d9e7ec"/></g><g><path d="m277.162 473.787h-224.591c-4.267 0-7.724-3.458-7.724-7.724 0-4.267 3.458-7.725 7.724-7.725h224.591c4.267 0 7.724 3.458 7.724 7.725 0 4.266-3.458 7.724-7.724 7.724z" fill="#d9e7ec"/></g><g><path d="m271.847 327.883h39.39v70.847h-39.39z" fill="#d9e7ec" transform="matrix(.707 -.707 .707 .707 -171.506 312.561)"/><path d="m287.779 321.283h20.724v70.847h-20.724z" fill="#c5d3dd" transform="matrix(.707 -.707 .707 .707 -164.906 315.295)"/><path d="m384.98 456.744c-12.425 12.425-32.569 12.425-44.994 0l-49.668-49.668c-3.691-3.691-3.691-9.676 0-13.367l31.626-31.626c3.691-3.691 9.676-3.691 13.367 0l49.669 49.668c12.424 12.424 12.424 32.568 0 44.993z" fill="#596c76"/><path d="m384.984 456.744c-4.127 4.127-9.099 6.886-14.36 8.265 8.757-12.414 7.581-29.682-3.529-40.792l-49.666-49.666c-1.497-1.497-3.358-2.374-5.293-2.662l9.805-9.805c3.689-3.689 9.677-3.689 13.366 0l49.677 49.667c12.425 12.424 12.425 32.569 0 44.993z" fill="#465a61"/><circle cx="208.855" cy="280.62" fill="#b6c4cf" r="91.162"/><path d="m273.312 345.083c-27.875 27.875-69.319 33.916-103.086 18.134 29.372 6.448 61.3-1.743 84.128-24.571 35.606-35.606 35.606-93.324 0-128.93-7.709-7.709-16.456-13.75-25.79-18.113 16.402 3.614 31.992 11.805 44.748 24.561 35.606 35.595 35.606 93.313 0 128.919z" fill="#9facba"/><circle cx="208.855" cy="280.62" fill="#dff6fd" r="60.808"/><path d="m251.853 323.613c-23.748 23.748-62.251 23.748-85.999 0-.887-.887-1.754-1.807-2.577-2.737 22.401 10.147 49.699 6.009 68.111-12.403 22.86-22.85 23.716-59.365 2.577-83.252 6.48 2.94 12.553 7.068 17.888 12.403 23.747 23.748 23.747 62.251 0 85.989z" fill="#c8effe"/></g></g></svg>