<svg id="Layer_1" enable-background="new 0 0 74 74" height="512" viewBox="0 0 74 74" width="512" xmlns="http://www.w3.org/2000/svg" xmlns:xlink="http://www.w3.org/1999/xlink"><linearGradient id="lg1"><stop offset="0" stop-color="#696c70"/><stop offset="1" stop-color="#3f444c"/></linearGradient><linearGradient id="SVGID_1_" gradientUnits="userSpaceOnUse" x1="13.443" x2="61.189" xlink:href="#lg1" y1="3.923" y2="56.082"/><linearGradient id="lg2"><stop offset="0" stop-color="#fff"/><stop offset="1" stop-color="#eff2f8"/></linearGradient><linearGradient id="SVGID_2_" gradientUnits="userSpaceOnUse" x1="31.611" x2="44.799" xlink:href="#lg2" y1="15.568" y2="49.24"/><linearGradient id="lg3"><stop offset="0" stop-color="#ffdc85"/><stop offset="1" stop-color="#fc3"/></linearGradient><linearGradient id="SVGID_3_" gradientUnits="userSpaceOnUse" x1="20.54" x2="20.564" xlink:href="#lg3" y1="12.421" y2="14.843"/><linearGradient id="lg4"><stop offset="0" stop-color="#9ce3ff"/><stop offset="1" stop-color="#6cf"/></linearGradient><linearGradient id="SVGID_4_" gradientUnits="userSpaceOnUse" x1="24.073" x2="24.097" xlink:href="#lg4" y1="12.421" y2="14.843"/><linearGradient id="lg5"><stop offset="0" stop-color="#ff7171"/><stop offset="1" stop-color="#f33"/></linearGradient><linearGradient id="SVGID_5_" gradientUnits="userSpaceOnUse" x1="27.605" x2="27.63" xlink:href="#lg5" y1="12.421" y2="14.843"/><linearGradient id="SVGID_6_" gradientUnits="userSpaceOnUse" x1="15.981" x2="16.432" y1="19.471" y2="27.661"><stop offset="0" stop-color="#947bff"/><stop offset="1" stop-color="#63f"/></linearGradient><linearGradient id="SVGID_7_" gradientUnits="userSpaceOnUse" x1="22.978" x2="28.935" xlink:href="#lg1" y1="47.383" y2="71.212"/><linearGradient id="lg6"><stop offset="0" stop-color="#eff2f8"/><stop offset="1" stop-color="#d8dfea"/></linearGradient><linearGradient id="SVGID_8_" gradientUnits="userSpaceOnUse" x1="23.429" x2="27.037" xlink:href="#lg6" y1="51.421" y2="52.871"/><linearGradient id="SVGID_9_" gradientUnits="userSpaceOnUse" x1="23.5" x2="26.967" xlink:href="#lg6" y1="55.715" y2="57.107"/><linearGradient id="SVGID_10_" gradientUnits="userSpaceOnUse" x1="15.305" x2="18.914" xlink:href="#lg6" y1="51.421" y2="52.871"/><linearGradient id="SVGID_11_" gradientUnits="userSpaceOnUse" x1="15.376" x2="18.843" xlink:href="#lg6" y1="55.715" y2="57.107"/><linearGradient id="SVGID_12_" gradientUnits="userSpaceOnUse" x1="19.373" x2="22.981" xlink:href="#lg6" y1="51.421" y2="52.871"/><linearGradient id="SVGID_13_" gradientUnits="userSpaceOnUse" x1="19.444" x2="22.911" xlink:href="#lg6" y1="55.715" y2="57.107"/><linearGradient id="SVGID_14_" gradientUnits="userSpaceOnUse" x1="11.25" x2="14.858" xlink:href="#lg6" y1="51.421" y2="52.871"/><linearGradient id="SVGID_15_" gradientUnits="userSpaceOnUse" x1="11.321" x2="14.787" xlink:href="#lg6" y1="55.715" y2="57.107"/><linearGradient id="SVGID_16_" gradientUnits="userSpaceOnUse" x1="11.252" x2="14.856" xlink:href="#lg6" y1="59.946" y2="61.394"/><linearGradient id="SVGID_17_" gradientUnits="userSpaceOnUse" x1="35.596" x2="39.205" xlink:href="#lg6" y1="51.421" y2="52.871"/><linearGradient id="SVGID_18_" gradientUnits="userSpaceOnUse" x1="35.596" x2="39.205" xlink:href="#lg6" y1="55.686" y2="57.136"/><linearGradient id="SVGID_19_" gradientUnits="userSpaceOnUse" x1="27.873" x2="34.754" xlink:href="#lg4" y1="55.028" y2="57.792"/><linearGradient id="SVGID_20_" gradientUnits="userSpaceOnUse" x1="31.86" x2="38.879" xlink:href="#lg6" y1="59.259" y2="62.079"/><linearGradient id="SVGID_21_" gradientUnits="userSpaceOnUse" x1="39.664" x2="43.272" xlink:href="#lg6" y1="51.421" y2="52.871"/><linearGradient id="SVGID_22_" gradientUnits="userSpaceOnUse" x1="40.092" x2="42.796" y1="54.823" y2="62.311"><stop offset="0" stop-color="#64e88c"/><stop offset="1" stop-color="#3c6"/></linearGradient><linearGradient id="SVGID_23_" gradientUnits="userSpaceOnUse" x1="27.484" x2="31.093" xlink:href="#lg6" y1="51.421" y2="52.871"/><linearGradient id="SVGID_24_" gradientUnits="userSpaceOnUse" x1="7.194" x2="10.802" xlink:href="#lg5" y1="51.421" y2="52.871"/><linearGradient id="SVGID_25_" gradientUnits="userSpaceOnUse" x1="7.265" x2="10.731" xlink:href="#lg6" y1="55.715" y2="57.107"/><linearGradient id="SVGID_26_" gradientUnits="userSpaceOnUse" x1="7.196" x2="10.8" xlink:href="#lg6" y1="59.946" y2="61.394"/><linearGradient id="SVGID_27_" gradientUnits="userSpaceOnUse" x1="31.54" x2="35.149" xlink:href="#lg6" y1="51.421" y2="52.871"/><linearGradient id="SVGID_28_" gradientUnits="userSpaceOnUse" x1="16.26" x2="30.118" xlink:href="#lg6" y1="57.883" y2="63.45"/><linearGradient id="SVGID_29_" gradientUnits="userSpaceOnUse" x1="62.209" x2="62.651" xlink:href="#lg5" y1="23.051" y2="31.067"/><linearGradient id="SVGID_30_" gradientUnits="userSpaceOnUse" x1="60.9" x2="63.914" xlink:href="#lg3" y1="50.277" y2="58.58"/><linearGradient id="SVGID_31_" gradientUnits="userSpaceOnUse" x1="59.159" x2="67.371" xlink:href="#lg2" y1="23.628" y2="28.174"/><linearGradient id="SVGID_32_" gradientUnits="userSpaceOnUse" x1="58.451" x2="66.663" xlink:href="#lg2" y1="24.906" y2="29.453"/><linearGradient id="SVGID_33_" gradientUnits="userSpaceOnUse" x1="57.748" x2="65.961" xlink:href="#lg2" y1="26.175" y2="30.722"/><g><g><path d="m11.72 47.46h1.03v-3.27c0-1.42-1.15-2.57-2.57-2.57h-2.61c-.85 0-1.54-.69-1.54-1.54v-4.48c0-.85.69-1.54 1.54-1.54h12.25v-1.03h-12.25c-1.42 0-2.57 1.15-2.57 2.57v4.48c0 1.42 1.15 2.57 2.57 2.57h2.61c.85 0 1.54.69 1.54 1.54z" fill="#3f444c"/><path d="m14.16 47.32v1.07h-3.86v-1.07c0-.44.35-.79.79-.79h2.27c.44 0 .8.35.8.79z" fill="#555a60"/></g><g><g><path d="m63.09 11.18v42.76c0 1.13-.92 2.06-2.06 2.06h-42.76c-1.13 0-2.06-.92-2.06-2.06v-42.76c0-1.13.92-2.06 2.06-2.06h42.76c1.14 0 2.06.92 2.06 2.06z" fill="url(#SVGID_1_)"/><path d="m18.25 54.52c-.31 0-.56-.25-.56-.57v-35.71c0-.31.25-.57.56-.57h42.81c.31 0 .57.25.57.57v35.72c0 .31-.25.57-.57.57h-42.81z" fill="url(#SVGID_2_)"/><g><g><path d="m21.76 13.64c0 .67-.55 1.21-1.21 1.21-.67 0-1.22-.54-1.22-1.21s.55-1.22 1.22-1.22 1.21.55 1.21 1.22z" fill="url(#SVGID_3_)"/><path d="m25.3 13.64c0 .67-.55 1.21-1.21 1.21-.67 0-1.22-.54-1.22-1.21s.55-1.22 1.22-1.22c.66 0 1.21.55 1.21 1.22z" fill="url(#SVGID_4_)"/><path d="m28.83 13.64c0 .67-.55 1.21-1.21 1.21-.67 0-1.22-.54-1.22-1.21s.55-1.22 1.22-1.22c.66 0 1.21.55 1.21 1.22z" fill="url(#SVGID_5_)"/></g><path d="m59.96 13.63c0 .57-.47 1.03-1.04 1.03h-26.4c-.57 0-1.04-.46-1.04-1.03s.47-1.04 1.04-1.04h26.41c.56.01 1.03.48 1.03 1.04z" fill="#3f444c"/></g></g><path d="m58.72 20.37v31.46c0 .28-.23.5-.5.5-.29 0-.51-.23-.51-.5v-31.46c0-.28.23-.51.51-.51s.5.24.5.51z" fill="#d8dfea"/><path d="m31.23 21.59h-8.96c-.28 0-.5-.23-.5-.5 0-.29.23-.51.5-.51h8.96c.28 0 .51.23.51.51s-.24.5-.51.5z" fill="#f33"/><path d="m31.23 32.95h-8.96c-.28 0-.5-.23-.5-.5 0-.29.23-.51.5-.51h8.96c.28 0 .51.23.51.51s-.24.5-.51.5z" fill="#f33"/><path d="m37.24 24.43h-14.97c-.28 0-.5-.23-.5-.5 0-.29.23-.51.5-.51h14.97c.28 0 .51.23.51.51s-.24.5-.51.5z" fill="#3c6"/><path d="m41.88 27.27h-14.97c-.28 0-.5-.23-.5-.5 0-.29.23-.51.5-.51h14.97c.28 0 .51.23.51.51s-.23.5-.51.5z" fill="#6cf"/><path d="m53.86 27.27h-8.84c-.28 0-.5-.23-.5-.5 0-.29.23-.51.5-.51h8.84c.28 0 .51.23.51.51.01.28-.23.5-.51.5z" fill="#63f"/><path d="m38.9 30.11h14.97c.28 0 .5-.23.5-.5 0-.29-.23-.51-.5-.51h-14.97c-.28 0-.51.23-.51.51s.23.5.51.5z" fill="#d8dfea"/><path d="m39.65 35.79h-3.95c-.28 0-.5-.23-.5-.5 0-.29.23-.51.5-.51h3.95c.28 0 .51.23.51.51.01.28-.23.5-.51.5z" fill="#d8dfea"/><path d="m42.19 35.79h11.68c.28 0 .5-.23.5-.5 0-.29-.23-.51-.5-.51h-11.68c-.28 0-.51.23-.51.51s.23.5.51.5z" fill="#fc3"/><path d="m30.86 38.63h-3.95c-.28 0-.5-.23-.5-.5 0-.29.23-.51.5-.51h3.95c.28 0 .51.23.51.51s-.23.5-.51.5z" fill="#fc3"/><path d="m33.4 38.63h11.68c.28 0 .5-.23.5-.5 0-.29-.23-.51-.5-.51h-11.68c-.28 0-.51.23-.51.51-.01.28.23.5.51.5z" fill="#63f"/><path d="m33.49 35.79h-6.58c-.28 0-.5-.23-.5-.5 0-.29.23-.51.5-.51h6.58c.28 0 .51.23.51.51.01.28-.23.5-.51.5z" fill="#6cf"/><path d="m53.86 38.63h-6.58c-.28 0-.5-.23-.5-.5 0-.29.23-.51.5-.51h6.58c.28 0 .51.23.51.51.01.28-.23.5-.51.5z" fill="#d8dfea"/><path d="m49.92 41.47h3.95c.28 0 .5-.23.5-.5 0-.29-.23-.51-.5-.51h-3.95c-.28 0-.51.23-.51.51s.24.5.51.5z" fill="#63f"/><path d="m47.38 41.47h-11.68c-.28 0-.5-.23-.5-.5 0-.29.23-.51.5-.51h11.68c.28 0 .51.23.51.51.01.28-.23.5-.51.5z" fill="#fc3"/><path d="m33.49 41.47h-6.58c-.28 0-.5-.23-.5-.5 0-.29.23-.51.5-.51h6.58c.28 0 .51.23.51.51.01.28-.23.5-.51.5z" fill="#d8dfea"/><path d="m26.92 30.11h8.84c.28 0 .5-.23.5-.5 0-.29-.23-.51-.5-.51h-8.84c-.28 0-.51.23-.51.51s.23.5.51.5z" fill="#63f"/><path d="m37.24 44.31h-14.97c-.28 0-.5-.23-.5-.5 0-.29.23-.51.5-.51h14.97c.28 0 .51.23.51.51s-.24.5-.51.5z" fill="#3c6"/><path d="m41.88 47.15h-14.97c-.28 0-.5-.23-.5-.5 0-.29.23-.51.5-.51h14.97c.28 0 .51.23.51.51s-.23.5-.51.5z" fill="#d8dfea"/><path d="m53.86 47.15h-8.84c-.28 0-.5-.23-.5-.5 0-.29.23-.51.5-.51h8.84c.28 0 .51.23.51.51.01.28-.23.5-.51.5z" fill="#6cf"/><path d="m38.9 49.99h14.97c.28 0 .5-.23.5-.5 0-.29-.23-.51-.5-.51h-14.97c-.28 0-.51.23-.51.51s.23.5.51.5z" fill="#d8dfea"/><path d="m26.92 49.99h8.84c.28 0 .5-.23.5-.5 0-.29-.23-.51-.5-.51h-8.84c-.28 0-.51.23-.51.51s.23.5.51.5z" fill="#fc3"/></g><g><path d="m24.52 20.7v6.17c0 .57-.46 1.03-1.03 1.03h-14.55c-.57 0-1.03-.46-1.03-1.03v-6.17c0-.57.46-1.03 1.03-1.03h14.56c.56 0 1.02.46 1.02 1.03z" fill="url(#SVGID_6_)"/><g><g fill="#fff"><path d="m15.59 22.3c.05.05.07.11.07.17 0 .07-.02.13-.07.18-.05.04-.1.06-.17.06h-.82v2.4c0 .08-.02.14-.08.18-.05.05-.11.07-.18.07s-.13-.02-.18-.07-.08-.11-.08-.18v-2.4h-.81c-.07 0-.12-.02-.17-.07-.05-.04-.07-.1-.07-.17 0-.06.02-.12.07-.17s.1-.07.17-.07h2.14c.08 0 .13.02.18.07z"/><path d="m12.61 22.28c.05.05.08.11.08.18v2.64c0 .08-.02.14-.08.18-.05.05-.11.07-.18.07s-.13-.02-.18-.07-.08-.11-.08-.18v-1.08h-1.51v1.08c0 .08-.03.14-.08.18-.1.09-.26.09-.36 0-.05-.05-.07-.11-.07-.18v-2.64c0-.07.02-.13.07-.18.1-.1.26-.1.36 0 .05.05.08.11.08.18v1.08h1.51v-1.08c0-.07.02-.13.07-.18.11-.1.27-.1.37 0z"/><path d="m22.27 25.09c0 .07-.03.13-.08.18s-.12.07-.18.07h-1.52c-.08 0-.16-.03-.23-.09-.06-.07-.09-.15-.09-.23v-2.55c0-.07.02-.13.07-.18.09-.1.26-.1.36 0 .05.05.08.11.08.18v2.37h1.34c.08 0 .13.03.18.08.04.04.07.1.07.17z"/><path d="m19.35 22.31c.06.07.1.15.1.24v2.56c0 .08-.03.13-.08.18s-.11.07-.18.07-.13-.02-.18-.07-.08-.11-.08-.18v-2.14l-.88 2.17c-.02.07-.07.12-.13.15-.12.08-.27.08-.39 0-.06-.04-.1-.08-.13-.15l-.88-2.17v2.14c0 .08-.03.14-.08.18-.1.09-.26.09-.36 0-.05-.05-.07-.11-.07-.18v-2.56c0-.09.03-.17.1-.24.06-.07.15-.1.24-.1h.14c.07 0 .13.02.19.06.05.04.09.09.12.15l.92 2.3.91-2.3c.03-.06.07-.12.13-.15.05-.04.12-.06.18-.06h.15c.11 0 .19.03.26.1z"/></g></g></g><g><path d="m44.09 64.88h-37.71c-.76 0-1.38-.62-1.38-1.38v-14.18c0-.76.62-1.38 1.38-1.38h37.71c.76 0 1.38.62 1.38 1.38v14.18c0 .76-.62 1.38-1.38 1.38z" fill="url(#SVGID_7_)"/><path d="m26.85 50.94v2.42c0 .34-.27.61-.61.61h-2c-.34 0-.61-.27-.61-.61v-2.42c0-.34.27-.61.61-.61h2c.33 0 .61.27.61.61z" fill="url(#SVGID_8_)"/><path d="m24.23 54.8h2c.34 0 .61.27.61.61v2c0 .34-.27.61-.61.61h-2c-.34 0-.61-.27-.61-.61v-2c.01-.33.28-.61.61-.61z" fill="url(#SVGID_9_)"/><path d="m18.72 50.94v2.42c0 .34-.27.61-.61.61h-2c-.34 0-.61-.27-.61-.61v-2.42c0-.34.27-.61.61-.61h2c.34 0 .61.27.61.61z" fill="url(#SVGID_10_)"/><path d="m16.11 54.8h2c.34 0 .61.27.61.61v2c0 .34-.27.61-.61.61h-2c-.34 0-.61-.27-.61-.61v-2c0-.33.28-.61.61-.61z" fill="url(#SVGID_11_)"/><path d="m22.79 50.94v2.42c0 .34-.27.61-.61.61h-2c-.34 0-.61-.27-.61-.61v-2.42c0-.34.27-.61.61-.61h2c.34 0 .61.27.61.61z" fill="url(#SVGID_12_)"/><path d="m20.18 54.8h2c.34 0 .61.27.61.61v2c0 .34-.27.61-.61.61h-2c-.34 0-.61-.27-.61-.61v-2c0-.33.27-.61.61-.61z" fill="url(#SVGID_13_)"/><path d="m14.67 50.94v2.42c0 .34-.27.61-.61.61h-2c-.34 0-.61-.27-.61-.61v-2.42c0-.34.27-.61.61-.61h2c.33 0 .61.27.61.61z" fill="url(#SVGID_14_)"/><path d="m12.06 54.8h2c.34 0 .61.27.61.61v2c0 .34-.27.61-.61.61h-2c-.34 0-.61-.27-.61-.61v-2c0-.33.27-.61.61-.61z" fill="url(#SVGID_15_)"/><path d="m12.06 58.86h2c.34 0 .61.27.61.61v2.41c0 .34-.27.61-.61.61h-2c-.34 0-.61-.27-.61-.61v-2.41c0-.34.27-.61.61-.61z" fill="url(#SVGID_16_)"/><path d="m39.01 50.94v2.42c0 .34-.27.61-.61.61h-2c-.34 0-.61-.27-.61-.61v-2.42c0-.34.27-.61.61-.61h2c.34 0 .61.27.61.61z" fill="url(#SVGID_17_)"/><path d="m39.01 55.2v2.42c0 .34-.27.61-.61.61h-2c-.34 0-.61-.27-.61-.61v-2.42c0-.34.27-.61.61-.61h2c.34 0 .61.28.61.61z" fill="url(#SVGID_18_)"/><path d="m28.29 54.8h6.06c.34 0 .61.27.61.61v2c0 .34-.27.61-.61.61h-6.06c-.34 0-.61-.27-.61-.61v-2c0-.33.27-.61.61-.61z" fill="url(#SVGID_19_)"/><path d="m32.35 58.86h6.06c.34 0 .61.27.61.61v2.41c0 .34-.27.61-.61.61h-6.06c-.34 0-.61-.27-.61-.61v-2.41c0-.34.27-.61.61-.61z" fill="url(#SVGID_20_)"/><path d="m43.08 50.94v2.42c0 .34-.27.61-.61.61h-2c-.34 0-.61-.27-.61-.61v-2.42c0-.34.27-.61.61-.61h2c.34 0 .61.27.61.61z" fill="url(#SVGID_21_)"/><path d="m40.47 54.8h2c.34 0 .61.27.61.61v6.47c0 .34-.27.61-.61.61h-2c-.34 0-.61-.27-.61-.61v-6.47c0-.33.27-.61.61-.61z" fill="url(#SVGID_22_)"/><path d="m30.9 50.94v2.42c0 .34-.27.61-.61.61h-2c-.34 0-.61-.27-.61-.61v-2.42c0-.34.27-.61.61-.61h2c.34 0 .61.27.61.61z" fill="url(#SVGID_23_)"/><path d="m10.61 50.94v2.42c0 .34-.27.61-.61.61h-2c-.34 0-.61-.27-.61-.61v-2.42c0-.34.27-.61.61-.61h2c.34 0 .61.27.61.61z" fill="url(#SVGID_24_)"/><path d="m8 54.8h2c.34 0 .61.27.61.61v2c0 .34-.27.61-.61.61h-2c-.34 0-.61-.27-.61-.61v-2c0-.33.27-.61.61-.61z" fill="url(#SVGID_25_)"/><path d="m8 58.86h2c.34 0 .61.27.61.61v2.41c0 .34-.27.61-.61.61h-2c-.34 0-.61-.27-.61-.61v-2.41c0-.34.27-.61.61-.61z" fill="url(#SVGID_26_)"/><path d="m34.96 50.94v2.42c0 .34-.27.61-.61.61h-2c-.34 0-.61-.27-.61-.61v-2.42c0-.34.27-.61.61-.61h2c.34 0 .61.27.61.61z" fill="url(#SVGID_27_)"/><path d="m16.11 58.86h14.18c.34 0 .61.27.61.61v2.41c0 .34-.27.61-.61.61h-14.18c-.34 0-.61-.27-.61-.61v-2.41c0-.34.28-.61.61-.61z" fill="url(#SVGID_28_)"/></g><path d="m69 24.19v6.17c0 .57-.46 1.03-1.03 1.03h-11.06c-.57 0-1.03-.46-1.03-1.03v-6.17c0-.57.46-1.03 1.03-1.03h11.06c.57 0 1.03.46 1.03 1.03z" fill="url(#SVGID_29_)"/><path d="m69 51.44v6.17c0 .57-.46 1.03-1.03 1.03h-11.06c-.57 0-1.03-.46-1.03-1.03v-6.17c0-.57.46-1.03 1.03-1.03h11.06c.57 0 1.03.46 1.03 1.03z" fill="url(#SVGID_30_)"/><g><g><path d="m67.13 27.3c0 .07-.02.13-.08.18-.05.05-.11.08-.19.08h-.82v.82c0 .07-.03.13-.08.19-.05.05-.11.08-.19.08-.07 0-.13-.03-.18-.08s-.08-.11-.08-.19v-.82h-.82c-.07 0-.13-.03-.18-.08s-.08-.11-.08-.18c0-.08.02-.14.08-.19.05-.05.11-.07.18-.07h.82v-.84c0-.08.03-.14.08-.19.1-.1.28-.1.38 0 .05.05.08.11.08.19v.83h.82c.08 0 .14.02.19.07.04.06.07.12.07.2z" fill="url(#SVGID_31_)"/><path d="m64.03 27.1c.05.05.08.12.08.19s-.03.13-.08.18-.12.08-.19.08h-.82v.82c0 .07-.02.13-.07.19-.05.05-.12.08-.19.08s-.13-.03-.19-.08c-.05-.05-.08-.11-.08-.19v-.82h-.83c-.07 0-.13-.03-.18-.08s-.08-.11-.08-.18c0-.08.03-.14.08-.19s.11-.07.18-.07h.83v-.83c0-.08.03-.14.08-.19.11-.1.28-.1.38 0 .05.05.08.11.08.19v.83h.82c.07 0 .14.02.18.07z" fill="url(#SVGID_32_)"/><path d="m58.52 26.55c-.11.21-.16.46-.16.72 0 .27.05.51.16.72.1.21.26.38.47.5s.47.18.76.18c.19 0 .36-.02.51-.06.14-.04.3-.1.45-.18.04-.02.08-.03.13-.03.08 0 .14.02.2.08.05.05.07.11.07.18 0 .11-.05.2-.15.25-.19.11-.38.2-.58.26s-.42.09-.67.09c-.37 0-.7-.08-.99-.24s-.52-.39-.69-.69-.26-.65-.26-1.05.08-.75.26-1.05c.17-.3.4-.53.69-.69.3-.16.63-.24.99-.24.25 0 .47.03.67.09s.39.14.59.25c.09.05.14.14.14.25 0 .07-.02.13-.07.18s-.12.08-.2.08c-.04 0-.08-.01-.12-.03-.16-.08-.31-.14-.45-.18-.15-.04-.32-.06-.51-.06-.3 0-.55.06-.76.18-.22.11-.38.28-.48.49z" fill="url(#SVGID_33_)"/></g></g><g><g><path d="m60.34 53.42c-.08-.16-.23-.29-.42-.39s-.43-.15-.73-.15h-1.04c-.07 0-.13.03-.18.08s-.07.11-.07.18v2.8c0 .07.03.13.07.18.05.05.11.07.18.07s.13-.02.18-.07.08-.11.08-.18v-.93h.79c.3 0 .55-.05.73-.15.19-.1.33-.24.42-.4.08-.16.12-.33.12-.52-.01-.18-.05-.36-.13-.52zm-1.94-.05h.75c.3 0 .51.06.62.16.12.11.18.25.18.41s-.06.3-.18.41c-.11.11-.33.16-.62.16h-.75z" fill="#f33"/></g><g><path d="m63.63 53.11v2.82c0 .07-.03.13-.08.18s-.11.07-.18.07-.13-.02-.18-.07-.07-.11-.07-.18v-1.17h-1.64v1.17c0 .07-.03.13-.08.18-.1.1-.27.1-.36 0-.05-.05-.07-.11-.07-.18v-2.82c0-.07.02-.13.07-.18.1-.1.26-.1.36 0 .05.05.08.11.08.18v1.17h1.64v-1.17c0-.07.02-.13.07-.18.1-.1.26-.1.36 0 .06.05.08.11.08.18z" fill="#f33"/></g><g><path d="m66.87 53.42c-.08-.16-.22-.29-.41-.39s-.44-.15-.73-.15h-1.05c-.07 0-.13.03-.18.08s-.07.11-.07.18v2.8c0 .07.02.13.07.18s.11.07.18.07.13-.02.18-.07.08-.11.08-.18v-.93h.79c.29 0 .54-.05.73-.15s.33-.24.41-.4.13-.33.13-.52c-.01-.18-.05-.36-.13-.52zm-1.93-.05h.74c.3 0 .51.06.63.16.11.11.17.25.17.41s-.06.3-.17.41c-.12.11-.33.16-.63.16h-.74z" fill="#f33"/></g></g></g></svg>