<svg id="Layer_1" enable-background="new 0 0 50 50" height="512" viewBox="0 0 50 50" width="512" xmlns="http://www.w3.org/2000/svg"><g><g><g><g><g enable-background="new"><g><path d="m33.97138 30.97767-.91363-.53095.03923 16.84069.91364.53095z" fill="#546f7a"/></g><g><path d="m47.58897 23.11555-.91363-.53095-13.61759 7.86212.91363.53095z" fill="#36484f"/></g><g><path d="m33.97138 30.97767.03924 16.84069 13.61759-7.86212-.03924-16.84069z" fill="#3f535c"/></g></g></g><g><g enable-background="new"><g><path d="m3.3878 13.39808-.91364-.53095.03924 16.84069.91363.53095z" fill="#546f7a"/></g><g><path d="m17.00539 5.53596-.91364-.53095-13.61759 7.86212.91364.53095z" fill="#36484f"/></g><g><path d="m3.3878 13.39808.03923 16.84069 13.6176-7.86212-.03924-16.84069z" fill="#3f535c"/></g></g></g><g><g enable-background="new"><g><path d="m16.35798 21.6221.91364-.53095-.03924 8.84069-.91364.53095z" fill="#314047"/></g><g><path d="m2.74039 13.75998.91363-.53095 13.6176 7.86212-.91364.53095z" fill="#36484f"/></g><g><path d="m33.25868 31.37972-.03924 8.84069-30.51829-17.61974.03924-8.84069z" fill="#546f7a"/></g></g></g><g><g enable-background="new"><g><path d="m48.44966 22.48909v1.22021c0 .06982-.04999.14014-.13995.18994l-14.98004 8.70996c-.17999.11035-.48999.11035-.66998 0l-30.97004-17.87988c-.08997-.0498-.13995-.12012-.13995-.18994l.01001-1.22021c0 .07031.03998.14014.12994.19043l30.97003 17.87988c.17999.10986.48999.10986.66998 0l14.98999-8.70996c.09003-.05029.13001-.12012.13001-.19043z" fill="#755e53"/></g><g><path d="m48.3132 22.29743c.17878.10322.1861.27649.00198.38348l-14.98241 8.70683c-.18412.107-.48946.10692-.66824.0037l-30.97198-17.88168c-.18515-.10689-.17991-.28009.00421-.38708l14.98242-8.70683c.18411-.107.4769-.107.66204-.0001z" fill="#8a6e62"/></g></g></g></g><g><g><g><g><g><g><g><g><path d="m34.30898 18.16641-8.19804 4.75645c-.11883.06906-.3106.06906-.43019.00001l-11.54065-6.663c-.11699-.06754-.12021-.18012-.00138-.24918l8.19804-4.75645z" fill="#dde4e7"/></g><g><path d="m26.11053 22.92102c-.06266.03678-.14569.05269-.22833.0505v.16159c.08154.00159.16431-.01451.22833-.0507l2.51865-1.13809 5.67879-3.22317v-.55428z" fill="#b0b8bc"/><path d="m25.6789 22.92102-11.54005-6.66173c-.05701-.03261-.08957-.07734-.08957-.12626v.1614c0 .04871.02851.09345.08957.12606l11.54005 6.66193c.05619.03281.12926.04911.2033.0507v-.16159c-.07312-.002-.14597-.01791-.2033-.05051z" fill="#cfd8dd"/></g></g><g><path d="m33.73306 8.93944c.17419.10057.31412.34289.31355.54305l-.02509 8.85168-11.96962-6.91067.02509-8.85168c.00057-.20017.14142-.28037.31561-.17981z" fill="#475e68"/></g></g><g><path d="m33.93884 9.15082c.06517.10379.10793.22208.10793.33035l-.02443 8.85259.28503-.1671.02443-8.85236c.00227-.11083-.04303-.23167-.11147-.33696z" fill="#b0b8bc"/><path d="m34.01826 8.77273-11.34052-6.5478c-.08549-.04902-.16693-.05712-.22395-.02067l-.28506.16709c.05701-.03666.13438-.02835.224.02046l11.3405 6.54759c.08016.04668.15058.12404.20562.21143l.28149-.17349c-.05499-.0844-.12407-.15943-.20208-.20461z" fill="#dde4e7"/></g><path d="m33.6134 9.72903v.01953l-.02997 7.83008-4.94001-2.85986-2.69-1.54981-.54004-.31006-.94-.54004-1.97998-1.1499.02002-7.8501 6.95001 4.00977.92999.54004.54999.32031z" fill="#4fc9e0"/><g><g enable-background="new"><g><path d="m21.58451 12.37784.00021-.07475c-.00005.01661.01056.03337.03264.04612l-.00021.07475c-.02208-.01275-.03268-.02951-.03264-.04612z" fill="#768c95"/></g><g><path d="m22.59088 12.39065-.00022.07475c-.00004.01649-.01134.0329-.03348.04576l.00021-.07475c.02215-.01286.03344-.02927.03349-.04576z" fill="#768c95"/></g><g><path d="m22.5574 12.43641-.00021.07475-.31406.18252.00021-.07475z" fill="#768c95"/></g><g><path d="m22.08457 12.61895-.00021.07475-.4672-.26974.00021-.07475z" fill="#768c95"/></g><g><path d="m22.24334 12.61893-.00021.07475c-.04191.02435-.1131.02639-.15877.00002l.00021-.07475c.04567.02637.11687.02433.15877-.00002z" fill="#768c95"/></g><g><path d="m22.55692 12.34445c.04567.02637.04472.06625.00048.09197l-.31406.18251c-.04191.02435-.1131.02639-.15877.00002l-.46721-.26974c-.04449-.02569-.04239-.06761-.00048-.09197l.31406-.18251c.04424-.02571.11428-.02571.15877-.00002z" fill="#475e68"/></g></g><g enable-background="new"><g><path d="m22.30186 12.79166.00021-.07475c-.00005.01681.01026.03354.03074.04536l-.00021.07475c-.02048-.01182-.03078-.02855-.03074-.04536z" fill="#768c95"/></g><g><path d="m23.30826 12.80649-.00021.07475c-.00005.01635-.01049.03258-.03189.04502l.00021-.07475c.02139-.01244.03184-.02867.03189-.04502z" fill="#768c95"/></g><g><path d="m22.80119 13.03269-.00021.07475-.46838-.27042.00022-.07475z" fill="#768c95"/></g><g><path d="m23.27636 12.85151-.00021.07475-.31406.18251.00021-.07475z" fill="#768c95"/></g><g><path d="m22.9623 13.03402-.00021.07475c-.04191.02435-.11662.02436-.16111-.00133l.00021-.07475c.04449.02569.1192.02568.16111.00133z" fill="#768c95"/></g><g><path d="m23.27354 12.75819c.04449.02569.04706.06761.00282.09332l-.31406.18251c-.04191.02435-.11662.02436-.16111-.00133l-.46837-.27042c-.04098-.02366-.04122-.06694.00069-.09129l.31406-.18251c.04424-.02571.11662-.02436.1576-.0007z" fill="#475e68"/></g></g><g enable-background="new"><g><path d="m23.01949 13.207.00021-.07475c-.00005.01623.01029.03253.03207.04511l-.00021.07475c-.02179-.01258-.03212-.02888-.03207-.04511z" fill="#768c95"/></g><g><path d="m24.02601 13.21956-.00021.07475c-.00005.01646-.01105.03291-.03304.04569l.00021-.07475c.022-.01278.033-.02923.03304-.04569z" fill="#768c95"/></g><g><path d="m23.99298 13.26524-.00021.07475-.31406.18252.00021-.07475z" fill="#768c95"/></g><g><path d="m23.52015 13.44778-.00021.07475-.46839-.27042.00022-.07475z" fill="#768c95"/></g><g><path d="m23.67892 13.44776-.00021.07475c-.04191.02435-.11428.02571-.15877.00002l.00021-.07475c.04449.02569.11686.02433.15877-.00002z" fill="#768c95"/></g><g><path d="m23.9925 13.17328c.04449.02569.04472.06625.00048.09197l-.31406.18251c-.04191.02435-.11428.02571-.15877.00002l-.46838-.27042c-.04449-.02569-.04121-.06693.0007-.09129l.31406-.18251c.04424-.02571.1131-.02639.15759-.0007z" fill="#475e68"/></g></g><g enable-background="new"><g><path d="m23.73553 13.61973.00021-.07475c-.00004.01661.01056.03336.03265.04612l-.00021.07475c-.02209-.01275-.03269-.0295-.03265-.04612z" fill="#768c95"/></g><g><path d="m24.7437 13.63555-.00021.07475c-.00005.01632-.0105.03243-.03176.04479l.00021-.07475c.02126-.01236.03171-.02847.03176-.04479z" fill="#768c95"/></g><g><path d="m24.2356 13.86084-.00021.07475-.46721-.26974.00021-.07475z" fill="#768c95"/></g><g><path d="m24.71194 13.68034-.00021.07475-.31406.18251.00021-.07475z" fill="#768c95"/></g><g><path d="m24.39788 13.86285-.00021.07475c-.04191.02435-.11662.02436-.16228-.002l.00021-.07475c.04566.02636.12037.02635.16228.002z" fill="#768c95"/></g><g><path d="m24.70795 13.58634c.04566.02636.04823.06828.00399.09399l-.31406.18251c-.04191.02435-.11662.02436-.16228-.002l-.46721-.26974c-.0445-.02569-.04239-.06761-.00048-.09197l.31406-.18251c.04424-.02571.11427-.02572.15877-.00002z" fill="#475e68"/></g></g><g enable-background="new"><g><path d="m24.45271 14.03171.00021-.07475c-.00005.0178.01144.03596.03444.04923l-.00021.07475c-.02301-.01327-.0345-.03143-.03444-.04923z" fill="#768c95"/></g><g><path d="m25.461 14.04739-.00021.07475c-.00004.01651-.01134.03306-.03362.046l.00021-.07475c.02228-.01294.03358-.02949.03362-.046z" fill="#768c95"/></g><g><path d="m25.42738 14.0934-.00021.07475-.31406.18251.00021-.07475z" fill="#768c95"/></g><g><path d="m24.95572 14.27661-.00021.07475-.46837-.27042.00021-.07475z" fill="#768c95"/></g><g><path d="m25.11332 14.27591-.00021.07475c-.04191.02435-.1131.02639-.15759.0007l.00021-.07475c.04449.02569.11568.02365.15759-.0007z" fill="#768c95"/></g><g><path d="m25.42807 14.00211c.04449.02569.04355.06558-.0007.09129l-.31406.18251c-.04191.02435-.1131.02639-.15759.0007l-.46837-.27042c-.0445-.02569-.0459-.06964-.004-.094l.31406-.18251c.04424-.02571.11779-.02369.16229.00201z" fill="#475e68"/></g></g><g enable-background="new"><g><path d="m20.8298 12.81706.00021-.07475c-.00005.01656.01057.03305.03237.04564l-.00021.07475c-.0218-.01259-.03241-.02907-.03237-.04564z" fill="#768c95"/></g><g><path d="m21.9516 12.7628-.00022.07475c-.00004.01611-.01104.03209-.03286.04477l.00021-.07475c.02183-.01269.03283-.02867.03287-.04477z" fill="#768c95"/></g><g><path d="m21.91874 12.80756-.00021.07475-.42811.24879.00022-.07475z" fill="#768c95"/></g><g><path d="m21.32959 13.0577-.00021.07475-.46721-.26975.00022-.07475z" fill="#768c95"/></g><g><path d="m21.49064 13.05635-.00021.07475c-.04418.02567-.11537.02771-.16104.00134l.00021-.07475c.04566.02637.11686.02434.16104-.00134z" fill="#768c95"/></g><g><path d="m21.91707 12.71629c.04567.02637.04586.06559.00168.09127l-.42811.24879c-.04418.02567-.11537.02771-.16104.00134l-.46721-.26974c-.04449-.02569-.04239-.06761.00179-.09329l.42811-.24879c.04418-.02567.11308-.02501.15757.00067z" fill="#475e68"/></g></g><g enable-background="new"><g><path d="m21.54716 13.23092.00021-.07475c-.00005.01674.01026.03318.03047.04485l-.00021.07475c-.02021-.01167-.03052-.02811-.03047-.04485z" fill="#768c95"/></g><g><path d="m22.66901 13.17864-.00021.07475c-.00004.01596-.01022.03176-.0313.04402l.00021-.07475c.02107-.01226.03125-.02806.0313-.04402z" fill="#768c95"/></g><g><path d="m22.6377 13.22265-.00021.07475-.42811.24879.00021-.07475z" fill="#768c95"/></g><g><path d="m22.04621 13.47143-.00021.07475-.46837-.27041.00021-.07475z" fill="#768c95"/></g><g><path d="m22.20959 13.47144-.00021.07475c-.04418.02567-.11889.02568-.16339-.00001l.00021-.07475c.0445.02569.11921.02569.16339.00001z" fill="#768c95"/></g><g><path d="m22.63368 13.13003c.04449.02569.0482.06695.00402.09262l-.42811.24879c-.04418.02567-.11889.02568-.16339-.00001l-.46837-.27042c-.04098-.02366-.04122-.06694.00296-.09261l.42811-.24879c.04418-.02567.11542-.02366.1564 0z" fill="#475e68"/></g></g><g enable-background="new"><g><path d="m22.26477 13.64621.00021-.07475c-.00004.01617.0103.03223.03181.04465l-.00021.07475c-.02152-.01242-.03186-.02848-.03181-.04465z" fill="#768c95"/></g><g><path d="m23.38674 13.59171-.00021.07475c-.00005.01608-.01076.03209-.03242.04468l.00021-.07475c.02166-.01259.03238-.0286.03242-.04468z" fill="#768c95"/></g><g><path d="m23.35432 13.63639-.00021.07475-.42811.24879.00021-.07475z" fill="#768c95"/></g><g><path d="m22.76517 13.88653-.00021.07475-.46838-.27042.00021-.07475z" fill="#768c95"/></g><g><path d="m22.92621 13.88518-.00021.07475c-.04418.02567-.11655.02703-.16104.00134l.00021-.07475c.04449.02569.11686.02434.16104-.00134z" fill="#768c95"/></g><g><path d="m23.35264 13.54512c.04449.02569.04586.06559.00168.09127l-.42811.24879c-.04418.02567-.11655.02703-.16104.00134l-.46838-.27042c-.04449-.02569-.04121-.06693.00297-.09261l.42811-.24879c.04418-.02567.1119-.02569.15639-.00001z" fill="#475e68"/></g></g><g enable-background="new"><g><path d="m22.98083 14.05896.00021-.07475c-.00004.01656.01057.03305.03238.04564l-.00022.07475c-.02181-.01259-.03242-.02908-.03237-.04564z" fill="#768c95"/></g><g><path d="m24.10446 14.00769-.00021.07475c-.00004.01593-.01023.03161-.03118.04379l.00021-.07475c.02095-.01217.03113-.02785.03118-.04379z" fill="#768c95"/></g><g><path d="m23.48062 14.29959-.00021.07475-.46721-.26974.00021-.07475z" fill="#768c95"/></g><g><path d="m24.07328 14.05148-.00021.07475-.42811.24879.00021-.07475z" fill="#768c95"/></g><g><path d="m23.64517 14.30027-.00021.07475c-.04418.02567-.11889.02568-.16455-.00068l.00021-.07475c.04566.02636.12037.02636.16455.00068z" fill="#768c95"/></g><g><path d="m24.06809 13.95819c.04566.02636.04937.06762.00519.0933l-.42811.24879c-.04418.02567-.11889.02568-.16455-.00068l-.46721-.26974c-.0445-.02569-.04239-.06761.00179-.09329l.42811-.24879c.04418-.02567.11307-.02502.15757.00067z" fill="#475e68"/></g></g><g enable-background="new"><g><path d="m23.69803 14.47099.00021-.07475c-.00005.01775.01144.0356.03413.0487l-.00021.07475c-.02269-.0131-.03418-.03095-.03413-.0487z" fill="#768c95"/></g><g><path d="m24.82172 14.41954-.00021.07475c-.00004.01613-.01104.03224-.033.045l.00021-.07475c.02196-.01276.03295-.02887.033-.045z" fill="#768c95"/></g><g><path d="m24.78872 14.46454-.00021.07475-.42811.24879.00021-.07475z" fill="#768c95"/></g><g><path d="m24.20074 14.71535-.00021.07475-.46837-.27041.00021-.07475z" fill="#768c95"/></g><g><path d="m24.36061 14.71333-.00021.07475c-.04418.02567-.11537.02771-.15987.00202l.00021-.07475c.0445.02569.11569.02366.15987-.00202z" fill="#768c95"/></g><g><path d="m24.78822 14.37395c.04449.02569.04468.06491.0005.09059l-.42811.24879c-.04418.02567-.11537.02771-.15987.00202l-.46837-.27042c-.0445-.02569-.0459-.06964-.00172-.09532l.42811-.24879c.04418-.02567.11659-.02299.16109.0027z" fill="#475e68"/></g></g><g enable-background="new"><g><path d="m20.13368 13.21996.00021-.07475c-.00005.01669.01144.03334.03398.04635l-.00021.07475c-.02254-.01301-.03402-.02966-.03398-.04635z" fill="#768c95"/></g><g><path d="m21.61907 13.37847-.00021.07475c-.00005.01645-.01103.03288-.03298.04564l.00021-.07475c.02195-.01275.03293-.02918.03298-.04564z" fill="#768c95"/></g><g><path d="m21.58609 13.42411-.00021.07475-.42697.24813.00021-.07475z" fill="#768c95"/></g><g><path d="m21.00041 13.67223-.00021.07475-.83254-.48067.00021-.07475z" fill="#768c95"/></g><g><path d="m21.15912 13.67224-.00021.07475c-.04538.02637-.11421.02567-.15871-.00001l.00021-.07475c.04449.02569.11333.02638.15871.00001z" fill="#768c95"/></g><g><path d="m21.58555 13.33218c.04449.02569.04472.06625.00054.09193l-.42697.24813c-.04538.02637-.11421.02568-.15871-.00001l-.83254-.48067c-.04449-.02569-.04592-.06556-.00054-.09193l.42697-.24813c.04418-.02567.11421-.02567.15871.00001z" fill="#475e68"/></g></g><g enable-background="new"><g><path d="m21.23316 13.85344.00021-.07475c-.00005.01747.01208.03501.03519.04835l-.00021.07475c-.02312-.01334-.03524-.03088-.03519-.04835z" fill="#768c95"/></g><g><path d="m22.3543 13.804-.00021.07475c-.00005.01636-.0102.03285-.03168.04534l.00021-.07475c.02148-.01248.03163-.02897.03168-.04534z" fill="#768c95"/></g><g><path d="m22.32261 13.84935-.00021.07475-.42697.24812.00021-.07475z" fill="#768c95"/></g><g><path d="m21.73693 14.09746-.00021.07475-.46837-.27041.00021-.07475z" fill="#768c95"/></g><g><path d="m21.89564 14.09747-.00021.07475c-.04538.02637-.11772.02365-.15871-.00001l.00021-.07475c.04099.02366.11333.02639.15871.00001z" fill="#768c95"/></g><g><path d="m22.32207 13.75742c.04098.02366.04472.06625.00054.09193l-.42697.24813c-.04538.02637-.11772.02365-.15871-.00001l-.46837-.27042c-.0445-.02569-.04826-.06691-.00288-.09328l.42697-.24813c.04418-.02567.11655-.02433.16105.00137z" fill="#475e68"/></g></g><g enable-background="new"><g><path d="m21.95224 14.26831.00021-.07475c-.00005.01765.01237.03547.03623.04925l-.00021.07475c-.02386-.01378-.03628-.0316-.03623-.04925z" fill="#768c95"/></g><g><path d="m23.07369 14.21898-.00021.07475c-.00005.0164-.01047.03287-.03211.04545l.00021-.07475c.02164-.01257.03206-.02905.03211-.04545z" fill="#768c95"/></g><g><path d="m23.04157 14.26444-.00021.07475-.42697.24813.00021-.07476z" fill="#768c95"/></g><g><path d="m22.45589 14.51255-.00021.07475-.4672-.26974.00021-.07475z" fill="#768c95"/></g><g><path d="m22.6146 14.51256-.00021.07475c-.04538.02637-.11656.02432-.15871-.00001l.00021-.07475c.04215.02434.11333.02639.15871.00001z" fill="#768c95"/></g><g><path d="m23.04103 14.17251c.04215.02434.04472.06625.00054.09193l-.42697.24813c-.04538.02637-.11656.02432-.15871-.00001l-.46721-.26974c-.04567-.02637-.04943-.06758-.00405-.09396l.42697-.24813c.04418-.02567.11655-.02433.16222.00204z" fill="#475e68"/></g></g><g enable-background="new"><g><path d="m22.67162 14.68328.00021-.07475c-.00005.01786.01241.03586.03581.04937l-.00021.07475c-.0234-.01351-.03586-.03151-.03581-.04937z" fill="#768c95"/></g><g><path d="m23.79278 14.63383-.00021.07475c-.00005.01643-.01046.03304-.03225.0457l.00021-.07475c.02179-.01266.03221-.02928.03225-.0457z" fill="#768c95"/></g><g><path d="m23.76053 14.67953-.00021.07475-.42697.24813.00021-.07475z" fill="#768c95"/></g><g><path d="m23.17602 14.92832-.00021.07475-.46838-.27042.00022-.07475z" fill="#768c95"/></g><g><path d="m23.33356 14.92766-.00021.07475c-.04538.02637-.11656.02432-.15754.00066l.00021-.07475c.04098.02366.11216.02571.15754-.00066z" fill="#768c95"/></g><g><path d="m23.76116 14.58827c.04098.02366.04355.06558-.00063.09126l-.42697.24813c-.04538.02637-.11656.02432-.15754.00066l-.46837-.27042c-.04449-.02569-.04943-.06758-.00405-.09396l.42697-.24813c.04418-.02567.11773-.02365.16222.00204z" fill="#475e68"/></g></g><g enable-background="new"><g><path d="m19.43615 13.62565.00021-.07475c-.00005.01667.01114.03336.03353.04629l-.00021.07475c-.0224-.01293-.03358-.02962-.03353-.04629z" fill="#768c95"/></g><g><path d="m21.10893 13.89366-.00021.07475c-.00004.01615-.0105.03225-.0323.04492l.00021-.07475c.0218-.01267.03226-.02877.0323-.04492z" fill="#768c95"/></g><g><path d="m20.48861 14.18535-.00021.07475-1.01873-.58816.00021-.07475z" fill="#768c95"/></g><g><path d="m21.07663 13.93858-.00021.07475-.42698.24813.00022-.07475z" fill="#768c95"/></g><g><path d="m20.64966 14.18671-.00021.07475c-.04418.02567-.11656.02432-.16105-.00137l.00021-.07475c.04449.0257.11687.02705.16105.00137z" fill="#768c95"/></g><g><path d="m21.07375 13.8453c.04449.02569.04826.06691.00288.09328l-.42697.24813c-.04418.02567-.11656.02432-.16105-.00137l-1.01872-.58816c-.04449-.02569-.04472-.06625-.00054-.09193l.42697-.24813c.04538-.02637.11421-.02567.15871.00001z" fill="#475e68"/></g></g><g enable-background="new"><g><path d="m20.70955 14.3615.00021-.07475c-.00005.01628.01085.03254.03295.0453l-.00021.07475c-.02211-.01276-.033-.02902-.03295-.0453z" fill="#768c95"/></g><g><path d="m21.83019 14.30877-.00021.07475c-.00004.01626-.01104.03256-.03343.04558l.00021-.07475c.02239-.01301.03338-.02932.03343-.04558z" fill="#768c95"/></g><g><path d="m21.79675 14.35435-.00021.07475-.42697.24813.00021-.07475z" fill="#768c95"/></g><g><path d="m21.21108 14.60246-.00021.07475-.46838-.27041.00021-.07475z" fill="#768c95"/></g><g><path d="m21.36978 14.60248-.00021.07475c-.04418.02567-.11421.02567-.15871-.00001l.00021-.07475c.0445.02568.11453.02568.15871.00001z" fill="#768c95"/></g><g><path d="m21.79621 14.26242c.04449.02569.04592.06556.00054.09193l-.42697.24813c-.04418.02567-.11421.02567-.15871-.00001l-.46837-.27042c-.0445-.02569-.04355-.06558.00063-.09126l.42697-.24813c.04538-.02637.11304-.02635.15754-.00066z" fill="#475e68"/></g></g><g enable-background="new"><g><path d="m18.73872 14.03032.00021-.07475c-.00005.01671.01143.03349.0341.04659l-.00021.07475c-.02267-.0131-.03415-.02988-.0341-.04659z" fill="#768c95"/></g><g><path d="m20.76232 14.49638-.00021.07475c-.00005.01728-.01196.03469-.03477.04796l.00021-.07475c.02281-.01327.03472-.03068.03477-.04796z" fill="#768c95"/></g><g><path d="m20.72754 14.54433-.00021.07475-.42811.24879.00022-.07475z" fill="#768c95"/></g><g><path d="m20.14303 14.79312-.00021.07475-1.37-.79097.00022-.07475z" fill="#768c95"/></g><g><path d="m20.29944 14.79312-.00021.07475c-.04418.02567-.1119.02569-.1564 0l.00021-.07475c.04449.0257.11222.02568.1564 0z" fill="#768c95"/></g><g><path d="m20.73051 14.45172c.0445.02569.04122.06694-.00296.09261l-.42811.24879c-.04418.02567-.1119.02569-.1564 0l-1.37-.79097c-.04449-.02569-.04586-.06559-.00168-.09127l.42811-.24879c.04418-.02567.11655-.02703.16104-.00134z" fill="#475e68"/></g></g><g enable-background="new"><g><path d="m21.42334 14.77131.00021-.07475c-.00005.01763.01204.03553.03577.04923l-.00021.07475c-.02373-.0137-.03582-.03159-.03577-.04923z" fill="#768c95"/></g><g><path d="m22.54564 14.72184-.00021.07475c-.00005.01626-.01104.03256-.03344.04558l.00021-.07475c.0224-.01302.03339-.02932.03344-.04558z" fill="#768c95"/></g><g><path d="m22.5122 14.76741-.00021.07475-.42697.24813.00021-.07475z" fill="#768c95"/></g><g><path d="m21.92653 15.01553-.00022.07475-.4672-.26974.00021-.07475z" fill="#768c95"/></g><g><path d="m22.08523 15.01554-.00021.07475c-.04418.02567-.11421.02567-.15871-.00001l.00021-.07475c.0445.02569.11453.02569.15871.00001z" fill="#768c95"/></g><g><path d="m22.51166 14.67548c.04449.02569.04592.06556.00054.09193l-.42697.24813c-.04418.02567-.11421.02568-.15871-.00001l-.46721-.26974c-.04567-.02637-.04824-.06828-.00406-.09396l.42697-.24813c.04538-.02637.11656-.02432.16223.00204z" fill="#475e68"/></g></g><g enable-background="new"><g><path d="m20.34585 14.95884.00021-.07475c-.00004.01632.01113.03267.03351.0456l-.00021.07475c-.02239-.01293-.03356-.02927-.03351-.0456z" fill="#768c95"/></g><g><path d="m21.46779 14.90434-.00021.07475c-.00005.01723-.01163.03455-.03416.04764l.00021-.07475c.02252-.01308.03411-.0304.03416-.04764z" fill="#768c95"/></g><g><path d="m20.84794 15.2001-.00021.07475-.46837-.27041.00021-.07475z" fill="#768c95"/></g><g><path d="m21.43362 14.95199-.00021.07475-.42811.24879.00022-.07475z" fill="#768c95"/></g><g><path d="m21.00552 15.20078-.00021.07475c-.04418.02567-.11308.02501-.15757-.00067l.00021-.07475c.04449.02568.11338.02634.15757.00067z" fill="#768c95"/></g><g><path d="m21.43542 14.8587c.04449.02569.04239.06761-.00179.09329l-.42811.24879c-.04418.02567-.11308.02501-.15757-.00067l-.46837-.27042c-.0445-.02569-.04469-.06492-.00051-.0906l.42811-.24879c.04418-.02567.11537-.02771.15987-.00202z" fill="#475e68"/></g></g><g enable-background="new"><g><path d="m18.04131 14.43624.00021-.07475c-.00005.01667.01113.03336.03352.04629l-.00021.07475c-.02238-.01293-.03356-.02962-.03352-.04629z" fill="#768c95"/></g><g><path d="m19.37994 14.50552-.00021.07475c-.00005.01766-.01228.03552-.03538.04895l.00021-.07475c.0231-.01342.03533-.03129.03538-.04895z" fill="#768c95"/></g><g><path d="m19.34455 14.55447-.00021.07475-.42697.24813.00021-.07475z" fill="#768c95"/></g><g><path d="m18.76005 14.80327-.00021.07475-.685-.39549.00021-.07475z" fill="#768c95"/></g><g><path d="m18.91758 14.8026-.00021.07475c-.04418.02567-.11304.02635-.15753.00067l.00021-.07475c.04449.02568.11335.025.15753-.00067z" fill="#768c95"/></g><g><path d="m19.34866 14.4612c.04449.02569.04008.06759-.0041.09327l-.42697.24813c-.04418.02567-.11304.02635-.15753.00067l-.685-.39549c-.04449-.02569-.04472-.06625-.00054-.09193l.42697-.24813c.04418-.02567.11769-.02769.16218-.002z" fill="#475e68"/></g></g><g enable-background="new"><g><path d="m18.94112 14.95374.00021-.07475c-.00005.01784.01207.0359.03534.04934l-.00021.07475c-.02327-.01343-.03539-.03149-.03534-.04934z" fill="#768c95"/></g><g><path d="m20.06494 14.90101-.00022.07475c-.00005.01766-.01228.03552-.03538.04895l.00021-.07475c.02311-.01343.03534-.03129.03539-.04895z" fill="#768c95"/></g><g><path d="m20.02956 14.94996-.00021.07475-.42697.24813.00021-.07475z" fill="#768c95"/></g><g><path d="m19.44505 15.19875-.00021.07475-.46838-.27042.00021-.07475z" fill="#768c95"/></g><g><path d="m19.60259 15.19809-.00021.07475c-.04418.02567-.11304.02635-.15754.00066l.00021-.07475c.0445.02569.11336.02501.15754-.00066z" fill="#768c95"/></g><g><path d="m20.03366 14.85669c.0445.02569.04008.0676-.0041.09327l-.42697.24813c-.04418.02567-.11304.02635-.15754.00066l-.46837-.27042c-.04449-.02569-.04823-.06828-.00405-.09396l.42697-.24813c.04418-.02567.12119-.02567.16569.00002z" fill="#475e68"/></g></g><g enable-background="new"><g><path d="m19.67062 15.37492.00021-.07475c-.00005.01784.01207.0359.03534.04934l-.00021.07475c-.02327-.01344-.0354-.0315-.03534-.04934z" fill="#768c95"/></g><g><path d="m20.79444 15.32218-.00021.07475c-.00005.01766-.01228.03552-.03538.04895l.00021-.07475c.0231-.01342.03533-.03128.03538-.04895z" fill="#768c95"/></g><g><path d="m20.75905 15.37113-.00021.07475-.42697.24813.00021-.07475z" fill="#768c95"/></g><g><path d="m20.17454 15.61992-.00021.07475-.46837-.27041.00021-.07475z" fill="#768c95"/></g><g><path d="m20.33208 15.61926-.00021.07475c-.04418.02567-.11304.02635-.15754.00066l.00021-.07475c.0445.0257.11336.02502.15754-.00066z" fill="#768c95"/></g><g><path d="m20.76315 15.27786c.0445.02569.04008.0676-.0041.09327l-.42697.24813c-.04418.02567-.11304.02635-.15754.00066l-.46837-.27042c-.04449-.02569-.04823-.06828-.00405-.09396l.42697-.24813c.04418-.02567.12119-.02567.16569.00002z" fill="#475e68"/></g></g><g enable-background="new"><g><path d="m22.13921 15.18426.00021-.07475c-.00005.01784.01207.0359.03534.04934l-.00021.07475c-.02327-.01344-.0354-.0315-.03534-.04934z" fill="#768c95"/></g><g><path d="m23.26166 15.13459-.00021.07475c-.00004.01631-.01133.0327-.03402.04589l.00021-.07475c.0227-.01319.03398-.02958.03402-.04589z" fill="#768c95"/></g><g><path d="m23.22764 15.18047-.00021.07475-.42697.24813.00021-.07475z" fill="#768c95"/></g><g><path d="m22.64314 15.42927-.00021.07475-.46838-.27042.00021-.07475z" fill="#768c95"/></g><g><path d="m22.80067 15.4286-.00021.07475c-.04418.02567-.11304.02635-.15753.00066l.00021-.07475c.0445.0257.11335.02502.15753-.00066z" fill="#768c95"/></g><g><path d="m23.22828 15.08922c.04449.02569.04474.06488-.00064.09125l-.42697.24813c-.04418.02567-.11304.02635-.15753.00067l-.46838-.27042c-.04449-.02569-.04823-.06828-.00405-.09396l.42697-.24813c.04538-.02637.11772-.02365.16222.00204z" fill="#475e68"/></g></g><g enable-background="new"><g><path d="m21.06663 15.37272.00021-.07475c-.00005.01767.01236.03564.03637.0495l-.00021.07475c-.02401-.01385-.03642-.03183-.03637-.0495z" fill="#768c95"/></g><g><path d="m22.19026 15.32146-.00021.07475c-.00005.01723-.01164.03455-.03417.04764l.00021-.07475c.02253-.01309.03412-.0304.03417-.04764z" fill="#768c95"/></g><g><path d="m21.57041 15.61722-.00021.07475-.46721-.26974.00022-.07475z" fill="#768c95"/></g><g><path d="m22.15609 15.3691-.00021.07475-.42811.24879.00021-.07475z" fill="#768c95"/></g><g><path d="m21.72798 15.61789-.00021.07475c-.04418.02567-.11307.02502-.15757-.00067l.00021-.07475c.0445.02569.11339.02635.15757.00067z" fill="#768c95"/></g><g><path d="m22.15789 15.27582c.0445.02569.04239.06761-.00179.09329l-.42811.24879c-.04418.02567-.11307.02502-.15757-.00067l-.46721-.26974c-.04566-.02636-.04937-.06762-.00519-.0933l.42811-.24879c.04418-.02567.11889-.02568.16455.00068z" fill="#475e68"/></g></g><g enable-background="new"><g><path d="m25.17051 14.4489.00021-.07475c-.00004.01622.01029.03253.03207.04511l-.00021.07474c-.02178-.01257-.03212-.02888-.03207-.0451z" fill="#768c95"/></g><g><path d="m26.17824 14.46346-.00021.07475c-.00004.01635-.01049.03258-.0319.04502l.00021-.07475c.0214-.01243.03185-.02866.0319-.04502z" fill="#768c95"/></g><g><path d="m25.67117 14.68967-.00021.07475-.46838-.27042.00021-.07475z" fill="#768c95"/></g><g><path d="m26.14634 14.50849-.00022.07475-.31405.18251.00021-.07475z" fill="#768c95"/></g><g><path d="m25.83228 14.691-.00021.07475c-.04191.02435-.11661.02436-.1611-.00132l.00021-.07475c.04449.02568.11919.02567.1611.00132z" fill="#768c95"/></g><g><path d="m26.14352 14.41517c.04449.02569.04706.0676.00281.09331l-.31405.18252c-.04191.02435-.11661.02436-.1611-.00132l-.46838-.27042c-.04449-.02569-.04121-.06693.0007-.09129l.31406-.18251c.04424-.02571.1131-.02639.15759-.0007z" fill="#475e68"/></g></g><g enable-background="new"><g><path d="m24.41579 14.8881.00021-.07475c-.00004.01617.0103.03223.03181.04465l-.00021.07475c-.02151-.01242-.03186-.02848-.03181-.04465z" fill="#768c95"/></g><g><path d="m25.53899 14.83562-.00021.07475c-.00004.01596-.01022.03176-.03131.04402l.00021-.07475c.02108-.01226.03126-.02806.03131-.04402z" fill="#768c95"/></g><g><path d="m25.50768 14.87963-.00021.07475-.42811.24879.00021-.07475z" fill="#768c95"/></g><g><path d="m24.91619 15.12842-.00021.07475-.46838-.27042.00021-.07475z" fill="#768c95"/></g><g><path d="m25.07957 15.12842-.00021.07475c-.04418.02567-.11888.02568-.16338 0l.00021-.07475c.0445.02569.1192.02568.16338 0z" fill="#768c95"/></g><g><path d="m25.50367 14.78702c.04449.02569.04819.06694.00401.09262l-.42811.24879c-.04418.02567-.11888.02568-.16338 0l-.46838-.27043c-.04449-.02569-.04121-.06693.00297-.09261l.42811-.24879c.04418-.02567.1119-.02569.15639-.00001z" fill="#475e68"/></g></g><g enable-background="new"><g><path d="m23.3912 15.09939.00021-.07475c-.00005.01747.01208.03501.03519.04835l-.00021.07475c-.02311-.01334-.03524-.03088-.03519-.04835z" fill="#768c95"/></g><g><path d="m24.51133 15.04965-.00021.07475c-.00005.01634-.01048.03255-.03184.04497l.00021-.07475c.02136-.01242.0318-.02863.03184-.04497z" fill="#768c95"/></g><g><path d="m23.89147 15.34138-.00021.07475-.46487-.26839.00022-.07475z" fill="#768c95"/></g><g><path d="m24.47949 15.09462-.00021.07475-.42697.24813.00021-.07475z" fill="#768c95"/></g><g><path d="m24.05252 15.34275-.00021.07475c-.04538.02637-.11656.02432-.16105-.00137l.00021-.07475c.04449.02569.11567.02774.16105.00137z" fill="#768c95"/></g><g><path d="m24.47661 15.00134c.04449.02569.04706.06761.00288.09328l-.42697.24813c-.04538.02637-.11656.02432-.16105-.00137l-.46486-.26839c-.04449-.02569-.04826-.06691-.00288-.09328l.42697-.24813c.04418-.02567.11656-.02432.16105.00136z" fill="#475e68"/></g></g><g enable-background="new"><g><path d="m22.85527 15.59835.00021-.07475c-.00005.01745.01175.03505.03473.04831l-.00021.07475c-.02298-.01326-.03478-.03086-.03473-.04831z" fill="#768c95"/></g><g><path d="m23.9777 15.54863-.00021.07475c-.00005.01626-.01104.03256-.03344.04558l.00021-.07475c.0224-.01301.03339-.02931.03344-.04558z" fill="#768c95"/></g><g><path d="m23.94426 15.59421-.00021.07475-.42697.24813.00021-.07475z" fill="#768c95"/></g><g><path d="m23.35858 15.84233-.00021.07475-.46837-.27042.00021-.07475z" fill="#768c95"/></g><g><path d="m23.51729 15.84234-.00021.07475c-.04418.02567-.11421.02568-.15871-.00001l.00021-.07475c.0445.02569.11453.02569.15871.00001z" fill="#768c95"/></g><g><path d="m23.94372 15.50228c.0445.02569.04592.06556.00054.09193l-.42697.24813c-.04418.02567-.11421.02568-.15871-.00001l-.46837-.27042c-.04449-.02569-.04706-.06761-.00288-.09328l.42697-.24813c.04538-.02637.11656-.02432.16105.00137z" fill="#475e68"/></g></g><g enable-background="new"><g><path d="m21.78951 15.78972.00021-.07475c-.00005.01788.0124.03603.03596.04963l-.00021.07475c-.02356-.0136-.03601-.03175-.03596-.04963z" fill="#768c95"/></g><g><path d="m22.91184 15.73873-.00021.07475c-.00005.01718-.01103.03457-.03327.04749l.00021-.07475c.02224-.01292.03322-.0303.03327-.04749z" fill="#768c95"/></g><g><path d="m22.29289 16.03434-.00021.07475-.46721-.26974.00021-.07475z" fill="#768c95"/></g><g><path d="m22.87857 15.78623-.00021.07475-.42811.24879.00021-.07475z" fill="#768c95"/></g><g><path d="m22.45046 16.03502-.00021.07475c-.04418.02567-.11542.02366-.15757-.00067l.00021-.07475c.04215.02433.11339.02634.15757.00067z" fill="#768c95"/></g><g><path d="m22.88036 15.69294c.04215.02434.04239.06761-.00179.09329l-.42811.24879c-.04418.02567-.11542.02366-.15757-.00067l-.46721-.26974c-.0445-.02569-.04938-.06763-.0052-.0933l.42811-.24879c.04418-.02567.12006-.02501.16456.00069z" fill="#475e68"/></g></g><g enable-background="new"><g><path d="m25.88785 14.86066.00021-.07475c-.00005.01759.01143.03558.03486.04911l-.00021.07475c-.02343-.01353-.03491-.03151-.03486-.04911z" fill="#768c95"/></g><g><path d="m26.89513 14.87673-.00021.07475c-.00005.01641-.01048.0329-.03217.0455l.00021-.07475c.02168-.0126.03212-.02909.03217-.0455z" fill="#768c95"/></g><g><path d="m26.86296 14.92223-.00021.07475-.31406.18251.00021-.07475z" fill="#768c95"/></g><g><path d="m26.39013 15.10476-.00021.07475-.46721-.26974.00021-.07475z" fill="#768c95"/></g><g><path d="m26.5489 15.10474-.00021.07475c-.04191.02435-.11662.02436-.15877.00002l.00021-.07475c.04215.02434.11686.02434.15877-.00002z" fill="#768c95"/></g><g><path d="m26.86248 14.83026c.04215.02434.04472.06625.00048.09197l-.31406.18251c-.04191.02435-.11662.02436-.15877.00002l-.46721-.26974c-.04567-.02637-.0459-.06964-.004-.094l.31406-.18251c.04424-.02571.11662-.02436.16229.00201z" fill="#475e68"/></g></g><g enable-background="new"><g><path d="m25.13317 15.29992.00021-.07475c-.00005.01755.01143.03524.03456.0486l-.00021.07475c-.02313-.01336-.0346-.03105-.03456-.0486z" fill="#768c95"/></g><g><path d="m26.25587 15.2489-.00021.07475c-.00004.01602-.01021.03207-.03156.04448l.00021-.07475c.02135-.01241.03151-.02846.03156-.04448z" fill="#768c95"/></g><g><path d="m26.2243 15.29338-.00021.07475-.42811.24879.00021-.07475z" fill="#768c95"/></g><g><path d="m25.63515 15.54351-.00021.07475-.46721-.26974.00022-.07475z" fill="#768c95"/></g><g><path d="m25.79619 15.54217-.00021.07475c-.04418.02567-.11889.02568-.16104.00134l.00021-.07475c.04215.02434.11686.02433.16104-.00134z" fill="#768c95"/></g><g><path d="m26.22262 15.20211c.04215.02434.04586.06559.00168.09127l-.42811.24879c-.04418.02567-.11889.02568-.16104.00134l-.46721-.26974c-.04567-.02637-.0459-.06964-.00172-.09532l.42811-.24879c.04418-.02567.11542-.02366.16109.0027z" fill="#475e68"/></g></g><g enable-background="new"><g><path d="m24.10976 15.51518.00021-.07475c-.00005.01691.01118.03355.03208.04562l-.00021.07475c-.02091-.01206-.03213-.02871-.03208-.04562z" fill="#768c95"/></g><g><path d="m25.23091 15.46577-.00021.07475c-.00005.01627-.01022.03237-.03129.04461l.00021-.07475c.02107-.01224.03124-.02834.03129-.04461z" fill="#768c95"/></g><g><path d="m24.61043 15.75647-.00021.07475-.46838-.27041.00021-.07475z" fill="#768c95"/></g><g><path d="m25.19962 15.51038-.00022.07475-.42697.24813.00021-.07475z" fill="#768c95"/></g><g><path d="m24.77264 15.75851-.00021.07475c-.04538.02637-.11772.02365-.16222-.00204l.00021-.07475c.0445.02569.11684.02841.16222.00204z" fill="#768c95"/></g><g><path d="m25.19556 15.41643c.04449.02569.04823.06828.00405.09396l-.42697.24813c-.04538.02637-.11772.02365-.16222-.00204l-.46837-.27042c-.04098-.02366-.04475-.06488.00063-.09126l.42697-.24813c.04418-.02567.11656-.02432.15754-.00066z" fill="#475e68"/></g></g><g enable-background="new"><g><path d="m23.57072 16.01142.00021-.07475c-.00005.01745.01175.03504.03473.0483l-.00021.07475c-.02299-.01326-.03478-.03085-.03473-.0483z" fill="#768c95"/></g><g><path d="m24.69315 15.9617-.00021.07475c-.00004.01626-.01104.03256-.03343.04557l.00021-.07475c.02238-.01301.03338-.02931.03343-.04557z" fill="#768c95"/></g><g><path d="m24.65971 16.00728-.00021.07475-.42697.24813.00021-.07475z" fill="#768c95"/></g><g><path d="m24.07403 16.25539-.00021.07475-.46838-.27042.00021-.07475z" fill="#768c95"/></g><g><path d="m24.23274 16.25541-.00021.07475c-.04418.02567-.11421.02567-.15871-.00001l.00021-.07475c.04449.02568.11453.02568.15871.00001z" fill="#768c95"/></g><g><path d="m24.65917 15.91535c.04449.02569.04592.06556.00054.09193l-.42697.24813c-.04418.02567-.11421.02567-.15871-.00001l-.46838-.27042c-.04449-.02569-.04706-.0676-.00288-.09328l.42697-.24813c.04538-.02637.11655-.02433.16104.00136z" fill="#475e68"/></g></g><g enable-background="new"><g><path d="m22.51033 16.20786.00021-.07475c-.00005.01671.01143.03349.03411.04658l-.00021.07475c-.02269-.01309-.03416-.02987-.03411-.04658z" fill="#768c95"/></g><g><path d="m23.63402 16.15637-.00021.07475c-.00005.01712-.01104.03422-.03298.04697l.00021-.07475c.02194-.01275.03293-.02984.03298-.04697z" fill="#768c95"/></g><g><path d="m23.01302 16.45011-.00022.07475-.46837-.27042.00021-.07475z" fill="#768c95"/></g><g><path d="m23.60104 16.20334-.00021.07476-.42811.24878.00021-.07475z" fill="#768c95"/></g><g><path d="m23.17293 16.45213-.00021.07475c-.04418.02567-.11542.02366-.15991-.00203l.00021-.07475c.04449.0257.11573.02771.15991.00203z" fill="#768c95"/></g><g><path d="m23.60049 16.10871c.04449.02569.04473.06896.00055.09464l-.42811.24879c-.04418.02567-.11542.02366-.15991-.00203l-.46837-.27042c-.0445-.02569-.04586-.06559-.00168-.09127l.42811-.24879c.04418-.02567.11654-.02704.16104-.00134z" fill="#475e68"/></g></g><g enable-background="new"><g><path d="m26.60551 15.27671.00021-.07475c-.00005.01661.01056.03337.03264.04612l-.00021.07475c-.02208-.01275-.03269-.0295-.03264-.04612z" fill="#768c95"/></g><g><path d="m27.61203 15.28928-.00021.07475c-.00005.01651-.01135.03305-.03363.046l.00021-.07475c.02228-.01294.03358-.02948.03363-.046z" fill="#768c95"/></g><g><path d="m27.5784 15.33529-.00021.07475-.31406.18251.00021-.07475z" fill="#768c95"/></g><g><path d="m27.10675 15.5185-.00022.07475-.46838-.27042.00021-.07475z" fill="#768c95"/></g><g><path d="m27.26434 15.5178-.00021.07475c-.04191.02435-.1131.02639-.15759.0007l.00021-.07475c.04449.02569.11568.02366.15759-.0007z" fill="#768c95"/></g><g><path d="m27.5791 15.244c.04449.02569.04355.06558-.0007.09129l-.31406.18251c-.04191.02435-.1131.02639-.15759.0007l-.46838-.27042c-.04449-.02569-.04239-.06761-.00048-.09197l.31406-.18251c.04424-.02571.11428-.02571.15877-.00002z" fill="#475e68"/></g></g><g enable-background="new"><g><path d="m25.8508 15.71594.00021-.07475c-.00005.01656.01057.03305.03237.04564l-.00021.07475c-.0218-.01259-.03241-.02908-.03237-.04564z" fill="#768c95"/></g><g><path d="m26.97274 15.66144-.00021.07475c-.00005.01613-.01104.03224-.033.045l.00021-.07475c.02196-.01276.03296-.02887.033-.045z" fill="#768c95"/></g><g><path d="m26.93974 15.70644-.00021.07475-.42811.24879.00021-.07475z" fill="#768c95"/></g><g><path d="m26.35177 15.95725-.00021.07475-.46839-.27042.00022-.07475z" fill="#768c95"/></g><g><path d="m26.51163 15.95523-.00021.07475c-.04418.02567-.11537.02771-.15987.00202l.00021-.07475c.0445.02569.11569.02365.15987-.00202z" fill="#768c95"/></g><g><path d="m26.93924 15.61585c.04449.02569.04468.06492.0005.09059l-.42811.24879c-.04418.02567-.11537.02771-.15987.00202l-.46838-.27042c-.04449-.02569-.04239-.06761.00179-.09329l.42811-.24879c.04418-.02567.11308-.02501.15757.00067z" fill="#475e68"/></g></g><g enable-background="new"><g><path d="m24.82885 15.93004.00021-.07475c-.00005.0171.01148.03404.03312.04654l-.00021.07475c-.02164-.0125-.03316-.02944-.03312-.04654z" fill="#768c95"/></g><g><path d="m25.95029 15.88074-.00021.07475c-.00005.01631-.01048.0324-.03171.04473l.00021-.07475c.02123-.01233.03166-.02842.03171-.04473z" fill="#768c95"/></g><g><path d="m25.32939 16.17156-.00022.07476-.4672-.26975.00021-.07475z" fill="#768c95"/></g><g><path d="m25.91858 15.92547-.00022.07476-.42697.24812.00021-.07475z" fill="#768c95"/></g><g><path d="m25.4916 16.1736-.00021.07475c-.04538.02637-.11655.02433-.16222-.00204l.00021-.07475c.04568.02637.11684.02842.16222.00204z" fill="#768c95"/></g><g><path d="m25.91452 15.83152c.04567.02637.04823.06828.00405.09396l-.42697.24812c-.04538.02637-.11655.02433-.16222-.00204l-.46721-.26974c-.04215-.02434-.04592-.06556-.00054-.09193l.42697-.24813c.04418-.02567.11656-.02432.15871.00001z" fill="#475e68"/></g></g><g enable-background="new"><g><path d="m24.28671 16.42412.00021-.07475c-.00005.01784.01207.0359.03535.04934l-.00021.07475c-.02327-.01343-.0354-.03149-.03535-.04934z" fill="#768c95"/></g><g><path d="m25.40917 16.37445-.00021.07475c-.00005.0163-.01133.0327-.03402.04588l.00021-.07475c.02269-.01318.03397-.02957.03402-.04588z" fill="#768c95"/></g><g><path d="m25.37515 16.42034-.00021.07475-.42697.24813.00021-.07475z" fill="#768c95"/></g><g><path d="m24.79065 16.66913-.00021.07475-.46838-.27042.00021-.07474z" fill="#768c95"/></g><g><path d="m24.94818 16.66847-.00021.07475c-.04418.02567-.11304.02635-.15753.00067l.00021-.07475c.04449.02568.11335.025.15753-.00067z" fill="#768c95"/></g><g><path d="m25.37579 16.32909c.04449.02569.04474.06488-.00064.09125l-.42697.24813c-.04418.02567-.11304.02635-.15753.00067l-.46837-.27042c-.0445-.02569-.04824-.06828-.00406-.09396l.42697-.24813c.04538-.02637.11772-.02365.16223.00204z" fill="#475e68"/></g></g><g enable-background="new"><g><path d="m23.23339 16.62596.00021-.07475c-.00005.01632.01113.03267.03351.0456l-.00021.07475c-.02238-.01292-.03355-.02927-.03351-.0456z" fill="#768c95"/></g><g><path d="m24.35533 16.57147-.00021.07475c-.00005.01723-.01164.03455-.03417.04764l.00021-.07475c.02253-.01309.03412-.03041.03417-.04764z" fill="#768c95"/></g><g><path d="m23.73549 16.86723-.00022.07474-.46837-.27041.00021-.07475z" fill="#768c95"/></g><g><path d="m24.32116 16.61911-.00021.07475-.42811.24879.00021-.07475z" fill="#768c95"/></g><g><path d="m23.89305 16.8679-.00021.07475c-.04418.02567-.11307.02502-.15757-.00067l.00021-.07475c.04451.02569.1134.02634.15757.00067z" fill="#768c95"/></g><g><path d="m24.32296 16.52582c.0445.02569.04239.06761-.00179.09329l-.42811.24879c-.04418.02567-.11307.02502-.15757-.00067l-.46837-.27042c-.04449-.02569-.04469-.06492-.00051-.0906l.42811-.24879c.04418-.02567.11538-.02771.15987-.00202z" fill="#475e68"/></g></g><g enable-background="new"><g><path d="m20.40011 15.79609.00021-.07475c-.00005.01784.01207.0359.03534.04934l-.00021.07475c-.02327-.01343-.03539-.03149-.03534-.04934z" fill="#768c95"/></g><g><path d="m21.52393 15.74336-.00021.07475c-.00005.01766-.01228.03552-.03538.04895l.00021-.07475c.0231-.01343.03533-.03129.03538-.04895z" fill="#768c95"/></g><g><path d="m21.48855 15.79231-.00021.07475-.42697.24813.00021-.07475z" fill="#768c95"/></g><g><path d="m20.90405 16.0411-.00021.07475-.46839-.27042.00022-.07475z" fill="#768c95"/></g><g><path d="m21.06158 16.04044-.00021.07475c-.04418.02567-.11304.02635-.15753.00067l.00021-.07475c.04449.02568.11335.025.15753-.00067z" fill="#768c95"/></g><g><path d="m21.49266 15.69904c.04449.02569.04008.06759-.00411.09327l-.42697.24813c-.04418.02567-.11304.02635-.15753.00066l-.46838-.27042c-.04449-.02569-.04823-.06828-.00405-.09396l.42697-.24813c.04418-.02567.12119-.02567.16569.00002z" fill="#475e68"/></g></g><g enable-background="new"><g><path d="m27.32286 15.69053.00021-.07475c-.00005.01681.01026.03354.03074.04536l-.00021.07476c-.02048-.01183-.03079-.02855-.03074-.04537z" fill="#768c95"/></g><g><path d="m28.32988 15.70639-.00021.07475c-.00004.01628-.01023.0324-.03134.04467l.00021-.07475c.02111-.01227.03129-.02838.03134-.04467z" fill="#768c95"/></g><g><path d="m27.82219 15.93156-.00021.07475-.46838-.27041.00022-.07475z" fill="#768c95"/></g><g><path d="m28.29854 15.75106-.00022.07475-.31406.18251.00022-.07475z" fill="#768c95"/></g><g><path d="m27.98448 15.93357-.00021.07475c-.04191.02435-.11779.02369-.16229-.00201l.00021-.07475c.0445.0257.12038.02636.16229.00201z" fill="#768c95"/></g><g><path d="m28.29454 15.65706c.0445.02569.04824.06829.004.094l-.31406.18251c-.04191.02435-.11779.02369-.16229-.00201l-.46837-.27042c-.04098-.02366-.04122-.06694.00069-.09129l.31406-.18251c.04424-.02571.11662-.02436.1576-.0007z" fill="#475e68"/></g></g><g enable-background="new"><g><path d="m26.56816 16.12979.00021-.07475c-.00005.01674.01025.03318.03046.04485l-.00021.07475c-.02021-.01166-.03051-.0281-.03046-.04485z" fill="#768c95"/></g><g><path d="m27.69064 16.07854-.00021.07475c-.00004.0159-.00997.03158-.03076.04366l.00021-.07475c.02079-.01208.03072-.02776.03076-.04366z" fill="#768c95"/></g><g><path d="m27.06721 16.37031-.00021.07475-.46838-.27042.00021-.07475z" fill="#768c95"/></g><g><path d="m27.65988 16.12221-.00022.07475-.4281.24879.00021-.07475z" fill="#768c95"/></g><g><path d="m27.23177 16.371-.00021.07475c-.04418.02567-.12006.02501-.16456-.00069l.00021-.07475c.0445.02569.12038.02636.16456.00069z" fill="#768c95"/></g><g><path d="m27.65468 16.02891c.0445.02569.04938.06763.00519.0933l-.4281.24879c-.04418.02567-.12006.02501-.16456-.00069l-.46837-.27042c-.04098-.02366-.04122-.06694.00296-.09261l.42811-.24879c.04418-.02567.11542-.02366.1564 0z" fill="#475e68"/></g></g><g enable-background="new"><g><path d="m25.54824 16.34502.00021-.07475c-.00005.01731.01151.03441.03269.04664l-.00021.07475c-.02119-.01223-.03274-.02933-.03269-.04664z" fill="#768c95"/></g><g><path d="m26.66938 16.2956-.00021.07475c-.00004.01634-.01048.03255-.03184.04497l.00021-.07475c.02136-.01242.03179-.02863.03184-.04497z" fill="#768c95"/></g><g><path d="m26.04951 16.58733-.00021.07475-.46837-.27042.00021-.07475z" fill="#768c95"/></g><g><path d="m26.63753 16.34057-.00021.07475-.42697.24812.00021-.07475z" fill="#768c95"/></g><g><path d="m26.21056 16.58869-.00021.07475c-.04538.02637-.11655.02433-.16105-.00137l.00021-.07475c.0445.0257.11567.02775.16105.00137z" fill="#768c95"/></g><g><path d="m26.63465 16.24728c.0445.02569.04706.06761.00288.09328l-.42697.24813c-.04538.02637-.11655.02433-.16105-.00136l-.46837-.27042c-.04098-.02366-.04592-.06556-.00054-.09193l.42697-.24813c.04418-.02567.11772-.02365.15871.00001z" fill="#475e68"/></g></g><g enable-background="new"><g><path d="m25.00278 16.83821.00021-.07475c-.00005.01745.01175.03505.03473.04831l-.00021.07475c-.02299-.01326-.03478-.03086-.03473-.04831z" fill="#768c95"/></g><g><path d="m26.12462 16.78752-.00021.07475c-.00004.0163-.01133.0327-.03402.04588l.00021-.07475c.02269-.01318.03397-.02958.03402-.04588z" fill="#768c95"/></g><g><path d="m26.0906 16.8334-.00021.07475-.42697.24813.00021-.07475z" fill="#768c95"/></g><g><path d="m25.5061 17.0822-.00022.07475-.46838-.27042.00021-.07475z" fill="#768c95"/></g><g><path d="m25.66363 17.08153-.00021.07475c-.04418.02567-.11304.02635-.15753.00067l.00021-.07475c.04449.02568.11335.025.15753-.00067z" fill="#768c95"/></g><g><path d="m26.09123 16.74215c.04449.02569.04474.06488-.00064.09125l-.42697.24813c-.04418.02567-.11304.02635-.15753.00067l-.46838-.27042c-.04449-.02569-.04706-.06761-.00288-.09328l.42697-.24813c.04538-.02637.11656-.02432.16105.00137z" fill="#475e68"/></g></g><g enable-background="new"><g><path d="m28.04064 16.10562.00021-.07475c-.00004.01643.01057.03304.03309.04605l-.00021.07475c-.02252-.01301-.03314-.02963-.03309-.04605z" fill="#768c95"/></g><g><path d="m29.04702 16.11843-.00021.07475c-.00005.01646-.01105.03291-.03304.04569l.00021-.07475c.02198-.01278.03299-.02922.03304-.04569z" fill="#768c95"/></g><g><path d="m29.01398 16.16412-.00021.07475-.31406.18251.00021-.07475z" fill="#768c95"/></g><g><path d="m28.54115 16.34665-.00021.07475-.46721-.26974.00021-.07475z" fill="#768c95"/></g><g><path d="m28.69992 16.34663-.00021.07475c-.04191.02435-.11427.02572-.15877.00002l.00021-.07475c.0445.0257.11686.02434.15877-.00002z" fill="#768c95"/></g><g><path d="m29.0135 16.07215c.0445.02569.04472.06625.00048.09196l-.31406.18251c-.04191.02435-.11427.02572-.15877.00002l-.46721-.26974c-.04567-.02637-.04239-.06761-.00048-.09196l.31406-.18251c.04424-.02571.1131-.02639.15877-.00002z" fill="#475e68"/></g></g><g enable-background="new"><g><path d="m27.28593 16.54482.00021-.07475c-.00004.01638.01059.03275.03283.04559l-.00021.07475c-.02225-.01284-.03288-.02921-.03283-.04559z" fill="#768c95"/></g><g><path d="m28.40774 16.49058-.00021.07475c-.00004.01608-.01076.03209-.03242.04468l.00021-.07475c.02166-.01258.03238-.0286.03242-.04468z" fill="#768c95"/></g><g><path d="m28.37532 16.53527-.00021.07475-.42811.24879.00021-.07475z" fill="#768c95"/></g><g><path d="m27.78617 16.7854-.00021.07475-.46721-.26974.00021-.07475z" fill="#768c95"/></g><g><path d="m27.94721 16.78406-.00021.07475c-.04418.02567-.11654.02704-.16104.00134l.00021-.07475c.0445.02569.11686.02433.16104-.00134z" fill="#768c95"/></g><g><path d="m28.37364 16.444c.0445.02569.04586.06559.00168.09127l-.42811.24879c-.04418.02567-.11654.02704-.16104.00134l-.46721-.26974c-.04567-.02637-.04239-.06761.00179-.09329l.42811-.24879c.04418-.02567.1119-.02569.15757.00067z" fill="#475e68"/></g></g><g enable-background="new"><g><path d="m26.2665 16.76138.00021-.07475c-.00004.0163.01114.03253.03339.04537l-.00021.07475c-.02225-.01284-.03344-.02906-.03339-.04537z" fill="#768c95"/></g><g><path d="m27.38896 16.71172-.00021.07475c-.00005.01627-.01022.03237-.03129.04461l.00021-.07475c.02107-.01224.03124-.02834.03129-.04461z" fill="#768c95"/></g><g><path d="m26.76847 17.00242-.00021.07475-.46838-.27041.00022-.07476z" fill="#768c95"/></g><g><path d="m27.35767 16.75634-.00021.07475-.42698.24812.00022-.07475z" fill="#768c95"/></g><g><path d="m26.9307 17.00446-.00021.07475c-.04538.02637-.11772.02365-.16223-.00204l.00021-.07475c.0445.02569.11685.02842.16223.00204z" fill="#768c95"/></g><g><path d="m27.35361 16.66237c.0445.02569.04824.06829.00406.09396l-.42697.24813c-.04538.02637-.11772.02365-.16223-.00204l-.46837-.27042c-.04449-.02569-.04475-.06488.00063-.09126l.42697-.24813c.04418-.02567.11305-.02635.15754-.00066z" fill="#475e68"/></g></g><g enable-background="new"><g><path d="m25.71822 17.25128.00021-.07475c-.00005.01745.01175.03504.03473.04831l-.00021.07475c-.02298-.01327-.03478-.03086-.03473-.04831z" fill="#768c95"/></g><g><path d="m26.84065 17.20156-.00021.07475c-.00005.01626-.01104.03256-.03343.04557l.00021-.07475c.02239-.013.03338-.02931.03343-.04557z" fill="#768c95"/></g><g><path d="m26.80722 17.24714-.00022.07475-.42697.24813.00022-.07475z" fill="#768c95"/></g><g><path d="m26.22154 17.49526-.00022.07475-.46837-.27042.00021-.07475z" fill="#768c95"/></g><g><path d="m26.38025 17.49527-.00021.07475c-.04418.02567-.11421.02567-.15871-.00001l.00021-.07475c.04449.02568.11452.02568.15871.00001z" fill="#768c95"/></g><g><path d="m26.80667 17.15521c.04449.02569.04592.06556.00054.09193l-.42697.24813c-.04418.02567-.11421.02567-.15871-.00001l-.46837-.27042c-.0445-.02569-.04706-.06761-.00288-.09328l.42697-.24813c.04538-.02637.11655-.02433.16105.00137z" fill="#475e68"/></g></g><g enable-background="new"><g><path d="m28.75653 16.51861.00021-.07475c-.00005.01661.01056.03337.03264.04612l-.00021.07475c-.02208-.01275-.03268-.02951-.03264-.04612z" fill="#768c95"/></g><g><path d="m29.76484 16.53419-.00021.07475c-.00005.01635-.01049.03258-.0319.04502l.00021-.07475c.0214-.01244.03185-.02867.0319-.04502z" fill="#768c95"/></g><g><path d="m29.25776 16.76039-.00021.07475-.46837-.27041.00021-.07475z" fill="#768c95"/></g><g><path d="m29.73293 16.57921-.00021.07475-.31406.18251.00022-.07475z" fill="#768c95"/></g><g><path d="m29.41888 16.76172-.00021.07475c-.04191.02435-.11661.02436-.16111-.00133l.00021-.07475c.0445.0257.1192.02569.16111.00133z" fill="#768c95"/></g><g><path d="m29.73011 16.48589c.0445.02569.04707.06761.00282.09332l-.31406.18251c-.04191.02435-.11661.02436-.16111-.00133l-.46837-.27042c-.04449-.02569-.04239-.06761-.00048-.09196l.31406-.18251c.04424-.02571.11428-.02571.15877-.00002z" fill="#475e68"/></g></g><g enable-background="new"><g><path d="m28.00183 16.95783.00021-.07475c-.00005.01656.01057.03305.03237.04564l-.00021.07475c-.02181-.01259-.03242-.02907-.03237-.04564z" fill="#768c95"/></g><g><path d="m29.12559 16.90634-.00021.07475c-.00005.01596-.01023.03176-.03131.04402l.00021-.07475c.02108-.01225.03126-.02805.03131-.04402z" fill="#768c95"/></g><g><path d="m29.09428 16.95036-.00022.07475-.4281.24879.00021-.07475z" fill="#768c95"/></g><g><path d="m28.50278 17.19914-.00021.07475-.46837-.27042.00021-.07475z" fill="#768c95"/></g><g><path d="m28.66617 17.19915-.00021.07475c-.04418.02567-.11888.02568-.16338-.00001l.00021-.07475c.0445.02569.1192.02568.16338.00001z" fill="#768c95"/></g><g><path d="m29.09026 16.85774c.0445.02569.0482.06695.00402.09262l-.42811.24879c-.04418.02567-.11888.02568-.16338-.00001l-.46837-.27041c-.04449-.02569-.04239-.06761.00179-.09329l.42811-.24879c.04418-.02567.11308-.02501.15757.00067z" fill="#475e68"/></g></g><g enable-background="new"><g><path d="m26.9856 17.17624.00021-.07475c-.00005.01649.01143.03301.03441.04628l-.00021.07475c-.02298-.01327-.03446-.02978-.03441-.04628z" fill="#768c95"/></g><g><path d="m28.10792 17.12681-.00021.07475c-.00005.01627-.01022.03237-.03129.04461l.00021-.07475c.02107-.01224.03124-.02833.03129-.04461z" fill="#768c95"/></g><g><path d="m27.48743 17.41751-.00021.07475-.46721-.26974.00021-.07475z" fill="#768c95"/></g><g><path d="m28.07663 17.17143-.00022.07475-.42697.24812.00021-.07474z" fill="#768c95"/></g><g><path d="m27.64965 17.41956-.00021.07475c-.04538.02637-.11772.02365-.16222-.00204l.00021-.07475c.0445.02568.11684.02841.16222.00204z" fill="#768c95"/></g><g><path d="m28.07257 17.07747c.0445.02569.04824.06828.00406.09396l-.42697.24813c-.04538.02637-.11772.02365-.16222-.00204l-.46721-.26974c-.04566-.02636-.04592-.06556-.00054-.09193l.42697-.24813c.04418-.02567.11305-.02635.15871.00001z" fill="#475e68"/></g></g><g enable-background="new"><g><path d="m26.43422 17.66398.00021-.07475c-.00005.01785.01208.03591.03535.04934l-.00021.07475c-.02327-.01343-.0354-.03149-.03535-.04934z" fill="#768c95"/></g><g><path d="m27.55537 17.61457-.00021.07475c-.00004.01623-.01048.03271-.03271.04563l.00021-.07475c.02223-.01291.03267-.02939.03271-.04563z" fill="#768c95"/></g><g><path d="m27.52267 17.66021-.00022.07474-.42697.24813.00021-.07475z" fill="#768c95"/></g><g><path d="m26.93815 17.90899-.00021.07476-.46837-.27042.00021-.07475z" fill="#768c95"/></g><g><path d="m27.09569 17.90833-.00021.07475c-.04418.02567-.11656.02432-.15754.00066l.00021-.07475c.04099.02367.11336.02502.15754-.00066z" fill="#768c95"/></g><g><path d="m27.52329 17.56895c.04098.02366.04475.06488-.00063.09126l-.42697.24813c-.04418.02567-.11656.02432-.15754.00066l-.46837-.27042c-.04449-.02569-.04824-.06828-.00406-.09396l.42697-.24813c.04538-.02637.11773-.02364.16223.00204z" fill="#475e68"/></g></g><g enable-background="new"><g><path d="m29.47432 16.93164.00021-.07475c-.00005.0174.01113.03508.03382.04818l-.00021.07475c-.02269-.0131-.03387-.03077-.03382-.04818z" fill="#768c95"/></g><g><path d="m30.48201 16.94627-.00022.07475c-.00004.01651-.01134.03305-.03362.046l.00021-.07475c.02228-.01294.03358-.02948.03363-.046z" fill="#768c95"/></g><g><path d="m30.44839 16.99228-.00022.07475-.31406.18251.00022-.07475z" fill="#768c95"/></g><g><path d="m29.97672 17.17548-.00021.07475-.46837-.27041.00021-.07475z" fill="#768c95"/></g><g><path d="m30.13433 17.17479-.00021.07475c-.04191.02435-.1131.02639-.1576.0007l.00021-.07475c.04449.02569.11569.02365.1576-.0007z" fill="#768c95"/></g><g><path d="m30.44907 16.90098c.0445.02569.04355.06558-.00069.09129l-.31406.18251c-.04191.02435-.1131.02639-.1576.0007l-.46837-.27041c-.04449-.02569-.04473-.06896-.00282-.09332l.31406-.18251c.04424-.02571.11662-.02436.16111.00133z" fill="#475e68"/></g></g><g enable-background="new"><g><path d="m28.71963 17.3709.00021-.07475c-.00005.01735.01114.03474.03353.04767l-.00021.07475c-.0224-.01293-.03358-.03032-.03353-.04767z" fill="#768c95"/></g><g><path d="m29.84273 17.31843-.00021.07475c-.00004.01613-.01104.03224-.033.045l.00021-.07475c.02195-.01277.03295-.02888.033-.045z" fill="#768c95"/></g><g><path d="m29.80972 17.36342-.00021.07475-.4281.24879.00021-.07475z" fill="#768c95"/></g><g><path d="m29.22174 17.61423-.00021.07475-.46837-.27042.00021-.07475z" fill="#768c95"/></g><g><path d="m29.38162 17.61221-.00021.07475c-.04418.02567-.11537.02771-.15988.00202l.00021-.07475c.0445.02569.1157.02366.15988-.00202z" fill="#768c95"/></g><g><path d="m29.80922 17.27283c.0445.02569.04469.06492.00051.09059l-.42811.24879c-.04418.02567-.11537.02771-.15988.00202l-.46837-.27042c-.04449-.02569-.04473-.06896-.00055-.09464l.42811-.24879c.04418-.02567.11542-.02366.15991.00203z" fill="#475e68"/></g></g><g enable-background="new"><g><path d="m23.95404 17.04007.00021-.07475c-.00005.01749.01207.03517.03533.0486l-.00021.07475c-.02326-.01342-.03538-.03111-.03533-.0486z" fill="#768c95"/></g><g><path d="m25.07781 16.98859-.00021.07475c-.00005.01723-.01164.03455-.03416.04764l.00021-.07475c.02252-.01309.03411-.03041.03416-.04764z" fill="#768c95"/></g><g><path d="m24.45796 17.28435-.00021.07475-.46838-.27042.00021-.07475z" fill="#768c95"/></g><g><path d="m25.04364 17.03623-.00021.07475-.42811.24879.00021-.07475z" fill="#768c95"/></g><g><path d="m24.61553 17.28502-.00021.07475c-.04418.02567-.11308.02501-.15757-.00067l.00021-.07475c.04449.02569.11339.02635.15757.00067z" fill="#768c95"/></g><g><path d="m25.04543 16.94295c.04449.02569.04239.06761-.00179.09329l-.42811.24879c-.04418.02567-.11308.02501-.15757-.00067l-.46838-.27042c-.04449-.02569-.0482-.06695-.00402-.09262l.42811-.24879c.04418-.02567.11889-.02568.16339.00001z" fill="#475e68"/></g></g><g enable-background="new"><g><path d="m24.67625 17.45766.00021-.07475c-.00005.01712.01147.03421.03325.04679l-.00021.07475c-.02178-.01258-.03329-.02967-.03325-.04679z" fill="#768c95"/></g><g><path d="m25.79895 17.40663-.00021.07475c-.00005.01709-.01103.03405-.03284.04672l.00021-.07475c.0218-.01267.03279-.02963.03284-.04672z" fill="#768c95"/></g><g><path d="m25.17692 17.69944-.00021.07475-.46721-.26974.00021-.07475z" fill="#768c95"/></g><g><path d="m25.76611 17.45335-.00021.07475-.42811.24879.00021-.07475z" fill="#768c95"/></g><g><path d="m25.338 17.70214-.00021.07475c-.04418.02567-.11541.02367-.16108-.0027l.00021-.07475c.04567.02637.1169.02837.16108.0027z" fill="#768c95"/></g><g><path d="m25.76439 17.35804c.04567.02637.0459.06964.00172.09531l-.42811.24879c-.04418.02567-.11541.02367-.16108-.0027l-.46721-.26974c-.04216-.02434-.04586-.06559-.00168-.09127l.42811-.24879c.04418-.02567.11888-.02568.16104-.00134z" fill="#475e68"/></g></g><g enable-background="new"><g><path d="m25.39787 17.87498.00021-.07475c-.00005.01671.01143.03349.0341.04658l-.00021.07475c-.02267-.01309-.03415-.02987-.0341-.04658z" fill="#768c95"/></g><g><path d="m26.52156 17.82349-.00021.07475c-.00005.01712-.01104.03422-.03298.04697l.00021-.07475c.02194-.01275.03293-.02984.03298-.04697z" fill="#768c95"/></g><g><path d="m25.90056 18.11724-.00021.07474-.46838-.27042.00021-.07475z" fill="#768c95"/></g><g><path d="m26.48858 17.87047-.00021.07475-.42811.24879.00021-.07475z" fill="#768c95"/></g><g><path d="m26.06047 18.11926-.00021.07475c-.04418.02567-.11541.02367-.15991-.00202l.00021-.07475c.0445.02568.11573.02769.15991.00202z" fill="#768c95"/></g><g><path d="m26.48804 17.77583c.04449.02569.04472.06896.00054.09463l-.42811.24879c-.04418.02567-.11541.02367-.15991-.00202l-.46838-.27042c-.04449-.02569-.04586-.06559-.00168-.09127l.42811-.24879c.04418-.02567.11655-.02703.16104-.00134z" fill="#475e68"/></g></g><g enable-background="new"><g><path d="m21.13022 16.21829.00021-.07475c-.00005.01745.01175.03505.03473.04831l-.00021.07475c-.02298-.01326-.03478-.03086-.03473-.04831z" fill="#768c95"/></g><g><path d="m25.10153 17.81127-.00021.07475c-.00005.01748-.01132.03487-.0334.0477l.00021-.07475c.02207-.01283.03335-.03022.0334-.0477z" fill="#768c95"/></g><g><path d="m24.47893 18.10506-.00021.07475-3.31377-1.9132.00021-.07475z" fill="#768c95"/></g><g><path d="m25.06812 17.85897-.00021.07476-.42697.24812.00021-.07475z" fill="#768c95"/></g><g><path d="m24.64115 18.1071-.00021.07475c-.04418.02567-.11655.02433-.16222-.00204l.00021-.07475c.04567.02637.11804.02772.16222.00204z" fill="#768c95"/></g><g><path d="m25.06754 17.763c.04567.02637.04476.0703.00058.09597l-.42697.24813c-.04418.02567-.11655.02433-.16222-.00204l-3.31377-1.91321c-.04449-.02569-.04706-.06761-.00288-.09328l.42697-.24813c.04418-.02567.12003-.02634.16452-.00065z" fill="#475e68"/></g></g><g enable-background="new"><g><path d="m24.70046 18.2809.00021-.07475c-.00005.01667.01113.03336.03352.04629l-.00021.07475c-.02239-.01293-.03357-.02962-.03352-.04629z" fill="#768c95"/></g><g><path d="m25.82414 18.22812-.00022.07475c-.00005.01751-.01132.03505-.03355.04797l.00021-.07475c.02224-.01292.03351-.03045.03356-.04797z" fill="#768c95"/></g><g><path d="m25.20258 18.52286-.00021.07475-.46839-.27042.00022-.07475z" fill="#768c95"/></g><g><path d="m25.79059 18.27609-.00021.07475-.42697.24813.00021-.07475z" fill="#768c95"/></g><g><path d="m25.36362 18.52422-.00021.07475c-.04418.02567-.11655.02433-.16104-.00136l.00021-.07475c.04449.02569.11686.02704.16104.00136z" fill="#768c95"/></g><g><path d="m25.79119 18.1808c.04449.02569.04358.06962-.0006.09529l-.42697.24813c-.04418.02567-.11655.02433-.16104-.00136l-.46838-.27042c-.04449-.02569-.04472-.06625-.00054-.09193l.42697-.24813c.04418-.02567.11768-.02769.16218-.002z" fill="#475e68"/></g></g><g enable-background="new"><g><path d="m27.70499 17.59126.00021-.07475c-.00004.01669.01144.03334.03398.04635l-.00021.07475c-.02254-.01301-.03402-.02966-.03398-.04635z" fill="#768c95"/></g><g><path d="m28.82743 17.54155-.00021.07475c-.00005.01634-.01048.03255-.03184.04497l.00021-.07475c.02136-.01242.03179-.02863.03184-.04497z" fill="#768c95"/></g><g><path d="m28.20756 17.83328-.00021.07475-.46838-.27042.00021-.07475z" fill="#768c95"/></g><g><path d="m28.79559 17.58652-.00022.07475-.42697.24813.00021-.07475z" fill="#768c95"/></g><g><path d="m28.36861 17.83465-.00021.07475c-.04538.02637-.11656.02432-.16105-.00137l.00021-.07475c.0445.02569.11567.02774.16105.00137z" fill="#768c95"/></g><g><path d="m28.7927 17.49324c.04449.02569.04706.06761.00288.09328l-.42697.24813c-.04538.02637-.11656.02432-.16105-.00137l-.46838-.27042c-.04449-.02569-.04592-.06556-.00054-.09193l.42697-.24813c.04418-.02567.11421-.02567.15871.00001z" fill="#475e68"/></g></g><g enable-background="new"><g><path d="m27.15029 18.07808.00021-.07475c-.00005.01745.01175.03504.03472.04831l-.00021.07475c-.02298-.01327-.03477-.03086-.03472-.04831z" fill="#768c95"/></g><g><path d="m28.27082 18.02763-.00022.07475c-.00004.01623-.01048.03271-.03271.04563l.00021-.07475c.02224-.01291.03267-.02939.03272-.04563z" fill="#768c95"/></g><g><path d="m28.23811 18.07327-.00022.07475-.42697.24812.00021-.07475z" fill="#768c95"/></g><g><path d="m27.6536 18.32206-.00021.07475-.46838-.27042.00021-.07475z" fill="#768c95"/></g><g><path d="m27.81113 18.32139-.00021.07475c-.04418.02567-.11655.02433-.15753.00066l.00021-.07475c.04099.02367.11335.02502.15753-.00066z" fill="#768c95"/></g><g><path d="m28.23874 17.98201c.04098.02366.04474.06488-.00064.09125l-.42697.24813c-.04418.02567-.11655.02433-.15753.00067l-.46838-.27042c-.04449-.02569-.04706-.0676-.00288-.09328l.42697-.24813c.04538-.02637.11655-.02433.16104.00136z" fill="#475e68"/></g></g><g enable-background="new"><g><path d="m26.12034 18.2921.00021-.07475c-.00005.01671.01143.03349.0341.04659l-.00021.07475c-.02267-.0131-.03415-.02988-.0341-.04659z" fill="#768c95"/></g><g><path d="m27.24232 18.2376-.00021.07475c-.00005.01728-.01196.03469-.03478.04796l.00021-.07475c.02282-.01327.03473-.03068.03478-.04796z" fill="#768c95"/></g><g><path d="m27.20754 18.28556-.00022.07475-.4281.24879.00021-.07475z" fill="#768c95"/></g><g><path d="m26.62303 18.53435-.00021.07475-.46838-.27042.00021-.07475z" fill="#768c95"/></g><g><path d="m26.77943 18.53435-.00021.07475c-.04418.02567-.1119.02569-.15639.00001l.00021-.07475c.04449.02568.11221.02566.15639-.00001z" fill="#768c95"/></g><g><path d="m27.21051 18.19295c.04449.02569.04121.06693-.00297.09261l-.42811.24879c-.04418.02567-.1119.02569-.15639 0l-.46838-.27042c-.04449-.02569-.04586-.06559-.00168-.09127l.42811-.24879c.04418-.02567.11655-.02703.16104-.00134z" fill="#475e68"/></g></g><g enable-background="new"><g><path d="m25.44049 18.70816.00021-.07475c-.00005.01667.01113.03336.03352.04629l-.00021.07475c-.02238-.01293-.03356-.02962-.03352-.04629z" fill="#768c95"/></g><g><path d="m26.56403 18.65565-.00021.07475c-.00005.01748-.01132.03487-.0334.0477l.00021-.07475c.02208-.01282.03335-.03022.0334-.0477z" fill="#768c95"/></g><g><path d="m25.94144 18.94944-.00021.07475-.46721-.26974.00021-.07475z" fill="#768c95"/></g><g><path d="m26.53063 18.70336-.00021.07474-.42697.24813.00021-.07475z" fill="#768c95"/></g><g><path d="m26.10366 18.95148-.00021.07475c-.04418.02567-.11656.02432-.16222-.00204l.00021-.07475c.04566.02637.11804.02772.16222.00204z" fill="#768c95"/></g><g><path d="m26.53004 18.60738c.04567.02637.04477.0703.00059.09598l-.42697.24813c-.04418.02567-.11656.02432-.16222-.00204l-.46721-.26974c-.04449-.02569-.04472-.06625-.00054-.09193l.42697-.24813c.04418-.02567.11768-.02769.16218-.002z" fill="#475e68"/></g></g><g enable-background="new"><g><path d="m30.19151 17.34777.00021-.07475c-.00004.01623.01029.03253.03207.04511l-.00021.07475c-.02179-.01258-.03212-.02888-.03207-.04511z" fill="#768c95"/></g><g><path d="m31.19986 17.36337-.00021.07475c-.00004.01628-.01023.0324-.03134.04466l.00021-.07475c.0211-.01226.03129-.02837.03134-.04466z" fill="#768c95"/></g><g><path d="m30.69217 17.58855-.00021.07475-.46838-.27042.00021-.07475z" fill="#768c95"/></g><g><path d="m31.16851 17.40804-.00021.07475-.31406.18251.00021-.07475z" fill="#768c95"/></g><g><path d="m30.85445 17.59055-.00021.07475c-.04191.02435-.11779.02369-.16228-.002l.00021-.07475c.04449.02569.12037.02636.16228.002z" fill="#768c95"/></g><g><path d="m31.16452 17.31405c.04449.02569.04823.06828.00399.09399l-.31406.18251c-.04191.02435-.11779.02369-.16228-.002l-.46838-.27042c-.04449-.02569-.04121-.06693.0007-.09129l.31406-.18251c.04424-.02571.1131-.02639.15759-.0007z" fill="#475e68"/></g></g><g enable-background="new"><g><path d="m29.43679 17.78698.00021-.07475c-.00005.01617.0103.03223.03181.04465l-.00021.07475c-.02151-.01242-.03186-.02848-.03181-.04465z" fill="#768c95"/></g><g><path d="m30.56062 17.73552-.00022.07475c-.00004.0159-.00997.03158-.03076.04366l.00021-.07475c.0208-.01207.03072-.02776.03077-.04366z" fill="#768c95"/></g><g><path d="m29.93719 18.02729-.00021.07476-.46838-.27043.00021-.07475z" fill="#768c95"/></g><g><path d="m30.52985 17.77919-.00021.07475-.42811.24879.00021-.07475z" fill="#768c95"/></g><g><path d="m30.10174 18.02798-.00021.07475c-.04418.02567-.12006.02501-.16455-.00068l.00021-.07475c.0445.02568.12037.02635.16455.00068z" fill="#768c95"/></g><g><path d="m30.52466 17.68589c.04449.02569.04937.06762.00519.09329l-.42811.24879c-.04418.02567-.12006.02501-.16455-.00068l-.46838-.27042c-.04449-.02569-.04121-.06693.00297-.09261l.42811-.24879c.04418-.02567.1119-.02569.15639-.00001z" fill="#475e68"/></g></g><g enable-background="new"><g><path d="m28.42395 18.00635.00021-.07475c-.00004.01669.01144.03334.03398.04635l-.00021.07475c-.02254-.01301-.03403-.02966-.03398-.04635z" fill="#768c95"/></g><g><path d="m29.54639 17.95664-.00021.07475c-.00005.01634-.01048.03255-.03184.04497l.00021-.07475c.02136-.01242.03179-.02863.03184-.04497z" fill="#768c95"/></g><g><path d="m28.92652 18.24837-.00021.07475-.46838-.27042.00021-.07475z" fill="#768c95"/></g><g><path d="m29.51454 18.00161-.00021.07475-.42697.24813.00021-.07475z" fill="#768c95"/></g><g><path d="m29.08757 18.24974-.00021.07475c-.04538.02637-.11656.02432-.16105-.00137l.00021-.07475c.0445.02569.11567.02774.16105.00137z" fill="#768c95"/></g><g><path d="m29.51166 17.90833c.04449.02569.04707.06761.00288.09328l-.42697.24813c-.04538.02637-.11656.02432-.16105-.00137l-.46838-.27042c-.04449-.02569-.04592-.06556-.00054-.09193l.42697-.24813c.04418-.02567.11421-.02567.15871.00001z" fill="#475e68"/></g></g><g enable-background="new"><g><path d="m27.86587 18.49091.00021-.07475c-.00005.01763.01204.03553.03577.04922l-.00021.07475c-.02373-.0137-.03583-.03159-.03577-.04922z" fill="#768c95"/></g><g><path d="m28.98687 18.44172-.00021.07475c-.00004.01618-.01022.03254-.03215.04528l.00021-.07475c.02192-.01274.0321-.0291.03215-.04528z" fill="#768c95"/></g><g><path d="m28.95472 18.487-.00021.07475-.42697.24813.00021-.07475z" fill="#768c95"/></g><g><path d="m28.36904 18.73512-.00021.07475-.4672-.26974.00022-.07475z" fill="#768c95"/></g><g><path d="m28.52775 18.73513-.00021.07475c-.04418.02567-.11772.02365-.15871-.00001l.00021-.07475c.04099.02366.11453.02569.15871.00001z" fill="#768c95"/></g><g><path d="m28.95418 18.39507c.04098.02366.04592.06556.00054.09193l-.42697.24813c-.04418.02567-.11772.02365-.15871-.00001l-.4672-.26974c-.04567-.02637-.04824-.06828-.00406-.09396l.42697-.24813c.04538-.02637.11656-.02432.16222.00204z" fill="#475e68"/></g></g><g enable-background="new"><g><path d="m26.84159 18.7072.00021-.07475c-.00005.01749.01206.03518.03533.0486l-.00021.07475c-.02327-.01343-.03538-.03111-.03533-.0486z" fill="#768c95"/></g><g><path d="m27.96535 18.65571-.00022.07475c-.00005.01723-.01164.03455-.03416.04764l.00021-.07475c.02253-.01309.03412-.0304.03417-.04764z" fill="#768c95"/></g><g><path d="m27.3455 18.95147-.00021.07475-.46837-.27042.00021-.07475z" fill="#768c95"/></g><g><path d="m27.93118 18.70335-.00021.07475-.42811.24879.00021-.07475z" fill="#768c95"/></g><g><path d="m27.50307 18.95214-.00021.07475c-.04418.02567-.11307.02502-.15757-.00067l.00021-.07475c.0445.02569.11339.02635.15757.00067z" fill="#768c95"/></g><g><path d="m27.93297 18.61007c.0445.02569.04239.06761-.00179.09329l-.42811.24879c-.04418.02567-.11307.02502-.15757-.00067l-.46837-.27042c-.04449-.02569-.0482-.06695-.00402-.09262l.42811-.24879c.04418-.02567.11889-.02568.16339.00001z" fill="#475e68"/></g></g><g enable-background="new"><g><path d="m26.1801 19.1355.00021-.07475c-.00005.01647.01114.03303.03396.04621l-.00021.07475c-.02283-.01318-.03401-.02974-.03396-.04621z" fill="#768c95"/></g><g><path d="m27.30407 19.08291-.00021.07475c-.00005.01748-.01132.03487-.0334.0477l.00021-.07475c.02208-.01283.03335-.03022.0334-.0477z" fill="#768c95"/></g><g><path d="m26.68147 19.3767-.00021.07475-.4672-.26974.00021-.07475z" fill="#768c95"/></g><g><path d="m27.27067 19.13062-.00021.07474-.42698.24813.00021-.07475z" fill="#768c95"/></g><g><path d="m26.84369 19.37874-.00021.07475c-.04418.02567-.11656.02432-.16222-.00204l.00021-.07475c.04567.02637.11804.02772.16222.00204z" fill="#768c95"/></g><g><path d="m27.27008 19.03464c.04567.02637.04477.0703.00059.09598l-.42697.24813c-.04418.02567-.11656.02432-.16222-.00204l-.4672-.26974c-.04567-.02637-.04472-.06625-.00054-.09193l.42697-.24813c.04418-.02567.11651-.02837.16218-.002z" fill="#475e68"/></g></g><g enable-background="new"><g><path d="m30.90886 17.75954.00021-.07475c-.00005.01759.01142.03557.03486.0491l-.00021.07475c-.02344-.01352-.03491-.0315-.03486-.0491z" fill="#768c95"/></g><g><path d="m31.91613 17.7756-.00021.07475c-.00005.01641-.01048.0329-.03217.0455l.00021-.07475c.02168-.0126.03212-.02909.03217-.0455z" fill="#768c95"/></g><g><path d="m31.88396 17.82111-.00021.07474-.31406.18252.00021-.07475z" fill="#768c95"/></g><g><path d="m31.41113 18.00364-.00021.07475-.46721-.26974.00021-.07475z" fill="#768c95"/></g><g><path d="m31.5699 18.00362-.00021.07475c-.04191.02435-.11662.02436-.15877.00002l.00021-.07475c.04215.02434.11686.02433.15877-.00002z" fill="#768c95"/></g><g><path d="m31.88348 17.72914c.04215.02434.04472.06625.00048.09197l-.31406.18251c-.04191.02435-.11662.02436-.15877.00002l-.46721-.26974c-.04567-.02637-.0459-.06964-.00399-.09399l.31406-.18251c.04424-.02571.11661-.02436.16228.002z" fill="#475e68"/></g></g><g enable-background="new"><g><path d="m31.62651 18.17559.00021-.07475c-.00005.01662.01056.03337.03265.04612l-.00021.07475c-.02209-.01275-.03269-.0295-.03265-.04612z" fill="#768c95"/></g><g><path d="m32.84322 18.31017-.00022.07475c-.00005.01646-.01105.03291-.03304.04569l.00021-.07475c.02199-.01278.033-.02923.03305-.04569z" fill="#768c95"/></g><g><path d="m32.81018 18.35586-.00021.07475-.31406.18251.00021-.07475z" fill="#768c95"/></g><g><path d="m32.33735 18.53839-.00021.07475-.67798-.39143.00021-.07475z" fill="#768c95"/></g><g><path d="m32.49612 18.53837-.00021.07475c-.04191.02435-.11428.02571-.15877.00002l.00021-.07475c.04449.02569.11686.02433.15877-.00002z" fill="#768c95"/></g><g><path d="m32.8097 18.26389c.04449.02569.04472.06625.00048.09197l-.31406.18251c-.04191.02435-.11428.02571-.15877.00002l-.67798-.39143c-.0445-.02569-.04239-.06761-.00048-.09197l.31406-.18251c.04424-.02571.11427-.02572.15877-.00002z" fill="#475e68"/></g></g><g enable-background="new"><g><path d="m30.21797 18.23764.00021-.07475c-.00004.01638.01059.03274.03283.04558l-.00021.07475c-.02225-.01284-.03288-.0292-.03283-.04558z" fill="#768c95"/></g><g><path d="m32.20394 18.68232-.00021.07475c-.00005.01608-.01076.03209-.03242.04468l.00021-.07475c.02166-.01259.03238-.0286.03242-.04468z" fill="#768c95"/></g><g><path d="m32.17152 18.72701-.00021.07475-.42811.24878.00021-.07475z" fill="#768c95"/></g><g><path d="m31.58237 18.97714-.00021.07475-1.33137-.76867.00021-.07475z" fill="#768c95"/></g><g><path d="m31.74341 18.97579-.00021.07475c-.04418.02567-.11655.02703-.16104.00134l.00021-.07475c.04449.0257.11686.02434.16104-.00134z" fill="#768c95"/></g><g><path d="m32.16984 18.63574c.04449.02569.04586.06559.00168.09127l-.42811.24879c-.04418.02567-.11655.02703-.16104.00134l-1.33137-.76867c-.04567-.02637-.04239-.06761.00179-.09328l.42811-.24879c.04418-.02567.1119-.02569.15757.00067z" fill="#475e68"/></g></g><g enable-background="new"><g><path d="m29.1435 18.42243.00021-.07475c-.00005.0163.01114.03252.03338.04537l-.00021.07475c-.02224-.01285-.03342-.02907-.03338-.04537z" fill="#768c95"/></g><g><path d="m30.26596 18.37276-.00021.07475c-.00005.01627-.01022.03237-.03129.04462l.00021-.07475c.02107-.01225.03124-.02835.03129-.04462z" fill="#768c95"/></g><g><path d="m29.64548 18.66346-.00021.07475-.46838-.27042.00021-.07475z" fill="#768c95"/></g><g><path d="m30.23467 18.41737-.00021.07475-.42697.24813.00021-.07475z" fill="#768c95"/></g><g><path d="m29.8077 18.6655-.00021.07475c-.04538.02637-.11772.02365-.16222-.00204l.00021-.07475c.0445.02569.11684.02841.16222.00204z" fill="#768c95"/></g><g><path d="m30.23062 18.32342c.04449.02569.04823.06828.00405.09396l-.42697.24812c-.04538.02637-.11772.02365-.16222-.00204l-.46838-.27042c-.04449-.02569-.04474-.06488.00064-.09125l.42697-.24813c.04418-.02567.11304-.02635.15753-.00067z" fill="#475e68"/></g></g><g enable-background="new"><g><path d="m29.83494 18.82099.00021-.07475c-.00005.01669.01144.03334.03398.04635l-.00021.07475c-.02254-.01302-.03403-.02966-.03398-.04635z" fill="#768c95"/></g><g><path d="m31.50651 19.08699-.00021.07475c-.00005.01645-.01103.03288-.03298.04564l.00021-.07475c.02195-.01275.03294-.02918.03298-.04564z" fill="#768c95"/></g><g><path d="m31.47353 19.13263-.00021.07475-.42697.24813.00021-.07475z" fill="#768c95"/></g><g><path d="m30.88785 19.38075-.00021.07475-1.01872-.58816.00021-.07475z" fill="#768c95"/></g><g><path d="m31.04656 19.38076-.00021.07475c-.04538.02637-.11421.02567-.15871-.00001l.00021-.07475c.0445.02569.11333.02638.15871.00001z" fill="#768c95"/></g><g><path d="m31.47299 19.0407c.04449.02569.04472.06626.00054.09193l-.42697.24813c-.04538.02637-.11421.02567-.15871-.00001l-1.01872-.58816c-.0445-.02569-.04592-.06556-.00054-.09193l.42697-.24813c.04418-.02567.11421-.02568.15871.00001z" fill="#475e68"/></g></g><g enable-background="new"><g><path d="m28.58134 18.90458.00021-.07475c-.00005.01728.01118.03443.03223.04659l-.00021.07475c-.02106-.01216-.03228-.02931-.03223-.04659z" fill="#768c95"/></g><g><path d="m30.80898 19.49268-.00021.07475c-.00005.01626-.01104.03256-.03344.04558l.00021-.07475c.0224-.01302.0334-.02932.03344-.04558z" fill="#768c95"/></g><g><path d="m30.77555 19.53826-.00022.07475-.42697.24813.00021-.07476z" fill="#768c95"/></g><g><path d="m30.18987 19.78637-.00021.07475-1.5761-.90995.00022-.07475z" fill="#768c95"/></g><g><path d="m30.34857 19.78638-.00021.07475c-.04418.02567-.11421.02567-.15871-.00001l.00021-.07475c.0445.02569.11453.02569.15871.00001z" fill="#768c95"/></g><g><path d="m30.775 19.44633c.04449.02569.04592.06556.00054.09193l-.42697.24813c-.04418.02567-.11421.02567-.15871-.00001l-1.57609-.90996c-.04099-.02366-.04472-.06625-.00054-.09193l.42697-.24813c.04538-.02637.11772-.02365.15871.00001z" fill="#475e68"/></g></g><g enable-background="new"><g><path d="m27.57811 19.13243.00021-.07475c-.00005.01749.01206.03517.03533.0486l-.00021.07475c-.02326-.01343-.03538-.03111-.03533-.0486z" fill="#768c95"/></g><g><path d="m30.11286 19.89558-.00021.07475c-.00005.01723-.01164.03455-.03416.04764l.00021-.07475c.02252-.01309.03411-.03041.03416-.04764z" fill="#768c95"/></g><g><path d="m29.49302 20.19134-.00022.07475-1.87936-1.08505.00021-.07475z" fill="#768c95"/></g><g><path d="m30.0787 19.94322-.00022.07475-.4281.24879.00021-.07475z" fill="#768c95"/></g><g><path d="m29.65059 20.19201-.00021.07475c-.04418.02567-.11308.02501-.15757-.00067l.00021-.07475c.04449.02569.11339.02635.15757.00067z" fill="#768c95"/></g><g><path d="m30.08049 19.84994c.04449.02569.04239.06761-.00179.09329l-.42811.24879c-.04418.02567-.11308.02501-.15757-.00067l-1.87936-1.08505c-.0445-.02569-.0482-.06695-.00402-.09262l.42811-.24879c.04418-.02567.11888-.02568.16338.00001z" fill="#475e68"/></g></g><g enable-background="new"><g><path d="m26.89065 19.52603.00021-.07475c-.00005.01615.01031.03208.03168.04442l-.00021.07475c-.02137-.01234-.03172-.02827-.03168-.04442z" fill="#768c95"/></g><g><path d="m27.67109 19.66906-.00021.07475c-.00005.01647-.01105.03291-.03304.04569l.00021-.07475c.02199-.01278.03299-.02923.03304-.04569z" fill="#768c95"/></g><g><path d="m27.63805 19.71475-.00021.07475-.08489.04933.00021-.07475z" fill="#768c95"/></g><g><path d="m27.39092 19.76612-.00021.07475-.46837-.27041.00021-.07476z" fill="#768c95"/></g><g><path d="m27.55316 19.76408-.00021.07475c-.04538.02637-.11775.02773-.16224.00204l.00021-.07475c.0445.02569.11686.02433.16224-.00204z" fill="#768c95"/></g><g><path d="m27.63758 19.62278c.04449.02569.04472.06625.00048.09196l-.08489.04933c-.04538.02637-.11775.02773-.16224.00204l-.46837-.27042c-.0445-.02569-.04122-.06694.00416-.09331l.08489-.04933c.04424-.02571.1131-.02639.1576-.0007z" fill="#475e68"/></g></g><g enable-background="new"><g><path d="m27.93297 19.73098.00021-.07475c-.00005.01669.01143.03333.03395.04633l-.00021.07475c-.02252-.01299-.034-.02964-.03395-.04633z" fill="#768c95"/></g><g><path d="m28.71688 19.87794-.00021.07475c-.00004.01635-.01049.03258-.0319.04502l.00021-.07475c.0214-.01244.03185-.02867.0319-.04502z" fill="#768c95"/></g><g><path d="m28.43551 19.97299-.00021.07475-.46838-.27042.00021-.07475z" fill="#768c95"/></g><g><path d="m28.68497 19.92296-.00021.07475-.08836.05135.00021-.07475z" fill="#768c95"/></g><g><path d="m28.59661 19.97431-.00021.07475c-.04538.02637-.11661.02436-.16111-.00132l.00021-.07475c.0445.02569.11574.02769.16111.00132z" fill="#768c95"/></g><g><path d="m28.68216 19.82965c.04449.02569.04706.0676.00281.09332l-.08836.05135c-.04538.02637-.11661.02436-.16111-.00133l-.46838-.27042c-.04449-.02569-.04586-.06559-.00048-.09196l.08836-.05135c.04424-.02571.11428-.02571.15877-.00002z" fill="#475e68"/></g></g><g enable-background="new"><g><path d="m27.59266 19.93068.00021-.07475c-.00004.01653.01057.03289.03224.0454l-.00021.07475c-.02167-.01251-.03228-.02887-.03224-.0454z" fill="#768c95"/></g><g><path d="m28.37486 20.0767-.00021.07475c-.00005.01635-.01049.03258-.0319.04502l.00021-.07475c.0214-.01244.03185-.02867.0319-.04502z" fill="#768c95"/></g><g><path d="m28.34296 20.12172-.00022.07475-.08489.04934.00022-.07476z" fill="#768c95"/></g><g><path d="m28.09349 20.17175-.00021.07475-.46838-.27042.00021-.07475z" fill="#768c95"/></g><g><path d="m28.25807 20.17105-.00021.07475c-.04538.02637-.12008.02638-.16458.00069l.00021-.07475c.04449.0257.1192.02569.16458-.00069z" fill="#768c95"/></g><g><path d="m28.34014 20.02841c.04449.02569.04706.0676.00281.09331l-.08489.04933c-.04538.02637-.12008.02638-.16458.00069l-.46838-.27042c-.04449-.02569-.04239-.06761.00299-.09398l.08489-.04933c.04424-.02571.11428-.02571.15877-.00002z" fill="#475e68"/></g></g><g enable-background="new"><g><path d="m28.29657 20.3354.00021-.07475c-.00005.01752.01143.03506.0344.04833l-.00021.07475c-.02297-.01326-.03445-.03081-.0344-.04833z" fill="#768c95"/></g><g><path d="m29.07856 20.48166-.00021.07475c-.00004.01646-.01105.03291-.03304.04569l.00021-.07475c.02199-.01278.033-.02922.03304-.04569z" fill="#768c95"/></g><g><path d="m29.04552 20.52735-.00021.07475-.08489.04933.00021-.07475z" fill="#768c95"/></g><g><path d="m28.79839 20.57872-.00021.07475-.46721-.26974.00022-.07475z" fill="#768c95"/></g><g><path d="m28.96063 20.57668-.00021.07475c-.04538.02637-.11775.02773-.16224.00204l.00021-.07475c.0445.02569.11686.02434.16224-.00204z" fill="#768c95"/></g><g><path d="m29.04505 20.43539c.04449.02569.04472.06625.00048.09196l-.08489.04933c-.04538.02637-.11775.02773-.16224.00204l-.46721-.26974c-.04567-.02637-.04589-.06964-.00051-.09601l.08489-.04933c.04424-.02571.11661-.02436.16228.002z" fill="#475e68"/></g></g></g><g><path d="m20.48828 16.43904 4.15988 2.40156.02651-.01534c.05549-.03218.05307-.08589-.00274-.11807l-4.18365-2.41541c-.05374-.03112-.14642-.0324-.20189 0l-2.28567 1.32823c-.05749.03346-.05507.08717-.00133.11807l.02584.01492 2.26116-1.31395c.05547-.03241.14816-.03113.20189-.00001z" fill="#b0b8bc"/><path d="m22.38901 20.15347 2.25916-1.31288-4.15988-2.40156c-.05374-.03112-.14642-.03239-.20189 0l-2.26116 1.31395 4.1578 2.40049c.05582.03219.14847.03347.20597 0z" fill="#cfd8dd"/></g></g></g></g><g><path d="m31.86665 19.74042.00062.22099 2.07159-1.22283-.00061-.22099z" fill="#9ba2a6"/></g></g></g><g><g><g><path d="m16.71868 12.4648.55294.3783-4.43576 2.17408.93492-.83924z" fill="#dde4e7"/></g><g><path d="m13.98781 10.40815 2.80917 1.0533-.38547.34602z" fill="#dde4e7"/></g><g><path d="m7.67779 11.33142 2.58447-2.32019.85585.3209z" fill="#cfd8dd"/></g><g><path d="m17.13301 12.22403-.41432.24077-2.94791 1.71314-3.4408 1.99958-.50159.29149-2.37239-1.3697-2.41936-1.39683-.43574-.25157-.28606-.16515 3.36296-1.95434 3.44031-1.99929.50135-.29135 2.36836 1.36737 2.42369 1.39932z" fill="#bec4c7"/></g><g><path d="m12.83586 15.01718-1.65028 1.48138-.77723-.29159-.07838-.02945 3.44081-1.99958z" fill="#dde4e7"/></g><g><path d="m4.6009 13.45091.43573.25158-.02933.02632z" fill="#cfd8dd"/></g><g><path d="m5.0073 13.72881.02933-.02632 2.41936 1.39682-.98452-.36943-1.81907-.68245z" fill="#cfd8dd"/></g><g><path d="m9.82839 16.46901.50158-.29149.07838.02945-1.03488.50721-2.902-1.9843.98452.36943z" fill="#dde4e7"/></g></g><g><g><path d="m17.13056 12.22053-7.30005 4.25-5.51995-3.18018 7.30999-4.25z" fill="#fff"/></g></g></g><g><g><g><g enable-background="new"><g><path d="m34.25 21.84108-.17763.19763-.47102.5209.03992-.20154-.1497-.23759-.18961-.03791.70255-.17961z" fill="#ffd699"/></g><g><path d="m33.49176 22.11979.1493.23858-.04047.20202-.18976-.03698-.14892-.23836.04046-.2016z" fill="#777a7c"/></g></g></g><g><g enable-background="new"><g><path d="m28.37079 24.94863 4.93142-2.86583.18939.03635-4.93142 2.86583z" fill="#97c269"/></g><g><path d="m28.70948 25.22355 4.93142-2.86582-.04047.20201-4.93142 2.86583z" fill="#5e8632"/></g><g><path d="m28.56018 24.98498 4.93142-2.86583.1493.23858-4.93142 2.86582z" fill="#7db343"/></g><g><path d="m28.56018 24.98498.1493.23857-.04047.20202-.18976-.03697-.14893-.23837.04047-.2016z" fill="#ffd699"/></g></g></g><path d="m34.25 21.84108-.17764.19764c-.03193-.03791-.05588-.08586-.06786-.13575z" fill="#475e68"/></g><g><path d="m28.52009 25.11972c.03262.01883.05844.06357.05833.10101-.0001.0375-.02609.05233-.05871.0335-.03166-.01828-.05844-.06357-.05833-.10107.0001-.03744.02705-.05172.05871-.03344z" fill="#475e68"/></g></g></g><g fill="#72d4e6"><path d="m30.39342 7.86868-4.98004 4.99023-.94-.54004 4.99005-4.99023z"/><path d="m33.6134 9.72903v.01953l-4.96998 4.97022-2.69-1.54981 4.98999-4.97998z"/></g><g><path d="m4.05142 17.51082 12.74376 7.35761-.01265 4.46071-12.74376-7.35761zm12.37472 11.20112.01032-3.63878-12.0287-6.94477-.01032 3.63878z" fill="#3f535c"/></g><g><path d="m18.71916 25.84236 12.74376 7.35761-.01265 4.46071-12.74376-7.35761zm12.37472 11.20112.01031-3.63878-12.0287-6.94477-.01031 3.63878z" fill="#3f535c"/></g><g><path d="m10.33027 22.78473c.30787.17775.55458.60498.55359.95535-.00099.35019-.24932.49179-.55719.31405-.30486-.17601-.55157-.60343-.55058-.95362.00099-.35037.24932-.49179.55418-.31578z" fill="#3f535c"/></g><g><path d="m24.64846 30.83318c.30787.17775.55458.60498.55359.95535-.00099.35019-.24932.49179-.55719.31405-.30486-.17601-.55157-.60343-.55058-.95362.001-.35037.24932-.49178.55418-.31578z" fill="#3f535c"/></g></g></svg>