<svg id="Layer_1" enable-background="new 0 0 74 74" height="512" viewBox="0 0 74 74" width="512" xmlns="http://www.w3.org/2000/svg" xmlns:xlink="http://www.w3.org/1999/xlink"><linearGradient id="lg1"><stop offset="0" stop-color="#64e88c"/><stop offset="1" stop-color="#3c6"/></linearGradient><linearGradient id="SVGID_1_" gradientUnits="userSpaceOnUse" x1="9.267" x2="14.895" xlink:href="#lg1" y1="4.752" y2="19.565"/><linearGradient id="SVGID_2_" gradientUnits="userSpaceOnUse" x1="10.506" x2="16.134" xlink:href="#lg1" y1="4.281" y2="19.094"/><linearGradient id="SVGID_3_" gradientUnits="userSpaceOnUse" x1="12.068" x2="17.697" xlink:href="#lg1" y1="3.688" y2="18.5"/><linearGradient id="SVGID_4_" gradientUnits="userSpaceOnUse" x1="11.287" x2="16.916" xlink:href="#lg1" y1="3.984" y2="18.797"/><linearGradient id="lg2"><stop offset="0" stop-color="#ff7171"/><stop offset="1" stop-color="#f33"/></linearGradient><linearGradient id="SVGID_5_" gradientUnits="userSpaceOnUse" x1="51.966" x2="58.605" xlink:href="#lg2" y1="6.457" y2="24.018"/><linearGradient id="lg3"><stop offset="0" stop-color="#fff"/><stop offset="1" stop-color="#eff2f8"/></linearGradient><linearGradient id="SVGID_6_" gradientUnits="userSpaceOnUse" x1="55.143" x2="56.701" xlink:href="#lg3" y1="13.841" y2="22.829"/><linearGradient id="SVGID_7_" gradientUnits="userSpaceOnUse" x1="48.648" x2="49.218" xlink:href="#lg3" y1="11.279" y2="14.569"/><linearGradient id="lg4"><stop offset="0" stop-color="#555a60"/><stop offset="1" stop-color="#3f444c"/></linearGradient><linearGradient id="SVGID_8_" gradientUnits="userSpaceOnUse" x1="29.785" x2="35.983" xlink:href="#lg4" y1="58.832" y2="65.247"/><linearGradient id="SVGID_9_" gradientUnits="userSpaceOnUse" x1="33.9" x2="33.982" xlink:href="#lg4" y1="66.77" y2="69.042"/><linearGradient id="SVGID_10_" gradientUnits="userSpaceOnUse" x1="33.906" x2="33.734" y1="53.979" y2="61.303"><stop offset="0" stop-color="#eff2f8"/><stop offset="1" stop-color="#d8dfea"/></linearGradient><linearGradient id="SVGID_11_" gradientUnits="userSpaceOnUse" x1="28.261" x2="39.786" y1="27.267" y2="50.417"><stop offset="0" stop-color="#696c70"/><stop offset="1" stop-color="#3f444c"/></linearGradient><linearGradient id="SVGID_12_" gradientUnits="userSpaceOnUse" x1="29.263" x2="39.272" xlink:href="#lg3" y1="29.319" y2="49.339"/><linearGradient id="SVGID_13_" gradientUnits="userSpaceOnUse" x1="39.367" x2="17.997" xlink:href="#lg3" y1="55.802" y2="37.417"/><linearGradient id="SVGID_14_" gradientUnits="userSpaceOnUse" x1="33.042" x2="34.84" xlink:href="#lg4" y1="56.31" y2="59.401"/><linearGradient id="SVGID_15_" gradientUnits="userSpaceOnUse" x1="20.888" x2="23.493" xlink:href="#lg2" y1="39.48" y2="39.48"/><linearGradient id="lg5"><stop offset="0" stop-color="#ffa04a"/><stop offset="1" stop-color="#f60"/></linearGradient><linearGradient id="SVGID_16_" gradientUnits="userSpaceOnUse" x1="32.638" x2="35.243" xlink:href="#lg5" y1="43.753" y2="43.753"/><linearGradient id="SVGID_17_" gradientUnits="userSpaceOnUse" x1="24.745" x2="27.35" xlink:href="#lg1" y1="45.733" y2="45.733"/><linearGradient id="SVGID_18_" gradientTransform="matrix(-1 0 0 1 -4048.168 0)" gradientUnits="userSpaceOnUse" x1="-4095.162" x2="-4092.556" y1="39.48" y2="39.48"><stop offset="0" stop-color="#ffdc85"/><stop offset="1" stop-color="#fc3"/></linearGradient><linearGradient id="lg6"><stop offset="0" stop-color="#947bff"/><stop offset="1" stop-color="#63f"/></linearGradient><linearGradient id="SVGID_19_" gradientTransform="matrix(-1 0 0 1 -4048.168 0)" gradientUnits="userSpaceOnUse" x1="-4091.305" x2="-4088.7" xlink:href="#lg6" y1="45.733" y2="45.733"/><linearGradient id="SVGID_20_" gradientUnits="userSpaceOnUse" x1="25.727" x2="37.9" y1="11.067" y2="34.893"><stop offset="0" stop-color="#9ce3ff"/><stop offset="1" stop-color="#6cf"/></linearGradient><linearGradient id="SVGID_21_" gradientUnits="userSpaceOnUse" x1="25.72" x2="31.924" xlink:href="#lg5" y1="21.079" y2="30.585"/><linearGradient id="SVGID_22_" gradientUnits="userSpaceOnUse" x1="31.099" x2="27.484" xlink:href="#lg5" y1="29.455" y2="23.675"/><linearGradient id="SVGID_23_" gradientUnits="userSpaceOnUse" x1="27.724" x2="30.09" xlink:href="#lg3" y1="23.291" y2="28.356"/><linearGradient id="SVGID_24_" gradientUnits="userSpaceOnUse" x1="36.819" x2="42.362" xlink:href="#lg6" y1="19.123" y2="27.689"/><linearGradient id="SVGID_25_" gradientUnits="userSpaceOnUse" x1="41.467" x2="38.385" xlink:href="#lg6" y1="25.997" y2="21.802"/><linearGradient id="SVGID_26_" gradientUnits="userSpaceOnUse" x1="38.339" x2="40.593" xlink:href="#lg3" y1="21.587" y2="24.889"/><g><g><path d="m16.04 17.51c0 1.08-.85 1.93-1.92 1.93-1.06 0-1.93-.85-1.93-1.93 0-1.06.87-1.92 1.93-1.92 1.07-.01 1.92.88 1.92 1.92z" fill="url(#SVGID_1_)"/><path d="m18.3 13.31c.27.26.27.68 0 .94-.25.25-.68.25-.93 0-1.77-1.77-4.75-1.77-6.51 0-.27.25-.69.25-.95 0-.25-.26-.25-.68 0-.94 2.29-2.28 6.12-2.28 8.39 0z" fill="url(#SVGID_2_)"/><path d="m23.03 9.52c-.26.27-.68.27-.94 0-4.33-4.31-11.63-4.31-15.95 0-.25.27-.68.27-.95 0-.25-.25-.25-.68 0-.94 4.84-4.84 13-4.83 17.84.01.25.26.25.68 0 .93z" fill="url(#SVGID_3_)"/><path d="m20.67 10.95c.25.25.25.68 0 .94-.26.26-.69.26-.94 0-3.06-3.05-8.19-3.05-11.24-.01-.26.27-.69.27-.94 0-.26-.25-.26-.68 0-.93 3.57-3.56 9.57-3.56 13.12 0z" fill="url(#SVGID_4_)"/></g><g><path d="m69 10.4v14.52c0 .82-.66 1.49-1.49 1.49h-22.62c-.82 0-1.49-.66-1.49-1.49v-14.52c0-.82.66-1.49 1.49-1.49h22.63c.82 0 1.48.67 1.48 1.49z" fill="url(#SVGID_5_)"/><g><path d="m66.88 24.03h-19.94l5.56-8.19 2.49 3.66-1.23 3.69 6.3-9.28z" fill="url(#SVGID_6_)"/><path d="m50.58 12.95c0 .89-.71 1.65-1.65 1.65-.89 0-1.65-.75-1.65-1.65 0-.94.75-1.69 1.65-1.69.95-.01 1.65.75 1.65 1.69z" fill="url(#SVGID_7_)"/></g></g><g><path d="m27.31 58.36h13.27v9.54h-13.27z" fill="url(#SVGID_8_)"/><path d="m46.67 67.9c0 .63-.51 1.13-1.13 1.13h-23.19c-.63 0-1.13-.51-1.13-1.13 0-.63.51-1.13 1.13-1.13h23.18c.63 0 1.14.51 1.14 1.13z" fill="url(#SVGID_9_)"/><path d="m58.66 46.74v11.52c0 1.81-1.47 3.28-3.28 3.28h-42.88c-1.81 0-3.28-1.47-3.28-3.28v-11.52c0-.9.73-1.64 1.64-1.64h46.16c.9 0 1.64.74 1.64 1.64z" fill="url(#SVGID_10_)"/><path d="m58.66 26.87v23.62c0 1.81-1.47 3.28-3.28 3.28h-42.88c-1.81 0-3.28-1.47-3.28-3.28v-23.62c0-1.81 1.47-3.28 3.28-3.28h42.88c1.81 0 3.28 1.47 3.28 3.28z" fill="url(#SVGID_11_)"/><path d="m12.5 51.3c-.45 0-.82-.37-.82-.82v-23.61c0-.45.37-.82.82-.82h42.88c.45 0 .82.37.82.82v23.61c0 .45-.37.82-.82.82z" fill="url(#SVGID_12_)"/><path d="m55.87 51.12c-.12.13-.3.18-.5.18h-42.87c-.45 0-.82-.36-.82-.82v-23.61c0-.27.13-.5.32-.64z" fill="url(#SVGID_13_)"/><path d="m35.72 57.86c0 .97-.8 1.79-1.79 1.79-.97 0-1.77-.82-1.77-1.79 0-.99.8-1.79 1.77-1.79.99 0 1.79.8 1.79 1.79z" fill="url(#SVGID_14_)"/></g><g><g><g><path d="m22.19 39.69c-.22 0-.39-.17-.39-.39v-9.33c0-.22.17-.39.39-.39s.39.17.39.39v9.33c0 .22-.17.39-.39.39z" fill="#555a60"/></g><g><path d="m26.05 45.87c-.22 0-.39-.17-.39-.39v-4.21c0-.22.17-.39.39-.39h2.54v-9.87c0-.22.17-.39.39-.39s.39.17.39.39v10.26c0 .22-.17.39-.39.39h-2.54v3.82c0 .22-.18.39-.39.39z" fill="#555a60"/></g><path d="m23.49 39.48c0 .73-.59 1.3-1.3 1.3s-1.3-.57-1.3-1.3c0-.71.59-1.3 1.3-1.3s1.3.59 1.3 1.3z" fill="url(#SVGID_15_)"/><g><path d="m33.94 43.97c-.22 0-.39-.17-.39-.39v-13.61c0-.22.17-.39.39-.39s.39.17.39.39v13.61c0 .21-.17.39-.39.39z" fill="#555a60"/></g><path d="m35.24 43.75c0 .73-.59 1.3-1.3 1.3s-1.3-.57-1.3-1.3c0-.71.59-1.3 1.3-1.3s1.3.59 1.3 1.3z" fill="url(#SVGID_16_)"/><path d="m27.35 45.73c0 .73-.59 1.3-1.3 1.3s-1.3-.57-1.3-1.3c0-.71.59-1.3 1.3-1.3s1.3.59 1.3 1.3z" fill="url(#SVGID_17_)"/><g><path d="m45.69 39.69c-.22 0-.39-.17-.39-.39v-9.33c0-.22.17-.39.39-.39s.39.17.39.39v9.33c0 .22-.17.39-.39.39z" fill="#555a60"/></g><g><path d="m41.83 45.87c-.22 0-.39-.17-.39-.39v-3.82h-2.54c-.22 0-.39-.17-.39-.39v-10.26c0-.22.17-.39.39-.39s.39.17.39.39v9.87h2.54c.22 0 .39.17.39.39v4.21c.01.22-.17.39-.39.39z" fill="#555a60"/></g><path d="m44.39 39.48c0 .73.59 1.3 1.3 1.3s1.3-.57 1.3-1.3c0-.71-.59-1.3-1.3-1.3s-1.3.59-1.3 1.3z" fill="url(#SVGID_18_)"/><path d="m40.53 45.73c0 .73.59 1.3 1.3 1.3s1.3-.57 1.3-1.3c0-.71-.59-1.3-1.3-1.3s-1.3.59-1.3 1.3z" fill="url(#SVGID_19_)"/></g><g><path d="m53.77 27.14c0 4.09-3.31 7.4-7.4 7.4h-24.86c-4.09 0-7.4-3.31-7.4-7.4s3.31-7.4 7.4-7.4h.03c-.02-.25-.03-.5-.03-.76 0-5.23 4.24-9.47 9.47-9.47 3.28 0 6.17 1.67 7.87 4.21.87-.56 1.93-.89 3.04-.89 3.19 0 5.76 2.57 5.76 5.76 0 .43-.04.84-.14 1.24 3.55.55 6.26 3.62 6.26 7.31z" fill="url(#SVGID_20_)"/><g><g><path d="m24.47 27.73c.09.31.22.61.37.9.06.11.06.24 0 .35l-.56.93c-.08.14-.06.32.05.44l.79.79c.12.12.3.14.44.05l.92-.56c.11-.07.24-.07.36-.01.28.15.58.28.89.37.12.04.22.13.25.26l.26 1.05c.04.16.18.27.35.27h1.12c.16 0 .31-.11.35-.27l.26-1.06c.03-.12.12-.22.25-.25.31-.09.61-.22.89-.37.11-.06.24-.06.35 0l.93.57c.14.09.32.06.44-.05l.79-.79c.12-.12.14-.3.05-.44l-.56-.92c-.07-.11-.07-.24 0-.36.16-.28.28-.59.38-.9.04-.12.13-.22.25-.25l1.06-.26c.16-.04.27-.18.27-.35v-1.12c0-.17-.11-.31-.27-.35l-1.05-.25c-.12-.03-.22-.12-.25-.25-.09-.32-.22-.62-.38-.91-.06-.11-.06-.25 0-.35l.53-.91c.09-.14.07-.32-.05-.44l-.79-.79c-.12-.12-.3-.14-.44-.05l-.93.57c-.11.07-.24.07-.35 0-.28-.15-.58-.28-.89-.37-.12-.04-.22-.13-.25-.25l-.26-1.06c-.04-.16-.18-.27-.35-.27h-1.12c-.16 0-.31.11-.35.27l-.26 1.05c-.03.13-.13.22-.25.26-.31.09-.61.22-.89.37-.11.06-.25.06-.36-.01l-.92-.56c-.14-.09-.32-.06-.44.05l-.79.79c-.12.12-.14.3-.05.44l.56.93c.07.11.07.24 0 .36-.15.28-.28.58-.37.89-.04.12-.13.22-.26.25l-1.05.25c-.16.04-.27.18-.27.35v1.12c0 .16.11.31.27.35l1.06.26c.14.02.23.12.27.24z" fill="url(#SVGID_21_)"/><path d="m25.88 26.32c0-1.8 1.46-3.26 3.26-3.26s3.26 1.46 3.26 3.26-1.46 3.26-3.26 3.26-3.26-1.46-3.26-3.26zm.89 0c0 1.31 1.06 2.37 2.37 2.37s2.37-1.06 2.37-2.37-1.06-2.37-2.37-2.37-2.37 1.06-2.37 2.37z" fill="url(#SVGID_22_)"/><circle cx="29.14" cy="26.32" fill="url(#SVGID_23_)" r="2.58"/></g><g><g><path d="m38.7 19.64-.58-.58c-.13-.13-.34-.16-.5-.06l-.82.48c-.16.09-.24.28-.19.47l.21.79c.04.13 0 .27-.09.38-.32.37-.57.81-.74 1.28-.05.13-.15.23-.28.27l-.79.21c-.18.05-.31.21-.31.4v.94c0 .19.13.35.31.4l.79.21c.13.04.23.14.28.27.16.47.42.91.74 1.28.09.1.13.24.09.38l-.21.79c-.05.18.03.37.19.47l.82.48c.16.09.37.07.5-.06l.58-.58c.1-.1.24-.13.37-.11.23.04.48.07.73.07s.5-.02.73-.07c.14-.03.28.01.37.11l.58.58c.13.13.34.16.5.06l.82-.48c.16-.09.24-.28.19-.47l-.21-.79c-.04-.13 0-.27.09-.38.32-.37.57-.8.74-1.27.05-.13.15-.23.28-.27l.79-.22c.18-.05.3-.21.3-.4v-.94c0-.19-.12-.35-.3-.4l-.79-.22c-.13-.04-.23-.14-.28-.27-.16-.47-.42-.9-.74-1.27-.09-.1-.13-.24-.09-.38l.22-.8c.05-.18-.03-.37-.19-.47l-.82-.47c-.16-.09-.37-.07-.5.06l-.58.58c-.1.1-.24.13-.37.11-.23-.04-.48-.07-.73-.07s-.5.02-.73.07c-.14.02-.28-.01-.38-.11z" fill="url(#SVGID_24_)"/><path d="m37.22 23.73c0-1.43 1.16-2.58 2.58-2.58s2.58 1.16 2.58 2.58-1.16 2.58-2.58 2.58c-1.42.01-2.58-1.15-2.58-2.58zm.7 0c0 1.04.84 1.88 1.88 1.88s1.88-.84 1.88-1.88-.84-1.88-1.88-1.88-1.88.85-1.88 1.88z" fill="url(#SVGID_25_)"/><circle cx="39.8" cy="23.73" fill="url(#SVGID_26_)" r="2.12"/></g></g></g></g></g></g></svg>