<svg height="512" viewBox="0 0 48 60" width="512" xmlns="http://www.w3.org/2000/svg"><g id="Page-1" fill="none" fill-rule="evenodd"><g id="042---Document" fill-rule="nonzero"><path id="Shape" d="m47 13.83v43.17c-.0032948 1.1032019-.8967981 1.9967052-2 2h-42c-1.10320187-.0032948-1.9967052-.8967981-2-2v-54c.0032948-1.10320187.89679813-1.9967052 2-2h31.17c.28647-.00112466.5697318.06030561.83.18v9.82c.0032948 1.1032019.8967981 1.9967052 2 2h9.82c.1196944.2602682.1811247.54353.18.83z" fill="#f5f5f5"/><path id="Shape" d="m46.82 13h-3c.1196944.2602682.1811247.54353.18.83v43.17c-.0032948 1.1032019-.8967981 1.9967052-2 2h3c1.1032019-.0032948 1.9967052-.8967981 2-2v-43.17c.0011247-.28647-.0603056-.5697318-.18-.83z" fill="#cfd8dc"/><path id="Shape" d="m43 13v9c0 .5522847-.4477153 1-1 1h-36c-.55228475 0-1-.4477153-1-1v-16c0-.55228475.44771525-1 1-1h29z" fill="#02a9f4"/><path id="Shape" d="m40 13v9c0 .5522847-.4477153 1-1 1h3c.5522847 0 1-.4477153 1-1v-9z" fill="#0377bc"/><path id="Shape" d="m18.338 23 9.915-11.159c.1897699-.2135498.4618146-.3357382.7475-.3357382s.5577301.1221884.7475.3357382l7.252 8.159 2.67 3z" fill="#60a917"/><circle id="Oval" cx="11" cy="11" fill="#ffdf00" r="2"/><rect id="Rectangle-path" fill="#9e9e9e" height="12" rx="1" width="12" x="31" y="43"/><path id="Shape" d="m42 43h-3c.5522847 0 1 .4477153 1 1v10c0 .5522847-.4477153 1-1 1h3c.5522847 0 1-.4477153 1-1v-10c0-.5522847-.4477153-1-1-1z" fill="#707070"/><path id="Shape" d="m46.82 13h-9.82c-1.1032019-.0032948-1.9967052-.8967981-2-2v-9.82c.2196188.10025599.4194552.23912533.59.41l10.82 10.82c.1708747.1705448.309744.3703812.41.59z" fill="#cfd8dc"/><path id="Shape" d="m25 23-7.253-8.159c-.1897561-.2132111-.4615769-.335176-.747-.335176s-.5572439.1219649-.747.335176l-7.253 8.159z" fill="#a4c400"/><g fill="#000"><path id="Shape" d="m36.293.879c-.5613398-.56495984-1.3255858-.88153492-2.122-.879h-31.171c-1.65685425 0-3 1.34314575-3 3v54c0 1.6568542 1.34314575 3 3 3h42c1.6568542 0 3-1.3431458 3-3v-43.172c.0022673-.7960678-.3142872-1.5599041-.879-2.121zm-13.52 21.121h-11.546l5.773-6.495zm2.676 0-2.443-2.748 5.994-6.747 8.442 9.495zm14.67 0-9.624-10.824c-.3900226-.4084942-.9302123-.6396024-1.495-.6396024s-1.1049774.2311082-1.495.6396024l-5.837 6.569-3.168-3.569c-.3900226-.4084942-.9302123-.6396024-1.495-.6396024s-1.1049774.2311082-1.495.6396024l-6.959 7.824h-2.551v-16h28v5c0 1.6568542 1.3431458 3 3 3h5v8zm-3.119-10c-.5522847 0-1-.4477153-1-1v-7.586l8.586 8.586zm8 46h-42c-.55228475 0-1-.4477153-1-1v-54c0-.55228475.44771525-1 1-1h31v2h-28c-1.1045695 0-2 .8954305-2 2v16c0 1.1045695.8954305 2 2 2h36c1.1045695 0 2-.8954305 2-2v-8h2v43c0 .5522847-.4477153 1-1 1z"/><path id="Shape" d="m11 8c-1.65685425 0-3 1.34314575-3 3 0 1.6568542 1.34314575 3 3 3 1.6568542 0 3-1.3431458 3-3 0-1.65685425-1.3431458-3-3-3zm0 4c-.5522847 0-1-.4477153-1-1s.4477153-1 1-1 1 .4477153 1 1-.4477153 1-1 1z"/><path id="Shape" d="m5 29h14c.5522847 0 1-.4477153 1-1s-.4477153-1-1-1h-14c-.55228475 0-1 .4477153-1 1s.44771525 1 1 1z"/><path id="Shape" d="m43 27h-20c-.5522847 0-1 .4477153-1 1s.4477153 1 1 1h20c.5522847 0 1-.4477153 1-1s-.4477153-1-1-1z"/><path id="Shape" d="m5 34h26c.5522847 0 1-.4477153 1-1s-.4477153-1-1-1h-26c-.55228475 0-1 .4477153-1 1s.44771525 1 1 1z"/><path id="Shape" d="m43 37h-38c-.55228475 0-1 .4477153-1 1s.44771525 1 1 1h38c.5522847 0 1-.4477153 1-1s-.4477153-1-1-1z"/><path id="Shape" d="m42 42h-10c-1.1045695 0-2 .8954305-2 2v10c0 1.1045695.8954305 2 2 2h10c1.1045695 0 2-.8954305 2-2v-10c0-1.1045695-.8954305-2-2-2zm0 12h-10v-10h10z"/><path id="Shape" d="m5 44h8c.5522847 0 1-.4477153 1-1s-.4477153-1-1-1h-8c-.55228475 0-1 .4477153-1 1s.44771525 1 1 1z"/><path id="Shape" d="m22 47h-17c-.55228475 0-1 .4477153-1 1s.44771525 1 1 1h17c.5522847 0 1-.4477153 1-1s-.4477153-1-1-1z"/></g></g></g></svg>