<svg height="512" viewBox="0 0 48 60" width="512" xmlns="http://www.w3.org/2000/svg"><g id="Page-1" fill="none" fill-rule="evenodd"><g id="045---PSD-File" fill-rule="nonzero"><path id="Shape" d="m47 13.83v43.17c-.0032948 1.1032019-.8967981 1.9967052-2 2h-42c-1.10320187-.0032948-1.9967052-.8967981-2-2v-54c.0032948-1.10320187.89679813-1.9967052 2-2h31.17c.28647-.00112466.5697318.06030561.83.18v9.82c.0032948 1.1032019.8967981 1.9967052 2 2h9.82c.1196944.2602682.1811247.54353.18.83z" fill="#f5f5f5"/><path id="Shape" d="m46.82 13h-3c.1196944.2602682.1811247.54353.18.83v43.17c-.0032948 1.1032019-.8967981 1.9967052-2 2h3c1.1032019-.0032948 1.9967052-.8967981 2-2v-43.17c.0011247-.28647-.0603056-.5697318-.18-.83z" fill="#cfd8dc"/><path id="Shape" d="m46.82 13h-9.82c-1.1032019-.0032948-1.9967052-.8967981-2-2v-9.82c.2196188.10025599.4194552.23912533.59.41l10.82 10.82c.1708747.1705448.309744.3703812.41.59z" fill="#cfd8dc"/><rect id="Rectangle-path" fill="#02a9f4" height="14" rx="2" width="38" x="5" y="41"/><path id="Shape" d="m41 41h-3c1.1045695 0 2 .8954305 2 2v10c0 1.1045695-.8954305 2-2 2h3c1.1045695 0 2-.8954305 2-2v-10c0-1.1045695-.8954305-2-2-2z" fill="#0377bc"/><path id="Shape" d="m25.03 37h-18.06c-.37519947-.0027703-.71727584-.2153382-.88591739-.5505133-.16864156-.3351751-.13546656-.7365486.08591739-1.0394867l9.02-12.31c.1880653-.2597632.4893047-.4135701.81-.4135701s.6219347.1538069.81.4135701l3.69 5.04 5.33 7.27c.221384.3029381.2545589.7043116.0859174 1.0394867-.1686416.3351751-.5107179.547743-.8859174.5505133z" fill="#a4c400"/><path id="Shape" d="m25.83 35.41-5.33-7.27-3.69-5.04c-.1880653-.2597632-.4893047-.4135701-.81-.4135701s-.6219347.1538069-.81.4135701l-.69.942 3 4.1 5.33 7.27c.221384.3029381.2545589.7043116.0859174 1.0394867-.1686416.3351751-.5107179.547743-.8859174.5505133h3c.3759093-.0022273.7188128-.2150826.8876023-.5509737s.1349465-.7380663-.0876023-1.0410263z" fill="#90ac00"/><path id="Shape" d="m41.03 37h-16c.3751995-.0027703.7172758-.2153382.8859174-.5505133.1686415-.3351751.1354666-.7365486-.0859174-1.0394867l-5.33-7.27 7.19-9.81c.1880653-.2597632.4893047-.4135701.81-.4135701s.6219347.1538069.81.4135701l12.52 17.08c.221384.3029381.2545589.7043116.0859174 1.0394867-.1686416.3351751-.5107179.547743-.8859174.5505133z" fill="#60a917"/><path id="Shape" d="m41.83 35.41-12.52-17.08c-.1880653-.2597632-.4893047-.4135701-.81-.4135701s-.6219347.1538069-.81.4135701l-.69.941 11.83 16.139c.221384.3029381.2545589.7043116.0859174 1.0394867-.1686416.3351751-.5107179.547743-.8859174.5505133h3c.3751995-.0027703.7172758-.2153382.8859174-.5505133.1686415-.3351751.1354666-.7365486-.0859174-1.0394867z" fill="#549414"/><circle id="Oval" cx="14" cy="13" fill="#ffdf00" r="4"/><g fill="#000"><path id="Shape" d="m36.293.879c-.5613398-.56495984-1.3255858-.88153492-2.122-.879h-31.171c-1.65685425 0-3 1.34314575-3 3v54c0 1.6568542 1.34314575 3 3 3h42c1.6568542 0 3-1.3431458 3-3v-43.172c.0022673-.7960678-.3142872-1.5599041-.879-2.121zm-.293 2.535 8.586 8.586h-7.586c-.5522847 0-1-.4477153-1-1zm9 54.586h-42c-.55228475 0-1-.4477153-1-1v-54c0-.55228475.44771525-1 1-1h31v9c0 1.6568542 1.3431458 3 3 3h9v43c0 .5522847-.4477153 1-1 1z"/><path id="Shape" d="m41 40h-34c-1.65685425 0-3 1.3431458-3 3v10c0 1.6568542 1.34314575 3 3 3h34c1.6568542 0 3-1.3431458 3-3v-10c0-1.6568542-1.3431458-3-3-3zm1 13c0 .5522847-.4477153 1-1 1h-34c-.55228475 0-1-.4477153-1-1v-10c0-.5522847.44771525-1 1-1h34c.5522847 0 1 .4477153 1 1z"/><path id="Shape" d="m6.974 38h34.052c.7543387.0008014 1.444957-.4228929 1.7860217-1.0957245.3410648-.6728316.2745475-1.4803253-.1720217-2.0882755l-12.528-17.08c-.3753344-.5147024-.9749865-.8178764-1.612-.815-.6370991-.0024189-1.2365214.3015712-1.611.817l-6.389 8.708-2.888-3.938c-.3905775-.4922921-.9845875-.7792688-1.613-.7792688s-1.2224225.2869767-1.613.7792688l-9.026 12.309c-.44598141.6079405-.51216177 1.4150296-.17117262 2.0875008.34098916.6724712 1.03118933 1.0960234 1.78517262 1.0954992zm21.526-19.079 12.526 17.079h-14.013c.0055124-.4240953-.1252326-.8387638-.373-1.183l-4.9-6.678zm-12.5 4.77 9.026 12.309h-18.052z"/><path id="Shape" d="m14 18c2.7614237 0 5-2.2385763 5-5s-2.2385763-5-5-5-5 2.2385763-5 5c.00330612 2.7600532 2.2399468 4.9966939 5 5zm0-8c1.6568542 0 3 1.3431458 3 3s-1.3431458 3-3 3-3-1.3431458-3-3 1.3431458-3 3-3z"/><path id="Shape" d="m16 43h-4c-.5522847 0-1 .4477153-1 1v8c0 .5522847.4477153 1 1 1s1-.4477153 1-1v-3h3c1.6568542 0 3-1.3431458 3-3s-1.3431458-3-3-3zm0 4h-3v-2h3c.5522847 0 1 .4477153 1 1s-.4477153 1-1 1z"/><path id="Shape" d="m24 47c-1.2 0-2-.6-2-1s.8-1 2-1c.6710892-.0425192 1.3305061.1904074 1.826.645.3553722.4187175.9819229.4724884 1.4034423.1204441.4215194-.3520442.4802518-.9781492.1315577-1.4024441-.874497-.9131398-2.0974956-1.4091074-3.361-1.363-2.243 0-4 1.317-4 3s1.757 3 4 3c1.2 0 2 .6 2 1s-.8 1-2 1c-.6701091.0423878-1.3286142-.1897497-1.824-.643-.230079-.2734868-.5885843-.4034533-.9404704-.3409424-.351886.0625108-.643693.3080023-.7655.644s-.0551086.7114556.1749704.9849424c.8755116.907102 2.0950953 1.3996611 3.355 1.355 2.243 0 4-1.317 4-3s-1.757-3-4-3z"/><path id="Shape" d="m32 43h-2c-.5522847 0-1 .4477153-1 1v8c0 .5522847.4477153 1 1 1h2c2.7614237 0 5-2.2385763 5-5s-2.2385763-5-5-5zm0 8h-1v-6h1c1.6568542 0 3 1.3431458 3 3s-1.3431458 3-3 3z"/></g></g></g></svg>