<svg id="Layer_1" enable-background="new 0 0 50 50" height="512" viewBox="0 0 50 50" width="512" xmlns="http://www.w3.org/2000/svg"><g><g><g><g><g><g><g><g><g><path d="m48.18122 37.62106-18.78169 10.897c-.27225.15821-.71158.15821-.98557.00003l-26.43959-15.2649c-.26803-.15475-.27541-.41266-.00316-.57087l18.78169-10.89701z" fill="#dde4e7"/></g><g><path d="m29.39859 48.51384c-.14354.08427-.33378.12071-.5231.1157v.37021c.18682.00364.37642-.03325.5231-.11616l5.77023-2.60736 13.01008-7.38427v-1.26986z" fill="#b0b8bc"/><path d="m28.40973 48.51384-26.43821-15.262c-.13062-.0747-.20521-.17719-.20521-.28925v.36975c0 .1116.06531.21409.20521.2888l26.43821 15.26246c.12874.07516.29614.11251.46576.11616v-.37021c-.16752-.00457-.33441-.04101-.46576-.11571z" fill="#cfd8dd"/></g></g><g><path d="m46.86179 16.48209c.39906.2304.71965.78555.71835 1.24413l-.05749 20.27916-27.42237-15.83231.05749-20.27916c.0013-.45858.324-.64233.72306-.41193z" fill="#475e68"/></g></g><g><path d="m47.33324 16.96638c.14929.23779.24725.50879.24725.75684l-.05597 20.28125.65302-.38281.05597-20.28076c.00519-.25391-.09857-.53076-.25537-.77197z" fill="#b0b8bc"/><path d="m47.51518 16.10017-25.98108-15.00098c-.19586-.1123-.38245-.13086-.51306-.04736l-.65308.38281c.13062-.08398.30786-.06494.51318.04688l25.98103 15.00048c.18365.10693.34497.28418.47107.48438l.6449-.39746c-.12598-.19336-.28425-.36524-.46296-.46875z" fill="#dde4e7"/></g><path d="m21.10112 21.59663.05371-17.9958 25.42676 14.67944-.05371 17.99592z" fill="#fff"/><path d="m21.69987 7.57724.05119-2.88921 24.23177 13.98955-.01298 2.91138z" fill="#ee534f"/><g><g enable-background="new"><g><path d="m19.02951 24.35945.00048-.17125c-.0001.03806.02419.07644.07479.10566l-.00048.17125c-.0506-.02921-.0749-.06759-.07479-.10566z" fill="#768c95"/></g><g><path d="m21.3351 24.38881-.00049.17126c-.0001.03778-.02599.07537-.07669.10484l.00049-.17125c.05069-.02948.07658-.06707.07669-.10485z" fill="#768c95"/></g><g><path d="m21.2584 24.49365-.00049.17125-.71951.41814.00049-.17125z" fill="#768c95"/></g><g><path d="m20.17515 24.91184-.00049.17125-1.07037-.61798.00049-.17125z" fill="#768c95"/></g><g><path d="m20.53889 24.91179-.00049.17125c-.09601.0558-.25912.06046-.36374.00006l.00049-.17125c.10462.06039.26773.05573.36374-.00006z" fill="#768c95"/></g><g><path d="m21.2573 24.28296c.10463.06041.10246.15179.0011.21069l-.71951.41813c-.09601.0558-.25912.06046-.36374.00005l-1.07037-.61798c-.10193-.05885-.09711-.1549-.00109-.21069l.71951-.41813c.10136-.05891.26181-.05891.36374-.00006z" fill="#475e68"/></g></g><g enable-background="new"><g><path d="m20.67296 25.30751.00048-.17125c-.0001.03852.0235.07684.07043.10393l-.00049.17125c-.04692-.02709-.07053-.0654-.07042-.10393z" fill="#768c95"/></g><g><path d="m22.9786 25.34149-.00049.17126c-.0001.03745-.02404.07464-.07307.10313l.00048-.17125c.04904-.0285.07298-.06568.07308-.10314z" fill="#768c95"/></g><g><path d="m21.81691 25.85971-.00048.17126-1.07305-.61953.00049-.17125z" fill="#768c95"/></g><g><path d="m22.90553 25.44462-.00049.17126-.7195.41813.00048-.17125z" fill="#768c95"/></g><g><path d="m22.18602 25.86276-.00048.17125c-.09601.0558-.26718.05581-.36911-.00304l.00048-.17125c.10194.05884.2731.05883.36911.00304z" fill="#768c95"/></g><g><path d="m22.89907 25.23083c.10193.05885.10782.15489.00646.21379l-.71951.41813c-.09601.0558-.26717.05581-.36911-.00304l-1.07304-.61952c-.09389-.05421-.09443-.15335.00158-.20915l.71951-.41813c.10136-.0589.26717-.05581.36107-.0016z" fill="#475e68"/></g></g><g enable-background="new"><g><path d="m22.31703 26.25906.00049-.17125c-.00011.03717.02356.07453.07347.10334l-.00049.17125c-.04991-.02881-.07358-.06616-.07347-.10334z" fill="#768c95"/></g><g><path d="m24.62298 26.28783-.00049.17126c-.00011.03772-.02532.0754-.07569.10467l.00049-.17125c.05038-.02928.07559-.06696.07569-.10468z" fill="#768c95"/></g><g><path d="m24.54729 26.3925-.00048.17125-.71951.41813.00049-.17125z" fill="#768c95"/></g><g><path d="m23.46404 26.81068-.00048.17126-1.07306-.61953.00048-.17126z" fill="#768c95"/></g><g><path d="m23.82779 26.81063-.00048.17125c-.09601.0558-.26181.05891-.36374.00006l.00049-.17125c.10192.05885.26771.05574.36373-.00006z" fill="#768c95"/></g><g><path d="m24.5462 26.1818c.10193.05885.10246.15179.00109.21069l-.71951.41813c-.09601.0558-.26181.0589-.36374.00005l-1.07306-.61953c-.10193-.05885-.09441-.15334.0016-.20914l.71951-.41813c.10136-.05891.25912-.06046.36105-.00161z" fill="#475e68"/></g></g><g enable-background="new"><g><path d="m23.95749 27.20463.00048-.17125c-.0001.03806.02419.07644.07479.10565l-.00048.17125c-.0506-.02921-.0749-.06758-.07479-.10565z" fill="#768c95"/></g><g><path d="m26.2672 27.24087-.00049.17125c-.0001.03739-.02405.07429-.07277.1026l.00048-.17125c.04873-.02832.07267-.06521.07278-.1026z" fill="#768c95"/></g><g><path d="m25.10313 27.75702-.00048.17125-1.07037-.61798.00049-.17125z" fill="#768c95"/></g><g><path d="m26.19443 27.34347-.00049.17125-.71951.41814.00049-.17126z" fill="#768c95"/></g><g><path d="m25.47492 27.7616-.00049.17125c-.09601.0558-.26717.05581-.37178-.00459l.00048-.17125c.10461.0604.27578.06039.37179.00459z" fill="#768c95"/></g><g><path d="m26.18529 27.12813c.10461.0604.1105.15643.00914.21534l-.71951.41813c-.09601.0558-.26718.05581-.37178-.00459l-1.07037-.61798c-.10195-.05886-.09711-.1549-.00109-.21069l.71951-.41813c.10136-.0589.26179-.05892.36374-.00006z" fill="#475e68"/></g></g><g enable-background="new"><g><path d="m25.60053 28.14847.00048-.17125c-.00011.04079.02621.08237.07889.11279l-.00049.17125c-.05268-.03042-.079-.072-.07888-.11279z" fill="#768c95"/></g><g><path d="m27.91054 28.18439-.00049.17126c-.0001.03783-.02599.07573-.07704.10539l.00048-.17125c.05105-.02966.07694-.06756.07705-.1054z" fill="#768c95"/></g><g><path d="m27.8335 28.28979-.00049.17125-.71951.41813.00049-.17125z" fill="#768c95"/></g><g><path d="m26.75294 28.70953-.00048.17125-1.07305-.61952.00049-.17125z" fill="#768c95"/></g><g><path d="m27.11399 28.70792-.00049.17125c-.09601.0558-.25912.06046-.36105.00161l.00048-.17125c.10195.05885.26505.05419.36106-.00161z" fill="#768c95"/></g><g><path d="m27.8351 28.08065c.10193.05885.09976.15023-.0016.20914l-.71951.41813c-.09601.0558-.25912.06046-.36105.00161l-1.07304-.61952c-.10195-.05886-.10517-.15955-.00916-.21535l.71951-.41813c.10136-.0589.26985-.05426.3718.0046z" fill="#475e68"/></g></g><g enable-background="new"><g><path d="m17.30048 25.36571.00048-.17125c-.0001.03794.02421.07572.07417.10456l-.00048.17125c-.04997-.02883-.07428-.06661-.07417-.10456z" fill="#768c95"/></g><g><path d="m19.87051 25.24139-.00049.17125c-.0001.0369-.0253.07351-.07528.10256l.00049-.17125c.04998-.02904.07518-.06566.07528-.10256z" fill="#768c95"/></g><g><path d="m19.79523 25.34395-.00048.17125-.9808.56998.00049-.17125z" fill="#768c95"/></g><g><path d="m18.44549 25.91701-.00048.17125-1.07037-.61798.00048-.17125z" fill="#768c95"/></g><g><path d="m18.81444 25.91393-.00049.17125c-.10122.05882-.26432.06348-.36895.00308l.00048-.17125c.10464.0604.26774.05574.36896-.00308z" fill="#768c95"/></g><g><path d="m19.79139 25.13486c.10463.06041.10506.15027.00384.2091l-.98079.56997c-.10122.05882-.26432.06349-.36895.00308l-1.07037-.61798c-.10193-.05885-.09711-.1549.00411-.21372l.98079-.56997c.10122-.05882.25906-.05731.36099.00154z" fill="#475e68"/></g></g><g enable-background="new"><g><path d="m18.94394 26.31386.00048-.17125c-.0001.03835.0235.07601.0698.10275l-.00049.17125c-.0463-.02673-.0699-.06439-.06979-.10275z" fill="#768c95"/></g><g><path d="m21.51409 26.19408-.00049.17125c-.0001.03657-.02342.07277-.07172.10084l.00048-.17125c.0483-.02807.07162-.06426.07173-.10084z" fill="#768c95"/></g><g><path d="m21.44236 26.29492-.00048.17126-.98079.56997.00048-.17125z" fill="#768c95"/></g><g><path d="m20.08726 26.86488-.00049.17125-1.07304-.61952.00049-.17125z" fill="#768c95"/></g><g><path d="m20.46157 26.8649-.00048.17125c-.10122.05882-.27238.05883-.37431-.00002l.00048-.17125c.10193.05885.27309.05884.37431.00002z" fill="#768c95"/></g><g><path d="m21.43316 26.08273c.10193.05885.11043.15337.00921.21219l-.98079.56997c-.10122.05882-.27238.05883-.37431-.00002l-1.07304-.61952c-.09389-.05421-.09443-.15335.00678-.21218l.98079-.56997c.10122-.05882.26443-.05421.35832 0z" fill="#475e68"/></g></g><g enable-background="new"><g><path d="m20.58797 27.26528.00048-.17125c-.0001.03705.0236.07383.07288.10229l-.00049.17125c-.04928-.02845-.07298-.06523-.07287-.10229z" fill="#768c95"/></g><g><path d="m23.15841 27.14043-.00049.17125c-.0001.03684-.02464.07352-.07428.10237l.00048-.17125c.04964-.02885.07419-.06553.07429-.10237z" fill="#768c95"/></g><g><path d="m23.08413 27.2428-.00049.17125-.98079.56997.00049-.17125z" fill="#768c95"/></g><g><path d="m21.73439 27.81585-.00049.17125-1.07306-.61953.00049-.17125z" fill="#768c95"/></g><g><path d="m22.10334 27.81277-.00048.17125c-.10122.05882-.26701.06193-.36895.00308l.00049-.17125c.10192.05885.26772.05574.36894-.00308z" fill="#768c95"/></g><g><path d="m23.08029 27.0337c.10193.05885.10506.15027.00384.2091l-.98079.56997c-.10122.05882-.26701.06193-.36895.00308l-1.07306-.61953c-.10193-.05885-.09442-.15334.0068-.21216l.98079-.56997c.10122-.05882.25637-.05886.3583-.00001z" fill="#475e68"/></g></g><g enable-background="new"><g><path d="m22.22846 28.21089.00048-.17125c-.0001.03794.02421.07572.07418.10456l-.00049.17125c-.04997-.02884-.07428-.06662-.07417-.10456z" fill="#768c95"/></g><g><path d="m24.80269 28.09344-.00049.17126c-.0001.0365-.02343.07243-.07143.10032l.00049-.17125c.048-.0279.07133-.06382.07143-.10033z" fill="#768c95"/></g><g><path d="m23.37348 28.76218-.00048.17125-1.07037-.61798.00048-.17125z" fill="#768c95"/></g><g><path d="m24.73126 28.19377-.00048.17125-.9808.56998.00049-.17126z" fill="#768c95"/></g><g><path d="m23.75047 28.76374-.00049.17126c-.10122.05882-.27238.05883-.37699-.00156l.00048-.17125c.10462.06038.27578.06037.377.00155z" fill="#768c95"/></g><g><path d="m24.71938 27.98003c.10461.06039.1131.15492.01188.21374l-.98079.56997c-.10122.05882-.27238.05883-.37699-.00156l-1.07037-.61798c-.10195-.05886-.09711-.1549.00411-.21372l.98079-.56997c.10122-.05882.25904-.05732.36099.00154z" fill="#475e68"/></g></g><g enable-background="new"><g><path d="m23.87157 29.15485.00048-.17125c-.00011.04067.0262.08156.07819.11158l-.00048.17125c-.05199-.03002-.0783-.07091-.07819-.11158z" fill="#768c95"/></g><g><path d="m26.44594 29.03699-.00049.17125c-.0001.03695-.0253.07386-.0756.10309l.00049-.17125c.0503-.02923.0755-.06613.0756-.10309z" fill="#768c95"/></g><g><path d="m26.37033 29.14009-.00048.17125-.98079.56998.00048-.17126z" fill="#768c95"/></g><g><path d="m25.02329 29.71469-.00049.17126-1.07304-.61952.00048-.17126z" fill="#768c95"/></g><g><path d="m25.38954 29.71006-.00049.17125c-.10122.05882-.26432.06348-.36625.00463l.00049-.17125c.10193.05886.26503.05419.36625-.00463z" fill="#768c95"/></g><g><path d="m26.36918 28.93255c.10193.05885.10237.14872.00115.20754l-.98079.56997c-.10122.05882-.26432.06349-.36625.00463l-1.07304-.61952c-.10195-.05886-.10517-.15955-.00395-.21837l.98079-.56997c.10122-.05882.2671-.05267.36905.0062z" fill="#475e68"/></g></g><g enable-background="new"><g><path d="m15.70567 26.28875.00048-.17125c-.0001.03823.02621.07638.07784.10619l-.00049.17125c-.05162-.0298-.07794-.06795-.07783-.10619z" fill="#768c95"/></g><g><path d="m19.10868 26.65191-.00049.17126c-.0001.03769-.02528.07533-.07556.10455l.00048-.17125c.05029-.02923.07547-.06687.07557-.10456z" fill="#768c95"/></g><g><path d="m19.03312 26.75646-.00048.17126-.97819.56846.00048-.17125z" fill="#768c95"/></g><g><path d="m17.69133 27.3249-.00048.17125-1.90734-1.1012.00048-.17126z" fill="#768c95"/></g><g><path d="m18.05493 27.32493-.00049.17125c-.10396.06042-.26166.05882-.3636-.00003l.00048-.17125c.10195.05885.25965.06044.36361.00003z" fill="#768c95"/></g><g><path d="m19.03188 26.54586c.10193.05885.10246.15179.00124.21061l-.97819.56846c-.10396.06042-.26166.05882-.3636-.00003l-1.90734-1.1012c-.10193-.05885-.1052-.15019-.00124-.21061l.97819-.56846c.10122-.05882.26166-.05882.3636.00003z" fill="#475e68"/></g></g><g enable-background="new"><g><path d="m18.22455 27.74005.00048-.17125c-.00011.04002.02766.0802.08063.11078l-.00048.17125c-.05296-.03058-.08074-.07075-.08063-.11078z" fill="#768c95"/></g><g><path d="m20.79309 27.62679-.00049.17126c-.0001.03749-.02336.07527-.07259.10387l.00048-.17125c.04923-.02861.07249-.06638.0726-.10388z" fill="#768c95"/></g><g><path d="m20.7205 27.73067-.00049.17125-.97819.56846.00049-.17125z" fill="#768c95"/></g><g><path d="m19.37871 28.2991-.00049.17125-1.07304-.61952.00049-.17125z" fill="#768c95"/></g><g><path d="m19.74231 28.29913-.00049.17125c-.10396.06042-.2697.05418-.3636-.00003l.00049-.17125c.09389.05421.25963.06045.3636.00003z" fill="#768c95"/></g><g><path d="m20.71926 27.52006c.09389.05421.10246.15179.00124.21061l-.97819.56846c-.10396.06042-.2697.05418-.3636-.00003l-1.07304-.61952c-.10195-.05886-.11057-.15329-.00661-.21371l.97819-.56846c.10122-.05882.26701-.05573.36896.00313z" fill="#475e68"/></g></g><g enable-background="new"><g><path d="m19.87198 28.69051.00048-.17125c-.00011.04043.02835.08127.08301.11283l-.00049.17125c-.05466-.03155-.08311-.0724-.083-.11283z" fill="#768c95"/></g><g><path d="m22.4412 28.57751-.00049.17126c-.0001.03756-.02398.07531-.07357.10413l.00049-.17125c.04958-.02882.07346-.06657.07357-.10414z" fill="#768c95"/></g><g><path d="m22.36763 28.68164-.00049.17125-.97819.56847.00049-.17126z" fill="#768c95"/></g><g><path d="m21.02584 29.25007-.00049.17126-1.07036-.61798.00048-.17125z" fill="#768c95"/></g><g><path d="m21.38944 29.2501-.00048.17125c-.10396.06042-.26703.05572-.3636-.00003l.00049-.17125c.09656.05576.25962.06045.36359.00003z" fill="#768c95"/></g><g><path d="m22.36639 28.47103c.09657.05575.10246.15179.00124.21061l-.97819.56846c-.10396.06042-.26703.05572-.3636-.00003l-1.07037-.61798c-.10463-.06041-.11325-.15483-.00928-.21525l.97819-.56846c.10122-.05882.26701-.05573.37164.00467z" fill="#475e68"/></g></g><g enable-background="new"><g><path d="m21.52007 29.64122.00048-.17125c-.00011.04092.02843.08215.08205.1131l-.00048.17125c-.05362-.03095-.08216-.07218-.08205-.1131z" fill="#768c95"/></g><g><path d="m24.08865 29.52791-.00049.17125c-.0001.03763-.02397.07569-.07389.1047l.00048-.17125c.04993-.029.0738-.06707.0739-.1047z" fill="#768c95"/></g><g><path d="m24.01476 29.63261-.00049.17126-.97819.56846.00049-.17125z" fill="#768c95"/></g><g><path d="m22.67565 30.20259-.00049.17125-1.07304-.61952.00048-.17125z" fill="#768c95"/></g><g><path d="m23.03657 30.20108-.00049.17125c-.10396.06042-.26703.05572-.36092.00151l.00049-.17125c.09389.05421.25696.0589.36092-.00151z" fill="#768c95"/></g><g><path d="m24.0162 29.42355c.09389.05421.09978.15024-.00144.20906l-.97819.56846c-.10396.06042-.26703.05572-.36092.00151l-1.07304-.61952c-.10193-.05885-.11325-.15483-.00928-.21525l.97819-.56846c.10122-.05882.2697-.05418.37164.00467z" fill="#475e68"/></g></g><g enable-background="new"><g><path d="m14.10762 27.21818.00048-.17125c-.0001.03819.02551.07644.07681.10605l-.00049.17125c-.05129-.02962-.07691-.06786-.0768-.10605z" fill="#768c95"/></g><g><path d="m17.93996 27.83219-.00049.17126c-.0001.03701-.02406.07389-.07401.10292l.00048-.17125c.04996-.02903.07392-.06591.07402-.10293z" fill="#768c95"/></g><g><path d="m16.5188 28.50045-.00049.17125-2.33389-1.34747.00049-.17125z" fill="#768c95"/></g><g><path d="m17.86595 27.93512-.00048.17125-.9782.56846.00049-.17125z" fill="#768c95"/></g><g><path d="m16.88776 28.50358-.00049.17125c-.10122.05882-.26703.05572-.36896-.00313l.00049-.17125c.10193.05885.26774.06195.36896.00313z" fill="#768c95"/></g><g><path d="m17.85934 27.72141c.10193.05885.11057.15329.00661.21371l-.97819.56846c-.10122.05882-.26703.05572-.36896-.00313l-2.33389-1.34747c-.10193-.05885-.10246-.15179-.00124-.21061l.97819-.56846c.10396-.06042.26166-.05882.3636.00003z" fill="#475e68"/></g></g><g enable-background="new"><g><path d="m17.02497 28.90401.00048-.17125c-.0001.0373.02485.07455.07548.10378l-.00049.17125c-.05063-.02923-.07558-.06648-.07547-.10378z" fill="#768c95"/></g><g><path d="m19.59236 28.78322-.00049.17126c-.0001.03725-.02529.0746-.0766.10441l.00049-.17125c.0513-.02982.07649-.06717.0766-.10442z" fill="#768c95"/></g><g><path d="m19.51576 28.88763-.00049.17125-.97819.56847.00049-.17126z" fill="#768c95"/></g><g><path d="m18.17397 29.45606-.00049.17126-1.07304-.61952.00049-.17126z" fill="#768c95"/></g><g><path d="m18.53757 29.45609-.00049.17125c-.10122.05882-.26166.05882-.3636-.00003l.00048-.17125c.10194.05886.26239.05886.36361.00003z" fill="#768c95"/></g><g><path d="m19.51452 28.67702c.10193.05885.1052.15019.00124.21061l-.97819.56846c-.10122.05882-.26166.05882-.3636-.00003l-1.07304-.61952c-.10195-.05886-.09978-.15024.00143-.20906l.97819-.56846c.10397-.06042.25897-.06038.36092-.00151z" fill="#475e68"/></g></g><g enable-background="new"><g><path d="m12.50982 28.14528.00048-.17125c-.0001.03828.02618.07673.07813.10673l-.00049.17124c-.05195-.02999-.07823-.06844-.07812-.10672z" fill="#768c95"/></g><g><path d="m17.14587 29.21301-.00049.17126c-.00011.03959-.02739.07948-.07967.10987l.00049-.17125c.05228-.03039.07956-.07029.07967-.10988z" fill="#768c95"/></g><g><path d="m17.0662 29.32288-.00049.17125-.98079.56998.00049-.17125z" fill="#768c95"/></g><g><path d="m15.72709 29.89286-.00049.17125-3.13866-1.81211.00049-.17125z" fill="#768c95"/></g><g><path d="m16.08541 29.89286-.00049.17125c-.10122.05882-.25637.05886-.35832 0l.00049-.17125c.10195.05886.2571.05882.35832 0z" fill="#768c95"/></g><g><path d="m17.07298 29.11071c.10195.05886.09443.15335-.00678.21217l-.98079.56997c-.10122.05882-.25637.05886-.35832 0l-3.13866-1.81211c-.10193-.05885-.10506-.15028-.00384-.2091l.98079-.56997c.10122-.05882.26701-.06193.36895-.00308z" fill="#475e68"/></g></g><g enable-background="new"><g><path d="m18.66026 29.84289.00048-.17125c-.00011.0404.02759.08139.08195.11278l-.00048.17125c-.05436-.03138-.08206-.07238-.08195-.11278z" fill="#768c95"/></g><g><path d="m21.23145 29.72955-.00049.17125c-.0001.03725-.02529.0746-.0766.10442l.00049-.17125c.0513-.02982.07649-.06717.0766-.10442z" fill="#768c95"/></g><g><path d="m21.15485 29.83396-.00049.17125-.97819.56847.00049-.17126z" fill="#768c95"/></g><g><path d="m19.81306 30.40239-.00049.17126-1.07036-.61798.00048-.17125z" fill="#768c95"/></g><g><path d="m20.17666 30.40242-.00048.17125c-.10122.05882-.26166.05882-.3636-.00003l.00049-.17125c.10192.05885.26237.05885.36359.00003z" fill="#768c95"/></g><g><path d="m21.15361 29.62335c.10193.05885.1052.15019.00124.21061l-.97819.56846c-.10122.05882-.26166.05882-.3636-.00003l-1.07037-.61798c-.10463-.06041-.11052-.15644-.0093-.21526l.97819-.56846c.10397-.06042.26703-.05572.37166.00468z" fill="#475e68"/></g></g><g enable-background="new"><g><path d="m16.19173 30.27252.00048-.17125c-.0001.0374.02549.07485.07678.10446l-.00048.17125c-.05128-.02961-.07688-.06706-.07678-.10446z" fill="#768c95"/></g><g><path d="m18.7621 30.14767-.00049.17126c-.00011.03948-.02666.07915-.07827.10914l.00048-.17125c.05162-.02999.07816-.06967.07828-.10915z" fill="#768c95"/></g><g><path d="m17.34204 30.82525-.00049.17125-1.07304-.61952.00048-.17125z" fill="#768c95"/></g><g><path d="m18.68382 30.25682-.00048.17125-.98079.56997.00048-.17125z" fill="#768c95"/></g><g><path d="m17.70303 30.82679-.00048.17125c-.10122.05882-.25906.05731-.36099-.00154l.00048-.17125c.10193.05885.25977.06036.36099.00154z" fill="#768c95"/></g><g><path d="m18.68793 30.0431c.10193.05885.09711.1549-.00411.21372l-.98079.56997c-.10122.05882-.25906.05731-.36099-.00154l-1.07304-.61952c-.10195-.05886-.10238-.14873-.00117-.20755l.98079-.56997c.10122-.05882.26432-.06348.36627-.00462z" fill="#475e68"/></g></g><g enable-background="new"><g><path d="m10.91205 29.07524.00048-.17125c-.00011.03819.02551.07643.0768.10605l-.00049.17125c-.05128-.02961-.0769-.06786-.07679-.10605z" fill="#768c95"/></g><g><path d="m13.97884 29.23397-.00049.17126c-.00011.04046-.02813.08138-.08105.11214l.00049-.17125c.05291-.03077.08093-.07169.08105-.11215z" fill="#768c95"/></g><g><path d="m13.89778 29.34611-.00049.17125-.97819.56846.00049-.17125z" fill="#768c95"/></g><g><path d="m12.55868 29.9161-.00048.17125-1.56934-.90606.00048-.17125z" fill="#768c95"/></g><g><path d="m12.91959 29.91457-.00049.17125c-.10122.05882-.25897.06038-.3609.00153l.00049-.17125c.10192.05885.25968.05729.3609-.00153z" fill="#768c95"/></g><g><path d="m13.90718 29.13243c.10193.05885.09181.15486-.00941.21368l-.97819.56846c-.10122.05882-.25897.06038-.3609.00152l-1.56934-.90606c-.10193-.05885-.10246-.15179-.00124-.21061l.97819-.56846c.10122-.05882.26962-.06344.37155-.00459z" fill="#475e68"/></g></g><g enable-background="new"><g><path d="m12.97351 30.26084.00048-.17125c-.00012.04088.02766.08225.08097.11303l-.00049.17125c-.05331-.03077-.08108-.07215-.08096-.11303z" fill="#768c95"/></g><g><path d="m15.54817 30.14003-.00049.17126c-.00011.04046-.02813.08138-.08105.11214l.00049-.17125c.05292-.03077.08094-.07169.08105-.11215z" fill="#768c95"/></g><g><path d="m15.46712 30.25217-.00049.17125-.97819.56846.00048-.17125z" fill="#768c95"/></g><g><path d="m14.128 30.82215-.00048.17125-1.07305-.61952.00049-.17125z" fill="#768c95"/></g><g><path d="m14.48892 30.82063-.00049.17125c-.10122.05882-.25897.06038-.36092.00151l.00049-.17125c.10195.05887.25971.05731.36092-.00151z" fill="#768c95"/></g><g><path d="m15.4765 30.03848c.10195.05886.09183.15487-.00939.21369l-.97819.56846c-.10122.05882-.25897.06038-.36092.00151l-1.07304-.61952c-.10193-.05885-.1105-.15643-.00928-.21525l.97819-.56846c.10122-.05882.27766-.0588.37959.00005z" fill="#475e68"/></g></g><g enable-background="new"><g><path d="m14.64478 31.22575.00048-.17125c-.00011.04088.02766.08225.08097.11304l-.00049.17125c-.0533-.03078-.08108-.07216-.08096-.11304z" fill="#768c95"/></g><g><path d="m17.21945 31.10494-.00049.17126c-.00011.04046-.02813.08138-.08105.11214l.00049-.17125c.05291-.03076.08093-.07169.08105-.11215z" fill="#768c95"/></g><g><path d="m17.13839 31.21708-.00049.17125-.97819.56846.00049-.17125z" fill="#768c95"/></g><g><path d="m15.79928 31.78706-.00049.17125-1.07304-.61952.00048-.17125z" fill="#768c95"/></g><g><path d="m16.1602 31.78554-.00048.17125c-.10122.05882-.25897.06038-.36092.00151l.00049-.17125c.10194.05887.25969.05731.36091-.00151z" fill="#768c95"/></g><g><path d="m17.14778 31.00339c.10195.05886.09183.15487-.00939.21369l-.97819.56846c-.10122.05882-.25897.06038-.36092.00151l-1.07304-.61952c-.10193-.05885-.1105-.15643-.00928-.21525l.97819-.56846c.10122-.05882.27766-.0588.37959.00005z" fill="#475e68"/></g></g><g enable-background="new"><g><path d="m20.30031 30.78895.00048-.17125c-.00011.04088.02766.08225.08097.11303l-.00048.17125c-.05331-.03077-.08109-.07215-.08097-.11303z" fill="#768c95"/></g><g><path d="m22.87186 30.67516-.00049.17125c-.0001.03736-.02595.07491-.07793.10512l.00049-.17125c.05198-.03021.07782-.06776.07793-.10512z" fill="#768c95"/></g><g><path d="m22.79392 30.78028-.00049.17125-.97819.56846.00049-.17125z" fill="#768c95"/></g><g><path d="m21.45482 31.35027-.00048.17125-1.07306-.61953.00048-.17125z" fill="#768c95"/></g><g><path d="m21.81573 31.34874-.00048.17125c-.10122.05882-.25897.06038-.3609.00153l.00048-.17125c.10193.05885.25968.05729.3609-.00153z" fill="#768c95"/></g><g><path d="m22.79537 30.57123c.10193.05885.10251.14864-.00145.20905l-.97819.56846c-.10122.05882-.25897.06038-.3609.00152l-1.07306-.61953c-.10193-.05885-.1105-.15643-.00928-.21525l.97819-.56846c.10396-.06042.2697-.05418.37164.00467z" fill="#475e68"/></g></g><g enable-background="new"><g><path d="m17.84304 31.22073.00048-.17125c-.00011.04047.02832.08166.08332.11341l-.00049.17125c-.05499-.03175-.08342-.07294-.08331-.11341z" fill="#768c95"/></g><g><path d="m20.41728 31.10328-.00048.17125c-.00011.03948-.02667.07915-.07828.10915l.00049-.17125c.0516-.02999.07815-.06966.07827-.10915z" fill="#768c95"/></g><g><path d="m18.99721 31.78086-.00049.17126-1.07036-.61798.00048-.17125z" fill="#768c95"/></g><g><path d="m20.339 31.21243-.00049.17126-.98079.56997.00048-.17125z" fill="#768c95"/></g><g><path d="m19.3582 31.78241-.00049.17125c-.10122.05882-.25904.05732-.36099-.00154l.00049-.17125c.10195.05886.25978.06036.36099.00154z" fill="#768c95"/></g><g><path d="m20.34311 30.99872c.10195.05886.09711.1549-.00411.21372l-.98079.56997c-.10122.05882-.25904.05732-.36099-.00154l-1.07037-.61798c-.10461-.06039-.1131-.15492-.01188-.21374l.98079-.56997c.10122-.05882.27238-.05883.37699.00156z" fill="#475e68"/></g></g><g enable-background="new"><g><path d="m27.24502 29.10424.00048-.17125c-.0001.03717.02357.07453.07347.10334l-.00049.17125c-.0499-.02881-.07357-.06617-.07346-.10334z" fill="#768c95"/></g><g><path d="m29.55371 29.13762-.00049.17126c-.0001.03746-.02404.07464-.07308.10314l.00049-.17125c.04904-.02851.07298-.06569.07308-.10315z" fill="#768c95"/></g><g><path d="m28.39203 29.65586-.00048.17125-1.07306-.61953.00048-.17125z" fill="#768c95"/></g><g><path d="m29.48063 29.24076-.00049.17125-.7195.41814.00048-.17126z" fill="#768c95"/></g><g><path d="m28.76112 29.65889-.00048.17125c-.09601.0558-.26716.05582-.36909-.00303l.00049-.17125c.10193.05885.27307.05883.36908.00303z" fill="#768c95"/></g><g><path d="m29.47419 29.02698c.10193.05885.10781.15488.00644.21378l-.71951.41813c-.09601.0558-.26716.05582-.36909-.00303l-1.07306-.61953c-.10193-.05885-.09442-.15334.0016-.20914l.71951-.41813c.10136-.0589.25912-.06046.36105-.00161z" fill="#475e68"/></g></g><g enable-background="new"><g><path d="m25.51596 30.11045.00048-.17125c-.0001.03705.0236.07383.07288.10229l-.00049.17125c-.04928-.02845-.07298-.06523-.07287-.10229z" fill="#768c95"/></g><g><path d="m28.0892 29.99022-.00049.17126c-.0001.03657-.02342.07277-.07172.10084l.00048-.17125c.0483-.02808.07162-.06428.07173-.10085z" fill="#768c95"/></g><g><path d="m28.01747 30.09106-.00049.17125-.98079.56998.00048-.17126z" fill="#768c95"/></g><g><path d="m26.66238 30.66103-.00049.17125-1.07306-.61953.00049-.17126z" fill="#768c95"/></g><g><path d="m27.03667 30.66103-.00048.17125c-.10122.05882-.27236.05884-.3743-.00001l.00048-.17125c.10194.05886.27309.05883.3743.00001z" fill="#768c95"/></g><g><path d="m28.00827 29.87888c.10193.05885.11041.15336.00919.21218l-.98079.56997c-.10122.05882-.27236.05884-.3743-.00001l-1.07306-.61953c-.10193-.05885-.09442-.15334.0068-.21216l.98079-.56997c.10122-.05882.25637-.05886.3583-.00001z" fill="#475e68"/></g></g><g enable-background="new"><g><path d="m23.16863 30.59451.00048-.17125c-.00011.04002.02766.0802.08062.11078l-.00049.17125c-.05295-.03057-.08072-.07075-.08061-.11078z" fill="#768c95"/></g><g><path d="m25.73484 30.48056-.00049.17125c-.0001.03743-.024.07458-.07295.10302l.00049-.17125c.04895-.02844.07285-.06558.07295-.10302z" fill="#768c95"/></g><g><path d="m24.31474 31.14892-.00049.17125-1.065-.61488.00049-.17125z" fill="#768c95"/></g><g><path d="m25.66189 30.58359-.00048.17125-.97819.56846.00048-.17125z" fill="#768c95"/></g><g><path d="m24.6837 31.15205-.00048.17125c-.10396.06042-.26703.05572-.36896-.00313l.00048-.17125c.10193.05885.265.06355.36896.00313z" fill="#768c95"/></g><g><path d="m25.65528 30.36988c.10193.05885.10782.15489.00661.21371l-.97819.56846c-.10396.06042-.26703.05572-.36896-.00313l-1.065-.61488c-.10193-.05885-.11057-.15329-.00661-.21371l.97819-.56846c.10122-.05882.26703-.05572.36897.00313z" fill="#475e68"/></g></g><g enable-background="new"><g><path d="m21.94081 31.73763.00048-.17125c-.00011.03998.02692.08029.07956.11068l-.00048.17125c-.05264-.03039-.07967-.0707-.07956-.11068z" fill="#768c95"/></g><g><path d="m24.51229 31.62374-.00049.17126c-.0001.03725-.0253.0746-.07661.10441l.00048-.17125c.05132-.02982.07652-.06717.07662-.10442z" fill="#768c95"/></g><g><path d="m24.43568 31.72816-.00048.17125-.97819.56846.00048-.17125z" fill="#768c95"/></g><g><path d="m23.0939 32.29659-.00049.17125-1.07304-.61952.00048-.17126z" fill="#768c95"/></g><g><path d="m23.45749 32.29662-.00049.17125c-.10122.05882-.26164.05883-.3636-.00003l.00048-.17125c.10197.05886.2624.05885.36361.00003z" fill="#768c95"/></g><g><path d="m24.43444 31.51755c.10195.05886.10521.15019.00124.21061l-.97819.56846c-.10122.05882-.26164.05883-.3636-.00003l-1.07304-.61952c-.10193-.05885-.10782-.15489-.00661-.21371l.97819-.56846c.10396-.06042.26703-.05572.36896.00313z" fill="#475e68"/></g></g><g enable-background="new"><g><path d="m19.49916 32.17605.00048-.17125c-.00011.04097.02842.08255.08239.11371l-.00049.17125c-.05396-.03115-.08249-.07274-.08238-.11371z" fill="#768c95"/></g><g><path d="m22.07042 32.05925-.00049.17126c-.00011.03936-.02528.07919-.07623.1088l.00049-.17125c.05095-.02961.07612-.06944.07623-.10881z" fill="#768c95"/></g><g><path d="m20.6524 32.73649-.00049.17125-1.07036-.61798.00048-.17124z" fill="#768c95"/></g><g><path d="m21.99419 32.16806-.00049.17125-.98079.56998.00049-.17126z" fill="#768c95"/></g><g><path d="m21.0134 32.73803-.00049.17125c-.10122.05882-.26443.05421-.36099-.00154l.00049-.17125c.09656.05575.25977.06037.36099.00154z" fill="#768c95"/></g><g><path d="m21.9983 31.95434c.09657.05575.09711.1549-.00411.21372l-.98079.56997c-.10122.05882-.26443.05421-.36099-.00154l-1.07037-.61798c-.10195-.05886-.11312-.15493-.0119-.21375l.98079-.56997c.10122-.05882.27505-.05729.377.00157z" fill="#475e68"/></g></g><g enable-background="new"><g><path d="m28.88845 30.04759.00048-.17125c-.00011.04031.02617.08151.07987.11251l-.00049.17125c-.05369-.03099-.07997-.0722-.07986-.11251z" fill="#768c95"/></g><g><path d="m31.19611 30.0844-.00049.17126c-.0001.03759-.02402.07537-.0737.10424l.00048-.17125c.04969-.02887.0736-.06666.07371-.10425z" fill="#768c95"/></g><g><path d="m31.12241 30.18864-.00048.17126-.71951.41813.00048-.17125z" fill="#768c95"/></g><g><path d="m30.03916 30.60683-.00048.17125-1.07037-.61797.00049-.17125z" fill="#768c95"/></g><g><path d="m30.4029 30.60678-.00048.17125c-.09601.0558-.26717.05581-.36374.00005l.00048-.17125c.09657.05575.26773.05574.36374-.00005z" fill="#768c95"/></g><g><path d="m31.12132 29.97795c.09657.05575.10246.15179.00109.21069l-.71951.41813c-.09601.0558-.26717.05581-.36374.00006l-1.07037-.61798c-.10463-.06041-.10517-.15955-.00916-.21535l.71951-.41813c.10136-.0589.26717-.05581.3718.0046z" fill="#475e68"/></g></g><g enable-background="new"><g><path d="m27.15948 31.05393.00048-.17125c-.00011.0402.02618.08073.07918.11133l-.00049.17125c-.05299-.03059-.07928-.07112-.07917-.11133z" fill="#768c95"/></g><g><path d="m29.73157 30.93704-.00049.17126c-.0001.0367-.02339.07347-.07232.1019l.00048-.17125c.04893-.02844.07222-.06521.07233-.10191z" fill="#768c95"/></g><g><path d="m29.65925 31.03894-.00049.17126-.98079.56997.00049-.17125z" fill="#768c95"/></g><g><path d="m28.30951 31.612-.00049.17125-1.07036-.61798.00048-.17125z" fill="#768c95"/></g><g><path d="m28.67846 31.60892-.00048.17125c-.10122.05882-.27238.05883-.36895.00308l.00049-.17125c.09656.05575.26772.05574.36894-.00308z" fill="#768c95"/></g><g><path d="m29.65541 30.82985c.09657.05575.10506.15028.00384.2091l-.98079.56997c-.10122.05882-.27238.05883-.36895.00308l-1.07037-.61798c-.10463-.06041-.10517-.15955-.00395-.21837l.98079-.56997c.10122-.05882.26443-.05421.36905.0062z" fill="#475e68"/></g></g><g enable-background="new"><g><path d="m24.81484 31.5471.00048-.17125c-.00011.03874.0256.07686.07351.10452l-.00048.17125c-.04791-.02765-.07362-.06578-.07351-.10452z" fill="#768c95"/></g><g><path d="m27.38338 31.43389-.00049.17126c-.0001.03728-.02341.07415-.07168.10221l.00049-.17125c.04828-.02806.07158-.06494.07168-.10222z" fill="#768c95"/></g><g><path d="m25.96187 32.09989-.00049.17125-1.07304-.61952.00049-.17125z" fill="#768c95"/></g><g><path d="m27.3117 31.5361-.00049.17126-.97819.56846.00049-.17126z" fill="#768c95"/></g><g><path d="m26.33351 32.10456-.00048.17125c-.10397.06042-.2697.05418-.37164-.00467l.00049-.17125c.10192.05885.26766.06509.37163.00467z" fill="#768c95"/></g><g><path d="m27.30242 31.32085c.10193.05885.1105.15643.00928.21525l-.97819.56846c-.10396.06042-.2697.05418-.37164-.00467l-1.07304-.61952c-.09389-.05421-.10253-.14865.00143-.20906l.97819-.56846c.10122-.05882.26703-.05572.36092-.00151z" fill="#475e68"/></g></g><g enable-background="new"><g><path d="m23.5799 32.68397.00048-.17125c-.00011.03997.02691.08028.07955.11066l-.00048.17125c-.05265-.03039-.07967-.07069-.07955-.11066z" fill="#768c95"/></g><g><path d="m26.15138 32.57007-.00049.17126c-.0001.03725-.02529.0746-.0766.10441l.00049-.17125c.0513-.02982.07649-.06717.0766-.10442z" fill="#768c95"/></g><g><path d="m26.07478 32.67448-.00049.17126-.97819.56846.00048-.17125z" fill="#768c95"/></g><g><path d="m24.73299 33.24292-.00049.17125-1.07306-.61953.00049-.17126z" fill="#768c95"/></g><g><path d="m25.09658 33.24295-.00048.17125c-.10122.05882-.26166.05882-.3636-.00003l.00049-.17125c.10193.05885.26238.05885.36359.00003z" fill="#768c95"/></g><g><path d="m26.07354 32.46387c.10193.05885.1052.15019.00124.21061l-.97819.56846c-.10122.05882-.26166.05882-.3636-.00003l-1.07306-.61953c-.10193-.05885-.10781-.15487-.00659-.2137l.97819-.56846c.10397-.06042.26701-.05573.36895.00312z" fill="#475e68"/></g></g><g enable-background="new"><g><path d="m21.15055 33.13401.00048-.17125c-.00011.03828.02618.07673.07813.10672l-.00049.17125c-.05195-.02999-.07823-.06844-.07812-.10672z" fill="#768c95"/></g><g><path d="m23.72491 33.01606-.00049.17126c-.00011.03923-.02528.07839-.07555.10761l.00048-.17125c.05028-.02922.07545-.06839.07556-.10762z" fill="#768c95"/></g><g><path d="m22.30221 33.68901-.00049.17125-1.07304-.61952.00048-.17126z" fill="#768c95"/></g><g><path d="m23.64936 33.12367-.00048.17126-.9808.56997.00049-.17125z" fill="#768c95"/></g><g><path d="m22.66857 33.69365-.00049.17125c-.10122.05882-.26443.05421-.36636-.00464l.00048-.17125c.10194.05885.26515.06346.36637.00464z" fill="#768c95"/></g><g><path d="m23.6481 32.90686c.10193.05885.10247.158.00126.21682l-.98079.56998c-.10122.05882-.26443.05421-.36636-.00464l-1.07304-.61952c-.10195-.05886-.10506-.15028-.00384-.2091l.98079-.56998c.10122-.05882.267-.06194.36895-.00308z" fill="#475e68"/></g></g><g enable-background="new"><g><path d="m30.5326 31.00076.00048-.17125c-.0001.03806.02419.07644.07479.10566l-.00049.17125c-.0506-.02921-.07489-.06758-.07478-.10566z" fill="#768c95"/></g><g><path d="m32.83853 31.02957-.00049.17126c-.00011.03783-.02599.07573-.07704.10539l.00048-.17125c.05105-.02967.07694-.06757.07705-.1054z" fill="#768c95"/></g><g><path d="m32.76149 31.13496-.00049.17126-.71951.41813.00049-.17125z" fill="#768c95"/></g><g><path d="m31.68093 31.5547-.00049.17126-1.07306-.61953.00049-.17126z" fill="#768c95"/></g><g><path d="m32.04198 31.5531-.00048.17125c-.09601.0558-.25912.06046-.36105.00161l.00049-.17125c.10192.05885.26503.05418.36104-.00161z" fill="#768c95"/></g><g><path d="m32.76308 30.92583c.10193.05885.09976.15023-.0016.20914l-.71951.41813c-.09601.0558-.25911.06046-.36105.00161l-1.07306-.61953c-.10193-.05885-.09711-.1549-.00109-.21069l.71951-.41813c.10136-.05891.26181-.05891.36374-.00006z" fill="#475e68"/></g></g><g enable-background="new"><g><path d="m28.80356 32.00702.00048-.17125c-.0001.03794.02421.07572.07417.10456l-.00049.17125c-.04995-.02883-.07426-.06661-.07416-.10456z" fill="#768c95"/></g><g><path d="m31.37393 31.88217-.00049.17126c-.0001.03695-.0253.07386-.07561.10309l.00049-.17125c.05031-.02924.07551-.06615.07561-.1031z" fill="#768c95"/></g><g><path d="m31.29832 31.98526-.00048.17125-.9808.56998.00049-.17125z" fill="#768c95"/></g><g><path d="m29.95127 32.55987-.00048.17125-1.07306-.61953.00048-.17125z" fill="#768c95"/></g><g><path d="m30.31753 32.55524-.00048.17125c-.10122.05882-.26432.06348-.36625.00463l.00049-.17125c.10192.05885.26502.05419.36624-.00463z" fill="#768c95"/></g><g><path d="m31.29717 31.77772c.10193.05885.10237.14872.00115.20754l-.98079.56997c-.10122.05882-.26432.06348-.36625.00463l-1.07306-.61953c-.10193-.05885-.09711-.1549.00411-.21372l.98079-.56997c.10122-.05882.25906-.05731.36099.00154z" fill="#475e68"/></g></g><g enable-background="new"><g><path d="m26.46228 32.49752.00048-.17125c-.00011.03917.02629.07799.07586.10661l-.00049.17125c-.04956-.02861-.07596-.06743-.07585-.10661z" fill="#768c95"/></g><g><path d="m29.03148 32.38459-.00048.17125c-.0001.03736-.02401.07422-.07265.10248l.00048-.17125c.04864-.02826.07255-.06512.07265-.10248z" fill="#768c95"/></g><g><path d="m27.609 33.05087-.00048.17125-1.07037-.61798.00048-.17125z" fill="#768c95"/></g><g><path d="m28.95883 32.48708-.00048.17125-.9782.56846.00049-.17125z" fill="#768c95"/></g><g><path d="m27.98064 33.05554-.00049.17125c-.10396.06042-.26701.05574-.37164-.00467l.00048-.17125c.10464.0604.26768.06509.37165.00467z" fill="#768c95"/></g><g><path d="m28.94955 32.27182c.10463.06041.1105.15643.00928.21525l-.97819.56846c-.10397.06042-.26701.05573-.37164-.00467l-1.07037-.61798c-.09657-.05576-.1052-.15019-.00124-.21061l.97819-.56846c.10122-.05882.26703-.05572.3636.00003z" fill="#475e68"/></g></g><g enable-background="new"><g><path d="m25.22024 33.62947.00048-.17125c-.00011.04088.02766.08226.08099.11304l-.00048.17125c-.05333-.03078-.0811-.07215-.08099-.11304z" fill="#768c95"/></g><g><path d="m27.79179 33.51568-.00049.17126c-.0001.03735-.02595.07491-.07794.10511l.00048-.17125c.05199-.03021.07784-.06776.07795-.10512z" fill="#768c95"/></g><g><path d="m27.71385 33.6208-.00049.17125-.97819.56847.00049-.17125z" fill="#768c95"/></g><g><path d="m26.37475 34.19079-.00048.17125-1.07304-.61952.00048-.17125z" fill="#768c95"/></g><g><path d="m26.73566 34.18927-.00049.17125c-.10122.05882-.25897.06038-.3609.00153l.00049-.17125c.10193.05884.25968.05729.3609-.00153z" fill="#768c95"/></g><g><path d="m27.7153 33.41175c.10193.05885.10251.14864-.00145.20906l-.97819.56846c-.10122.05882-.25897.06038-.3609.00152l-1.07304-.61952c-.10195-.05886-.11052-.15644-.0093-.21526l.97819-.56846c.10397-.06042.2697-.05418.37166.00468z" fill="#475e68"/></g></g><g enable-background="new"><g><path d="m22.80709 34.09189.00048-.17125c-.0001.0374.02549.07485.07677.10446l-.00048.17125c-.05128-.0296-.07688-.06706-.07677-.10446z" fill="#768c95"/></g><g><path d="m25.37745 33.96704-.00049.17125c-.00011.03949-.02666.07915-.07828.10915l.00049-.17125c.05161-.02999.07816-.06967.07828-.10915z" fill="#768c95"/></g><g><path d="m23.95738 34.64462-.00049.17125-1.07304-.61952.00049-.17125z" fill="#768c95"/></g><g><path d="m25.29917 34.07619-.00049.17125-.98079.56998.00048-.17126z" fill="#768c95"/></g><g><path d="m24.31837 34.64616-.00049.17125c-.10122.05882-.25904.05732-.36099-.00154l.00049-.17125c.10195.05886.25978.06037.36099.00154z" fill="#768c95"/></g><g><path d="m25.30328 33.86247c.10195.05886.09711.1549-.00411.21372l-.98079.56997c-.10122.05882-.25904.05732-.36099-.00154l-1.07304-.61952c-.10193-.05885-.10238-.14873-.00117-.20755l.98079-.56997c.10122-.05882.26434-.06348.36627-.00462z" fill="#475e68"/></g></g><g enable-background="new"><g><path d="m16.31605 32.19066.00048-.17125c-.00011.04088.02766.08225.08097.11303l-.00048.17125c-.05331-.03077-.08108-.07215-.08097-.11303z" fill="#768c95"/></g><g><path d="m18.89072 32.06985-.00049.17125c-.00011.04046-.02813.08139-.08106.11214l.00048-.17125c.05294-.03076.08096-.07168.08107-.11214z" fill="#768c95"/></g><g><path d="m18.80966 32.18199-.00048.17125-.97819.56846.00048-.17125z" fill="#768c95"/></g><g><path d="m17.47057 32.75198-.00049.17125-1.07306-.61953.00049-.17125z" fill="#768c95"/></g><g><path d="m17.83147 32.75045-.00049.17125c-.10122.05882-.25897.06038-.3609.00153l.00048-.17125c.10194.05885.2597.05729.36091-.00153z" fill="#768c95"/></g><g><path d="m18.81907 31.96832c.10193.05885.09181.15485-.00941.21368l-.97819.56846c-.10122.05882-.25897.06038-.3609.00152l-1.07306-.61953c-.10193-.05885-.1105-.15643-.00928-.21525l.97819-.56846c.10122-.05882.27766-.0588.37959.00005z" fill="#475e68"/></g></g><g enable-background="new"><g><path d="m32.17605 31.94883.00048-.17125c-.00011.03852.0235.07684.07043.10393l-.00048.17125c-.04693-.0271-.07054-.06541-.07043-.10393z" fill="#768c95"/></g><g><path d="m34.48312 31.98516-.00049.17125c-.0001.03731-.02344.07422-.07181.10233l.00049-.17125c.04837-.02811.0717-.06502.07181-.10233z" fill="#768c95"/></g><g><path d="m33.32 32.50103-.00048.17125-1.07304-.61953.00048-.17125z" fill="#768c95"/></g><g><path d="m34.41131 32.08749-.00049.17125-.7195.41814.00048-.17126z" fill="#768c95"/></g><g><path d="m33.6918 32.50562-.00048.17125c-.09601.05579-.26985.05426-.3718-.0046l.00048-.17124c.10196.05886.27579.06039.3718.00459z" fill="#768c95"/></g><g><path d="m34.40216 31.87214c.10195.05886.11052.15644.00916.21535l-.71951.41813c-.09601.0558-.26985.05426-.3718-.0046l-1.07304-.61952c-.09389-.05421-.09443-.15335.00158-.20915l.71951-.41813c.10136-.0589.26717-.05581.36106-.0016z" fill="#475e68"/></g></g><g enable-background="new"><g><path d="m30.44703 32.95517.00048-.17125c-.00011.03836.02349.07602.06979.10275l-.00048.17125c-.0463-.02673-.0699-.06439-.06979-.10275z" fill="#768c95"/></g><g><path d="m33.01863 32.83775-.00049.17125c-.0001.03642-.02284.07235-.07048.10004l.00048-.17125c.04764-.02768.07038-.06361.07049-.10004z" fill="#768c95"/></g><g><path d="m31.59035 33.50619-.00049.17125-1.07304-.61952.00048-.17125z" fill="#768c95"/></g><g><path d="m32.94815 32.93779-.00049.17125-.98079.56998.00048-.17126z" fill="#768c95"/></g><g><path d="m31.96735 33.50776-.00049.17125c-.10122.05882-.27505.05729-.37701-.00158l.00049-.17125c.10196.05887.2758.06041.37701.00158z" fill="#768c95"/></g><g><path d="m32.93624 32.72404c.10195.05886.11312.15493.0119.21375l-.98079.56997c-.10122.05882-.27505.05729-.37701-.00157l-1.07304-.61952c-.09389-.05421-.09443-.15335.00678-.21217l.98079-.56998c.10122-.05882.26443-.05421.35832 0z" fill="#475e68"/></g></g><g enable-background="new"><g><path d="m28.11039 33.44825.00048-.17125c-.00011.03966.02636.07884.07489.10686l-.00048.17125c-.04853-.02802-.075-.0672-.07489-.10686z" fill="#768c95"/></g><g><path d="m30.67892 33.33502-.00049.17125c-.0001.03743-.02401.07458-.07295.10302l.00049-.17125c.04894-.02844.07284-.06558.07295-.10302z" fill="#768c95"/></g><g><path d="m29.25881 34.00338-.00049.17125-1.07304-.61952.00048-.17125z" fill="#768c95"/></g><g><path d="m30.60596 33.43805-.00048.17125-.97819.56846.00048-.17125z" fill="#768c95"/></g><g><path d="m29.62777 34.00651-.00049.17125c-.10396.06042-.26701.05573-.36896-.00313l.00049-.17125c.10195.05886.265.06355.36896.00313z" fill="#768c95"/></g><g><path d="m30.59936 33.22434c.10195.05886.10782.15489.00661.21371l-.97819.56846c-.10396.06042-.26701.05574-.36896-.00313l-1.07304-.61952c-.09389-.05421-.1052-.15019-.00124-.21061l.97819-.56846c.10122-.05882.2697-.05418.3636.00003z" fill="#475e68"/></g></g><g enable-background="new"><g><path d="m26.86074 34.57816.00049-.17125c-.00011.03998.02691.08029.07956.11068l-.00048.17125c-.05265-.03039-.07968-.07071-.07957-.11068z" fill="#768c95"/></g><g><path d="m29.43088 34.46201-.00049.17125c-.0001.03736-.02595.07491-.07793.10512l.00049-.17125c.05197-.03021.07782-.06776.07793-.10512z" fill="#768c95"/></g><g><path d="m29.35294 34.56713-.00049.17125-.97819.56847.00049-.17126z" fill="#768c95"/></g><g><path d="m28.01384 35.13712-.00048.17125-1.07306-.61953.00048-.17125z" fill="#768c95"/></g><g><path d="m28.37475 35.13559-.00048.17125c-.10122.05882-.25897.06038-.3609.00153l.00048-.17125c.10193.05885.25968.0573.3609-.00153z" fill="#768c95"/></g><g><path d="m29.35439 34.35808c.10193.05885.10251.14864-.00145.20905l-.97819.56846c-.10122.05882-.25897.06038-.3609.00153l-1.07306-.61953c-.10193-.05885-.10782-.15488-.00661-.21371l.97819-.56846c.10396-.06042.26703-.05572.36896.00313z" fill="#475e68"/></g></g><g enable-background="new"><g><path d="m33.82047 32.89978.00048-.17125c-.0001.03764.02422.07571.07581.10549l-.00049.17125c-.05158-.02978-.0759-.06785-.0758-.10549z" fill="#768c95"/></g><g><path d="m36.12608 32.92914-.00049.17126c-.0001.03772-.02532.07539-.0757.10467l.00049-.17125c.05038-.02928.07559-.06696.0757-.10468z" fill="#768c95"/></g><g><path d="m36.05038 33.03381-.00048.17125-.71951.41814.00049-.17126z" fill="#768c95"/></g><g><path d="m34.96713 33.452-.00048.17125-1.07037-.61798.00049-.17125z" fill="#768c95"/></g><g><path d="m35.33088 33.45194-.00048.17125c-.09601.05579-.26179.05891-.36374.00005l.00048-.17125c.10194.05887.26772.05575.36374-.00005z" fill="#768c95"/></g><g><path d="m36.04929 32.82312c.10195.05886.10246.15179.00109.21069l-.71951.41813c-.09601.0558-.26179.05892-.36374.00005l-1.07037-.61798c-.10463-.06041-.09711-.1549-.0011-.21069l.71951-.41813c.10136-.0589.25912-.06046.36374-.00005z" fill="#475e68"/></g></g><g enable-background="new"><g><path d="m32.09143 33.906.00048-.17125c-.0001.03753.02425.07502.0752.10443l-.00048.17125c-.05095-.02941-.07531-.06691-.0752-.10443z" fill="#768c95"/></g><g><path d="m34.66151 33.78174-.00049.17125c-.0001.03684-.02465.07352-.07428.10237l.00048-.17125c.04964-.02885.07418-.06553.07429-.10237z" fill="#768c95"/></g><g><path d="m34.58722 33.88411-.00049.17125-.98079.56998.00049-.17126z" fill="#768c95"/></g><g><path d="m33.23748 34.45716-.00049.17125-1.07036-.61797.00048-.17126z" fill="#768c95"/></g><g><path d="m33.60643 34.45408-.00048.17125c-.10122.05882-.267.06194-.36895.00308l.00049-.17125c.10194.05887.26772.05575.36894-.00308z" fill="#768c95"/></g><g><path d="m34.58338 33.67501c.10195.05886.10506.15028.00384.2091l-.98079.56997c-.10122.05882-.26699.06194-.36895.00308l-1.07037-.61798c-.10463-.06041-.09711-.1549.00411-.21372l.98079-.56997c.10122-.05882.25637-.05886.361.00154z" fill="#475e68"/></g></g><g enable-background="new"><g><path d="m29.75592 34.40214.00048-.17125c-.0001.03735.02553.07452.0765.10394l-.00049.17125c-.05097-.02942-.0766-.06658-.07649-.10394z" fill="#768c95"/></g><g><path d="m32.32747 34.28836-.00049.17126c-.0001.03728-.02341.07415-.07168.10221l.00048-.17125c.04829-.02806.07159-.06493.07169-.10222z" fill="#768c95"/></g><g><path d="m30.90594 34.95435-.00049.17126-1.07304-.61953.00049-.17125z" fill="#768c95"/></g><g><path d="m32.25579 34.39057-.00049.17125-.97819.56847.00049-.17126z" fill="#768c95"/></g><g><path d="m31.2776 34.95903-.00048.17125c-.10397.06042-.2697.05418-.37166-.00468l.00048-.17125c.10195.05886.26769.0651.37166.00468z" fill="#768c95"/></g><g><path d="m32.24649 34.17531c.10195.05886.11052.15644.0093.21526l-.97819.56846c-.10396.06042-.2697.05418-.37166-.00468l-1.07304-.61952c-.10193-.05885-.10253-.14865.00143-.20906l.97819-.56846c.10122-.05882.25899-.06037.36092-.00151z" fill="#475e68"/></g></g><g enable-background="new"><g><path d="m28.49982 35.52449.00048-.17125c-.00011.03998.02692.08028.07957.11068l-.00049.17125c-.05264-.0304-.07967-.07071-.07956-.11068z" fill="#768c95"/></g><g><path d="m31.0713 35.41059-.00049.17126c-.0001.03725-.0253.0746-.0766.10441l.00048-.17125c.05132-.02982.07651-.06716.07661-.10442z" fill="#768c95"/></g><g><path d="m30.9947 35.51501-.00048.17125-.97819.56846.00048-.17125z" fill="#768c95"/></g><g><path d="m29.65292 36.08344-.00049.17125-1.07304-.61952.00048-.17125z" fill="#768c95"/></g><g><path d="m30.01651 36.08347-.00049.17125c-.10122.05882-.26166.05882-.3636-.00003l.00048-.17125c.10195.05885.2624.05885.36361.00003z" fill="#768c95"/></g><g><path d="m30.99346 35.3044c.10193.05885.10521.15019.00124.21061l-.97819.56846c-.10122.05882-.26166.05882-.3636-.00003l-1.07304-.61952c-.10195-.05886-.10782-.15489-.00661-.21371l.97819-.56846c.10396-.06042.26701-.05573.36896.00313z" fill="#475e68"/></g></g><g enable-background="new"><g><path d="m35.46059 33.84594.00048-.17125c-.00011.03806.02419.07644.07478.10566l-.00048.17125c-.0506-.02921-.07489-.06759-.07478-.10566z" fill="#768c95"/></g><g><path d="m37.7706 33.88164-.00049.17126c-.0001.03746-.02404.07464-.07308.10313l.00048-.17125c.04904-.0285.07298-.06568.07309-.10314z" fill="#768c95"/></g><g><path d="m36.6089 34.39987-.00049.17125-1.07304-.61952.00048-.17125z" fill="#768c95"/></g><g><path d="m37.69751 33.98478-.00048.17125-.71951.41814.00049-.17125z" fill="#768c95"/></g><g><path d="m36.97801 34.40292-.00049.17125c-.09601.0558-.26715.05582-.36911-.00304l.00048-.17125c.10196.05885.27311.05883.36912.00304z" fill="#768c95"/></g><g><path d="m37.69105 33.77099c.10196.05886.10783.15488.00646.21379l-.71951.41813c-.09601.05579-.26716.05582-.36911-.00304l-1.07304-.61952c-.10193-.05885-.09711-.1549-.00109-.21069l.71951-.41813c.10136-.05891.26181-.05891.36374-.00005z" fill="#475e68"/></g></g><g enable-background="new"><g><path d="m33.73155 34.8522.00048-.17125c-.00011.03794.02421.07572.07417.10456l-.00048.17125c-.04996-.02883-.07427-.06661-.07417-.10456z" fill="#768c95"/></g><g><path d="m36.30608 34.73424-.00049.17125c-.0001.03658-.02343.07277-.07173.10084l.00049-.17125c.0483-.02807.07162-.06427.07173-.10084z" fill="#768c95"/></g><g><path d="m36.23435 34.83508-.00049.17125-.98079.56998.00049-.17125z" fill="#768c95"/></g><g><path d="m34.87924 35.40504-.00048.17125-1.07304-.61952.00048-.17126z" fill="#768c95"/></g><g><path d="m35.25356 35.40506-.00049.17125c-.10122.05882-.27236.05885-.37431-.00002l.00048-.17125c.10196.05886.2731.05883.37432.00002z" fill="#768c95"/></g><g><path d="m36.22514 34.62289c.10196.05886.11043.15337.00921.21219l-.98079.56998c-.10122.05882-.27236.05884-.37432-.00002l-1.07304-.61952c-.10194-.05885-.09711-.1549.00411-.21372l.98079-.56997c.10122-.05882.25906-.05731.361.00154z" fill="#475e68"/></g></g><g enable-background="new"><g><path d="m31.40338 35.35258.00048-.17125c-.0001.03779.0262.07563.07884.10602l-.00049.17125c-.05263-.03039-.07894-.06823-.07883-.10602z" fill="#768c95"/></g><g><path d="m33.97461 35.23933-.00049.17126c-.0001.03728-.02341.07415-.07169.10221l.00049-.17125c.04827-.02806.07158-.06493.07169-.10222z" fill="#768c95"/></g><g><path d="m32.55307 35.90532-.00048.17126-1.07037-.61798.00048-.17125z" fill="#768c95"/></g><g><path d="m33.90292 35.34155-.00049.17125-.97819.56846.00049-.17125z" fill="#768c95"/></g><g><path d="m32.92473 35.91001-.00048.17125c-.10397.06042-.26971.05418-.37166-.00468l.00048-.17125c.10195.05886.26769.06509.37166.00468z" fill="#768c95"/></g><g><path d="m33.89362 35.12629c.10195.05886.11052.15644.0093.21526l-.97819.56846c-.10397.06042-.26971.05418-.37166-.00468l-1.07037-.61798c-.10461-.06039-.10521-.15019-.00124-.21061l.97819-.56846c.10122-.05882.25899-.06037.36359.00003z" fill="#475e68"/></g></g><g enable-background="new"><g><path d="m30.14017 36.46999.00048-.17125c-.00011.04088.02767.08226.08098.11304l-.00049.17125c-.0533-.03077-.08108-.07215-.08097-.11304z" fill="#768c95"/></g><g><path d="m32.70873 36.35679-.00049.17126c-.0001.03719-.02401.07494-.07494.10454l.00048-.17125c.05094-.0296.07485-.06735.07495-.10455z" fill="#768c95"/></g><g><path d="m32.63379 36.46133-.00048.17126-.97819.56846.00048-.17125z" fill="#768c95"/></g><g><path d="m31.29468 37.03131-.00048.17125-1.07305-.61952.00049-.17125z" fill="#768c95"/></g><g><path d="m31.6556 37.0298-.00048.17125c-.10122.05882-.26703.05572-.36092.00151l.00048-.17125c.09389.05421.25971.05731.36092-.00151z" fill="#768c95"/></g><g><path d="m32.63523 36.25227c.09389.05421.10253.14865-.00144.20906l-.97819.56847c-.10122.05882-.26703.05573-.36092.00151l-1.07304-.61952c-.10193-.05885-.11052-.15644-.0093-.21526l.97819-.56846c.10396-.06042.26972-.05417.37166.00468z" fill="#475e68"/></g></g><g enable-background="new"><g><path d="m37.10502 34.79219.00048-.17125c-.00011.03988.0255.08037.07748.11038l-.00048.17125c-.05198-.03001-.0776-.0705-.07748-.11038z" fill="#768c95"/></g><g><path d="m39.41364 34.82572-.00049.17126c-.0001.03783-.02599.07573-.07703.10539l.00048-.17125c.05105-.02967.07694-.06757.07704-.1054z" fill="#768c95"/></g><g><path d="m39.33661 34.93111-.00049.17125-.71951.41814.00049-.17126z" fill="#768c95"/></g><g><path d="m38.25603 35.35084-.00048.17125-1.07305-.61952.00049-.17125z" fill="#768c95"/></g><g><path d="m38.6171 35.34924-.00048.17125c-.09601.0558-.25911.06046-.36106.0016l.00048-.17125c.10194.05887.26505.0542.36106-.0016z" fill="#768c95"/></g><g><path d="m39.33818 34.72196c.10195.05886.09978.15025-.00158.20915l-.71951.41813c-.09601.0558-.25911.06046-.36106.0016l-1.07304-.61952c-.10193-.05885-.10247-.15799-.00646-.21379l.71951-.41813c.10136-.0589.26717-.05581.36911.00304z" fill="#475e68"/></g></g><g enable-background="new"><g><path d="m35.37604 35.79853.00048-.17125c-.00011.03976.02551.07959.07682.1092l-.00049.17125c-.05131-.02961-.07693-.06944-.07681-.1092z" fill="#768c95"/></g><g><path d="m37.94905 35.67832-.00049.17125c-.0001.03695-.0253.07385-.0756.10309l.00048-.17125c.0503-.02924.0755-.06614.07561-.10309z" fill="#768c95"/></g><g><path d="m37.87344 35.78141-.00048.17125-.9808.56998.00049-.17126z" fill="#768c95"/></g><g><path d="m36.52637 36.35601-.00048.17125-1.07304-.61952.00048-.17126z" fill="#768c95"/></g><g><path d="m36.89265 36.35138-.00048.17125c-.10122.05882-.26432.06348-.36627.00462l.00048-.17125c.10195.05887.26505.05421.36627-.00462z" fill="#768c95"/></g><g><path d="m37.87227 35.57386c.10195.05886.10239.14873.00117.20755l-.98079.56997c-.10122.05882-.26432.06349-.36627.00462l-1.07304-.61952c-.10194-.05885-.10247-.15799-.00126-.21682l.98079-.56997c.10122-.05882.26443-.05421.36636.00464z" fill="#475e68"/></g></g><g enable-background="new"><g><path d="m24.45809 35.04061.00048-.17125c-.00011.04006.02764.08058.08094.11135l-.00049.17125c-.05329-.03076-.08104-.07128-.08093-.11135z" fill="#768c95"/></g><g><path d="m27.03263 34.92266-.00049.17125c-.00011.03948-.02666.07915-.07827.10915l.00049-.17125c.05161-.02999.07816-.06966.07827-.10915z" fill="#768c95"/></g><g><path d="m25.61257 35.60025-.00048.17125-1.07307-.61953.00049-.17126z" fill="#768c95"/></g><g><path d="m26.95436 35.03181-.00049.17126-.98079.56997.00049-.17125z" fill="#768c95"/></g><g><path d="m25.97357 35.60179-.00049.17125c-.10122.05882-.25906.05731-.36099-.00154l.00049-.17125c.10192.05885.25977.06036.36099.00154z" fill="#768c95"/></g><g><path d="m26.95847 34.8181c.10193.05885.09711.1549-.00411.21372l-.98079.56997c-.10122.05882-.25906.05731-.36099-.00154l-1.07306-.61953c-.10193-.05885-.11043-.15337-.00921-.21219l.98079-.56998c.10122-.05882.27238-.05883.37432.00002z" fill="#475e68"/></g></g><g enable-background="new"><g><path d="m26.11268 35.99731.00048-.17125c-.00011.03922.02627.07838.07617.10719l-.00049.17125c-.04989-.02882-.07627-.06797-.07616-.10719z" fill="#768c95"/></g><g><path d="m28.68477 35.88039-.00049.17126c-.00011.03916-.02528.078-.07523.10703l.00048-.17125c.04995-.02903.07512-.06787.07524-.10704z" fill="#768c95"/></g><g><path d="m27.2597 36.55122-.00048.17125-1.07037-.61798.00048-.17125z" fill="#768c95"/></g><g><path d="m28.60953 35.98743-.00048.17125-.9808.56998.00049-.17126z" fill="#768c95"/></g><g><path d="m27.62874 36.5574-.00049.17125c-.10122.05882-.26441.05422-.36903-.00619l.00048-.17125c.10463.06042.26782.06502.36904.00619z" fill="#768c95"/></g><g><path d="m28.6056 35.76907c.10463.06041.10515.15954.00393.21836l-.98079.56997c-.10122.05882-.26441.05422-.36904-.00618l-1.07037-.61798c-.09659-.05576-.10506-.15028-.00384-.2091l.98079-.56997c.10122-.05882.27236-.05884.36895-.00308z" fill="#475e68"/></g></g><g enable-background="new"><g><path d="m27.7659 36.95338.00048-.17125c-.0001.03828.02618.07673.07813.10672l-.00048.17125c-.05196-.02998-.07824-.06844-.07813-.10672z" fill="#768c95"/></g><g><path d="m30.34027 36.83543-.00048.17126c-.00011.03923-.02529.0784-.07556.10761l.00048-.17125c.05027-.02922.07545-.06839.07556-.10762z" fill="#768c95"/></g><g><path d="m28.91757 37.50839-.00049.17125-1.07306-.61953.00049-.17126z" fill="#768c95"/></g><g><path d="m30.2647 36.94304-.00048.17126-.98079.56997.00048-.17125z" fill="#768c95"/></g><g><path d="m29.28391 37.51302-.00048.17125c-.10122.05882-.26441.05422-.36634-.00463l.00048-.17125c.10193.05885.26512.06345.36634.00463z" fill="#768c95"/></g><g><path d="m30.26347 36.72624c.10193.05885.10246.15799.00124.2168l-.98079.56998c-.10122.05882-.26441.05422-.36634-.00463l-1.07306-.61953c-.10193-.05885-.10506-.15027-.00384-.2091l.98079-.56997c.10122-.05882.26701-.06193.36895-.00308z" fill="#475e68"/></g></g><g enable-background="new"><g><path d="m17.98874 33.15792.00048-.17125c-.00011.03998.02692.08029.07956.11068l-.00049.17125c-.05264-.03039-.07967-.0707-.07955-.11068z" fill="#768c95"/></g><g><path d="m27.08697 36.80742-.00049.17126c-.00011.04005-.02593.07989-.07652.10929l.00048-.17125c.0506-.0294.07642-.06925.07653-.1093z" fill="#768c95"/></g><g><path d="m25.66062 37.48051-.00049.17125-7.59184-4.38315.00049-.17126z" fill="#768c95"/></g><g><path d="m27.01045 36.91671-.00049.17126-.97819.56846.00049-.17125z" fill="#768c95"/></g><g><path d="m26.03226 37.48518-.00049.17125c-.10122.05882-.26701.05573-.37164-.00467l.00048-.17125c.10464.0604.27043.06349.37165.00467z" fill="#768c95"/></g><g><path d="m27.00912 36.69684c.10463.06041.10254.16105.00133.21987l-.97819.56846c-.10122.05882-.26701.05574-.37164-.00467l-7.59184-4.38315c-.10193-.05885-.10782-.15488-.00661-.21371l.97819-.56846c.10122-.05882.27498-.06034.37691-.00149z" fill="#475e68"/></g></g><g enable-background="new"><g><path d="m26.16813 37.88334.00048-.17125c-.00011.03818.02551.07643.0768.10604l-.00048.17125c-.05129-.0296-.0769-.06785-.0768-.10604z" fill="#768c95"/></g><g><path d="m28.74249 37.76244-.00049.17125c-.00011.04012-.02594.0803-.07686.10989l.00048-.17125c.05093-.02959.07675-.06977.07687-.10989z" fill="#768c95"/></g><g><path d="m27.31848 38.43768-.00048.17125-1.07306-.61953.00048-.17126z" fill="#768c95"/></g><g><path d="m28.66562 37.87233-.00049.17125-.97819.56847.00049-.17126z" fill="#768c95"/></g><g><path d="m27.68743 38.44079-.00049.17125c-.10122.05882-.26701.05573-.36894-.00312l.00048-.17125c.10194.05885.26773.06194.36895.00312z" fill="#768c95"/></g><g><path d="m28.66698 37.65401c.10193.05885.09985.1595-.00137.21832l-.97819.56846c-.10122.05882-.26701.05573-.36895-.00312l-1.07306-.61953c-.10193-.05885-.10246-.15179-.00124-.21061l.97819-.56846c.10122-.05882.26962-.06344.37155-.00459z" fill="#475e68"/></g></g><g enable-background="new"><g><path d="m33.05151 36.30338.00048-.17125c-.0001.03823.02622.07638.07785.10619l-.00049.17125c-.05163-.02981-.07795-.06795-.07784-.10619z" fill="#768c95"/></g><g><path d="m35.623 36.1895-.00049.17125c-.0001.03743-.02401.07458-.07295.10302l.00048-.17125c.04896-.02844.07285-.06559.07296-.10302z" fill="#768c95"/></g><g><path d="m34.2029 36.85785-.00049.17125-1.07306-.61953.00049-.17125z" fill="#768c95"/></g><g><path d="m35.55005 36.29252-.00049.17125-.97819.56846.00049-.17125z" fill="#768c95"/></g><g><path d="m34.57186 36.86098-.00049.17125c-.10396.06042-.26703.05573-.36896-.00313l.00048-.17125c.10194.05885.26501.06355.36897.00313z" fill="#768c95"/></g><g><path d="m35.54344 36.07881c.10194.05885.10783.15488.00661.21371l-.97819.56846c-.10397.06042-.26703.05572-.36897-.00313l-1.07306-.61953c-.10194-.05885-.10521-.15019-.00124-.21061l.97819-.56846c.10122-.05882.26167-.05882.3636.00003z" fill="#475e68"/></g></g><g enable-background="new"><g><path d="m31.78068 37.41869.00048-.17125c-.00011.03997.02691.08027.07955.11066l-.00049.17125c-.05263-.03038-.07965-.07068-.07954-.11066z" fill="#768c95"/></g><g><path d="m34.34781 37.3031-.00049.17126c-.0001.03719-.02401.07495-.07494.10455l.00049-.17125c.05093-.0296.07484-.06736.07494-.10456z" fill="#768c95"/></g><g><path d="m34.27287 37.40765-.00049.17126-.97819.56846.00049-.17125z" fill="#768c95"/></g><g><path d="m32.93377 37.97764-.00048.17126-1.07306-.61954.00048-.17125z" fill="#768c95"/></g><g><path d="m33.29468 37.97612-.00049.17125c-.10122.05882-.26701.05573-.3609.00153l.00048-.17125c.09389.0542.25969.05729.36091-.00153z" fill="#768c95"/></g><g><path d="m34.27432 37.1986c.09389.05421.10251.14864-.00145.20905l-.97819.56846c-.10122.05882-.26701.05573-.3609.00153l-1.07306-.61953c-.10193-.05885-.10781-.15488-.00659-.2137l.97819-.56846c.10397-.06042.26701-.05573.36895.00312z" fill="#475e68"/></g></g><g enable-background="new"><g><path d="m29.42107 37.909.00048-.17125c-.0001.03828.02618.07674.07813.10673l-.00049.17125c-.05194-.03-.07823-.06845-.07812-.10673z" fill="#768c95"/></g><g><path d="m31.99151 37.78414-.00049.17126c-.00011.03959-.02739.07949-.07967.10987l.00049-.17125c.05228-.03039.07956-.07029.07967-.10988z" fill="#768c95"/></g><g><path d="m31.91184 37.89402-.00049.17125-.98079.56997.00048-.17125z" fill="#768c95"/></g><g><path d="m30.57274 38.464-.00048.17125-1.07306-.61953.00048-.17125z" fill="#768c95"/></g><g><path d="m30.93104 38.46399-.00049.17125c-.10122.05882-.25637.05886-.3583.00001l.00049-.17125c.10193.05885.25709.05881.3583-.00001z" fill="#768c95"/></g><g><path d="m31.91864 37.68185c.10193.05885.09441.15334-.0068.21216l-.98079.56997c-.10122.05882-.25637.05886-.3583.00002l-1.07306-.61953c-.10193-.05885-.10506-.15028-.00384-.2091l.98079-.56998c.10122-.05882.26701-.06193.36895-.00308z" fill="#475e68"/></g></g><g enable-background="new"><g><path d="m27.86355 38.86219.00048-.17125c-.00011.03819.02551.07644.0768.10605l-.00048.17125c-.05129-.02961-.07691-.06786-.0768-.10605z" fill="#768c95"/></g><g><path d="m30.43757 38.7419-.00048.17126c-.00011.04004-.02593.07989-.07652.10929l.00049-.17125c.05058-.02941.0764-.06925.07651-.1093z" fill="#768c95"/></g><g><path d="m29.01121 39.41497-.00049.17125-1.07037-.61798.00049-.17125z" fill="#768c95"/></g><g><path d="m30.36105 38.85119-.00048.17125-.97819.56846.00048-.17125z" fill="#768c95"/></g><g><path d="m29.38286 39.41965-.00048.17125c-.10122.05882-.26703.05572-.37166-.00468l.00049-.17125c.10462.06041.27044.0635.37165.00468z" fill="#768c95"/></g><g><path d="m30.35971 38.63131c.10463.06041.10256.16106.00135.21988l-.97819.56846c-.10122.05882-.26703.05573-.37165-.00468l-1.07037-.61798c-.10193-.05885-.10246-.15179-.00124-.21061l.97819-.56846c.10122-.05882.26962-.06345.37155-.00459z" fill="#475e68"/></g></g><g enable-background="new"><g><path d="m38.7481 35.74555.00048-.17125c-.0001.03717.02357.07453.07347.10334l-.00048.17125c-.0499-.02881-.07357-.06617-.07347-.10334z" fill="#768c95"/></g><g><path d="m41.05822 35.78129-.00049.17126c-.0001.0373-.02344.07422-.07181.10233l.00048-.17125c.04838-.02811.07172-.06503.07182-.10234z" fill="#768c95"/></g><g><path d="m39.89512 36.29717-.00049.17126-1.07305-.61954.00048-.17125z" fill="#768c95"/></g><g><path d="m40.98641 35.88363-.00048.17125-.71951.41813.00048-.17125z" fill="#768c95"/></g><g><path d="m40.2669 36.30176-.00048.17125c-.09601.0558-.26985.05426-.37178-.00459l.00049-.17125c.10193.05885.27576.06039.37177.00459z" fill="#768c95"/></g><g><path d="m40.97728 35.66829c.10193.05885.1105.15643.00914.21534l-.71951.41813c-.09601.05579-.26985.05426-.37178-.00459l-1.07306-.61953c-.10193-.05885-.09441-.15334.0016-.20914l.71951-.41813c.10136-.05891.25911-.06046.36105-.00161z" fill="#475e68"/></g></g><g enable-background="new"><g><path d="m37.01905 36.75177.00048-.17125c-.00011.03705.02359.07383.07288.10228l-.00049.17125c-.04928-.02845-.07298-.06523-.07287-.10228z" fill="#768c95"/></g><g><path d="m39.59373 36.63389-.00049.17126c-.0001.03642-.02284.07235-.07048.10003l.00048-.17125c.04764-.02769.07039-.06362.07049-.10004z" fill="#768c95"/></g><g><path d="m38.16547 37.30234-.00049.17125-1.07306-.61953.00049-.17126z" fill="#768c95"/></g><g><path d="m39.52325 36.73392-.00049.17126-.98079.56997.00048-.17125z" fill="#768c95"/></g><g><path d="m38.54245 37.3039-.00048.17125c-.10122.05882-.27505.05729-.37699-.00156l.00048-.17125c.10194.05885.27578.06038.37699.00156z" fill="#768c95"/></g><g><path d="m39.51136 36.52019c.10193.05885.1131.15492.01188.21374l-.98079.56998c-.10122.05882-.27505.05729-.37699-.00156l-1.07306-.61953c-.10194-.05885-.09442-.15334.0068-.21216l.9808-.56999c.10122-.05882.25637-.05886.3583-.00002z" fill="#475e68"/></g></g><g enable-background="new"><g><path d="m34.69864 37.25435.00048-.17125c-.0001.03823.02622.07638.07785.10619l-.00048.17125c-.05164-.02981-.07796-.06795-.07785-.10619z" fill="#768c95"/></g><g><path d="m37.27013 37.14047-.00048.17125c-.00011.03743-.02401.07458-.07295.10302l.00048-.17125c.04894-.02844.07285-.06559.07295-.10302z" fill="#768c95"/></g><g><path d="m35.85003 37.80882-.00049.17126-1.07306-.61954.00049-.17125z" fill="#768c95"/></g><g><path d="m37.19718 37.24349-.00048.17125-.97819.56846.00048-.17125z" fill="#768c95"/></g><g><path d="m36.21899 37.81195-.00048.17125c-.10397.06042-.26703.05573-.36897-.00313l.00049-.17125c.10193.05886.265.06355.36896.00313z" fill="#768c95"/></g><g><path d="m37.19057 37.02978c.10194.05885.10783.15489.00661.21371l-.97819.56846c-.10396.06042-.26703.05573-.36896-.00313l-1.07306-.61953c-.10193-.05885-.1052-.15019-.00124-.21061l.97819-.56846c.10122-.05882.26166-.05882.3636.00003z" fill="#475e68"/></g></g><g enable-background="new"><g><path d="m33.42006 38.36447.00048-.17125c-.00011.0404.0276.08139.08195.11277l-.00048.17125c-.05436-.03137-.08206-.07237-.08195-.11277z" fill="#768c95"/></g><g><path d="m35.98828 38.25179-.00049.17126c-.0001.03706-.02342.07455-.07365.10374l.00048-.17125c.05024-.0292.07356-.06669.07366-.10375z" fill="#768c95"/></g><g><path d="m35.91463 38.35553-.00048.17125-.97819.56846.00048-.17125z" fill="#768c95"/></g><g><path d="m34.57285 38.92396-.00049.17125-1.07035-.61796.00048-.17126z" fill="#768c95"/></g><g><path d="m34.93644 38.92399-.00049.17125c-.10122.05882-.2697.05418-.36359-.00003l.00048-.17125c.0939.05421.26238.05885.3636.00003z" fill="#768c95"/></g><g><path d="m35.91339 38.14492c.09389.05421.10521.15019.00124.21061l-.97819.56846c-.10122.05882-.26971.05418-.3636-.00003l-1.07035-.61797c-.10463-.06041-.11052-.15644-.0093-.21526l.97819-.56846c.10397-.06042.26703-.05573.37166.00468z" fill="#475e68"/></g></g><g enable-background="new"><g><path d="m31.07346 38.85999.00048-.17125c-.00011.04007.02764.08059.08093.11135l-.00049.17125c-.05328-.03076-.08104-.07128-.08092-.11135z" fill="#768c95"/></g><g><path d="m33.64798 38.74203-.00049.17125c-.00011.03948-.02666.07915-.07827.10915l.00048-.17125c.05162-.02999.07817-.06966.07828-.10915z" fill="#768c95"/></g><g><path d="m32.22791 39.41962-.00048.17125-1.07304-.61952.00048-.17126z" fill="#768c95"/></g><g><path d="m33.5697 38.85118-.00048.17126-.9808.56997.00049-.17125z" fill="#768c95"/></g><g><path d="m32.58891 39.42116-.00048.17125c-.10122.05882-.25904.05732-.361-.00154l.00048-.17125c.10196.05886.25978.06036.361.00154z" fill="#768c95"/></g><g><path d="m33.57381 38.63747c.10196.05886.09711.1549-.00411.21372l-.98079.56997c-.10122.05882-.25904.05732-.361-.00154l-1.07304-.61952c-.10193-.05885-.11043-.15337-.00921-.21219l.98079-.56998c.10122-.05882.27238-.05883.37431.00002z" fill="#475e68"/></g></g><g enable-background="new"><g><path d="m29.55798 39.84122.00048-.17125c-.0001.03774.02551.07568.07782.10587l-.00049.17125c-.05231-.03019-.07792-.06812-.07781-.10587z" fill="#768c95"/></g><g><path d="m32.13299 39.72075-.00049.17126c-.00011.04004-.02593.07989-.07652.10928l.00048-.17125c.05059-.0294.07641-.06924.07653-.10929z" fill="#768c95"/></g><g><path d="m30.70662 40.39382-.00048.17125-1.07035-.61797.00048-.17125z" fill="#768c95"/></g><g><path d="m32.05647 39.83004-.00049.17125-.97819.56846.00049-.17125z" fill="#768c95"/></g><g><path d="m31.07828 40.3985-.00048.17125c-.10122.05882-.26703.05573-.37166-.00468l.00048-.17125c.10463.0604.27044.0635.37166.00468z" fill="#768c95"/></g><g><path d="m32.05512 39.61015c.10463.06041.10256.16106.00135.21988l-.97819.56846c-.10122.05882-.26703.05573-.37166-.00468l-1.07035-.61797c-.10463-.06041-.10246-.15179-.00124-.21061l.97819-.56846c.10122-.05882.26692-.065.37155-.00459z" fill="#475e68"/></g></g><g enable-background="new"><g><path d="m40.39155 36.68892.00048-.17125c-.00011.0403.02617.0815.07986.1125l-.00049.17125c-.05369-.031-.07997-.07219-.07985-.1125z" fill="#768c95"/></g><g><path d="m42.6992 36.72571-.00049.17126c-.0001.03759-.02402.07537-.07369.10424l.00048-.17125c.04968-.02887.0736-.06666.0737-.10425z" fill="#768c95"/></g><g><path d="m42.6255 36.82996-.00048.17125-.71951.41813.00048-.17125z" fill="#768c95"/></g><g><path d="m41.54225 37.24814-.00048.17126-1.07037-.61798.00049-.17125z" fill="#768c95"/></g><g><path d="m41.90599 37.24809-.00048.17125c-.09601.0558-.26717.05581-.36374.00005l.00048-.17125c.09657.05576.26773.05575.36374-.00005z" fill="#768c95"/></g><g><path d="m42.62441 36.61926c.09657.05576.10246.15179.00109.21069l-.71951.41813c-.09601.0558-.26717.05581-.36374.00005l-1.07037-.61798c-.10463-.06041-.10515-.15954-.00914-.21534l.71951-.41813c.10136-.0589.26715-.05582.37178.00459z" fill="#475e68"/></g></g><g enable-background="new"><g><path d="m42.0357 37.64209.00048-.17125c-.00011.03807.02419.07644.07479.10566l-.00049.17125c-.0506-.02922-.07489-.06759-.07478-.10566z" fill="#768c95"/></g><g><path d="m44.82315 37.9504-.00049.17125c-.0001.03772-.02531.0754-.07569.10467l.00048-.17125c.05039-.02927.0756-.06695.0757-.10467z" fill="#768c95"/></g><g><path d="m44.74746 38.05507-.00048.17126-.71951.41813.00049-.17125z" fill="#768c95"/></g><g><path d="m43.66422 38.47326-.00049.17125-1.55324-.89676.00049-.17125z" fill="#768c95"/></g><g><path d="m44.02796 38.47321-.00049.17125c-.09601.05579-.26181.0589-.36374.00005l.00048-.17125c.10194.05885.26774.05574.36375-.00005z" fill="#768c95"/></g><g><path d="m44.74637 37.84438c.10194.05885.10246.15179.00109.21069l-.71951.41813c-.09601.05579-.26181.05891-.36374.00005l-1.55324-.89676c-.10196-.05886-.09711-.1549-.0011-.21069l.71951-.41813c.10136-.0589.26179-.05891.36374-.00005z" fill="#475e68"/></g></g><g enable-background="new"><g><path d="m38.80872 37.78423.00048-.17125c-.0001.03752.02425.07502.0752.10443l-.00049.17125c-.05094-.02941-.07529-.0669-.07519-.10443z" fill="#768c95"/></g><g><path d="m43.35858 38.803-.00048.17126c-.0001.03683-.02465.07352-.07428.10236l.00049-.17125c.04962-.02884.07417-.06553.07427-.10237z" fill="#768c95"/></g><g><path d="m43.2843 38.90537-.00049.17125-.98079.56998.00049-.17125z" fill="#768c95"/></g><g><path d="m41.93456 39.47842-.00049.17126-3.05015-1.76101.00049-.17125z" fill="#768c95"/></g><g><path d="m42.30351 39.47535-.00049.17125c-.10122.05882-.26701.06193-.36895.00308l.00048-.17125c.10195.05885.26774.05573.36896-.00308z" fill="#768c95"/></g><g><path d="m43.28046 38.69627c.10194.05885.10506.15028.00385.2091l-.98079.56998c-.10122.05882-.26701.06193-.36895.00308l-3.05015-1.76101c-.10463-.06041-.09711-.1549.00411-.21372l.98079-.56998c.10122-.05882.25637-.05886.361.00154z" fill="#475e68"/></g></g><g enable-background="new"><g><path d="m36.34713 38.20758.00048-.17125c-.0001.03735.02552.0745.07649.10393l-.00048.17125c-.05097-.02942-.0766-.06658-.07649-.10393z" fill="#768c95"/></g><g><path d="m38.91867 38.09379-.00049.17125c-.0001.03728-.0234.07416-.07168.10222l.00048-.17125c.04829-.02806.07159-.06494.07169-.10222z" fill="#768c95"/></g><g><path d="m37.49716 38.7598-.00049.17125-1.07306-.61953.00049-.17126z" fill="#768c95"/></g><g><path d="m38.84699 38.19601-.00049.17125-.97819.56846.00049-.17125z" fill="#768c95"/></g><g><path d="m37.8688 38.76447-.00048.17125c-.10397.06042-.2697.05418-.37164-.00467l.00048-.17125c.10193.05885.26768.06509.37164.00467z" fill="#768c95"/></g><g><path d="m38.83771 37.98075c.10193.05885.1105.15643.00928.21525l-.97819.56846c-.10396.06042-.2697.05418-.37164-.00467l-1.07306-.61953c-.10193-.05885-.10251-.14864.00145-.20905l.97819-.56846c.10122-.05882.25897-.06038.3609-.00153z" fill="#475e68"/></g></g><g enable-background="new"><g><path d="m37.93121 39.12068.00048-.17125c-.00011.03823.02621.07638.07785.10619l-.00049.17125c-.05163-.02981-.07795-.06795-.07784-.10619z" fill="#768c95"/></g><g><path d="m41.76078 39.7301-.00048.17125c-.00011.0377-.02528.07534-.07556.10456l.00048-.17125c.05028-.02922.07545-.06686.07556-.10456z" fill="#768c95"/></g><g><path d="m41.68521 39.83466-.00048.17125-.97819.56846.00048-.17125z" fill="#768c95"/></g><g><path d="m40.34343 40.40309-.00049.17125-2.33389-1.34747.00049-.17125z" fill="#768c95"/></g><g><path d="m40.70702 40.40312-.00048.17125c-.10397.06042-.26166.05882-.3636-.00003l.00049-.17125c.10193.05885.25963.06045.36359.00003z" fill="#768c95"/></g><g><path d="m41.68398 39.62405c.10193.05885.10246.15179.00124.21061l-.97819.56846c-.10396.06042-.26166.05882-.36359-.00003l-2.33389-1.34747c-.10195-.05886-.10521-.15019-.00124-.21061l.97819-.56846c.10122-.05882.26165-.05883.3636.00003z" fill="#475e68"/></g></g><g enable-background="new"><g><path d="m35.05921 39.31219.00048-.17125c-.00011.0396.02561.07888.07384.10673l-.00048.17125c-.04824-.02784-.07395-.06713-.07384-.10673z" fill="#768c95"/></g><g><path d="m40.16273 40.65953-.00049.17126c-.0001.03725-.02529.0746-.0766.10441l.00049-.17125c.05131-.02982.07649-.06717.0766-.10442z" fill="#768c95"/></g><g><path d="m40.08613 40.76394-.00049.17126-.97818.56846.00048-.17125z" fill="#768c95"/></g><g><path d="m38.74434 41.33237-.00048.17126-3.61082-2.08471.00049-.17125z" fill="#768c95"/></g><g><path d="m39.10794 41.33241-.00048.17125c-.10122.05882-.26167.05882-.3636-.00003l.00048-.17125c.10194.05885.26238.05885.3636.00003z" fill="#768c95"/></g><g><path d="m40.08489 40.55333c.10193.05885.1052.15019.00124.21061l-.97819.56846c-.10122.05882-.26167.05882-.3636-.00003l-3.61082-2.08471c-.09389-.05421-.10246-.15179-.00124-.21061l.97819-.56846c.10396-.06042.2697-.05418.3636.00003z" fill="#475e68"/></g></g><g enable-background="new"><g><path d="m32.76082 39.8342.00049-.17125c-.00011.04007.02764.08058.08094.11135l-.00048.17125c-.05331-.03077-.08106-.07128-.08095-.11135z" fill="#768c95"/></g><g><path d="m38.56792 41.58257-.00048.17125c-.00011.03948-.02666.07915-.07827.10915l.00048-.17125c.05161-.03.07816-.06967.07827-.10915z" fill="#768c95"/></g><g><path d="m37.14786 42.26015-.00048.17125-4.30562-2.48585.00049-.17125z" fill="#768c95"/></g><g><path d="m38.48965 41.69172-.00049.17125-.98079.56998.00048-.17126z" fill="#768c95"/></g><g><path d="m37.50885 42.26169-.00048.17125c-.10122.05882-.25906.05731-.36099-.00154l.00048-.17125c.10193.05885.25978.06036.36099.00154z" fill="#768c95"/></g><g><path d="m38.49376 41.478c.10193.05885.09711.1549-.00411.21372l-.98079.56997c-.10122.05882-.25906.05731-.36099-.00154l-4.30561-2.48585c-.10195-.05886-.11043-.15337-.00921-.2122l.98079-.56997c.10122-.05882.27236-.05885.37431.00002z" fill="#475e68"/></g></g><g enable-background="new"><g><path d="m31.18586 40.73594.00048-.17125c-.0001.03699.02361.07349.07259.10177l-.00049.17125c-.04897-.02828-.07269-.06478-.07258-.10177z" fill="#768c95"/></g><g><path d="m32.97383 41.06361-.00049.17126c-.0001.03772-.02531.07539-.07569.10467l.00049-.17125c.05038-.02928.07559-.06696.07569-.10468z" fill="#768c95"/></g><g><path d="m32.89815 41.16828-.00049.17125-.19448.11303.00049-.17126z" fill="#768c95"/></g><g><path d="m32.33197 41.28598-.00048.17125-1.07305-.61952.00049-.17125z" fill="#768c95"/></g><g><path d="m32.70367 41.2813-.00049.17125c-.10396.06042-.26976.06353-.37169.00468l.00048-.17125c.10194.05885.26773.05574.3717-.00468z" fill="#768c95"/></g><g><path d="m32.89705 40.95759c.10193.05885.10246.15179.00109.21069l-.19448.11302c-.10397.06042-.26976.06353-.3717.00468l-1.07304-.61952c-.10195-.05886-.09443-.15335.00953-.21377l.19448-.11302c.10136-.05891.25912-.06046.36107-.0016z" fill="#475e68"/></g></g><g enable-background="new"><g><path d="m33.5738 41.20548.00048-.17125c-.00011.03823.02617.07636.07777.10615l-.00048.17125c-.05159-.02978-.07787-.06792-.07777-.10615z" fill="#768c95"/></g><g><path d="m35.36972 41.54216-.00049.17126c-.0001.03745-.02404.07464-.07308.10314l.00048-.17125c.04905-.0285.07299-.06569.07309-.10315z" fill="#768c95"/></g><g><path d="m34.72512 41.75991-.00049.17126-1.07306-.61954.00049-.17125z" fill="#768c95"/></g><g><path d="m35.29664 41.64531-.00048.17125-.20244.11764.00049-.17125z" fill="#768c95"/></g><g><path d="m35.09421 41.76295-.00048.17125c-.10397.06042-.26716.05582-.36909-.00303l.00048-.17125c.10193.05884.26512.06344.36909.00303z" fill="#768c95"/></g><g><path d="m35.2902 41.43153c.10193.05885.1078.15488.00644.21378l-.20243.11764c-.10397.06042-.26715.05582-.36909-.00303l-1.07306-.61953c-.10194-.05885-.10506-.15027-.00109-.21069l.20243-.11764c.10136-.0589.26181-.0589.36374-.00005z" fill="#475e68"/></g></g><g enable-background="new"><g><path d="m32.79416 41.66298.00048-.17125c-.0001.03788.02422.07535.07385.10401l-.00048.17125c-.04964-.02865-.07395-.06612-.07385-.10401z" fill="#768c95"/></g><g><path d="m34.58616 41.99752-.00048.17126c-.00011.03746-.02404.07464-.07308.10314l.00048-.17125c.04903-.0285.07298-.06569.07308-.10315z" fill="#768c95"/></g><g><path d="m34.51308 42.10066-.00049.17126-.19448.11302.00049-.17126z" fill="#768c95"/></g><g><path d="m33.94155 42.21527-.00048.17125-1.07306-.61953.00048-.17125z" fill="#768c95"/></g><g><path d="m34.3186 42.21368-.00048.17125c-.10397.06042-.27511.06044-.37704.00159l.00048-.17125c.10193.05885.27307.05883.37704-.00159z" fill="#768c95"/></g><g><path d="m34.50663 41.88688c.10193.05885.1078.15488.00644.21378l-.19448.11302c-.10397.06042-.27511.06044-.37704.00159l-1.07306-.61953c-.10193-.05885-.09711-.1549.00686-.21532l.19448-.11302c.10136-.05891.26181-.05891.36374-.00005z" fill="#475e68"/></g></g><g enable-background="new"><g><path d="m34.40681 42.59021.00048-.17125c-.00011.04013.02618.08033.07882.11072l-.00048.17125c-.05264-.03039-.07893-.07059-.07882-.11072z" fill="#768c95"/></g><g><path d="m36.19835 42.92529-.00049.17126c-.0001.03772-.02531.07539-.07568.10467l.00048-.17125c.05037-.02929.07558-.06696.07569-.10468z" fill="#768c95"/></g><g><path d="m36.12266 43.02996-.00049.17125-.19448.11302.00049-.17125z" fill="#768c95"/></g><g><path d="m35.55648 43.14765-.00048.17125-1.07037-.61797.00048-.17126z" fill="#768c95"/></g><g><path d="m35.92818 43.14298-.00048.17125c-.10397.06042-.26976.06353-.37169.00468l.00048-.17125c.10193.05884.26772.05574.37169-.00468z" fill="#768c95"/></g><g><path d="m36.12156 42.81926c.10194.05885.10246.15179.00109.21069l-.19448.11302c-.10396.06042-.26976.06353-.37169.00467l-1.07037-.61798c-.10463-.06041-.10515-.15954-.00118-.21996l.19448-.11302c.10136-.0589.26716-.05582.37178.00459z" fill="#475e68"/></g></g></g><g><path d="m16.51805 33.66364 9.53027 5.50195.06073-.03516c.12714-.07373.12158-.19678-.00629-.27051l-9.58472-5.53369c-.12311-.07129-.33545-.07422-.46252 0l-5.23645 3.04297c-.13171.07666-.12616.19971-.00305.27051l.0592.03418 5.1803-3.01025c.12708-.07422.33942-.07129.46253 0z" fill="#b0b8bc"/><path d="m20.8726 42.17341 5.17572-3.00781-9.53027-5.50195c-.12311-.07129-.33545-.07422-.46252 0l-5.1803 3.01025 9.52551 5.49951c.12787.07373.34015.07666.47186 0z" fill="#cfd8dd"/></g></g></g></g><g><path d="m42.58586 41.2271.0014.50629 4.74602-2.8015-.00141-.50629z" fill="#9ba2a6"/></g></g></g><g><g><path d="m23.0149 6.28014c.08503.13092.1273.28073.12681.4512-.00048.17057-.04346.26929-.13052.29898-.08705.02792-.2198-.00879-.39978-.1127l-.21629-.12488-.00116.41004-.20683-.11941.00397-1.4006.41997.24247c.18472.10664.31881.22409.40383.3549zm-.1469.49488c.0412-.02708.06193-.08778.06221-.18581.00027-.09616-.02479-.17965-.07837-.2505-.0504-.06912-.13403-.13742-.24612-.20214l-.2084-.12032-.00159.5624.2384.13764c.11525.06655.19268.08582.23387.05873" fill="#fff"/></g><g><path d="m23.98821 7.13469c.06929.10359.10374.22345.10335.35948l-.00195.6876-.17841-.10301.0004-.14154c-.07766.06056-.18043.05396-.30989-.02078-.09631-.0556-.17674-.133-.23972-.23294-.06298-.09808-.09431-.20164-.09402-.30499.0003-.10522.03368-.1659.10171-.17759.06804-.01336.15969.01224.27495.07879l.25261.14585.00011-.03986c.0004-.14154-.06887-.25242-.20465-.33081-.08684-.05013-.17693-.06577-.27029-.04701l-.08643-.19157c.11239-.03695.24043-.01568.3841.06727.10893.06288.19883.14751.26813.25111zm-.09325.53857.00026-.09074-.22104-.12762c-.14051-.08112-.21012-.07044-.21041.03113-.00014.05079.01711.10078.05176.14986.03466.04722.08356.08818.14514.12373.06157.03554.11688.04756.16279.03405.04747-.01253.07131-.05328.0715-.12041" fill="#fff"/></g><g><path d="m25.20255 7.75583-.45514 1.00742c-.02704.0534-.06509.08782-.11573.09851-.04906.0117-.10437-.00032-.16594-.03586-.08369-.04832-.16094-.1292-.22864-.23917l.08893-.13035c.03934.06629.08192.11266.12613.13818.04263.02461.07899.02746.10593.00664.02853-.0198.04127-.0506.0414-.0942.00005-.01811-.12364-.45656-.37107-1.31358l.2084.12032.27564.94774.28011-.62688z" fill="#fff"/></g><g><path d="m26.06869 7.92149-.00334 1.17747.55733.32177-.00064.22313-.76257-.44026.00398-1.40061z" fill="#fff"/></g><g><path d="m27.58301 9.27374c.09285.16077.13984.31882.1394.47118-.00044.15424-.04817.2575-.14162.30894-.09345.05321-.21044.03841-.34937-.0418-.14052-.08113-.25562-.20033-.35005-.36201-.09128-.15808-.13827-.31604-.13783-.47028.00043-.15236.04816-.25573.14004-.30984.09502-.05053.21043-.03842.35095.04271.13894.08021.25562.2021.34848.3611zm-.14076.56201c.05545-.03345.0841-.10051.08439-.20386.00029-.10157-.02788-.20332-.08297-.29871-.05507-.09716-.12445-.16995-.20971-.21917-.08526-.04923-.15482-.05666-.21027-.0233-.05544.03158-.0841.10051-.08439.20208-.00029.10335.02789.20322.08296.30048.05507.09716.12445.16995.20971.21917.08528.04923.15484.05666.21028.02331" fill="#fff"/></g><g><path d="m28.59363 9.79363c.06929.10359.10374.22345.10336.35948l-.00195.6876-.17841-.10301.0004-.14154c-.07766.06056-.18043.05396-.30989-.02078-.09631-.0556-.17674-.133-.23971-.23294-.06299-.09808-.09432-.20165-.09403-.305.0003-.10522.03368-.1659.10171-.17759.06804-.01336.15969.01224.27336.07787l.2542.14676.00011-.03986c.0004-.14154-.06886-.25241-.20465-.33081-.08684-.05013-.17693-.06577-.27029-.04701l-.08643-.19157c.11239-.03695.24043-.01568.38409.06727.10895.06291.19885.14754.26813.25113zm-.09325.53857.00026-.09074-.22104-.12761c-.14051-.08112-.21012-.07044-.21041.03113-.00014.05079.01711.10078.05176.14986.03466.04722.08356.08818.14514.12373s.11689.04757.16279.03405c.04747-.01254.07131-.05329.0715-.12042" fill="#fff"/></g><g><path d="m29.47332 10.20519c.10578.06107.19093.14839.25387.25739.0661.11269.09738.23614.09698.37581l-.00185.65316-.19577-.11303.00166-.58416c.00056-.19774-.07022-.33679-.21231-.41883-.06788-.03919-.12637-.04753-.17705-.02404-.04909.02253-.07455.08236-.07484.18206l-.00163.57697-.19578-.11303.00303-1.06674.19578.11303-.00055.1941c.03176-.04713.07453-.0733.1299-.07949.05535-.00432.11539.01034.17856.0468z" fill="#fff"/></g><g><path d="m31.19197 10.87942.5344 1.71144-.21945-.1267-.12067-.38771-.61259-.35367-.12246.24732-.21946-.12671.54077-1.09068zm-.33243.67307.44208.25523-.2194-.70449z" fill="#fff"/></g><g><path d="m32.68737 12.2098c.08814.15085.13197.30698.1315.47214-.00047.16506-.04347.27283-.13217.32524-.08871.05239-.19148.04393-.30831-.02352-.11684-.06746-.22246-.1866-.31527-.3583l-.00156.54971-.19419-.11212.00413-1.4568.19419.11212-.00053.18682c.07775-.08959.17899-.10015.30371-.02814.12473.07201.23037.18387.3185.33285zm-.15026.56924c.05703-.03244.08568-.0995.08597-.20107.00029-.10168-.02631-.20241-.08295-.30235-.05507-.1008-.12287-.17268-.20023-.21734-.07737-.04467-.14377-.05027-.19764-.01236-.05387.03613-.08096.10409-.08125.20567-.00029.10157.02632.20054.07982.29689.05349.09625.11813.1663.19549.21096.07737.04467.14377.05027.20079.0196" fill="#fff"/></g><g><path d="m33.86044 12.88707c.08813.15084.13197.30698.1315.47214-.00047.16506-.04347.27283-.13218.32523-.0887.0524-.19147.04394-.30831-.02352-.11683-.06745-.22245-.1866-.31527-.35829l-.00156.54971-.1942-.11212.00413-1.4568.19419.11212-.00053.18682c.07775-.08959.17899-.10015.30371-.02814.12475.07201.23038.18387.31852.33285zm-.15027.56924c.05702-.03244.08568-.0995.08597-.20107.00029-.10168-.02632-.20241-.08297-.30235-.05506-.1008-.12286-.17268-.20021-.21734-.07737-.04467-.14377-.05027-.19764-.01236-.05387.03613-.08096.10409-.08124.20567-.00029.10157.02632.20054.07982.29689.05349.09624.11813.1663.19549.21096s.14377.05027.20078.0196" fill="#fff"/></g><g><path d="m34.41302 12.65194-.00422 1.48761-.19419-.11212.00422-1.48761z" fill="#fff"/></g><g><path d="m34.69299 14.30363.00302-1.06675.1942.11212-.00303 1.06675z" fill="#fff"/></g><g><path d="m34.79596 13.12374c-.03473-.02005-.06311-.05093-.0883-.09278-.02361-.04084-.03614-.08257-.03603-.12067.00011-.03996.01283-.06535.03659-.08071.02535-.01257.0538-.01074.08854.00932.03315.01914.06153.05012.08672.09187.0236.04271.03613.08268.03602.12264-.00011.03809-.01283.06525-.03659.07874-.02533.01268-.0538.01073-.08695-.00841z" fill="#fff"/></g><g><path d="m35.61493 13.75106c.13895.08022.2572.20479.3532.37112l-.11573.09674c-.08028-.12818-.16069-.21453-.24279-.26193-.08052-.04649-.15166-.0567-.21183-.02785-.06017.02708-.09039.08958-.09067.18751-.00028.0998.02949.19872.08771.30144.0598.10353.13233.17814.21916.22828.08683.05013.16907.05216.24668.00607l.11327.21081c-.11246.0659-.24369.05559-.39053-.02918-.12946-.07474-.23983-.18934-.33427-.34383-.09129-.15445-.13828-.31428-.13782-.47757s.04979-.26741.14638-.31339c.09818-.04692.21673-.02935.35724.05178z" fill="#fff"/></g><g><path d="m36.82088 14.54364c.06929.10359.10374.22345.10335.35948l-.00195.6876-.17841-.10301.0004-.14154c-.07766.06055-.18043.05396-.30831-.01987-.0979-.05652-.17675-.133-.2413-.23386-.06297-.09808-.09432-.20164-.09402-.30499.0003-.10522.03526-.16499.10172-.17759.06803-.01336.15969.01224.27494.07878l.25261.14585.00011-.03986c.0004-.14154-.0673-.2515-.20464-.3308-.08683-.05013-.17693-.06577-.27029-.04701l-.08643-.19157c.11395-.03605.24199-.01478.38408.06726.11053.06381.19885.14753.26814.25113zm-.09325.53857.00026-.09074-.21945-.1267c-.1421-.08204-.21171-.07136-.21199.03022-.00014.05079.01711.10078.05176.14986.03466.04722.08356.08818.14514.12373.06315.03646.11846.04848.16436.03495.0459-.01344.06973-.0542.06992-.12132" fill="#fff"/></g><g><path d="m37.42833 14.47998-.00095.33386.24472.14129-.00051.1814-.24472-.14129-.00153.54065c-.00014.05079.01079.0989.03439.14161.0236.04448.05513.07718.09776.10179.04264.02462.08217.02388.12177-.00048l.07849.20522c-.06808.03158-.14555.02136-.22764-.02604-.08369-.04832-.15464-.12201-.21286-.22286-.05823-.09908-.08798-.20528-.08766-.31778l.00152-.53514-.11683-.06745.00051-.1814.11683.06745.00095-.33386z" fill="#fff"/></g><g><path d="m37.91378 16.16316.00303-1.06675.19419.11212-.00302 1.06675z" fill="#fff"/></g><g><path d="m38.01676 14.98327c-.03316-.01915-.06311-.05093-.08671-.09187-.02518-.04175-.03772-.08349-.03761-.12158.00011-.03996.01284-.06535.03818-.0798.02376-.01349.05379-.01074.08695.0084.03316.01915.06311.05103.08672.09187.02518.04362.03615.08269.03603.12265-.00011.03809-.01126.06616-.0366.07873-.02377.0136-.0538.01075-.08696-.0084z" fill="#fff"/></g><g><path d="m39.17157 15.9644c.09285.16077.13826.31791.13783.47028-.00043.15424-.04659.25841-.14004.30984-.09345.05321-.21044.03841-.34938-.0418-.14052-.08113-.25719-.20123-.35004-.36201-.09285-.15899-.13827-.31604-.13783-.47028.00043-.15236.04659-.25664.14004-.30984.09345-.05144.21043-.03842.35095.04271.13894.08021.25562.2021.34847.3611zm-.14075.56201c.05544-.03345.08252-.10142.08281-.20477.00029-.10157-.02631-.20241-.08138-.29779-.05508-.09716-.12603-.17086-.20971-.21917-.08525-.04922-.15639-.05756-.21183-.02421-.05544.03158-.08253.10142-.08281.20299-.00029.10335.02631.20231.08139.29957.05508.09716.12603.17086.21128.22008.08366.04831.1548.05665.21025.0233" fill="#fff"/></g><g><path d="m40.03722 16.30427c.10577.06107.18934.14747.25387.25739.06453.11178.09737.23614.09698.37581l-.00185.65316-.19577-.11303.00166-.58416c.00056-.19774-.07021-.33679-.21231-.41883-.06788-.03919-.12637-.04753-.17705-.02404-.04908.02253-.07614.08144-.07642.18115l-.00164.57697-.19419-.11212.00303-1.06674.19419.11212-.00055.1941c.03176-.04712.07611-.07239.13148-.07858.05536-.00432.11541.01033.17857.0468z" fill="#fff"/></g><g><path d="m41.98165 17.10884-.0022.21868-.60626-.35002-.00109.38455.54153.31265-.00062.21949-.54153-.31265-.00164.57697-.20525-.11851.00397-1.4006z" fill="#fff"/></g><g><path d="m42.94338 18.14205c.09285.16077.13985.31883.13941.47119-.00043.15424-.04818.2575-.14162.30893-.09345.05321-.20885.03933-.34937-.0418-.13894-.08022-.25561-.20032-.34846-.3611-.09285-.15899-.13826-.31604-.13783-.47027.00043-.15236.04659-.25664.14004-.30985.09346-.05144.21043-.03842.34937.0418.14051.08113.2556.2021.34846.3611zm-.13917.56293c.05386-.03437.08251-.10142.08281-.20477.00029-.10157-.02789-.20332-.08138-.29779-.05666-.09808-.12604-.17086-.2113-.22009-.08368-.04831-.15481-.05665-.21025-.0233-.05544.03158-.0841.10051-.08438.20209-.00029.10335.02789.20322.08296.30048.05508.09716.12603.17086.2097.21917.08525.04922.15481.05665.21184.02421" fill="#fff"/></g><g><path d="m43.80114 18.47737.00093.22768-.01105-.00638c-.09631-.0556-.16904-.06122-.21819-.01693-.04915.04428-.0731.12677-.07345.24833l-.00129.45719-.19577-.11303.00303-1.06674.19577.11303-.00061.21408c.03176-.04712.07455-.07871.12835-.08945.05537-.01162.11227-.00065.17228.03222z" fill="#fff"/></g><g><path d="m45.14629 19.25399c.1042.06016.18778.14657.25388.25739.06294.11087.0958.23523.09541.3749l-.00185.65316-.19578-.11303.00166-.58416c.00056-.19774-.0702-.33678-.21231-.41883-.06631-.03828-.12479-.04839-.17387-.02763-.04908.02066-.07613.0778-.07796.16941l-.00168.59321-.19579-.11303.00166-.58416c.00029-.10158-.01528-.18697-.04672-.25234s-.08033-.11726-.14821-.15645c-.06631-.03828-.12638-.04753-.17705-.02404-.04909.02253-.07457.08235-.07485.18206l-.00164.57697-.19577-.11303.00303-1.06674.19577.11303-.00055.1941c.02861-.04894.06979-.07604.12675-.08131.05693-.00341.11699.01125.1833.04954.14683.08477.24609.21297.29781.38094.09195-.08504.20582-.09017.34476-.00996z" fill="#fff"/></g></g><g><g><path d="m33.0353 16.27186-.00275.97035-5.81993-3.36013.00275-.97036z" fill="#768c95"/></g><g><path d="m39.54377 22.08976-.00276.97035-5.81994-3.36015.00275-.97035z" fill="#dde4e7"/></g><g><path d="m39.54959 20.03289-.00275.97035-5.81994-3.36014.00275-.97036z" fill="#dde4e7"/></g><g><path d="m33.02946 18.32872-.00275.97036-5.81992-3.36014.00275-.97035z" fill="#dde4e7"/></g><g enable-background="new"><g><path d="m33.01334 24.01796-.00311 1.09455-5.81992-3.36013.0031-1.09456z" fill="#dde4e7"/></g><g><path d="m33.02363 20.38559-.00275.97014-5.81992-3.36013.00275-.97014z" fill="#768c95"/></g><g><path d="m39.55022 25.97277-.00275.97035-12.33422-7.12117.00275-.97035z" fill="#dde4e7"/></g></g><g><path d="m39.53793 24.14662-.00275.97014-5.81994-3.36015.00275-.97013z" fill="#dde4e7"/></g><g><path d="m39.52764 27.77899-.00311 1.09456-5.81994-3.36015.0031-1.09456z" fill="#dde4e7"/></g><g><path d="m39.25156 29.00115c.15004.08663.27177.29744.27128.46971l-.00133.46919c-.00049.17228-.12301.24229-.27305.15566l-1.84576-1.06565c-.15004-.08663-.27177-.29765-.27128-.46993l.00133-.46919c.00049-.17228.12301-.24207.27305-.15544z" fill="#5f6ac4"/></g><g><path d="m40.29915 19.44577c.22332.12894.40415.44206.40342.69874l-.03211 11.32626c-.00073.25668-.18275.36445-.40607.23551l-13.81012-7.97328c-.22333-.12894-.40415-.4462-.40342-.70288l.03211-11.32626c.00073-.25667.18275-.36031.40607-.23137zm-.75168 7.49736.00275-.97036-12.33423-7.12117-.00275.97036zm-.02294 1.93042.0031-1.09456-5.81995-3.36015-.00311 1.09456zm-6.51431-3.76103.00311-1.09456-5.81992-3.36013-.0031 1.09456zm.71942-8.43978-.00275.97036 5.81995 3.36015.00275-.97036zm-.00583 2.05687-.00275.97036 5.81995 3.36015.00275-.97036zm-6.50844-5.81789-.00275.97036 5.81992 3.36013.00275-.97036zm-.00583 2.05687-.00275.97036 5.81992 3.36013.00275-.97036zm6.50844 5.81789-.00275.97014 5.81995 3.36015.00275-.97015zm-6.51428-3.76102-.00275.97014 5.81992 3.36013.00275-.97014zm12.3178 12.9146.00133-.46919c.00049-.17228-.12123-.38309-.27128-.46972l-1.84576-1.06565c-.15004-.08663-.27257-.01684-.27306.15544l-.00133.46919c-.00049.17227.12125.3833.27129.46992l1.84576 1.06565c.15004.08663.27257.01662.27305-.15564" fill="#cfd8dd"/></g></g></g></svg>