<svg height="512" viewBox="0 0 58 58" width="512" xmlns="http://www.w3.org/2000/svg"><g id="Page-1" fill="none" fill-rule="evenodd"><g id="047---Layout" fill-rule="nonzero"><rect id="Rectangle-path" fill="#ecf0f1" height="58" rx="1" width="28"/><rect id="Rectangle-path" fill="#d1d4d1" height="32" rx="1" width="26" x="32" y="26"/><rect id="Rectangle-path" fill="#b0d3f0" height="22" rx="1" width="26" x="32"/><path id="Shape" d="m8 7c.55228475 0 1-.44771525 1-1v-1h4v10h-1c-.5522847 0-1 .4477153-1 1s.4477153 1 1 1h4c.5522847 0 1-.4477153 1-1s-.4477153-1-1-1h-1v-10h4v1c0 .55228475.4477153 1 1 1s1-.44771525 1-1v-2c0-.55228475-.4477153-1-1-1h-12c-.55228475 0-1 .44771525-1 1v2c0 .55228475.44771525 1 1 1z" fill="#3b97d3"/><g fill="#35495e"><path id="Shape" d="m4 22h20c.5522847 0 1-.4477153 1-1s-.4477153-1-1-1h-20c-.55228475 0-1 .4477153-1 1s.44771525 1 1 1z"/><path id="Shape" d="m4 27h7c.5522847 0 1-.4477153 1-1s-.4477153-1-1-1h-7c-.55228475 0-1 .4477153-1 1s.44771525 1 1 1z"/><path id="Shape" d="m15 25c-.5522847 0-1 .4477153-1 1s.4477153 1 1 1h3c.5522847 0 1-.4477153 1-1s-.4477153-1-1-1z"/><path id="Shape" d="m24 30h-20c-.55228475 0-1 .4477153-1 1s.44771525 1 1 1h20c.5522847 0 1-.4477153 1-1s-.4477153-1-1-1z"/><path id="Shape" d="m4 37h9c.5522847 0 1-.4477153 1-1s-.4477153-1-1-1h-9c-.55228475 0-1 .4477153-1 1s.44771525 1 1 1z"/><path id="Shape" d="m24 44h-20c-.55228475 0-1 .4477153-1 1s.44771525 1 1 1h20c.5522847 0 1-.4477153 1-1s-.4477153-1-1-1z"/><path id="Shape" d="m9 49h-5c-.55228475 0-1 .4477153-1 1s.44771525 1 1 1h5c.55228475 0 1-.4477153 1-1s-.44771525-1-1-1z"/><path id="Shape" d="m18 49h-5c-.5522847 0-1 .4477153-1 1s.4477153 1 1 1h5c.5522847 0 1-.4477153 1-1s-.4477153-1-1-1z"/></g><circle id="Oval" cx="38" cy="6" fill="#f0c419" r="2"/><circle id="Oval" cx="45" cy="48" fill="#4fba6f" r="6"/><path id="Shape" d="m54 32h-18c-.5522847 0-1-.4477153-1-1s.4477153-1 1-1h18c.5522847 0 1 .4477153 1 1s-.4477153 1-1 1z" fill="#35495e"/><path id="Shape" d="m40 37h-4c-.5522847 0-1-.4477153-1-1s.4477153-1 1-1h4c.5522847 0 1 .4477153 1 1s-.4477153 1-1 1z" fill="#35495e"/><path id="Shape" d="m47 37h-3c-.5522847 0-1-.4477153-1-1s.4477153-1 1-1h3c.5522847 0 1 .4477153 1 1s-.4477153 1-1 1z" fill="#35495e"/><path id="Shape" d="m58 19v2c0 .5522847-.4477153 1-1 1h-7l-6.23-7.61 4.456-5.444c.1899283-.23216652.4740433-.3668144.774-.3668144s.5840717.13464788.774.3668144z" fill="#24ae5f"/><path id="Shape" d="m50 22.0000012-17-.0000012c-.280342.0004344-.5483038-.115441-.74-.32l7.966-9.734c.1899283-.2321665.4740433-.3668144.774-.3668144s.5840717.1346479.774.3668144l2 2.443z" fill="#4fba6f"/><path id="Shape" d="m47 47h-1v-1c0-.5522847-.4477153-1-1-1s-1 .4477153-1 1v1h-1c-.5522847 0-1 .4477153-1 1s.4477153 1 1 1h1v1c0 .5522847.4477153 1 1 1s1-.4477153 1-1v-1h1c.5522847 0 1-.4477153 1-1s-.4477153-1-1-1z" fill="#ecf0f1"/></g></g></svg>