<svg id="Capa_1" enable-background="new 0 0 512 512" height="512" viewBox="0 0 512 512" width="512" xmlns="http://www.w3.org/2000/svg"><g><g><path d="m384.354 54.212c-1.719 0-3.447-.588-4.858-1.79-3.154-2.686-3.533-7.419-.848-10.572l30.899-36.283c2.686-3.152 7.419-3.533 10.572-.848 3.154 2.686 3.533 7.419.848 10.572l-30.899 36.283c-1.483 1.742-3.591 2.638-5.714 2.638z" fill="#8d9ca8"/></g><g><path d="m458.497 456.525h-404.994c-9.428 0-17.071-7.643-17.071-17.071v-267.471c0-9.428 7.643-17.071 17.071-17.071h404.994c9.428 0 17.071 7.643 17.071 17.071v267.471c0 9.428-7.643 17.071-17.071 17.071z" fill="#596c76"/><path d="m475.573 171.98v267.47c0 9.433-7.65 17.073-17.073 17.073h-20.619c9.423 0 17.073-7.639 17.073-17.073v-267.47c0-9.423-7.65-17.073-17.073-17.073h20.619c9.423 0 17.073 7.65 17.073 17.073z" fill="#465a61"/><path d="m430.667 428.488h-349.334c-6.328 0-11.457-5.13-11.457-11.457v-222.625c0-6.328 5.13-11.457 11.457-11.457h349.335c6.328 0 11.457 5.13 11.457 11.457v222.625c0 6.327-5.13 11.457-11.458 11.457z" fill="#dff6fd"/><path d="m442.128 194.403v222.624c0 6.33-5.134 11.464-11.464 11.464h-20.918c6.33 0 11.464-5.134 11.464-11.464v-222.624c0-6.32-5.134-11.454-11.464-11.454h20.918c6.33 0 11.464 5.134 11.464 11.454z" fill="#c8effe"/><circle cx="256" cy="197.852" fill="#fee97d" r="156.019"/><path d="m412.025 197.851c0 86.167-69.857 156.025-156.025 156.025-28.258 0-54.764-7.516-77.631-20.65 17.753 7.021 37.114 10.887 57.373 10.887 86.167 0 156.014-69.847 156.014-156.014 0-57.898-31.527-108.425-78.353-135.354 57.765 22.856 98.622 79.208 98.622 145.106z" fill="#fedf30"/><path d="m337.459 210.745h-8.513v-57.489h8.513c15.875 0 28.744 12.869 28.744 28.744.001 15.876-12.869 28.745-28.744 28.745z" fill="#b6c4cf"/><path d="m366.199 181.995c0 7.938-3.217 15.124-8.423 20.331-5.196 5.206-12.382 8.423-20.32 8.423h-8.505v-13.619c5.371-1.206 10.165-3.938 13.928-7.691 5.206-5.206 8.423-12.392 8.423-20.331 0-5.083-1.32-9.856-3.639-13.99 10.834 4.124 18.536 14.599 18.536 26.877z" fill="#9facba"/><path d="m187.363 207.755v72.367c0 14.317 11.606 25.922 25.922 25.922 14.317 0 25.922-11.606 25.922-25.922v-72.367z" fill="#b6c4cf"/><path d="m239.206 207.759v72.363c0 7.155-2.897 13.639-7.598 18.33-4.681 4.691-11.165 7.588-18.32 7.588-3.732 0-7.268-.783-10.464-2.196 2.959-1.299 5.619-3.134 7.866-5.392 4.701-4.691 7.598-11.176 7.598-18.33v-72.363z" fill="#9facba"/><g><path d="m403.89 81.224c-2.274 0-4.521-1.03-5.995-2.986-2.493-3.308-1.833-8.011 1.476-10.503l71.685-54.023c3.308-2.493 8.012-1.832 10.503 1.476 2.493 3.308 1.833 8.011-1.476 10.503l-71.685 54.023c-1.352 1.017-2.937 1.51-4.508 1.51z" fill="#8d9ca8"/></g><g><path d="m420.077 113.163c-3.515 0-6.652-2.481-7.353-6.061-.796-4.065 1.854-8.005 5.92-8.801l48.438-9.479c4.066-.791 8.006 1.854 8.801 5.92.796 4.065-1.854 8.005-5.92 8.801l-48.438 9.479c-.486.095-.97.141-1.448.141z" fill="#8d9ca8"/></g><path d="m206.899 217.115h-25.988c-19.393 0-35.115-15.721-35.115-35.115 0-19.393 15.721-35.115 35.115-35.115h25.988z" fill="#8ac9fe"/><path d="m186.277 146.881h20.619v70.239h-20.619z" fill="#60b7ff"/><path d="m206.899 146.886v35.115 35.115s70.175-2.39 111.512 54.792c3.311 4.58 10.536 2.274 10.536-3.377v-86.529-86.531c0-5.652-7.225-7.957-10.536-3.377-41.337 57.182-111.512 54.792-111.512 54.792z" fill="#f5f8f9"/><path d="m328.95 95.467v173.066c0 5.65-7.227 7.949-10.536 3.371-41.341-57.177-111.518-54.785-111.518-54.785v-19.444c16.578-.722 40.001 1.113 61.022 13.072l34.836 18.836c2.567 1.278 5.577-.598 5.577-3.464v-121.785c3.505-3.742 6.876-7.804 10.083-12.237 3.309-4.578 10.536-2.279 10.536 3.37z" fill="#e8edf2"/><path d="m489.878 509.067h-467.756c-12.218 0-22.122-9.904-22.122-22.122v-18.628c0-7.651 6.203-13.854 13.854-13.854h484.292c7.651 0 13.854 6.203 13.854 13.854v18.628c0 12.218-9.904 22.122-22.122 22.122z" fill="#b6c4cf"/><path d="m511.996 468.317v18.629c0 12.217-9.897 22.124-22.114 22.124h-20.619c12.217 0 22.114-9.907 22.114-22.124v-18.629c0-7.65-6.196-13.856-13.846-13.856h20.619c7.65 0 13.846 6.207 13.846 13.856z" fill="#9facba"/><path d="m288.845 481.03h-65.691c-10.342 0-18.726-8.384-18.726-18.726v-7.841h103.142v7.841c.001 10.342-8.383 18.726-18.725 18.726z" fill="#8d9ca8"/><path d="m307.568 454.461v7.846c0 10.34-8.382 18.722-18.722 18.722h-20.619c10.34 0 18.722-8.382 18.722-18.722v-7.846z" fill="#7a8c98"/></g></g></svg>