<svg id="Capa_1" enable-background="new 0 0 512 512" height="512" viewBox="0 0 512 512" width="512" xmlns="http://www.w3.org/2000/svg"><g><g><path d="m470.298 511.999h-352.333c-13.444 0-24.343-10.899-24.343-24.343v-463.311c0-13.444 10.899-24.343 24.343-24.343h352.332c13.444 0 24.343 10.899 24.343 24.343v463.311c.001 13.444-10.898 24.343-24.342 24.343z" fill="#b6c4cf"/><path d="m494.639 24.348v463.305c0 13.451-10.897 24.348-24.337 24.348h-20.599c13.441 0 24.337-10.897 24.337-24.348v-463.305c0-13.451-10.897-24.348-24.337-24.348h20.599c13.44 0 24.337 10.897 24.337 24.348z" fill="#9facba"/><path d="m446.896 452.216h-305.53c-6.79 0-12.294-5.504-12.294-12.294v-392.129c0-6.79 5.504-12.294 12.294-12.294h305.53c6.79 0 12.294 5.504 12.294 12.294v392.129c0 6.79-5.504 12.294-12.294 12.294z" fill="#dff6fd"/><path d="m459.189 47.789v392.136c0 6.787-5.5 12.287-12.287 12.287h-19.795c6.798 0 12.297-5.5 12.297-12.287v-392.136c0-6.787-5.5-12.287-12.297-12.287h19.795c6.787 0 12.287 5.5 12.287 12.287z" fill="#c8effe"/><g><path d="m308.612 489.607h-28.962c-4.143 0-7.5-3.357-7.5-7.5s3.357-7.5 7.5-7.5h28.962c4.143 0 7.5 3.357 7.5 7.5s-3.357 7.5-7.5 7.5z" fill="#8d9ca8"/></g></g><path d="m163.959 98.128c-2.71-2.235-6.624-2.235-9.333 0l-137.267 113.25 137.267 90.768c2.71 2.236 6.624 2.236 9.333 0l137.267-90.768z" fill="#fff5c6"/><path d="m301.224 211.383-17.529 11.597-136.713-112.798c-1.421-1.174-3.162-1.741-4.902-1.699l12.545-10.351c2.709-2.235 6.622-2.235 9.331 0z" fill="#fee97d"/><path d="m256.707 254.888v-113.609c0-2.926-2.372-5.298-5.298-5.298h-184.233c-2.926 0-5.298 2.372-5.298 5.298v113.609l93.598 61.861c2.314 1.53 5.318 1.53 7.633 0z" fill="#f5f8f9"/><path d="m256.711 141.276v99.522l-21.309 14.089v-113.611c0-2.925-2.369-5.294-5.294-5.294h21.299c2.925 0 5.304 2.369 5.304 5.294z" fill="#e8edf2"/><g><g><path d="m212.99 186.962h-107.395c-4.143 0-7.5-3.357-7.5-7.5s3.357-7.5 7.5-7.5h107.395c4.143 0 7.5 3.357 7.5 7.5s-3.357 7.5-7.5 7.5z" fill="#d9e7ec"/></g><g><path d="m212.99 218.878h-107.395c-4.143 0-7.5-3.357-7.5-7.5s3.357-7.5 7.5-7.5h107.395c4.143 0 7.5 3.357 7.5 7.5s-3.357 7.5-7.5 7.5z" fill="#d9e7ec"/></g><g><path d="m188.431 250.795h-58.276c-4.143 0-7.5-3.357-7.5-7.5s3.357-7.5 7.5-7.5h58.276c4.143 0 7.5 3.357 7.5 7.5s-3.358 7.5-7.5 7.5z" fill="#d9e7ec"/></g></g><g><g><circle cx="301.226" cy="158.852" fill="#8d9ca8" r="7.724"/></g><g><g><path d="m364.45 170.947c-.713 0-1.437-.103-2.154-.317-3.968-1.188-6.222-5.368-5.033-9.336 4.82-16.1.441-33.475-11.43-45.345-11.974-11.974-29.363-16.386-45.39-11.514-3.957 1.203-8.151-1.029-9.357-4.994-1.205-3.963 1.031-8.152 4.994-9.357 21.331-6.484 44.461-.639 60.359 15.258 15.776 15.776 21.598 38.865 15.192 60.255-.973 3.251-3.953 5.35-7.181 5.35z" fill="#8d9ca8"/></g><g><path d="m330.717 157.413c-.713 0-1.437-.103-2.154-.317-3.969-1.188-6.222-5.368-5.033-9.336.813-2.712.075-5.639-1.924-7.637-2.021-2.021-4.939-2.771-7.627-1.953-3.964 1.204-8.152-1.03-9.358-4.993-1.205-3.963 1.03-8.152 4.993-9.358 7.99-2.429 16.651-.248 22.599 5.697 5.904 5.904 8.083 14.544 5.687 22.547-.975 3.25-3.956 5.35-7.183 5.35z" fill="#8d9ca8"/></g></g></g><path d="m155.553 302.713-138.194-91.335v197.239c0 4.637 3.759 8.395 8.395 8.395h133.539 133.539c4.636 0 8.395-3.759 8.395-8.395v-197.239l-138.194 91.335c-2.268 1.499-5.212 1.499-7.48 0z" fill="#fee45a"/><path d="m301.224 211.383v197.232c0 4.635-3.759 8.394-8.394 8.394h-20.599c4.635 0 8.394-3.759 8.394-8.394v-183.616z" fill="#fed402"/></g></svg>