<svg height="512" viewBox="0 0 64 64" width="512" xmlns="http://www.w3.org/2000/svg"><g id="Layer_2"><path d="m8.828 0h46.345v61.793h-46.345z" fill="#efefef"/><path d="m8.828 61.793h46.345v2.207h-46.345z" fill="#2c3e50"/><path d="m30.529 11.85h20.23v13.693h-20.23z" fill="#fff"/><path d="m32.856 14.237h15.563v.736h-15.563z" fill="#2c3e50"/><g fill="#e5e5e5"><path d="m32.856 16.72h15.563v.736h-15.563z"/><path d="m32.856 18.62h15.563v.736h-15.563z"/><path d="m32.856 20.521h15.563v.736h-15.563z"/><path d="m32.856 22.421h15.563v.736h-15.563z"/></g><path d="m30.529 27.75h20.23v13.693h-20.23z" fill="#fff"/><path d="m32.856 30.137h15.563v.736h-15.563z" fill="#2c3e50"/><path d="m32.856 32.62h15.563v.736h-15.563z" fill="#e5e5e5"/><path d="m32.856 34.52h15.563v.736h-15.563z" fill="#e5e5e5"/><path d="m32.856 36.421h15.563v.736h-15.563z" fill="#e5e5e5"/><path d="m32.856 38.321h15.563v.736h-15.563z" fill="#e5e5e5"/><path d="m30.529 43.677h20.23v13.693h-20.23z" fill="#fff"/><path d="m32.856 46.064h15.563v.736h-15.563z" fill="#2c3e50"/><path d="m32.856 48.547h15.563v.736h-15.563z" fill="#e5e5e5"/><path d="m32.856 50.447h15.563v.736h-15.563z" fill="#e5e5e5"/><path d="m32.856 52.348h15.563v.736h-15.563z" fill="#e5e5e5"/><path d="m32.856 54.248h15.563v.736h-15.563z" fill="#e5e5e5"/><path d="m13.23 43.668h15.092v13.711h-15.092z" fill="#e04f5f"/><path d="m13.23 27.75h15.092v13.711h-15.092z" fill="#e04f5f"/><path d="m13.23 11.85h15.092v13.693h-15.092z" fill="#e04f5f"/><g><path d="m8.828 0h46.345v7.436h-46.345z" fill="#e04f5f"/><g><path d="m13.241 2.702h13.759v.736h-13.759z" fill="#fff"/><path d="m13.241 3.999h10.537v.736h-10.537z" fill="#fff"/><path d="m33.563 3.999h2.7v.736h-2.7z" fill="#2c3e50"/><path d="m37.187 3.999h2.7v.736h-2.7z" fill="#fff"/><path d="m40.811 3.999h2.7v.736h-2.7z" fill="#2c3e50"/><path d="m44.435 3.999h2.7v.736h-2.7z" fill="#fff"/><path d="m48.059 3.999h2.7v.736h-2.7z" fill="#2c3e50"/></g></g></g></svg>