<svg id="Layer_1" enable-background="new 0 0 74 74" height="512" viewBox="0 0 74 74" width="512" xmlns="http://www.w3.org/2000/svg" xmlns:xlink="http://www.w3.org/1999/xlink"><linearGradient id="SVGID_1_" gradientUnits="userSpaceOnUse" x1="24.51" x2="53.578" y1=".117" y2="52.409"><stop offset="0" stop-color="#e88989"/><stop offset="1" stop-color="#c66"/></linearGradient><linearGradient id="SVGID_2_" gradientUnits="userSpaceOnUse" x1="40.792" x2="71.559" y1="29.492" y2="84.293"><stop offset="0" stop-color="#fff"/><stop offset="1" stop-color="#eff2f8"/></linearGradient><linearGradient id="SVGID_3_" gradientUnits="userSpaceOnUse" x1="44.293" x2="46.051" y1="2.531" y2="10.574"><stop offset="0" stop-color="#ffe6e6"/><stop offset="1" stop-color="#ffb3b3"/></linearGradient><linearGradient id="lg1"><stop offset="0" stop-color="#eff2f8"/><stop offset="1" stop-color="#d8dfea"/></linearGradient><linearGradient id="SVGID_4_" gradientUnits="userSpaceOnUse" x1="16.083" x2="20.897" xlink:href="#lg1" y1="34.203" y2="64.199"/><linearGradient id="lg2"><stop offset="0" stop-color="#947bff"/><stop offset="1" stop-color="#63f"/></linearGradient><linearGradient id="SVGID_5_" gradientUnits="userSpaceOnUse" x1="23.876" x2="16.447" xlink:href="#lg2" y1="68.806" y2="52.068"/><linearGradient id="SVGID_6_" gradientUnits="userSpaceOnUse" x1="17.654" x2="22.308" xlink:href="#lg2" y1="54.993" y2="69.444"/><linearGradient id="SVGID_7_" gradientUnits="userSpaceOnUse" x1="20.01" x2="21.623" xlink:href="#lg1" y1="34.461" y2="37.431"/><linearGradient id="SVGID_8_" gradientUnits="userSpaceOnUse" x1="42.7" x2="49.147" y1="48.303" y2="48.303"><stop offset="0" stop-color="#ff7171"/><stop offset="1" stop-color="#f33"/></linearGradient><linearGradient id="SVGID_9_" gradientUnits="userSpaceOnUse" x1="52.718" x2="55.312" y1="39.253" y2="39.253"><stop offset="0" stop-color="#9ce3ff"/><stop offset="1" stop-color="#6cf"/></linearGradient><linearGradient id="SVGID_10_" gradientUnits="userSpaceOnUse" x1="53.12" x2="55.714" y1="57.357" y2="57.357"><stop offset="0" stop-color="#ffdc85"/><stop offset="1" stop-color="#fc3"/></linearGradient><linearGradient id="lg3"><stop offset="0" stop-color="#64e88c"/><stop offset="1" stop-color="#3c6"/></linearGradient><linearGradient id="SVGID_11_" gradientUnits="userSpaceOnUse" x1="32.591" x2="35.185" xlink:href="#lg3" y1="46.376" y2="46.376"/><linearGradient id="SVGID_12_" gradientUnits="userSpaceOnUse" x1="45.438" x2="45.626" xlink:href="#lg3" y1="14.605" y2="19.618"/><g><g><path d="m69 9.15v57.51c0 1.29-1.05 2.34-2.34 2.34h-42.29c-1.29 0-2.34-1.05-2.34-2.34v-57.51c0-1.29 1.05-2.34 2.34-2.34h42.29c1.29.01 2.34 1.05 2.34 2.34z" fill="url(#SVGID_1_)"/><path d="m24.37 9.15h42.29v57.51h-42.29z" fill="url(#SVGID_2_)"/><path d="m55.34 6v4.27c0 .55-.45 1-1 1h-17.64c-.55 0-1-.45-1-1v-4.27c0-.55.45-1 1-1h17.64c.55 0 1 .45 1 1z" fill="url(#SVGID_3_)"/></g><g><path d="m34.27 69h-26.19c-2.47 0-3.93-2.76-2.55-4.8l11.06-16.34v-11.24h9.18v11.28l11.04 16.3c1.39 2.05-.08 4.8-2.54 4.8z" fill="url(#SVGID_4_)"/><path d="m33.7 62.72-3.32-4.9c-8.28-.15-9.4-2.11-16.71-2.51l-5.02 7.42h25.05z" fill="url(#SVGID_5_)"/><path d="m6.9 66.56c.12.21.45.7 1.18.7h26.18c.72 0 1.06-.49 1.18-.7.12-.22.33-.78-.07-1.37l-6.69-9.88c-7.31.41-8.43 2.36-16.71 2.51l-4.99 7.37c-.4.59-.19 1.14-.08 1.37z" fill="url(#SVGID_6_)"/><path d="m26.9 37.19v-1.14c0-.42-.34-.77-.77-.77h-9.9c-.42 0-.77.34-.77.77v1.14c0 .42.34.77.77.77h9.9c.43 0 .77-.35.77-.77z" fill="url(#SVGID_7_)"/></g><g><g><path d="m45.92 62.14c-4 0-7.26-6.21-7.26-13.83s3.26-13.84 7.26-13.84 7.26 6.21 7.26 13.84-3.25 13.83-7.26 13.83zm0-27.05c-3.66 0-6.64 5.93-6.64 13.21s2.98 13.21 6.64 13.21 6.64-5.93 6.64-13.21-2.98-13.21-6.64-13.21z" fill="#555a60"/></g><g><path d="m39.5 57.65c-2.58 0-4.62-.8-5.55-2.43-2-3.47 1.74-9.39 8.35-13.21 6.61-3.81 13.61-4.1 15.61-.63s-1.74 9.39-8.35 13.21c-3.52 2.03-7.14 3.06-10.06 3.06zm12.88-18.1c-2.8 0-6.33 1.02-9.77 3.01-6.31 3.64-9.95 9.18-8.12 12.35s8.45 2.78 14.76-.86 9.95-9.18 8.12-12.35c-.84-1.44-2.66-2.15-4.99-2.15z" fill="#555a60"/></g><g><path d="m52.35 57.65c-2.92 0-6.55-1.03-10.06-3.06-6.61-3.81-10.35-9.74-8.35-13.21s9.01-3.18 15.61.63c6.61 3.81 10.35 9.74 8.35 13.21-.93 1.63-2.97 2.43-5.55 2.43zm-12.88-18.1c-2.33 0-4.15.71-4.98 2.15-1.83 3.17 1.81 8.71 8.12 12.35s12.93 4.03 14.76.86-1.81-8.71-8.12-12.35c-3.45-1.99-6.98-3.01-9.78-3.01z" fill="#555a60"/></g><path d="m49.15 48.3c0 1.78-1.45 3.22-3.22 3.22-1.78 0-3.22-1.45-3.22-3.22 0-1.78 1.45-3.22 3.22-3.22s3.22 1.45 3.22 3.22z" fill="url(#SVGID_8_)"/><path d="m55.31 39.25c0 .72-.58 1.3-1.3 1.3s-1.3-.58-1.3-1.3.58-1.3 1.3-1.3c.72.01 1.3.59 1.3 1.3z" fill="url(#SVGID_9_)"/><path d="m55.71 57.36c0 .72-.58 1.3-1.3 1.3s-1.3-.58-1.3-1.3.58-1.3 1.3-1.3 1.3.58 1.3 1.3z" fill="url(#SVGID_10_)"/><path d="m35.18 46.38c0 .72-.58 1.3-1.3 1.3s-1.3-.58-1.3-1.3.58-1.3 1.3-1.3 1.3.58 1.3 1.3z" fill="url(#SVGID_11_)"/></g><g fill="#d8dfea"><path d="m62.5 21.8c0 .29-.23.51-.51.51h-32.95c-.29 0-.51-.22-.51-.51 0-.28.22-.51.51-.51h32.95c.28 0 .51.24.51.51z"/><path d="m62.5 25.02c0 .29-.23.51-.51.51h-32.95c-.29 0-.51-.22-.51-.51 0-.28.22-.51.51-.51h32.95c.28 0 .51.23.51.51z"/><path d="m62.5 28.23c0 .29-.23.51-.51.51h-32.95c-.29 0-.51-.22-.51-.51 0-.28.22-.51.51-.51h32.95c.28.01.51.24.51.51z"/><path d="m62.5 31.45c0 .29-.23.51-.51.51h-32.95c-.29 0-.51-.22-.51-.51 0-.28.22-.51.51-.51h32.95c.28 0 .51.23.51.51z"/></g><path d="m55.15 16.71c0 .76-.62 1.38-1.4 1.38h-16.48c-.76 0-1.38-.62-1.38-1.38 0-.77.62-1.4 1.38-1.4h16.49c.77.01 1.39.63 1.39 1.4z" fill="url(#SVGID_12_)"/></g></svg>