<svg height="512" viewBox="0 0 64 64" width="512" xmlns="http://www.w3.org/2000/svg"><g id="Layer_2"><path d="m8.828 0h46.345v61.793h-46.345z" fill="#efefef"/><path d="m13.241 41.953h22.805v15.404h-22.805z" fill="#fff"/><path d="m15.569 44.398h18.15v.736h-18.15z" fill="#2c3e50"/><g fill="#e5e5e5"><path d="m15.569 46.881h18.15v.736h-18.15z"/><path d="m15.569 48.782h18.15v.736h-18.15z"/><path d="m15.569 50.682h18.15v.736h-18.15z"/><path d="m15.569 52.582h18.15v.736h-18.15z"/><path d="m15.569 54.483h18.15v.736h-18.15z"/></g><path d="m38.989 41.953h11.77v15.404h-11.77z" fill="#fff"/><path d="m41.316 44.398h7.115v.736h-7.115z" fill="#2c3e50"/><path d="m41.316 46.881h7.115v.736h-7.115z" fill="#e5e5e5"/><path d="m41.316 48.782h7.115v.736h-7.115z" fill="#e5e5e5"/><path d="m41.316 50.682h7.115v.736h-7.115z" fill="#e5e5e5"/><path d="m41.316 52.582h7.115v.736h-7.115z" fill="#e5e5e5"/><path d="m41.316 54.483h7.115v.736h-7.115z" fill="#e5e5e5"/><path d="m13.241 11.85h37.517v19.708h-37.517z" fill="#2c3e50"/><path d="m13.241 31.558h9.379v7.452h-9.379z" fill="#e04f5f"/><path d="m22.621 31.558h9.379v7.452h-9.379z" fill="#fff"/><path d="m32 31.558h9.379v7.452h-9.379z" fill="#e04f5f"/><path d="m41.379 31.558h9.379v7.452h-9.379z" fill="#fff"/><path d="m8.828 61.793h46.345v2.207h-46.345z" fill="#2c3e50"/><path d="m8.827 0h46.345v7.436h-46.345z" fill="#e04f5f"/><path d="m13.23 2.702h13.759v.736h-13.759z" fill="#fff"/><path d="m13.23 3.999h10.537v.736h-10.537z" fill="#fff"/><path d="m33.552 3.999h2.7v.736h-2.7z" fill="#2c3e50"/><path d="m37.175 3.999h2.7v.736h-2.7z" fill="#fff"/><path d="m40.799 3.999h2.7v.736h-2.7z" fill="#2c3e50"/><path d="m44.423 3.999h2.7v.736h-2.7z" fill="#fff"/><path d="m48.047 3.999h2.7v.736h-2.7z" fill="#2c3e50"/></g></svg>