<svg height="512" viewBox="0 0 64 64" width="512" xmlns="http://www.w3.org/2000/svg"><g id="Layer_2"><path d="m8.828 0h46.345v61.793h-46.345z" fill="#efefef"/><path d="m13.241 41.953h37.517v15.404h-37.517z" fill="#fff"/><path d="m15.569 44.398h32.862v.736h-32.862z" fill="#2c3e50"/><g fill="#e5e5e5"><path d="m15.569 46.881h32.862v.736h-32.862z"/><path d="m15.569 48.782h32.862v.736h-32.862z"/><path d="m15.569 50.682h32.862v.736h-32.862z"/><path d="m15.569 52.582h32.862v.736h-32.862z"/><path d="m15.569 54.483h32.862v.736h-32.862z"/></g><path d="m13.241 11.85h37.517v19.708h-37.517z" fill="#2c3e50"/><path d="m13.241 31.558h9.379v7.452h-9.379z" fill="#25b6d2"/><path d="m22.621 31.558h9.379v7.452h-9.379z" fill="#fff"/><path d="m32 31.558h9.379v7.452h-9.379z" fill="#25b6d2"/><path d="m41.379 31.558h9.379v7.452h-9.379z" fill="#fff"/><path d="m8.828 61.793h46.345v2.207h-46.345z" fill="#2c3e50"/><path d="m8.828 0h46.345v7.436h-46.345z" fill="#25b6d2"/><path d="m13.241 2.702h13.759v.736h-13.759z" fill="#fff"/><path d="m13.241 3.999h10.537v.736h-10.537z" fill="#fff"/><path d="m33.563 3.999h2.7v.736h-2.7z" fill="#fff"/><path d="m37.187 3.999h2.7v.736h-2.7z" fill="#2c3e50"/><path d="m40.811 3.999h2.7v.736h-2.7z" fill="#fff"/><path d="m44.435 3.999h2.7v.736h-2.7z" fill="#2c3e50"/><path d="m48.059 3.999h2.7v.736h-2.7z" fill="#fff"/></g></svg>