<svg height="512" viewBox="0 0 64 64" width="512" xmlns="http://www.w3.org/2000/svg"><g id="Layer_2"><path d="m8.815 0h46.345v61.793h-46.345z" fill="#efefef"/><path d="m8.815 61.793h46.345v2.207h-46.345z" fill="#2c3e50"/><path d="m13.24 36.659h37.517v20.705h-37.517z" fill="#fff"/><path d="m15.568 38.767h32.862v.736h-32.862z" fill="#2c3e50"/><g fill="#e5e5e5"><path d="m15.568 41.25h32.862v.736h-32.862z"/><path d="m15.568 43.15h32.862v.736h-32.862z"/><path d="m15.568 45.051h32.862v.736h-32.862z"/><path d="m15.568 46.951h32.862v.736h-32.862z"/><path d="m15.568 48.851h32.862v.736h-32.862z"/><path d="m15.568 48.82h32.862v.736h-32.862z"/><path d="m15.568 50.72h32.862v.736h-32.862z"/><path d="m15.568 52.621h32.862v.736h-32.862z"/><path d="m15.568 54.521h32.862v.736h-32.862z"/></g><path d="m13.24 11.85h37.517v21.866h-37.517z" fill="#2c3e50"/><path d="m15.006 13.616h10.538v2.636h-10.538z" fill="#fff"/><path d="m15.006 17.541h10.538v2.636h-10.538z" fill="#fff"/><path d="m15.006 21.465h10.538v2.636h-10.538z" fill="#fff"/><path d="m15.006 25.39h10.538v2.636h-10.538z" fill="#fff"/><path d="m15.006 29.315h10.538v2.636h-10.538z" fill="#fff"/><g><path d="m8.84 0h46.345v7.436h-46.345z" fill="#e04f5f"/><g fill="#fff"><path d="m13.254 2.702h13.759v.736h-13.759z"/><path d="m13.254 3.999h10.537v.736h-10.537z"/><path d="m33.576 3.999h2.7v.736h-2.7z"/></g><path d="m37.2 3.999h2.7v.736h-2.7z" fill="#2c3e50"/><path d="m40.824 3.999h2.7v.736h-2.7z" fill="#fff"/><path d="m44.448 3.999h2.7v.736h-2.7z" fill="#2c3e50"/><path d="m48.071 3.999h2.7v.736h-2.7z" fill="#fff"/></g></g></svg>