<svg id="Layer_1" enable-background="new 0 0 66 66" height="512" viewBox="0 0 66 66" width="512" xmlns="http://www.w3.org/2000/svg"><g id="XMLID_3093_"><g id="XMLID_3131_"><path d="m44.203 57.508h-22.406l3.179-6.933h16.048z" fill="#666"/></g><g id="XMLID_3130_"><path d="m46.046 57.361h-26.091c-1.639 0-2.968 1.329-2.967 2.967h32.024c.001-1.639-1.327-2.967-2.966-2.967z" fill="#515151"/></g><g id="XMLID_3129_"><path d="m65 44.646v-37.047c0-1.064-.863-1.926-1.926-1.926h-60.147c-1.065 0-1.927.862-1.927 1.926v37.047z" fill="#515151"/></g><g id="XMLID_3128_"><path d="m1 44.646v4.657c0 1.064.862 1.926 1.926 1.926h60.147c1.064 0 1.926-.862 1.926-1.926v-4.657z" fill="#e6e6e6"/></g><g id="XMLID_3127_"><path d="m3.215 7.925h59.569v34.469h-59.569z" fill="#fff"/></g><g id="XMLID_3126_"><circle cx="33" cy="47.938" fill="#515151" r="1.425"/></g><g id="XMLID_3095_"><g id="XMLID_3125_"><path d="m19.532 29.519h2.662v9.719h-2.662z" fill="#ccc"/></g><g id="XMLID_3124_"><path d="m24.944 26.442h2.662v12.796h-2.662z" fill="#3ab7fc"/></g><g id="XMLID_3123_"><path d="m30.356 23.365h2.662v15.873h-2.662z" fill="#88c057"/></g><g id="XMLID_3122_"><path d="m35.767 20.288h2.662v18.95h-2.662z" fill="#fc6"/></g><g id="XMLID_3121_"><path d="m41.18 17.211h2.662v22.027h-2.662z" fill="#ed7161"/></g><g id="XMLID_3116_"><g id="XMLID_3117_"><path d="m20.878 27.019c-.056 0-.105-.019-.141-.055s-.055-.085-.055-.141v-.316c-.368-.025-.716-.107-1.035-.246-.053-.022-.099-.058-.135-.105-.038-.05-.058-.107-.058-.17 0-.08.028-.149.082-.206.055-.057.127-.087.211-.087.045 0 .089.009.131.027.239.107.51.169.805.187v-1.009c-.221-.06-.411-.123-.563-.188-.174-.074-.323-.183-.443-.322-.124-.145-.188-.336-.188-.565 0-.198.05-.381.149-.546.1-.165.247-.3.439-.402.17-.09.373-.146.605-.166v-.319c0-.055.018-.103.053-.141.036-.039.086-.06.144-.06.056 0 .106.02.143.058.038.037.058.087.058.144v.31c.302.017.587.073.848.169.128.045.198.146.198.282 0 .075-.026.142-.077.201-.053.06-.126.092-.211.092-.032 0-.069-.009-.113-.026-.207-.074-.425-.117-.645-.128v1.054c.222.054.411.114.562.177.174.073.324.183.443.326.124.149.188.347.188.59 0 .199-.055.38-.162.538-.106.156-.258.282-.449.376-.168.083-.364.135-.582.155v.317c0 .058-.021.108-.061.144-.037.032-.086.051-.141.051zm.202-1.122c.506-.06.567-.307.567-.491 0-.102-.046-.178-.145-.237-.098-.059-.24-.116-.422-.169zm-.398-2.589c-.161.025-.295.077-.398.153-.114.084-.169.19-.169.325 0 .126.049.219.149.284.099.064.239.122.418.174z" fill="#ccc"/></g></g><g id="XMLID_3111_"><g id="XMLID_3112_"><path d="m26.29 23.942c-.056 0-.105-.019-.141-.055s-.055-.085-.055-.141v-.316c-.368-.025-.716-.107-1.035-.246-.053-.022-.099-.058-.135-.105-.038-.05-.058-.107-.058-.17 0-.08.028-.149.082-.206.055-.057.127-.087.211-.087.045 0 .089.009.131.028.239.107.509.169.805.187v-1.011c-.222-.06-.411-.123-.563-.188-.174-.074-.323-.183-.443-.322-.124-.145-.188-.336-.188-.565 0-.198.05-.381.149-.546s.247-.3.439-.402c.17-.09.374-.146.605-.166v-.317c0-.055.018-.103.053-.141.036-.04.086-.06.144-.06.056 0 .106.02.143.058.038.037.058.087.058.144v.31c.302.017.587.073.848.169.128.045.198.146.198.283 0 .075-.026.142-.077.2-.053.06-.126.092-.211.092-.032 0-.069-.009-.113-.026-.207-.074-.425-.117-.645-.128v1.054c.222.054.411.114.562.177.174.073.323.183.443.326.124.149.188.347.188.59 0 .199-.055.38-.162.538-.106.155-.257.282-.449.376-.168.083-.364.135-.582.155v.318c0 .058-.021.108-.061.144-.037.03-.086.049-.141.049zm.201-1.122c.506-.06.567-.306.567-.491 0-.102-.046-.178-.145-.237-.098-.059-.24-.116-.422-.169zm-.397-2.589c-.161.025-.295.077-.398.153-.114.084-.169.19-.169.325 0 .126.049.219.149.284.099.064.239.122.418.174z" fill="#3ab7fc"/></g></g><g id="XMLID_3106_"><g id="XMLID_3107_"><path d="m31.702 20.865c-.056 0-.105-.019-.141-.055s-.055-.085-.055-.141v-.316c-.368-.025-.716-.107-1.035-.246-.053-.022-.099-.058-.135-.105-.038-.05-.058-.107-.058-.17 0-.08.028-.149.082-.206s.127-.087.211-.087c.045 0 .089.009.131.028.239.107.509.169.805.187v-1.009c-.222-.06-.411-.123-.563-.188-.174-.074-.323-.183-.443-.322-.124-.145-.188-.336-.188-.565 0-.198.05-.382.149-.546.1-.165.247-.3.439-.402.17-.09.374-.146.605-.167v-.317c0-.055.018-.103.053-.141.036-.04.086-.06.144-.06.056 0 .106.02.143.058.038.037.058.087.058.144v.31c.302.017.587.074.848.169.128.045.198.146.198.283 0 .075-.026.142-.077.201-.053.06-.126.092-.211.092-.032 0-.069-.009-.113-.026-.207-.074-.425-.117-.645-.128v1.054c.222.054.411.114.562.177.174.073.324.183.443.326.124.149.188.347.188.59 0 .199-.055.38-.162.537-.106.156-.257.282-.449.376-.168.083-.364.135-.582.155v.317c0 .058-.021.108-.061.144-.037.03-.086.049-.141.049zm.201-1.122c.506-.06.567-.306.567-.491 0-.102-.046-.178-.145-.237-.098-.059-.24-.116-.422-.169zm-.398-2.589c-.161.025-.295.077-.398.153-.114.084-.169.19-.169.325 0 .126.049.219.149.284.099.064.239.122.418.174z" fill="#88c057"/></g></g><g id="XMLID_3101_"><g id="XMLID_3102_"><path d="m37.114 17.788c-.056 0-.105-.019-.141-.055s-.055-.085-.055-.141v-.316c-.368-.025-.716-.107-1.035-.246-.053-.022-.099-.058-.135-.105-.039-.05-.058-.107-.058-.17 0-.08.028-.149.082-.206.055-.057.127-.087.211-.087.045 0 .089.009.131.028.239.107.509.169.805.187v-1.009c-.221-.06-.411-.123-.563-.188-.174-.074-.323-.183-.443-.322-.124-.145-.188-.336-.188-.565 0-.198.05-.382.149-.546.1-.165.248-.3.439-.402.17-.09.374-.146.605-.167v-.317c0-.055.018-.103.053-.141.036-.04.086-.06.144-.06.056 0 .106.02.143.058.038.037.058.087.058.144v.31c.302.017.587.073.848.169.128.045.198.146.198.283 0 .075-.026.142-.077.201-.053.06-.126.092-.211.092-.032 0-.069-.009-.113-.026-.207-.074-.425-.117-.645-.128v1.054c.222.054.411.114.562.177.174.073.324.182.443.326.124.148.188.347.188.59 0 .199-.055.38-.162.538-.106.156-.257.282-.449.376-.168.083-.364.135-.582.155v.317c0 .058-.021.108-.061.144-.037.03-.086.048-.141.048zm.201-1.122c.506-.06.567-.307.567-.491 0-.102-.046-.178-.145-.237-.098-.059-.24-.116-.422-.169zm-.398-2.589c-.161.026-.295.077-.398.153-.114.084-.169.19-.169.325 0 .126.049.219.149.284.099.064.239.122.418.174z" fill="#fc6"/></g></g><g id="XMLID_3096_"><g id="XMLID_3097_"><path d="m42.526 14.711c-.056 0-.105-.019-.141-.055s-.055-.085-.055-.141v-.316c-.368-.025-.716-.107-1.035-.246-.053-.022-.099-.058-.135-.105-.038-.05-.058-.107-.058-.17 0-.08.028-.149.082-.206.055-.057.127-.087.211-.087.046 0 .089.009.131.027.239.107.509.169.805.187v-1.009c-.222-.06-.411-.123-.563-.188-.174-.074-.323-.183-.443-.322-.124-.145-.188-.336-.188-.565 0-.198.05-.382.149-.546.1-.165.248-.3.439-.402.17-.09.373-.146.605-.166v-.317c0-.055.018-.103.053-.141.036-.039.086-.06.144-.06.056 0 .106.02.143.058.038.037.058.087.058.144v.31c.302.017.587.074.848.169.128.045.198.146.198.283 0 .075-.026.142-.077.201-.053.06-.126.092-.211.092-.032 0-.069-.009-.113-.026-.207-.074-.425-.117-.645-.128v1.054c.222.054.411.114.562.177.174.073.324.182.443.326.124.149.188.347.188.59 0 .199-.055.38-.162.538-.106.156-.257.282-.449.376-.168.083-.364.135-.582.155v.318c0 .058-.021.108-.061.144-.037.029-.086.047-.141.047zm.201-1.122c.506-.06.567-.307.567-.491 0-.102-.046-.178-.145-.237-.098-.059-.24-.116-.422-.169zm-.398-2.589c-.161.025-.295.077-.398.153-.114.084-.169.19-.169.325 0 .126.049.219.149.284.099.064.239.122.418.174z" fill="#ed7161"/></g></g></g><g id="XMLID_3094_"><path d="m51.446 39.358-2.092-1.148v.683h-33.187v-26.989h.684l-1.149-2.092-1.148 2.092h.683v1.998h-1.375v.808h1.375v4.988h-1.375v.807h1.375v4.988h-1.375v.808h1.375v4.988h-1.375v.807h1.375v4.988h-1.375v.808h1.375v1.931h2.14v1.356h.807v-1.356h4.989v1.356h.807v-1.356h4.988v1.356h.807v-1.356h4.989v1.356h.807v-1.356h4.988v1.356h.808v-1.356h4.987v1.356h.808v-1.356h2.192v.684z" fill="#515151"/></g></g></svg>