<svg id="Layer_1" enable-background="new 0 0 66 66" height="512" viewBox="0 0 66 66" width="512" xmlns="http://www.w3.org/2000/svg"><g id="XMLID_9082_"><g id="XMLID_9081_"><path d="m63 1h-41.426c-1.104 0-2 .895-2 2v57.356c0 2.565-2.078 4.644-4.643 4.644h45.426c2.564 0 4.643-2.079 4.643-4.644v-57.356c0-1.105-.896-2-2-2z" fill="#e6e6e6"/></g><g id="XMLID_9079_"><path d="m6.1 7.233c-2.77-.264-5.1 1.908-5.1 4.623v40.535c0 1.104.895 2 2 2h7.288v-42.336c0-2.425-1.773-4.591-4.188-4.822z" fill="#fc6"/></g><g id="XMLID_9106_"><path d="m19.574 7.211v53.146c0 2.565-2.078 4.643-4.644 4.643-2.565 0-4.643-2.078-4.643-4.643v-48.503c0-2.569-2.073-4.643-4.643-4.643z" fill="#ed7161"/></g><g id="XMLID_9185_"><path d="m23.678 38.565v21.703h37.123v-21.703zm5.147 20.587h-4.031v-4.031h4.031zm0-5.147h-4.031v-4.031h4.031zm0-5.147h-4.031v-4.031h4.031zm0-5.146h-4.031v-4.021h4.031zm5.136 15.44h-4.021v-4.031h4.021zm0-5.147h-4.021v-4.031h4.021zm0-5.147h-4.021v-4.031h4.021zm0-5.146h-4.021v-4.021h4.021zm5.147 15.44h-4.031v-4.031h4.031zm0-5.147h-4.031v-4.031h4.031zm0-5.147h-4.031v-4.031h4.031zm0-5.146h-4.031v-4.021h4.031zm5.147 15.44h-4.031v-4.031h4.031zm0-5.147h-4.031v-4.031h4.031zm0-5.147h-4.031v-4.031h4.031zm0-5.146h-4.031v-4.021h4.031zm5.147 15.44h-4.031v-4.031h4.031zm0-5.147h-4.031v-4.031h4.031zm0-5.147h-4.031v-4.031h4.031zm0-5.146h-4.031v-4.021h4.031zm5.136 15.44h-4.021v-4.031h4.021zm0-5.147h-4.021v-4.031h4.021zm0-5.147h-4.021v-4.031h4.021zm0-5.146h-4.021v-4.021h4.021zm5.147 15.44h-4.021v-4.031h4.021zm0-5.147h-4.021v-4.031h4.021zm0-5.147h-4.021v-4.031h4.021zm0-5.146h-4.021v-4.021h4.021z" fill="#ccc"/></g><g id="XMLID_9077_"><path d="m23.678 28.93h37.123v1.247h-37.123z" fill="#ccc"/></g><g id="XMLID_9084_"><path d="m23.678 31.753h8.273v1.247h-8.273z" fill="#666"/></g><g id="XMLID_9085_"><path d="m52.528 31.753h8.273v1.247h-8.273z" fill="#666"/></g><g id="XMLID_9118_"><path d="m56.943 13.974-2.019-3.924-1.031 3.105-2.391-4.667-4.905 6.181-1.791-2.015-1.646 2.864-1.553-1.6-.879 1.793-1.799-3.355-1.173 2.042-1.654-3.232-3.439 5.967-1.992-2.471-2.075 3.466-1.719-2.201-3.199 3.273v7.886h37.123v-19.119z" fill="#515151"/></g><g id="XMLID_9074_"><path d="m56.943 19.582-2.019-2.245-1.031 1.777-2.391-2.671-4.905 3.537-1.791-1.153-1.646 1.639-1.553-.915-.879 1.025-1.799-1.92-1.173 1.169-1.654-1.85-3.439 4.09-1.992-2.089-2.075 2.257-1.719-1.533-3.199 1.873v4.513h37.123v-10.941z" fill="#3ab7fc"/></g></g></svg>