<svg id="Capa_1" enable-background="new 0 0 512 512" height="512" viewBox="0 0 512 512" width="512" xmlns="http://www.w3.org/2000/svg"><g><path d="m205.542 298.031h-43.848c-3.708 0-6.715 3.006-6.715 6.715v58.848h50.563l8.214-13.479v-43.01z" fill="#00abf2"/><g><path d="m146.582 225.337c-2.12 0-4.231-.867-5.757-2.57-2.848-3.178-2.58-8.063.599-10.911l52.924-47.419c3.178-2.848 8.062-2.58 10.911.599 2.848 3.178 2.579 8.063-.599 10.911l-52.924 47.419c-1.476 1.32-3.318 1.971-5.154 1.971z" fill="#6b7ed9"/></g><path d="m232.689 151.475c1.509-6.753-4.075-12.985-10.952-12.223l-38.488 4.262c-8.153.903-11.875 10.644-6.401 16.754l30.043 33.53c5.474 6.11 15.564 3.475 17.353-4.531z" fill="#6b7ed9"/><path d="m256.104 246.737h-43.848c-3.709 0-6.715 3.006-6.715 6.715v110.143h50.563l7.615-12.191v-92.46z" fill="#00c2fb"/><path d="m306.667 195.442h-43.848c-3.709 0-6.715 3.006-6.715 6.715v161.437h50.563l8.562-4.723v-152.983z" fill="#00d2fc"/><path d="m350.515 144.148h-37.133c-3.709 0-6.715 3.006-6.715 6.715v212.732h50.563v-212.732c0-3.709-3.006-6.715-6.715-6.715z" fill="#62ddfc"/><g><path d="m364.71 371.32h-217.42c-4.267 0-7.726-3.459-7.726-7.726s3.459-7.726 7.726-7.726h217.42c4.267 0 7.726 3.459 7.726 7.726s-3.459 7.726-7.726 7.726z" fill="#9be8fd"/></g><path d="m484.869 296.901-8.415-15.624.901-33.095 9.595-9.039c-2.872.214-5.385-1.964-5.569-4.838-4.338-67.541-36.63-127.484-85.551-168.28-7.555-6.3-18.845-4.947-24.564 3.057l-.296.413c-5.163 7.225-3.766 17.153 3.065 22.825 43.03 35.73 69.707 87.62 73.205 144.609.175 2.849-1.965 5.316-4.811 5.529l-16.03 1.194c-9.6.714-14.327 12.027-8.088 19.36l40.187 47.226c5.165 6.071 14.744 5.357 18.954-1.411z" fill="#fbc700"/><path d="m484.869 296.901 25.332-40.732c5.084-8.175-1.265-18.663-10.865-17.948l-12.385.922c0-.001-56.745 14.39-2.082 57.758z" fill="#ffe02f"/><path d="m137.963 419.68c-43.03-35.73-69.707-87.62-73.204-144.609-.175-2.849 1.965-5.316 4.811-5.529l-4.934-10.416-12.362-8.242 8.713-26.527v-13.799l-7.485-8.797c-5.165-6.071-14.744-5.357-18.954 1.411l-32.75 52.66c-5.084 8.175 1.265 18.663 10.866 17.948l12.385-.922c2.872-.214 5.385 1.963 5.569 4.838 4.338 67.535 36.626 127.482 85.55 168.28 7.555 6.3 18.845 4.947 24.564-3.057l.296-.414c5.162-7.226 3.767-17.152-3.065-22.825z" fill="#fbc700"/><path d="m69.57 269.543 16.031-1.194c9.6-.714 14.326-12.028 8.087-19.36l-32.701-38.43c-7.558 9.495-40.115 53.951 8.583 58.984z" fill="#ffe02f"/><path d="m300.78 29.543 8.047 5.004c6.768 4.209 7.482 13.788 1.411 18.954l-47.227 40.187c-7.332 6.239-18.645 1.513-19.36-8.087l-1.194-16.03c-.212-2.847-2.68-4.986-5.529-4.812-56.988 3.497-108.878 30.174-144.608 73.204-5.673 6.832-15.6 8.228-22.824 3.065l-.414-.296c-8.004-5.719-9.357-17.009-3.057-24.564 40.798-48.924 100.745-81.212 168.28-85.55 2.874-.185 5.051-2.697 4.838-5.57l17.367 5.118z" fill="#fbc700"/><path d="m300.78 29.543-44.612-27.745c-8.175-5.084-18.663 1.265-17.948 10.866l.922 12.385s10.538 51.983 61.638 4.494z" fill="#ffe02f"/><path d="m442.918 371.267-.413-.295c-7.225-5.162-17.153-3.766-22.825 3.065-35.73 43.03-87.62 69.707-144.609 73.205-2.849.175-5.316-1.965-5.529-4.811l-17.154.672-6.181 15.218-21.806-9.724-12.902 1.617-9.737 8.285c-6.07 5.165-5.357 14.744 1.411 18.954l52.658 32.749c8.175 5.084 18.663-1.265 17.948-10.865l-.922-12.385c-.214-2.872 1.964-5.385 4.838-5.57 67.541-4.338 127.484-36.63 168.28-85.551 6.301-7.555 4.947-18.845-3.057-24.564z" fill="#fbc700"/><path d="m269.542 442.43-1.194-16.03c-.715-9.6-12.028-14.326-19.36-8.088l-37.489 31.901c10.53 9.773 46.226 38.572 58.043-7.783z" fill="#ffe02f"/></g></svg>