<svg id="Layer_1" enable-background="new 0 0 100 100" viewBox="0 0 100 100" xmlns="http://www.w3.org/2000/svg"><circle cx="50" cy="50" fill="#67bd45" r="47.5"/><path d="m58.6051064 73.1992798v-14.594223h14.5941658c2.1670914 0 3.9239273-1.7567673 3.9239273-3.9238663v-9.3623199c0-2.1671638-1.7568359-3.9239311-3.9239273-3.9239311h-14.5941658v-14.594225c0-2.1670971-1.7568321-3.9239311-3.9239311-3.9239311h-9.3623238c-2.16716 0-3.9239273 1.756834-3.9239273 3.9239311v14.5942249h-14.5942288c-2.1670971 0-3.9239311 1.7567673-3.9239311 3.9239311v9.3623199c0 2.167099 1.756834 3.9238663 3.9239311 3.9238663h14.5942287v14.594223c0 2.167099 1.7567673 3.9239349 3.9239273 3.9239349h9.3623238c2.167099.0000001 3.9239312-1.7568358 3.9239312-3.9239348z" fill="#fff"/><path d="m97.5 50c0 26.2305298-21.2694702 47.4999924-47.5 47.4999924v-94.9999879c26.2305298 0 47.5 21.2694676 47.5 47.4999955z" opacity=".1"/></svg>